<?xml version="1.0" encoding="utf-8"?>
<!-- Generator: Adobe Illustrator 18.0.0, SVG Export Plug-In . SVG Version: 6.00 Build 0)  -->
<!DOCTYPE svg PUBLIC "-//W3C//DTD SVG 1.1//EN" "http://www.w3.org/Graphics/SVG/1.1/DTD/svg11.dtd">
<svg version="1.1" xmlns="http://www.w3.org/2000/svg" xmlns:xlink="http://www.w3.org/1999/xlink" x="0px" y="0px"
	 viewBox="0 0 1119.1 888.1" enable-background="new 0 0 1119.1 888.1" xml:space="preserve">
<g id="Sin">
</g>
<g id="Layer_9">
	<g>
		<g>
			<g>
				<path fill="#51A332" d="M226.9,227.2h-3.8v-11c0-1.9-1.5-3.4-3.4-3.4h-14.3c-1.9,0-3.4,1.5-3.4,3.4v11h-7.6v-11
					c0-1.9-1.5-3.4-3.4-3.4h-14.3c-1.9,0-3.4,1.5-3.4,3.4v11h-7.6v-11c0-1.9-1.5-3.4-3.4-3.4h-14.3c-1.9,0-3.4,1.5-3.4,3.4v11h-7.6
					v-11c0-1.9-1.5-3.4-3.4-3.4h-14.3c-1.9,0-3.4,1.5-3.4,3.4v11h-7.6v-11c0-1.9-1.5-3.4-3.4-3.4H90.8c-1.9,0-3.4,1.5-3.4,3.4v11
					h-3.8c-13.7,0-24.9,11.1-24.9,24.9c0,13.7,11.1,24.9,24.9,24.9h143.3c13.7,0,24.9-11.1,24.9-24.9S240.6,227.2,226.9,227.2
					L226.9,227.2z M208.8,219.6h7.6v7.6h-7.6V219.6z M180.1,219.6h7.6v7.6h-7.6V219.6z M151.5,219.6h7.6v7.6h-7.6V219.6z
					 M122.8,219.6h7.6v7.6h-7.6V219.6z M94.2,219.6h7.6v7.6h-7.6V219.6z M226.9,270.2H83.6c-10,0-18.1-8.1-18.1-18.1
					c0-10,8.1-18.1,18.1-18.1h143.3c10,0,18.1,8.1,18.1,18.1C245.1,262.1,236.9,270.2,226.9,270.2L226.9,270.2z M226.9,270.2"/>
				<path fill="#51A332" d="M112.3,241.5c-5.8,0-10.5,4.7-10.5,10.5c0,5.8,4.7,10.5,10.5,10.5c5.8,0,10.5-4.7,10.5-10.5
					C122.8,246.3,118.1,241.5,112.3,241.5L112.3,241.5z M112.3,255.9c-2.1,0-3.8-1.7-3.8-3.8c0-2.1,1.7-3.8,3.8-3.8
					c2.1,0,3.8,1.7,3.8,3.8S114.4,255.9,112.3,255.9L112.3,255.9z M112.3,255.9"/>
				<path fill="#51A332" d="M83.6,241.5c-5.8,0-10.5,4.7-10.5,10.5c0,5.8,4.7,10.5,10.5,10.5c5.8,0,10.5-4.7,10.5-10.5
					C94.2,246.3,89.4,241.5,83.6,241.5L83.6,241.5z M83.6,255.9c-2.1,0-3.8-1.7-3.8-3.8c0-2.1,1.7-3.8,3.8-3.8
					c2.1,0,3.8,1.7,3.8,3.8C87.4,254.2,85.7,255.9,83.6,255.9L83.6,255.9z M83.6,255.9"/>
				<path fill="#51A332" d="M141,241.5c-5.8,0-10.5,4.7-10.5,10.5c0,5.8,4.7,10.5,10.5,10.5s10.5-4.7,10.5-10.5
					C151.5,246.3,146.8,241.5,141,241.5L141,241.5z M141,255.9c-2.1,0-3.8-1.7-3.8-3.8s1.7-3.8,3.8-3.8s3.8,1.7,3.8,3.8
					S143.1,255.9,141,255.9L141,255.9z M141,255.9"/>
				<path fill="#51A332" d="M169.6,241.5c-5.8,0-10.5,4.7-10.5,10.5c0,5.8,4.7,10.5,10.5,10.5s10.5-4.7,10.5-10.5
					C180.1,246.3,175.4,241.5,169.6,241.5L169.6,241.5z M169.6,255.9c-2.1,0-3.8-1.7-3.8-3.8s1.7-3.8,3.8-3.8s3.8,1.7,3.8,3.8
					S171.7,255.9,169.6,255.9L169.6,255.9z M169.6,255.9"/>
				<path fill="#51A332" d="M198.3,241.5c-5.8,0-10.5,4.7-10.5,10.5c0,5.8,4.7,10.5,10.5,10.5s10.5-4.7,10.5-10.5
					C208.8,246.3,204.1,241.5,198.3,241.5L198.3,241.5z M198.3,255.9c-2.1,0-3.8-1.7-3.8-3.8s1.7-3.8,3.8-3.8s3.8,1.7,3.8,3.8
					S200.4,255.9,198.3,255.9L198.3,255.9z M198.3,255.9"/>
				<path fill="#51A332" d="M226.9,241.5c-5.8,0-10.5,4.7-10.5,10.5c0,5.8,4.7,10.5,10.5,10.5c5.8,0,10.5-4.7,10.5-10.5
					C237.5,246.3,232.7,241.5,226.9,241.5L226.9,241.5z M226.9,255.9c-2.1,0-3.8-1.7-3.8-3.8s1.7-3.8,3.8-3.8c2.1,0,3.8,1.7,3.8,3.8
					S229,255.9,226.9,255.9L226.9,255.9z M226.9,255.9"/>
				<path fill="#51A332" d="M88,144.3c-4.7,3.2-7.7,8.5-7.7,14.6c0,9.8,7.9,17.7,17.7,17.7h39.4c1.9,0,3.4-1.5,3.4-3.4v-3.8h32.7v11
					c0,3.8,3.1,6.9,6.9,6.9h0.2v14.6c0,1.9,1.5,3.4,3.4,3.4c1.9,0,3.4-1.5,3.4-3.4v-14.6h0.2c3.8,0,6.9-3.1,6.9-6.9v-12.1
					c2.2-2.5,3.6-5.8,3.6-9.4c0-7.8-6.3-14.1-14.1-14.1c-3.6,0-6.9,1.4-9.4,3.6h-33.8v-3.8c0-1.9-1.5-3.4-3.4-3.4h-18.3l17.1-42.1
					c2.1-2.3,3.6-5.2,4.2-8.5h7c2.2,0,4-1.8,4-4V76.3h11c1.9,0,3.4-1.5,3.4-3.4c0-1.9-1.5-3.4-3.4-3.4H83.6c-1.9,0-3.4,1.5-3.4,3.4
					c0,1.9,1.5,3.4,3.4,3.4h11v10.3c0,2.2,1.8,4,4,4h7c0.3,1.7,0.9,3.4,1.7,4.9L88,144.3z M87,158.9c0-6.1,4.9-11,11-11
					c6.1,0,11,4.9,11,11c0,6-4.9,11-11,11C91.9,169.9,87,165,87,158.9L87,158.9z M187.5,180.6h-7.2c-0.1,0-0.2-0.1-0.2-0.2v-7.9
					c1.2,0.3,2.5,0.5,3.8,0.5c1.3,0,2.6-0.2,3.8-0.5v7.9C187.8,180.5,187.7,180.6,187.5,180.6L187.5,180.6z M183.9,151.5
					c4.1,0,7.4,3.3,7.4,7.4c0,4.1-3.3,7.4-7.4,7.4c-4.1,0-7.4-3.3-7.4-7.4C176.6,154.8,179.9,151.5,183.9,151.5L183.9,151.5z
					 M170.4,155.1c-0.3,1.2-0.5,2.5-0.5,3.8c0,1.3,0.2,2.6,0.5,3.8h-29.6v-7.6H170.4z M134,169.9h-22.2c2.4-3,3.8-6.8,3.8-11
					c0-4.1-1.4-8-3.8-11H134V169.9z M98,141.2c-0.5,0-1,0-1.5,0.1l15.9-40c3,2.3,6.7,3.6,10.7,3.6c1.3,0,2.5-0.1,3.7-0.4l-14.9,36.7
					H98z M101.3,76.3h43.4v7.6h-43.4V76.3z M133.5,90.6c-1.4,4.4-5.6,7.6-10.4,7.6c-4.9,0-9-3.2-10.4-7.6H133.5z M133.5,90.6"/>
			</g>
			<g>
				<path fill="#51A332" d="M382.9,326.7v-6.5h6.5v-19.5h-6.5v-6.5h13V265h-27l37.6-32.6c3.6-3.1,5.6-7.6,5.6-12.3v-13l3.1-2.6
					c2.2-1.9,3.4-4.6,3.4-7.4v-6.8v-6.5v-9.7c0-9-7.3-16.2-16.2-16.2h-74.7v6.5h-13v-13H292h-3.2h-23.5l-15.5,7.7v11.7h26v6.5h-26
					v11.7l15.5,7.7h23.5h3.2h22.7v-13h13v6.5h46.7l-54.8,49.1c-10.1,1.8-17.8,10.6-17.8,21.3c0,5.8,2.2,11.2,6.3,15.3l18.3,18.3
					h11.1v6.5h-6.5v19.5h6.5v6.5h-35.7v26h149.4v-26H382.9z M266.8,190.3l-10.5-5.3v-1.2h26v-19.5h-26v-1.2l10.5-5.3h22v32.5H266.8z
					 M308.2,190.3h-13v-32.5h13V190.3z M327.7,177.3h-13v-6.5h13V177.3z M356.9,307.2v6.5h-6.5v-6.5H356.9z M363.4,307.2h6.5v6.5
					h-6.5V307.2z M382.9,313.7h-6.5v-6.5h6.5V313.7z M405.6,220.1c0,2.8-1.2,5.5-3.4,7.4L358.9,265h-0.7l-6.3-6.3l53.7-46V220.1z
					 M334.2,164.4h6.5v19.5h-6.5V164.4z M347.2,183.8v-19.5h55.2c5.4,0,9.7,4.4,9.7,9.7v9.7h-30.5H347.2z M412.1,190.3v6.8
					c0,1-0.4,1.8-1.1,2.5l-63.6,54.5l-8.7-8.7c-2.7-2.7-6.1-4.6-9.7-5.6l55.3-49.4H412.1z M312.6,271.3c-2.9-2.9-4.4-6.7-4.4-10.7
					c0-8.3,6.8-15.1,15.1-15.1c4,0,7.8,1.6,10.7,4.4l21.5,21.5h33.8v16.2H329L312.6,271.3z M343.9,294.2h32.5v6.5h-32.5V294.2z
					 M337.4,307.2h6.5v6.5h-6.5V307.2z M343.9,320.2h32.5v6.5h-32.5V320.2z M444.6,346.2h-6.5v-6.5h-6.5v6.5h-6.5v-6.5h-6.5v6.5
					h-6.5v-6.5h-6.5v6.5h-6.5v-6.5h-6.5v6.5h-6.5v-6.5h-6.5v6.5h-6.5v-6.5h-6.5v6.5h-6.5v-6.5h-6.5v6.5h-6.5v-6.5h-6.5v6.5h-6.5
					v-6.5h-6.5v6.5h-6.5v-6.5h-6.5v6.5h-6.5v-13h136.4V346.2z"/>
				<path fill="#51A332" d="M322.8,252c-4.5,0-8.1,3.6-8.1,8.1c0,4.5,3.6,8.1,8.1,8.1c4.5,0,8.1-3.6,8.1-8.1
					C330.9,255.7,327.3,252,322.8,252z M322.8,261.8c-0.9,0-1.6-0.7-1.6-1.6c0-0.9,0.7-1.6,1.6-1.6c0.9,0,1.6,0.7,1.6,1.6
					C324.4,261,323.7,261.8,322.8,261.8z"/>
			</g>
			<g>
				<rect x="681.6" y="243" fill="#51A332" width="6.6" height="6.6"/>
				<rect x="674.9" y="233" fill="#51A332" width="6.6" height="6.6"/>
				<rect x="704.8" y="249.6" fill="#51A332" width="6.6" height="6.6"/>
				<rect x="718.1" y="243" fill="#51A332" width="6.6" height="6.6"/>
				<path fill="#51A332" d="M814.4,299.4c-11,0-19.9,8.9-19.9,19.9c0,11,8.9,19.9,19.9,19.9c11,0,19.9-8.9,19.9-19.9
					C834.3,308.4,825.4,299.4,814.4,299.4z M817.7,332.2V326h-6.6v6.2c-2.4-0.6-4.5-1.8-6.1-3.5l5.4-3.1l-3.3-5.8l-5.3,3.1
					c-0.3-1.1-0.5-2.3-0.5-3.5c0-1.2,0.2-2.4,0.5-3.5l5.3,3.1l3.3-5.8l-5.4-3.1c1.7-1.7,3.8-2.9,6.1-3.5l0,6.2h6.6v-6.2
					c2.4,0.6,4.5,1.8,6.1,3.5l-5.4,3.1l3.3,5.8l5.3-3.1c0.3,1.1,0.5,2.3,0.5,3.5c0,1.2-0.2,2.4-0.5,3.5l-5.3-3.1l-3.3,5.8l5.4,3.1
					C822.2,330.3,820.1,331.6,817.7,332.2z"/>
				<path fill="#51A332" d="M851,345.9l0-59.8h-6.6v-19.9h-10l0-37.9c2.1-3.5,3.3-7.6,3.3-11.9c0-8.2-4.3-15.5-10.8-19.6l-30-33.5
					c-2.9-9.6-11.8-16.6-22.3-16.6c-8.2,0-15.3,4.2-19.5,10.6L716.4,194c-3.5,3.3-5.4,7.7-5.5,12.5c0,3.5,0.9,6.8,2.8,9.6L695.8,234
					l4.7,4.7l17.8-17.8c3,2.2,6.6,3.3,10.2,3.3c4.2,0,8.5-1.5,11.9-4.7l29.2-27c1,0.2,2,0.4,3.1,0.5l18.7,21
					c-0.1,0.8-0.1,1.6-0.1,2.3c0,4.4,1.2,8.4,3.3,11.9l0,37.9h-10l0,19.9h-6.6l0,59.8l-59.8,0l0-59.8h-6.6v-6.6h6.6v-6.6h-7
					c-1.5-7.6-8.2-13.3-16.3-13.3l-29.9,0l0,13.3h-6.6v6.6l6.6,0v6.6h-6.6l0,59.8l-40.4,0l0,6.6h40.4l59.8,0l59.8,0H851l185.3,0
					v-6.6H851z M671.6,266.2h23.2c4.3,0,8,2.8,9.4,6.6h-32.6V266.2z M671.6,279.5h33.2l0,6.6l-33.2,0V279.5z M665,345.9l0-26.6
					l33.2,0v-6.6H665l0-19.9l46.5,0v19.9h-6.6v6.6h6.6v26.6H665z M831,216.4c0,9.2-7.4,16.6-16.6,16.6s-16.6-7.4-16.6-16.6
					c0-9.2,7.4-16.6,16.6-16.6C823.6,199.8,831,207.2,831,216.4z M774.6,153.3c9.2,0,16.6,7.4,16.6,16.6c0,9.1-7.4,16.6-16.6,16.6h0
					c-9.1,0-16.6-7.5-16.6-16.6C758,160.7,765.4,153.3,774.6,153.3z M735.8,214.7c-4.3,4-10.9,3.8-15.1-0.3
					c-2.1-2.1-3.2-4.9-3.2-7.8c0-3,1.2-5.7,3.4-7.7l30.3-28.8c0,8.4,4.6,15.8,11.4,19.9L735.8,214.7z M780.8,192.3
					c8.5-2.4,15.1-9.5,16.6-18.4l17.2,19.3c-0.1,0-0.2,0-0.3,0c-9.3,0-17.3,5.5-21,13.3L780.8,192.3z M801.1,235.5
					c3.8,2.6,8.3,4.2,13.3,4.2c4.9,0,9.5-1.6,13.3-4.2l0,30.8h-26.6L801.1,235.5z M791.2,272.9h3.3l39.9,0h3.3l0,13.3h-46.5V272.9z
					 M784.5,345.9l0-53.1h59.8l0,53.1L784.5,345.9z"/>
			</g>
			<g>
				<rect x="151.3" y="384.7" fill="#51A332" width="33.6" height="5.6"/>
				<rect x="140.2" y="384.7" fill="#51A332" width="7.5" height="5.6"/>
				<rect x="188.6" y="384.7" fill="#51A332" width="7.5" height="5.6"/>
				<rect x="218.5" y="386.5" fill="#51A332" width="33.6" height="5.6"/>
				<rect x="194.2" y="425.7" fill="#51A332" width="7.5" height="5.6"/>
				<rect x="142" y="425.7" fill="#51A332" width="7.5" height="5.6"/>
				<rect x="246.4" y="425.7" fill="#51A332" width="7.5" height="5.6"/>
				<path fill="#51A332" d="M271.6,494.7v-48.5h10.3c3.6,0,6.5-2.9,6.5-6.5v-22.4c0-2.6-1.5-4.8-3.7-5.9v-13.7h-16.8V353h-59.7
					v-18.6H128v63.4h-16.8v13.7c-2.2,1-3.7,3.3-3.7,5.9v22.4c0,3.6,2.9,6.5,6.5,6.5h10.3v48.5h-17.7v5.6h182.7v-5.6H271.6z
					 M144.8,461.1h106.3v33.6H144.8V461.1z M266,494.7h-9.3v-33.6h9.3V494.7z M281.8,440.6h-18.8c2.4-2.5,4-5.7,4.6-9.3h15.1v8.4
					C282.8,440.2,282.4,440.6,281.8,440.6z M133.6,428.5c0-6.7,5.4-12.1,12.1-12.1c6.7,0,12.1,5.4,12.1,12.1
					c0,6.7-5.4,12.1-12.1,12.1C139.1,440.6,133.6,435.1,133.6,428.5z M128.3,425.7h-15.1v-8.4c0-0.5,0.4-0.9,0.9-0.9h18.8
					C130.5,418.9,128.8,422.1,128.3,425.7z M180.5,425.7h-17.2c-0.6-3.6-2.2-6.8-4.6-9.3H185C182.7,418.9,181,422.1,180.5,425.7z
					 M163.2,431.3h17.2c0.6,3.6,2.2,6.8,4.6,9.3h-26.4C161,438.1,162.7,434.8,163.2,431.3z M185.8,428.5c0-6.7,5.4-12.1,12.1-12.1
					c6.7,0,12.1,5.4,12.1,12.1c0,6.7-5.4,12.1-12.1,12.1C191.3,440.6,185.8,435.1,185.8,428.5z M232.7,425.7h-17.2
					c-0.6-3.6-2.2-6.8-4.6-9.3h26.4C234.9,418.9,233.2,422.1,232.7,425.7z M215.4,431.3h17.2c0.6,3.6,2.2,6.8,4.6,9.3h-26.4
					C213.2,438.1,214.9,434.8,215.4,431.3z M238,428.5c0-6.7,5.4-12.1,12.1-12.1s12.1,5.4,12.1,12.1c0,6.7-5.4,12.1-12.1,12.1
					S238,435.1,238,428.5z M281.8,416.3c0.5,0,0.9,0.4,0.9,0.9v8.4h-15.1c-0.6-3.6-2.2-6.8-4.6-9.3H281.8z M228.7,358.5h13.1v16.8
					h-13.1V358.5z M247.4,380.9v-22.4h14.9v39.2h-54.1v-39.2h14.9v22.4H247.4z M202.6,339.9v5.6H184v-5.6H202.6z M157.9,356.7h20.5
					v7.5h-20.5V356.7z M178.4,339.9v11.2h-20.5v-11.2H178.4z M152.3,339.9v5.6l-18.6,0v-5.6H152.3z M133.6,351.1h18.6v18.6H184
					v-18.6h18.6v46.6h-69V351.1z M279.1,403.3v7.5H116.8v-7.5H279.1z M114,440.6c-0.5,0-0.9-0.4-0.9-0.9v-8.4h15.1
					c0.6,3.6,2.2,6.8,4.6,9.3H114z M129.9,446.2l136.1,0v9.3l-136.1,0V446.2z M129.9,461.1h9.3v33.6h-9.3V461.1z"/>
			</g>
			<g>
				<path fill="#51A332" d="M624.1,303.1h-3.8v-11c0-1.9-1.5-3.4-3.4-3.4h-14.3c-1.9,0-3.4,1.5-3.4,3.4v11h-7.6v-11
					c0-1.9-1.5-3.4-3.4-3.4H574c-1.9,0-3.4,1.5-3.4,3.4v11H563v-11c0-1.9-1.5-3.4-3.4-3.4h-14.3c-1.9,0-3.4,1.5-3.4,3.4v11h-7.6v-11
					c0-1.9-1.5-3.4-3.4-3.4h-14.3c-1.9,0-3.4,1.5-3.4,3.4v11h-7.6v-11c0-1.9-1.5-3.4-3.4-3.4H488c-1.9,0-3.4,1.5-3.4,3.4v11h-3.8
					c-13.7,0-24.9,11.1-24.9,24.9s11.1,24.9,24.9,24.9l143.3,0c13.7,0,24.9-11.1,24.9-24.9S637.8,303.1,624.1,303.1L624.1,303.1z
					 M606,295.5h7.6v7.6H606V295.5z M577.3,295.5h7.6v7.6h-7.6V295.5z M548.7,295.5h7.6v7.6h-7.6V295.5z M520,295.5h7.6v7.6H520
					V295.5z M491.3,295.5h7.6v7.6h-7.6V295.5z M624.1,346.1H480.8c-10,0-18.1-8.1-18.1-18.1s8.1-18.1,18.1-18.1h143.3
					c10,0,18.1,8.1,18.1,18.1S634.1,346.1,624.1,346.1L624.1,346.1z M624.1,346.1"/>
				<path fill="#51A332" d="M509.5,317.4c-5.8,0-10.5,4.7-10.5,10.5s4.7,10.5,10.5,10.5c5.8,0,10.5-4.7,10.5-10.5
					S515.3,317.4,509.5,317.4L509.5,317.4z M509.5,331.8c-2.1,0-3.8-1.7-3.8-3.8s1.7-3.8,3.8-3.8c2.1,0,3.8,1.7,3.8,3.8
					S511.6,331.8,509.5,331.8L509.5,331.8z M509.5,331.8"/>
				<path fill="#51A332" d="M480.8,317.4c-5.8,0-10.5,4.7-10.5,10.5s4.7,10.5,10.5,10.5c5.8,0,10.5-4.7,10.5-10.5
					S486.6,317.4,480.8,317.4L480.8,317.4z M480.8,331.8c-2.1,0-3.8-1.7-3.8-3.8s1.7-3.8,3.8-3.8c2.1,0,3.8,1.7,3.8,3.8
					S482.9,331.8,480.8,331.8L480.8,331.8z M480.8,331.8"/>
				<path fill="#51A332" d="M538.1,317.4c-5.8,0-10.5,4.7-10.5,10.5s4.7,10.5,10.5,10.5c5.8,0,10.5-4.7,10.5-10.5
					S543.9,317.4,538.1,317.4L538.1,317.4z M538.1,331.8c-2.1,0-3.8-1.7-3.8-3.8s1.7-3.8,3.8-3.8c2.1,0,3.8,1.7,3.8,3.8
					S540.2,331.8,538.1,331.8L538.1,331.8z M538.1,331.8"/>
				<path fill="#51A332" d="M566.8,317.4c-5.8,0-10.5,4.7-10.5,10.5s4.7,10.5,10.5,10.5c5.8,0,10.5-4.7,10.5-10.5
					S572.6,317.4,566.8,317.4L566.8,317.4z M566.8,331.8c-2.1,0-3.8-1.7-3.8-3.8s1.7-3.8,3.8-3.8s3.8,1.7,3.8,3.8
					S568.9,331.8,566.8,331.8L566.8,331.8z M566.8,331.8"/>
				<path fill="#51A332" d="M595.4,317.4c-5.8,0-10.5,4.7-10.5,10.5s4.7,10.5,10.5,10.5c5.8,0,10.5-4.7,10.5-10.5
					S601.2,317.4,595.4,317.4L595.4,317.4z M595.4,331.8c-2.1,0-3.8-1.7-3.8-3.8s1.7-3.8,3.8-3.8c2.1,0,3.8,1.7,3.8,3.8
					S597.5,331.8,595.4,331.8L595.4,331.8z M595.4,331.8"/>
				<path fill="#51A332" d="M624.1,317.4c-5.8,0-10.5,4.7-10.5,10.5s4.7,10.5,10.5,10.5c5.8,0,10.5-4.7,10.5-10.5
					S629.9,317.4,624.1,317.4L624.1,317.4z M624.1,331.8c-2.1,0-3.8-1.7-3.8-3.8s1.7-3.8,3.8-3.8c2.1,0,3.8,1.7,3.8,3.8
					S626.2,331.8,624.1,331.8L624.1,331.8z M624.1,331.8"/>
			</g>
			<g>
				<path fill="#51A332" d="M1035.5,303.1h-3.8v-11c0-1.9-1.5-3.4-3.4-3.4H1014c-1.9,0-3.4,1.5-3.4,3.4v11h-7.6v-11
					c0-1.9-1.5-3.4-3.4-3.4h-14.3c-1.9,0-3.4,1.5-3.4,3.4v11h-7.6v-11c0-1.9-1.5-3.4-3.4-3.4h-14.3c-1.9,0-3.4,1.5-3.4,3.4v11h-7.6
					v-11c0-1.9-1.5-3.4-3.4-3.4H928c-1.9,0-3.4,1.5-3.4,3.4v11H917v-11c0-1.9-1.5-3.4-3.4-3.4h-14.3c-1.9,0-3.4,1.5-3.4,3.4v11h-3.8
					c-13.7,0-24.9,11.1-24.9,24.9s11.1,24.9,24.9,24.9l143.3,0c13.7,0,24.9-11.1,24.9-24.9S1049.2,303.1,1035.5,303.1L1035.5,303.1z
					 M1017.3,295.5h7.6v7.6h-7.6V295.5z M988.7,295.5h7.6v7.6h-7.6V295.5z M960,295.5h7.6v7.6H960V295.5z M931.4,295.5h7.6v7.6h-7.6
					V295.5z M902.7,295.5h7.6v7.6h-7.6V295.5z M1035.5,346.1H892.2c-10,0-18.1-8.1-18.1-18.1s8.1-18.1,18.1-18.1h143.3
					c10,0,18.1,8.1,18.1,18.1S1045.5,346.1,1035.5,346.1L1035.5,346.1z M1035.5,346.1"/>
				<path fill="#51A332" d="M920.8,317.4c-5.8,0-10.5,4.7-10.5,10.5s4.7,10.5,10.5,10.5c5.8,0,10.5-4.7,10.5-10.5
					S926.6,317.4,920.8,317.4L920.8,317.4z M920.8,331.8c-2.1,0-3.8-1.7-3.8-3.8s1.7-3.8,3.8-3.8c2.1,0,3.8,1.7,3.8,3.8
					S922.9,331.8,920.8,331.8L920.8,331.8z M920.8,331.8"/>
				<path fill="#51A332" d="M892.2,317.4c-5.8,0-10.5,4.7-10.5,10.5s4.7,10.5,10.5,10.5c5.8,0,10.5-4.7,10.5-10.5
					S898,317.4,892.2,317.4L892.2,317.4z M892.2,331.8c-2.1,0-3.8-1.7-3.8-3.8s1.7-3.8,3.8-3.8c2.1,0,3.8,1.7,3.8,3.8
					S894.3,331.8,892.2,331.8L892.2,331.8z M892.2,331.8"/>
				<path fill="#51A332" d="M949.5,317.4c-5.8,0-10.5,4.7-10.5,10.5s4.7,10.5,10.5,10.5c5.8,0,10.5-4.7,10.5-10.5
					S955.3,317.4,949.5,317.4L949.5,317.4z M949.5,331.8c-2.1,0-3.8-1.7-3.8-3.8s1.7-3.8,3.8-3.8c2.1,0,3.8,1.7,3.8,3.8
					S951.6,331.8,949.5,331.8L949.5,331.8z M949.5,331.8"/>
				<path fill="#51A332" d="M978.2,317.4c-5.8,0-10.5,4.7-10.5,10.5s4.7,10.5,10.5,10.5c5.8,0,10.5-4.7,10.5-10.5
					S984,317.4,978.2,317.4L978.2,317.4z M978.2,331.8c-2.1,0-3.8-1.7-3.8-3.8s1.7-3.8,3.8-3.8s3.8,1.7,3.8,3.8
					S980.3,331.8,978.2,331.8L978.2,331.8z M978.2,331.8"/>
				<path fill="#51A332" d="M1006.8,317.4c-5.8,0-10.5,4.7-10.5,10.5s4.7,10.5,10.5,10.5c5.8,0,10.5-4.7,10.5-10.5
					S1012.6,317.4,1006.8,317.4L1006.8,317.4z M1006.8,331.8c-2.1,0-3.8-1.7-3.8-3.8s1.7-3.8,3.8-3.8c2.1,0,3.8,1.7,3.8,3.8
					S1008.9,331.8,1006.8,331.8L1006.8,331.8z M1006.8,331.8"/>
				<path fill="#51A332" d="M1035.5,317.4c-5.8,0-10.5,4.7-10.5,10.5s4.7,10.5,10.5,10.5c5.8,0,10.5-4.7,10.5-10.5
					S1041.3,317.4,1035.5,317.4L1035.5,317.4z M1035.5,331.8c-2.1,0-3.8-1.7-3.8-3.8s1.7-3.8,3.8-3.8c2.1,0,3.8,1.7,3.8,3.8
					S1037.6,331.8,1035.5,331.8L1035.5,331.8z M1035.5,331.8"/>
			</g>
			<g>
				<path fill="#51A332" d="M643.1,459.5h-3.8v-11c0-1.9-1.5-3.4-3.4-3.4h-14.3c-1.9,0-3.4,1.5-3.4,3.4v11h-7.6v-11
					c0-1.9-1.5-3.4-3.4-3.4H593c-1.9,0-3.4,1.5-3.4,3.4v11H582v-11c0-1.9-1.5-3.4-3.4-3.4h-14.3c-1.9,0-3.4,1.5-3.4,3.4v11h-7.6v-11
					c0-1.9-1.5-3.4-3.4-3.4h-14.3c-1.9,0-3.4,1.5-3.4,3.4v11h-7.6v-11c0-1.9-1.5-3.4-3.4-3.4H507c-1.9,0-3.4,1.5-3.4,3.4v11h-3.8
					c-13.7,0-24.9,11.1-24.9,24.9c0,13.7,11.1,24.9,24.9,24.9h143.3c13.7,0,24.9-11.1,24.9-24.9C668,470.6,656.8,459.5,643.1,459.5
					L643.1,459.5z M625,451.9h7.6v7.6H625V451.9z M596.3,451.9h7.6v7.6h-7.6V451.9z M567.7,451.9h7.6v7.6h-7.6V451.9z M539,451.9
					h7.6v7.6H539V451.9z M510.4,451.9h7.6v7.6h-7.6V451.9z M643.1,502.5l-143.3,0c-10,0-18.1-8.1-18.1-18.1c0-10,8.1-18.1,18.1-18.1
					h143.3c10,0,18.1,8.1,18.1,18.1C661.3,494.3,653.1,502.5,643.1,502.5L643.1,502.5z M643.1,502.5"/>
				<path fill="#51A332" d="M528.5,473.8c-5.8,0-10.5,4.7-10.5,10.5c0,5.8,4.7,10.5,10.5,10.5c5.8,0,10.5-4.7,10.5-10.5
					C539,478.5,534.3,473.8,528.5,473.8L528.5,473.8z M528.5,488.1c-2.1,0-3.8-1.7-3.8-3.8c0-2.1,1.7-3.8,3.8-3.8
					c2.1,0,3.8,1.7,3.8,3.8C532.3,486.4,530.6,488.1,528.5,488.1L528.5,488.1z M528.5,488.1"/>
				<path fill="#51A332" d="M499.8,473.8c-5.8,0-10.5,4.7-10.5,10.5s4.7,10.5,10.5,10.5c5.8,0,10.5-4.7,10.5-10.5
					C510.4,478.5,505.6,473.8,499.8,473.8L499.8,473.8z M499.8,488.1c-2.1,0-3.8-1.7-3.8-3.8c0-2.1,1.7-3.8,3.8-3.8
					c2.1,0,3.8,1.7,3.8,3.8C503.6,486.4,501.9,488.1,499.8,488.1L499.8,488.1z M499.8,488.1"/>
				<path fill="#51A332" d="M557.1,473.8c-5.8,0-10.5,4.7-10.5,10.5c0,5.8,4.7,10.5,10.5,10.5c5.8,0,10.5-4.7,10.5-10.5
					C567.7,478.5,562.9,473.8,557.1,473.8L557.1,473.8z M557.1,488.1c-2.1,0-3.8-1.7-3.8-3.8c0-2.1,1.7-3.8,3.8-3.8
					c2.1,0,3.8,1.7,3.8,3.8C561,486.4,559.2,488.1,557.1,488.1L557.1,488.1z M557.1,488.1"/>
				<path fill="#51A332" d="M585.8,473.8c-5.8,0-10.5,4.7-10.5,10.5c0,5.8,4.7,10.5,10.5,10.5c5.8,0,10.5-4.7,10.5-10.5
					C596.3,478.5,591.6,473.8,585.8,473.8L585.8,473.8z M585.8,488.1c-2.1,0-3.8-1.7-3.8-3.8c0-2.1,1.7-3.8,3.8-3.8s3.8,1.7,3.8,3.8
					C589.6,486.4,587.9,488.1,585.8,488.1L585.8,488.1z M585.8,488.1"/>
				<path fill="#51A332" d="M614.5,473.8c-5.8,0-10.5,4.7-10.5,10.5c0,5.8,4.7,10.5,10.5,10.5c5.8,0,10.5-4.7,10.5-10.5
					C625,478.5,620.3,473.8,614.5,473.8L614.5,473.8z M614.5,488.1c-2.1,0-3.8-1.7-3.8-3.8c0-2.1,1.7-3.8,3.8-3.8
					c2.1,0,3.8,1.7,3.8,3.8C618.3,486.4,616.6,488.1,614.5,488.1L614.5,488.1z M614.5,488.1"/>
				<path fill="#51A332" d="M643.1,473.8c-5.8,0-10.5,4.7-10.5,10.5c0,5.8,4.7,10.5,10.5,10.5c5.8,0,10.5-4.7,10.5-10.5
					C653.6,478.5,648.9,473.8,643.1,473.8L643.1,473.8z M643.1,488.1c-2.1,0-3.8-1.7-3.8-3.8c0-2.1,1.7-3.8,3.8-3.8
					c2.1,0,3.8,1.7,3.8,3.8C646.9,486.4,645.2,488.1,643.1,488.1L643.1,488.1z M643.1,488.1"/>
			</g>
			<g>
				<path fill="#51A332" d="M837.3,459.5h-3.8v-11c0-1.9-1.5-3.4-3.4-3.4h-14.3c-1.9,0-3.4,1.5-3.4,3.4v11h-7.6v-11
					c0-1.9-1.5-3.4-3.4-3.4h-14.3c-1.9,0-3.4,1.5-3.4,3.4v11h-7.6v-11c0-1.9-1.5-3.4-3.4-3.4h-14.3c-1.9,0-3.4,1.5-3.4,3.4v11h-7.6
					v-11c0-1.9-1.5-3.4-3.4-3.4h-14.3c-1.9,0-3.4,1.5-3.4,3.4v11h-7.6v-11c0-1.9-1.5-3.4-3.4-3.4h-14.3c-1.9,0-3.4,1.5-3.4,3.4v11
					H694c-13.7,0-24.9,11.1-24.9,24.9c0,13.7,11.1,24.9,24.9,24.9h143.3c13.7,0,24.9-11.1,24.9-24.9
					C862.1,470.6,851,459.5,837.3,459.5L837.3,459.5z M819.1,451.9h7.6v7.6h-7.6V451.9z M790.5,451.9h7.6v7.6h-7.6V451.9z
					 M761.8,451.9h7.6v7.6h-7.6V451.9z M733.2,451.9h7.6v7.6h-7.6V451.9z M704.5,451.9h7.6v7.6h-7.6V451.9z M837.3,502.5H694
					c-10,0-18.1-8.1-18.1-18.1c0-10,8.1-18.1,18.1-18.1l143.3,0c10,0,18.1,8.1,18.1,18.1S847.3,502.5,837.3,502.5L837.3,502.5z
					 M837.3,502.5"/>
				<path fill="#51A332" d="M722.6,473.8c-5.8,0-10.5,4.7-10.5,10.5c0,5.8,4.7,10.5,10.5,10.5c5.8,0,10.5-4.7,10.5-10.5
					C733.2,478.5,728.4,473.8,722.6,473.8L722.6,473.8z M722.6,488.1c-2.1,0-3.8-1.7-3.8-3.8c0-2.1,1.7-3.8,3.8-3.8
					c2.1,0,3.8,1.7,3.8,3.8C726.4,486.4,724.7,488.1,722.6,488.1L722.6,488.1z M722.6,488.1"/>
				<path fill="#51A332" d="M694,473.8c-5.8,0-10.5,4.7-10.5,10.5c0,5.8,4.7,10.5,10.5,10.5c5.8,0,10.5-4.7,10.5-10.5
					C704.5,478.5,699.8,473.8,694,473.8L694,473.8z M694,488.1c-2.1,0-3.8-1.7-3.8-3.8c0-2.1,1.7-3.8,3.8-3.8c2.1,0,3.8,1.7,3.8,3.8
					C697.8,486.4,696.1,488.1,694,488.1L694,488.1z M694,488.1"/>
				<path fill="#51A332" d="M751.3,473.8c-5.8,0-10.5,4.7-10.5,10.5c0,5.8,4.7,10.5,10.5,10.5c5.8,0,10.5-4.7,10.5-10.5
					C761.8,478.5,757.1,473.8,751.3,473.8L751.3,473.8z M751.3,488.1c-2.1,0-3.8-1.7-3.8-3.8c0-2.1,1.7-3.8,3.8-3.8
					c2.1,0,3.8,1.7,3.8,3.8C755.1,486.4,753.4,488.1,751.3,488.1L751.3,488.1z M751.3,488.1"/>
				<path fill="#51A332" d="M779.9,473.8c-5.8,0-10.5,4.7-10.5,10.5c0,5.8,4.7,10.5,10.5,10.5c5.8,0,10.5-4.7,10.5-10.5
					C790.5,478.5,785.8,473.8,779.9,473.8L779.9,473.8z M779.9,488.1c-2.1,0-3.8-1.7-3.8-3.8c0-2.1,1.7-3.8,3.8-3.8s3.8,1.7,3.8,3.8
					C783.8,486.4,782,488.1,779.9,488.1L779.9,488.1z M779.9,488.1"/>
				<path fill="#51A332" d="M808.6,473.8c-5.8,0-10.5,4.7-10.5,10.5c0,5.8,4.7,10.5,10.5,10.5c5.8,0,10.5-4.7,10.5-10.5
					C819.1,478.5,814.4,473.8,808.6,473.8L808.6,473.8z M808.6,488.1c-2.1,0-3.8-1.7-3.8-3.8s1.7-3.8,3.8-3.8c2.1,0,3.8,1.7,3.8,3.8
					S810.7,488.1,808.6,488.1L808.6,488.1z M808.6,488.1"/>
				<path fill="#51A332" d="M837.3,473.8c-5.8,0-10.5,4.7-10.5,10.5c0,5.8,4.7,10.5,10.5,10.5c5.8,0,10.5-4.7,10.5-10.5
					C847.8,478.5,843.1,473.8,837.3,473.8L837.3,473.8z M837.3,488.1c-2.1,0-3.8-1.7-3.8-3.8s1.7-3.8,3.8-3.8c2.1,0,3.8,1.7,3.8,3.8
					S839.4,488.1,837.3,488.1L837.3,488.1z M837.3,488.1"/>
			</g>
			<g>
				<path fill="#51A332" d="M1032.3,459.5h-3.8v-11c0-1.9-1.5-3.4-3.4-3.4h-14.3c-1.9,0-3.4,1.5-3.4,3.4v11h-7.6v-11
					c0-1.9-1.5-3.4-3.4-3.4l-14.3,0c-1.9,0-3.4,1.5-3.4,3.4v11h-7.6v-11c0-1.9-1.5-3.4-3.4-3.4h-14.3c-1.9,0-3.4,1.5-3.4,3.4v11
					h-7.6v-11c0-1.9-1.5-3.4-3.4-3.4h-14.3c-1.9,0-3.4,1.5-3.4,3.4v11h-7.6v-11c0-1.9-1.5-3.4-3.4-3.4h-14.3c-1.9,0-3.4,1.5-3.4,3.4
					v11H889c-13.7,0-24.9,11.1-24.9,24.9c0,13.7,11.1,24.9,24.9,24.9h143.3c13.7,0,24.9-11.1,24.9-24.9
					C1057.1,470.6,1046,459.5,1032.3,459.5L1032.3,459.5z M1014.1,451.9h7.6v7.6h-7.6V451.9z M985.5,451.9h7.6v7.6h-7.6V451.9z
					 M956.8,451.9h7.6v7.6h-7.6V451.9z M928.2,451.9h7.6v7.6h-7.6V451.9z M899.5,451.9h7.6v7.6h-7.6V451.9z M1032.3,502.5H889
					c-10,0-18.1-8.1-18.1-18.1s8.1-18.1,18.1-18.1h143.3c10,0,18.1,8.1,18.1,18.1S1042.3,502.5,1032.3,502.5L1032.3,502.5z
					 M1032.3,502.5"/>
				<path fill="#51A332" d="M917.6,473.8c-5.8,0-10.5,4.7-10.5,10.5c0,5.8,4.7,10.5,10.5,10.5c5.8,0,10.5-4.7,10.5-10.5
					C928.2,478.5,923.4,473.8,917.6,473.8L917.6,473.8z M917.6,488.1c-2.1,0-3.8-1.7-3.8-3.8s1.7-3.8,3.8-3.8c2.1,0,3.8,1.7,3.8,3.8
					S919.7,488.1,917.6,488.1L917.6,488.1z M917.6,488.1"/>
				<path fill="#51A332" d="M889,473.8c-5.8,0-10.5,4.7-10.5,10.5c0,5.8,4.7,10.5,10.5,10.5c5.8,0,10.5-4.7,10.5-10.5
					C899.5,478.5,894.8,473.8,889,473.8L889,473.8z M889,488.1c-2.1,0-3.8-1.7-3.8-3.8s1.7-3.8,3.8-3.8c2.1,0,3.8,1.7,3.8,3.8
					S891.1,488.1,889,488.1L889,488.1z M889,488.1"/>
				<path fill="#51A332" d="M946.3,473.8c-5.8,0-10.5,4.7-10.5,10.5c0,5.8,4.7,10.5,10.5,10.5c5.8,0,10.5-4.7,10.5-10.5
					C956.8,478.5,952.1,473.8,946.3,473.8L946.3,473.8z M946.3,488.1c-2.1,0-3.8-1.7-3.8-3.8s1.7-3.8,3.8-3.8s3.8,1.7,3.8,3.8
					S948.4,488.1,946.3,488.1L946.3,488.1z M946.3,488.1"/>
				<path fill="#51A332" d="M975,473.8c-5.8,0-10.5,4.7-10.5,10.5c0,5.8,4.7,10.5,10.5,10.5c5.8,0,10.5-4.7,10.5-10.5
					C985.5,478.5,980.8,473.8,975,473.8L975,473.8z M975,488.1c-2.1,0-3.8-1.7-3.8-3.8s1.7-3.8,3.8-3.8s3.8,1.7,3.8,3.8
					S977.1,488.1,975,488.1L975,488.1z M975,488.1"/>
				<path fill="#51A332" d="M1003.6,473.8c-5.8,0-10.5,4.7-10.5,10.5c0,5.8,4.7,10.5,10.5,10.5c5.8,0,10.5-4.7,10.5-10.5
					C1014.1,478.5,1009.4,473.8,1003.6,473.8L1003.6,473.8z M1003.6,488.1c-2.1,0-3.8-1.7-3.8-3.8s1.7-3.8,3.8-3.8
					c2.1,0,3.8,1.7,3.8,3.8S1005.7,488.1,1003.6,488.1L1003.6,488.1z M1003.6,488.1"/>
				<path fill="#51A332" d="M1032.3,473.8c-5.8,0-10.5,4.7-10.5,10.5c0,5.8,4.7,10.5,10.5,10.5c5.8,0,10.5-4.7,10.5-10.5
					C1042.8,478.5,1038.1,473.8,1032.3,473.8L1032.3,473.8z M1032.3,488.1c-2.1,0-3.8-1.7-3.8-3.8s1.7-3.8,3.8-3.8
					c2.1,0,3.8,1.7,3.8,3.8S1034.4,488.1,1032.3,488.1L1032.3,488.1z M1032.3,488.1"/>
			</g>
			<g>
				<path fill="#51A332" d="M459.2,461.6l-3.4-1.7l4.9-9.8c0.8-1.7,0.1-3.7-1.5-4.5l-12.8-6.4c-1.7-0.8-3.7-0.1-4.5,1.5l-4.9,9.8
					l-6.8-3.4l4.9-9.8c0.8-1.7,0.1-3.7-1.5-4.5l-12.8-6.4c-1.7-0.8-3.7-0.1-4.5,1.5l-4.9,9.8l-6.8-3.4l4.9-9.8
					c0.8-1.7,0.1-3.7-1.5-4.5l-12.8-6.4c-1.7-0.8-3.7-0.1-4.5,1.5l-4.9,9.8l-6.8-3.4l4.9-9.8c0.8-1.7,0.1-3.7-1.5-4.5l-12.8-6.4
					c-1.7-0.8-3.7-0.1-4.5,1.5l-4.9,9.8l-6.8-3.4l4.9-9.8c0.8-1.7,0.1-3.7-1.5-4.5l-12.8-6.4c-1.7-0.8-3.7-0.1-4.5,1.5l-4.9,9.8
					l-3.4-1.7c-12.3-6.1-27.2-1.1-33.3,11.2c-6.1,12.3-1.1,27.2,11.2,33.3l128.4,63.7c12.3,6.1,27.2,1.1,33.3-11.2
					S471.5,467.7,459.2,461.6L459.2,461.6z M446.3,446.8l6.8,3.4l-3.4,6.8l-6.8-3.4L446.3,446.8z M420.7,434l6.8,3.4l-3.4,6.8
					l-6.8-3.4L420.7,434z M395,421.3l6.8,3.4l-3.4,6.8l-6.8-3.4L395,421.3z M369.3,408.5l6.8,3.4l-3.4,6.8l-6.8-3.4L369.3,408.5z
					 M343.6,395.8l6.8,3.4l-3.4,6.8l-6.8-3.4L343.6,395.8z M440.1,500.1l-128.4-63.7c-9-4.4-12.6-15.3-8.2-24.3
					c4.4-9,15.3-12.6,24.3-8.2l128.4,63.7c9,4.4,12.6,15.3,8.2,24.3C459.9,500.9,449,504.6,440.1,500.1L440.1,500.1z M440.1,500.1"
					/>
				<path fill="#51A332" d="M350.1,423.5c-5.2-2.6-11.5-0.4-14.1,4.7c-2.6,5.2-0.5,11.5,4.7,14.1c5.2,2.6,11.5,0.4,14.1-4.7
					S355.3,426.1,350.1,423.5L350.1,423.5z M343.8,436.3c-1.9-0.9-2.7-3.2-1.7-5.1c0.9-1.9,3.2-2.7,5.1-1.7c1.9,0.9,2.6,3.2,1.7,5.1
					C347.9,436.5,345.6,437.3,343.8,436.3L343.8,436.3z M343.8,436.3"/>
				<path fill="#51A332" d="M324.5,410.8c-5.2-2.6-11.5-0.4-14.1,4.7c-2.6,5.2-0.5,11.5,4.7,14.1c5.2,2.6,11.5,0.4,14.1-4.7
					S329.7,413.3,324.5,410.8L324.5,410.8z M318.1,423.6c-1.9-0.9-2.6-3.2-1.7-5.1c0.9-1.9,3.2-2.7,5.1-1.7c1.9,0.9,2.7,3.2,1.7,5.1
					C322.3,423.8,320,424.5,318.1,423.6L318.1,423.6z M318.1,423.6"/>
				<path fill="#51A332" d="M375.8,436.2c-5.2-2.6-11.5-0.4-14.1,4.7s-0.4,11.5,4.7,14.1c5.2,2.6,11.5,0.5,14.1-4.7
					C383.1,445.2,381,438.8,375.8,436.2L375.8,436.2z M369.4,449.1c-1.9-0.9-2.7-3.2-1.7-5.1c0.9-1.9,3.2-2.7,5.1-1.7
					c1.9,0.9,2.7,3.2,1.7,5.1C373.6,449.2,371.3,450,369.4,449.1L369.4,449.1z M369.4,449.1"/>
				<path fill="#51A332" d="M401.5,449c-5.2-2.6-11.5-0.4-14.1,4.7s-0.5,11.5,4.7,14.1c5.2,2.6,11.5,0.5,14.1-4.7
					C408.8,457.9,406.7,451.6,401.5,449L401.5,449z M395.1,461.8c-1.9-0.9-2.7-3.2-1.7-5.1c0.9-1.9,3.2-2.7,5.1-1.7
					c1.9,0.9,2.7,3.2,1.7,5.1C399.3,462,397,462.8,395.1,461.8L395.1,461.8z M395.1,461.8"/>
				<path fill="#51A332" d="M427.1,461.7c-5.2-2.6-11.5-0.4-14.1,4.7s-0.5,11.5,4.7,14.1c5.2,2.6,11.5,0.5,14.1-4.7
					C434.5,470.6,432.3,464.3,427.1,461.7L427.1,461.7z M420.8,474.6c-1.9-0.9-2.7-3.2-1.7-5.1c0.9-1.9,3.2-2.7,5.1-1.7
					c1.9,0.9,2.7,3.2,1.7,5.1C424.9,474.7,422.6,475.5,420.8,474.6L420.8,474.6z M420.8,474.6"/>
				<path fill="#51A332" d="M452.8,474.5c-5.2-2.6-11.5-0.4-14.1,4.7c-2.6,5.2-0.5,11.5,4.7,14.1c5.2,2.6,11.5,0.5,14.1-4.7
					C460.1,483.4,458,477,452.8,474.5L452.8,474.5z M446.4,487.3c-1.9-0.9-2.6-3.2-1.7-5.1c0.9-1.9,3.2-2.7,5.1-1.7
					c1.9,0.9,2.7,3.2,1.7,5.1C450.6,487.5,448.3,488.2,446.4,487.3L446.4,487.3z M446.4,487.3"/>
			</g>
		</g>
		<g>
			<g>
				<path fill="#51A332" d="M495.7,720h-10.9v-13.6c0-11.1-9.1-20.2-20.2-20.2h-17.7c-11.1,0-20.2,9.1-20.2,20.2V720h-43.1v-9.4
					h25.2c4.6,0,8.4-3.8,8.4-8.4v-53.4c0-4.6-3.8-8.4-8.4-8.4H331c-4.6,0-8.4,3.8-8.4,8.4v53.4c0,4.6,3.8,8.4,8.4,8.4h25.2v9.4
					h-44.5c-1.8,0-3.3,1.5-3.3,3.3v92c0,1.8,1.5,3.3,3.3,3.3c1.8,0,3.3-1.5,3.3-3.3v-42.7h177.4v42.7c0,1.8,1.5,3.3,3.3,3.3
					c1.8,0,3.3-1.5,3.3-3.3v-92C499,721.4,497.5,720,495.7,720L495.7,720z M433.3,706.3c0-7.5,6.1-13.6,13.6-13.6h17.7
					c7.5,0,13.6,6.1,13.6,13.6V720h-45V706.3z M331,704c-1,0-1.8-0.8-1.8-1.8v-53.4c0-1,0.8-1.8,1.8-1.8h77.8c1,0,1.8,0.8,1.8,1.8
					v53.4c0,1-0.8,1.8-1.8,1.8H331z M362.8,710.5h14.3v9.4h-14.3V710.5z M315,766v-39.4h177.4V766H315z M315,766"/>
				<path fill="#51A332" d="M435,661.1c0,11.4,9.3,20.8,20.8,20.8c11.4,0,20.8-9.3,20.8-20.8c0-11.4-9.3-20.8-20.8-20.8
					C444.3,640.3,435,649.6,435,661.1L435,661.1z M469.9,661.1c0,7.8-6.4,14.2-14.2,14.2c-7.8,0-14.2-6.4-14.2-14.2
					c0-7.8,6.4-14.2,14.2-14.2C463.6,646.9,469.9,653.3,469.9,661.1L469.9,661.1z M469.9,661.1"/>
			</g>
			<g>
				<path fill="#51A332" d="M680.2,720h-10.9v-13.6c0-11.1-9.1-20.2-20.2-20.2h-17.7c-11.1,0-20.2,9.1-20.2,20.2V720h-43.1v-9.4
					h25.2c4.6,0,8.4-3.8,8.4-8.4v-53.4c0-4.6-3.8-8.4-8.4-8.4h-77.8c-4.6,0-8.4,3.8-8.4,8.4v53.4c0,4.6,3.8,8.4,8.4,8.4h25.2v9.4
					h-44.5c-1.8,0-3.3,1.5-3.3,3.3v92c0,1.8,1.5,3.3,3.3,3.3c1.8,0,3.3-1.5,3.3-3.3v-42.7H677v42.7c0,1.8,1.5,3.3,3.3,3.3
					c1.8,0,3.3-1.5,3.3-3.3v-92C683.5,721.4,682,720,680.2,720L680.2,720z M617.8,706.3c0-7.5,6.1-13.6,13.6-13.6h17.7
					c7.5,0,13.6,6.1,13.6,13.6V720h-45V706.3z M515.5,704c-1,0-1.8-0.8-1.8-1.8v-53.4c0-1,0.8-1.8,1.8-1.8h77.8c1,0,1.8,0.8,1.8,1.8
					v53.4c0,1-0.8,1.8-1.8,1.8H515.5z M547.3,710.5h14.3v9.4h-14.3V710.5z M499.5,766v-39.4H677V766H499.5z M499.5,766"/>
				<path fill="#51A332" d="M619.5,661.1c0,11.4,9.3,20.8,20.8,20.8c11.4,0,20.8-9.3,20.8-20.8c0-11.4-9.3-20.8-20.8-20.8
					C628.8,640.3,619.5,649.6,619.5,661.1L619.5,661.1z M654.4,661.1c0,7.8-6.4,14.2-14.2,14.2c-7.8,0-14.2-6.4-14.2-14.2
					c0-7.8,6.4-14.2,14.2-14.2C648.1,646.9,654.4,653.3,654.4,661.1L654.4,661.1z M654.4,661.1"/>
			</g>
			<g>
				<path fill="#51A332" d="M864.7,720h-10.9v-13.6c0-11.1-9.1-20.2-20.2-20.2h-17.7c-11.1,0-20.2,9.1-20.2,20.2V720h-43.1v-9.4
					h25.2c4.6,0,8.4-3.8,8.4-8.4v-53.4c0-4.6-3.8-8.4-8.4-8.4H700c-4.6,0-8.4,3.8-8.4,8.4v53.4c0,4.6,3.8,8.4,8.4,8.4h25.2v9.4
					h-44.5c-1.8,0-3.3,1.5-3.3,3.3v92c0,1.8,1.5,3.3,3.3,3.3c1.8,0,3.3-1.5,3.3-3.3v-42.7h177.4v42.7c0,1.8,1.5,3.3,3.3,3.3
					c1.8,0,3.3-1.5,3.3-3.3v-92C868,721.4,866.5,720,864.7,720L864.7,720z M802.3,706.3c0-7.5,6.1-13.6,13.6-13.6h17.7
					c7.5,0,13.6,6.1,13.6,13.6V720h-45V706.3z M700,704c-1,0-1.8-0.8-1.8-1.8v-53.4c0-1,0.8-1.8,1.8-1.8h77.8c1,0,1.8,0.8,1.8,1.8
					v53.4c0,1-0.8,1.8-1.8,1.8H700z M731.8,710.5h14.3v9.4h-14.3V710.5z M684,766v-39.4h177.4V766H684z M684,766"/>
				<path fill="#51A332" d="M804,661.1c0,11.4,9.3,20.8,20.8,20.8c11.4,0,20.8-9.3,20.8-20.8c0-11.4-9.3-20.8-20.8-20.8
					C813.3,640.3,804,649.6,804,661.1L804,661.1z M838.9,661.1c0,7.8-6.4,14.2-14.2,14.2c-7.8,0-14.2-6.4-14.2-14.2
					c0-7.8,6.4-14.2,14.2-14.2C832.6,646.9,838.9,653.3,838.9,661.1L838.9,661.1z M838.9,661.1"/>
			</g>
		</g>
	</g>
</g>
<g id="B1" display="none">
</g>
</svg>
