<?xml version="1.0" encoding="utf-8"?>
<!-- Generator: Adobe Illustrator 18.0.0, SVG Export Plug-In . SVG Version: 6.00 Build 0)  -->
<!DOCTYPE svg PUBLIC "-//W3C//DTD SVG 1.1//EN" "http://www.w3.org/Graphics/SVG/1.1/DTD/svg11.dtd">
<svg version="1.1" xmlns="http://www.w3.org/2000/svg" xmlns:xlink="http://www.w3.org/1999/xlink" x="0px" y="0px"
	 viewBox="0 0 738.1 543.1" enable-background="new 0 0 738.1 543.1" xml:space="preserve">
<g id="Sin">
</g>
<g id="Layer_9">
	<g>
		<g>
			<line fill="none" x1="593.5" y1="385" x2="593.5" y2="386"/>
			<g>
				<g>
					<g>
						<path fill="#51A332" stroke="#51A332" stroke-width="3" stroke-miterlimit="10" d="M140.8,370.4 M140.8,370.4 M278.5,498.9
							l-73,0c-5.2,0-9.5-4.3-9.5-9.5l0-94.3c0-5.2,4.3-9.5,9.5-9.5l73,0c5.2,0,9.5,4.3,9.5,9.5l0,94.3
							C288.1,494.6,283.8,498.9,278.5,498.9z M205.6,389.3c-3.2,0-5.8,2.6-5.8,5.8l0,94.3c0,3.2,2.6,5.8,5.8,5.8l73,0
							c3.2,0,5.8-2.6,5.8-5.8l0-94.3c0-3.2-2.6-5.8-5.8-5.8L205.6,389.3z M273.7,486.4l-63.3,0c-1,0-1.9-0.8-1.9-1.9l0-84.6
							c0-1,0.8-1.9,1.9-1.9l63.3,0c1,0,1.9,0.8,1.9,1.9l0,84.6C275.6,485.6,274.8,486.4,273.7,486.4z M212.3,482.7l59.6,0l0-80.9
							l-59.6,0L212.3,482.7z M242.1,391.9c1,0,1.9,0.8,1.9,1.9c0,1-0.8,1.9-1.9,1.9c-1,0-1.9-0.8-1.9-1.9
							C240.2,392.8,241,391.9,242.1,391.9z M242.1,487.6c1.8,0,3.2,1.4,3.2,3.2c0,1.8-1.4,3.2-3.2,3.2s-3.2-1.4-3.2-3.2
							C238.8,489.1,240.3,487.6,242.1,487.6z"/>
					</g>
				</g>
				
					<circle fill="none" stroke="#51A332" stroke-width="8" stroke-linecap="round" stroke-linejoin="round" stroke-miterlimit="10" cx="506.4" cy="273.2" r="43.7"/>
				
					<path fill="none" stroke="#51A332" stroke-width="8" stroke-linecap="round" stroke-linejoin="round" stroke-miterlimit="10" d="
					M465.4,272.2c0,0,37.3,10.7,48-39.3"/>
				
					<path fill="none" stroke="#51A332" stroke-width="8" stroke-linecap="round" stroke-linejoin="round" stroke-miterlimit="10" d="
					M547.4,271.5c7.8-1.5-16.9,11.4-42.7-9.3"/>
				
					<path fill="none" stroke="#51A332" stroke-width="8" stroke-linecap="round" stroke-linejoin="round" stroke-miterlimit="10" d="
					M504.7,443.5H446c0,0,7.3-106.7,44.7-106.7c37.3,0,38.7,0,60,26"/>
				
					<line fill="none" stroke="#51A332" stroke-width="8" stroke-linecap="round" stroke-linejoin="round" stroke-miterlimit="10" x1="491" y1="421.5" x2="520" y2="465.5"/>
				
					<circle fill="none" stroke="#51A332" stroke-width="8" stroke-linecap="round" stroke-linejoin="round" stroke-miterlimit="10" cx="181.4" cy="273.2" r="43.7"/>
				
					<path fill="none" stroke="#51A332" stroke-width="8" stroke-linecap="round" stroke-linejoin="round" stroke-miterlimit="10" d="
					M140.4,272.2c0,0,37.3,10.7,48-39.3"/>
				
					<path fill="none" stroke="#51A332" stroke-width="8" stroke-linecap="round" stroke-linejoin="round" stroke-miterlimit="10" d="
					M222.4,271.5c7.8-1.5-16.9,11.4-42.7-9.3"/>
				
					<path fill="none" stroke="#51A332" stroke-width="8" stroke-linecap="round" stroke-linejoin="round" stroke-miterlimit="10" d="
					M179.7,443.5H121c0,0,7.3-106.7,44.7-106.7c37.3,0,38.7,0,60,26"/>
			</g>
			<g>
				<path fill="#51A332" d="M609.9,384.5h-74.7v103.4h7.7v11.2l7.7-5.1l7.7,5.1v-11.2h51.7c4.2,0,7.6-3.4,7.6-7.6v-88.1
					C617.5,387.9,614.1,384.5,609.9,384.5L609.9,384.5z M539,388.3h53.6v28.7H539V388.3z M592.6,451.6H539v-30.6h53.6V451.6z
					 M554.3,492l-3.8-2.6l-3.8,2.6v-4.1h7.7V492z M558.2,484.1H539v-28.7h53.6v28.7H558.2z M596.5,484.1v-95.8h5.7v95.8H596.5z
					 M606.1,420.9h7.7v30.6h-7.7V420.9z M613.7,480.3c0,2.1-1.7,3.8-3.8,3.8h-3.8v-28.7h7.7V480.3z M606.1,417.1v-28.7h3.8
					c2.1,0,3.8,1.7,3.8,3.8v24.9H606.1z M606.1,417.1"/>
				<path fill="#51A332" d="M640.6,384.5h-7.7c-3.2,0-5.7,2.6-5.7,5.7v90.6l7.7,13.4v3.3c0,1.1,0.8,1.9,1.9,1.9
					c1.1,0,1.9-0.9,1.9-1.9v-3.3l7.7-13.4v-90.6C646.3,387.1,643.7,384.5,640.6,384.5L640.6,384.5z M631,401.7h11.5v3.8H631V401.7z
					 M636.7,489.8l-4.4-7.6h8.7L636.7,489.8z M642.4,478.3H631v-69h11.5V478.3z M631,397.9v-7.7c0-1,0.9-1.9,1.9-1.9h7.7
					c1,0,1.9,0.8,1.9,1.9v7.7H631z M631,397.9"/>
			</g>
		</g>
		<g>
			<path fill="#51A332" stroke="#51A332" stroke-miterlimit="10" d="M116.1,199.8l0-3c0-7.2-2.5-13.9-7.2-18.8
				c-4.7-5.1-11.2-7.9-18.3-7.9l-2.5,0c-7.1,0-13.6,2.8-18.3,7.9c-4.6,5-7.2,11.6-7.2,18.8l0,3c-5.6,0.4-10.1,5-10,10.7l0,4.7
				c0,5.9,4.8,10.8,10.8,10.8l6.1,0c1.1,0,2-0.9,2-2l0-22.3c0-1.1-0.9-2-2-2h-2.8v-3c0-13,9.3-22.8,21.5-22.8h2.5
				c12.3,0,21.5,9.8,21.5,22.8l0,3h-2.8c-1.1,0-2,0.9-2,2l0,22.3c0,1.1,0.9,2,2,2l2.8,0c-0.8,10.3-7.9,12.7-11.2,13.2
				c-0.9-2.8-3.5-4.8-6.6-4.8h-4.9c-3.8,0-6.9,3.1-6.9,6.9c0,3.8,3.1,6.9,6.9,6.9h4.9c3.2,0,5.9-2.2,6.7-5.1
				c1.6-0.2,4.2-0.8,6.7-2.3c3.6-2.1,7.8-6.3,8.3-14.9c5.6-0.3,10.1-5,10.1-10.7l0-4.7C126.2,204.9,121.7,200.2,116.1,199.8
				L116.1,199.8z M67.5,222.1l-4.1,0c-3.8,0-6.8-3.1-6.8-6.8l0-4.7c0-3.8,3.1-6.8,6.8-6.8l4.1,0L67.5,222.1z M94.4,244.3l-4.9,0
				c-1.6,0-3-1.3-3-3c0-1.6,1.3-3,3-3h4.9c1.6,0,3,1.3,3,3C97.3,243,96,244.3,94.4,244.3L94.4,244.3z M122.2,215.2
				c0,3.8-3.1,6.8-6.8,6.8h-4.1l0-18.3h4.1c3.8,0,6.8,3.1,6.8,6.8L122.2,215.2z M122.2,215.2"/>
		</g>
		<g>
			<path fill="#51A332" stroke="#51A332" stroke-width="2" stroke-miterlimit="10" d="M561.3,191.5c-11.5,0-20.9,9.4-20.9,20.9
				c0,11.5,9.4,20.9,20.9,20.9c11.5,0,20.9-9.4,20.9-20.9C582.2,200.9,572.8,191.5,561.3,191.5L561.3,191.5z M561.3,228.1
				c-8.6,0-15.7-7-15.7-15.7c0-8.6,7-15.7,15.7-15.7c8.6,0,15.7,7,15.7,15.7C577,221,570,228.1,561.3,228.1L561.3,228.1z
				 M561.3,228.1"/>
			<path fill="#51A332" stroke="#51A332" stroke-width="2" stroke-miterlimit="10" d="M685.4,95.4c0-28.5-23.2-51.7-51.7-51.7
				c-13.6,0-26.3,5.2-36,14.6c-7.4-4.6-15.8-7-24.6-7c-21.7,0-40.1,14.5-45.3,35.2c-5.8-4-12.7-6.2-19.8-6.2c-19.3,0-35,15.7-35,35
				c0,18.8,14.9,34.2,33.6,35c1,20.8,18.1,37.4,39.1,37.4c9.5,0,18.5-3.4,25.6-9.6c7.5,12.1,20.6,19.5,34.9,19.5
				c22.7,0,41.1-18.4,41.1-41.1c0-3.6-0.5-7.2-1.4-10.7C669,140.1,685.4,119.4,685.4,95.4L685.4,95.4z M642.1,141.1
				c-0.8,0.1-1.4,0.6-1.8,1.3c-0.4,0.7-0.5,1.5-0.2,2.2c1.3,3.9,2,7.8,2,11.8c0,19.8-16.1,35.9-35.9,35.9
				c-13.5,0-25.8-7.5-31.9-19.7c-0.4-0.8-1.1-1.3-1.9-1.4c-0.1,0-0.3,0-0.4,0c-0.7,0-1.4,0.3-1.9,0.8c-6.5,6.7-15.1,10.4-24.4,10.4
				c-18.7,0-33.9-15.2-33.9-33.9c0-0.1,0-0.2,0-0.3c0-0.2,0-0.3,0-0.5c0-0.7-0.3-1.4-0.8-1.9c-0.5-0.5-1.2-0.8-1.9-0.8
				c-0.2,0-0.4,0-0.6,0c-0.2,0-0.3,0-0.5,0c-16.4,0-29.8-13.3-29.8-29.8c0-16.4,13.4-29.8,29.8-29.8c7.3,0,14.3,2.7,19.8,7.6
				c0.7,0.6,1.7,0.8,2.6,0.5c0.9-0.3,1.6-1.1,1.7-2.1c3.2-20.3,20.5-35,41-35c8.4,0,16.5,2.5,23.5,7.3c1.1,0.7,2.5,0.6,3.4-0.4
				c8.9-9.4,20.9-14.5,33.7-14.5c25.7,0,46.5,20.9,46.5,46.5C680.2,117.8,664.2,137.1,642.1,141.1L642.1,141.1z M642.1,141.1"/>
		</g>
		<g>
			<g>
				<path fill="#51A332" stroke="#51A332" stroke-width="2" stroke-miterlimit="10" d="M299.5,195.4c-1.6-1.4-3.6-2.1-5.6-2.1h-13.5
					v-9.8c0-4.1-1.2-7.1-3.6-8.8c-3.7-2.8-8.9-1.2-9.1-1.1c-0.6,0.2-1.1,0.8-1.1,1.5V186c0,3.6-1.7,6.6-5.1,9
					c-2.5,1.8-5.1,2.6-5.3,2.7l-0.4,0.1c-0.6-0.9-1.6-1.6-2.7-1.6h-10c-1.8,0-3.2,1.4-3.2,3.2v29.4c0,1.7,1.4,3.2,3.2,3.2h10
					c1,0,1.9-0.5,2.4-1.1c1.6,1.7,3.9,2.8,6.4,2.8h26.7c5.9,0,9.7-3.1,10.3-8.5l3.5-21.5C303,200.5,301.9,197.4,299.5,195.4
					L299.5,195.4z M253.3,228.8C253.3,228.8,253.2,228.9,253.3,228.8l-10.1,0.1c-0.1,0-0.1,0-0.1-0.1v-29.4c0-0.1,0-0.1,0.1-0.1h10
					c0.1,0,0.1,0,0.1,0.1L253.3,228.8L253.3,228.8z M299.5,203.1l-3.4,21.5c0,0,0,0,0,0.1c-0.5,3.8-2.9,5.8-7.3,5.8H262
					c-2.7,0-5.1-2-5.5-4.7c0-0.1,0-0.2-0.1-0.3v-24.7l0.7-0.2c0,0,0,0,0.1,0c0.1,0,3.2-0.9,6.3-3.1c4.2-3,6.4-7,6.4-11.6v-9.7
					c1.3-0.2,3.6-0.3,5.3,0.9c1.5,1.1,2.3,3.2,2.3,6.3v11.3c0,0.8,0.7,1.5,1.5,1.5H294c1.3,0,2.5,0.5,3.6,1.4
					C299,199,299.8,201.1,299.5,203.1L299.5,203.1z M299.5,203.1"/>
			</g>
		</g>
		<g>
			<path fill="#51A332" stroke="#51A332" stroke-width="1.5" stroke-miterlimit="10" d="M179.8,163.8c-3.3,0-5.9,2.7-5.9,5.9
				c0,3.3,2.7,5.9,5.9,5.9c3.3,0,5.9-2.7,5.9-5.9C185.7,166.4,183.1,163.8,179.8,163.8L179.8,163.8z M179.8,172.7c-1.6,0-3-1.3-3-3
				c0-1.6,1.3-3,3-3s3,1.3,3,3C182.8,171.3,181.5,172.7,179.8,172.7L179.8,172.7z M179.8,172.7"/>
			<path fill="#51A332" stroke="#51A332" stroke-width="1.5" stroke-miterlimit="10" d="M175.4,98.5h5.9c0.8,0,1.5-0.7,1.5-1.5
				c0-0.8-0.7-1.5-1.5-1.5h-5.9c-0.8,0-1.5,0.7-1.5,1.5C173.9,97.9,174.5,98.5,175.4,98.5L175.4,98.5z M175.4,98.5"/>
			<path fill="#51A332" stroke="#51A332" stroke-width="1.5" stroke-miterlimit="10" d="M185.7,98.5h1.5c0.8,0,1.5-0.7,1.5-1.5
				c0-0.8-0.7-1.5-1.5-1.5h-1.5c-0.8,0-1.5,0.7-1.5,1.5C184.3,97.9,184.9,98.5,185.7,98.5L185.7,98.5z M185.7,98.5"/>
			<path fill="#51A332" stroke="#51A332" stroke-width="1.5" stroke-miterlimit="10" d="M233.2,108.9h-26.7V97.6
				c0-3.6-2.9-6.5-6.5-6.5h-37.3c-3.6,0-6.5,2.9-6.5,6.5v75.9c0,3.6,2.9,6.5,6.5,6.5H200c3.6,0,6.5-2.9,6.5-6.5V140h26.7V108.9z
				 M162.6,94.1H200c2,0,3.6,1.6,3.6,3.6v2.4h-44.5v-2.4C159.1,95.7,160.7,94.1,162.6,94.1L162.6,94.1z M200,177.1h-37.3
				c-2,0-3.6-1.6-3.6-3.6v-11.3h44.5v11.3C203.5,175.5,201.9,177.1,200,177.1L200,177.1z M203.5,159.3h-44.5V103h44.5v5.9h-26.7V140
				h5.9v10.4l13.8-10.4h6.9V159.3z M230.2,137.1h-34.6l-9.9,7.4v-7.4h-5.9v-25.2h50.4V137.1z M230.2,137.1"/>
			<path fill="#51A332" stroke="#51A332" stroke-width="1.5" stroke-miterlimit="10" d="M187.2,122.3h14.8c0.8,0,1.5-0.7,1.5-1.5
				s-0.7-1.5-1.5-1.5h-14.8c-0.8,0-1.5,0.7-1.5,1.5S186.4,122.3,187.2,122.3L187.2,122.3z M187.2,122.3"/>
			<path fill="#51A332" stroke="#51A332" stroke-width="1.5" stroke-miterlimit="10" d="M185.7,128.2c0,0.8,0.7,1.5,1.5,1.5h35.6
				c0.8,0,1.5-0.7,1.5-1.5c0-0.8-0.7-1.5-1.5-1.5h-35.6C186.4,126.7,185.7,127.4,185.7,128.2L185.7,128.2z M185.7,128.2"/>
		</g>
		<g>
			
				<path fill="none" stroke="#51A332" stroke-width="4.3392" stroke-linecap="round" stroke-linejoin="round" stroke-miterlimit="10" d="
				M642.5,105.8c0,5.8-4.7,10.5-10.5,10.5c-5.8,0-10.5-4.7-10.5-10.5c0-5.8,4.7-10.5,10.5-10.5C637.8,95.4,642.5,100,642.5,105.8
				L642.5,105.8z M642.5,105.8"/>
			
				<path fill="none" stroke="#51A332" stroke-width="4.3392" stroke-linecap="round" stroke-linejoin="round" stroke-miterlimit="10" d="
				M660.2,114.7c-11.3,2.9-22.7,5.4-34.2,7.5c0-0.7-0.2-1.4-0.4-2.2c-2.3-8.3-14.9-11-17.9-12.2c2-2.1,3.9-4.3,5.9-6.4
				c4.4-4.8-2.7-11.9-7.1-7.1c-3.6,3.9-7.2,7.8-10.8,11.7c-2,2.2-2,6.4,1,7.9c1.7,0.8,3.4,1.6,5.2,2.3c-11.5,3.4-16.9,3.9-17.2,3.9
				c-22.6,2-42.5,3.7-65.2,5.7c-8,0.7-7.3,13.2,0.7,12.5c13.4-1.2,26.9-2.3,40.3-3.5c-12.3,3.1-24.6,6.2-36.9,9.3
				c-7.9,2-4.5,14.1,3.3,12.1c15.8-4,76.7-17.7,88.2-22c16.1-2.5,32-5.7,47.8-9.8C669.1,122.8,666.5,113.1,660.2,114.7L660.2,114.7z
				 M660.2,114.7"/>
			
				<path fill="none" stroke="#51A332" stroke-width="4.3392" stroke-linecap="round" stroke-linejoin="round" stroke-miterlimit="10" d="
				M591.4,114c-0.8-1-1.4-2.2-1.6-3.6c-0.1-0.6-0.1-1.1-0.1-1.7l-0.1-0.2l-74.5-11.7l9,23.8l59.3-5.1
				C583.5,115.5,586.1,115.3,591.4,114L591.4,114z M591.4,114"/>
			
				<path fill="none" stroke="#51A332" stroke-width="4.3392" stroke-linecap="round" stroke-linejoin="round" stroke-miterlimit="10" d="
				M622,105.3c0,0,7.8,0.4,14-8.4"/>
			
				<path fill="none" stroke="#51A332" stroke-width="4.3392" stroke-linecap="round" stroke-linejoin="round" stroke-miterlimit="10" d="
				M632.8,102.3c0,0,2.5,7.2,9.3,4.1"/>
		</g>
	</g>
</g>
<g id="B1" display="none">
</g>
</svg>
