<?xml version="1.0" encoding="utf-8"?>
<!-- Generator: Adobe Illustrator 18.0.0, SVG Export Plug-In . SVG Version: 6.00 Build 0)  -->
<!DOCTYPE svg PUBLIC "-//W3C//DTD SVG 1.1//EN" "http://www.w3.org/Graphics/SVG/1.1/DTD/svg11.dtd" [
	<!ENTITY ns_flows "http://ns.adobe.com/Flows/1.0/">
	<!ENTITY ns_extend "http://ns.adobe.com/Extensibility/1.0/">
	<!ENTITY ns_ai "http://ns.adobe.com/AdobeIllustrator/10.0/">
	<!ENTITY ns_graphs "http://ns.adobe.com/Graphs/1.0/">
]>
<svg version="1.1" xmlns:x="&ns_extend;" xmlns:i="&ns_ai;" xmlns:graph="&ns_graphs;"
	 xmlns="http://www.w3.org/2000/svg" xmlns:xlink="http://www.w3.org/1999/xlink" xmlns:a="http://ns.adobe.com/AdobeSVGViewerExtensions/3.0/"
	 x="0px" y="0px" viewBox="0 0 684.9 855.1" enable-background="new 0 0 684.9 855.1" xml:space="preserve">
<g id="Portada">
</g>
<g id="Sustainability_Vision">
	<g opacity="8.000000e-02">
		<g>
			<g>
				<path fill="#87868A" d="M294.5,149.4c-133.1,0-241.3,108.3-241.3,241.3c0,65.3,25.6,126.3,72.4,172.1l1.1,2.4l4.8,3.2
					c32.4,31.6,47.2,65.5,52.4,120.2l2.3,23.8l108.2,0l108.3,0l2.4-23.8c5.3-54.7,20-88.6,52.4-120.2l4.8-3.2l1-2.4
					c46.9-45.8,72.5-106.8,72.5-172.1C535.9,257.7,427.7,149.4,294.5,149.4z M424.5,527.2l-1.7,1.7c-0.4,0.2-0.8,0.6-1,0.9l-2.6,2.5
					c-35.1,34.8-54.7,74.1-63.3,127.5h-61.2h-61.2c-8.6-53.4-28.2-92.7-63.4-127.5l-2.5-2.5c-0.3-0.3-0.6-0.7-0.9-0.9l-2-1.7
					c-37.7-36-58.6-84.4-58.6-136.4c0-104,84.6-188.6,188.6-188.6c103.9,0,188.6,84.5,188.6,188.6
					C483.1,442.8,462.3,491.1,424.5,527.2z"/>
				<path fill="#87868A" d="M400.9,756.8c0,11.6-9.7,21-21.8,21l-170.4,0c-12.1,0-22-9.4-22-21v-11.9c0-11.7,9.8-21.1,22-21.1
					l170.4,0c12.1,0,21.8,9.4,21.8,21.1V756.8z"/>
				<path fill="#87868A" d="M400.9,821.1c0,11.6-9.7,21.1-21.8,21.1l-170.4,0c-12.1,0-22-9.5-22-21.1v-11.8c0-11.8,9.8-21.1,22-21.1
					l170.4,0c12.1,0,21.8,9.4,21.8,21.1V821.1z"/>
			</g>
			<path fill="#87868A" d="M320,99.6c0,11.3-9.3,20.6-20.6,20.6l0,0c-11.4,0-20.6-9.3-20.6-20.6V39.6c0-11.4,9.2-20.6,20.6-20.6l0,0
				c11.3,0,20.6,9.2,20.6,20.6L320,99.6z"/>
			<path fill="#87868A" d="M4,373c11.2,0,20.4-9.3,20.4-20.6l0,0c0-11.4-9.2-20.6-20.4-20.6H0v41.1L4,373z"/>
			<path fill="#87868A" d="M649.9,331.7c11.3,0,20.5,9.2,20.5,20.6l0,0c0,11.3-9.2,20.6-20.5,20.6l-60,0c-11.4,0-20.7-9.3-20.7-20.6
				l0,0c0-11.4,9.3-20.6,20.7-20.6H649.9z"/>
			<path fill="#87868A" d="M113.5,140.8c7.3,8.7,6.2,21.7-2.3,29.1l0,0c-8.7,7.3-21.7,6.3-29-2.3l-38.9-45.7
				c-7.4-8.6-6.3-21.6,2.3-29l0,0c8.7-7.4,21.5-6.3,29,2.3L113.5,140.8z"/>
			<path fill="#87868A" d="M484,148.8c-7.7,8.3-7.1,21.3,1.1,29l0,0c8.4,7.8,21.4,7.3,29.2-1.1l40.6-43.9c7.9-8.4,7.3-21.4-1-29.1
				l0,0c-8.3-7.8-21.3-7.4-29.1,1.1L484,148.8z"/>
		</g>
	</g>
</g>
</svg>
