<?xml version="1.0" encoding="utf-8"?>
<!-- Generator: Adobe Illustrator 18.0.0, SVG Export Plug-In . SVG Version: 6.00 Build 0)  -->
<!DOCTYPE svg PUBLIC "-//W3C//DTD SVG 1.1//EN" "http://www.w3.org/Graphics/SVG/1.1/DTD/svg11.dtd">
<svg version="1.1" id="Sustainability_Vision" xmlns="http://www.w3.org/2000/svg" xmlns:xlink="http://www.w3.org/1999/xlink"
	 x="0px" y="0px" viewBox="0 0 779.8 1660.1" enable-background="new 0 0 779.8 1660.1" xml:space="preserve">
<g>
	<g>
		<line fill="none" stroke="#009347" stroke-width="5.161" stroke-miterlimit="10" x1="232.8" y1="578.6" x2="773.9" y2="578.6"/>
		<line fill="none" stroke="#2F7CBA" stroke-width="5.161" stroke-miterlimit="10" x1="292.5" y1="1334.9" x2="773.9" y2="1334.9"/>
		<line fill="none" stroke="#8CC640" stroke-width="5.1612" stroke-miterlimit="10" x1="5.9" y1="378.4" x2="446.3" y2="378.4"/>
		<line fill="none" stroke="#6AA242" stroke-width="5.161" stroke-miterlimit="10" x1="5.9" y1="1154.4" x2="418.8" y2="1154.4"/>
		<line fill="none" stroke="#005EB8" stroke-width="5.161" stroke-miterlimit="10" x1="6.1" y1="1553.9" x2="415.2" y2="1553.9"/>
		<g>
			<path fill="#009347" d="M664.8,483.5c-0.4,1.1-0.5,2.2-0.6,3.3c-1.5,2.7-0.9,6.3,1.3,8.9c3.3,3.8,9.2,5,13.8,2.9
				c4.3-1.9,7.1-6.7,6.1-11.4c-1-4.6-5-8.4-9.5-9.6C670.9,476.2,666.4,478.6,664.8,483.5z"/>
			<path fill="none" stroke="#009347" stroke-width="5" stroke-miterlimit="10" d="M678.7,494.5c-0.3-0.2-0.8-0.2-1.2,0
				c-1,0.5-2,0.8-3.2,0.9c-0.3,0-0.5,0.2-0.7,0.3c-0.2,0.1-0.5,0.2-0.6,0.5c-2.1,5.2-1.7,11.6-2.1,17.1c-0.5,6.8-1.1,13.6-1.7,20.4
				c-1,13.2-1.9,26.4-2.3,39.6c0,0.5,0.2,0.9,0.5,1.1c0.4,1,1.4,2,2.6,2.7c1.7,1.2,4,1.5,6.1,0.5c1.6-0.8,2.9-2.3,3.6-3.9
				c0.4-0.9,0.5-1.8,0.4-2.5c0.7-4.8,0-10.1-0.1-14.9c-0.2-6.8-0.3-13.6-0.3-20.5c-0.1-13.3,0.3-26.5,0.4-39.8
				C680.1,495,679.4,494.5,678.7,494.5z"/>
			<path fill="none" stroke="#009347" stroke-width="5" stroke-miterlimit="10" d="M685.2,485.8c-0.8-0.1-1.2,0.7-1,1.4
				c-0.1,0.1-0.1,0.2-0.2,0.4c-0.7,2.3-1.3,4.5-2,6.8c-0.2,0.5,0.1,1.3,0.6,1.6c19.7,9.8,43.4,20.4,64.4,7.8c1-0.6,0.9-2.2-0.3-2.6
				C726.7,495.2,706.1,488.2,685.2,485.8z"/>
			<path fill="none" stroke="#009347" stroke-width="5" stroke-miterlimit="10" d="M668.3,482.7c0.1,0.8,1,1,1.5,0.6
				c0.1,0.1,0.3,0.1,0.4,0.1c2.4,0.2,4.7,0.3,7.1,0.4c0.6,0,1.2-0.4,1.4-1c5-21.5,9.9-46.9-7.1-64.5c-0.9-0.9-2.4-0.4-2.5,0.9
				C668,440.2,665.9,461.8,668.3,482.7z"/>
			<path fill="none" stroke="#009347" stroke-width="5" stroke-miterlimit="10" d="M671.8,495.6c0.8-0.4,0.6-1.2,0.1-1.7
				c0-0.1,0-0.3,0-0.4c-0.6-2.3-1.3-4.6-1.9-6.8c-0.1-0.5-0.7-1.1-1.4-1c-21.9,2.1-47.6,5.6-58.9,27.3c-0.6,1.1,0.4,2.4,1.6,2
				C631.6,509.5,652.8,504.6,671.8,495.6z"/>
		</g>
		<g>
			<g>
				<g>
					<g>
						<g>
							<g>
								<path fill="#FFFFFF" stroke="#6AA242" stroke-width="5.161" stroke-miterlimit="10" d="M574.3,1107.6
									c0,49.9-40.5,90.4-90.4,90.4s-90.4-40.5-90.4-90.4c0-49.9,40.5-90.4,90.4-90.4S574.3,1057.7,574.3,1107.6z"/>
							</g>
						</g>
					</g>
				</g>
			</g>
		</g>
		<g>
			<line fill="none" stroke="#51A332" stroke-width="5.161" stroke-miterlimit="10" x1="377.8" y1="180.5" x2="641.8" y2="180.5"/>
			<g>
				<g>
					<g>
						<g>
							<g>
								<g>
									<path fill="#FFFFFF" stroke="#51A332" stroke-width="5.161" stroke-miterlimit="10" d="M385,150.9
										c0,49.9-40.5,90.4-90.4,90.4c-49.9,0-90.4-40.5-90.4-90.4c0-49.9,40.5-90.4,90.4-90.4C344.6,60.5,385,101,385,150.9z"/>
								</g>
							</g>
						</g>
					</g>
				</g>
			</g>
			<g>
				<path fill="#87868A" d="M454.9,119.8h0.1l4.7-31.8h9.8v44.8h-6.7v-32.1h-0.1l-4.7,32.1h-6.7l-5.1-31.7h-0.1v31.7H440V88h9.8
					L454.9,119.8z"/>
				<path fill="#87868A" d="M481.8,106.9h9.7v6.4h-9.7v13.1h12.2v6.4h-19.2V88h19.2v6.4h-12.2V106.9z"/>
				<path fill="#87868A" d="M513.1,119.8h0.1L518,88h9.8v44.8h-6.7v-32.1H521l-4.7,32.1h-6.7l-5.1-31.7h-0.1v31.7h-6.1V88h9.8
					L513.1,119.8z"/>
				<path fill="#87868A" d="M553.9,98.3v1.6c0,4.6-1.4,7.5-4.5,9v0.1c3.8,1.5,5.2,4.8,5.2,9.5v3.6c0,6.9-3.6,10.6-10.7,10.6h-11.1
					V88h10.6C550.8,88,553.9,91.4,553.9,98.3z M539.9,94.4v11.8h2.8c2.6,0,4.2-1.2,4.2-4.7V99c0-3.2-1.1-4.6-3.6-4.6H539.9z
					 M539.9,112.6v13.8h4c2.4,0,3.6-1.1,3.6-4.4v-3.9c0-4.2-1.3-5.4-4.5-5.4H539.9z"/>
				<path fill="#87868A" d="M565.9,106.9h9.7v6.4h-9.7v13.1h12.2v6.4h-19.2V88h19.2v6.4h-12.2V106.9z"/>
				<path fill="#87868A" d="M597.1,132.8c-0.4-1.2-0.6-1.9-0.6-5.5v-7c0-4.2-1.4-5.7-4.6-5.7h-2.4v18.2h-7V88H593
					c7.3,0,10.4,3.4,10.4,10.3v3.5c0,4.6-1.5,7.6-4.6,9v0.1c3.5,1.5,4.7,4.8,4.7,9.5v6.9c0,2.2,0.1,3.8,0.8,5.4H597.1z M589.5,94.4
					v13.8h2.8c2.6,0,4.2-1.2,4.2-4.7V99c0-3.2-1.1-4.6-3.6-4.6H589.5z"/>
				<path fill="#87868A" d="M617.6,87.5c6.8,0,10.4,4.1,10.4,11.3v1.4h-6.7v-1.9c0-3.2-1.3-4.4-3.5-4.4c-2.2,0-3.5,1.2-3.5,4.4
					c0,3.3,1.4,5.7,6,9.7c5.9,5.2,7.7,8.9,7.7,14c0,7.2-3.6,11.3-10.5,11.3s-10.5-4.1-10.5-11.3v-2.8h6.7v3.2c0,3.2,1.4,4.4,3.6,4.4
					c2.2,0,3.6-1.2,3.6-4.4c0-3.3-1.4-5.7-6-9.7c-5.9-5.2-7.7-8.9-7.7-14C607.3,91.6,610.8,87.5,617.6,87.5z"/>
				<path fill="#87868A" d="M642,88h7v44.8h-7V88z"/>
				<path fill="#87868A" d="M660.6,100.3h-0.1v32.4h-6.3V88h8.8l7.1,26.8h0.1V88h6.3v44.8h-7.2L660.6,100.3z"/>
				<path fill="#87868A" d="M438.6,155.9h5.7v3.8h-5.7v7.8h7.2v3.8h-11.4v-26.6h11.4v3.8h-7.2V155.9z"/>
				<path fill="#87868A" d="M452.4,144.7v20.5c0,1.9,0.8,2.6,2.2,2.6c1.3,0,2.2-0.7,2.2-2.6v-20.5h4v20.3c0,4.3-2.1,6.7-6.2,6.7
					c-4.1,0-6.2-2.4-6.2-6.7v-20.3H452.4z"/>
				<path fill="#87868A" d="M472.3,171.3c-0.2-0.7-0.4-1.1-0.4-3.3v-4.2c0-2.5-0.8-3.4-2.7-3.4h-1.4v10.8h-4.2v-26.6h6.3
					c4.3,0,6.2,2,6.2,6.1v2.1c0,2.7-0.9,4.5-2.7,5.4v0.1c2.1,0.9,2.8,2.8,2.8,5.6v4.1c0,1.3,0,2.2,0.5,3.2H472.3z M467.7,148.5v8.2
					h1.6c1.6,0,2.5-0.7,2.5-2.8v-2.6c0-1.9-0.6-2.7-2.1-2.7H467.7z"/>
				<path fill="#87868A" d="M478.5,151.1c0-4.3,2.2-6.7,6.3-6.7s6.3,2.4,6.3,6.7v13.8c0,4.3-2.2,6.7-6.3,6.7s-6.3-2.4-6.3-6.7V151.1
					z M482.7,165.2c0,1.9,0.8,2.6,2.2,2.6s2.2-0.7,2.2-2.6v-14.4c0-1.9-0.8-2.6-2.2-2.6s-2.2,0.7-2.2,2.6V165.2z"/>
				<path fill="#87868A" d="M506.3,151.3v3.5c0,4.3-2.1,6.6-6.2,6.6h-2v10h-4.2v-26.6h6.2C504.2,144.7,506.3,147,506.3,151.3z
					 M498.1,148.5v9h2c1.3,0,2.1-0.6,2.1-2.5v-4c0-1.9-0.7-2.5-2.1-2.5H498.1z"/>
				<path fill="#87868A" d="M512.4,155.9h5.7v3.8h-5.7v7.8h7.2v3.8h-11.4v-26.6h11.4v3.8h-7.2V155.9z"/>
				<path fill="#87868A" d="M535.7,171.3h-4.2l-0.7-4.8h-5.1l-0.7,4.8h-3.8l4.3-26.6h6.1L535.7,171.3z M526.2,162.8h4l-2-13.5h-0.1
					L526.2,162.8z"/>
				<path fill="#87868A" d="M541.5,152L541.5,152l-0.1,19.3h-3.8v-26.6h5.2l4.2,15.9h0.1v-15.9h3.7v26.6h-4.3L541.5,152z"/>
				<path fill="#87868A" d="M571.9,161.4v3.5c0,4.3-2.1,6.7-6.2,6.7s-6.2-2.4-6.2-6.7v-13.8c0-4.3,2.1-6.7,6.2-6.7s6.2,2.4,6.2,6.7
					v2.6h-4v-2.8c0-1.9-0.8-2.6-2.2-2.6c-1.3,0-2.2,0.7-2.2,2.6v14.4c0,1.9,0.8,2.6,2.2,2.6c1.3,0,2.2-0.7,2.2-2.6v-3.8H571.9z"/>
				<path fill="#87868A" d="M574.1,151.1c0-4.3,2.2-6.7,6.3-6.7s6.3,2.4,6.3,6.7v13.8c0,4.3-2.2,6.7-6.3,6.7s-6.3-2.4-6.3-6.7V151.1
					z M578.3,165.2c0,1.9,0.8,2.6,2.2,2.6s2.2-0.7,2.2-2.6v-14.4c0-1.9-0.8-2.6-2.2-2.6s-2.2,0.7-2.2,2.6V165.2z"/>
				<path fill="#87868A" d="M593.5,144.7v20.5c0,1.9,0.8,2.6,2.2,2.6s2.2-0.7,2.2-2.6v-20.5h4v20.3c0,4.3-2.1,6.7-6.2,6.7
					s-6.2-2.4-6.2-6.7v-20.3H593.5z"/>
				<path fill="#87868A" d="M608.4,152L608.4,152l-0.1,19.3h-3.8v-26.6h5.2l4.2,15.9h0.1v-15.9h3.7v26.6h-4.3L608.4,152z"/>
				<path fill="#87868A" d="M619.6,144.7h12.9v3.8h-4.4v22.8H624v-22.8h-4.4V144.7z"/>
				<path fill="#87868A" d="M643.1,171.3c-0.2-0.7-0.4-1.1-0.4-3.3v-4.2c0-2.5-0.8-3.4-2.7-3.4h-1.4v10.8h-4.2v-26.6h6.3
					c4.3,0,6.2,2,6.2,6.1v2.1c0,2.7-0.9,4.5-2.7,5.4v0.1c2.1,0.9,2.8,2.8,2.8,5.6v4.1c0,1.3,0,2.2,0.5,3.2H643.1z M638.5,148.5v8.2
					h1.6c1.6,0,2.5-0.7,2.5-2.8v-2.6c0-1.9-0.6-2.7-2.1-2.7H638.5z"/>
				<path fill="#87868A" d="M649.6,144.7h4.2v26.6h-4.2V144.7z"/>
				<path fill="#87868A" d="M661,155.9h5.7v3.8H661v7.8h7.2v3.8h-11.4v-26.6h11.4v3.8H661V155.9z"/>
				<path fill="#87868A" d="M676.5,144.4c4.1,0,6.2,2.4,6.2,6.7v0.8h-4v-1.1c0-1.9-0.8-2.6-2.1-2.6s-2.1,0.7-2.1,2.6
					c0,1.9,0.8,3.4,3.6,5.8c3.5,3.1,4.6,5.3,4.6,8.3c0,4.3-2.1,6.7-6.2,6.7s-6.2-2.4-6.2-6.7v-1.6h4v1.9c0,1.9,0.8,2.6,2.2,2.6
					c1.3,0,2.2-0.7,2.2-2.6c0-1.9-0.8-3.4-3.6-5.8c-3.5-3.1-4.6-5.3-4.6-8.3C670.3,146.8,672.4,144.4,676.5,144.4z"/>
			</g>
		</g>
		<g>
			<path fill="#87868A" d="M378.3,1281.9h-7.8l-1.3-8.9h-9.4l-1.3,8.9h-7.1l7.8-49h11.3L378.3,1281.9z M360.8,1266.3h7.4l-3.6-24.8
				h-0.1L360.8,1266.3z"/>
			<path fill="#87868A" d="M388.9,1246.4h-0.1v35.5h-6.9v-49h9.7l7.8,29.3h0.1v-29.3h6.9v49h-7.9L388.9,1246.4z"/>
			<path fill="#87868A" d="M419.1,1232.9v37.8c0,3.5,1.5,4.8,4,4.8s4-1.3,4-4.8v-37.8h7.3v37.3c0,7.8-3.9,12.3-11.5,12.3
				c-7.6,0-11.5-4.5-11.5-12.3v-37.3H419.1z"/>
			<path fill="#87868A" d="M464.6,1281.9h-7.8l-1.3-8.9H446l-1.3,8.9h-7.1l7.8-49h11.3L464.6,1281.9z M447,1266.3h7.4l-3.6-24.8
				h-0.1L447,1266.3z"/>
			<path fill="#87868A" d="M468.1,1232.9h7.7v42h12.7v7h-20.4V1232.9z"/>
			<path fill="#87868A" d="M344.6,1289.8h16.3v4.8h-5.5v28.8h-5.3v-28.8h-5.5V1289.8z"/>
			<path fill="#87868A" d="M368.3,1289.8v25.9c0,2.4,1.1,3.3,2.7,3.3s2.7-0.9,2.7-3.3v-25.9h5v25.6c0,5.4-2.7,8.4-7.9,8.4
				s-7.9-3.1-7.9-8.4v-25.6H368.3z"/>
			<path fill="#87868A" d="M393.4,1323.4c-0.3-0.9-0.5-1.4-0.5-4.1v-5.3c0-3.1-1.1-4.3-3.5-4.3h-1.8v13.7h-5.3v-33.6h8
				c5.5,0,7.8,2.5,7.8,7.7v2.6c0,3.5-1.1,5.7-3.5,6.8v0.1c2.6,1.1,3.5,3.6,3.5,7.1v5.2c0,1.6,0,2.8,0.6,4.1H393.4z M387.6,1294.6
				v10.3h2.1c2,0,3.2-0.9,3.2-3.6v-3.3c0-2.4-0.8-3.5-2.7-3.5H387.6z"/>
			<path fill="#87868A" d="M406.4,1299L406.4,1299l-0.1,24.3h-4.8v-33.6h6.6l5.3,20.1h0.1v-20.1h4.7v33.6h-5.4L406.4,1299z"/>
			<path fill="#87868A" d="M421.7,1297.8c0-5.4,2.8-8.4,8-8.4s8,3.1,8,8.4v17.5c0,5.4-2.8,8.4-8,8.4s-8-3.1-8-8.4V1297.8z
				 M427,1315.6c0,2.4,1.1,3.3,2.7,3.3s2.7-0.9,2.7-3.3v-18.1c0-2.4-1.1-3.3-2.7-3.3s-2.7,0.9-2.7,3.3V1315.6z"/>
			<path fill="#87868A" d="M449,1317.2L449,1317.2l4.1-27.4h4.8l-5.2,33.6h-7.9l-5.2-33.6h5.3L449,1317.2z"/>
			<path fill="#87868A" d="M465.7,1303.9h7.2v4.8h-7.2v9.8h9.1v4.8h-14.4v-33.6h14.4v4.8h-9.1V1303.9z"/>
			<path fill="#87868A" d="M489.1,1323.4c-0.3-0.9-0.5-1.4-0.5-4.1v-5.3c0-3.1-1.1-4.3-3.5-4.3h-1.8v13.7h-5.3v-33.6h8
				c5.5,0,7.8,2.5,7.8,7.7v2.6c0,3.5-1.1,5.7-3.5,6.8v0.1c2.6,1.1,3.5,3.6,3.5,7.1v5.2c0,1.6,0,2.8,0.6,4.1H489.1z M483.3,1294.6
				v10.3h2.1c2,0,3.2-0.9,3.2-3.6v-3.3c0-2.4-0.8-3.5-2.7-3.5H483.3z"/>
		</g>
		<g>
			<g>
				<g>
					<g>
						<g>
							<g>
								<circle fill="#FFFFFF" stroke="#8CC640" stroke-width="5.1612" stroke-miterlimit="10" cx="528" cy="337.1" r="90.4"/>
							</g>
						</g>
					</g>
				</g>
			</g>
		</g>
		<g>
			<g>
				<g>
					<g>
						<g>
							<g>
								<circle fill="#FFFFFF" stroke="#005EB8" stroke-width="5.161" stroke-miterlimit="10" cx="497.9" cy="1550.8" r="90.4"/>
							</g>
						</g>
					</g>
				</g>
			</g>
		</g>
		<g>
			<g>
				<path fill="#8CC640" d="M546.2,312.4c0-7.8,4-12.1,11.4-12.1s11.4,4.3,11.4,12.1v24.8c0,7.8-4,12.1-11.4,12.1
					s-11.4-4.3-11.4-12.1V312.4z M553.8,337.8c0,3.3,1.4,4.8,3.9,4.8c2.4,0,3.9-1.4,3.9-4.8v-25.9c0-3.3-1.5-4.8-3.9-4.8
					c-2.5,0-3.9,1.4-3.9,4.8V337.8z M587.4,300.8h7l-29.8,75.6h-7L587.4,300.8z M583.7,340c0-7.8,4-12.1,11.4-12.1
					s11.4,4.3,11.4,12.1v24.8c0,7.8-4,12.1-11.4,12.1s-11.4-4.3-11.4-12.1V340z M591.2,365.4c0,3.3,1.4,4.8,3.9,4.8
					c2.4,0,3.9-1.4,3.9-4.8v-25.9c0-3.3-1.5-4.8-3.9-4.8c-2.5,0-3.9,1.4-3.9,4.8V365.4z"/>
			</g>
		</g>
		<g>
			<g>
				<g>
					<g>
						<g>
							<g>
								<path fill="#FFFFFF" stroke="#009347" stroke-width="5.161" stroke-miterlimit="10" d="M251.1,580.1
									c0,49.9-40.5,90.4-90.4,90.4c-49.9,0-90.4-40.5-90.4-90.4c0-49.9,40.5-90.4,90.4-90.4C210.6,489.7,251.1,530.1,251.1,580.1z
									"/>
							</g>
						</g>
					</g>
				</g>
			</g>
		</g>
		<g>
			<path fill="#87868A" d="M228.4,341.5v2.9c0,3.6-1.7,5.5-5.2,5.5h-1.7v8.4h-3.5V336h5.2C226.7,336,228.4,338,228.4,341.5z
				 M221.5,339.2v7.6h1.7c1.1,0,1.7-0.5,1.7-2.1v-3.4c0-1.6-0.6-2.1-1.7-2.1H221.5z"/>
			<path fill="#87868A" d="M241,358.4h-3.6l-0.6-4.1h-4.3l-0.6,4.1h-3.2l3.6-22.4h5.2L241,358.4z M233,351.3h3.4l-1.7-11.3h-0.1
				L233,351.3z"/>
			<path fill="#87868A" d="M253.1,341.5v2.9c0,3.6-1.7,5.5-5.2,5.5h-1.7v8.4h-3.5V336h5.2C251.3,336,253.1,338,253.1,341.5z
				 M246.1,339.2v7.6h1.7c1.1,0,1.7-0.5,1.7-2.1v-3.4c0-1.6-0.6-2.1-1.7-2.1H246.1z"/>
			<path fill="#87868A" d="M258.2,345.4h4.8v3.2h-4.8v6.6h6.1v3.2h-9.6V336h9.6v3.2h-6.1V345.4z"/>
			<path fill="#87868A" d="M273.8,358.4c-0.2-0.6-0.3-0.9-0.3-2.8v-3.5c0-2.1-0.7-2.8-2.3-2.8H270v9.1h-3.5V336h5.3
				c3.6,0,5.2,1.7,5.2,5.2v1.8c0,2.3-0.7,3.8-2.3,4.5v0.1c1.8,0.7,2.3,2.4,2.3,4.7v3.5c0,1.1,0,1.9,0.4,2.7H273.8z M270,339.2v6.9
				h1.4c1.3,0,2.1-0.6,2.1-2.4v-2.2c0-1.6-0.5-2.3-1.8-2.3H270z"/>
			<path fill="#87868A" d="M294.7,341.5v2.9c0,3.6-1.7,5.5-5.2,5.5h-1.7v8.4h-3.5V336h5.2C293,336,294.7,338,294.7,341.5z
				 M287.8,339.2v7.6h1.7c1.1,0,1.7-0.5,1.7-2.1v-3.4c0-1.6-0.6-2.1-1.7-2.1H287.8z"/>
			<path fill="#87868A" d="M303.7,358.4c-0.2-0.6-0.3-0.9-0.3-2.8v-3.5c0-2.1-0.7-2.8-2.3-2.8h-1.2v9.1h-3.5V336h5.3
				c3.6,0,5.2,1.7,5.2,5.2v1.8c0,2.3-0.7,3.8-2.3,4.5v0.1c1.8,0.7,2.3,2.4,2.3,4.7v3.5c0,1.1,0,1.9,0.4,2.7H303.7z M299.9,339.2v6.9
				h1.4c1.3,0,2.1-0.6,2.1-2.4v-2.2c0-1.6-0.5-2.3-1.8-2.3H299.9z"/>
			<path fill="#87868A" d="M308.9,341.4c0-3.6,1.9-5.6,5.3-5.6s5.3,2,5.3,5.6V353c0,3.6-1.9,5.6-5.3,5.6s-5.3-2-5.3-5.6V341.4z
				 M312.4,353.3c0,1.6,0.7,2.2,1.8,2.2s1.8-0.6,1.8-2.2v-12.1c0-1.6-0.7-2.2-1.8-2.2s-1.8,0.6-1.8,2.2V353.3z"/>
			<path fill="#87868A" d="M321.9,336h5.6c3.5,0,5.2,2,5.2,5.5v11.3c0,3.6-1.7,5.5-5.2,5.5h-5.6V336z M325.4,339.2v16h2
				c1.1,0,1.8-0.6,1.8-2.2v-11.6c0-1.6-0.7-2.2-1.8-2.2H325.4z"/>
			<path fill="#87868A" d="M338.3,336v17.3c0,1.6,0.7,2.2,1.8,2.2s1.8-0.6,1.8-2.2V336h3.3v17.1c0,3.6-1.8,5.6-5.2,5.6
				c-3.5,0-5.2-2-5.2-5.6V336H338.3z"/>
			<path fill="#87868A" d="M357.9,350.1v3c0,3.6-1.8,5.6-5.2,5.6s-5.2-2-5.2-5.6v-11.6c0-3.6,1.8-5.6,5.2-5.6s5.2,2,5.2,5.6v2.2
				h-3.3v-2.4c0-1.6-0.7-2.2-1.8-2.2c-1.1,0-1.8,0.6-1.8,2.2v12.1c0,1.6,0.7,2.2,1.8,2.2c1.1,0,1.8-0.6,1.8-2.2v-3.2H357.9z"/>
			<path fill="#87868A" d="M359,336h10.9v3.2h-3.7v19.2h-3.5v-19.2H359V336z"/>
			<path fill="#87868A" d="M371.4,336h3.5v22.4h-3.5V336z"/>
			<path fill="#87868A" d="M377.2,341.4c0-3.6,1.9-5.6,5.3-5.6s5.3,2,5.3,5.6V353c0,3.6-1.9,5.6-5.3,5.6s-5.3-2-5.3-5.6V341.4z
				 M380.7,353.3c0,1.6,0.7,2.2,1.8,2.2s1.8-0.6,1.8-2.2v-12.1c0-1.6-0.7-2.2-1.8-2.2s-1.8,0.6-1.8,2.2V353.3z"/>
			<path fill="#87868A" d="M393.4,342.2L393.4,342.2l-0.1,16.2h-3.2V336h4.4l3.6,13.4h0.1V336h3.1v22.4h-3.6L393.4,342.2z"/>
		</g>
		<g>
			<g>
				<path fill="#87868A" d="M434.6,546.3v3.2c0,3.8-1.9,6-5.6,6s-5.6-2.2-5.6-6v-12.4c0-3.8,1.9-6,5.6-6s5.6,2.2,5.6,6v2.3h-3.5
					v-2.6c0-1.7-0.7-2.3-1.9-2.3c-1.2,0-1.9,0.6-1.9,2.3v12.9c0,1.7,0.7,2.3,1.9,2.3c1.2,0,1.9-0.6,1.9-2.3v-3.4H434.6z"/>
				<path fill="#87868A" d="M436.6,537.1c0-3.8,2-6,5.7-6s5.7,2.2,5.7,6v12.4c0,3.8-2,6-5.7,6s-5.7-2.2-5.7-6V537.1z M440.3,549.7
					c0,1.7,0.7,2.3,1.9,2.3c1.2,0,1.9-0.6,1.9-2.3v-12.9c0-1.7-0.7-2.3-1.9-2.3c-1.2,0-1.9,0.6-1.9,2.3V549.7z"/>
				<path fill="#87868A" d="M458.2,548.3L458.2,548.3l2.6-16.9h5.2v23.8h-3.5v-17.1h-0.1l-2.5,17.1h-3.5l-2.7-16.8h-0.1v16.8h-3.3
					v-23.8h5.2L458.2,548.3z"/>
				<path fill="#87868A" d="M479.8,537.3v3.1c0,3.8-1.8,5.9-5.6,5.9h-1.8v8.9h-3.7v-23.8h5.5C478,531.4,479.8,533.5,479.8,537.3z
					 M472.5,534.8v8.1h1.8c1.2,0,1.8-0.5,1.8-2.2V537c0-1.7-0.6-2.2-1.8-2.2H472.5z"/>
				<path fill="#87868A" d="M493.2,555.2h-3.8l-0.6-4.3h-4.6l-0.6,4.3h-3.4l3.8-23.8h5.5L493.2,555.2z M484.7,547.6h3.6l-1.8-12
					h-0.1L484.7,547.6z"/>
				<path fill="#87868A" d="M498.4,537.9L498.4,537.9l-0.1,17.2h-3.4v-23.8h4.7l3.8,14.2h0.1v-14.2h3.3v23.8H503L498.4,537.9z"/>
				<path fill="#87868A" d="M509.5,531.4h3.7v23.8h-3.7V531.4z"/>
				<path fill="#87868A" d="M519.7,541.4h5.1v3.4h-5.1v7h6.5v3.4h-10.2v-23.8h10.2v3.4h-6.5V541.4z"/>
				<path fill="#87868A" d="M533.5,531.1c3.6,0,5.5,2.2,5.5,6v0.7h-3.5v-1c0-1.7-0.7-2.3-1.9-2.3c-1.2,0-1.9,0.6-1.9,2.3
					c0,1.7,0.7,3,3.2,5.2c3.1,2.8,4.1,4.7,4.1,7.4c0,3.8-1.9,6-5.6,6s-5.6-2.2-5.6-6V548h3.5v1.7c0,1.7,0.7,2.3,1.9,2.3
					c1.2,0,1.9-0.6,1.9-2.3c0-1.7-0.7-3-3.2-5.2c-3.1-2.8-4.1-4.7-4.1-7.4C528,533.3,529.9,531.1,533.5,531.1z"/>
			</g>
		</g>
		<g>
			<g>
				<path fill="#87868A" d="M320.8,548.3L320.8,548.3l2.6-16.9h5.2v23.8H325v-17.1H325l-2.5,17.1h-3.5l-2.7-16.8h-0.1v16.8h-3.3
					v-23.8h5.2L320.8,548.3z"/>
				<path fill="#87868A" d="M331.3,531.4h3.7v23.8h-3.7V531.4z"/>
				<path fill="#87868A" d="M337.8,531.4h3.7v20.4h6.1v3.4h-9.9V531.4z"/>
				<path fill="#87868A" d="M349.3,531.4h3.7v20.4h6.1v3.4h-9.9V531.4z"/>
				<path fill="#87868A" d="M365.8,531.1c3.6,0,5.5,2.2,5.5,6v0.7h-3.5v-1c0-1.7-0.7-2.3-1.9-2.3c-1.2,0-1.9,0.6-1.9,2.3
					c0,1.7,0.7,3,3.2,5.2c3.1,2.8,4.1,4.7,4.1,7.4c0,3.8-1.9,6-5.6,6c-3.7,0-5.6-2.2-5.6-6V548h3.5v1.7c0,1.7,0.7,2.3,1.9,2.3
					s1.9-0.6,1.9-2.3c0-1.7-0.7-3-3.2-5.2c-3.1-2.8-4.1-4.7-4.1-7.4C360.3,533.3,362.2,531.1,365.8,531.1z"/>
			</g>
		</g>
		<g>
			<g>
				<g>
					<g>
						<g>
							<g>
								<path fill="#FFFFFF" stroke="#2F7CBA" stroke-width="5.161" stroke-miterlimit="10" d="M293.8,1321.4
									c0,49.9-40.5,90.4-90.4,90.4c-49.9,0-90.4-40.5-90.4-90.4c0-49.9,40.5-90.4,90.4-90.4
									C253.4,1231.1,293.8,1271.5,293.8,1321.4z"/>
							</g>
						</g>
					</g>
				</g>
			</g>
		</g>
		<g>
			<g>
				<path fill="#87868A" d="M140.2,1080.9h-4.3l-0.7-5h-5.3l-0.7,5h-3.9l4.4-27.3h6.3L140.2,1080.9z M130.4,1072.2h4.1l-2-13.8h-0.1
					L130.4,1072.2z"/>
				<path fill="#87868A" d="M151.1,1080.9c-0.2-0.7-0.4-1.1-0.4-3.4v-4.3c0-2.5-0.9-3.5-2.8-3.5h-1.5v11.1h-4.3v-27.3h6.5
					c4.4,0,6.4,2.1,6.4,6.3v2.1c0,2.8-0.9,4.6-2.8,5.5v0.1c2.1,0.9,2.8,2.9,2.8,5.8v4.2c0,1.3,0,2.3,0.5,3.3H151.1z M146.4,1057.5
					v8.4h1.7c1.6,0,2.6-0.7,2.6-2.9v-2.7c0-2-0.7-2.8-2.2-2.8H146.4z"/>
				<path fill="#87868A" d="M162.1,1065.1h5.9v3.9h-5.9v8h7.4v3.9h-11.7v-27.3h11.7v3.9h-7.4V1065.1z"/>
				<path fill="#87868A" d="M184,1053.3c4.2,0,6.3,2.5,6.3,6.9v0.9h-4.1v-1.1c0-1.9-0.8-2.7-2.1-2.7s-2.1,0.7-2.1,2.7
					c0,2,0.9,3.5,3.7,5.9c3.6,3.2,4.7,5.4,4.7,8.5c0,4.4-2.2,6.9-6.4,6.9s-6.4-2.5-6.4-6.9v-1.7h4.1v1.9c0,2,0.9,2.7,2.2,2.7
					s2.2-0.7,2.2-2.7c0-2-0.9-3.5-3.7-5.9c-3.6-3.2-4.7-5.4-4.7-8.5C177.7,1055.8,179.8,1053.3,184,1053.3z"/>
				<path fill="#87868A" d="M192.5,1060.1c0-4.4,2.3-6.9,6.5-6.9c4.2,0,6.5,2.5,6.5,6.9v14.2c0,4.4-2.3,6.9-6.5,6.9
					c-4.2,0-6.5-2.5-6.5-6.9V1060.1z M196.7,1074.6c0,2,0.9,2.7,2.2,2.7c1.4,0,2.2-0.7,2.2-2.7v-14.7c0-1.9-0.9-2.7-2.2-2.7
					c-1.4,0-2.2,0.7-2.2,2.7V1074.6z"/>
				<path fill="#87868A" d="M212.3,1053.6v21.1c0,2,0.9,2.7,2.2,2.7c1.4,0,2.2-0.7,2.2-2.7v-21.1h4.1v20.8c0,4.4-2.2,6.9-6.4,6.9
					s-6.4-2.5-6.4-6.9v-20.8H212.3z"/>
				<path fill="#87868A" d="M232.7,1080.9c-0.2-0.7-0.4-1.1-0.4-3.4v-4.3c0-2.5-0.9-3.5-2.8-3.5h-1.5v11.1h-4.3v-27.3h6.5
					c4.4,0,6.4,2.1,6.4,6.3v2.1c0,2.8-0.9,4.6-2.8,5.5v0.1c2.1,0.9,2.8,2.9,2.8,5.8v4.2c0,1.3,0,2.3,0.5,3.3H232.7z M228.1,1057.5
					v8.4h1.7c1.6,0,2.6-0.7,2.6-2.9v-2.7c0-2-0.7-2.8-2.2-2.8H228.1z"/>
				<path fill="#87868A" d="M251.9,1070.7v3.6c0,4.4-2.2,6.9-6.4,6.9c-4.2,0-6.4-2.5-6.4-6.9v-14.2c0-4.4,2.2-6.9,6.4-6.9
					c4.2,0,6.4,2.5,6.4,6.9v2.7h-4.1v-2.9c0-1.9-0.9-2.7-2.2-2.7c-1.4,0-2.2,0.7-2.2,2.7v14.7c0,2,0.9,2.7,2.2,2.7
					c1.4,0,2.2-0.7,2.2-2.7v-3.9H251.9z"/>
				<path fill="#87868A" d="M258.8,1065.1h5.9v3.9h-5.9v8h7.4v3.9h-11.7v-27.3h11.7v3.9h-7.4V1065.1z"/>
				<path fill="#87868A" d="M268.9,1053.6h6.8c4.3,0,6.4,2.4,6.4,6.7v13.8c0,4.4-2.1,6.7-6.4,6.7h-6.8V1053.6z M273.1,1057.5v19.5
					h2.4c1.4,0,2.2-0.7,2.2-2.7v-14.2c0-2-0.8-2.7-2.2-2.7H273.1z"/>
				<path fill="#87868A" d="M290.8,1053.6h4.3v27.3h-4.3V1053.6z"/>
				<path fill="#87868A" d="M302.1,1061.1L302.1,1061.1l-0.1,19.8h-3.9v-27.3h5.4l4.3,16.3h0.1v-16.3h3.8v27.3h-4.4L302.1,1061.1z"
					/>
				<path fill="#87868A" d="M146.7,1109.7h10.9v7.2h-10.9v14.8h13.7v7.2h-21.6v-50.4h21.6v7.2h-13.7V1109.7z"/>
				<path fill="#87868A" d="M172.8,1088.5v38.9c0,3.6,1.6,4.9,4.1,4.9s4.1-1.3,4.1-4.9v-38.9h7.5v38.4c0,8.1-4,12.7-11.8,12.7
					s-11.8-4.6-11.8-12.7v-38.4H172.8z"/>
				<path fill="#87868A" d="M210.5,1138.9c-0.4-1.3-0.7-2.1-0.7-6.2v-7.9c0-4.7-1.6-6.4-5.2-6.4h-2.7v20.5h-7.9v-50.4h12
					c8.2,0,11.7,3.8,11.7,11.6v4c0,5.2-1.7,8.5-5.2,10.2v0.1c4,1.7,5.3,5.4,5.3,10.7v7.8c0,2.4,0.1,4.2,0.9,6.1H210.5z
					 M201.8,1095.7v15.5h3.1c3,0,4.8-1.3,4.8-5.3v-5c0-3.6-1.2-5.2-4-5.2H201.8z"/>
				<path fill="#87868A" d="M222.2,1100.6c0-8.1,4.2-12.7,12-12.7c7.8,0,12,4.6,12,12.7v26.2c0,8.1-4.2,12.7-12,12.7
					c-7.8,0-12-4.6-12-12.7V1100.6z M230.1,1127.3c0,3.6,1.6,5,4.1,5c2.5,0,4.1-1.4,4.1-5v-27.2c0-3.6-1.6-5-4.1-5
					c-2.5,0-4.1,1.4-4.1,5V1127.3z"/>
				<path fill="#87868A" d="M274.9,1100.9v6.6c0,8.1-3.9,12.5-11.8,12.5h-3.7v18.9h-7.9v-50.4H263
					C271,1088.5,274.9,1092.9,274.9,1100.9z M259.3,1095.7v17.1h3.7c2.5,0,3.9-1.2,3.9-4.8v-7.6c0-3.6-1.4-4.8-3.9-4.8H259.3z"/>
				<path fill="#87868A" d="M286.4,1109.7h10.9v7.2h-10.9v14.8h13.7v7.2h-21.6v-50.4h21.6v7.2h-13.7V1109.7z"/>
			</g>
		</g>
		<g>
			<g>
				<path fill="#005EB8" d="M504.8,1541c0-6.6,3.4-10.2,9.6-10.2c6.3,0,9.6,3.6,9.6,10.2v20.9c0,6.6-3.4,10.2-9.6,10.2
					c-6.3,0-9.6-3.6-9.6-10.2V1541z M511.2,1562.3c0,2.8,1.2,4,3.3,4c2,0,3.3-1.2,3.3-4v-21.8c0-2.8-1.3-4-3.3-4
					c-2.1,0-3.3,1.2-3.3,4V1562.3z M539.6,1531.2h5.9l-25.1,63.7h-5.9L539.6,1531.2z M536.4,1564.3c0-6.6,3.4-10.2,9.6-10.2
					c6.3,0,9.6,3.6,9.6,10.2v20.9c0,6.6-3.4,10.2-9.6,10.2c-6.3,0-9.6-3.6-9.6-10.2V1564.3z M542.8,1585.6c0,2.8,1.2,4,3.3,4
					c2,0,3.3-1.2,3.3-4v-21.8c0-2.8-1.3-4-3.3-4c-2.1,0-3.3,1.2-3.3,4V1585.6z"/>
			</g>
		</g>
		<g>
			<path fill="#005EB8" d="M471.6,1499.8c0-4.1,2.2-6.5,6.2-6.5c4,0,6.2,2.4,6.2,6.5v13.5c0,4.1-2.2,6.5-6.2,6.5
				c-4,0-6.2-2.4-6.2-6.5V1499.8z M475.6,1513.5c0,1.8,0.8,2.6,2.1,2.6c1.3,0,2.1-0.7,2.1-2.6v-14c0-1.9-0.8-2.6-2.1-2.6
				c-1.3,0-2.1,0.7-2.1,2.6V1513.5z"/>
			<path fill="#005EB8" d="M492.6,1514.7L492.6,1514.7l3.1-21.1h3.7l-4,25.9h-6.1l-4-25.9h4.1L492.6,1514.7z"/>
			<path fill="#005EB8" d="M505.5,1504.5h5.6v3.7h-5.6v7.6h7v3.7h-11.1v-25.9h11.1v3.7h-7V1504.5z"/>
			<path fill="#005EB8" d="M523.5,1519.4c-0.2-0.7-0.4-1.1-0.4-3.2v-4.1c0-2.4-0.8-3.3-2.7-3.3h-1.4v10.5H515v-25.9h6.1
				c4.2,0,6,2,6,6v2c0,2.7-0.9,4.4-2.7,5.2v0.1c2,0.9,2.7,2.8,2.7,5.5v4c0,1.3,0,2.2,0.4,3.1H523.5z M519.1,1497.2v8h1.6
				c1.5,0,2.4-0.7,2.4-2.7v-2.6c0-1.9-0.6-2.7-2.1-2.7H519.1z"/>
		</g>
		<g>
			<path fill="#87868A" d="M233.8,298.9h12.3v17.8c0,9-4.5,14.1-13.1,14.1c-8.6,0-13.1-5.1-13.1-14.1v-29.1c0-9,4.5-14.1,13.1-14.1
				c8.6,0,13.1,5.1,13.1,14.1v5.4h-8.3v-6c0-4-1.8-5.5-4.6-5.5c-2.8,0-4.6,1.5-4.6,5.5v30.2c0,4,1.8,5.4,4.6,5.4
				c2.8,0,4.6-1.4,4.6-5.4v-10.3h-4V298.9z"/>
			<path fill="#87868A" d="M251.8,274.1h8.8v48h14.5v8h-23.3V274.1z"/>
			<path fill="#87868A" d="M278.2,287.5c0-9,4.7-14.1,13.4-14.1c8.6,0,13.4,5.1,13.4,14.1v29.1c0,9-4.7,14.1-13.4,14.1
				c-8.6,0-13.4-5.1-13.4-14.1V287.5z M287,317.2c0,4,1.8,5.5,4.6,5.5s4.6-1.5,4.6-5.5V287c0-4-1.8-5.5-4.6-5.5S287,283,287,287
				V317.2z"/>
			<path fill="#87868A" d="M336.9,287v2c0,5.8-1.8,9.4-5.7,11.2v0.2c4.7,1.8,6.6,6,6.6,11.9v4.6c0,8.6-4.6,13.3-13.4,13.3h-13.8v-56
				h13.3C333,274.1,336.9,278.3,336.9,287z M319.4,282.1v14.8h3.4c3.3,0,5.3-1.4,5.3-5.9v-3.1c0-4-1.4-5.8-4.5-5.8H319.4z
				 M319.4,304.9v17.2h5c3,0,4.6-1.4,4.6-5.5v-4.9c0-5.2-1.7-6.8-5.7-6.8H319.4z"/>
			<path fill="#87868A" d="M371.6,330.1h-8.9l-1.5-10.2h-10.8l-1.5,10.2h-8.1l9-56h12.9L371.6,330.1z M351.5,312.3h8.5l-4.2-28.3
				h-0.2L351.5,312.3z"/>
			<path fill="#87868A" d="M375.7,274.1h8.8v48h14.5v8h-23.3V274.1z"/>
		</g>
		<g>
			<path fill="#87868A" d="M110.9,1457.6h5v3.3h-5v6.8h6.3v3.3h-9.9v-23.1h9.9v3.3h-6.3V1457.6z"/>
			<path fill="#87868A" d="M122.8,1447.9v17.8c0,1.7,0.7,2.2,1.9,2.2s1.9-0.6,1.9-2.2v-17.8h3.4v17.6c0,3.7-1.8,5.8-5.4,5.8
				s-5.4-2.1-5.4-5.8v-17.6H122.8z"/>
			<path fill="#87868A" d="M140.1,1471c-0.2-0.6-0.3-1-0.3-2.8v-3.6c0-2.1-0.7-2.9-2.4-2.9h-1.3v9.4h-3.6v-23.1h5.5
				c3.8,0,5.4,1.7,5.4,5.3v1.8c0,2.4-0.8,3.9-2.4,4.7v0.1c1.8,0.8,2.4,2.5,2.4,4.9v3.6c0,1.1,0,1.9,0.4,2.8H140.1z M136.1,1451.2
				v7.1h1.4c1.4,0,2.2-0.6,2.2-2.4v-2.3c0-1.7-0.6-2.4-1.8-2.4H136.1z"/>
			<path fill="#87868A" d="M145.5,1453.4c0-3.7,1.9-5.8,5.5-5.8c3.6,0,5.5,2.1,5.5,5.8v12c0,3.7-1.9,5.8-5.5,5.8
				c-3.6,0-5.5-2.1-5.5-5.8V1453.4z M149.1,1465.7c0,1.7,0.7,2.3,1.9,2.3c1.2,0,1.9-0.6,1.9-2.3v-12.5c0-1.6-0.7-2.3-1.9-2.3
				c-1.2,0-1.9,0.6-1.9,2.3V1465.7z"/>
			<path fill="#87868A" d="M169.6,1453.6v3c0,3.7-1.8,5.7-5.4,5.7h-1.7v8.7h-3.6v-23.1h5.3C167.8,1447.9,169.6,1449.9,169.6,1453.6z
				 M162.5,1451.2v7.8h1.7c1.2,0,1.8-0.5,1.8-2.2v-3.5c0-1.6-0.6-2.2-1.8-2.2H162.5z"/>
			<path fill="#87868A" d="M174.9,1457.6h5v3.3h-5v6.8h6.3v3.3h-9.9v-23.1h9.9v3.3h-6.3V1457.6z"/>
			<path fill="#87868A" d="M195.2,1471h-3.7l-0.6-4.2h-4.5l-0.6,4.2h-3.3l3.7-23.1h5.3L195.2,1471z M186.9,1463.7h3.5l-1.7-11.7
				h-0.1L186.9,1463.7z"/>
			<path fill="#87868A" d="M200.2,1454.3L200.2,1454.3l-0.1,16.7h-3.3v-23.1h4.6l3.7,13.8h0.1v-13.8h3.2v23.1h-3.7L200.2,1454.3z"/>
			<path fill="#87868A" d="M226.8,1453.6v3c0,3.7-1.8,5.7-5.4,5.7h-1.7v8.7h-3.6v-23.1h5.3C225,1447.9,226.8,1449.9,226.8,1453.6z
				 M219.7,1451.2v7.8h1.7c1.2,0,1.8-0.5,1.8-2.2v-3.5c0-1.6-0.6-2.2-1.8-2.2H219.7z"/>
			<path fill="#87868A" d="M232,1447.9v17.8c0,1.7,0.7,2.2,1.9,2.2s1.9-0.6,1.9-2.2v-17.8h3.4v17.6c0,3.7-1.8,5.8-5.4,5.8
				s-5.4-2.1-5.4-5.8v-17.6H232z"/>
			<path fill="#87868A" d="M241.6,1447.9h3.6v19.8h6v3.3h-9.6V1447.9z"/>
			<path fill="#87868A" d="M263.6,1453.6v3c0,3.7-1.8,5.7-5.4,5.7h-1.7v8.7h-3.6v-23.1h5.3C261.8,1447.9,263.6,1449.9,263.6,1453.6z
				 M256.5,1451.2v7.8h1.7c1.2,0,1.8-0.5,1.8-2.2v-3.5c0-1.6-0.6-2.2-1.8-2.2H256.5z"/>
			<path fill="#87868A" d="M282.1,1471h-3.7l-0.6-4.2h-4.5l-0.6,4.2h-3.3l3.7-23.1h5.3L282.1,1471z M273.8,1463.7h3.5l-1.7-11.7
				h-0.1L273.8,1463.7z"/>
			<path fill="#87868A" d="M287.1,1454.3L287.1,1454.3L287,1471h-3.3v-23.1h4.6l3.7,13.8h0.1v-13.8h3.2v23.1h-3.7L287.1,1454.3z"/>
			<path fill="#87868A" d="M297.9,1447.9h5.7c3.6,0,5.4,2,5.4,5.7v11.7c0,3.7-1.8,5.7-5.4,5.7h-5.7V1447.9z M301.5,1451.2v16.5h2
				c1.2,0,1.8-0.6,1.8-2.2v-12c0-1.7-0.7-2.2-1.8-2.2H301.5z"/>
			<path fill="#87868A" d="M327.2,1453.6v3c0,3.7-1.8,5.7-5.4,5.7h-1.7v8.7h-3.6v-23.1h5.3C325.5,1447.9,327.2,1449.9,327.2,1453.6z
				 M320.1,1451.2v7.8h1.7c1.2,0,1.8-0.5,1.8-2.2v-3.5c0-1.6-0.6-2.2-1.8-2.2H320.1z"/>
			<path fill="#87868A" d="M340.2,1471h-3.7l-0.6-4.2h-4.5l-0.6,4.2h-3.3l3.7-23.1h5.3L340.2,1471z M332,1463.7h3.5l-1.7-11.7h-0.1
				L332,1463.7z"/>
			<path fill="#87868A" d="M352.7,1453.6v3c0,3.7-1.8,5.7-5.4,5.7h-1.7v8.7h-3.6v-23.1h5.3C350.9,1447.9,352.7,1449.9,352.7,1453.6z
				 M345.6,1451.2v7.8h1.7c1.2,0,1.8-0.5,1.8-2.2v-3.5c0-1.6-0.6-2.2-1.8-2.2H345.6z"/>
			<path fill="#87868A" d="M358,1457.6h5v3.3h-5v6.8h6.3v3.3h-9.9v-23.1h9.9v3.3H358V1457.6z"/>
			<path fill="#87868A" d="M374.1,1471c-0.2-0.6-0.3-1-0.3-2.8v-3.6c0-2.1-0.7-2.9-2.4-2.9h-1.3v9.4h-3.6v-23.1h5.5
				c3.8,0,5.4,1.7,5.4,5.3v1.8c0,2.4-0.8,3.9-2.4,4.7v0.1c1.8,0.8,2.4,2.5,2.4,4.9v3.6c0,1.1,0,1.9,0.4,2.8H374.1z M370.1,1451.2
				v7.1h1.4c1.4,0,2.2-0.6,2.2-2.4v-2.3c0-1.7-0.6-2.4-1.8-2.4H370.1z"/>
			<path fill="#87868A" d="M384.9,1447.9h3.6v23.1h-3.6V1447.9z"/>
			<path fill="#87868A" d="M396,1447.6c3.5,0,5.3,2.1,5.3,5.8v0.7H398v-1c0-1.6-0.7-2.3-1.8-2.3c-1.2,0-1.8,0.6-1.8,2.3
				c0,1.7,0.7,2.9,3.1,5c3,2.7,4,4.6,4,7.2c0,3.7-1.8,5.8-5.4,5.8s-5.4-2.1-5.4-5.8v-1.4h3.4v1.7c0,1.7,0.7,2.2,1.9,2.2
				s1.9-0.6,1.9-2.2c0-1.7-0.7-2.9-3.1-5c-3-2.7-4-4.6-4-7.2C390.7,1449.7,392.5,1447.6,396,1447.6z"/>
		</g>
		<g>
			<path fill="#87868A" d="M143,1503.7h12.1v8H143v16.4h15.2v8h-24v-56h24v8H143V1503.7z"/>
			<path fill="#87868A" d="M193,1480.1l-9.2,27.2l9.8,28.8h-9.3l-7.1-22.2h-0.2l-7.2,22.2h-8.2l9.8-28.8l-9.2-27.2h9.1l6.6,20.6h0.2
				l6.7-20.6H193z"/>
			<path fill="#87868A" d="M224.1,1493.9v7.3c0,9-4.3,13.8-13.1,13.8h-4.2v21H198v-56h13C219.8,1480.1,224.1,1484.9,224.1,1493.9z
				 M206.8,1488.1v19h4.2c2.8,0,4.3-1.3,4.3-5.3v-8.4c0-4-1.5-5.3-4.3-5.3H206.8z"/>
			<path fill="#87868A" d="M227.5,1493.5c0-9,4.7-14.1,13.4-14.1s13.4,5.1,13.4,14.1v29.1c0,9-4.7,14.1-13.4,14.1
				s-13.4-5.1-13.4-14.1V1493.5z M236.3,1523.2c0,4,1.8,5.5,4.6,5.5c2.8,0,4.6-1.5,4.6-5.5v-30.2c0-4-1.8-5.5-4.6-5.5
				c-2.8,0-4.6,1.5-4.6,5.5V1523.2z"/>
			<path fill="#87868A" d="M278.3,1536.1c-0.5-1.4-0.8-2.3-0.8-6.9v-8.8c0-5.2-1.8-7.1-5.8-7.1h-3v22.8h-8.8v-56h13.3
				c9.1,0,13,4.2,13,12.9v4.4c0,5.8-1.8,9.4-5.8,11.3v0.2c4.4,1.8,5.8,6,5.8,11.8v8.6c0,2.7,0.1,4.7,1,6.8H278.3z M268.7,1488.1
				v17.2h3.4c3.3,0,5.3-1.4,5.3-5.9v-5.5c0-4-1.4-5.8-4.5-5.8H268.7z"/>
			<path fill="#87868A" d="M289.5,1480.1h27.2v8h-9.2v48h-8.8v-48h-9.2V1480.1z"/>
			<path fill="#87868A" d="M329.3,1503.7h12.1v8h-12.1v16.4h15.2v8h-24v-56h24v8h-15.2V1503.7z"/>
			<path fill="#87868A" d="M350,1480.1h13.9c8.8,0,13.1,4.9,13.1,13.8v28.3c0,9-4.3,13.8-13.1,13.8H350V1480.1z M358.8,1488.1v40h5
				c2.8,0,4.5-1.4,4.5-5.4v-29.1c0-4-1.7-5.4-4.5-5.4H358.8z"/>
		</g>
		<g>
			<path fill="#009347" d="M91.6,599.5v2.6c0,3.2-1.6,5-4.8,5h-1.5v7.6h-3.2v-20.3h4.7C90,594.5,91.6,596.2,91.6,599.5z M85.3,597.4
				v6.9h1.5c1,0,1.6-0.5,1.6-1.9v-3c0-1.5-0.6-1.9-1.6-1.9H85.3z"/>
			<path fill="#009347" d="M96.2,603h4.4v2.9h-4.4v5.9h5.5v2.9h-8.7v-20.3h8.7v2.9h-5.5V603z"/>
			<path fill="#009347" d="M103.5,599.3c0-3.2,1.7-5.1,4.8-5.1s4.8,1.9,4.8,5.1v10.6c0,3.2-1.7,5.1-4.8,5.1s-4.8-1.9-4.8-5.1V599.3z
				 M106.7,610.1c0,1.5,0.6,2,1.7,2s1.7-0.6,1.7-2v-11c0-1.4-0.6-2-1.7-2s-1.7,0.6-1.7,2V610.1z"/>
			<path fill="#009347" d="M124.7,599.5v2.6c0,3.2-1.6,5-4.8,5h-1.5v7.6h-3.2v-20.3h4.7C123.1,594.5,124.7,596.2,124.7,599.5z
				 M118.4,597.4v6.9h1.5c1,0,1.6-0.5,1.6-1.9v-3c0-1.5-0.6-1.9-1.6-1.9H118.4z"/>
			<path fill="#009347" d="M126.1,594.5h3.2v17.4h5.2v2.9h-8.4V594.5z"/>
			<path fill="#009347" d="M139.2,603h4.4v2.9h-4.4v5.9h5.5v2.9H136v-20.3h8.7v2.9h-5.5V603z"/>
			<path fill="#009347" d="M154.3,603h4.4v2.9h-4.4v5.9h5.5v2.9l-8.7,0v-20.3l8.7,0v2.9h-5.5V603z"/>
			<path fill="#009347" d="M168.5,608.9L168.5,608.9l2.2-14.4h4.4v20.3h-3v-14.6h-0.1l-2.1,14.6h-3l-2.3-14.4h-0.1v14.4h-2.8v-20.3
				h4.4L168.5,608.9z"/>
			<path fill="#009347" d="M187,599.5v2.6c0,3.2-1.6,5-4.8,5h-1.5v7.6h-3.2v-20.3h4.7C185.4,594.5,187,596.2,187,599.5z
				 M180.7,597.4v6.9h1.5c1,0,1.6-0.5,1.6-1.9v-3c0-1.5-0.6-1.9-1.6-1.9H180.7z"/>
			<path fill="#009347" d="M188.4,594.5h3.2v17.4h5.2v2.9h-8.4V594.5z"/>
			<path fill="#009347" d="M198,599.4c0-3.2,1.7-5.1,4.8-5.1c3.1,0,4.8,1.9,4.8,5.1v10.6c0,3.2-1.7,5.1-4.8,5.1
				c-3.1,0-4.8-1.9-4.8-5.1V599.4z M201.2,610.1c0,1.4,0.6,2,1.7,2c1,0,1.7-0.5,1.7-2v-11c0-1.4-0.6-2-1.7-2c-1,0-1.7,0.6-1.7,2
				V610.1z"/>
			<path fill="#009347" d="M212.3,608.1l-4-13.6h3.3l2.4,9.3h0.1l2.4-9.3h3l-4,13.6v6.7h-3.2V608.1z"/>
			<path fill="#009347" d="M224,603h4.4v2.9H224v5.9h5.5v2.9h-8.7v-20.3h8.7v2.9H224V603z"/>
			<path fill="#009347" d="M231.5,594.5h5c3.2,0,4.8,1.8,4.8,5v10.3c0,3.2-1.6,5-4.8,5h-5V594.5z M234.7,597.4v14.5h1.8
				c1,0,1.6-0.5,1.6-2v-10.6c0-1.4-0.6-2-1.6-2H234.7z"/>
		</g>
		<g>
			<path fill="#009347" d="M276.4,463c-7.3,0-8.6,4.9-9.1,12.4l-0.9,18.8c-0.3,7-1.5,13-9.7,15.4c8.2,2.2,9.4,8.2,9.7,15.4l0.9,18.6
				c0.4,7.6,1.8,12.4,9.1,12.4h3.3v5.8h-5.5c-9.2,0-12.5-6.3-13.1-15.5l-1-20.4c-0.3-7.9-1.2-11.9-9.4-13.1v-6.3
				c8.2-1.3,9.1-5.2,9.4-13.1l1-20.6c0.6-9.1,3.9-15.5,13.1-15.5h5.5v5.8H276.4z"/>
		</g>
		<g>
			<path fill="#009347" d="M547.2,463v-5.8h5.5c9.2,0,12.5,6.4,13.1,15.5l1,20.6c0.3,7.9,1.2,11.8,9.4,13.1v6.3
				c-8.2,1.2-9.1,5.2-9.4,13.1l-1,20.4c-0.6,9.2-3.9,15.5-13.1,15.5h-5.5v-5.8h3.3c7.3,0,8.6-4.8,9.1-12.4l0.9-18.6
				c0.3-7.2,1.5-13.1,9.7-15.4c-8.2-2.4-9.4-8.4-9.7-15.4l-0.9-18.8c-0.4-7.5-1.8-12.4-9.1-12.4H547.2z"/>
		</g>
		<g>
			<path fill="#2F7CBA" d="M139.5,1312.1h2.9v-9.9c0-11.4,5.4-18,16.4-18c11,0,16.4,6.5,16.4,18v5.2h-10.6v-5.9c0-5.1-1.9-7-5.5-7
				s-5.5,1.9-5.5,7v10.6h15.7v5.6h-15.7v5.6h15.7v5.6h-15.7v11.1c0,5.1,1.9,6.9,5.5,6.9s5.5-1.8,5.5-6.9v-6.4h10.6v5.7
				c0,11.4-5.4,18-16.4,18c-11,0-16.4-6.5-16.4-18V1329h-2.9v-5.6h2.9v-5.6h-2.9V1312.1z"/>
		</g>
		<g>
			<path fill="#2F7CBA" d="M168.6,1370.1v1c0,3-0.9,4.9-3,5.9v0.1c2.5,1,3.4,3.1,3.4,6.2v2.4c0,4.5-2.4,6.9-7,6.9h-7.2v-29.3h6.9
				C166.5,1363.4,168.6,1365.6,168.6,1370.1z M159.4,1367.6v7.7h1.8c1.7,0,2.8-0.8,2.8-3.1v-1.6c0-2.1-0.7-3-2.3-3H159.4z
				 M159.4,1379.5v9h2.6c1.5,0,2.4-0.7,2.4-2.9v-2.6c0-2.7-0.9-3.6-3-3.6H159.4z"/>
			<path fill="#2F7CBA" d="M171.8,1363.4h4.6v29.3h-4.6V1363.4z"/>
			<path fill="#2F7CBA" d="M179.8,1363.4h4.6v25.1h7.6v4.2h-12.2V1363.4z"/>
			<path fill="#2F7CBA" d="M194,1363.4h4.6v25.1h7.6v4.2H194V1363.4z"/>
			<path fill="#2F7CBA" d="M208.1,1363.4h4.6v29.3h-4.6V1363.4z"/>
			<path fill="#2F7CBA" d="M215.7,1370.4c0-4.7,2.5-7.4,7-7.4c4.5,0,7,2.7,7,7.4v15.2c0,4.7-2.5,7.4-7,7.4c-4.5,0-7-2.7-7-7.4
				V1370.4z M220.3,1385.9c0,2.1,0.9,2.9,2.4,2.9s2.4-0.8,2.4-2.9v-15.8c0-2.1-0.9-2.9-2.4-2.9s-2.4,0.8-2.4,2.9V1385.9z"/>
			<path fill="#2F7CBA" d="M236.9,1371.5L236.9,1371.5l-0.1,21.2h-4.1v-29.3h5.8l4.6,17.5h0.1v-17.5h4.1v29.3h-4.7L236.9,1371.5z"/>
		</g>
		<g>
			<path fill="#2F7CBA" d="M202.6,1253.8l-2.2-14h7.6l-2.2,14l12.7-6.4l2.4,7.2l-13.9,2.4l9.9,9.9l-6.1,4.5l-6.5-12.6l-6.5,12.6
				l-6.1-4.5l9.9-9.9l-13.9-2.4l2.4-7.2L202.6,1253.8z"/>
		</g>
		<path fill="#2F7CBA" d="M685.8,1260.6l-39.6-43.8c-0.8-0.9-2-1.4-3.2-1.4c-1.2,0-2.4,0.5-3.2,1.4l-32.5,35.9v-30.2
			c0-2.4-1.9-4.3-4.3-4.3h-29.5c-2.4,0-4.3,2-4.3,4.3v37.2h-21c-1.7,0-3.3,1-4,2.6c-0.7,1.6-0.4,3.4,0.8,4.7l40.1,44.3
			c0.8,0.9,2,1.4,3.2,1.4c1.2,0,2.4-0.5,3.2-1.4l32.5-35.9v30.2c0,2.4,1.9,4.3,4.3,4.3h29.5c2.4,0,4.3-1.9,4.3-4.3v-37.2h21
			c0,0,0.1,0,0.1,0c2.4,0,4.3-1.9,4.3-4.3C687.5,1262.6,686.8,1261.3,685.8,1260.6z M588.2,1308.7l-37.2-43.1h18.3
			c2.4,0,4.3-1.9,4.3-4.3v-38.5h29.1v38.5c0,0.1,0,0.1,0,0.2c0,0.4,0.1,0.9,0.3,1.3c0,0.1,0,0.1,0,0.2c0,0,0,0,0,0
			c0.2,0.5,0.5,0.9,0.8,1.2c0.1,0.1,0.2,0.2,0.3,0.3c0.3,0.3,0.6,0.5,0.9,0.6c0.1,0.1,0.3,0.1,0.4,0.2c0.5,0.2,1,0.3,1.5,0.3h18.3
			L588.2,1308.7z M642.9,1218.5l37.2,43.1l-18.3,0c-2.4,0-4.3,1.9-4.3,4.3v38.5l-29.1,0V1266c0-0.1,0-0.1,0-0.2
			c0-0.4-0.1-0.9-0.3-1.3c0-0.1,0-0.1,0-0.2c0,0,0,0,0,0c-0.2-0.5-0.5-0.9-0.8-1.2c-0.1-0.1-0.2-0.2-0.3-0.3
			c-0.3-0.3-0.6-0.5-0.9-0.6c-0.1-0.1-0.3-0.1-0.4-0.2c-0.5-0.2-1-0.3-1.5-0.3l-18.3,0L642.9,1218.5z"/>
		<g>
			<path fill="#6AA242" d="M423.4,1144.3c0-4.7,2.5-7.4,7-7.4s7,2.7,7,7.4v15.3c0,4.7-2.5,7.4-7,7.4s-7-2.7-7-7.4V1144.3z
				 M428,1159.9c0,2.1,0.9,2.9,2.4,2.9s2.4-0.8,2.4-2.9V1144c0-2.1-0.9-2.9-2.4-2.9s-2.4,0.8-2.4,2.9V1159.9z"/>
			<path fill="#6AA242" d="M445,1150.3h6v4.2l-6,0v12.1h-4.6v-29.4h12.2v4.2H445V1150.3z"/>
			<path fill="#6AA242" d="M466,1150.3h6v4.2h-6v12.1h-4.6v-29.4h12.2v4.2H466V1150.3z"/>
			<path fill="#6AA242" d="M475.8,1137.2h4.6v29.4h-4.6V1137.2z"/>
			<path fill="#6AA242" d="M497.6,1144v1.1c0,3-0.9,4.9-3,5.9v0.1c2.5,1,3.4,3.2,3.4,6.3v2.4c0,4.5-2.4,7-7,7h-7.3v-29.4h7
				C495.6,1137.2,497.6,1139.4,497.6,1144z M488.4,1141.4v7.8h1.8c1.7,0,2.8-0.8,2.8-3.1v-1.6c0-2.1-0.7-3-2.4-3H488.4z
				 M488.4,1153.4v9h2.6c1.6,0,2.4-0.7,2.4-2.9v-2.6c0-2.7-0.9-3.6-3-3.6H488.4z"/>
			<path fill="#6AA242" d="M510.5,1166.6c-0.3-0.8-0.4-1.2-0.4-3.6v-4.6c0-2.7-0.9-3.7-3-3.7h-1.6v12h-4.6v-29.4h7
				c4.8,0,6.8,2.2,6.8,6.8v2.3c0,3-1,5-3,5.9v0.1c2.3,1,3.1,3.2,3.1,6.2v4.5c0,1.4,0,2.5,0.5,3.6H510.5z M505.5,1141.4v9h1.8
				c1.7,0,2.8-0.8,2.8-3.1v-2.9c0-2.1-0.7-3-2.4-3H505.5z"/>
			<path fill="#6AA242" d="M522.4,1149.6h6.3v4.2h-6.3v8.6h8v4.2h-12.6v-29.4h12.6v4.2h-8V1149.6z"/>
			<path fill="#6AA242" d="M539.4,1136.9c4.5,0,6.8,2.7,6.8,7.4v0.9h-4.4v-1.2c0-2.1-0.8-2.9-2.3-2.9s-2.3,0.8-2.3,2.9
				c0,2.1,0.9,3.7,3.9,6.4c3.9,3.4,5.1,5.8,5.1,9.2c0,4.7-2.4,7.4-6.9,7.4s-6.9-2.7-6.9-7.4v-1.8h4.4v2.1c0,2.1,0.9,2.9,2.4,2.9
				s2.4-0.8,2.4-2.9c0-2.1-0.9-3.7-3.9-6.4c-3.9-3.4-5.1-5.8-5.1-9.2C532.6,1139.6,534.9,1136.9,539.4,1136.9z"/>
		</g>
		<g>
			<g>
				<path fill="#6AA242" d="M503.5,1064.7c0-7.8,4-12.1,11.4-12.1c7.5,0,11.4,4.3,11.4,12.1v24.8c0,7.8-4,12.1-11.4,12.1
					c-7.5,0-11.4-4.3-11.4-12.1V1064.7z M511,1090.1c0,3.3,1.4,4.8,3.9,4.8c2.4,0,3.9-1.4,3.9-4.8v-25.9c0-3.3-1.5-4.8-3.9-4.8
					c-2.5,0-3.9,1.4-3.9,4.8V1090.1z M544.7,1053.2h7l-29.8,75.6h-7L544.7,1053.2z M540.9,1092.4c0-7.8,4-12.1,11.4-12.1
					s11.4,4.3,11.4,12.1v24.8c0,7.8-4,12.1-11.4,12.1s-11.4-4.3-11.4-12.1V1092.4z M548.5,1117.7c0,3.3,1.4,4.8,3.9,4.8
					c2.4,0,3.9-1.4,3.9-4.8v-25.9c0-3.3-1.5-4.8-3.9-4.8c-2.5,0-3.9,1.4-3.9,4.8V1117.7z"/>
			</g>
		</g>
		<g>
			<line fill="none" stroke="#6AA242" stroke-width="5.161" stroke-miterlimit="10" x1="261.3" y1="981.4" x2="773.9" y2="981.4"/>
			<g>
				<g>
					<g>
						<g>
							<g>
								<g>
									<path fill="#FFFFFF" stroke="#6AA242" stroke-width="5.161" stroke-miterlimit="10" d="M387.3,934.6
										c0,49.9-40.5,90.4-90.4,90.4s-90.4-40.5-90.4-90.4c0-49.9,40.5-90.4,90.4-90.4S387.3,884.7,387.3,934.6z"/>
								</g>
							</g>
						</g>
					</g>
				</g>
			</g>
			<g>
				<g>
					<path fill="#87868A" d="M467.2,912.1h5.9v3.9h-5.9v8h7.4v3.9h-11.7v-27.3h11.7v3.9h-7.4V912.1z"/>
					<path fill="#87868A" d="M481.3,900.6v21.1c0,2,0.9,2.7,2.2,2.7c1.4,0,2.2-0.7,2.2-2.7v-21.1h4.1v20.8c0,4.4-2.2,6.9-6.4,6.9
						c-4.2,0-6.4-2.5-6.4-6.9v-20.8H481.3z"/>
					<path fill="#87868A" d="M501.7,927.9c-0.2-0.7-0.4-1.1-0.4-3.4v-4.3c0-2.5-0.9-3.5-2.8-3.5H497v11.1h-4.3v-27.3h6.5
						c4.4,0,6.4,2.1,6.4,6.3v2.1c0,2.8-0.9,4.6-2.8,5.5v0.1c2.1,0.9,2.8,2.9,2.8,5.8v4.2c0,1.3,0,2.3,0.5,3.3H501.7z M497,904.5v8.4
						h1.7c1.6,0,2.6-0.7,2.6-2.9v-2.7c0-2-0.7-2.8-2.2-2.8H497z"/>
					<path fill="#87868A" d="M508.1,907.1c0-4.4,2.3-6.9,6.5-6.9c4.2,0,6.5,2.5,6.5,6.9v14.2c0,4.4-2.3,6.9-6.5,6.9
						c-4.2,0-6.5-2.5-6.5-6.9V907.1z M512.4,921.6c0,2,0.9,2.7,2.2,2.7c1.4,0,2.2-0.7,2.2-2.7v-14.7c0-1.9-0.9-2.7-2.2-2.7
						c-1.4,0-2.2,0.7-2.2,2.7V921.6z"/>
					<path fill="#87868A" d="M536.6,907.3v3.5c0,4.4-2.1,6.7-6.4,6.7h-2v10.3h-4.3v-27.3h6.3C534.5,900.6,536.6,903,536.6,907.3z
						 M528.1,904.5v9.2h2c1.4,0,2.1-0.6,2.1-2.6v-4.1c0-2-0.7-2.6-2.1-2.6H528.1z"/>
					<path fill="#87868A" d="M542.9,912.1h5.9v3.9h-5.9v8h7.4v3.9h-11.7v-27.3h11.7v3.9h-7.4V912.1z"/>
					<path fill="#87868A" d="M566.8,927.9h-4.3l-0.7-5h-5.3l-0.7,5h-3.9l4.4-27.3h6.3L566.8,927.9z M557,919.2h4.1l-2-13.8H559
						L557,919.2z"/>
					<path fill="#87868A" d="M572.7,908.1L572.7,908.1l-0.1,19.8h-3.9v-27.3h5.4l4.3,16.3h0.1v-16.3h3.8v27.3H578L572.7,908.1z"/>
					<path fill="#87868A" d="M604.2,907.3v3.5c0,4.4-2.1,6.7-6.4,6.7h-2v10.3h-4.3v-27.3h6.3C602.1,900.6,604.2,903,604.2,907.3z
						 M595.8,904.5v9.2h2c1.4,0,2.1-0.6,2.1-2.6v-4.1c0-2-0.7-2.6-2.1-2.6H595.8z"/>
					<path fill="#87868A" d="M619.6,927.9h-4.3l-0.7-5h-5.3l-0.7,5h-3.9l4.4-27.3h6.3L619.6,927.9z M609.8,919.2h4.1l-2-13.8h-0.1
						L609.8,919.2z"/>
					<path fill="#87868A" d="M634.3,907.3v3.5c0,4.4-2.1,6.7-6.4,6.7h-2v10.3h-4.3v-27.3h6.3C632.2,900.6,634.3,903,634.3,907.3z
						 M625.8,904.5v9.2h2c1.4,0,2.1-0.6,2.1-2.6v-4.1c0-2-0.7-2.6-2.1-2.6H625.8z"/>
					<path fill="#87868A" d="M640.5,912.1h5.9v3.9h-5.9v8h7.4v3.9h-11.7v-27.3H648v3.9h-7.4V912.1z"/>
					<path fill="#87868A" d="M659.6,927.9c-0.2-0.7-0.4-1.1-0.4-3.4v-4.3c0-2.5-0.9-3.5-2.8-3.5h-1.5v11.1h-4.3v-27.3h6.5
						c4.4,0,6.4,2.1,6.4,6.3v2.1c0,2.8-0.9,4.6-2.8,5.5v0.1c2.1,0.9,2.8,2.9,2.8,5.8v4.2c0,1.3,0,2.3,0.5,3.3H659.6z M654.9,904.5
						v8.4h1.7c1.6,0,2.6-0.7,2.6-2.9v-2.7c0-2-0.7-2.8-2.2-2.8H654.9z"/>
					<path fill="#87868A" d="M483.4,942v4.8c0,5.9-2.9,9.2-8.7,9.2H472v13.9h-5.8v-37.1h8.6C480.5,932.8,483.4,936,483.4,942z
						 M472,938.1v12.6h2.8c1.9,0,2.9-0.8,2.9-3.5v-5.6c0-2.6-1-3.5-2.9-3.5H472z"/>
					<path fill="#87868A" d="M498.3,969.9c-0.3-1-0.5-1.5-0.5-4.6v-5.8c0-3.4-1.2-4.7-3.8-4.7h-2v15.1h-5.8v-37.1h8.8
						c6,0,8.6,2.8,8.6,8.5v2.9c0,3.8-1.2,6.3-3.8,7.5v0.1c2.9,1.2,3.9,4,3.9,7.8v5.7c0,1.8,0.1,3.1,0.6,4.5H498.3z M491.9,938.1
						v11.4h2.3c2.2,0,3.5-1,3.5-3.9v-3.7c0-2.7-0.9-3.8-3-3.8H491.9z"/>
					<path fill="#87868A" d="M506.9,941.7c0-5.9,3.1-9.3,8.9-9.3c5.7,0,8.9,3.4,8.9,9.3V961c0,5.9-3.1,9.3-8.9,9.3
						c-5.7,0-8.9-3.4-8.9-9.3V941.7z M512.8,961.3c0,2.7,1.2,3.7,3,3.7c1.9,0,3-1,3-3.7v-20c0-2.7-1.2-3.7-3-3.7c-1.9,0-3,1-3,3.7
						V961.3z"/>
					<path fill="#87868A" d="M528.4,932.8h9.2c5.8,0,8.7,3.2,8.7,9.2v18.8c0,5.9-2.9,9.2-8.7,9.2h-9.2V932.8z M534.2,938.1v26.5h3.3
						c1.9,0,3-1,3-3.6v-19.3c0-2.7-1.1-3.6-3-3.6H534.2z"/>
					<path fill="#87868A" d="M555.6,932.8v28.6c0,2.7,1.2,3.6,3,3.6c1.9,0,3-1,3-3.6v-28.6h5.5V961c0,5.9-3,9.3-8.7,9.3
						c-5.7,0-8.7-3.4-8.7-9.3v-28.2H555.6z"/>
					<path fill="#87868A" d="M588,956.1v4.9c0,5.9-3,9.3-8.7,9.3c-5.7,0-8.7-3.4-8.7-9.3v-19.3c0-5.9,3-9.3,8.7-9.3
						c5.7,0,8.7,3.4,8.7,9.3v3.6h-5.5v-4c0-2.7-1.2-3.7-3-3.7c-1.9,0-3,1-3,3.7v20c0,2.7,1.2,3.6,3,3.6c1.9,0,3-1,3-3.6v-5.3H588z"
						/>
					<path fill="#87868A" d="M589.9,932.8h18v5.3h-6.1v31.8H596v-31.8h-6.1V932.8z"/>
					<path fill="#87868A" d="M610.4,932.8h5.8v37.1h-5.8V932.8z"/>
					<path fill="#87868A" d="M620,941.7c0-5.9,3.1-9.3,8.9-9.3c5.7,0,8.9,3.4,8.9,9.3V961c0,5.9-3.1,9.3-8.9,9.3
						c-5.7,0-8.9-3.4-8.9-9.3V941.7z M625.9,961.3c0,2.7,1.2,3.7,3,3.7c1.9,0,3-1,3-3.7v-20c0-2.7-1.2-3.7-3-3.7c-1.9,0-3,1-3,3.7
						V961.3z"/>
					<path fill="#87868A" d="M646.8,943h-0.1v26.9h-5.2v-37.1h7.3l5.9,22.2h0.1v-22.2h5.2v37.1h-6L646.8,943z"/>
				</g>
			</g>
			<g>
				<g>
					<path fill="#6AA242" d="M312.5,903.7c0-7.8,4-12.1,11.4-12.1s11.4,4.3,11.4,12.1v24.8c0,7.8-4,12.1-11.4,12.1
						s-11.4-4.3-11.4-12.1V903.7z M320,929.1c0,3.3,1.4,4.8,3.9,4.8c2.4,0,3.9-1.4,3.9-4.8v-25.9c0-3.3-1.5-4.8-3.9-4.8
						c-2.5,0-3.9,1.4-3.9,4.8V929.1z M353.7,892.2h7l-29.8,75.6h-7L353.7,892.2z M349.9,931.4c0-7.8,4-12.1,11.4-12.1
						s11.4,4.3,11.4,12.1v24.8c0,7.8-4,12.1-11.4,12.1s-11.4-4.3-11.4-12.1V931.4z M357.5,956.7c0,3.3,1.4,4.8,3.9,4.8
						c2.4,0,3.9-1.4,3.9-4.8v-25.9c0-3.3-1.5-4.8-3.9-4.8c-2.5,0-3.9,1.4-3.9,4.8V956.7z"/>
				</g>
			</g>
		</g>
		<g>
			<line fill="none" stroke="#6CBD56" stroke-width="5.161" stroke-miterlimit="10" x1="5.9" y1="806.9" x2="605.8" y2="806.9"/>
			<g>
				<g>
					<g>
						<g>
							<g>
								<g>
									<path fill="#FFFFFF" stroke="#6CBD56" stroke-width="5.161" stroke-miterlimit="10" d="M754.3,764.6
										c0,49.9-40.5,90.4-90.4,90.4c-49.9,0-90.4-40.5-90.4-90.4c0-49.9,40.5-90.4,90.4-90.4C713.8,674.2,754.3,714.7,754.3,764.6
										z"/>
								</g>
							</g>
						</g>
					</g>
				</g>
			</g>
			<g>
				<g>
					<path fill="#87868A" d="M250.6,704.2v4.2c0,5.2-2.5,8-7.5,8h-2.4v12.1h-5.1v-32.2h7.5C248.1,696.2,250.6,699.1,250.6,704.2z
						 M240.6,700.8v10.9h2.4c1.6,0,2.5-0.7,2.5-3v-4.8c0-2.3-0.9-3-2.5-3H240.6z"/>
					<path fill="#87868A" d="M258,709.8h6.9v4.6H258v9.4h8.7v4.6h-13.8v-32.2h13.8v4.6H258V709.8z"/>
					<path fill="#87868A" d="M280.4,728.4c-0.3-0.8-0.5-1.3-0.5-4v-5.1c0-3-1-4.1-3.3-4.1h-1.7v13.1h-5.1v-32.2h7.6
						c5.2,0,7.5,2.4,7.5,7.4v2.5c0,3.3-1.1,5.4-3.3,6.5v0.1c2.5,1.1,3.4,3.5,3.4,6.8v5c0,1.6,0,2.7,0.6,3.9H280.4z M274.9,700.8v9.9
						h2c1.9,0,3-0.8,3-3.4v-3.2c0-2.3-0.8-3.3-2.6-3.3H274.9z"/>
					<path fill="#87868A" d="M300.2,717.8l-6.4-21.5h5.3l3.8,14.7h0.1l3.8-14.7h4.8l-6.4,21.5v10.7h-5.1V717.8z"/>
					<path fill="#87868A" d="M318.8,709.8h6.9v4.6h-6.9v9.4h8.7v4.6h-13.8v-32.2h13.8v4.6h-8.7V709.8z"/>
					<path fill="#87868A" d="M347,728.4h-5.1l-0.9-5.8h-6.2l-0.9,5.8h-4.6l5.2-32.2h7.4L347,728.4z M335.4,718.2h4.9l-2.4-16.3h-0.1
						L335.4,718.2z"/>
					<path fill="#87868A" d="M359.9,728.4c-0.3-0.8-0.5-1.3-0.5-4v-5.1c0-3-1-4.1-3.3-4.1h-1.7v13.1h-5.1v-32.2h7.6
						c5.2,0,7.5,2.4,7.5,7.4v2.5c0,3.3-1.1,5.4-3.3,6.5v0.1c2.5,1.1,3.4,3.5,3.4,6.8v5c0,1.6,0,2.7,0.6,3.9H359.9z M354.4,700.8v9.9
						h2c1.9,0,3-0.8,3-3.4v-3.2c0-2.3-0.8-3.3-2.6-3.3H354.4z"/>
					<path fill="#87868A" d="M391.3,728.4h-5.1l-0.9-5.8h-6.2l-0.9,5.8h-4.6l5.2-32.2h7.4L391.3,728.4z M379.8,718.2h4.9l-2.4-16.3
						h-0.1L379.8,718.2z"/>
					<path fill="#87868A" d="M393.7,696.2h8c5.1,0,7.5,2.8,7.5,8v16.3c0,5.2-2.5,8-7.5,8h-8V696.2z M398.7,700.8v23h2.9
						c1.6,0,2.6-0.8,2.6-3.1V704c0-2.3-1-3.1-2.6-3.1H398.7z"/>
					<path fill="#87868A" d="M412.5,696.2h8c5.1,0,7.5,2.8,7.5,8v16.3c0,5.2-2.5,8-7.5,8h-8V696.2z M417.5,700.8v23h2.9
						c1.6,0,2.6-0.8,2.6-3.1V704c0-2.3-1-3.1-2.6-3.1H417.5z"/>
					<path fill="#87868A" d="M436.3,709.8h6.9v4.6h-6.9v9.4h8.7v4.6h-13.8v-32.2H445v4.6h-8.7V709.8z"/>
					<path fill="#87868A" d="M448.1,696.2h8c5.1,0,7.5,2.8,7.5,8v16.3c0,5.2-2.5,8-7.5,8h-8V696.2z M453.2,700.8v23h2.9
						c1.6,0,2.6-0.8,2.6-3.1V704c0-2.3-1-3.1-2.6-3.1H453.2z"/>
					<path fill="#87868A" d="M472.6,696.2h15.6v4.6h-5.3v27.6h-5.1v-27.6h-5.3V696.2z"/>
					<path fill="#87868A" d="M490,704c0-5.2,2.7-8.1,7.7-8.1c5,0,7.7,2.9,7.7,8.1v16.7c0,5.2-2.7,8.1-7.7,8.1c-5,0-7.7-2.9-7.7-8.1
						V704z M495.1,721c0,2.3,1,3.2,2.6,3.2c1.6,0,2.6-0.9,2.6-3.2v-17.4c0-2.3-1-3.2-2.6-3.2c-1.6,0-2.6,0.9-2.6,3.2V721z"/>
					<path fill="#87868A" d="M514.3,696.2h15.6v4.6h-5.3v27.6h-5.1v-27.6h-5.3V696.2z"/>
					<path fill="#87868A" d="M537.2,728.4h-5.1v-32.2h5.1V710h5.8v-13.8h5.2v32.2H543v-13.8h-5.8V728.4z"/>
					<path fill="#87868A" d="M556.8,709.8h6.9v4.6h-6.9v9.4h8.7v4.6h-13.8v-32.2h13.8v4.6h-8.7V709.8z"/>
					<path fill="#87868A" d="M240.8,750.7h8.2v5.4h-8.2v11.1h10.3v5.4h-16.2v-37.8h16.2v5.4h-10.3V750.7z"/>
					<path fill="#87868A" d="M260.4,734.8V764c0,2.7,1.2,3.7,3.1,3.7c1.9,0,3.1-1,3.1-3.7v-29.2h5.6v28.8c0,6-3,9.5-8.9,9.5
						s-8.9-3.5-8.9-9.5v-28.8H260.4z"/>
					<path fill="#87868A" d="M288.6,772.6c-0.3-1-0.5-1.6-0.5-4.6V762c0-3.5-1.2-4.8-3.9-4.8h-2.1v15.4h-5.9v-37.8h9
						c6.2,0,8.8,2.9,8.8,8.7v3c0,3.9-1.2,6.4-3.9,7.6v0.1c3,1.2,3.9,4.1,3.9,8v5.8c0,1.8,0.1,3.2,0.6,4.6H288.6z M282.2,740.2v11.6
						h2.3c2.2,0,3.6-1,3.6-4v-3.7c0-2.7-0.9-3.9-3-3.9H282.2z"/>
					<path fill="#87868A" d="M297.4,743.9c0-6,3.2-9.5,9-9.5s9,3.5,9,9.5v19.7c0,6-3.2,9.5-9,9.5s-9-3.5-9-9.5V743.9z M303.4,763.9
						c0,2.7,1.2,3.7,3.1,3.7s3.1-1,3.1-3.7v-20.4c0-2.7-1.2-3.7-3.1-3.7s-3.1,1-3.1,3.7V763.9z"/>
					<path fill="#87868A" d="M336.9,744.1v4.9c0,6-2.9,9.3-8.9,9.3h-2.8v14.2h-5.9v-37.8h8.7C334,734.8,336.9,738.1,336.9,744.1z
						 M325.2,740.2V753h2.8c1.9,0,2.9-0.9,2.9-3.6v-5.7c0-2.7-1-3.6-2.9-3.6H325.2z"/>
					<path fill="#87868A" d="M345.6,750.7h8.2v5.4h-8.2v11.1h10.3v5.4h-16.2v-37.8h16.2v5.4h-10.3V750.7z"/>
					<path fill="#87868A" d="M378.8,772.6h-6l-1-6.9h-7.3l-1,6.9H358l6-37.8h8.7L378.8,772.6z M365.2,760.6h5.7l-2.8-19.1H368
						L365.2,760.6z"/>
					<path fill="#87868A" d="M386.9,745.2h-0.1v27.4h-5.3v-37.8h7.5l6,22.6h0.1v-22.6h5.3v37.8h-6.1L386.9,745.2z"/>
					<path fill="#87868A" d="M418.9,750.7h8.2v5.4h-8.2v11.1h10.3v5.4h-16.2v-37.8h16.2v5.4h-10.3V750.7z"/>
					<path fill="#87868A" d="M450,758.5v5c0,6-3,9.5-8.9,9.5s-8.9-3.5-8.9-9.5v-19.7c0-6,3-9.5,8.9-9.5s8.9,3.5,8.9,9.5v3.7h-5.6v-4
						c0-2.7-1.2-3.7-3.1-3.7c-1.9,0-3.1,1-3.1,3.7v20.4c0,2.7,1.2,3.7,3.1,3.7c1.9,0,3.1-1,3.1-3.7v-5.4H450z"/>
					<path fill="#87868A" d="M453.2,743.9c0-6,3.2-9.5,9-9.5s9,3.5,9,9.5v19.7c0,6-3.2,9.5-9,9.5s-9-3.5-9-9.5V743.9z M459.1,763.9
						c0,2.7,1.2,3.7,3.1,3.7s3.1-1,3.1-3.7v-20.4c0-2.7-1.2-3.7-3.1-3.7s-3.1,1-3.1,3.7V763.9z"/>
					<path fill="#87868A" d="M480.4,745.2h-0.1v27.4H475v-37.8h7.5l6,22.6h0.1v-22.6h5.3v37.8h-6.1L480.4,745.2z"/>
					<path fill="#87868A" d="M497.6,743.9c0-6,3.2-9.5,9-9.5c5.8,0,9,3.5,9,9.5v19.7c0,6-3.2,9.5-9,9.5c-5.8,0-9-3.5-9-9.5V743.9z
						 M503.6,763.9c0,2.7,1.2,3.7,3.1,3.7s3.1-1,3.1-3.7v-20.4c0-2.7-1.2-3.7-3.1-3.7s-3.1,1-3.1,3.7V763.9z"/>
					<path fill="#87868A" d="M532,761.6h0.1l4-26.8h8.3v37.8h-5.6v-27.1h-0.1l-4,27.1H529l-4.3-26.7h-0.1v26.7h-5.2v-37.8h8.3
						L532,761.6z"/>
					<path fill="#87868A" d="M554.3,760.1l-7.5-25.3h6.2l4.5,17.2h0.1l4.5-17.2h5.7l-7.5,25.3v12.5h-5.9V760.1z"/>
				</g>
			</g>
			<g>
				<path fill="#6CBD56" d="M603.2,745.8h2.9v-9.9c0-11.4,5.4-18,16.4-18s16.4,6.5,16.4,18v5.2h-10.6v-5.9c0-5.1-1.9-7-5.5-7
					c-3.6,0-5.5,1.9-5.5,7v10.6H633v5.6h-15.7v5.6H633v5.6h-15.7v11.1c0,5.1,1.9,6.9,5.5,6.9c3.6,0,5.5-1.8,5.5-6.9v-6.4h10.6v5.7
					c0,11.4-5.4,18-16.4,18s-16.4-6.5-16.4-18v-10.4h-2.9V757h2.9v-5.6h-2.9V745.8z"/>
			</g>
			<path fill="#8CC640" d="M211.3,704.6h-26.8c-1.3,0-2.3,1-2.3,2.3v20.2h-24.5c-1.3,0-2.3,1-2.3,2.3v20.2H131c-1.3,0-2.3,1-2.3,2.3
				v34.6c0,1.3,1,2.3,2.3,2.3h26.8h26.8h26.8c1.3,0,2.3-1,2.3-2.3v-79.7C213.6,705.6,212.6,704.6,211.3,704.6z M133.3,754.2h22.2
				v30.1h-22.2V754.2z M160.1,751.9v-20.2h22.2v52.6h-22.2V751.9z M209,784.3h-22.2v-54.9v-20.2H209V784.3z"/>
			<g>
				<path fill="#6CBD56" d="M634.3,802.6v1.1c0,3-0.9,4.9-3,5.9v0.1c2.5,1,3.4,3.2,3.4,6.3v2.4c0,4.5-2.4,7-7,7h-7.3v-29.4h7
					C632.2,795.8,634.3,798,634.3,802.6z M625.1,800v7.8h1.8c1.7,0,2.8-0.8,2.8-3.1V803c0-2.1-0.7-3-2.4-3H625.1z M625.1,812v9h2.6
					c1.6,0,2.4-0.7,2.4-2.9v-2.6c0-2.7-0.9-3.6-3-3.6H625.1z"/>
				<path fill="#6CBD56" d="M637.5,795.8l4.6,0v29.4h-4.6V795.8z"/>
				<path fill="#6CBD56" d="M645.5,795.8h4.6V821h7.6v4.2h-12.2V795.8z"/>
				<path fill="#6CBD56" d="M659.7,795.8h4.6V821h7.6v4.2h-12.2V795.8z"/>
				<path fill="#6CBD56" d="M674,795.8h4.6v29.4H674V795.8z"/>
				<path fill="#6CBD56" d="M681.6,802.9c0-4.7,2.5-7.4,7-7.4s7,2.7,7,7.4v15.3c0,4.7-2.5,7.4-7,7.4s-7-2.7-7-7.4V802.9z
					 M686.2,818.4c0,2.1,0.9,2.9,2.4,2.9s2.4-0.8,2.4-2.9v-15.9c0-2.1-0.9-2.9-2.4-2.9s-2.4,0.8-2.4,2.9V818.4z"/>
				<path fill="#6CBD56" d="M702.8,803.9L702.8,803.9l-0.1,21.3h-4.2v-29.4h5.8l4.7,17.6h0.1v-17.6h4.1v29.4h-4.7L702.8,803.9z"/>
			</g>
			<g>
				<path fill="#6CBD56" d="M661.2,694.5l-2.2-14h7.6l-2.2,14l12.7-6.4l2.4,7.2l-13.9,2.4l9.9,9.9l-6.1,4.5l-6.5-12.6l-6.5,12.6
					l-6.1-4.5l9.9-9.9l-13.9-2.4l2.4-7.2L661.2,694.5z"/>
			</g>
			<g>
				<path fill="#87868A" d="M237.3,779.6h1.3l-0.3,3l2.5-1.8l0.7,1.1l-2.8,1.3l2.8,1.2l-0.7,1.1l-2.5-1.8l0.3,3h-1.3l0.3-3l-2.5,1.8
					l-0.7-1.1l2.8-1.2l-2.8-1.3l0.7-1.1l2.5,1.8L237.3,779.6z"/>
				<path fill="#87868A" d="M242.6,781.5V780h8.1v1.5h-3.3v13.4h-1.5v-13.4H242.6z"/>
				<path fill="#87868A" d="M256.6,783.6c1.7,0,3.1,0.6,4.2,1.8c1,1.1,1.5,2.4,1.5,4c0,1.5-0.5,2.9-1.6,4c-1.1,1.1-2.4,1.7-4.1,1.7
					c-1.7,0-3.1-0.6-4.1-1.7c-1.1-1.1-1.6-2.5-1.6-4c0-1.5,0.5-2.8,1.5-4C253.5,784.2,254.9,783.6,256.6,783.6z M256.6,785
					c-1.2,0-2.2,0.4-3,1.3c-0.8,0.9-1.3,1.9-1.3,3.2c0,0.8,0.2,1.5,0.6,2.2c0.4,0.7,0.9,1.2,1.6,1.6c0.7,0.4,1.4,0.6,2.2,0.6
					c0.8,0,1.5-0.2,2.2-0.6c0.7-0.4,1.2-0.9,1.6-1.6c0.4-0.7,0.6-1.4,0.6-2.2c0-1.2-0.4-2.3-1.3-3.2
					C258.8,785.4,257.8,785,256.6,785z"/>
				<path fill="#87868A" d="M271.5,779.8h1.4v4.1h2.2v1.2H273v9.8h-1.4v-9.8h-1.9v-1.2h1.9V779.8z"/>
				<path fill="#87868A" d="M277.1,779.6h1.4v6.2c0.6-0.8,1.2-1.3,1.9-1.7c0.7-0.4,1.4-0.6,2.2-0.6c0.8,0,1.6,0.2,2.2,0.6
					c0.6,0.4,1.1,1,1.4,1.7c0.3,0.7,0.5,1.8,0.5,3.3v5.7h-1.4v-5.2c0-1.3-0.1-2.1-0.2-2.5c-0.2-0.7-0.5-1.3-1-1.6
					c-0.5-0.4-1.1-0.5-1.8-0.5c-0.9,0-1.6,0.3-2.3,0.8c-0.7,0.6-1.1,1.3-1.3,2.1c-0.1,0.5-0.2,1.5-0.2,3v4h-1.4V779.6z"/>
				<path fill="#87868A" d="M298.8,791.2l1.2,0.6c-0.4,0.8-0.8,1.4-1.4,1.9c-0.5,0.5-1.1,0.8-1.7,1.1c-0.6,0.2-1.4,0.4-2.2,0.4
					c-1.8,0-3.2-0.6-4.2-1.8c-1-1.2-1.5-2.5-1.5-4c0-1.4,0.4-2.6,1.3-3.7c1.1-1.4,2.5-2.1,4.4-2.1c1.9,0,3.4,0.7,4.5,2.1
					c0.8,1,1.2,2.3,1.2,3.8h-9.9c0,1.3,0.4,2.3,1.2,3.1c0.8,0.8,1.8,1.2,2.9,1.2c0.6,0,1.1-0.1,1.6-0.3c0.5-0.2,1-0.5,1.4-0.8
					C298,792.5,298.4,791.9,298.8,791.2z M298.8,788.3c-0.2-0.8-0.5-1.4-0.8-1.8c-0.4-0.5-0.8-0.8-1.4-1.1c-0.6-0.3-1.2-0.4-1.9-0.4
					c-1.1,0-2,0.3-2.8,1c-0.6,0.5-1,1.3-1.3,2.3H298.8z"/>
				<path fill="#87868A" d="M308.6,780h8.5v1.5h-7v4.7h7v1.5h-7v5.8h7v1.5h-8.5V780z"/>
				<path fill="#87868A" d="M319.1,783.9h1.4v5.1c0,1.3,0.1,2.1,0.2,2.6c0.2,0.7,0.6,1.2,1.2,1.6c0.6,0.4,1.2,0.6,2,0.6
					c0.8,0,1.5-0.2,2-0.6c0.5-0.4,0.9-0.9,1.1-1.5c0.1-0.4,0.2-1.3,0.2-2.7v-5.1h1.4v5.4c0,1.5-0.2,2.7-0.5,3.4
					c-0.4,0.8-0.9,1.4-1.6,1.8c-0.7,0.4-1.6,0.7-2.7,0.7c-1.1,0-2-0.2-2.7-0.7c-0.7-0.4-1.3-1-1.6-1.8c-0.4-0.8-0.5-1.9-0.5-3.5
					V783.9z"/>
				<path fill="#87868A" d="M331.2,783.9h1.4v1.6c0.4-0.6,0.9-1.1,1.4-1.4c0.5-0.3,1-0.5,1.5-0.5c0.4,0,0.8,0.1,1.3,0.4l-0.7,1.2
					c-0.3-0.1-0.5-0.2-0.7-0.2c-0.5,0-0.9,0.2-1.4,0.6c-0.4,0.4-0.8,1-1,1.8c-0.2,0.6-0.3,1.9-0.3,3.8v3.7h-1.4V783.9z"/>
				<path fill="#87868A" d="M342.8,783.6c1.7,0,3.1,0.6,4.2,1.8c1,1.1,1.5,2.4,1.5,4c0,1.5-0.5,2.9-1.6,4c-1.1,1.1-2.4,1.7-4.1,1.7
					c-1.7,0-3.1-0.6-4.1-1.7c-1.1-1.1-1.6-2.5-1.6-4c0-1.5,0.5-2.8,1.5-4C339.7,784.2,341.1,783.6,342.8,783.6z M342.8,785
					c-1.2,0-2.2,0.4-3,1.3c-0.8,0.9-1.3,1.9-1.3,3.2c0,0.8,0.2,1.5,0.6,2.2c0.4,0.7,0.9,1.2,1.6,1.6c0.7,0.4,1.4,0.6,2.2,0.6
					c0.8,0,1.5-0.2,2.2-0.6c0.7-0.4,1.2-0.9,1.6-1.6c0.4-0.7,0.6-1.4,0.6-2.2c0-1.2-0.4-2.3-1.3-3.2C345,785.4,344,785,342.8,785z"
					/>
				<path fill="#87868A" d="M351,783.9h1.4v2c0.6-0.8,1.2-1.3,1.9-1.7c0.7-0.4,1.5-0.6,2.4-0.6c1.6,0,2.9,0.6,4,1.7
					c1.1,1.1,1.7,2.5,1.7,4.1c0,1.6-0.6,3-1.7,4.1c-1.1,1.1-2.4,1.7-4,1.7c-0.9,0-1.7-0.2-2.4-0.5c-0.7-0.4-1.4-0.9-2-1.6v5.9H351
					V783.9z M356.7,785c-1.2,0-2.3,0.4-3.1,1.3c-0.8,0.9-1.3,1.9-1.3,3.2c0,0.8,0.2,1.6,0.6,2.3c0.4,0.7,0.9,1.2,1.6,1.6
					c0.7,0.4,1.4,0.6,2.2,0.6c0.8,0,1.5-0.2,2.1-0.6c0.7-0.4,1.2-0.9,1.6-1.7c0.4-0.7,0.6-1.4,0.6-2.2c0-0.8-0.2-1.5-0.6-2.2
					c-0.4-0.7-0.9-1.2-1.6-1.6C358.2,785.2,357.5,785,356.7,785z"/>
				<path fill="#87868A" d="M374.2,791.2l1.2,0.6c-0.4,0.8-0.8,1.4-1.4,1.9c-0.5,0.5-1.1,0.8-1.7,1.1c-0.6,0.2-1.4,0.4-2.2,0.4
					c-1.8,0-3.2-0.6-4.2-1.8c-1-1.2-1.5-2.5-1.5-4c0-1.4,0.4-2.6,1.3-3.7c1.1-1.4,2.5-2.1,4.4-2.1c1.9,0,3.4,0.7,4.5,2.1
					c0.8,1,1.2,2.3,1.2,3.8h-9.9c0,1.3,0.4,2.3,1.2,3.1c0.8,0.8,1.8,1.2,2.9,1.2c0.6,0,1.1-0.1,1.6-0.3c0.5-0.2,1-0.5,1.4-0.8
					C373.4,792.5,373.8,791.9,374.2,791.2z M374.2,788.3c-0.2-0.8-0.5-1.4-0.8-1.8c-0.4-0.5-0.8-0.8-1.4-1.1
					c-0.6-0.3-1.2-0.4-1.9-0.4c-1.1,0-2,0.3-2.8,1c-0.6,0.5-1,1.3-1.3,2.3H374.2z"/>
				<path fill="#87868A" d="M389.2,783.9v11h-1.4V793c-0.6,0.7-1.3,1.3-2,1.6c-0.7,0.4-1.5,0.5-2.4,0.5c-1.6,0-2.9-0.6-4-1.7
					c-1.1-1.1-1.7-2.5-1.7-4.1c0-1.6,0.6-2.9,1.7-4.1c1.1-1.1,2.4-1.7,4-1.7c0.9,0,1.7,0.2,2.5,0.6c0.7,0.4,1.4,1,1.9,1.7v-2H389.2z
					 M383.5,785c-0.8,0-1.5,0.2-2.2,0.6c-0.7,0.4-1.2,0.9-1.6,1.6c-0.4,0.7-0.6,1.4-0.6,2.2c0,0.8,0.2,1.5,0.6,2.2
					c0.4,0.7,0.9,1.3,1.6,1.7c0.7,0.4,1.4,0.6,2.2,0.6c0.8,0,1.5-0.2,2.2-0.6c0.7-0.4,1.2-0.9,1.6-1.6c0.4-0.7,0.6-1.4,0.6-2.3
					c0-1.3-0.4-2.3-1.3-3.2C385.8,785.4,384.7,785,383.5,785z"/>
				<path fill="#87868A" d="M392.2,783.9h1.4v2c0.6-0.8,1.2-1.3,1.9-1.7c0.7-0.4,1.4-0.6,2.2-0.6c0.8,0,1.6,0.2,2.2,0.6
					c0.6,0.4,1.1,1,1.4,1.7c0.3,0.7,0.5,1.8,0.5,3.3v5.7h-1.4v-5.2c0-1.3-0.1-2.1-0.2-2.5c-0.2-0.7-0.5-1.3-0.9-1.6
					c-0.5-0.4-1.1-0.5-1.8-0.5c-0.9,0-1.6,0.3-2.3,0.8c-0.7,0.6-1.1,1.3-1.3,2.1c-0.1,0.5-0.2,1.5-0.2,3v4h-1.4V783.9z"/>
				<path fill="#87868A" d="M424.7,782.5l-1.2,1.1c-0.8-0.8-1.7-1.4-2.7-1.9c-1-0.4-1.9-0.6-2.9-0.6c-1.2,0-2.3,0.3-3.3,0.9
					c-1.1,0.6-1.9,1.3-2.5,2.3c-0.6,1-0.9,2-0.9,3.1c0,1.1,0.3,2.2,0.9,3.2s1.4,1.8,2.5,2.4c1.1,0.6,2.2,0.9,3.5,0.9
					c1.5,0,2.8-0.4,3.9-1.3c1.1-0.9,1.7-2,1.9-3.4h-4.7v-1.4h6.4c0,2.3-0.7,4.1-2,5.5c-1.4,1.4-3.2,2-5.4,2c-2.7,0-4.9-0.9-6.5-2.8
					c-1.2-1.4-1.8-3.1-1.8-5c0-1.4,0.4-2.7,1.1-3.9c0.7-1.2,1.7-2.2,2.9-2.8c1.2-0.7,2.6-1,4.2-1c1.3,0,2.4,0.2,3.6,0.7
					C422.6,780.8,423.6,781.5,424.7,782.5z"/>
				<path fill="#87868A" d="M428.2,794.9V780h3.1c2.2,0,3.8,0.2,4.8,0.5c1.4,0.5,2.6,1.4,3.4,2.6c0.8,1.2,1.2,2.7,1.2,4.5
					c0,1.5-0.3,2.8-1,3.9c-0.6,1.1-1.5,2-2.5,2.5c-1,0.5-2.5,0.8-4.3,0.8H428.2z M429.7,793.5h1.7c2.1,0,3.5-0.1,4.3-0.4
					c1.1-0.4,2-1,2.6-2s1-2.1,1-3.5c0-1.4-0.3-2.7-1-3.7c-0.7-1-1.7-1.7-2.9-2.1c-0.9-0.3-2.5-0.4-4.6-0.4h-1.1V793.5z"/>
				<path fill="#87868A" d="M443.4,780h3c1.7,0,2.8,0.1,3.4,0.2c0.8,0.2,1.5,0.6,2.1,1.3c0.5,0.7,0.8,1.5,0.8,2.5
					c0,1-0.3,1.8-0.8,2.4c-0.5,0.6-1.2,1.1-2.2,1.3c-0.7,0.2-1.9,0.2-3.8,0.2h-1.1v6.9h-1.5L443.4,780z M444.9,781.5v5l2.5,0
					c1,0,1.8-0.1,2.2-0.3s0.8-0.5,1.1-0.9c0.3-0.4,0.4-0.9,0.4-1.4c0-0.5-0.1-1-0.4-1.4c-0.3-0.4-0.6-0.7-1.1-0.9
					c-0.4-0.2-1.2-0.3-2.2-0.3H444.9z"/>
				<path fill="#87868A" d="M470.1,791.2l1.2,0.6c-0.4,0.8-0.8,1.4-1.4,1.9c-0.5,0.5-1.1,0.8-1.7,1.1c-0.6,0.2-1.4,0.4-2.2,0.4
					c-1.8,0-3.2-0.6-4.2-1.8c-1-1.2-1.5-2.5-1.5-4c0-1.4,0.4-2.6,1.3-3.7c1.1-1.4,2.5-2.1,4.4-2.1c1.9,0,3.4,0.7,4.5,2.1
					c0.8,1,1.2,2.3,1.2,3.8h-9.9c0,1.3,0.4,2.3,1.2,3.1c0.8,0.8,1.8,1.2,2.9,1.2c0.6,0,1.1-0.1,1.6-0.3c0.5-0.2,1-0.5,1.4-0.8
					C469.2,792.5,469.6,791.9,470.1,791.2z M470.1,788.3c-0.2-0.8-0.5-1.4-0.8-1.8c-0.4-0.5-0.8-0.8-1.4-1.1
					c-0.6-0.3-1.2-0.4-1.9-0.4c-1.1,0-2,0.3-2.8,1c-0.6,0.5-1,1.3-1.3,2.3H470.1z"/>
				<path fill="#87868A" d="M473,783.9h1.5l3.7,8l3.6-8h1.5l-5,11h-0.3L473,783.9z"/>
				<path fill="#87868A" d="M494.6,791.2l1.2,0.6c-0.4,0.8-0.8,1.4-1.4,1.9c-0.5,0.5-1.1,0.8-1.7,1.1c-0.6,0.2-1.4,0.4-2.2,0.4
					c-1.8,0-3.2-0.6-4.2-1.8c-1-1.2-1.5-2.5-1.5-4c0-1.4,0.4-2.6,1.3-3.7c1.1-1.4,2.5-2.1,4.4-2.1c1.9,0,3.4,0.7,4.5,2.1
					c0.8,1,1.2,2.3,1.2,3.8h-9.9c0,1.3,0.4,2.3,1.2,3.1c0.8,0.8,1.8,1.2,2.9,1.2c0.6,0,1.1-0.1,1.6-0.3c0.5-0.2,1-0.5,1.4-0.8
					C493.8,792.5,494.2,791.9,494.6,791.2z M494.6,788.3c-0.2-0.8-0.5-1.4-0.8-1.8c-0.4-0.5-0.8-0.8-1.4-1.1
					c-0.6-0.3-1.2-0.4-1.9-0.4c-1.1,0-2,0.3-2.8,1c-0.6,0.5-1,1.3-1.3,2.3H494.6z"/>
				<path fill="#87868A" d="M498.1,783.9h1.4v1.6c0.4-0.6,0.9-1.1,1.4-1.4c0.5-0.3,1-0.5,1.5-0.5c0.4,0,0.8,0.1,1.3,0.4l-0.7,1.2
					c-0.3-0.1-0.5-0.2-0.7-0.2c-0.5,0-0.9,0.2-1.4,0.6c-0.4,0.4-0.8,1-1,1.8c-0.2,0.6-0.3,1.9-0.3,3.8v3.7h-1.4V783.9z"/>
				<path fill="#87868A" d="M503.5,783.9h1.5l3.8,8.5l3.7-8.5h1.5l-6.6,15h-1.5l2.1-4.9L503.5,783.9z"/>
				<path fill="#87868A" d="M519.9,783.9h1.5l3.8,8.5l3.7-8.5h1.5l-6.6,15h-1.5l2.1-4.9L519.9,783.9z"/>
				<path fill="#87868A" d="M541.3,791.2l1.2,0.6c-0.4,0.8-0.8,1.4-1.4,1.9c-0.5,0.5-1.1,0.8-1.7,1.1c-0.6,0.2-1.4,0.4-2.2,0.4
					c-1.8,0-3.2-0.6-4.2-1.8c-1-1.2-1.5-2.5-1.5-4c0-1.4,0.4-2.6,1.3-3.7c1.1-1.4,2.5-2.1,4.4-2.1c1.9,0,3.4,0.7,4.5,2.1
					c0.8,1,1.2,2.3,1.2,3.8h-9.9c0,1.3,0.4,2.3,1.2,3.1c0.8,0.8,1.8,1.2,2.9,1.2c0.6,0,1.1-0.1,1.6-0.3c0.5-0.2,1-0.5,1.4-0.8
					C540.4,792.5,540.8,791.9,541.3,791.2z M541.3,788.3c-0.2-0.8-0.5-1.4-0.8-1.8c-0.4-0.5-0.8-0.8-1.4-1.1
					c-0.6-0.3-1.2-0.4-1.9-0.4c-1.1,0-2,0.3-2.8,1c-0.6,0.5-1,1.3-1.3,2.3H541.3z"/>
				<path fill="#87868A" d="M556.2,783.9v11h-1.4V793c-0.6,0.7-1.3,1.3-2,1.6c-0.7,0.4-1.5,0.5-2.4,0.5c-1.6,0-2.9-0.6-4-1.7
					c-1.1-1.1-1.7-2.5-1.7-4.1c0-1.6,0.6-2.9,1.7-4.1c1.1-1.1,2.4-1.7,4-1.7c0.9,0,1.7,0.2,2.5,0.6c0.7,0.4,1.4,1,1.9,1.7v-2H556.2z
					 M550.6,785c-0.8,0-1.5,0.2-2.2,0.6c-0.7,0.4-1.2,0.9-1.6,1.6c-0.4,0.7-0.6,1.4-0.6,2.2c0,0.8,0.2,1.5,0.6,2.2
					c0.4,0.7,0.9,1.3,1.6,1.7c0.7,0.4,1.4,0.6,2.2,0.6c0.8,0,1.5-0.2,2.2-0.6c0.7-0.4,1.2-0.9,1.6-1.6c0.4-0.7,0.6-1.4,0.6-2.3
					c0-1.3-0.4-2.3-1.3-3.2C552.8,785.4,551.8,785,550.6,785z"/>
				<path fill="#87868A" d="M558.7,783.9h1.4v1.6c0.4-0.6,0.9-1.1,1.4-1.4c0.5-0.3,1-0.5,1.5-0.5c0.4,0,0.8,0.1,1.3,0.4l-0.7,1.2
					c-0.3-0.1-0.5-0.2-0.7-0.2c-0.5,0-0.9,0.2-1.4,0.6c-0.4,0.4-0.8,1-1,1.8c-0.2,0.6-0.3,1.9-0.3,3.8v3.7h-1.4V783.9z"/>
			</g>
		</g>
		<g>
			<path fill="#87868A" d="M303.3,1348.7h1.2l-0.3,2.7l2.2-1.6l0.6,1l-2.5,1.1l2.5,1.1l-0.6,1l-2.2-1.6l0.3,2.7h-1.2l0.3-2.7
				l-2.2,1.6l-0.6-1l2.6-1.1l-2.6-1.1l0.6-1l2.2,1.6L303.3,1348.7z"/>
			<path fill="#87868A" d="M308,1350.4v-1.3h7.3v1.3h-3l0,12.1h-1.4l0-12.1H308z"/>
			<path fill="#87868A" d="M320.6,1352.3c1.5,0,2.8,0.6,3.8,1.7c0.9,1,1.4,2.2,1.4,3.6c0,1.4-0.5,2.6-1.4,3.6c-1,1-2.2,1.5-3.7,1.5
				c-1.5,0-2.8-0.5-3.7-1.5c-1-1-1.4-2.2-1.4-3.6c0-1.4,0.5-2.6,1.4-3.6C317.8,1352.8,319.1,1352.3,320.6,1352.3z M320.6,1353.5
				c-1.1,0-2,0.4-2.7,1.2c-0.8,0.8-1.1,1.7-1.1,2.8c0,0.7,0.2,1.4,0.5,2c0.3,0.6,0.8,1.1,1.4,1.4c0.6,0.3,1.2,0.5,1.9,0.5
				c0.7,0,1.4-0.2,1.9-0.5c0.6-0.3,1.1-0.8,1.4-1.4c0.3-0.6,0.5-1.3,0.5-2c0-1.1-0.4-2.1-1.1-2.8
				C322.6,1353.9,321.7,1353.5,320.6,1353.5z"/>
			<path fill="#87868A" d="M334,1348.9h1.3l0,3.7h2v1.1h-2l0,8.8H334l0-8.8h-1.7v-1.1h1.7L334,1348.9z"/>
			<path fill="#87868A" d="M339.1,1348.7h1.3l0,5.6c0.5-0.7,1.1-1.2,1.7-1.5c0.6-0.3,1.3-0.5,2-0.5c0.7,0,1.4,0.2,2,0.6
				c0.6,0.4,1,0.9,1.3,1.5c0.3,0.6,0.4,1.6,0.4,3v5.1h-1.3v-4.7c0-1.1,0-1.9-0.1-2.3c-0.2-0.7-0.4-1.1-0.9-1.5
				c-0.4-0.3-1-0.5-1.6-0.5c-0.8,0-1.5,0.3-2.1,0.8c-0.6,0.5-1,1.1-1.2,1.9c-0.1,0.5-0.2,1.4-0.2,2.7l0,3.6h-1.3L339.1,1348.7z"/>
			<path fill="#87868A" d="M358.6,1359.1l1.1,0.6c-0.4,0.7-0.8,1.2-1.2,1.7c-0.5,0.4-1,0.7-1.6,1c-0.6,0.2-1.2,0.3-2,0.3
				c-1.6,0-2.9-0.5-3.8-1.6c-0.9-1.1-1.4-2.3-1.4-3.6c0-1.3,0.4-2.4,1.2-3.4c1-1.2,2.3-1.9,3.9-1.9c1.7,0,3,0.6,4,1.9
				c0.7,0.9,1.1,2,1.1,3.4h-8.9c0,1.1,0.4,2.1,1.1,2.8c0.7,0.7,1.6,1.1,2.6,1.1c0.5,0,1-0.1,1.5-0.3c0.5-0.2,0.9-0.4,1.2-0.7
				C357.8,1360.3,358.2,1359.8,358.6,1359.1z M358.6,1356.5c-0.2-0.7-0.4-1.2-0.7-1.6c-0.3-0.4-0.8-0.7-1.3-1
				c-0.5-0.2-1.1-0.4-1.7-0.4c-1,0-1.8,0.3-2.5,0.9c-0.5,0.5-0.9,1.1-1.2,2H358.6z"/>
			<path fill="#87868A" d="M367.4,1349.1h7.7v1.3h-6.3l0,4.2h6.3v1.3h-6.3l0,5.3h6.3l0,1.3h-7.6L367.4,1349.1z"/>
			<path fill="#87868A" d="M376.8,1352.5h1.3v4.6c0,1.1,0.1,1.9,0.2,2.3c0.2,0.6,0.5,1.1,1,1.4c0.5,0.4,1.1,0.5,1.8,0.5
				c0.7,0,1.3-0.2,1.8-0.5c0.5-0.3,0.8-0.8,1-1.3c0.1-0.4,0.2-1.2,0.2-2.4l0-4.6h1.3v4.9c0,1.4-0.2,2.4-0.5,3.1
				c-0.3,0.7-0.8,1.2-1.4,1.6c-0.6,0.4-1.4,0.6-2.4,0.6c-1,0-1.8-0.2-2.4-0.6c-0.6-0.4-1.1-0.9-1.4-1.6c-0.3-0.7-0.5-1.8-0.5-3.2
				L376.8,1352.5z"/>
			<path fill="#87868A" d="M387.6,1352.5h1.3v1.4c0.4-0.6,0.8-1,1.2-1.3c0.4-0.3,0.9-0.4,1.3-0.4c0.4,0,0.7,0.1,1.1,0.3l-0.7,1.1
				c-0.3-0.1-0.5-0.2-0.7-0.2c-0.4,0-0.8,0.2-1.2,0.5c-0.4,0.3-0.7,0.9-0.9,1.6c-0.2,0.6-0.2,1.7-0.2,3.4v3.3h-1.3L387.6,1352.5z"/>
			<path fill="#87868A" d="M398.2,1352.3c1.5,0,2.8,0.6,3.8,1.7c0.9,1,1.4,2.2,1.4,3.6c0,1.4-0.5,2.6-1.4,3.6c-1,1-2.2,1.5-3.7,1.5
				c-1.5,0-2.8-0.5-3.7-1.5c-1-1-1.4-2.2-1.4-3.6c0-1.4,0.5-2.6,1.4-3.6C395.4,1352.8,396.6,1352.3,398.2,1352.3z M398.2,1353.5
				c-1.1,0-2,0.4-2.7,1.2c-0.8,0.8-1.1,1.7-1.1,2.8c0,0.7,0.2,1.4,0.5,2c0.3,0.6,0.8,1.1,1.4,1.4c0.6,0.3,1.2,0.5,1.9,0.5
				c0.7,0,1.4-0.2,1.9-0.5c0.6-0.3,1.1-0.8,1.4-1.4s0.5-1.3,0.5-2c0-1.1-0.4-2.1-1.1-2.8C400.1,1353.9,399.2,1353.5,398.2,1353.5z"
				/>
			<path fill="#87868A" d="M405.5,1352.5h1.3v1.8c0.5-0.7,1.1-1.2,1.7-1.6c0.7-0.3,1.4-0.5,2.2-0.5c1.4,0,2.6,0.5,3.6,1.5
				c1,1,1.5,2.2,1.5,3.7c0,1.5-0.5,2.7-1.5,3.7c-1,1-2.2,1.5-3.6,1.5c-0.8,0-1.5-0.2-2.2-0.5c-0.7-0.3-1.3-0.8-1.8-1.5l0,5.3h-1.3
				L405.5,1352.5z M410.6,1353.5c-1.1,0-2,0.4-2.8,1.2c-0.8,0.8-1.1,1.7-1.1,2.9c0,0.8,0.2,1.4,0.5,2c0.3,0.6,0.8,1.1,1.4,1.4
				c0.6,0.4,1.3,0.5,2,0.5c0.7,0,1.3-0.2,1.9-0.5c0.6-0.4,1.1-0.8,1.4-1.5c0.4-0.6,0.5-1.3,0.5-2c0-0.7-0.2-1.4-0.5-2
				c-0.4-0.6-0.8-1.1-1.4-1.5C412,1353.7,411.3,1353.5,410.6,1353.5z"/>
			<path fill="#87868A" d="M426.4,1359.1l1.1,0.6c-0.4,0.7-0.8,1.2-1.2,1.7c-0.5,0.4-1,0.7-1.6,1c-0.6,0.2-1.2,0.3-2,0.3
				c-1.6,0-2.9-0.5-3.8-1.6c-0.9-1.1-1.4-2.3-1.4-3.6c0-1.3,0.4-2.4,1.2-3.4c1-1.2,2.3-1.9,3.9-1.9c1.7,0,3,0.6,4,1.9
				c0.7,0.9,1.1,2,1.1,3.4h-8.9c0,1.1,0.4,2.1,1.1,2.8c0.7,0.7,1.6,1.1,2.6,1.1c0.5,0,1-0.1,1.5-0.3c0.5-0.2,0.9-0.4,1.2-0.7
				C425.6,1360.3,426,1359.8,426.4,1359.1z M426.4,1356.5c-0.2-0.7-0.4-1.2-0.7-1.6c-0.3-0.4-0.8-0.7-1.3-1
				c-0.5-0.2-1.1-0.4-1.7-0.4c-1,0-1.8,0.3-2.5,0.9c-0.5,0.5-0.9,1.1-1.2,2H426.4z"/>
			<path fill="#87868A" d="M439.8,1352.5l0,9.9h-1.3v-1.7c-0.5,0.6-1.1,1.1-1.8,1.5c-0.7,0.3-1.4,0.5-2.2,0.5
				c-1.4,0-2.6-0.5-3.6-1.5c-1-1-1.5-2.2-1.5-3.7c0-1.4,0.5-2.6,1.5-3.7c1-1,2.2-1.5,3.6-1.5c0.8,0,1.5,0.2,2.2,0.5
				c0.7,0.3,1.2,0.9,1.7,1.6v-1.8H439.8z M434.7,1353.5c-0.7,0-1.4,0.2-2,0.5c-0.6,0.3-1.1,0.8-1.4,1.5c-0.4,0.6-0.5,1.3-0.5,2
				c0,0.7,0.2,1.4,0.5,2c0.4,0.6,0.8,1.1,1.4,1.5c0.6,0.4,1.2,0.5,1.9,0.5c0.7,0,1.4-0.2,2-0.5c0.6-0.4,1.1-0.8,1.4-1.4
				c0.3-0.6,0.5-1.3,0.5-2c0-1.1-0.4-2.1-1.1-2.9C436.8,1353.9,435.8,1353.5,434.7,1353.5z"/>
			<path fill="#87868A" d="M442.5,1352.5h1.3v1.8c0.5-0.7,1.1-1.2,1.7-1.5c0.6-0.3,1.3-0.5,2-0.5c0.7,0,1.4,0.2,2,0.6
				c0.6,0.4,1,0.9,1.3,1.5c0.3,0.6,0.4,1.6,0.4,3l0,5.1h-1.3l0-4.7c0-1.1,0-1.9-0.1-2.3c-0.1-0.7-0.4-1.1-0.8-1.5
				c-0.4-0.3-1-0.5-1.6-0.5c-0.8,0-1.5,0.3-2.1,0.8c-0.6,0.5-1,1.1-1.2,1.9c-0.1,0.5-0.2,1.4-0.2,2.7v3.6h-1.3L442.5,1352.5z"/>
			<path fill="#87868A" d="M471.8,1351.3l-1,1c-0.7-0.7-1.6-1.3-2.4-1.7c-0.9-0.4-1.8-0.6-2.6-0.6c-1,0-2,0.3-3,0.8
				c-0.9,0.5-1.7,1.2-2.2,2.1c-0.5,0.9-0.8,1.8-0.8,2.8c0,1,0.3,2,0.8,2.9c0.5,0.9,1.3,1.6,2.2,2.1c1,0.5,2,0.8,3.1,0.8
				c1.4,0,2.5-0.4,3.5-1.2c1-0.8,1.5-1.8,1.7-3h-4.3v-1.3h5.8c0,2.1-0.6,3.7-1.8,4.9c-1.2,1.2-2.8,1.8-4.9,1.8
				c-2.5,0-4.4-0.8-5.9-2.5c-1.1-1.3-1.7-2.8-1.7-4.5c0-1.3,0.3-2.4,1-3.5c0.6-1.1,1.5-1.9,2.6-2.6c1.1-0.6,2.4-0.9,3.8-0.9
				c1.1,0,2.2,0.2,3.2,0.6C469.9,1349.7,470.8,1350.4,471.8,1351.3z"/>
			<path fill="#87868A" d="M475,1362.4l0-13.4h2.8c2,0,3.5,0.2,4.4,0.5c1.3,0.5,2.3,1.2,3,2.4c0.7,1.1,1.1,2.5,1.1,4
				c0,1.3-0.3,2.5-0.9,3.5c-0.6,1-1.3,1.8-2.3,2.3c-0.9,0.5-2.2,0.7-3.9,0.7H475z M476.2,1361.2h1.5c1.8,0,3.1-0.1,3.8-0.3
				c1-0.3,1.8-0.9,2.4-1.8c0.6-0.9,0.9-1.9,0.9-3.1c0-1.3-0.3-2.4-0.9-3.3c-0.6-0.9-1.5-1.5-2.6-1.9c-0.8-0.3-2.2-0.4-4.1-0.4h-0.9
				L476.2,1361.2z"/>
			<path fill="#87868A" d="M488.6,1349.1h2.7c1.5,0,2.6,0.1,3.1,0.2c0.8,0.2,1.4,0.6,1.9,1.2c0.5,0.6,0.7,1.3,0.7,2.2
				c0,0.9-0.2,1.6-0.7,2.2c-0.5,0.6-1.1,1-2,1.2c-0.6,0.1-1.7,0.2-3.4,0.2h-1l0,6.2h-1.3L488.6,1349.1z M490,1350.4l0,4.5l2.3,0
				c0.9,0,1.6-0.1,2-0.2c0.4-0.2,0.8-0.4,1-0.8c0.2-0.4,0.4-0.8,0.4-1.2c0-0.4-0.1-0.9-0.4-1.2c-0.2-0.4-0.6-0.6-1-0.8
				c-0.4-0.2-1-0.2-1.9-0.2H490z"/>
			<path fill="#87868A" d="M512.6,1359.1l1.1,0.6c-0.4,0.7-0.8,1.2-1.2,1.7c-0.5,0.4-1,0.7-1.6,1c-0.6,0.2-1.2,0.3-2,0.3
				c-1.6,0-2.9-0.5-3.8-1.6c-0.9-1.1-1.4-2.3-1.4-3.6c0-1.3,0.4-2.4,1.2-3.4c1-1.2,2.3-1.9,3.9-1.9c1.7,0,3,0.6,4,1.9
				c0.7,0.9,1.1,2,1.1,3.4h-8.9c0,1.1,0.4,2.1,1.1,2.8c0.7,0.7,1.6,1.1,2.6,1.1c0.5,0,1-0.1,1.5-0.3c0.5-0.2,0.9-0.4,1.2-0.7
				C511.8,1360.3,512.2,1359.8,512.6,1359.1z M512.6,1356.5c-0.2-0.7-0.4-1.2-0.7-1.6c-0.3-0.4-0.8-0.7-1.3-1
				c-0.5-0.2-1.1-0.4-1.7-0.4c-1,0-1.8,0.3-2.5,0.9c-0.5,0.5-0.9,1.1-1.2,2H512.6z"/>
			<path fill="#87868A" d="M515.3,1352.5h1.4l3.3,7.2l3.3-7.2h1.4l-4.5,9.9h-0.2L515.3,1352.5z"/>
			<path fill="#87868A" d="M534.7,1359.1l1.1,0.6c-0.4,0.7-0.8,1.2-1.2,1.7c-0.5,0.4-1,0.7-1.6,1c-0.6,0.2-1.2,0.3-2,0.3
				c-1.6,0-2.9-0.5-3.8-1.6c-0.9-1.1-1.4-2.3-1.4-3.6c0-1.3,0.4-2.4,1.2-3.4c1-1.2,2.3-1.9,3.9-1.9c1.7,0,3,0.6,4,1.9
				c0.7,0.9,1.1,2,1.1,3.4h-8.9c0,1.1,0.4,2.1,1.1,2.8c0.7,0.7,1.6,1.1,2.6,1.1c0.5,0,1-0.1,1.5-0.3c0.5-0.2,0.9-0.4,1.2-0.7
				C533.9,1360.3,534.3,1359.8,534.7,1359.1z M534.7,1356.5c-0.2-0.7-0.4-1.2-0.7-1.6c-0.3-0.4-0.8-0.7-1.3-1
				c-0.5-0.2-1.1-0.4-1.7-0.4c-1,0-1.8,0.3-2.5,0.9c-0.5,0.5-0.9,1.1-1.2,2H534.7z"/>
			<path fill="#87868A" d="M537.8,1352.5h1.3v1.4c0.4-0.6,0.8-1,1.2-1.3c0.4-0.3,0.9-0.4,1.3-0.4c0.4,0,0.7,0.1,1.1,0.3l-0.7,1.1
				c-0.3-0.1-0.5-0.2-0.7-0.2c-0.4,0-0.8,0.2-1.2,0.5c-0.4,0.3-0.7,0.9-0.9,1.6c-0.2,0.6-0.2,1.7-0.2,3.4v3.3h-1.3L537.8,1352.5z"/>
			<path fill="#87868A" d="M542.6,1352.5h1.3l3.4,7.6l3.3-7.6h1.4l-5.9,13.5h-1.3l1.9-4.4L542.6,1352.5z"/>
			<path fill="#87868A" d="M557.4,1352.5h1.3l3.4,7.6l3.3-7.6h1.4l-5.9,13.5h-1.3l1.9-4.4L557.4,1352.5z"/>
			<path fill="#87868A" d="M576.6,1359.1l1.1,0.6c-0.4,0.7-0.8,1.2-1.2,1.7c-0.5,0.4-1,0.7-1.6,1c-0.6,0.2-1.2,0.3-2,0.3
				c-1.6,0-2.9-0.5-3.8-1.6c-0.9-1.1-1.4-2.3-1.4-3.6c0-1.3,0.4-2.4,1.2-3.4c1-1.2,2.3-1.9,3.9-1.9c1.7,0,3,0.6,4,1.9
				c0.7,0.9,1.1,2,1.1,3.4h-8.9c0,1.1,0.4,2.1,1.1,2.8c0.7,0.7,1.6,1.1,2.6,1.1c0.5,0,1-0.1,1.5-0.3c0.5-0.2,0.9-0.4,1.2-0.7
				C575.9,1360.3,576.2,1359.8,576.6,1359.1z M576.6,1356.5c-0.2-0.7-0.4-1.2-0.7-1.6c-0.3-0.4-0.8-0.7-1.3-1
				c-0.5-0.2-1.1-0.4-1.7-0.4c-1,0-1.8,0.3-2.5,0.9c-0.5,0.5-0.9,1.1-1.2,2H576.6z"/>
			<path fill="#87868A" d="M590.1,1352.5l0,9.9h-1.3v-1.7c-0.5,0.6-1.1,1.1-1.8,1.5c-0.7,0.3-1.4,0.5-2.2,0.5
				c-1.4,0-2.6-0.5-3.6-1.5c-1-1-1.5-2.2-1.5-3.7c0-1.4,0.5-2.6,1.5-3.7c1-1,2.2-1.5,3.6-1.5c0.8,0,1.5,0.2,2.2,0.5
				c0.7,0.3,1.2,0.9,1.7,1.6l0-1.8H590.1z M585,1353.5c-0.7,0-1.4,0.2-2,0.5c-0.6,0.3-1.1,0.8-1.4,1.5c-0.4,0.6-0.5,1.3-0.5,2
				c0,0.7,0.2,1.4,0.5,2c0.4,0.6,0.8,1.1,1.4,1.5c0.6,0.4,1.2,0.5,1.9,0.5c0.7,0,1.4-0.2,2-0.5c0.6-0.4,1.1-0.8,1.4-1.4
				c0.3-0.6,0.5-1.3,0.5-2c0-1.1-0.4-2.1-1.1-2.9C587,1353.9,586.1,1353.5,585,1353.5z"/>
			<path fill="#87868A" d="M592.3,1352.5h1.3v1.4c0.4-0.6,0.8-1,1.2-1.3c0.4-0.3,0.9-0.4,1.3-0.4c0.4,0,0.7,0.1,1.1,0.3l-0.7,1.1
				c-0.3-0.1-0.5-0.2-0.7-0.2c-0.4,0-0.8,0.2-1.2,0.5c-0.4,0.3-0.7,0.9-0.9,1.6c-0.2,0.6-0.2,1.7-0.2,3.4l0,3.3h-1.3L592.3,1352.5z"
				/>
		</g>
		<g>
			<path fill="#8CC640" d="M205.7,311.2c0-12.1-6.1-22.8-15.4-29.2v0l-0.2-0.2c0,0,0,0,0,0l-0.4-0.3c-0.8-0.5-1.5-1-2.3-1.4
				c-0.3-0.2-0.6-0.3-0.9-0.4c-0.6-0.3-1.3-0.6-1.9-0.9c-0.4-0.2-0.7-0.3-1.1-0.5c-0.7-0.3-1.3-0.5-2-0.7c-0.3-0.1-0.6-0.2-0.9-0.3
				c-1-0.3-1.9-0.5-2.9-0.8c-0.3-0.1-0.6-0.1-0.9-0.2c-0.8-0.1-1.6-0.3-2.4-0.4c-0.3,0-0.6-0.1-1-0.1c-1.1-0.1-2.1-0.2-3.2-0.2
				c-1.1,0-2.2,0.1-3.3,0.2c-0.3,0-0.6,0.1-0.9,0.1c-0.8,0.1-1.7,0.2-2.5,0.4c-0.3,0-0.5,0.1-0.8,0.1c-2.1,0.4-4.2,1.1-6.1,1.9
				c-0.2,0.1-0.4,0.2-0.6,0.3c-0.8,0.4-1.6,0.8-2.4,1.2c-0.2,0.1-0.3,0.2-0.5,0.3c-1,0.5-1.9,1.1-2.8,1.7l-0.7,0.5l0,0.1
				c-1.1,0.8-2.2,1.7-3.2,2.6l-4.8-4.9l-1.2,1.2c-8,8-12.4,18.6-12.4,29.9c0,11.3,4.4,21.9,12.4,29.9c7.6,7.6,17.5,11.9,28.2,12.3
				v15.3h-16.9v8.5h37.2v-8.5h-16.9v-15.3c10.7-0.4,20.6-4.8,28.2-12.3l1.2-1.2l-4.9-4.8C202.1,328.7,205.7,320.3,205.7,311.2
				L205.7,311.2z M152.8,284.2c1.5-1,3-1.8,4.6-2.5c0.2-0.1,0.3-0.1,0.5-0.2c0.8-0.3,1.6-0.6,2.4-0.9c0.1-0.1,0.3-0.1,0.4-0.1
				c0.9-0.3,1.9-0.5,2.8-0.7c0.2,0,0.3-0.1,0.5-0.1c0.8-0.2,1.6-0.3,2.4-0.4c0.3,0,0.5-0.1,0.8-0.1c1-0.1,1.9-0.1,2.9-0.1
				c1,0,1.9,0.1,2.9,0.1c0.2,0,0.5,0,0.7,0.1c0.9,0.1,1.8,0.2,2.7,0.4c0.2,0,0.3,0.1,0.5,0.1c0.8,0.2,1.5,0.4,2.2,0.6
				c0.3,0.1,0.6,0.2,0.9,0.3c0.8,0.3,1.6,0.6,2.4,0.9c0.2,0.1,0.4,0.2,0.6,0.3c0.6,0.3,1.2,0.6,1.9,0.9c0.3,0.2,0.6,0.3,0.9,0.5
				c0.1,0.1,0.3,0.2,0.4,0.2c-5.3,1.9-8.3,4.1-11.7,8.6c-0.2,0.3-0.4,0.6-0.5,0.9c-0.2-0.2-0.4-0.4-0.6-0.5
				c-1.2-0.8-2.8-0.8-4.7,0.1l-0.2,0c-2.4,0.3-4.1,0.5-4.2,3.4c-0.1,1.5,0.7,2.9,2,3.7c0.2,0.1,0.5,0.3,0.8,0.4
				c0,0.1,0.1,0.1,0.1,0.2l0.4,0.6c-0.8-0.2-1.7-0.3-2.5-0.5c-1-0.2-2-0.3-2.9-0.7c-3.6-1.4-6.3-7.5-8.3-12
				c-0.4-0.9-0.7-1.7-1.1-2.5C152.8,284.8,152.8,284.5,152.8,284.2L152.8,284.2z M176.7,321.2c-3.2-2.6-4.4-6.4-3.1-9.7
				c0.7-1.7,0-3.5-1.6-4.5c-0.1-0.2-0.1-0.7-0.2-1c-0.1-0.9-0.3-1.9-0.8-2.9c0.3,0.2,0.6,0.4,0.9,0.5c0.3,0.1,0.4,0.2,0.4,0.3
				c0.4,1.5,1.4,2.5,2.7,3c1.2,0.4,2.6,0.1,3.7-0.7c0.3-0.2,0.4-0.3,1.7,0.3c0.9,0.4,2,1,3.5,1.1c0.9,0.9,1.6,2.1,2.3,3.3
				c1.1,1.8,2.2,3.7,4,4.7c0.6,0.3,0.2,2.3-1.1,6c-0.1,0.3-0.2,0.7-0.4,0.9c-1.7,1.4-2.8,2.9-3.9,4.4c-1,1.4-1.9,2.7-3.3,3.9
				c-2.2,1.9-4,3-6.3,3.7C177.7,330.3,180.4,324.3,176.7,321.2L176.7,321.2z M169.3,296.1l-1.2,0.7c0,0-0.1,0-0.3-0.2
				c-0.2-0.1-0.2-0.4-0.2-0.5c0,0,0-0.1,0-0.1c0.3,0,0.8-0.1,1.2-0.1l0.8-0.1l0.2-0.1c1.3-0.6,1.7-0.4,1.7-0.4c0,0,0.4,0.4,0.3,1.9
				l0,0.5c-0.3-0.1-0.7-0.2-1.3-0.3c-0.1-0.1-0.2-0.3-0.3-0.4L169.3,296.1z M170.1,301.9c-0.2-0.2-0.5-0.4-0.7-0.5
				c-0.3-0.2-0.6-0.3-0.9-0.4l0.5-0.1c0.3-0.1,0.7-0.1,0.9-0.1C169.9,301.2,169.9,301.5,170.1,301.9L170.1,301.9z M149.7,286.4
				c0,0.1,0,0.1,0.1,0.2c0.3,0.7,0.7,1.5,1,2.3c2.3,5.3,5.2,11.9,10.2,13.8c1.3,0.5,2.6,0.7,3.7,0.8c1.2,0.2,2.2,0.3,3.2,0.8
				c0,0,0.1,0.1,0.1,0.1c0.3,0.5,0.4,1.3,0.5,2c0.2,1.2,0.4,2.7,1.7,3.4c0.2,0.1,0.3,0.2,0.3,0.3c-1.9,4.6-0.3,9.9,4,13.5
				c0.7,0.6,1.5,2.6-2.2,9.1c-0.7,1.3-0.6,2.8,0.4,3.9c0.7,0.8,1.6,1.2,2.6,1.2c0.4,0,0.8-0.1,1.2-0.2c2.6-0.9,4.8-2.2,7.3-4.4
				c1.8-1.5,2.9-3.1,3.9-4.5c1-1.5,1.9-2.8,3.5-3.9l0.5-0.4l0.2-0.5c0.1-0.4,0.3-0.8,0.5-1.3c1.2-3.1,3.2-8.3-0.5-10.2
				c-1-0.5-1.8-1.8-2.7-3.4c-0.7-1.3-1.6-2.7-2.8-3.9c-0.5-0.5-1.2-0.9-2.1-1c-0.9-0.1-1.7-0.5-2.4-0.8c-1.3-0.6-3.1-1.5-5.2,0
				c-0.1,0.1-0.4,0.3-0.6,0.2c-0.2-0.1-0.4-0.3-0.5-0.7c-0.4-1.3-1.2-2.1-2.5-2.5c0.2-0.6,0.2-1.1-0.1-1.6l0.2,0
				c1.5,0.2,2.6-0.1,3.4-0.9c0.8-0.9,0.9-2.1,0.5-3.7c0,0,0-0.1,0-0.2c3.2-4.2,5.7-6,10.9-7.7c0.5-0.2,0.9-0.5,1.3-0.8
				c7.8,5.9,12.9,15.2,12.9,25.7c0,17.7-14.4,32.1-32.1,32.1c-17.7,0-32.1-14.4-32.1-32.1C138,301.2,142.6,292.3,149.7,286.4
				L149.7,286.4z M185.4,372v1.7H155V372H185.4z M196.4,339.8c-15.2,14-39,13.6-53.8-1.2c-7.3-7.3-11.4-17.1-11.4-27.5
				c0-9.8,3.6-19.1,10.2-26.3l2.4,2.4c-5.7,6.3-9.3,14.7-9.3,23.8c0,19.6,15.9,35.5,35.5,35.5c9.2,0,17.5-3.5,23.8-9.3L196.4,339.8z
				 M196.4,339.8"/>
		</g>
		<line fill="none" stroke="#51A332" stroke-width="5.161" stroke-miterlimit="10" x1="641.8" y1="180.5" x2="768.9" y2="180.5"/>
	</g>
</g>
</svg>
