<?xml version="1.0" encoding="utf-8"?>
<!-- Generator: Adobe Illustrator 18.0.0, SVG Export Plug-In . SVG Version: 6.00 Build 0)  -->
<!DOCTYPE svg PUBLIC "-//W3C//DTD SVG 1.1//EN" "http://www.w3.org/Graphics/SVG/1.1/DTD/svg11.dtd">
<svg version="1.1" id="Sustainability_Vision" xmlns="http://www.w3.org/2000/svg" xmlns:xlink="http://www.w3.org/1999/xlink"
	 x="0px" y="0px" viewBox="0 0 1692 810" enable-background="new 0 0 1692 810" xml:space="preserve">
<g>
	<g>
		<g>
			<line fill="none" stroke="#009347" stroke-width="5.161" stroke-miterlimit="10" x1="192.9" y1="352.2" x2="608.9" y2="352.2"/>
			<polyline fill="none" stroke="#2F7CBA" stroke-width="5.161" stroke-miterlimit="10" points="422.9,711.6 746.9,711.6 
				746.9,571.2 			"/>
			<polyline fill="none" stroke="#51A332" stroke-width="5.161" stroke-miterlimit="10" points="401.9,134.1 665.9,134.1 
				665.9,225.3 			"/>
			<line fill="none" stroke="#8CC640" stroke-width="5.1612" stroke-miterlimit="10" x1="897" y1="170.1" x2="1150.4" y2="170.1"/>
			
				<line fill="none" stroke="#6CBD56" stroke-width="5.161" stroke-miterlimit="10" x1="1037.9" y1="359.6" x2="1529.9" y2="359.6"/>
			<line fill="none" stroke="#6AA242" stroke-width="5.161" stroke-miterlimit="10" x1="966.3" y1="530.1" x2="1340.9" y2="530.1"/>
			<polyline fill="none" stroke="#005EB8" stroke-width="5.161" stroke-miterlimit="10" points="922.4,559.9 922.4,708.6 
				1277.9,708.6 			"/>
			<g>
				<path fill="#009347" d="M68.9,210.2c-0.4,1.1-0.5,2.2-0.6,3.3c-1.5,2.7-0.9,6.3,1.3,8.9c3.3,3.8,9.2,5,13.8,2.9
					c4.3-1.9,7.1-6.7,6.1-11.4c-1-4.6-5-8.4-9.5-9.6C75,202.8,70.4,205.3,68.9,210.2z"/>
				<path fill="none" stroke="#009347" stroke-width="5" stroke-miterlimit="10" d="M82.8,221.1c-0.3-0.2-0.8-0.2-1.2,0
					c-1,0.5-2,0.8-3.2,0.9c-0.3,0-0.5,0.2-0.7,0.3c-0.2,0.1-0.5,0.2-0.6,0.5C75,228,75.5,234.5,75,240c-0.5,6.8-1.1,13.6-1.7,20.4
					c-1,13.2-1.9,26.4-2.3,39.6c0,0.5,0.2,0.9,0.5,1.1c0.4,1,1.4,2,2.6,2.7c1.7,1.2,4,1.5,6.1,0.5c1.6-0.8,2.9-2.3,3.6-3.9
					c0.4-0.9,0.5-1.8,0.4-2.5c0.7-4.8,0-10.1-0.1-14.9c-0.2-6.8-0.3-13.6-0.3-20.5c-0.1-13.3,0.3-26.5,0.4-39.8
					C84.2,221.6,83.5,221.1,82.8,221.1z"/>
				<path fill="none" stroke="#009347" stroke-width="5" stroke-miterlimit="10" d="M89.3,212.4c-0.8-0.1-1.2,0.7-1,1.4
					c-0.1,0.1-0.1,0.2-0.2,0.4c-0.7,2.3-1.3,4.5-2,6.8c-0.2,0.5,0.1,1.3,0.6,1.6c19.7,9.8,43.4,20.4,64.4,7.8c1-0.6,0.9-2.2-0.3-2.6
					C130.7,221.8,110.2,214.9,89.3,212.4z"/>
				<path fill="none" stroke="#009347" stroke-width="5" stroke-miterlimit="10" d="M72.4,209.4c0.1,0.8,1,1,1.5,0.6
					c0.1,0.1,0.3,0.1,0.4,0.1c2.4,0.2,4.7,0.3,7.1,0.4c0.6,0,1.2-0.4,1.4-1c5-21.5,9.9-46.9-7.1-64.5c-0.9-0.9-2.4-0.4-2.5,0.9
					C72,166.9,70,188.5,72.4,209.4z"/>
				<path fill="none" stroke="#009347" stroke-width="5" stroke-miterlimit="10" d="M75.9,222.3c0.8-0.4,0.6-1.2,0.1-1.7
					c0-0.1,0-0.3,0-0.4c-0.6-2.3-1.3-4.6-1.9-6.8c-0.1-0.5-0.7-1.1-1.4-1c-21.9,2.1-47.6,5.6-58.9,27.3c-0.6,1.1,0.4,2.4,1.6,2
					C35.7,236.2,56.8,231.3,75.9,222.3z"/>
			</g>
			<g>
				<g>
					<g>
						<g>
							<g>
								<g>
									<path fill="#FFFFFF" stroke="#6AA242" stroke-width="5.161" stroke-miterlimit="10" d="M1496.3,483.2
										c0,49.9-40.5,90.4-90.4,90.4c-49.9,0-90.4-40.5-90.4-90.4c0-49.9,40.5-90.4,90.4-90.4
										C1455.9,392.9,1496.3,433.3,1496.3,483.2z"/>
								</g>
							</g>
						</g>
					</g>
				</g>
			</g>
			<g>
				<g>
					<path fill="#FFFFFF" stroke="#2F7CBA" stroke-width="5.161" stroke-miterlimit="10" d="M639.2,370.9
						c0-101.9,82.6-184.5,184.5-184.5c101.9,0,184.5,82.6,184.5,184.5c0,101.9-82.6,184.5-184.5,184.5
						C721.8,555.4,639.2,472.8,639.2,370.9z"/>
					<path fill="none" stroke="#009347" stroke-width="5.161" stroke-miterlimit="10" d="M624.4,370.9c0-110,89.2-199.2,199.2-199.2
						c110,0,199.2,89.2,199.2,199.2c0,110-89.2,199.2-199.2,199.2C713.6,570.1,624.4,480.9,624.4,370.9z"/>
					<path fill="none" stroke="#8CC640" stroke-width="5.161" stroke-miterlimit="10" d="M610.5,370.9
						c0-117.7,95.4-213.2,213.2-213.2c117.7,0,213.2,95.4,213.2,213.2c0,117.7-95.4,213.2-213.2,213.2
						C705.9,584.1,610.5,488.6,610.5,370.9z"/>
				</g>
			</g>
			<g>
				<g>
					<g>
						<g>
							<g>
								<g>
									<path fill="#FFFFFF" stroke="#51A332" stroke-width="5.161" stroke-miterlimit="10" d="M409.1,104.5
										c0,49.9-40.5,90.4-90.4,90.4c-49.9,0-90.4-40.5-90.4-90.4c0-49.9,40.5-90.4,90.4-90.4C368.7,14.1,409.1,54.6,409.1,104.5z"
										/>
								</g>
							</g>
						</g>
					</g>
				</g>
			</g>
			<g>
				<path fill="#87868A" d="M437,73.4h0.1l4.7-31.8h9.8v44.8H445V54.3h-0.1l-4.7,32.1h-6.7l-5.1-31.7h-0.1v31.7h-6.1V41.6h9.8
					L437,73.4z"/>
				<path fill="#87868A" d="M463.8,60.5h9.7v6.4h-9.7V80H476v6.4h-19.2V41.6H476V48h-12.2V60.5z"/>
				<path fill="#87868A" d="M495.2,73.4h0.1l4.7-31.8h9.8v44.8h-6.7V54.3h-0.1l-4.7,32.1h-6.7l-5.1-31.7h-0.1v31.7h-6.1V41.6h9.8
					L495.2,73.4z"/>
				<path fill="#87868A" d="M536,51.9v1.6c0,4.6-1.4,7.5-4.5,9v0.1c3.8,1.5,5.2,4.8,5.2,9.5v3.6c0,6.9-3.6,10.6-10.7,10.6H515V41.6
					h10.6C532.9,41.6,536,45,536,51.9z M522,48v11.8h2.8c2.6,0,4.2-1.2,4.2-4.7v-2.5c0-3.2-1.1-4.6-3.6-4.6H522z M522,66.3V80h4
					c2.4,0,3.6-1.1,3.6-4.4v-3.9c0-4.2-1.3-5.4-4.5-5.4H522z"/>
				<path fill="#87868A" d="M548,60.5h9.7v6.4H548V80h12.2v6.4H541V41.6h19.2V48H548V60.5z"/>
				<path fill="#87868A" d="M579.2,86.4c-0.4-1.2-0.6-1.9-0.6-5.5v-7c0-4.2-1.4-5.7-4.6-5.7h-2.4v18.2h-7V41.6h10.6
					c7.3,0,10.4,3.4,10.4,10.3v3.5c0,4.6-1.5,7.6-4.6,9v0.1c3.5,1.5,4.7,4.8,4.7,9.5V81c0,2.2,0.1,3.8,0.8,5.4H579.2z M571.6,48
					v13.8h2.8c2.6,0,4.2-1.2,4.2-4.7v-4.4c0-3.2-1.1-4.6-3.6-4.6H571.6z"/>
				<path fill="#87868A" d="M599.7,41.1c6.8,0,10.4,4.1,10.4,11.3v1.4h-6.7v-1.9c0-3.2-1.3-4.4-3.5-4.4s-3.5,1.2-3.5,4.4
					c0,3.3,1.4,5.7,6,9.7c5.9,5.2,7.7,8.9,7.7,14c0,7.2-3.6,11.3-10.5,11.3c-6.9,0-10.5-4.1-10.5-11.3v-2.8h6.7v3.2
					c0,3.2,1.4,4.4,3.6,4.4c2.2,0,3.6-1.2,3.6-4.4c0-3.3-1.4-5.7-6-9.7c-5.9-5.2-7.7-8.9-7.7-14C589.4,45.2,592.9,41.1,599.7,41.1z"
					/>
				<path fill="#87868A" d="M624.1,41.6h7v44.8h-7V41.6z"/>
				<path fill="#87868A" d="M642.7,54h-0.1v32.4h-6.3V41.6h8.8l7.1,26.8h0.1V41.6h6.3v44.8h-7.2L642.7,54z"/>
				<path fill="#87868A" d="M420.7,109.5h5.7v3.8h-5.7v7.8h7.2v3.8h-11.4V98.3h11.4v3.8h-7.2V109.5z"/>
				<path fill="#87868A" d="M434.5,98.3v20.5c0,1.9,0.8,2.6,2.2,2.6s2.2-0.7,2.2-2.6V98.3h4v20.3c0,4.3-2.1,6.7-6.2,6.7
					c-4.1,0-6.2-2.4-6.2-6.7V98.3H434.5z"/>
				<path fill="#87868A" d="M454.4,124.9c-0.2-0.7-0.4-1.1-0.4-3.3v-4.2c0-2.5-0.8-3.4-2.7-3.4h-1.4v10.8h-4.2V98.3h6.3
					c4.3,0,6.2,2,6.2,6.1v2.1c0,2.7-0.9,4.5-2.7,5.4v0.1c2.1,0.9,2.8,2.8,2.8,5.6v4.1c0,1.3,0,2.2,0.5,3.2H454.4z M449.8,102.1v8.2
					h1.6c1.6,0,2.5-0.7,2.5-2.8v-2.6c0-1.9-0.6-2.7-2.1-2.7H449.8z"/>
				<path fill="#87868A" d="M460.6,104.7c0-4.3,2.2-6.7,6.3-6.7s6.3,2.4,6.3,6.7v13.8c0,4.3-2.2,6.7-6.3,6.7s-6.3-2.4-6.3-6.7V104.7
					z M464.8,118.8c0,1.9,0.8,2.6,2.2,2.6c1.3,0,2.2-0.7,2.2-2.6v-14.4c0-1.9-0.8-2.6-2.2-2.6c-1.3,0-2.2,0.7-2.2,2.6V118.8z"/>
				<path fill="#87868A" d="M488.4,104.9v3.5c0,4.3-2.1,6.6-6.2,6.6h-2v10H476V98.3h6.2C486.3,98.3,488.4,100.6,488.4,104.9z
					 M480.2,102.1v9h2c1.3,0,2.1-0.6,2.1-2.5v-4c0-1.9-0.7-2.5-2.1-2.5H480.2z"/>
				<path fill="#87868A" d="M494.5,109.5h5.7v3.8h-5.7v7.8h7.2v3.8h-11.4V98.3h11.4v3.8h-7.2V109.5z"/>
				<path fill="#87868A" d="M517.8,124.9h-4.2l-0.7-4.8h-5.1l-0.7,4.8h-3.8l4.3-26.6h6.1L517.8,124.9z M508.3,116.5h4l-2-13.5h-0.1
					L508.3,116.5z"/>
				<path fill="#87868A" d="M523.6,105.6L523.6,105.6l-0.1,19.3h-3.8V98.3h5.2l4.2,15.9h0.1V98.3h3.7v26.6h-4.3L523.6,105.6z"/>
				<path fill="#87868A" d="M554,115v3.5c0,4.3-2.1,6.7-6.2,6.7c-4.1,0-6.2-2.4-6.2-6.7v-13.8c0-4.3,2.1-6.7,6.2-6.7
					c4.1,0,6.2,2.4,6.2,6.7v2.6h-4v-2.8c0-1.9-0.8-2.6-2.2-2.6c-1.3,0-2.2,0.7-2.2,2.6v14.4c0,1.9,0.8,2.6,2.2,2.6
					c1.3,0,2.2-0.7,2.2-2.6V115H554z"/>
				<path fill="#87868A" d="M556.2,104.7c0-4.3,2.2-6.7,6.3-6.7s6.3,2.4,6.3,6.7v13.8c0,4.3-2.2,6.7-6.3,6.7s-6.3-2.4-6.3-6.7V104.7
					z M560.4,118.8c0,1.9,0.8,2.6,2.2,2.6c1.3,0,2.2-0.7,2.2-2.6v-14.4c0-1.9-0.8-2.6-2.2-2.6c-1.3,0-2.2,0.7-2.2,2.6V118.8z"/>
				<path fill="#87868A" d="M575.6,98.3v20.5c0,1.9,0.8,2.6,2.2,2.6s2.2-0.7,2.2-2.6V98.3h4v20.3c0,4.3-2.1,6.7-6.2,6.7
					c-4.1,0-6.2-2.4-6.2-6.7V98.3H575.6z"/>
				<path fill="#87868A" d="M590.5,105.6L590.5,105.6l-0.1,19.3h-3.8V98.3h5.2l4.2,15.9h0.1V98.3h3.7v26.6h-4.3L590.5,105.6z"/>
				<path fill="#87868A" d="M601.7,98.3h12.9v3.8h-4.4v22.8h-4.2v-22.8h-4.4V98.3z"/>
				<path fill="#87868A" d="M625.2,124.9c-0.2-0.7-0.4-1.1-0.4-3.3v-4.2c0-2.5-0.8-3.4-2.7-3.4h-1.4v10.8h-4.2V98.3h6.3
					c4.3,0,6.2,2,6.2,6.1v2.1c0,2.7-0.9,4.5-2.7,5.4v0.1c2.1,0.9,2.8,2.8,2.8,5.6v4.1c0,1.3,0,2.2,0.5,3.2H625.2z M620.6,102.1v8.2
					h1.6c1.6,0,2.5-0.7,2.5-2.8v-2.6c0-1.9-0.6-2.7-2.1-2.7H620.6z"/>
				<path fill="#87868A" d="M631.7,98.3h4.2v26.6h-4.2V98.3z"/>
				<path fill="#87868A" d="M643.1,109.5h5.7v3.8h-5.7v7.8h7.2v3.8H639V98.3h11.4v3.8h-7.2V109.5z"/>
				<path fill="#87868A" d="M658.6,98c4.1,0,6.2,2.4,6.2,6.7v0.8h-4v-1.1c0-1.9-0.8-2.6-2.1-2.6c-1.3,0-2.1,0.7-2.1,2.6
					c0,1.9,0.8,3.4,3.6,5.8c3.5,3.1,4.6,5.3,4.6,8.3c0,4.3-2.1,6.7-6.2,6.7s-6.2-2.4-6.2-6.7v-1.6h4v1.9c0,1.9,0.8,2.6,2.2,2.6
					s2.2-0.7,2.2-2.6c0-1.9-0.8-3.4-3.6-5.8c-3.5-3.1-4.6-5.3-4.6-8.3C652.4,100.4,654.5,98,658.6,98z"/>
			</g>
			<g>
				<path fill="#87868A" d="M471.2,658.5h-7.8l-1.3-8.9h-9.4l-1.3,8.9h-7.1l7.8-49h11.3L471.2,658.5z M453.6,643h7.4l-3.6-24.8h-0.1
					L453.6,643z"/>
				<path fill="#87868A" d="M481.8,623.1h-0.1v35.5h-6.9v-49h9.7l7.8,29.3h0.1v-29.3h6.9v49h-7.9L481.8,623.1z"/>
				<path fill="#87868A" d="M512,609.5v37.8c0,3.5,1.5,4.8,4,4.8s4-1.3,4-4.8v-37.8h7.3v37.3c0,7.8-3.9,12.3-11.5,12.3
					s-11.5-4.5-11.5-12.3v-37.3H512z"/>
				<path fill="#87868A" d="M557.4,658.5h-7.8l-1.3-8.9h-9.4l-1.3,8.9h-7.1l7.8-49h11.3L557.4,658.5z M539.9,643h7.4l-3.6-24.8h-0.1
					L539.9,643z"/>
				<path fill="#87868A" d="M561,609.5h7.7v42h12.7v7H561V609.5z"/>
				<path fill="#87868A" d="M437.5,666.4h16.3v4.8h-5.5V700H443v-28.8h-5.5V666.4z"/>
				<path fill="#87868A" d="M461.2,666.4v25.9c0,2.4,1.1,3.3,2.7,3.3s2.7-0.9,2.7-3.3v-25.9h5V692c0,5.4-2.7,8.4-7.9,8.4
					c-5.2,0-7.9-3.1-7.9-8.4v-25.6H461.2z"/>
				<path fill="#87868A" d="M486.3,700c-0.3-0.9-0.5-1.4-0.5-4.1v-5.3c0-3.1-1.1-4.3-3.5-4.3h-1.8V700h-5.3v-33.6h8
					c5.5,0,7.8,2.5,7.8,7.7v2.6c0,3.5-1.1,5.7-3.5,6.8v0.1c2.6,1.1,3.5,3.6,3.5,7.1v5.2c0,1.6,0,2.8,0.6,4.1H486.3z M480.5,671.2
					v10.3h2.1c2,0,3.2-0.9,3.2-3.6v-3.3c0-2.4-0.8-3.5-2.7-3.5H480.5z"/>
				<path fill="#87868A" d="M499.3,675.7L499.3,675.7l-0.1,24.3h-4.8v-33.6h6.6l5.3,20.1h0.1v-20.1h4.7V700h-5.4L499.3,675.7z"/>
				<path fill="#87868A" d="M514.6,674.5c0-5.4,2.8-8.4,8-8.4s8,3.1,8,8.4V692c0,5.4-2.8,8.4-8,8.4s-8-3.1-8-8.4V674.5z
					 M519.9,692.3c0,2.4,1.1,3.3,2.7,3.3s2.7-0.9,2.7-3.3v-18.1c0-2.4-1.1-3.3-2.7-3.3s-2.7,0.9-2.7,3.3V692.3z"/>
				<path fill="#87868A" d="M541.9,693.8L541.9,693.8l4.1-27.4h4.8l-5.2,33.6h-7.9l-5.2-33.6h5.3L541.9,693.8z"/>
				<path fill="#87868A" d="M558.6,680.6h7.2v4.8h-7.2v9.8h9.1v4.8h-14.4v-33.6h14.4v4.8h-9.1V680.6z"/>
				<path fill="#87868A" d="M582,700c-0.3-0.9-0.5-1.4-0.5-4.1v-5.3c0-3.1-1.1-4.3-3.5-4.3h-1.8V700h-5.3v-33.6h8
					c5.5,0,7.8,2.5,7.8,7.7v2.6c0,3.5-1.1,5.7-3.5,6.8v0.1c2.6,1.1,3.5,3.6,3.5,7.1v5.2c0,1.6,0,2.8,0.6,4.1H582z M576.2,671.2v10.3
					h2.1c2,0,3.2-0.9,3.2-3.6v-3.3c0-2.4-0.8-3.5-2.7-3.5H576.2z"/>
			</g>
			<g>
				<g>
					<g>
						<g>
							<g>
								<g>
									<circle fill="#FFFFFF" stroke="#8CC640" stroke-width="5.1612" stroke-miterlimit="10" cx="1232" cy="128.8" r="90.4"/>
								</g>
							</g>
						</g>
					</g>
				</g>
			</g>
			<g>
				<g>
					<g>
						<g>
							<g>
								<g>
									<path fill="#FFFFFF" stroke="#6CBD56" stroke-width="5.161" stroke-miterlimit="10" d="M1678.3,317.2
										c0,49.9-40.5,90.4-90.4,90.4c-49.9,0-90.4-40.5-90.4-90.4c0-49.9,40.5-90.4,90.4-90.4
										C1637.9,226.9,1678.3,267.3,1678.3,317.2z"/>
								</g>
							</g>
						</g>
					</g>
				</g>
			</g>
			<g>
				<g>
					<g>
						<g>
							<g>
								<g>
									<circle fill="#FFFFFF" stroke="#005EB8" stroke-width="5.161" stroke-miterlimit="10" cx="1360.6" cy="705.5" r="90.4"/>
								</g>
							</g>
						</g>
					</g>
				</g>
			</g>
			<g>
				<g>
					<path fill="#8CC640" d="M1250.3,104c0-7.8,4-12.1,11.4-12.1s11.4,4.3,11.4,12.1v24.8c0,7.8-4,12.1-11.4,12.1
						s-11.4-4.3-11.4-12.1V104z M1257.8,129.4c0,3.3,1.4,4.8,3.9,4.8c2.4,0,3.9-1.4,3.9-4.8v-25.9c0-3.3-1.5-4.8-3.9-4.8
						c-2.5,0-3.9,1.4-3.9,4.8V129.4z M1291.5,92.5h7l-29.8,75.6h-7L1291.5,92.5z M1287.7,131.7c0-7.8,4-12.1,11.4-12.1
						s11.4,4.3,11.4,12.1v24.8c0,7.8-4,12.1-11.4,12.1s-11.4-4.3-11.4-12.1V131.7z M1295.3,157.1c0,3.3,1.4,4.8,3.9,4.8
						c2.4,0,3.9-1.4,3.9-4.8v-25.9c0-3.3-1.5-4.8-3.9-4.8c-2.5,0-3.9,1.4-3.9,4.8V157.1z"/>
				</g>
			</g>
			<g>
				<g>
					<g>
						<g>
							<g>
								<g>
									<path fill="#FFFFFF" stroke="#009347" stroke-width="5.161" stroke-miterlimit="10" d="M211.1,353.7
										c0,49.9-40.5,90.4-90.4,90.4c-49.9,0-90.4-40.5-90.4-90.4c0-49.9,40.5-90.4,90.4-90.4C170.7,263.4,211.1,303.8,211.1,353.7
										z"/>
								</g>
							</g>
						</g>
					</g>
				</g>
			</g>
			<g>
				<path fill="#87868A" d="M958.5,133.2v2.9c0,3.6-1.7,5.5-5.2,5.5h-1.7v8.4H948v-22.4h5.2C956.7,127.7,958.5,129.6,958.5,133.2z
					 M951.5,130.9v7.6h1.7c1.1,0,1.7-0.5,1.7-2.1V133c0-1.6-0.6-2.1-1.7-2.1H951.5z"/>
				<path fill="#87868A" d="M971.1,150.1h-3.6l-0.6-4.1h-4.3l-0.6,4.1h-3.2l3.6-22.4h5.2L971.1,150.1z M963,143h3.4l-1.7-11.3h-0.1
					L963,143z"/>
				<path fill="#87868A" d="M983.1,133.2v2.9c0,3.6-1.7,5.5-5.2,5.5h-1.7v8.4h-3.5v-22.4h5.2C981.4,127.7,983.1,129.6,983.1,133.2z
					 M976.2,130.9v7.6h1.7c1.1,0,1.7-0.5,1.7-2.1V133c0-1.6-0.6-2.1-1.7-2.1H976.2z"/>
				<path fill="#87868A" d="M988.3,137.1h4.8v3.2h-4.8v6.6h6.1v3.2h-9.6v-22.4h9.6v3.2h-6.1V137.1z"/>
				<path fill="#87868A" d="M1003.9,150.1c-0.2-0.6-0.3-0.9-0.3-2.8v-3.5c0-2.1-0.7-2.8-2.3-2.8h-1.2v9.1h-3.5v-22.4h5.3
					c3.6,0,5.2,1.7,5.2,5.2v1.8c0,2.3-0.7,3.8-2.3,4.5v0.1c1.8,0.7,2.3,2.4,2.3,4.7v3.5c0,1.1,0,1.9,0.4,2.7H1003.9z M1000.1,130.9
					v6.9h1.4c1.3,0,2.1-0.6,2.1-2.4v-2.2c0-1.6-0.5-2.3-1.8-2.3H1000.1z"/>
				<path fill="#87868A" d="M1024.8,133.2v2.9c0,3.6-1.7,5.5-5.2,5.5h-1.7v8.4h-3.5v-22.4h5.2
					C1023.1,127.7,1024.8,129.6,1024.8,133.2z M1017.9,130.9v7.6h1.7c1.1,0,1.7-0.5,1.7-2.1V133c0-1.6-0.6-2.1-1.7-2.1H1017.9z"/>
				<path fill="#87868A" d="M1033.8,150.1c-0.2-0.6-0.3-0.9-0.3-2.8v-3.5c0-2.1-0.7-2.8-2.3-2.8h-1.2v9.1h-3.5v-22.4h5.3
					c3.6,0,5.2,1.7,5.2,5.2v1.8c0,2.3-0.7,3.8-2.3,4.5v0.1c1.8,0.7,2.3,2.4,2.3,4.7v3.5c0,1.1,0,1.9,0.4,2.7H1033.8z M1029.9,130.9
					v6.9h1.4c1.3,0,2.1-0.6,2.1-2.4v-2.2c0-1.6-0.5-2.3-1.8-2.3H1029.9z"/>
				<path fill="#87868A" d="M1039,133c0-3.6,1.9-5.6,5.3-5.6c3.5,0,5.3,2,5.3,5.6v11.6c0,3.6-1.9,5.6-5.3,5.6c-3.5,0-5.3-2-5.3-5.6
					V133z M1042.5,144.9c0,1.6,0.7,2.2,1.8,2.2c1.1,0,1.8-0.6,1.8-2.2v-12.1c0-1.6-0.7-2.2-1.8-2.2c-1.1,0-1.8,0.6-1.8,2.2V144.9z"
					/>
				<path fill="#87868A" d="M1052,127.7h5.6c3.5,0,5.2,2,5.2,5.5v11.3c0,3.6-1.7,5.5-5.2,5.5h-5.6V127.7z M1055.5,130.9v16h2
					c1.1,0,1.8-0.6,1.8-2.2V133c0-1.6-0.7-2.2-1.8-2.2H1055.5z"/>
				<path fill="#87868A" d="M1068.4,127.7v17.3c0,1.6,0.7,2.2,1.8,2.2c1.1,0,1.8-0.6,1.8-2.2v-17.3h3.3v17.1c0,3.6-1.8,5.6-5.2,5.6
					c-3.5,0-5.2-2-5.2-5.6v-17.1H1068.4z"/>
				<path fill="#87868A" d="M1088,141.7v3c0,3.6-1.8,5.6-5.2,5.6s-5.2-2-5.2-5.6V133c0-3.6,1.8-5.6,5.2-5.6s5.2,2,5.2,5.6v2.2h-3.3
					v-2.4c0-1.6-0.7-2.2-1.8-2.2s-1.8,0.6-1.8,2.2v12.1c0,1.6,0.7,2.2,1.8,2.2s1.8-0.6,1.8-2.2v-3.2H1088z"/>
				<path fill="#87868A" d="M1089.1,127.7h10.9v3.2h-3.7v19.2h-3.5v-19.2h-3.7V127.7z"/>
				<path fill="#87868A" d="M1101.5,127.7h3.5v22.4h-3.5V127.7z"/>
				<path fill="#87868A" d="M1107.3,133c0-3.6,1.9-5.6,5.3-5.6c3.5,0,5.3,2,5.3,5.6v11.6c0,3.6-1.9,5.6-5.3,5.6
					c-3.5,0-5.3-2-5.3-5.6V133z M1110.8,144.9c0,1.6,0.7,2.2,1.8,2.2c1.1,0,1.8-0.6,1.8-2.2v-12.1c0-1.6-0.7-2.2-1.8-2.2
					c-1.1,0-1.8,0.6-1.8,2.2V144.9z"/>
				<path fill="#87868A" d="M1123.4,133.8L1123.4,133.8l-0.1,16.2h-3.2v-22.4h4.4l3.6,13.4h0.1v-13.4h3.1v22.4h-3.6L1123.4,133.8z"
					/>
			</g>
			<g>
				<g>
					<path fill="#87868A" d="M394.7,320v3.2c0,3.8-1.9,6-5.6,6s-5.6-2.2-5.6-6v-12.4c0-3.8,1.9-6,5.6-6s5.6,2.2,5.6,6v2.3h-3.5v-2.5
						c0-1.7-0.7-2.3-1.9-2.3c-1.2,0-1.9,0.6-1.9,2.3v12.9c0,1.7,0.7,2.3,1.9,2.3c1.2,0,1.9-0.6,1.9-2.3V320H394.7z"/>
					<path fill="#87868A" d="M396.7,310.7c0-3.8,2-6,5.7-6c3.7,0,5.7,2.2,5.7,6v12.4c0,3.8-2,6-5.7,6c-3.7,0-5.7-2.2-5.7-6V310.7z
						 M400.4,323.4c0,1.7,0.7,2.3,1.9,2.3s1.9-0.6,1.9-2.3v-12.9c0-1.7-0.7-2.3-1.9-2.3s-1.9,0.6-1.9,2.3V323.4z"/>
					<path fill="#87868A" d="M418.3,321.9L418.3,321.9l2.6-16.9h5.2v23.8h-3.5v-17.1h-0.1l-2.5,17.1h-3.5l-2.7-16.8h-0.1v16.8h-3.3
						V305h5.2L418.3,321.9z"/>
					<path fill="#87868A" d="M439.9,310.9v3.1c0,3.8-1.8,5.9-5.6,5.9h-1.8v8.9h-3.7V305h5.5C438.1,305,439.9,307.1,439.9,310.9z
						 M432.6,308.4v8.1h1.8c1.2,0,1.8-0.5,1.8-2.2v-3.6c0-1.7-0.6-2.2-1.8-2.2H432.6z"/>
					<path fill="#87868A" d="M453.3,328.8h-3.8l-0.6-4.3h-4.6l-0.6,4.3h-3.4L444,305h5.5L453.3,328.8z M444.8,321.3h3.6l-1.8-12
						h-0.1L444.8,321.3z"/>
					<path fill="#87868A" d="M458.4,311.6L458.4,311.6l-0.1,17.2H455V305h4.7l3.8,14.2h0.1V305h3.3v23.8H463L458.4,311.6z"/>
					<path fill="#87868A" d="M469.6,305h3.7v23.8h-3.7V305z"/>
					<path fill="#87868A" d="M479.8,315.1h5.1v3.4h-5.1v7h6.5v3.4H476V305h10.2v3.4h-6.5V315.1z"/>
					<path fill="#87868A" d="M493.6,304.8c3.6,0,5.5,2.2,5.5,6v0.7h-3.5v-1c0-1.7-0.7-2.3-1.9-2.3s-1.9,0.6-1.9,2.3
						c0,1.7,0.7,3,3.2,5.2c3.1,2.8,4.1,4.7,4.1,7.4c0,3.8-1.9,6-5.6,6c-3.7,0-5.6-2.2-5.6-6v-1.5h3.5v1.7c0,1.7,0.7,2.3,1.9,2.3
						c1.2,0,1.9-0.6,1.9-2.3c0-1.7-0.7-3-3.2-5.2c-3.1-2.8-4.1-4.7-4.1-7.4C488.1,306.9,489.9,304.8,493.6,304.8z"/>
				</g>
			</g>
			<g>
				<g>
					<path fill="#87868A" d="M280.9,321.9L280.9,321.9l2.6-16.9h5.2v23.8h-3.5v-17.1h-0.1l-2.5,17.1H279l-2.7-16.8h-0.1v16.8H273
						v-23.8h5.2L280.9,321.9z"/>
					<path fill="#87868A" d="M291.4,305.1h3.7v23.8h-3.7V305.1z"/>
					<path fill="#87868A" d="M297.8,305.1h3.7v20.4h6.1v3.4h-9.9V305.1z"/>
					<path fill="#87868A" d="M309.3,305.1h3.7v20.4h6.1v3.4h-9.9V305.1z"/>
					<path fill="#87868A" d="M325.9,304.8c3.6,0,5.5,2.2,5.5,6v0.7h-3.5v-1c0-1.7-0.7-2.3-1.9-2.3s-1.9,0.6-1.9,2.3
						c0,1.7,0.7,3,3.2,5.2c3.1,2.8,4.1,4.7,4.1,7.4c0,3.8-1.9,6-5.6,6s-5.6-2.2-5.6-6v-1.5h3.5v1.7c0,1.7,0.7,2.3,1.9,2.3
						c1.2,0,1.9-0.6,1.9-2.3c0-1.7-0.7-3-3.2-5.2c-3.1-2.8-4.1-4.7-4.1-7.4C320.4,307,322.3,304.8,325.9,304.8z"/>
				</g>
			</g>
			<g>
				<g>
					<g>
						<g>
							<g>
								<g>
									<path fill="#FFFFFF" stroke="#2F7CBA" stroke-width="5.161" stroke-miterlimit="10" d="M424.2,698.1
										c0,49.9-40.5,90.4-90.4,90.4c-49.9,0-90.4-40.5-90.4-90.4c0-49.9,40.5-90.4,90.4-90.4C383.7,607.7,424.2,648.2,424.2,698.1
										z"/>
								</g>
							</g>
						</g>
					</g>
				</g>
			</g>
			<g>
				<g>
					<path fill="#87868A" d="M1174.7,256.9v4.2c0,5.2-2.5,8-7.5,8h-2.4v12.1h-5.1v-32.2h7.5C1172.2,248.9,1174.7,251.7,1174.7,256.9
						z M1164.7,253.5v10.9h2.4c1.6,0,2.5-0.7,2.5-3v-4.8c0-2.3-0.9-3-2.5-3H1164.7z"/>
					<path fill="#87868A" d="M1182.1,262.5h6.9v4.6h-6.9v9.4h8.7v4.6H1177v-32.2h13.8v4.6h-8.7V262.5z"/>
					<path fill="#87868A" d="M1204.5,281.1c-0.3-0.8-0.5-1.3-0.5-4v-5.1c0-3-1-4.1-3.3-4.1h-1.7v13.1h-5.1v-32.2h7.6
						c5.2,0,7.5,2.4,7.5,7.4v2.5c0,3.3-1.1,5.4-3.3,6.5v0.1c2.5,1.1,3.4,3.5,3.4,6.8v5c0,1.6,0,2.7,0.6,3.9H1204.5z M1199,253.5v9.9
						h2c1.9,0,3-0.8,3-3.4v-3.2c0-2.3-0.8-3.3-2.6-3.3H1199z"/>
					<path fill="#87868A" d="M1224.3,270.4l-6.4-21.5h5.3l3.8,14.7h0.1l3.8-14.7h4.8l-6.4,21.5v10.7h-5.1V270.4z"/>
					<path fill="#87868A" d="M1242.8,262.5h6.9v4.6h-6.9v9.4h8.7v4.6h-13.8v-32.2h13.8v4.6h-8.7V262.5z"/>
					<path fill="#87868A" d="M1271.1,281.1h-5.1l-0.9-5.8h-6.2l-0.9,5.8h-4.6l5.2-32.2h7.4L1271.1,281.1z M1259.5,270.9h4.9
						l-2.4-16.3h-0.1L1259.5,270.9z"/>
					<path fill="#87868A" d="M1284,281.1c-0.3-0.8-0.5-1.3-0.5-4v-5.1c0-3-1-4.1-3.3-4.1h-1.7v13.1h-5.1v-32.2h7.6
						c5.2,0,7.5,2.4,7.5,7.4v2.5c0,3.3-1.1,5.4-3.3,6.5v0.1c2.5,1.1,3.4,3.5,3.4,6.8v5c0,1.6,0,2.7,0.6,3.9H1284z M1278.5,253.5v9.9
						h2c1.9,0,3-0.8,3-3.4v-3.2c0-2.3-0.8-3.3-2.6-3.3H1278.5z"/>
					<path fill="#87868A" d="M1315.4,281.1h-5.1l-0.9-5.8h-6.2l-0.9,5.8h-4.6l5.2-32.2h7.4L1315.4,281.1z M1303.9,270.9h4.9
						l-2.4-16.3h-0.1L1303.9,270.9z"/>
					<path fill="#87868A" d="M1317.8,248.9h8c5.1,0,7.5,2.8,7.5,8v16.3c0,5.2-2.5,8-7.5,8h-8V248.9z M1322.8,253.5v23h2.9
						c1.6,0,2.6-0.8,2.6-3.1v-16.7c0-2.3-1-3.1-2.6-3.1H1322.8z"/>
					<path fill="#87868A" d="M1336.5,248.9h8c5.1,0,7.5,2.8,7.5,8v16.3c0,5.2-2.5,8-7.5,8h-8V248.9z M1341.6,253.5v23h2.9
						c1.6,0,2.6-0.8,2.6-3.1v-16.7c0-2.3-1-3.1-2.6-3.1H1341.6z"/>
					<path fill="#87868A" d="M1360.4,262.5h6.9v4.6h-6.9v9.4h8.7v4.6h-13.8v-32.2h13.8v4.6h-8.7V262.5z"/>
					<path fill="#87868A" d="M1372.2,248.9h8c5.1,0,7.5,2.8,7.5,8v16.3c0,5.2-2.5,8-7.5,8h-8V248.9z M1377.3,253.5v23h2.9
						c1.6,0,2.6-0.8,2.6-3.1v-16.7c0-2.3-1-3.1-2.6-3.1H1377.3z"/>
					<path fill="#87868A" d="M1396.7,248.9h15.6v4.6h-5.3v27.6h-5.1v-27.6h-5.3V248.9z"/>
					<path fill="#87868A" d="M1414.1,256.6c0-5.2,2.7-8.1,7.7-8.1c5,0,7.7,2.9,7.7,8.1v16.7c0,5.2-2.7,8.1-7.7,8.1
						c-5,0-7.7-2.9-7.7-8.1V256.6z M1419.1,273.7c0,2.3,1,3.2,2.6,3.2s2.6-0.9,2.6-3.2v-17.4c0-2.3-1-3.2-2.6-3.2s-2.6,0.9-2.6,3.2
						V273.7z"/>
					<path fill="#87868A" d="M1438.4,248.9h15.6v4.6h-5.3v27.6h-5.1v-27.6h-5.3V248.9z"/>
					<path fill="#87868A" d="M1461.3,281.1h-5.1v-32.2h5.1v13.8h5.8v-13.8h5.2v32.2h-5.2v-13.8h-5.8V281.1z"/>
					<path fill="#87868A" d="M1480.9,262.5h6.9v4.6h-6.9v9.4h8.7v4.6h-13.8v-32.2h13.8v4.6h-8.7V262.5z"/>
					<path fill="#87868A" d="M1164.9,303.4h8.2v5.4h-8.2v11.1h10.3v5.4h-16.2v-37.8h16.2v5.4h-10.3V303.4z"/>
					<path fill="#87868A" d="M1184.5,287.5v29.2c0,2.7,1.2,3.7,3.1,3.7c1.9,0,3.1-1,3.1-3.7v-29.2h5.6v28.8c0,6-3,9.5-8.9,9.5
						s-8.9-3.5-8.9-9.5v-28.8H1184.5z"/>
					<path fill="#87868A" d="M1212.7,325.3c-0.3-1-0.5-1.6-0.5-4.6v-5.9c0-3.5-1.2-4.8-3.9-4.8h-2.1v15.4h-5.9v-37.8h9
						c6.2,0,8.8,2.9,8.8,8.7v3c0,3.9-1.2,6.4-3.9,7.6v0.1c3,1.2,3.9,4,3.9,8v5.8c0,1.8,0.1,3.2,0.6,4.6H1212.7z M1206.2,292.9v11.6
						h2.3c2.2,0,3.6-1,3.6-4v-3.7c0-2.7-0.9-3.9-3-3.9H1206.2z"/>
					<path fill="#87868A" d="M1221.5,296.5c0-6,3.2-9.5,9-9.5s9,3.5,9,9.5v19.7c0,6-3.2,9.5-9,9.5s-9-3.5-9-9.5V296.5z
						 M1227.5,316.6c0,2.7,1.2,3.7,3.1,3.7c1.9,0,3.1-1,3.1-3.7v-20.4c0-2.7-1.2-3.7-3.1-3.7c-1.9,0-3.1,1-3.1,3.7V316.6z"/>
					<path fill="#87868A" d="M1261,296.8v4.9c0,6-2.9,9.3-8.9,9.3h-2.8v14.2h-5.9v-37.8h8.7C1258.1,287.5,1261,290.8,1261,296.8z
						 M1249.3,292.9v12.8h2.8c1.9,0,2.9-0.9,2.9-3.6v-5.7c0-2.7-1-3.6-2.9-3.6H1249.3z"/>
					<path fill="#87868A" d="M1269.7,303.4h8.2v5.4h-8.2v11.1h10.3v5.4h-16.2v-37.8h16.2v5.4h-10.3V303.4z"/>
					<path fill="#87868A" d="M1302.8,325.3h-6l-1-6.9h-7.3l-1,6.9h-5.5l6-37.8h8.7L1302.8,325.3z M1289.3,313.3h5.7l-2.8-19.1h-0.1
						L1289.3,313.3z"/>
					<path fill="#87868A" d="M1311,297.9h-0.1v27.4h-5.3v-37.8h7.5l6,22.6h0.1v-22.6h5.3v37.8h-6.1L1311,297.9z"/>
					<path fill="#87868A" d="M1343,303.4h8.2v5.4h-8.2v11.1h10.3v5.4H1337v-37.8h16.2v5.4H1343V303.4z"/>
					<path fill="#87868A" d="M1374.1,311.2v5c0,6-3,9.5-8.9,9.5s-8.9-3.5-8.9-9.5v-19.7c0-6,3-9.5,8.9-9.5s8.9,3.5,8.9,9.5v3.7h-5.6
						v-4c0-2.7-1.2-3.7-3.1-3.7c-1.9,0-3.1,1-3.1,3.7v20.4c0,2.7,1.2,3.7,3.1,3.7c1.9,0,3.1-1,3.1-3.7v-5.4H1374.1z"/>
					<path fill="#87868A" d="M1377.2,296.5c0-6,3.2-9.5,9-9.5c5.8,0,9,3.5,9,9.5v19.7c0,6-3.2,9.5-9,9.5c-5.8,0-9-3.5-9-9.5V296.5z
						 M1383.2,316.6c0,2.7,1.2,3.7,3.1,3.7s3.1-1,3.1-3.7v-20.4c0-2.7-1.2-3.7-3.1-3.7s-3.1,1-3.1,3.7V316.6z"/>
					<path fill="#87868A" d="M1404.5,297.9h-0.1v27.4h-5.3v-37.8h7.5l6,22.6h0.1v-22.6h5.3v37.8h-6.1L1404.5,297.9z"/>
					<path fill="#87868A" d="M1421.7,296.5c0-6,3.2-9.5,9-9.5c5.8,0,9,3.5,9,9.5v19.7c0,6-3.2,9.5-9,9.5c-5.8,0-9-3.5-9-9.5V296.5z
						 M1427.6,316.6c0,2.7,1.2,3.7,3.1,3.7s3.1-1,3.1-3.7v-20.4c0-2.7-1.2-3.7-3.1-3.7s-3.1,1-3.1,3.7V316.6z"/>
					<path fill="#87868A" d="M1456.1,314.3h0.1l4-26.8h8.3v37.8h-5.6v-27.1h-0.1l-4,27.1h-5.6l-4.3-26.7h-0.1v26.7h-5.2v-37.8h8.3
						L1456.1,314.3z"/>
					<path fill="#87868A" d="M1478.3,312.7l-7.5-25.3h6.2l4.5,17.2h0.1l4.5-17.2h5.7l-7.5,25.3v12.5h-5.9V312.7z"/>
				</g>
			</g>
			<g>
				<g>
					<path fill="#87868A" d="M1062.2,456.5h-4.3l-0.7-5h-5.3l-0.7,5h-3.9l4.4-27.3h6.3L1062.2,456.5z M1052.4,447.9h4.1l-2-13.8
						h-0.1L1052.4,447.9z"/>
					<path fill="#87868A" d="M1073.2,456.5c-0.2-0.7-0.4-1.1-0.4-3.4v-4.3c0-2.5-0.9-3.5-2.8-3.5h-1.5v11.1h-4.3v-27.3h6.5
						c4.4,0,6.4,2.1,6.4,6.3v2.1c0,2.8-0.9,4.6-2.8,5.5v0.1c2.1,0.9,2.8,2.9,2.8,5.8v4.2c0,1.3,0,2.3,0.5,3.3H1073.2z M1068.5,433.1
						v8.4h1.7c1.6,0,2.6-0.7,2.6-2.9v-2.7c0-2-0.7-2.8-2.2-2.8H1068.5z"/>
					<path fill="#87868A" d="M1084.2,440.7h5.9v3.9h-5.9v8h7.4v3.9h-11.7v-27.3h11.7v3.9h-7.4V440.7z"/>
					<path fill="#87868A" d="M1106.1,428.9c4.2,0,6.3,2.5,6.3,6.9v0.9h-4.1v-1.1c0-2-0.8-2.7-2.1-2.7c-1.4,0-2.1,0.7-2.1,2.7
						c0,2,0.9,3.5,3.7,5.9c3.6,3.2,4.7,5.4,4.7,8.5c0,4.4-2.2,6.9-6.4,6.9s-6.4-2.5-6.4-6.9v-1.7h4.1v2c0,2,0.9,2.7,2.2,2.7
						s2.2-0.7,2.2-2.7c0-2-0.9-3.5-3.7-5.9c-3.6-3.2-4.7-5.4-4.7-8.5C1099.8,431.4,1101.9,428.9,1106.1,428.9z"/>
					<path fill="#87868A" d="M1114.5,435.8c0-4.4,2.3-6.9,6.5-6.9c4.2,0,6.5,2.5,6.5,6.9V450c0,4.4-2.3,6.9-6.5,6.9
						c-4.2,0-6.5-2.5-6.5-6.9V435.8z M1118.8,450.3c0,2,0.9,2.7,2.2,2.7s2.2-0.7,2.2-2.7v-14.7c0-2-0.9-2.7-2.2-2.7
						s-2.2,0.7-2.2,2.7V450.3z"/>
					<path fill="#87868A" d="M1134.4,429.2v21.1c0,2,0.9,2.7,2.2,2.7s2.2-0.7,2.2-2.7v-21.1h4.1V450c0,4.4-2.2,6.9-6.4,6.9
						c-4.2,0-6.4-2.5-6.4-6.9v-20.8H1134.4z"/>
					<path fill="#87868A" d="M1154.8,456.5c-0.2-0.7-0.4-1.1-0.4-3.4v-4.3c0-2.5-0.9-3.5-2.8-3.5h-1.5v11.1h-4.3v-27.3h6.5
						c4.4,0,6.4,2.1,6.4,6.3v2.1c0,2.8-0.9,4.6-2.8,5.5v0.1c2.1,0.9,2.8,2.9,2.8,5.8v4.2c0,1.3,0,2.3,0.5,3.3H1154.8z M1150.1,433.1
						v8.4h1.7c1.6,0,2.6-0.7,2.6-2.9v-2.7c0-2-0.7-2.8-2.2-2.8H1150.1z"/>
					<path fill="#87868A" d="M1174,446.4v3.6c0,4.4-2.2,6.9-6.4,6.9c-4.2,0-6.4-2.5-6.4-6.9v-14.2c0-4.4,2.2-6.9,6.4-6.9
						c4.2,0,6.4,2.5,6.4,6.9v2.7h-4.1v-2.9c0-2-0.9-2.7-2.2-2.7c-1.4,0-2.2,0.7-2.2,2.7v14.7c0,2,0.9,2.7,2.2,2.7
						c1.4,0,2.2-0.7,2.2-2.7v-3.9H1174z"/>
					<path fill="#87868A" d="M1180.9,440.7h5.9v3.9h-5.9v8h7.4v3.9h-11.7v-27.3h11.7v3.9h-7.4V440.7z"/>
					<path fill="#87868A" d="M1190.9,429.2h6.8c4.3,0,6.4,2.4,6.4,6.7v13.8c0,4.4-2.1,6.7-6.4,6.7h-6.8V429.2z M1195.2,433.1v19.5
						h2.4c1.4,0,2.2-0.7,2.2-2.7v-14.2c0-2-0.8-2.7-2.2-2.7H1195.2z"/>
					<path fill="#87868A" d="M1212.9,429.2h4.3v27.3h-4.3V429.2z"/>
					<path fill="#87868A" d="M1224.2,436.8L1224.2,436.8l-0.1,19.8h-3.9v-27.3h5.4l4.3,16.3h0.1v-16.3h3.8v27.3h-4.4L1224.2,436.8z"
						/>
					<path fill="#87868A" d="M1068.8,485.4h10.9v7.2h-10.9v14.8h13.7v7.2h-21.6v-50.4h21.6v7.2h-13.7V485.4z"/>
					<path fill="#87868A" d="M1094.9,464.1V503c0,3.6,1.6,4.9,4.1,4.9c2.5,0,4.1-1.3,4.1-4.9v-38.9h7.5v38.4c0,8.1-4,12.7-11.8,12.7
						c-7.8,0-11.8-4.6-11.8-12.7v-38.4H1094.9z"/>
					<path fill="#87868A" d="M1132.6,514.5c-0.4-1.3-0.7-2.1-0.7-6.2v-7.9c0-4.7-1.6-6.4-5.2-6.4h-2.7v20.5h-7.9v-50.4h12
						c8.2,0,11.7,3.8,11.7,11.6v4c0,5.2-1.7,8.5-5.2,10.2v0.1c4,1.7,5.3,5.4,5.3,10.7v7.8c0,2.4,0.1,4.2,0.9,6.1H1132.6z
						 M1123.9,471.3v15.5h3.1c3,0,4.8-1.3,4.8-5.3v-5c0-3.6-1.2-5.2-4-5.2H1123.9z"/>
					<path fill="#87868A" d="M1144.3,476.2c0-8.1,4.2-12.7,12-12.7c7.8,0,12,4.6,12,12.7v26.2c0,8.1-4.2,12.7-12,12.7
						c-7.8,0-12-4.6-12-12.7V476.2z M1152.2,502.9c0,3.6,1.6,5,4.1,5c2.5,0,4.1-1.4,4.1-5v-27.2c0-3.6-1.6-5-4.1-5
						c-2.5,0-4.1,1.4-4.1,5V502.9z"/>
					<path fill="#87868A" d="M1196.9,476.6v6.6c0,8.1-3.9,12.5-11.8,12.5h-3.7v18.9h-7.9v-50.4h11.7
						C1193,464.1,1196.9,468.5,1196.9,476.6z M1181.4,471.3v17.1h3.7c2.5,0,3.9-1.2,3.9-4.8v-7.6c0-3.6-1.4-4.8-3.9-4.8H1181.4z"/>
					<path fill="#87868A" d="M1208.5,485.4h10.9v7.2h-10.9v14.8h13.7v7.2h-21.6v-50.4h21.6v7.2h-13.7V485.4z"/>
				</g>
			</g>
			<g>
				<path fill="#6CBD56" d="M1527.3,298.4h2.9v-9.9c0-11.4,5.4-18,16.4-18c11,0,16.4,6.5,16.4,18v5.2h-10.6v-5.9c0-5.1-1.9-7-5.5-7
					c-3.6,0-5.5,1.9-5.5,7v10.6h15.7v5.6h-15.7v5.6h15.7v5.6h-15.7v11.1c0,5.1,1.9,6.9,5.5,6.9c3.6,0,5.5-1.8,5.5-6.9V320h10.6v5.7
					c0,11.4-5.4,18-16.4,18c-11,0-16.4-6.5-16.4-18v-10.4h-2.9v-5.6h2.9V304h-2.9V298.4z"/>
			</g>
			<path fill="#8CC640" d="M1135.4,257.3h-26.8c-1.3,0-2.3,1-2.3,2.3v20.2h-24.5c-1.3,0-2.3,1-2.3,2.3v20.2h-24.5
				c-1.3,0-2.3,1-2.3,2.3v34.6c0,1.3,1,2.3,2.3,2.3h26.8h26.8h26.8c1.3,0,2.3-1,2.3-2.3v-79.7
				C1137.7,258.3,1136.7,257.3,1135.4,257.3z M1057.4,306.9h22.2V337h-22.2V306.9z M1084.2,304.6v-20.2h22.2V337h-22.2V304.6z
				 M1133.1,337h-22.2v-54.9v-20.2h22.2V337z"/>
			<g>
				<g>
					<path fill="#005EB8" d="M1367.5,695.6c0-6.6,3.4-10.2,9.6-10.2s9.6,3.6,9.6,10.2v20.9c0,6.6-3.4,10.2-9.6,10.2
						s-9.6-3.6-9.6-10.2V695.6z M1373.9,717c0,2.8,1.2,4,3.3,4c2,0,3.3-1.2,3.3-4v-21.8c0-2.8-1.3-4-3.3-4c-2.1,0-3.3,1.2-3.3,4V717
						z M1402.3,685.9h5.9l-25.1,63.7h-5.9L1402.3,685.9z M1399.1,718.9c0-6.6,3.4-10.2,9.6-10.2s9.6,3.6,9.6,10.2v20.9
						c0,6.6-3.4,10.2-9.6,10.2s-9.6-3.6-9.6-10.2V718.9z M1405.5,740.3c0,2.8,1.2,4,3.3,4c2,0,3.3-1.2,3.3-4v-21.8
						c0-2.8-1.3-4-3.3-4c-2.1,0-3.3,1.2-3.3,4V740.3z"/>
				</g>
			</g>
			<g>
				<path fill="#005EB8" d="M1334.3,654.4c0-4.1,2.2-6.5,6.2-6.5c4,0,6.2,2.4,6.2,6.5v13.5c0,4.1-2.2,6.5-6.2,6.5
					c-4,0-6.2-2.4-6.2-6.5V654.4z M1338.3,668.1c0,1.8,0.8,2.6,2.1,2.6c1.3,0,2.1-0.7,2.1-2.6v-14c0-1.9-0.8-2.6-2.1-2.6
					c-1.3,0-2.1,0.7-2.1,2.6V668.1z"/>
				<path fill="#005EB8" d="M1355.3,669.3L1355.3,669.3l3.1-21.1h3.7l-4,25.9h-6.1l-4-25.9h4.1L1355.3,669.3z"/>
				<path fill="#005EB8" d="M1368.2,659.1h5.6v3.7h-5.6v7.6h7v3.7h-11.1v-25.9h11.1v3.7h-7V659.1z"/>
				<path fill="#005EB8" d="M1386.2,674.1c-0.2-0.7-0.4-1.1-0.4-3.2v-4.1c0-2.4-0.8-3.3-2.7-3.3h-1.4v10.5h-4.1v-25.9h6.1
					c4.2,0,6,2,6,6v2c0,2.7-0.9,4.4-2.7,5.2v0.1c2,0.9,2.7,2.8,2.7,5.5v4c0,1.3,0,2.2,0.4,3.1H1386.2z M1381.8,651.9v8h1.6
					c1.5,0,2.4-0.7,2.4-2.7v-2.6c0-1.9-0.6-2.7-2.1-2.7H1381.8z"/>
			</g>
			<g>
				<path fill="#87868A" d="M963.9,90.5h12.3v17.8c0,9-4.5,14.1-13.1,14.1c-8.6,0-13.1-5.1-13.1-14.1V79.2c0-9,4.5-14.1,13.1-14.1
					c8.6,0,13.1,5.1,13.1,14.1v5.4h-8.3v-6c0-4-1.8-5.5-4.6-5.5c-2.8,0-4.6,1.5-4.6,5.5v30.2c0,4,1.8,5.4,4.6,5.4
					c2.8,0,4.6-1.4,4.6-5.4V98.5h-4V90.5z"/>
				<path fill="#87868A" d="M981.9,65.7h8.8v48h14.5v8h-23.3V65.7z"/>
				<path fill="#87868A" d="M1008.3,79.2c0-9,4.7-14.1,13.4-14.1c8.6,0,13.4,5.1,13.4,14.1v29.1c0,9-4.7,14.1-13.4,14.1
					c-8.6,0-13.4-5.1-13.4-14.1V79.2z M1017.1,108.8c0,4,1.8,5.5,4.6,5.5c2.8,0,4.6-1.5,4.6-5.5V78.6c0-4-1.8-5.5-4.6-5.5
					c-2.8,0-4.6,1.5-4.6,5.5V108.8z"/>
				<path fill="#87868A" d="M1067,78.6v2c0,5.8-1.8,9.4-5.7,11.2V92c4.7,1.8,6.6,6,6.6,11.9v4.6c0,8.6-4.6,13.3-13.4,13.3h-13.8v-56
					h13.3C1063.1,65.7,1067,70,1067,78.6z M1049.5,73.7v14.8h3.4c3.3,0,5.3-1.4,5.3-5.9v-3.1c0-4-1.4-5.8-4.5-5.8H1049.5z
					 M1049.5,96.5v17.2h5c3,0,4.6-1.4,4.6-5.5v-4.9c0-5.2-1.7-6.8-5.7-6.8H1049.5z"/>
				<path fill="#87868A" d="M1101.7,121.7h-8.9l-1.5-10.2h-10.8l-1.5,10.2h-8.1l9-56h12.9L1101.7,121.7z M1081.6,104h8.5l-4.2-28.3
					h-0.2L1081.6,104z"/>
				<path fill="#87868A" d="M1105.7,65.7h8.8v48h14.5v8h-23.3V65.7z"/>
			</g>
			<g>
				<path fill="#87868A" d="M973.6,612.3h5v3.3h-5v6.8h6.3v3.3h-9.9v-23.1h9.9v3.3h-6.3V612.3z"/>
				<path fill="#87868A" d="M985.5,602.6v17.8c0,1.7,0.7,2.2,1.9,2.2c1.2,0,1.9-0.6,1.9-2.2v-17.8h3.4v17.6c0,3.7-1.8,5.8-5.4,5.8
					s-5.4-2.1-5.4-5.8v-17.6H985.5z"/>
				<path fill="#87868A" d="M1002.8,625.7c-0.2-0.6-0.3-1-0.3-2.8v-3.6c0-2.1-0.7-2.9-2.4-2.9h-1.3v9.4h-3.6v-23.1h5.5
					c3.8,0,5.4,1.7,5.4,5.3v1.8c0,2.4-0.8,3.9-2.4,4.7v0.1c1.8,0.8,2.4,2.5,2.4,4.9v3.6c0,1.1,0,1.9,0.4,2.8H1002.8z M998.8,605.9
					v7.1h1.4c1.4,0,2.2-0.6,2.2-2.4v-2.3c0-1.7-0.6-2.4-1.8-2.4H998.8z"/>
				<path fill="#87868A" d="M1008.2,608.1c0-3.7,1.9-5.8,5.5-5.8s5.5,2.1,5.5,5.8v12c0,3.7-1.9,5.8-5.5,5.8s-5.5-2.1-5.5-5.8V608.1z
					 M1011.8,620.3c0,1.7,0.7,2.3,1.9,2.3c1.2,0,1.9-0.6,1.9-2.3v-12.5c0-1.6-0.7-2.3-1.9-2.3c-1.2,0-1.9,0.6-1.9,2.3V620.3z"/>
				<path fill="#87868A" d="M1032.3,608.3v3c0,3.7-1.8,5.7-5.4,5.7h-1.7v8.7h-3.6v-23.1h5.3C1030.5,602.6,1032.3,604.6,1032.3,608.3
					z M1025.2,605.9v7.8h1.7c1.2,0,1.8-0.5,1.8-2.2V608c0-1.6-0.6-2.2-1.8-2.2H1025.2z"/>
				<path fill="#87868A" d="M1037.6,612.3h5v3.3h-5v6.8h6.3v3.3h-9.9v-23.1h9.9v3.3h-6.3V612.3z"/>
				<path fill="#87868A" d="M1057.9,625.7h-3.7l-0.6-4.2h-4.5l-0.6,4.2h-3.3l3.7-23.1h5.3L1057.9,625.7z M1049.6,618.3h3.5
					l-1.7-11.7h-0.1L1049.6,618.3z"/>
				<path fill="#87868A" d="M1062.9,608.9L1062.9,608.9l-0.1,16.7h-3.3v-23.1h4.6l3.7,13.8h0.1v-13.8h3.2v23.1h-3.7L1062.9,608.9z"
					/>
				<path fill="#87868A" d="M1089.5,608.3v3c0,3.7-1.8,5.7-5.4,5.7h-1.7v8.7h-3.6v-23.1h5.3C1087.7,602.6,1089.5,604.6,1089.5,608.3
					z M1082.4,605.9v7.8h1.7c1.2,0,1.8-0.5,1.8-2.2V608c0-1.6-0.6-2.2-1.8-2.2H1082.4z"/>
				<path fill="#87868A" d="M1094.7,602.6v17.8c0,1.7,0.7,2.2,1.9,2.2s1.9-0.6,1.9-2.2v-17.8h3.4v17.6c0,3.7-1.8,5.8-5.4,5.8
					s-5.4-2.1-5.4-5.8v-17.6H1094.7z"/>
				<path fill="#87868A" d="M1104.3,602.6h3.6v19.8h6v3.3h-9.6V602.6z"/>
				<path fill="#87868A" d="M1126.3,608.3v3c0,3.7-1.8,5.7-5.4,5.7h-1.7v8.7h-3.6v-23.1h5.3C1124.5,602.6,1126.3,604.6,1126.3,608.3
					z M1119.2,605.9v7.8h1.7c1.2,0,1.8-0.5,1.8-2.2V608c0-1.6-0.6-2.2-1.8-2.2H1119.2z"/>
				<path fill="#87868A" d="M1144.8,625.7h-3.7l-0.6-4.2h-4.5l-0.6,4.2h-3.3l3.7-23.1h5.3L1144.8,625.7z M1136.5,618.3h3.5
					l-1.7-11.7h-0.1L1136.5,618.3z"/>
				<path fill="#87868A" d="M1149.8,608.9L1149.8,608.9l-0.1,16.7h-3.3v-23.1h4.6l3.7,13.8h0.1v-13.8h3.2v23.1h-3.7L1149.8,608.9z"
					/>
				<path fill="#87868A" d="M1160.6,602.6h5.7c3.6,0,5.4,2,5.4,5.7v11.7c0,3.7-1.8,5.7-5.4,5.7h-5.7V602.6z M1164.2,605.9v16.5h2
					c1.2,0,1.8-0.6,1.8-2.2v-12c0-1.7-0.7-2.2-1.8-2.2H1164.2z"/>
				<path fill="#87868A" d="M1189.9,608.3v3c0,3.7-1.8,5.7-5.4,5.7h-1.7v8.7h-3.6v-23.1h5.3C1188.2,602.6,1189.9,604.6,1189.9,608.3
					z M1182.8,605.9v7.8h1.7c1.2,0,1.8-0.5,1.8-2.2V608c0-1.6-0.6-2.2-1.8-2.2H1182.8z"/>
				<path fill="#87868A" d="M1202.9,625.7h-3.7l-0.6-4.2h-4.5l-0.6,4.2h-3.3l3.7-23.1h5.3L1202.9,625.7z M1194.7,618.3h3.5
					l-1.7-11.7h-0.1L1194.7,618.3z"/>
				<path fill="#87868A" d="M1215.4,608.3v3c0,3.7-1.8,5.7-5.4,5.7h-1.7v8.7h-3.6v-23.1h5.3C1213.6,602.6,1215.4,604.6,1215.4,608.3
					z M1208.2,605.9v7.8h1.7c1.2,0,1.8-0.5,1.8-2.2V608c0-1.6-0.6-2.2-1.8-2.2H1208.2z"/>
				<path fill="#87868A" d="M1220.7,612.3h5v3.3h-5v6.8h6.3v3.3h-9.9v-23.1h9.9v3.3h-6.3V612.3z"/>
				<path fill="#87868A" d="M1236.8,625.7c-0.2-0.6-0.3-1-0.3-2.8v-3.6c0-2.1-0.7-2.9-2.4-2.9h-1.3v9.4h-3.6v-23.1h5.5
					c3.8,0,5.4,1.7,5.4,5.3v1.8c0,2.4-0.8,3.9-2.4,4.7v0.1c1.8,0.8,2.4,2.5,2.4,4.9v3.6c0,1.1,0,1.9,0.4,2.8H1236.8z M1232.8,605.9
					v7.1h1.4c1.4,0,2.2-0.6,2.2-2.4v-2.3c0-1.7-0.6-2.4-1.8-2.4H1232.8z"/>
				<path fill="#87868A" d="M1247.6,602.6h3.6v23.1h-3.6V602.6z"/>
				<path fill="#87868A" d="M1258.7,602.3c3.5,0,5.3,2.1,5.3,5.8v0.7h-3.4v-1c0-1.6-0.7-2.3-1.8-2.3c-1.2,0-1.8,0.6-1.8,2.3
					c0,1.7,0.7,2.9,3.1,5c3,2.7,4,4.6,4,7.2c0,3.7-1.8,5.8-5.4,5.8s-5.4-2.1-5.4-5.8v-1.4h3.4v1.7c0,1.7,0.7,2.2,1.9,2.2
					c1.2,0,1.9-0.6,1.9-2.2c0-1.7-0.7-2.9-3.1-5c-3-2.7-4-4.6-4-7.2C1253.4,604.4,1255.2,602.3,1258.7,602.3z"/>
			</g>
			<g>
				<path fill="#87868A" d="M1005.7,658.3h12.1v8h-12.1v16.4h15.2v8h-24v-56h24v8h-15.2V658.3z"/>
				<path fill="#87868A" d="M1055.7,634.7l-9.2,27.2l9.8,28.8h-9.3l-7.1-22.2h-0.2l-7.2,22.2h-8.2l9.8-28.8l-9.2-27.2h9.1l6.6,20.6
					h0.2l6.7-20.6H1055.7z"/>
				<path fill="#87868A" d="M1086.8,648.6v7.3c0,9-4.3,13.8-13.1,13.8h-4.2v21h-8.8v-56h13C1082.5,634.7,1086.8,639.6,1086.8,648.6z
					 M1069.5,642.7v19h4.2c2.8,0,4.3-1.3,4.3-5.3V648c0-4-1.5-5.3-4.3-5.3H1069.5z"/>
				<path fill="#87868A" d="M1090.2,648.2c0-9,4.7-14.1,13.4-14.1s13.4,5.1,13.4,14.1v29.1c0,9-4.7,14.1-13.4,14.1
					s-13.4-5.1-13.4-14.1V648.2z M1099,677.9c0,4,1.8,5.5,4.6,5.5s4.6-1.5,4.6-5.5v-30.2c0-4-1.8-5.5-4.6-5.5s-4.6,1.5-4.6,5.5
					V677.9z"/>
				<path fill="#87868A" d="M1141,690.7c-0.5-1.4-0.8-2.3-0.8-6.9v-8.8c0-5.2-1.8-7.1-5.8-7.1h-3v22.8h-8.8v-56h13.3
					c9.1,0,13,4.2,13,12.9v4.4c0,5.8-1.8,9.4-5.8,11.3v0.2c4.4,1.8,5.8,6,5.8,11.8v8.6c0,2.7,0.1,4.7,1,6.8H1141z M1131.4,642.7
					v17.2h3.4c3.3,0,5.3-1.4,5.3-5.9v-5.5c0-4-1.4-5.8-4.5-5.8H1131.4z"/>
				<path fill="#87868A" d="M1152.2,634.7h27.2v8h-9.2v48h-8.8v-48h-9.2V634.7z"/>
				<path fill="#87868A" d="M1192,658.3h12.1v8H1192v16.4h15.2v8h-24v-56h24v8H1192V658.3z"/>
				<path fill="#87868A" d="M1212.7,634.7h13.9c8.8,0,13.1,4.9,13.1,13.8v28.3c0,9-4.3,13.8-13.1,13.8h-13.9V634.7z M1221.5,642.7
					v40h5c2.8,0,4.5-1.4,4.5-5.4v-29.1c0-4-1.7-5.4-4.5-5.4H1221.5z"/>
			</g>
			<g>
				<path fill="#009347" d="M51.7,373.2v2.6c0,3.2-1.6,5-4.8,5h-1.5v7.6h-3.2v-20.3h4.7C50.1,368.1,51.7,369.9,51.7,373.2z
					 M45.4,371v6.9h1.5c1,0,1.6-0.5,1.6-1.9v-3c0-1.5-0.6-1.9-1.6-1.9H45.4z"/>
				<path fill="#009347" d="M56.3,376.7h4.4v2.9h-4.4v5.9h5.5v2.9h-8.7v-20.3h8.7v2.9h-5.5V376.7z"/>
				<path fill="#009347" d="M63.5,373c0-3.2,1.7-5.1,4.8-5.1c3.1,0,4.8,1.9,4.8,5.1v10.6c0,3.2-1.7,5.1-4.8,5.1
					c-3.1,0-4.8-1.9-4.8-5.1V373z M66.7,383.8c0,1.5,0.6,2,1.7,2c1,0,1.7-0.6,1.7-2v-11c0-1.5-0.6-2-1.7-2c-1,0-1.7,0.6-1.7,2V383.8
					z"/>
				<path fill="#009347" d="M84.7,373.2v2.6c0,3.2-1.6,5-4.8,5h-1.5v7.6h-3.2v-20.3H80C83.2,368.1,84.7,369.9,84.7,373.2z M78.5,371
					v6.9H80c1,0,1.6-0.5,1.6-1.9v-3c0-1.5-0.6-1.9-1.6-1.9H78.5z"/>
				<path fill="#009347" d="M86.2,368.1h3.2v17.4h5.2v2.9h-8.4V368.1z"/>
				<path fill="#009347" d="M99.2,376.7h4.4v2.9h-4.4v5.9h5.5v2.9h-8.7v-20.3h8.7v2.9h-5.5V376.7z"/>
				<path fill="#009347" d="M114.4,376.7h4.4v2.9h-4.4v5.9h5.5v2.9l-8.7,0v-20.3l8.7,0v2.9h-5.5V376.7z"/>
				<path fill="#009347" d="M128.6,382.6L128.6,382.6l2.2-14.4h4.4v20.3h-3v-14.6h-0.1l-2.1,14.6h-3l-2.3-14.4h-0.1v14.4h-2.8v-20.3
					h4.4L128.6,382.6z"/>
				<path fill="#009347" d="M147,373.2v2.6c0,3.2-1.6,5-4.8,5h-1.5v7.6h-3.2v-20.3h4.7C145.5,368.1,147,369.9,147,373.2z M140.8,371
					v6.9h1.5c1,0,1.6-0.5,1.6-1.9v-3c0-1.5-0.6-1.9-1.6-1.9H140.8z"/>
				<path fill="#009347" d="M148.5,368.1h3.2v17.4h5.2v2.9h-8.4V368.1z"/>
				<path fill="#009347" d="M158.1,373c0-3.2,1.7-5.1,4.8-5.1c3.1,0,4.8,1.9,4.8,5.1v10.6c0,3.2-1.7,5.1-4.8,5.1
					c-3.1,0-4.8-1.9-4.8-5.1V373z M161.3,383.8c0,1.5,0.6,2,1.7,2c1,0,1.7-0.5,1.7-2v-11c0-1.5-0.6-2-1.7-2c-1,0-1.7,0.6-1.7,2
					V383.8z"/>
				<path fill="#009347" d="M172.4,381.7l-4-13.6h3.3l2.4,9.3h0.1l2.4-9.3h3l-4,13.6v6.7h-3.2V381.7z"/>
				<path fill="#009347" d="M184.1,376.7h4.4v2.9h-4.4v5.9h5.5v2.9h-8.7v-20.3h8.7v2.9h-5.5V376.7z"/>
				<path fill="#009347" d="M191.5,368.1h5c3.2,0,4.8,1.8,4.8,5v10.3c0,3.2-1.6,5-4.8,5h-5V368.1z M194.7,371v14.5h1.8
					c1,0,1.6-0.5,1.6-2V373c0-1.5-0.6-2-1.6-2H194.7z"/>
			</g>
			<g>
				<path fill="#009347" d="M236.5,236.7c-7.3,0-8.6,4.9-9.1,12.4l-0.9,18.8c-0.3,7-1.5,13-9.7,15.4c8.2,2.2,9.4,8.2,9.7,15.4
					l0.9,18.6c0.4,7.6,1.8,12.4,9.1,12.4h3.3v5.8h-5.5c-9.2,0-12.5-6.3-13.1-15.5l-1-20.4c-0.3-7.9-1.2-11.9-9.4-13.1v-6.3
					c8.2-1.3,9.1-5.2,9.4-13.1l1-20.6c0.6-9.1,3.9-15.5,13.1-15.5h5.5v5.8H236.5z"/>
			</g>
			<g>
				<path fill="#009347" d="M507.3,236.7v-5.8h5.5c9.2,0,12.5,6.4,13.1,15.5l1,20.6c0.3,7.9,1.2,11.8,9.4,13.1v6.3
					c-8.2,1.2-9.1,5.2-9.4,13.1l-1,20.4c-0.6,9.2-3.9,15.5-13.1,15.5h-5.5v-5.8h3.3c7.3,0,8.6-4.8,9.1-12.4l0.9-18.6
					c0.3-7.2,1.5-13.1,9.7-15.4c-8.2-2.4-9.4-8.4-9.7-15.4l-0.9-18.8c-0.4-7.5-1.8-12.4-9.1-12.4H507.3z"/>
			</g>
			<g>
				<path fill="#6CBD56" d="M1558.4,355.2v1c0,3-0.9,4.9-3,5.9v0.1c2.5,1,3.4,3.2,3.4,6.3v2.4c0,4.5-2.4,7-7,7h-7.3v-29.4h7
					C1556.3,348.5,1558.4,350.7,1558.4,355.2z M1549.2,352.7v7.8h1.8c1.7,0,2.8-0.8,2.8-3.1v-1.6c0-2.1-0.7-3-2.4-3H1549.2z
					 M1549.2,364.6v9h2.6c1.6,0,2.4-0.7,2.4-2.9v-2.6c0-2.7-0.9-3.6-3-3.6H1549.2z"/>
				<path fill="#6CBD56" d="M1561.6,348.5l4.6,0v29.4l-4.6,0V348.5z"/>
				<path fill="#6CBD56" d="M1569.6,348.5h4.6v25.2h7.6v4.2h-12.2V348.5z"/>
				<path fill="#6CBD56" d="M1583.8,348.5h4.6v25.2h7.6v4.2h-12.2V348.5z"/>
				<path fill="#6CBD56" d="M1598,348.5h4.6v29.4h-4.6V348.5z"/>
				<path fill="#6CBD56" d="M1605.7,355.5c0-4.7,2.5-7.4,7-7.4s7,2.7,7,7.4v15.3c0,4.7-2.5,7.4-7,7.4s-7-2.7-7-7.4V355.5z
					 M1610.3,371.1c0,2.1,0.9,2.9,2.4,2.9s2.4-0.8,2.4-2.9v-15.9c0-2.1-0.9-2.9-2.4-2.9s-2.4,0.8-2.4,2.9V371.1z"/>
				<path fill="#6CBD56" d="M1626.9,356.6L1626.9,356.6l-0.1,21.3h-4.2v-29.4h5.8l4.7,17.6h0.1v-17.6h4.1v29.4h-4.7L1626.9,356.6z"
					/>
			</g>
			<g>
				<path fill="#6CBD56" d="M1585.3,247.1l-2.2-14h7.6l-2.2,14l12.7-6.4l2.4,7.2l-13.9,2.4l9.9,9.9l-6.1,4.5l-6.5-12.6l-6.5,12.6
					l-6.1-4.5l9.9-9.9l-13.9-2.4l2.4-7.2L1585.3,247.1z"/>
			</g>
			<g>
				<path fill="#2F7CBA" d="M269.9,688.8h2.9v-9.9c0-11.4,5.4-18,16.4-18c11,0,16.4,6.5,16.4,18v5.2H295v-5.9c0-5.1-1.9-7-5.5-7
					s-5.5,1.9-5.5,7v10.6h15.7v5.6H284v5.6h15.7v5.6H284v11.1c0,5.1,1.9,6.9,5.5,6.9s5.5-1.8,5.5-6.9v-6.4h10.6v5.7
					c0,11.4-5.4,18-16.4,18c-11,0-16.4-6.5-16.4-18v-10.4h-2.9V700h2.9v-5.6h-2.9V688.8z"/>
			</g>
			<g>
				<path fill="#2F7CBA" d="M299,746.8v1c0,3-0.9,4.9-3,5.9v0.1c2.5,1,3.4,3.1,3.4,6.2v2.4c0,4.5-2.4,6.9-7,6.9h-7.2v-29.3h6.9
					C296.9,740.1,299,742.3,299,746.8z M289.8,744.2v7.7h1.8c1.7,0,2.8-0.8,2.8-3.1v-1.6c0-2.1-0.7-3-2.3-3H289.8z M289.8,756.2v9
					h2.6c1.5,0,2.4-0.7,2.4-2.9v-2.6c0-2.7-0.9-3.6-3-3.6H289.8z"/>
				<path fill="#2F7CBA" d="M302.2,740.1h4.6v29.3h-4.6V740.1z"/>
				<path fill="#2F7CBA" d="M310.1,740.1h4.6v25.1h7.6v4.2h-12.2V740.1z"/>
				<path fill="#2F7CBA" d="M324.3,740.1h4.6v25.1h7.6v4.2h-12.2V740.1z"/>
				<path fill="#2F7CBA" d="M338.5,740.1h4.6v29.3h-4.6V740.1z"/>
				<path fill="#2F7CBA" d="M346.1,747.1c0-4.7,2.5-7.4,7-7.4s7,2.7,7,7.4v15.2c0,4.7-2.5,7.4-7,7.4s-7-2.7-7-7.4V747.1z
					 M350.7,762.6c0,2.1,0.9,2.9,2.4,2.9s2.4-0.8,2.4-2.9v-15.8c0-2.1-0.9-2.9-2.4-2.9s-2.4,0.8-2.4,2.9V762.6z"/>
				<path fill="#2F7CBA" d="M367.2,748.1L367.2,748.1l-0.1,21.2H363v-29.3h5.8l4.6,17.5h0.1v-17.5h4.1v29.3h-4.7L367.2,748.1z"/>
			</g>
			<g>
				<path fill="#2F7CBA" d="M333,630.5l-2.2-14h7.6l-2.2,14l12.7-6.4l2.4,7.2l-13.9,2.4l9.9,9.9l-6.1,4.5l-6.5-12.6l-6.5,12.6
					l-6.1-4.5l9.9-9.9l-13.9-2.4l2.4-7.2L333,630.5z"/>
			</g>
			<path fill="#2F7CBA" d="M700.2,651.6l-28.7-31.7c-0.6-0.7-1.4-1-2.3-1c-0.9,0-1.7,0.4-2.3,1l-23.5,26v-21.9
				c0-1.7-1.4-3.1-3.1-3.1h-21.3c-1.7,0-3.1,1.4-3.1,3.1v26.9h-15.2c-1.2,0-2.4,0.7-2.9,1.9c-0.5,1.1-0.3,2.5,0.5,3.4l29,32
				c0.6,0.7,1.4,1,2.3,1c0.9,0,1.7-0.4,2.3-1l23.5-26v21.9c0,1.7,1.4,3.1,3.1,3.1h21.3c1.7,0,3.1-1.4,3.1-3.1v-26.9h15.2
				c0,0,0,0,0.1,0c1.7,0,3.1-1.4,3.1-3.1C701.4,653.1,700.9,652.2,700.2,651.6z M629.6,686.4l-26.9-31.2h13.2c1.7,0,3.1-1.4,3.1-3.1
				v-27.9h21v27.9c0,0.1,0,0.1,0,0.1c0,0.3,0.1,0.7,0.2,1c0,0,0,0.1,0,0.1c0,0,0,0,0,0c0.1,0.3,0.4,0.6,0.6,0.9
				c0.1,0.1,0.1,0.1,0.2,0.2c0.2,0.2,0.4,0.3,0.7,0.5c0.1,0,0.2,0.1,0.3,0.1c0.4,0.1,0.7,0.2,1.1,0.2h13.2L629.6,686.4z
				 M669.1,621.2l26.9,31.2l-13.2,0c-1.7,0-3.1,1.4-3.1,3.1v27.9l-21,0v-27.9c0-0.1,0-0.1,0-0.1c0-0.3-0.1-0.7-0.2-1
				c0,0,0-0.1,0-0.1c0,0,0,0,0,0c-0.1-0.3-0.4-0.6-0.6-0.9c-0.1-0.1-0.1-0.1-0.2-0.2c-0.2-0.2-0.4-0.3-0.7-0.5
				c-0.1,0-0.2-0.1-0.3-0.1c-0.4-0.1-0.7-0.2-1.1-0.2l-13.2,0L669.1,621.2z"/>
			<g>
				<path fill="#6AA242" d="M1345.5,519.9c0-4.7,2.5-7.4,7-7.4s7,2.7,7,7.4v15.3c0,4.7-2.5,7.4-7,7.4s-7-2.7-7-7.4V519.9z
					 M1350.1,535.5c0,2.1,0.9,2.9,2.4,2.9c1.5,0,2.4-0.8,2.4-2.9v-15.9c0-2.1-0.9-2.9-2.4-2.9c-1.5,0-2.4,0.8-2.4,2.9V535.5z"/>
				<path fill="#6AA242" d="M1367.1,525.9l6,0v4.2l-6,0v12.1h-4.6v-29.4l12.2,0v4.2l-7.6,0V525.9z"/>
				<path fill="#6AA242" d="M1388.1,525.9h6v4.2h-6v12.1h-4.6v-29.4h12.2v4.2h-7.6V525.9z"/>
				<path fill="#6AA242" d="M1397.9,512.9h4.6v29.4h-4.6V512.9z"/>
				<path fill="#6AA242" d="M1419.7,519.6v1c0,3-0.9,4.9-3,5.9v0.1c2.5,1,3.4,3.2,3.4,6.3v2.4c0,4.5-2.4,7-7,7h-7.3v-29.4h7
					C1417.6,512.9,1419.7,515.1,1419.7,519.6z M1410.5,517.1v7.8h1.8c1.7,0,2.8-0.8,2.8-3.1v-1.6c0-2.1-0.7-3-2.4-3H1410.5z
					 M1410.5,529v9h2.6c1.6,0,2.4-0.7,2.4-2.9v-2.6c0-2.7-0.9-3.6-3-3.6H1410.5z"/>
				<path fill="#6AA242" d="M1432.6,542.3c-0.3-0.8-0.4-1.2-0.4-3.6V534c0-2.7-0.9-3.7-3-3.7h-1.6v12h-4.6v-29.4h7
					c4.8,0,6.8,2.2,6.8,6.8v2.3c0,3-1,5-3,5.9v0.1c2.3,1,3.1,3.2,3.1,6.2v4.5c0,1.4,0,2.5,0.5,3.6H1432.6z M1427.5,517.1v9h1.8
					c1.7,0,2.8-0.8,2.8-3.1v-2.9c0-2.1-0.7-3-2.4-3H1427.5z"/>
				<path fill="#6AA242" d="M1444.4,525.3h6.3v4.2h-6.3v8.6h8v4.2h-12.6v-29.4h12.6v4.2h-8V525.3z"/>
				<path fill="#6AA242" d="M1461.5,512.5c4.5,0,6.8,2.7,6.8,7.4v0.9h-4.4v-1.2c0-2.1-0.8-2.9-2.3-2.9c-1.5,0-2.3,0.8-2.3,2.9
					c0,2.1,0.9,3.7,3.9,6.4c3.9,3.4,5.1,5.8,5.1,9.2c0,4.7-2.4,7.4-6.9,7.4s-6.9-2.7-6.9-7.4v-1.8h4.4v2.1c0,2.1,0.9,2.9,2.4,2.9
					c1.5,0,2.4-0.8,2.4-2.9c0-2.1-0.9-3.7-3.9-6.4c-3.9-3.4-5.1-5.8-5.1-9.2C1454.7,515.2,1457,512.5,1461.5,512.5z"/>
			</g>
			<g>
				<g>
					<path fill="#6AA242" d="M1425.5,440.4c0-7.8,4-12.1,11.4-12.1s11.4,4.3,11.4,12.1v24.8c0,7.8-4,12.1-11.4,12.1
						s-11.4-4.3-11.4-12.1V440.4z M1433.1,465.8c0,3.3,1.4,4.8,3.9,4.8c2.4,0,3.9-1.4,3.9-4.8v-25.9c0-3.3-1.5-4.8-3.9-4.8
						c-2.5,0-3.9,1.4-3.9,4.8V465.8z M1466.8,428.8h7l-29.8,75.6h-7L1466.8,428.8z M1463,468c0-7.8,4-12.1,11.4-12.1
						s11.4,4.3,11.4,12.1v24.8c0,7.8-4,12.1-11.4,12.1s-11.4-4.3-11.4-12.1V468z M1470.6,493.4c0,3.3,1.4,4.8,3.9,4.8
						c2.4,0,3.9-1.4,3.9-4.8v-25.9c0-3.3-1.5-4.8-3.9-4.8c-2.5,0-3.9,1.4-3.9,4.8V493.4z"/>
				</g>
			</g>
			<line fill="none" stroke="#6AA242" stroke-width="5.161" stroke-miterlimit="10" x1="273.3" y1="531.1" x2="681.1" y2="531.1"/>
			<g>
				<g>
					<g>
						<g>
							<g>
								<g>
									<path fill="#FFFFFF" stroke="#6AA242" stroke-width="5.161" stroke-miterlimit="10" d="M399.3,484.2
										c0,49.9-40.5,90.4-90.4,90.4s-90.4-40.5-90.4-90.4c0-49.9,40.5-90.4,90.4-90.4S399.3,434.3,399.3,484.2z"/>
								</g>
							</g>
						</g>
					</g>
				</g>
			</g>
			<g>
				<g>
					<path fill="#87868A" d="M413.2,461.7h5.9v3.9h-5.9v8h7.4v3.9h-11.7v-27.3h11.7v3.9h-7.4V461.7z"/>
					<path fill="#87868A" d="M427.4,450.2v21.1c0,2,0.9,2.7,2.2,2.7s2.2-0.7,2.2-2.7v-21.1h4.1V471c0,4.4-2.2,6.9-6.4,6.9
						c-4.2,0-6.4-2.5-6.4-6.9v-20.8H427.4z"/>
					<path fill="#87868A" d="M447.8,477.5c-0.2-0.7-0.4-1.1-0.4-3.4v-4.3c0-2.5-0.9-3.5-2.8-3.5h-1.5v11.1h-4.3v-27.3h6.5
						c4.4,0,6.4,2.1,6.4,6.3v2.1c0,2.8-0.9,4.6-2.8,5.5v0.1c2.1,0.9,2.8,2.9,2.8,5.8v4.2c0,1.3,0,2.3,0.5,3.3H447.8z M443.1,454.1
						v8.4h1.7c1.6,0,2.6-0.7,2.6-2.9v-2.7c0-2-0.7-2.8-2.2-2.8H443.1z"/>
					<path fill="#87868A" d="M454.1,456.8c0-4.4,2.3-6.9,6.5-6.9c4.2,0,6.5,2.5,6.5,6.9V471c0,4.4-2.3,6.9-6.5,6.9
						c-4.2,0-6.5-2.5-6.5-6.9V456.8z M458.4,471.3c0,2,0.9,2.7,2.2,2.7s2.2-0.7,2.2-2.7v-14.7c0-2-0.9-2.7-2.2-2.7s-2.2,0.7-2.2,2.7
						V471.3z"/>
					<path fill="#87868A" d="M482.7,457v3.5c0,4.4-2.1,6.7-6.4,6.7h-2v10.3h-4.3v-27.3h6.3C480.5,450.2,482.7,452.6,482.7,457z
						 M474.2,454.1v9.2h2c1.4,0,2.1-0.6,2.1-2.6v-4.1c0-2-0.7-2.6-2.1-2.6H474.2z"/>
					<path fill="#87868A" d="M488.9,461.7h5.9v3.9h-5.9v8h7.4v3.9h-11.7v-27.3h11.7v3.9h-7.4V461.7z"/>
					<path fill="#87868A" d="M512.9,477.5h-4.3l-0.7-5h-5.3l-0.7,5h-3.9l4.4-27.3h6.3L512.9,477.5z M503.1,468.9h4.1l-2-13.8h-0.1
						L503.1,468.9z"/>
					<path fill="#87868A" d="M518.8,457.8L518.8,457.8l-0.1,19.8h-3.9v-27.3h5.4l4.3,16.3h0.1v-16.3h3.8v27.3H524L518.8,457.8z"/>
					<path fill="#87868A" d="M550.3,457v3.5c0,4.4-2.1,6.7-6.4,6.7h-2v10.3h-4.3v-27.3h6.3C548.2,450.2,550.3,452.6,550.3,457z
						 M541.9,454.1v9.2h2c1.4,0,2.1-0.6,2.1-2.6v-4.1c0-2-0.7-2.6-2.1-2.6H541.9z"/>
					<path fill="#87868A" d="M565.6,477.5h-4.3l-0.7-5h-5.3l-0.7,5h-3.9l4.4-27.3h6.3L565.6,477.5z M555.9,468.9h4.1l-2-13.8h-0.1
						L555.9,468.9z"/>
					<path fill="#87868A" d="M580.3,457v3.5c0,4.4-2.1,6.7-6.4,6.7h-2v10.3h-4.3v-27.3h6.3C578.2,450.2,580.3,452.6,580.3,457z
						 M571.9,454.1v9.2h2c1.4,0,2.1-0.6,2.1-2.6v-4.1c0-2-0.7-2.6-2.1-2.6H571.9z"/>
					<path fill="#87868A" d="M586.6,461.7h5.9v3.9h-5.9v8h7.4v3.9h-11.7v-27.3H594v3.9h-7.4V461.7z"/>
					<path fill="#87868A" d="M605.7,477.5c-0.2-0.7-0.4-1.1-0.4-3.4v-4.3c0-2.5-0.9-3.5-2.8-3.5H601v11.1h-4.3v-27.3h6.5
						c4.4,0,6.4,2.1,6.4,6.3v2.1c0,2.8-0.9,4.6-2.8,5.5v0.1c2.1,0.9,2.8,2.9,2.8,5.8v4.2c0,1.3,0,2.3,0.5,3.3H605.7z M601,454.1v8.4
						h1.7c1.6,0,2.6-0.7,2.6-2.9v-2.7c0-2-0.7-2.8-2.2-2.8H601z"/>
					<path fill="#87868A" d="M429.5,491.6v4.8c0,5.9-2.9,9.2-8.7,9.2H418v13.9h-5.8v-37.1h8.6C426.6,482.4,429.5,485.7,429.5,491.6z
						 M418,487.7v12.6h2.8c1.9,0,2.9-0.8,2.9-3.5v-5.6c0-2.6-1-3.5-2.9-3.5H418z"/>
					<path fill="#87868A" d="M444.4,519.5c-0.3-1-0.5-1.5-0.5-4.6v-5.8c0-3.4-1.2-4.7-3.8-4.7h-2v15.1h-5.8v-37.1h8.8
						c6,0,8.6,2.8,8.6,8.5v2.9c0,3.8-1.2,6.3-3.8,7.5v0.1c2.9,1.2,3.9,4,3.9,7.8v5.7c0,1.8,0.1,3.1,0.6,4.5H444.4z M438,487.7v11.4
						h2.3c2.2,0,3.5-1,3.5-3.9v-3.7c0-2.7-0.9-3.8-3-3.8H438z"/>
					<path fill="#87868A" d="M453,491.3c0-5.9,3.1-9.3,8.8-9.3c5.7,0,8.8,3.4,8.8,9.3v19.3c0,5.9-3.1,9.3-8.8,9.3
						c-5.7,0-8.8-3.4-8.8-9.3V491.3z M458.8,511c0,2.7,1.2,3.7,3,3.7c1.9,0,3-1,3-3.7v-20c0-2.6-1.2-3.7-3-3.7c-1.9,0-3,1-3,3.7V511
						z"/>
					<path fill="#87868A" d="M474.5,482.4h9.2c5.8,0,8.7,3.2,8.7,9.2v18.8c0,5.9-2.9,9.2-8.7,9.2h-9.2V482.4z M480.3,487.7v26.5h3.3
						c1.9,0,3-1,3-3.6v-19.3c0-2.7-1.1-3.6-3-3.6H480.3z"/>
					<path fill="#87868A" d="M501.7,482.4v28.6c0,2.6,1.2,3.6,3,3.6s3-1,3-3.6v-28.6h5.5v28.2c0,5.9-3,9.3-8.7,9.3
						c-5.7,0-8.7-3.4-8.7-9.3v-28.2H501.7z"/>
					<path fill="#87868A" d="M534.1,505.7v4.9c0,5.9-3,9.3-8.7,9.3c-5.7,0-8.7-3.4-8.7-9.3v-19.3c0-5.9,3-9.3,8.7-9.3
						c5.7,0,8.7,3.4,8.7,9.3v3.6h-5.5v-4c0-2.6-1.2-3.7-3-3.7c-1.9,0-3,1-3,3.7v20c0,2.7,1.2,3.6,3,3.6c1.9,0,3-1,3-3.6v-5.3H534.1z
						"/>
					<path fill="#87868A" d="M536,482.4h18v5.3h-6.1v31.8h-5.8v-31.8H536V482.4z"/>
					<path fill="#87868A" d="M556.5,482.4h5.8v37.1h-5.8V482.4z"/>
					<path fill="#87868A" d="M566.1,491.3c0-5.9,3.1-9.3,8.9-9.3s8.9,3.4,8.9,9.3v19.3c0,5.9-3.1,9.3-8.9,9.3s-8.9-3.4-8.9-9.3
						V491.3z M571.9,511c0,2.7,1.2,3.7,3,3.7s3-1,3-3.7v-20c0-2.6-1.2-3.7-3-3.7s-3,1-3,3.7V511z"/>
					<path fill="#87868A" d="M592.9,492.7h-0.1v26.9h-5.2v-37.1h7.3l5.9,22.2h0.1v-22.2h5.2v37.1h-6L592.9,492.7z"/>
				</g>
			</g>
			<g>
				<g>
					<path fill="#6AA242" d="M324.5,453.4c0-7.8,4-12.1,11.4-12.1c7.5,0,11.4,4.3,11.4,12.1v24.8c0,7.8-4,12.1-11.4,12.1
						c-7.5,0-11.4-4.3-11.4-12.1V453.4z M332.1,478.8c0,3.3,1.4,4.8,3.9,4.8c2.4,0,3.9-1.4,3.9-4.8v-25.9c0-3.3-1.5-4.8-3.9-4.8
						c-2.5,0-3.9,1.4-3.9,4.8V478.8z M365.8,441.8h7L343,517.4h-7L365.8,441.8z M362,481c0-7.8,4-12.1,11.4-12.1
						c7.5,0,11.4,4.3,11.4,12.1v24.8c0,7.8-4,12.1-11.4,12.1c-7.5,0-11.4-4.3-11.4-12.1V481z M369.6,506.4c0,3.3,1.4,4.8,3.9,4.8
						c2.4,0,3.9-1.4,3.9-4.8v-25.9c0-3.3-1.5-4.8-3.9-4.8c-2.5,0-3.9,1.4-3.9,4.8V506.4z"/>
				</g>
			</g>
			<g>
				<path fill="#87868A" d="M1161.4,332.3h1.3l-0.3,3l2.5-1.8l0.7,1.1l-2.8,1.3l2.8,1.2l-0.7,1.1l-2.5-1.8l0.3,3h-1.3l0.3-3
					l-2.5,1.8l-0.7-1.1l2.8-1.2l-2.8-1.3l0.7-1.1l2.5,1.8L1161.4,332.3z"/>
				<path fill="#87868A" d="M1166.6,334.1v-1.5h8.1v1.5h-3.3v13.4h-1.5v-13.4H1166.6z"/>
				<path fill="#87868A" d="M1180.7,336.3c1.7,0,3.1,0.6,4.2,1.8c1,1.1,1.5,2.4,1.5,4c0,1.5-0.5,2.9-1.6,4c-1.1,1.1-2.4,1.7-4.1,1.7
					c-1.7,0-3.1-0.6-4.1-1.7c-1.1-1.1-1.6-2.5-1.6-4c0-1.5,0.5-2.8,1.5-4C1177.6,336.9,1179,336.3,1180.7,336.3z M1180.7,337.6
					c-1.2,0-2.2,0.4-3,1.3c-0.8,0.9-1.3,1.9-1.3,3.2c0,0.8,0.2,1.5,0.6,2.2c0.4,0.7,0.9,1.2,1.6,1.6c0.7,0.4,1.4,0.6,2.2,0.6
					c0.8,0,1.5-0.2,2.2-0.6c0.7-0.4,1.2-0.9,1.6-1.6c0.4-0.7,0.6-1.4,0.6-2.2c0-1.2-0.4-2.3-1.3-3.2
					C1182.9,338.1,1181.9,337.6,1180.7,337.6z"/>
				<path fill="#87868A" d="M1195.6,332.5h1.4v4.1h2.2v1.2h-2.2v9.8h-1.4v-9.8h-1.9v-1.2h1.9V332.5z"/>
				<path fill="#87868A" d="M1201.2,332.3h1.4v6.2c0.6-0.8,1.2-1.3,1.9-1.7c0.7-0.4,1.4-0.6,2.2-0.6c0.8,0,1.6,0.2,2.2,0.6
					c0.6,0.4,1.1,1,1.4,1.7c0.3,0.7,0.5,1.8,0.5,3.3v5.7h-1.4v-5.2c0-1.3-0.1-2.1-0.2-2.5c-0.2-0.7-0.5-1.3-1-1.6
					c-0.5-0.4-1.1-0.5-1.8-0.5c-0.9,0-1.6,0.3-2.3,0.8c-0.7,0.6-1.1,1.3-1.3,2.1c-0.1,0.5-0.2,1.5-0.2,3v4h-1.4V332.3z"/>
				<path fill="#87868A" d="M1222.9,343.9l1.2,0.6c-0.4,0.8-0.8,1.4-1.4,1.9c-0.5,0.5-1.1,0.8-1.7,1.1c-0.6,0.2-1.4,0.4-2.2,0.4
					c-1.8,0-3.2-0.6-4.2-1.8c-1-1.2-1.5-2.5-1.5-4c0-1.4,0.4-2.6,1.3-3.7c1.1-1.4,2.5-2.1,4.4-2.1c1.9,0,3.4,0.7,4.5,2.1
					c0.8,1,1.2,2.3,1.2,3.8h-9.9c0,1.3,0.4,2.3,1.2,3.1c0.8,0.8,1.8,1.2,2.9,1.2c0.6,0,1.1-0.1,1.6-0.3c0.5-0.2,1-0.5,1.4-0.8
					C1222.1,345.1,1222.5,344.6,1222.9,343.9z M1222.9,340.9c-0.2-0.8-0.5-1.4-0.8-1.8c-0.4-0.5-0.8-0.8-1.4-1.1
					c-0.6-0.3-1.2-0.4-1.9-0.4c-1.1,0-2,0.3-2.8,1c-0.6,0.5-1,1.3-1.3,2.3H1222.9z"/>
				<path fill="#87868A" d="M1232.7,332.7h8.5v1.5h-7v4.7h7v1.5h-7v5.8h7v1.5h-8.5V332.7z"/>
				<path fill="#87868A" d="M1243.2,336.5h1.4v5.1c0,1.3,0.1,2.1,0.2,2.6c0.2,0.7,0.6,1.2,1.2,1.6c0.6,0.4,1.2,0.6,2,0.6
					c0.8,0,1.5-0.2,2-0.6c0.5-0.4,0.9-0.9,1.1-1.5c0.1-0.4,0.2-1.3,0.2-2.7v-5.1h1.4v5.4c0,1.5-0.2,2.7-0.5,3.4
					c-0.4,0.8-0.9,1.4-1.6,1.8c-0.7,0.4-1.6,0.7-2.7,0.7s-2-0.2-2.7-0.7c-0.7-0.4-1.3-1-1.6-1.8c-0.4-0.8-0.5-1.9-0.5-3.5V336.5z"/>
				<path fill="#87868A" d="M1255.2,336.5h1.4v1.6c0.4-0.6,0.9-1.1,1.4-1.4c0.5-0.3,1-0.5,1.5-0.5c0.4,0,0.8,0.1,1.3,0.4l-0.7,1.2
					c-0.3-0.1-0.5-0.2-0.7-0.2c-0.5,0-0.9,0.2-1.4,0.6c-0.4,0.4-0.8,1-1,1.8c-0.2,0.6-0.3,1.9-0.3,3.8v3.7h-1.4V336.5z"/>
				<path fill="#87868A" d="M1266.9,336.3c1.7,0,3.1,0.6,4.2,1.8c1,1.1,1.5,2.4,1.5,4c0,1.5-0.5,2.9-1.6,4c-1.1,1.1-2.4,1.7-4.1,1.7
					c-1.7,0-3.1-0.6-4.1-1.7c-1.1-1.1-1.6-2.5-1.6-4c0-1.5,0.5-2.8,1.5-4C1263.8,336.9,1265.2,336.3,1266.9,336.3z M1266.9,337.6
					c-1.2,0-2.2,0.4-3,1.3c-0.8,0.9-1.3,1.9-1.3,3.2c0,0.8,0.2,1.5,0.6,2.2c0.4,0.7,0.9,1.2,1.6,1.6c0.7,0.4,1.4,0.6,2.2,0.6
					c0.8,0,1.5-0.2,2.2-0.6c0.7-0.4,1.2-0.9,1.6-1.6c0.4-0.7,0.6-1.4,0.6-2.2c0-1.2-0.4-2.3-1.3-3.2
					C1269.1,338.1,1268.1,337.6,1266.9,337.6z"/>
				<path fill="#87868A" d="M1275.1,336.5h1.4v2c0.6-0.8,1.2-1.3,1.9-1.7c0.7-0.4,1.5-0.6,2.4-0.6c1.6,0,2.9,0.6,4,1.7
					c1.1,1.1,1.7,2.5,1.7,4.1c0,1.6-0.6,3-1.7,4.1c-1.1,1.1-2.4,1.7-4,1.7c-0.9,0-1.7-0.2-2.4-0.5c-0.7-0.4-1.4-0.9-2-1.6v5.9h-1.4
					V336.5z M1280.8,337.6c-1.2,0-2.3,0.4-3.1,1.3c-0.8,0.9-1.3,1.9-1.3,3.2c0,0.8,0.2,1.6,0.6,2.3c0.4,0.7,0.9,1.2,1.6,1.6
					c0.7,0.4,1.4,0.6,2.2,0.6c0.8,0,1.5-0.2,2.1-0.6c0.7-0.4,1.2-0.9,1.6-1.7c0.4-0.7,0.6-1.4,0.6-2.2c0-0.8-0.2-1.5-0.6-2.2
					c-0.4-0.7-0.9-1.2-1.6-1.6C1282.3,337.8,1281.6,337.6,1280.8,337.6z"/>
				<path fill="#87868A" d="M1298.3,343.9l1.2,0.6c-0.4,0.8-0.8,1.4-1.4,1.9c-0.5,0.5-1.1,0.8-1.7,1.1c-0.6,0.2-1.4,0.4-2.2,0.4
					c-1.8,0-3.2-0.6-4.2-1.8c-1-1.2-1.5-2.5-1.5-4c0-1.4,0.4-2.6,1.3-3.7c1.1-1.4,2.5-2.1,4.4-2.1c1.9,0,3.4,0.7,4.5,2.1
					c0.8,1,1.2,2.3,1.2,3.8h-9.9c0,1.3,0.4,2.3,1.2,3.1c0.8,0.8,1.8,1.2,2.9,1.2c0.6,0,1.1-0.1,1.6-0.3c0.5-0.2,1-0.5,1.4-0.8
					C1297.4,345.1,1297.8,344.6,1298.3,343.9z M1298.3,340.9c-0.2-0.8-0.5-1.4-0.8-1.8c-0.4-0.5-0.8-0.8-1.4-1.1
					c-0.6-0.3-1.2-0.4-1.9-0.4c-1.1,0-2,0.3-2.8,1c-0.6,0.5-1,1.3-1.3,2.3H1298.3z"/>
				<path fill="#87868A" d="M1313.2,336.5v11h-1.4v-1.9c-0.6,0.7-1.3,1.3-2,1.6c-0.7,0.4-1.5,0.5-2.4,0.5c-1.6,0-2.9-0.6-4-1.7
					c-1.1-1.1-1.7-2.5-1.7-4.1c0-1.6,0.6-2.9,1.7-4.1c1.1-1.1,2.4-1.7,4-1.7c0.9,0,1.7,0.2,2.5,0.6c0.7,0.4,1.4,1,1.9,1.7v-2H1313.2
					z M1307.6,337.6c-0.8,0-1.5,0.2-2.2,0.6c-0.7,0.4-1.2,0.9-1.6,1.6c-0.4,0.7-0.6,1.4-0.6,2.2c0,0.8,0.2,1.5,0.6,2.2
					c0.4,0.7,0.9,1.3,1.6,1.7c0.7,0.4,1.4,0.6,2.2,0.6c0.8,0,1.5-0.2,2.2-0.6c0.7-0.4,1.2-0.9,1.6-1.6c0.4-0.7,0.6-1.4,0.6-2.3
					c0-1.3-0.4-2.3-1.3-3.2C1309.8,338,1308.8,337.6,1307.6,337.6z"/>
				<path fill="#87868A" d="M1316.2,336.5h1.4v2c0.6-0.8,1.2-1.3,1.9-1.7c0.7-0.4,1.4-0.6,2.2-0.6c0.8,0,1.6,0.2,2.2,0.6
					c0.6,0.4,1.1,1,1.4,1.7c0.3,0.7,0.5,1.8,0.5,3.3v5.7h-1.4v-5.2c0-1.3-0.1-2.1-0.2-2.5c-0.2-0.7-0.5-1.3-0.9-1.6
					s-1.1-0.5-1.8-0.5c-0.9,0-1.6,0.3-2.3,0.8c-0.7,0.6-1.1,1.3-1.3,2.1c-0.1,0.5-0.2,1.5-0.2,3v4h-1.4V336.5z"/>
				<path fill="#87868A" d="M1348.8,335.2l-1.2,1.1c-0.8-0.8-1.7-1.4-2.7-1.9c-1-0.4-1.9-0.6-2.9-0.6c-1.2,0-2.3,0.3-3.3,0.9
					c-1.1,0.6-1.9,1.3-2.5,2.3c-0.6,1-0.9,2-0.9,3.1c0,1.1,0.3,2.2,0.9,3.2c0.6,1,1.4,1.8,2.5,2.4c1.1,0.6,2.2,0.9,3.5,0.9
					c1.5,0,2.8-0.4,3.9-1.3c1.1-0.9,1.7-2,1.9-3.4h-4.7v-1.4h6.4c0,2.3-0.7,4.1-2,5.5c-1.4,1.4-3.2,2-5.4,2c-2.7,0-4.9-0.9-6.5-2.8
					c-1.2-1.4-1.8-3.1-1.8-5c0-1.4,0.4-2.7,1.1-3.9c0.7-1.2,1.7-2.2,2.9-2.8c1.2-0.7,2.6-1,4.2-1c1.3,0,2.4,0.2,3.6,0.7
					C1346.6,333.4,1347.7,334.2,1348.8,335.2z"/>
				<path fill="#87868A" d="M1352.3,347.5v-14.9h3.1c2.2,0,3.8,0.2,4.8,0.5c1.4,0.5,2.6,1.4,3.4,2.6c0.8,1.2,1.2,2.7,1.2,4.5
					c0,1.5-0.3,2.8-1,3.9c-0.6,1.1-1.5,2-2.5,2.5c-1,0.5-2.5,0.8-4.3,0.8H1352.3z M1353.7,346.1h1.7c2.1,0,3.5-0.1,4.3-0.4
					c1.1-0.4,2-1,2.6-2c0.6-0.9,1-2.1,1-3.5c0-1.4-0.3-2.7-1-3.7c-0.7-1-1.7-1.7-2.9-2.1c-0.9-0.3-2.5-0.4-4.6-0.4h-1.1V346.1z"/>
				<path fill="#87868A" d="M1367.5,332.7h3c1.7,0,2.8,0.1,3.4,0.2c0.8,0.2,1.5,0.6,2.1,1.3c0.5,0.7,0.8,1.5,0.8,2.5
					c0,1-0.3,1.8-0.8,2.4c-0.5,0.6-1.2,1.1-2.2,1.3c-0.7,0.2-1.9,0.2-3.8,0.2h-1.1v6.9h-1.5L1367.5,332.7z M1369,334.1v5l2.5,0
					c1,0,1.8-0.1,2.2-0.3c0.5-0.2,0.8-0.5,1.1-0.9c0.3-0.4,0.4-0.9,0.4-1.4c0-0.5-0.1-1-0.4-1.4c-0.3-0.4-0.6-0.7-1.1-0.9
					c-0.4-0.2-1.2-0.3-2.2-0.3H1369z"/>
				<path fill="#87868A" d="M1394.1,343.9l1.2,0.6c-0.4,0.8-0.8,1.4-1.4,1.9c-0.5,0.5-1.1,0.8-1.7,1.1c-0.6,0.2-1.4,0.4-2.2,0.4
					c-1.8,0-3.2-0.6-4.2-1.8c-1-1.2-1.5-2.5-1.5-4c0-1.4,0.4-2.6,1.3-3.7c1.1-1.4,2.5-2.1,4.4-2.1c1.9,0,3.4,0.7,4.5,2.1
					c0.8,1,1.2,2.3,1.2,3.8h-9.9c0,1.3,0.4,2.3,1.2,3.1c0.8,0.8,1.8,1.2,2.9,1.2c0.6,0,1.1-0.1,1.6-0.3c0.5-0.2,1-0.5,1.4-0.8
					C1393.3,345.1,1393.7,344.6,1394.1,343.9z M1394.1,340.9c-0.2-0.8-0.5-1.4-0.8-1.8c-0.4-0.5-0.8-0.8-1.4-1.1
					c-0.6-0.3-1.2-0.4-1.9-0.4c-1.1,0-2,0.3-2.8,1c-0.6,0.5-1,1.3-1.3,2.3H1394.1z"/>
				<path fill="#87868A" d="M1397.1,336.5h1.5l3.7,8l3.6-8h1.5l-5,11h-0.3L1397.1,336.5z"/>
				<path fill="#87868A" d="M1418.7,343.9l1.2,0.6c-0.4,0.8-0.8,1.4-1.4,1.9c-0.5,0.5-1.1,0.8-1.7,1.1c-0.6,0.2-1.4,0.4-2.2,0.4
					c-1.8,0-3.2-0.6-4.2-1.8c-1-1.2-1.5-2.5-1.5-4c0-1.4,0.4-2.6,1.3-3.7c1.1-1.4,2.5-2.1,4.4-2.1c1.9,0,3.4,0.7,4.5,2.1
					c0.8,1,1.2,2.3,1.2,3.8h-9.9c0,1.3,0.4,2.3,1.2,3.1c0.8,0.8,1.8,1.2,2.9,1.2c0.6,0,1.1-0.1,1.6-0.3c0.5-0.2,1-0.5,1.4-0.8
					C1417.9,345.1,1418.3,344.6,1418.7,343.9z M1418.7,340.9c-0.2-0.8-0.5-1.4-0.8-1.8c-0.4-0.5-0.8-0.8-1.4-1.1
					c-0.6-0.3-1.2-0.4-1.9-0.4c-1.1,0-2,0.3-2.8,1c-0.6,0.5-1,1.3-1.3,2.3H1418.7z"/>
				<path fill="#87868A" d="M1422.2,336.5h1.4v1.6c0.4-0.6,0.9-1.1,1.4-1.4c0.5-0.3,1-0.5,1.5-0.5c0.4,0,0.8,0.1,1.3,0.4l-0.7,1.2
					c-0.3-0.1-0.5-0.2-0.7-0.2c-0.5,0-0.9,0.2-1.4,0.6c-0.4,0.4-0.8,1-1,1.8c-0.2,0.6-0.3,1.9-0.3,3.8v3.7h-1.4V336.5z"/>
				<path fill="#87868A" d="M1427.6,336.5h1.5l3.8,8.5l3.7-8.5h1.5l-6.6,15h-1.5l2.1-4.9L1427.6,336.5z"/>
				<path fill="#87868A" d="M1444,336.5h1.5l3.8,8.5l3.7-8.5h1.5l-6.6,15h-1.5l2.1-4.9L1444,336.5z"/>
				<path fill="#87868A" d="M1465.4,343.9l1.2,0.6c-0.4,0.8-0.8,1.4-1.4,1.9c-0.5,0.5-1.1,0.8-1.7,1.1c-0.6,0.2-1.4,0.4-2.2,0.4
					c-1.8,0-3.2-0.6-4.2-1.8c-1-1.2-1.5-2.5-1.5-4c0-1.4,0.4-2.6,1.3-3.7c1.1-1.4,2.5-2.1,4.4-2.1c1.9,0,3.4,0.7,4.5,2.1
					c0.8,1,1.2,2.3,1.2,3.8h-9.9c0,1.3,0.4,2.3,1.2,3.1c0.8,0.8,1.8,1.2,2.9,1.2c0.6,0,1.1-0.1,1.6-0.3c0.5-0.2,1-0.5,1.4-0.8
					C1464.5,345.1,1464.9,344.6,1465.4,343.9z M1465.4,340.9c-0.2-0.8-0.5-1.4-0.8-1.8c-0.4-0.5-0.8-0.8-1.4-1.1
					c-0.6-0.3-1.2-0.4-1.9-0.4c-1.1,0-2,0.3-2.8,1c-0.6,0.5-1,1.3-1.3,2.3H1465.4z"/>
				<path fill="#87868A" d="M1480.3,336.5v11h-1.4v-1.9c-0.6,0.7-1.3,1.3-2,1.6c-0.7,0.4-1.5,0.5-2.4,0.5c-1.6,0-2.9-0.6-4-1.7
					c-1.1-1.1-1.7-2.5-1.7-4.1c0-1.6,0.6-2.9,1.7-4.1c1.1-1.1,2.4-1.7,4-1.7c0.9,0,1.7,0.2,2.5,0.6c0.7,0.4,1.4,1,1.9,1.7v-2H1480.3
					z M1474.7,337.6c-0.8,0-1.5,0.2-2.2,0.6c-0.7,0.4-1.2,0.9-1.6,1.6c-0.4,0.7-0.6,1.4-0.6,2.2c0,0.8,0.2,1.5,0.6,2.2
					c0.4,0.7,0.9,1.3,1.6,1.7c0.7,0.4,1.4,0.6,2.2,0.6c0.8,0,1.5-0.2,2.2-0.6c0.7-0.4,1.2-0.9,1.6-1.6c0.4-0.7,0.6-1.4,0.6-2.3
					c0-1.3-0.4-2.3-1.3-3.2C1476.9,338,1475.9,337.6,1474.7,337.6z"/>
				<path fill="#87868A" d="M1482.8,336.5h1.4v1.6c0.4-0.6,0.9-1.1,1.4-1.4c0.5-0.3,1-0.5,1.5-0.5c0.4,0,0.8,0.1,1.3,0.4l-0.7,1.2
					c-0.3-0.1-0.5-0.2-0.7-0.2c-0.5,0-0.9,0.2-1.4,0.6c-0.4,0.4-0.8,1-1,1.8c-0.2,0.6-0.3,1.9-0.3,3.8v3.7h-1.4V336.5z"/>
			</g>
			<g>
				<path fill="#87868A" d="M433.7,725.4h1.2l-0.3,2.7l2.2-1.6l0.6,1l-2.5,1.1l2.5,1.1l-0.6,1l-2.2-1.6l0.3,2.7h-1.2l0.3-2.7
					l-2.2,1.6l-0.6-1l2.6-1.1l-2.6-1.1l0.6-1l2.2,1.6L433.7,725.4z"/>
				<path fill="#87868A" d="M438.3,727v-1.3h7.3v1.3h-3l0,12.1h-1.4l0-12.1H438.3z"/>
				<path fill="#87868A" d="M451,728.9c1.5,0,2.8,0.6,3.8,1.7c0.9,1,1.4,2.2,1.4,3.6c0,1.4-0.5,2.6-1.4,3.6c-1,1-2.2,1.5-3.7,1.5
					c-1.5,0-2.8-0.5-3.7-1.5c-1-1-1.4-2.2-1.4-3.6c0-1.4,0.5-2.6,1.4-3.6C448.2,729.5,449.5,728.9,451,728.9z M451,730.2
					c-1.1,0-2,0.4-2.7,1.2c-0.8,0.8-1.1,1.7-1.1,2.8c0,0.7,0.2,1.4,0.5,2c0.3,0.6,0.8,1.1,1.4,1.4c0.6,0.3,1.2,0.5,1.9,0.5
					c0.7,0,1.4-0.2,1.9-0.5c0.6-0.3,1.1-0.8,1.4-1.4c0.3-0.6,0.5-1.3,0.5-2c0-1.1-0.4-2.1-1.1-2.8C452.9,730.6,452,730.2,451,730.2z
					"/>
				<path fill="#87868A" d="M464.4,725.5h1.3l0,3.7h2v1.1h-2l0,8.8h-1.3l0-8.8h-1.7v-1.1h1.7L464.4,725.5z"/>
				<path fill="#87868A" d="M469.5,725.4h1.3l0,5.6c0.5-0.7,1.1-1.2,1.7-1.5c0.6-0.3,1.3-0.5,2-0.5c0.7,0,1.4,0.2,2,0.6
					c0.6,0.4,1,0.9,1.3,1.5c0.3,0.6,0.4,1.6,0.4,3v5.1h-1.3v-4.7c0-1.1,0-1.9-0.1-2.3c-0.2-0.7-0.4-1.1-0.9-1.5
					c-0.4-0.3-1-0.5-1.6-0.5c-0.8,0-1.5,0.3-2.1,0.8c-0.6,0.5-1,1.1-1.2,1.9c-0.1,0.5-0.2,1.4-0.2,2.7l0,3.6h-1.3L469.5,725.4z"/>
				<path fill="#87868A" d="M489,735.8l1.1,0.6c-0.4,0.7-0.8,1.2-1.2,1.7c-0.5,0.4-1,0.7-1.6,1c-0.6,0.2-1.2,0.3-2,0.3
					c-1.6,0-2.9-0.5-3.8-1.6c-0.9-1.1-1.4-2.3-1.4-3.6c0-1.3,0.4-2.4,1.2-3.4c1-1.2,2.3-1.9,3.9-1.9c1.7,0,3,0.6,4,1.9
					c0.7,0.9,1.1,2,1.1,3.4h-8.9c0,1.1,0.4,2.1,1.1,2.8c0.7,0.7,1.6,1.1,2.6,1.1c0.5,0,1-0.1,1.5-0.3c0.5-0.2,0.9-0.4,1.2-0.7
					C488.2,736.9,488.6,736.5,489,735.8z M489,733.1c-0.2-0.7-0.4-1.2-0.7-1.6c-0.3-0.4-0.8-0.7-1.3-1c-0.5-0.2-1.1-0.4-1.7-0.4
					c-1,0-1.8,0.3-2.5,0.9c-0.5,0.5-0.9,1.1-1.2,2H489z"/>
				<path fill="#87868A" d="M497.8,725.7h7.7v1.3h-6.3l0,4.2h6.3v1.3h-6.3l0,5.3h6.3l0,1.3h-7.6L497.8,725.7z"/>
				<path fill="#87868A" d="M507.2,729.2h1.3v4.6c0,1.1,0.1,1.9,0.2,2.3c0.2,0.6,0.5,1.1,1,1.4c0.5,0.4,1.1,0.5,1.8,0.5
					c0.7,0,1.3-0.2,1.8-0.5c0.5-0.3,0.8-0.8,1-1.3c0.1-0.4,0.2-1.2,0.2-2.4l0-4.6h1.3v4.9c0,1.4-0.2,2.4-0.5,3.1
					c-0.3,0.7-0.8,1.2-1.4,1.6c-0.6,0.4-1.4,0.6-2.4,0.6c-1,0-1.8-0.2-2.4-0.6c-0.6-0.4-1.1-0.9-1.4-1.6c-0.3-0.7-0.5-1.8-0.5-3.2
					L507.2,729.2z"/>
				<path fill="#87868A" d="M518,729.2h1.3v1.4c0.4-0.6,0.8-1,1.2-1.3c0.4-0.3,0.9-0.4,1.3-0.4c0.4,0,0.7,0.1,1.1,0.3l-0.7,1.1
					c-0.3-0.1-0.5-0.2-0.7-0.2c-0.4,0-0.8,0.2-1.2,0.5c-0.4,0.3-0.7,0.9-0.9,1.6c-0.2,0.6-0.2,1.7-0.2,3.4v3.3H518L518,729.2z"/>
				<path fill="#87868A" d="M528.5,728.9c1.5,0,2.8,0.6,3.8,1.7c0.9,1,1.4,2.2,1.4,3.6c0,1.4-0.5,2.6-1.4,3.6c-1,1-2.2,1.5-3.7,1.5
					c-1.5,0-2.8-0.5-3.7-1.5c-1-1-1.4-2.2-1.4-3.6c0-1.4,0.5-2.6,1.4-3.6C525.8,729.5,527,728.9,528.5,728.9z M528.5,730.2
					c-1.1,0-2,0.4-2.7,1.2c-0.8,0.8-1.1,1.7-1.1,2.8c0,0.7,0.2,1.4,0.5,2c0.3,0.6,0.8,1.1,1.4,1.4c0.6,0.3,1.2,0.5,1.9,0.5
					c0.7,0,1.4-0.2,1.9-0.5c0.6-0.3,1.1-0.8,1.4-1.4c0.3-0.6,0.5-1.3,0.5-2c0-1.1-0.4-2.1-1.1-2.8
					C530.5,730.6,529.6,730.2,528.5,730.2z"/>
				<path fill="#87868A" d="M535.9,729.2h1.3v1.8c0.5-0.7,1.1-1.2,1.7-1.6c0.7-0.3,1.4-0.5,2.2-0.5c1.4,0,2.6,0.5,3.6,1.5
					c1,1,1.5,2.2,1.5,3.7c0,1.5-0.5,2.7-1.5,3.7c-1,1-2.2,1.5-3.6,1.5c-0.8,0-1.5-0.2-2.2-0.5c-0.7-0.3-1.3-0.8-1.8-1.5l0,5.3h-1.3
					L535.9,729.2z M541,730.2c-1.1,0-2,0.4-2.8,1.2c-0.8,0.8-1.1,1.7-1.1,2.9c0,0.8,0.2,1.4,0.5,2c0.3,0.6,0.8,1.1,1.4,1.4
					c0.6,0.4,1.3,0.5,2,0.5c0.7,0,1.3-0.2,1.9-0.5c0.6-0.4,1.1-0.8,1.4-1.5c0.4-0.6,0.5-1.3,0.5-2c0-0.7-0.2-1.4-0.5-2
					c-0.4-0.6-0.8-1.1-1.4-1.5C542.4,730.3,541.7,730.2,541,730.2z"/>
				<path fill="#87868A" d="M556.7,735.8l1.1,0.6c-0.4,0.7-0.8,1.2-1.2,1.7c-0.5,0.4-1,0.7-1.6,1c-0.6,0.2-1.2,0.3-2,0.3
					c-1.6,0-2.9-0.5-3.8-1.6c-0.9-1.1-1.4-2.3-1.4-3.6c0-1.3,0.4-2.4,1.2-3.4c1-1.2,2.3-1.9,3.9-1.9c1.7,0,3,0.6,4,1.9
					c0.7,0.9,1.1,2,1.1,3.4h-8.9c0,1.1,0.4,2.1,1.1,2.8c0.7,0.7,1.6,1.1,2.6,1.1c0.5,0,1-0.1,1.5-0.3c0.5-0.2,0.9-0.4,1.2-0.7
					C556,736.9,556.4,736.5,556.7,735.8z M556.7,733.1c-0.2-0.7-0.4-1.2-0.7-1.6c-0.3-0.4-0.8-0.7-1.3-1c-0.5-0.2-1.1-0.4-1.7-0.4
					c-1,0-1.8,0.3-2.5,0.9c-0.5,0.5-0.9,1.1-1.2,2H556.7z"/>
				<path fill="#87868A" d="M570.2,729.2l0,9.9h-1.3v-1.7c-0.5,0.6-1.1,1.1-1.8,1.5c-0.7,0.3-1.4,0.5-2.2,0.5
					c-1.4,0-2.6-0.5-3.6-1.5c-1-1-1.5-2.2-1.5-3.7c0-1.4,0.5-2.6,1.5-3.7c1-1,2.2-1.5,3.6-1.5c0.8,0,1.5,0.2,2.2,0.5
					c0.7,0.3,1.2,0.9,1.7,1.6v-1.8H570.2z M565.1,730.2c-0.7,0-1.4,0.2-2,0.5c-0.6,0.3-1.1,0.8-1.4,1.5c-0.4,0.6-0.5,1.3-0.5,2
					c0,0.7,0.2,1.4,0.5,2c0.4,0.6,0.8,1.1,1.4,1.5c0.6,0.4,1.2,0.5,1.9,0.5c0.7,0,1.4-0.2,2-0.5c0.6-0.4,1.1-0.8,1.4-1.4
					c0.3-0.6,0.5-1.3,0.5-2c0-1.1-0.4-2.1-1.1-2.9C567.1,730.6,566.2,730.2,565.1,730.2z"/>
				<path fill="#87868A" d="M572.9,729.2h1.3v1.8c0.5-0.7,1.1-1.2,1.7-1.5c0.6-0.3,1.3-0.5,2-0.5c0.7,0,1.4,0.2,2,0.6
					c0.6,0.4,1,0.9,1.3,1.5c0.3,0.6,0.4,1.6,0.4,3l0,5.1h-1.3l0-4.7c0-1.1,0-1.9-0.1-2.3c-0.1-0.7-0.4-1.1-0.8-1.5
					c-0.4-0.3-1-0.5-1.6-0.5c-0.8,0-1.5,0.3-2.1,0.8c-0.6,0.5-1,1.1-1.2,1.9c-0.1,0.5-0.2,1.4-0.2,2.7v3.6h-1.3L572.9,729.2z"/>
				<path fill="#87868A" d="M602.2,728l-1,1c-0.7-0.7-1.6-1.3-2.4-1.7c-0.9-0.4-1.8-0.6-2.6-0.6c-1,0-2,0.3-3,0.8
					c-0.9,0.5-1.7,1.2-2.2,2.1c-0.5,0.9-0.8,1.8-0.8,2.8c0,1,0.3,2,0.8,2.9c0.5,0.9,1.3,1.6,2.2,2.1c1,0.5,2,0.8,3.1,0.8
					c1.4,0,2.5-0.4,3.5-1.2c1-0.8,1.5-1.8,1.7-3h-4.3v-1.3h5.8c0,2.1-0.6,3.7-1.8,4.9c-1.2,1.2-2.8,1.8-4.9,1.8
					c-2.5,0-4.4-0.8-5.9-2.5c-1.1-1.3-1.7-2.8-1.7-4.5c0-1.3,0.3-2.4,1-3.5c0.6-1.1,1.5-1.9,2.6-2.6c1.1-0.6,2.4-0.9,3.8-0.9
					c1.1,0,2.2,0.2,3.2,0.6C600.2,726.4,601.2,727.1,602.2,728z"/>
				<path fill="#87868A" d="M605.3,739.1l0-13.4h2.8c2,0,3.5,0.2,4.4,0.5c1.3,0.5,2.3,1.2,3,2.4c0.7,1.1,1.1,2.5,1.1,4
					c0,1.3-0.3,2.5-0.9,3.5c-0.6,1-1.3,1.8-2.3,2.3c-0.9,0.5-2.2,0.7-3.9,0.7H605.3z M606.6,737.8h1.5c1.8,0,3.1-0.1,3.8-0.3
					c1-0.3,1.8-0.9,2.4-1.8c0.6-0.9,0.9-1.9,0.9-3.1c0-1.3-0.3-2.4-0.9-3.3c-0.6-0.9-1.5-1.5-2.6-1.9c-0.8-0.3-2.2-0.4-4.1-0.4h-0.9
					L606.6,737.8z"/>
				<path fill="#87868A" d="M619,725.7h2.7c1.5,0,2.6,0.1,3.1,0.2c0.8,0.2,1.4,0.6,1.9,1.2c0.5,0.6,0.7,1.3,0.7,2.2
					c0,0.9-0.2,1.6-0.7,2.2c-0.5,0.6-1.1,1-2,1.2c-0.6,0.1-1.7,0.2-3.4,0.2h-1l0,6.2H619L619,725.7z M620.3,727l0,4.5l2.3,0
					c0.9,0,1.6-0.1,2-0.2c0.4-0.2,0.8-0.4,1-0.8c0.2-0.4,0.4-0.8,0.4-1.2c0-0.4-0.1-0.9-0.4-1.2c-0.2-0.4-0.6-0.6-1-0.8
					c-0.4-0.2-1-0.2-1.9-0.2H620.3z"/>
				<path fill="#87868A" d="M643,735.8l1.1,0.6c-0.4,0.7-0.8,1.2-1.2,1.7c-0.5,0.4-1,0.7-1.6,1c-0.6,0.2-1.2,0.3-2,0.3
					c-1.6,0-2.9-0.5-3.8-1.6c-0.9-1.1-1.4-2.3-1.4-3.6c0-1.3,0.4-2.4,1.2-3.4c1-1.2,2.3-1.9,3.9-1.9c1.7,0,3,0.6,4,1.9
					c0.7,0.9,1.1,2,1.1,3.4h-8.9c0,1.1,0.4,2.1,1.1,2.8c0.7,0.7,1.6,1.1,2.6,1.1c0.5,0,1-0.1,1.5-0.3c0.5-0.2,0.9-0.4,1.2-0.7
					C642.2,736.9,642.6,736.5,643,735.8z M643,733.1c-0.2-0.7-0.4-1.2-0.7-1.6c-0.3-0.4-0.8-0.7-1.3-1c-0.5-0.2-1.1-0.4-1.7-0.4
					c-1,0-1.8,0.3-2.5,0.9c-0.5,0.5-0.9,1.1-1.2,2H643z"/>
				<path fill="#87868A" d="M645.6,729.2h1.4l3.3,7.2l3.3-7.2h1.4l-4.5,9.9h-0.2L645.6,729.2z"/>
				<path fill="#87868A" d="M665,735.8l1.1,0.6c-0.4,0.7-0.8,1.2-1.2,1.7c-0.5,0.4-1,0.7-1.6,1c-0.6,0.2-1.2,0.3-2,0.3
					c-1.6,0-2.9-0.5-3.8-1.6c-0.9-1.1-1.4-2.3-1.4-3.6c0-1.3,0.4-2.4,1.2-3.4c1-1.2,2.3-1.9,3.9-1.9c1.7,0,3,0.6,4,1.9
					c0.7,0.9,1.1,2,1.1,3.4h-8.9c0,1.1,0.4,2.1,1.1,2.8c0.7,0.7,1.6,1.1,2.6,1.1c0.5,0,1-0.1,1.5-0.3c0.5-0.2,0.9-0.4,1.2-0.7
					C664.3,736.9,664.7,736.5,665,735.8z M665,733.1c-0.2-0.7-0.4-1.2-0.7-1.6c-0.3-0.4-0.8-0.7-1.3-1c-0.5-0.2-1.1-0.4-1.7-0.4
					c-1,0-1.8,0.3-2.5,0.9c-0.5,0.5-0.9,1.1-1.2,2H665z"/>
				<path fill="#87868A" d="M668.2,729.2h1.3v1.4c0.4-0.6,0.8-1,1.2-1.3c0.4-0.3,0.9-0.4,1.3-0.4c0.4,0,0.7,0.1,1.1,0.3l-0.7,1.1
					c-0.3-0.1-0.5-0.2-0.7-0.2c-0.4,0-0.8,0.2-1.2,0.5c-0.4,0.3-0.7,0.9-0.9,1.6c-0.2,0.6-0.2,1.7-0.2,3.4v3.3h-1.3L668.2,729.2z"/>
				<path fill="#87868A" d="M673,729.2h1.3l3.4,7.6l3.3-7.6h1.4l-5.9,13.5h-1.3l1.9-4.4L673,729.2z"/>
				<path fill="#87868A" d="M687.8,729.2h1.3l3.4,7.6l3.3-7.6h1.4l-5.9,13.5H690l1.9-4.4L687.8,729.2z"/>
				<path fill="#87868A" d="M707,735.8l1.1,0.6c-0.4,0.7-0.8,1.2-1.2,1.7c-0.5,0.4-1,0.7-1.6,1c-0.6,0.2-1.2,0.3-2,0.3
					c-1.6,0-2.9-0.5-3.8-1.6c-0.9-1.1-1.4-2.3-1.4-3.6c0-1.3,0.4-2.4,1.2-3.4c1-1.2,2.3-1.9,3.9-1.9c1.7,0,3,0.6,4,1.9
					c0.7,0.9,1.1,2,1.1,3.4h-8.9c0,1.1,0.4,2.1,1.1,2.8c0.7,0.7,1.6,1.1,2.6,1.1c0.5,0,1-0.1,1.5-0.3c0.5-0.2,0.9-0.4,1.2-0.7
					C706.3,736.9,706.6,736.5,707,735.8z M707,733.1c-0.2-0.7-0.4-1.2-0.7-1.6c-0.3-0.4-0.8-0.7-1.3-1c-0.5-0.2-1.1-0.4-1.7-0.4
					c-1,0-1.8,0.3-2.5,0.9c-0.5,0.5-0.9,1.1-1.2,2H707z"/>
				<path fill="#87868A" d="M720.5,729.2l0,9.9h-1.3v-1.7c-0.5,0.6-1.1,1.1-1.8,1.5c-0.7,0.3-1.4,0.5-2.2,0.5
					c-1.4,0-2.6-0.5-3.6-1.5c-1-1-1.5-2.2-1.5-3.7c0-1.4,0.5-2.6,1.5-3.7c1-1,2.2-1.5,3.6-1.5c0.8,0,1.5,0.2,2.2,0.5
					c0.7,0.3,1.2,0.9,1.7,1.6l0-1.8H720.5z M715.4,730.2c-0.7,0-1.4,0.2-2,0.5s-1.1,0.8-1.4,1.5c-0.4,0.6-0.5,1.3-0.5,2
					c0,0.7,0.2,1.4,0.5,2c0.4,0.6,0.8,1.1,1.4,1.5c0.6,0.4,1.2,0.5,1.9,0.5c0.7,0,1.4-0.2,2-0.5c0.6-0.4,1.1-0.8,1.4-1.4
					c0.3-0.6,0.5-1.3,0.5-2c0-1.1-0.4-2.1-1.1-2.9C717.4,730.6,716.5,730.2,715.4,730.2z"/>
				<path fill="#87868A" d="M722.7,729.2h1.3v1.4c0.4-0.6,0.8-1,1.2-1.3c0.4-0.3,0.9-0.4,1.3-0.4c0.4,0,0.7,0.1,1.1,0.3l-0.7,1.1
					c-0.3-0.1-0.5-0.2-0.7-0.2c-0.4,0-0.8,0.2-1.2,0.5c-0.4,0.3-0.7,0.9-0.9,1.6c-0.2,0.6-0.2,1.7-0.2,3.4l0,3.3h-1.3L722.7,729.2z"
					/>
			</g>
		</g>
		<g>
			<path fill="#8CC640" d="M935.7,102.8c0-12.1-6.1-22.8-15.4-29.2v0l-0.2-0.2c0,0,0,0,0,0l-0.4-0.3c-0.8-0.5-1.5-1-2.3-1.4
				c-0.3-0.2-0.6-0.3-0.9-0.4c-0.6-0.3-1.3-0.6-1.9-0.9c-0.4-0.2-0.7-0.3-1.1-0.5c-0.7-0.3-1.3-0.5-2-0.7c-0.3-0.1-0.6-0.2-0.9-0.3
				c-1-0.3-1.9-0.5-2.9-0.8c-0.3-0.1-0.6-0.1-0.9-0.2c-0.8-0.1-1.6-0.3-2.4-0.4c-0.3,0-0.6-0.1-1-0.1c-1.1-0.1-2.1-0.2-3.2-0.2
				c-1.1,0-2.2,0.1-3.3,0.2c-0.3,0-0.6,0.1-0.9,0.1c-0.8,0.1-1.7,0.2-2.5,0.4c-0.3,0-0.5,0.1-0.8,0.1c-2.1,0.4-4.2,1.1-6.1,1.9
				c-0.2,0.1-0.4,0.2-0.6,0.3c-0.8,0.4-1.6,0.8-2.4,1.2c-0.2,0.1-0.3,0.2-0.5,0.3c-1,0.5-1.9,1.1-2.8,1.7l-0.7,0.5l0,0.1
				c-1.1,0.8-2.2,1.7-3.2,2.6l-4.8-4.9l-1.2,1.2c-8,8-12.4,18.6-12.4,29.9c0,11.3,4.4,21.9,12.4,29.9c7.6,7.6,17.5,11.9,28.2,12.3
				v15.3h-16.9v8.5h37.2v-8.5H902V145c10.7-0.4,20.6-4.8,28.2-12.3l1.2-1.2l-4.9-4.8C932.2,120.4,935.7,112,935.7,102.8L935.7,102.8
				z M882.9,75.8c1.5-1,3-1.8,4.6-2.5c0.2-0.1,0.3-0.1,0.5-0.2c0.8-0.3,1.6-0.6,2.4-0.9c0.1-0.1,0.3-0.1,0.4-0.1
				c0.9-0.3,1.9-0.5,2.8-0.7c0.2,0,0.3-0.1,0.5-0.1c0.8-0.2,1.6-0.3,2.4-0.4c0.3,0,0.5-0.1,0.8-0.1c1-0.1,1.9-0.1,2.9-0.1
				c1,0,1.9,0.1,2.9,0.1c0.2,0,0.5,0,0.7,0.1c0.9,0.1,1.8,0.2,2.7,0.4c0.2,0,0.3,0.1,0.5,0.1c0.8,0.2,1.5,0.4,2.2,0.6
				c0.3,0.1,0.6,0.2,0.9,0.3c0.8,0.3,1.6,0.6,2.4,0.9c0.2,0.1,0.4,0.2,0.6,0.3c0.6,0.3,1.2,0.6,1.9,0.9c0.3,0.2,0.6,0.3,0.9,0.5
				c0.1,0.1,0.3,0.2,0.4,0.2c-5.3,1.9-8.3,4.1-11.7,8.6c-0.2,0.3-0.4,0.6-0.5,0.9c-0.2-0.2-0.4-0.4-0.6-0.5
				c-1.2-0.8-2.8-0.8-4.7,0.1l-0.2,0c-2.4,0.3-4.1,0.5-4.2,3.4c-0.1,1.5,0.7,2.9,2,3.7c0.2,0.1,0.5,0.3,0.8,0.4
				c0,0.1,0.1,0.1,0.1,0.2l0.4,0.6c-0.8-0.2-1.7-0.3-2.5-0.5c-1-0.2-2-0.3-2.9-0.7c-3.6-1.4-6.3-7.5-8.3-12
				c-0.4-0.9-0.7-1.7-1.1-2.5C882.9,76.4,882.9,76.1,882.9,75.8L882.9,75.8z M906.8,112.8c-3.2-2.6-4.4-6.4-3.1-9.7
				c0.7-1.7,0-3.5-1.6-4.5c-0.1-0.2-0.1-0.7-0.2-1c-0.1-0.9-0.3-1.9-0.8-2.9c0.3,0.2,0.6,0.4,0.9,0.5c0.3,0.1,0.4,0.2,0.4,0.3
				c0.4,1.5,1.4,2.5,2.7,3c1.2,0.4,2.6,0.2,3.7-0.7c0.3-0.2,0.4-0.3,1.7,0.3c0.9,0.4,2,1,3.5,1.1c0.9,0.9,1.6,2.1,2.3,3.3
				c1.1,1.8,2.2,3.7,4,4.7c0.6,0.3,0.2,2.3-1.1,6c-0.1,0.3-0.2,0.7-0.4,0.9c-1.7,1.4-2.8,2.9-3.9,4.4c-1,1.4-1.9,2.7-3.3,3.9
				c-2.2,1.9-4,3-6.3,3.7C907.8,121.9,910.5,115.9,906.8,112.8L906.8,112.8z M899.4,87.7l-1.2,0.7c0,0-0.1,0-0.3-0.2
				c-0.2-0.1-0.2-0.4-0.2-0.5c0,0,0-0.1,0-0.1c0.3,0,0.8-0.1,1.2-0.1l0.8-0.1l0.2-0.1c1.3-0.6,1.7-0.4,1.7-0.4c0,0,0.4,0.4,0.3,1.9
				l0,0.5c-0.3-0.1-0.7-0.2-1.3-0.3c-0.1-0.1-0.2-0.3-0.3-0.4L899.4,87.7z M900.2,93.5c-0.2-0.2-0.5-0.4-0.7-0.5
				c-0.3-0.2-0.6-0.3-0.9-0.4l0.5-0.1c0.3-0.1,0.7-0.1,0.9-0.1C899.9,92.8,900,93.2,900.2,93.5L900.2,93.5z M879.8,78.1
				c0,0.1,0,0.1,0.1,0.2c0.3,0.7,0.7,1.5,1,2.3c2.3,5.3,5.2,11.9,10.2,13.8c1.3,0.5,2.6,0.7,3.7,0.8c1.2,0.2,2.2,0.3,3.2,0.8
				c0,0,0.1,0.1,0.1,0.1c0.3,0.5,0.4,1.3,0.5,2c0.2,1.2,0.4,2.7,1.7,3.4c0.2,0.1,0.3,0.2,0.3,0.3c-1.9,4.6-0.3,9.9,4,13.5
				c0.7,0.6,1.5,2.6-2.2,9.1c-0.7,1.3-0.6,2.8,0.4,3.9c0.7,0.8,1.6,1.2,2.6,1.2c0.4,0,0.8-0.1,1.2-0.2c2.6-0.9,4.8-2.2,7.3-4.4
				c1.8-1.5,2.9-3.1,3.9-4.5c1-1.5,1.9-2.8,3.5-3.9l0.5-0.4l0.2-0.5c0.1-0.4,0.3-0.8,0.5-1.3c1.2-3.1,3.2-8.3-0.5-10.2
				c-1-0.5-1.8-1.8-2.7-3.4c-0.7-1.3-1.6-2.7-2.8-3.9c-0.5-0.5-1.2-0.9-2.1-1c-0.9-0.1-1.7-0.5-2.4-0.8c-1.3-0.6-3.1-1.5-5.2,0
				c-0.1,0.1-0.4,0.3-0.6,0.2c-0.2-0.1-0.4-0.3-0.5-0.7c-0.4-1.3-1.2-2.1-2.5-2.5c0.2-0.6,0.2-1.1-0.1-1.6l0.2,0
				c1.5,0.2,2.6-0.1,3.4-0.9c0.8-0.9,0.9-2.1,0.5-3.7c0,0,0-0.1,0-0.2c3.2-4.2,5.7-6,10.9-7.7c0.5-0.2,0.9-0.5,1.3-0.8
				c7.8,5.9,12.9,15.2,12.9,25.7c0,17.7-14.4,32.1-32.1,32.1c-17.7,0-32.1-14.4-32.1-32.1C868.1,92.9,872.7,84,879.8,78.1
				L879.8,78.1z M915.5,163.7v1.7H885v-1.7H915.5z M926.5,131.5c-15.2,14-39,13.6-53.8-1.2c-7.3-7.3-11.4-17.1-11.4-27.5
				c0-9.8,3.6-19.1,10.2-26.3L874,79c-5.7,6.3-9.3,14.7-9.3,23.8c0,19.6,15.9,35.5,35.5,35.5c9.2,0,17.5-3.5,23.8-9.3L926.5,131.5z
				 M926.5,131.5"/>
		</g>
	</g>
	<g>
		<path fill-rule="evenodd" clip-rule="evenodd" fill="#51A332" d="M822,365.2c-12.8,0-23.2,10.5-23.2,23.2
			c0,12.8,10.5,23.2,23.2,23.2c12.8,0,23.2-10.5,23.2-23.2C845.2,375.7,834.8,365.2,822,365.2L822,365.2z"/>
		<path fill-rule="evenodd" clip-rule="evenodd" fill="#51A332" d="M743.6,381.5l-45.3,76.7l87.7,0c-25.6-12.8-43-39.5-43-69.7
			C743,385.6,743,383.8,743.6,381.5L743.6,381.5z"/>
		<path fill-rule="evenodd" clip-rule="evenodd" fill="#51A332" d="M858.6,458.2l87.1,0L901,380.9c0,2.3,0,5.2,0,7.5
			C901,418.7,883.6,445.4,858.6,458.2L858.6,458.2z"/>
		<path fill-rule="evenodd" clip-rule="evenodd" fill="#51A332" d="M822,246.2l44.7,76.7c-12.8-8.7-28.5-13.9-44.7-13.9
			c-16.8,0-31.9,5.8-44.7,14.5L822,246.2L822,246.2z"/>
	</g>
</g>
</svg>
