<?xml version="1.0" encoding="utf-8"?>
<!-- Generator: Adobe Illustrator 18.0.0, SVG Export Plug-In . SVG Version: 6.00 Build 0)  -->
<!DOCTYPE svg PUBLIC "-//W3C//DTD SVG 1.1//EN" "http://www.w3.org/Graphics/SVG/1.1/DTD/svg11.dtd">
<svg version="1.1" id="Sustainability_Vision" xmlns="http://www.w3.org/2000/svg" xmlns:xlink="http://www.w3.org/1999/xlink"
	 x="0px" y="0px" viewBox="0 0 96 122" enable-background="new 0 0 96 122" xml:space="preserve">
<g>
	<g>
		<path fill="#DFE0DE" d="M35.9,57.6c1.7-0.1,3.1-0.4,4.1-1c1.4-0.8,2.4-1.9,3.1-3.3c0.7-1.4,1.1-3.4,1.3-6c0.1-1.3,0.1-4.2,0.1-8.8
			c0-4.6,0.3-7.9,0.9-9.9c0.6-2,1.4-3.6,2.6-4.7c1.2-1.2,2.7-2,4.5-2.6c1.1-0.3,2.8-0.5,5.2-0.5h2.3v6.6h-1.3
			c-2.9,0-4.8,0.5-5.8,1.6c-0.9,1.1-1.4,3.4-1.4,7c0,6.5-0.1,10.6-0.3,12.4c-0.4,3.4-1.2,6.1-2.4,7.9c-1.3,1.8-3.3,3.4-6,4.7
			c3.1,1.3,5.3,3.3,6.7,5.9c1.4,2.6,2.1,6.9,2.1,12.9c0,5.4,0.1,8.5,0.2,9.5c0.2,1.5,0.5,2.7,1,3.5c0.4,0.6,1,1,1.9,1.3
			c0.8,0.3,2.6,0.5,5.4,0.5v6.6h-2.3c-2.8,0-4.8-0.2-6.1-0.7c-1.9-0.7-3.4-1.8-4.5-3.4c-1.1-1.5-1.9-3.6-2.2-6.2
			c-0.2-1.8-0.4-5.3-0.4-10.3c0-5.1-0.3-8.6-0.9-10.4c-0.5-1.8-1.5-3.2-2.8-4.2c-1.3-1-3-1.5-5-1.6V57.6z"/>
	</g>
</g>
</svg>
