<?xml version="1.0" encoding="utf-8"?>
<!-- Generator: Adobe Illustrator 18.0.0, SVG Export Plug-In . SVG Version: 6.00 Build 0)  -->
<!DOCTYPE svg PUBLIC "-//W3C//DTD SVG 1.1//EN" "http://www.w3.org/Graphics/SVG/1.1/DTD/svg11.dtd" [
	<!ENTITY ns_flows "http://ns.adobe.com/Flows/1.0/">
	<!ENTITY ns_extend "http://ns.adobe.com/Extensibility/1.0/">
	<!ENTITY ns_ai "http://ns.adobe.com/AdobeIllustrator/10.0/">
	<!ENTITY ns_graphs "http://ns.adobe.com/Graphs/1.0/">
]>
<svg version="1.1" xmlns:x="&ns_extend;" xmlns:i="&ns_ai;" xmlns:graph="&ns_graphs;"
	 xmlns="http://www.w3.org/2000/svg" xmlns:xlink="http://www.w3.org/1999/xlink" xmlns:a="http://ns.adobe.com/AdobeSVGViewerExtensions/3.0/"
	 x="0px" y="0px" viewBox="0 0 1905 873.2" enable-background="new 0 0 1905 873.2" xml:space="preserve">
<g id="_x30_">
</g>
<g id="_x31_">
</g>
<g id="Layer_4">
	<g>
		<g>
			<g>
				<rect x="3.9" y="-1.1" fill="#FFFFFF" width="1898.7" height="875.6"/>
			</g>
		</g>
		<g opacity="0.5">
			<defs>
				<rect id="SVGID_151_" x="11.4" y="-1.1" opacity="0.5" width="1898.7" height="874.6"/>
			</defs>
			<clipPath id="SVGID_2_">
				<use xlink:href="#SVGID_151_"  overflow="visible"/>
			</clipPath>
			<g opacity="8.000000e-02" clip-path="url(#SVGID_2_)">
				<circle fill="none" stroke="#868686" stroke-width="11.5522" stroke-miterlimit="10" cx="108.8" cy="553" r="15.7"/>
				<circle fill="none" stroke="#868686" stroke-width="11.5522" stroke-miterlimit="10" cx="296.3" cy="620.4" r="14.3"/>
				<circle fill="none" stroke="#868686" stroke-width="11.5522" stroke-miterlimit="10" cx="124.3" cy="613.4" r="11.9"/>
				<circle fill="none" stroke="#868686" stroke-width="11.5522" stroke-miterlimit="10" cx="104.5" cy="693.8" r="9.8"/>
				<circle fill="none" stroke="#868686" stroke-width="11.5522" stroke-miterlimit="10" cx="211" cy="637.4" r="9.8"/>
				<path fill="none" stroke="#868686" stroke-width="11.5522" stroke-miterlimit="10" d="M298.8,753.4c5.4,0,9.8,4.4,9.8,9.8
					c0,5.4-4.4,9.8-9.8,9.8c-5.4,0-9.8-4.4-9.8-9.8C289,757.8,293.4,753.4,298.8,753.4z"/>
				<path stroke="#FFFFFF" stroke-width="3.8105" stroke-miterlimit="10" d="M217.7,690.7"/>
				<g>
					<path fill="#868589" d="M216.1,707.1c-2.8-0.2-6.5,0.1-11.4,0.1l-3.9,1.2c-9.4,0-19.2-3.4-19.2,7.8v127.7
						c0,11.3,6.4,30.2,17.7,30.2l5.7-2.8c4.6,0,8.3,6.4,11.1-3.5V707.1z"/>
					<path fill="#868589" d="M128.4,731.8c-2.8-0.2-6.5,0.1-11.4,0.1l-3.9,1c-9.4,0-19.2-2.9-19.2,6.7v108.8
						c0,9.6,6.4,25.8,17.7,25.8l5.7-2.4c4.6,0,8.3,5.4,11.1-3V731.8z"/>
					<path fill="#868589" d="M310.1,766.5c-2.8-0.2-6.5,0.1-11.4,0.1l-3.9,0.8c-9.4,0-19.2-2.2-19.2,5v82.2
						c0,7.2,6.4,19.5,17.7,19.5l5.7-1.8c4.6,0,8.3,4.1,11.1-2.3V766.5z"/>
				</g>
				<path fill="none" stroke="#868589" stroke-width="11.5522" stroke-miterlimit="10" d="M1190.3,677.6c11.4,0,20.8-9.3,20.8-20.8
					c0-11.4-9.3-20.8-20.8-20.8c-11.4,0-20.8,9.3-20.8,20.8C1169.5,668.2,1178.8,677.6,1190.3,677.6z M1190.3,643.7
					c7.2,0,13.1,5.9,13.1,13.1c0,7.2-5.9,13.1-13.1,13.1c-7.2,0-13.1-5.9-13.1-13.1C1177.1,649.6,1183,643.7,1190.3,643.7z"/>
				<path fill="none" stroke="#868589" stroke-width="11.5522" stroke-miterlimit="10" d="M1154.7,699.6c6.8,0,12.3-5.5,12.3-12.3
					c0-6.8-5.5-12.3-12.3-12.3s-12.3,5.5-12.3,12.3C1142.4,694.1,1147.9,699.6,1154.7,699.6z M1154.7,682.6c2.6,0,4.7,2.1,4.7,4.7
					c0,2.6-2.1,4.7-4.7,4.7c-2.6,0-4.7-2.1-4.7-4.7C1150,684.7,1152.1,682.6,1154.7,682.6z"/>
				<path fill="#868589" d="M1264.9,656.4c-1.9-1-4.2-0.2-5.1,1.6l-26.1,50.2h-132.5c-1.6,0-3,1-3.6,2.4c-0.6,1.5-0.2,3.1,1,4.2
					l14.2,13.1c0.2,0.2,0.5,0.3,0.7,0.4v123.3c0,10.7,8.7,19.4,19.4,19.4h89.2c10.7,0,19.4-8.7,19.4-19.4V729.3c0-0.1,0-0.3,0-0.4
					h1.9c5.7,0,10.4-4.6,10.4-10.4c0-5.7-4.6-10.4-10.4-10.4h-1.2l24.2-46.7C1267.5,659.7,1266.8,657.4,1264.9,656.4z M1110.9,715.8
					h118.8l-2.8,5.5h-110L1110.9,715.8z M1167.2,836.2c-5.3-2.7-6.7-7.6-10.5-12.4c-11.5-13.5-15,7.9-21,13.9
					c-3.3,3-8.8,3.5-14.5,3.2v-22.1h13.5c2.1,0,3.8-1.7,3.8-3.8c0-2.1-1.7-3.8-3.8-3.8h-13.5v-9.7h31.3c2.1,0,3.8-1.7,3.8-3.8
					c0-2.1-1.7-3.8-3.8-3.8h-31.3v-9.7h13.5c2.1,0,3.8-1.7,3.8-3.8c0-2.1-1.7-3.8-3.8-3.8h-13.5v-9.7h31.3c2.1,0,3.8-1.7,3.8-3.8
					c0-2.1-1.7-3.8-3.8-3.8h-31.3v-9.7h13.5c2.1,0,3.8-1.7,3.8-3.8c0-2.1-1.7-3.8-3.8-3.8h-13.5v-12.9h101.8L1167.2,836.2z
					 M1233.9,729.3v99.4c-2.1,1.4-4.4,2.7-7.2,3.4c-6.3,1.6-13.9-2.4-19.8-4.8c-5.1-2-8.3-4-13.1,0c-3.2,3.2-3.6,8.7-7.9,11.1
					c-2.7,1.3-7.4,1-11.4,0.2l57-109.7h2.5C1234,729,1233.9,729.2,1233.9,729.3z M1243.4,715.8c1.5,0,2.7,1.2,2.7,2.7
					c0,1.5-1.2,2.7-2.7,2.7h-8l2.8-5.5L1243.4,715.8L1243.4,715.8z"/>
				<path fill="#868589" d="M1008.2,442.1v-44.7c7-4.7,11.6-12.7,11.6-21.6c0-14.4-11.7-26.1-26.1-26.1H951
					c-14.4,0-26.1,11.7-26.1,26.1c0,8.9,4.6,16.9,11.6,21.6v44.7c-35,14.4-58.8,49.1-58.8,87.5c0,52.2,42.4,94.6,94.6,94.6
					c52.2,0,94.6-42.4,94.6-94.6C1067,491.3,1043.2,456.5,1008.2,442.1z M972.4,611.8c-45.3,0-82.1-36.8-82.1-82.1
					c0-37.2,24.8-68.6,58.8-78.7v-11.4h24.2c1.6,0,2.8-1.3,2.8-2.8c0-1.6-1.3-2.8-2.8-2.8h-24.2v-11.3h24.2c1.6,0,2.8-1.3,2.8-2.8
					c0-1.6-1.3-2.8-2.8-2.8h-24.2v-11.3h24.2c1.6,0,2.8-1.3,2.8-2.8c0-1.6-1.3-2.8-2.8-2.8h-24.2v-10.8c-6.6-0.9-11.6-6.5-11.6-13.3
					c0-7.5,6.1-13.6,13.6-13.6h42.7c7.5,0,13.6,6.1,13.6,13.6c0,6.8-5.1,12.4-11.6,13.3V451c34,10,58.8,41.5,58.8,78.7
					C1054.5,575,1017.7,611.8,972.4,611.8z"/>
				<path fill="#868589" d="M1022.2,483.5H917.8c-11.4,12.5-18.4,29.2-18.4,47.5c0,39,31.6,70.6,70.6,70.6c39,0,70.6-31.6,70.6-70.6
					C1040.5,512.6,1033.6,496,1022.2,483.5z M972.3,556.5c-5.2,0-9.5-4.3-9.5-9.5c0-5.3,4.3-9.5,9.5-9.5c5.3,0,9.5,4.3,9.5,9.5
					C981.8,552.3,977.6,556.5,972.3,556.5z M1006.9,531.5c-8.3,0-15-6.7-15-15c0-8.3,6.7-15,15-15c8.3,0,15,6.7,15,15
					C1021.9,524.8,1015.1,531.5,1006.9,531.5z"/>
				<circle fill="none" stroke="#868686" stroke-width="11.5522" stroke-miterlimit="10" cx="786.5" cy="123.6" r="12.5"/>
				<circle fill="none" stroke="#868686" stroke-width="11.5522" stroke-miterlimit="10" cx="786.5" cy="168.6" r="12.5"/>
				<path fill="none" stroke="#868686" stroke-width="11.5522" stroke-miterlimit="10" d="M771.5,201.1c8.3,0,15,6.7,15,15
					c0,8.3-6.7,15-15,15c-8.3,0-15-6.7-15-15C756.5,207.8,763.2,201.1,771.5,201.1z"/>
				<circle fill="none" stroke="#868686" stroke-width="11.5522" stroke-miterlimit="10" cx="723.5" cy="198.6" r="15"/>
				<circle fill="none" stroke="#868686" stroke-width="11.5522" stroke-miterlimit="10" cx="749" cy="146.1" r="22.5"/>
				<path fill="#868589" d="M810.2,670.1l-6.9-212.8v-206l6.1-12.4h-18.8l-2.7,8.4l1.6,212.8l6,196.2c0.8,9.2-12.2,8.1-21.5,8.1
					l-20.8,0h0c0,0-24,0.3-28.4,0.1c-8.8-0.4-11.7,1.1-10.6-17.9c0.8-15.4,0.5-59.2,3.5-186.8l-1.4-212.9l-2.5-8.1h-16.8l6.2,12.4
					v206c0,0-2.1,200.3-2.1,212.6c0,16.7,14.2,14.6,14.2,14.6s58.5,0,79.6,0C798.9,684.5,810.2,684.6,810.2,670.1z"/>
				<g>
					<polygon fill="#868589" points="725,487.3 783.3,487.3 782.4,437.9 725.3,437.9 					"/>
					<polygon fill="#868589" points="784.9,572.8 783.3,490.8 783.3,494.4 724.9,494.4 724.4,572.8 					"/>
					<polygon fill="#868589" points="782.2,430.8 781.1,369.3 725.8,369.3 725.4,430.8 					"/>
					<polygon fill="#868589" points="724.4,579.9 723.9,656.6 786.4,656.6 785,579.9 					"/>
				</g>
				<g id="Your_Icon_5_">
					<polygon fill="#868589" stroke="#868686" stroke-width="1.6147" stroke-miterlimit="10" points="566.7,667.2 660.3,667.2 
						639.6,607.5 587.3,607.5 					"/>
					<path fill="#868589" stroke="#868686" stroke-width="1.6147" stroke-miterlimit="10" d="M641.7,551.9v-27.2h4.4
						c4.7,0,8.5-3.7,8.5-8.4c0-4.7-3.8-8.4-8.5-8.4h-65.4c-4.7,0-8.5,3.7-8.5,8.4c0,4.7,3.8,8.4,8.5,8.4h5.2v27.2L544.2,672v0.4
						c0,4.5,2.9,8.1,6,10.5c3.1,2.5,7.6,3.5,11.7,3.5H665c4.2,0,7.7-1,10.7-3.5c3.1-2.4,5-6,5-10.5V672L641.7,551.9z M558.9,672.5
						l41-120.6v-27.2h27.9v27.2l40.7,120.6L558.9,672.5z"/>
					<circle fill="none" stroke="#868686" stroke-width="11.5522" stroke-miterlimit="10" cx="600.8" cy="415.6" r="8.7"/>
					<path fill="none" stroke="#868686" stroke-width="11.5522" stroke-miterlimit="10" d="M596.2,495.5c11.4,0,20.6-9.2,20.6-20.6
						c0-11.4-9.2-20.6-20.6-20.6c-11.4,0-20.6,9.2-20.6,20.6C575.5,486.2,584.8,495.5,596.2,495.5z"/>
					<circle fill="none" stroke="#868686" stroke-width="11.5522" stroke-miterlimit="10" cx="639.4" cy="444.9" r="13.3"/>
				</g>
				<g>
					<path fill="none" stroke="#868589" stroke-width="14.7882" stroke-miterlimit="10" d="M821.7,780.4c26.5,0,48.1-21.5,48.1-48.1
						V372.2c0-26.5-21.5-48.1-48.1-48.1h-24.9"/>
				</g>
				<rect x="401.7" y="474.8" fill="#868589" width="37.5" height="33.1"/>
				<rect x="438.9" y="415.6" fill="#868589" width="54.9" height="137.4"/>
				<rect x="423.7" y="415.6" fill="#868589" width="85.2" height="8.7"/>
				<rect x="447.9" y="553" fill="#868589" width="34.7" height="133.4"/>
				<rect x="482.5" y="624.3" fill="#868589" width="78.2" height="62.1"/>
				<rect x="504.3" y="590.3" fill="#868589" width="38.1" height="34"/>
				<rect x="492.9" y="590.3" fill="#868589" width="60.9" height="15.8"/>
				<g>
					<path fill="none" stroke="#868589" stroke-width="5.7761" stroke-miterlimit="10" d="M516.3,522.5c6.6,0,11.9-5.3,11.9-11.9
						v-44.5c0-6.6-5.3-11.9-11.9-11.9h-6.2"/>
				</g>
				<rect x="423.3" y="687.3" fill="#868589" width="386.8" height="191.8"/>
				<rect x="806" y="744.9" fill="#868589" width="15.4" height="69.2"/>
				<rect x="821.4" y="750.3" fill="#868589" width="7.7" height="57.1"/>
				<rect x="857" y="843" fill="#868589" width="229.1" height="28.1"/>
				<rect x="944.6" y="824.6" fill="#868589" width="53.9" height="25.6"/>
				<rect x="1039.9" y="814.1" fill="#868589" width="15.4" height="3.9"/>
				<rect x="1050.5" y="810.3" fill="#868589" width="16.4" height="11.4"/>
				<rect x="1067" y="803.1" fill="#868589" width="9.2" height="25.8"/>
				<g>
					<path fill="none" stroke="#868589" stroke-width="14.7882" stroke-miterlimit="10" d="M970.6,351.9v-49.3
						c0-20.7-19.7-37.5-40.4-37.5h-130"/>
				</g>
				<polyline opacity="0.2" fill="none" stroke="#868589" stroke-width="8.6642" stroke-miterlimit="10" points="907.7,637.4 
					1033.1,701.4 907.7,757.8 1033.1,810.3 				"/>
				<polyline opacity="0.2" fill="none" stroke="#868589" stroke-width="8.6642" stroke-miterlimit="10" points="1033.2,637.4 
					907.8,701.4 1033.2,757.8 907.8,810.3 				"/>
				<path fill="#9B8579" d="M1127.2,532.6c-1.8-1.1-3.9-1.8-6.2-1.8c-2.3,0-4.4,0.6-6.2,1.8l6.2,10.5L1127.2,532.6z"/>
				<g>
					<rect x="901.3" y="620.5" fill="#868589" width="138.6" height="21.2"/>
					<rect x="1039.9" y="629.2" fill="#868589" width="15.4" height="3.9"/>
					<rect x="1050.5" y="625.4" fill="#868589" width="16.4" height="11.4"/>
					<rect x="1067" y="618.2" fill="#868589" width="9.2" height="25.8"/>
				</g>
				<rect x="901.3" y="805.4" fill="#868589" width="138.6" height="21.2"/>
				<path fill="none" stroke="#868589" stroke-width="8.6642" stroke-miterlimit="10" d="M136.2,854.1c0,11.3-9.1,20.4-20.4,20.4
					l0,0c-11.3,0-20.4-9.1-20.4-20.4V657.8l-7.1-4.1c0-6.2,16-4.5,27.2-4.5l0,0c11.2,0,25.9-1.7,25.9,4.7l-5.3,4.9V854.1z"/>
				<path fill="none" stroke="#868589" stroke-width="8.6642" stroke-miterlimit="10" d="M224,854.1c0,11.3-9.1,20.4-20.4,20.4l0,0
					c-11.2,0-20.4-9.1-20.4-20.4V657.8l-7-4.1c0-6.2,16-4.5,27.2-4.5l0,0c11.3,0,25.9-1.7,25.9,4.7l-5.3,4.9V854.1z"/>
				<path fill="none" stroke="#868589" stroke-width="8.6642" stroke-miterlimit="10" d="M318,854.1c0,11.3-9.1,20.4-20.4,20.4l0,0
					c-11.2,0-20.4-9.1-20.4-20.4V657.8l-7.1-4.1c0-6.2,16-4.5,27.2-4.5l0,0c11.3,0,25.9-1.7,25.9,4.7l-5.3,4.9V854.1z"/>
				<line fill="none" stroke="#868589" stroke-width="11.4645" stroke-miterlimit="10" x1="0" y1="678.6" x2="363.4" y2="678.6"/>
				<g>
					<path fill="none" stroke="#868589" stroke-width="11.5522" stroke-miterlimit="10" d="M403.9,487c-20.7,0-37.5,16.8-37.5,37.5
						v245.3c0,20.7,16.8,37.5,37.5,37.5h19.5"/>
				</g>
				<g>
					<path fill="none" stroke="#868589" stroke-width="14.7882" stroke-miterlimit="10" d="M1185.4,708.2V574
						c0-20.7-19.7-37.5-40.4-37.5h-81.5"/>
				</g>
				<path opacity="0.1" d="M1168.9,530.7c0,24.5-19.8,44.3-44.3,44.3c-24.5,0-44.3-19.9-44.3-44.3c0-24.5,19.8-44.3,44.3-44.3
					C1149,486.4,1168.9,506.2,1168.9,530.7z"/>
				<path fill="#868589" d="M1168.9,530.7c0,24.5-19.8,44.3-44.3,44.3c-24.5,0-44.3-19.9-44.3-44.3c0-24.5,19.8-44.3,44.3-44.3
					C1149,486.4,1168.9,506.2,1168.9,530.7z"/>
				<g>
					<defs>
						<path id="SVGID_153_" d="M1234.2,799c0-6.3-5.1-11.5-11.5-11.5h-89.8c-6.3,0-11.4,5.1-11.4,11.5v53.7
							c0,6.3,5.1,11.5,11.4,11.5h89.8c6.3,0,11.5-5.1,11.5-11.5V799z"/>
					</defs>
					<clipPath id="SVGID_4_">
						<use xlink:href="#SVGID_153_"  overflow="visible"/>
					</clipPath>
					<g clip-path="url(#SVGID_4_)">
						<path fill="none" d="M1135.9,837.6c5.9-5.9,9.5-27.3,21-13.9c2.4,3,3.8,6,5.8,8.5l-7.1-20.1l-13.7,7.3l-12.9,8.3l-7.6-0.1
							v13.1C1127.1,841.1,1132.7,840.6,1135.9,837.6z"/>
						<path fill="none" d="M1186.2,838.4c4.4-2.4,4.7-7.9,7.9-11.1c4.8-4,7.9-2,13.1,0c5.9,2.4,13.5,6.3,19.8,4.8
							c2.8-0.7,5.1-2,7.2-3.4v-9l-35.7-3.6l-20,15.5l-3.7,7.1C1178.8,839.4,1183.5,839.7,1186.2,838.4z"/>
						<path fill="#868589" d="M1234.2,828.6c-2.1,1.4-4.4,2.7-7.2,3.4c-6.3,1.6-13.9-2.4-19.8-4.8c-5.1-2-8.3-4-13.1,0
							c-3.2,3.2-3.6,8.7-7.9,11.1c-2.7,1.3-7.4,1-11.4,0.2c0,0-8.4-0.8-12.1-6.3v0c-2-2.5-3.5-5.5-5.8-8.5
							c-11.5-13.5-15,7.9-21,13.9c-3.2,3-8.8,3.5-14.5,3.2v-13.1l-7.6-0.1v24c0,10.7,8.7,19.4,19.4,19.4h89.2
							c10.7,0,19.4-8.7,19.4-19.4v-31.2l-7.6-0.8V828.6z"/>
					</g>
				</g>
				<rect x="493.7" y="444.9" fill="#868589" width="24.9" height="24.1"/>
				<rect x="493.7" y="507.9" fill="#868589" width="24.9" height="24.1"/>
			</g>
			<g opacity="8.000000e-02" clip-path="url(#SVGID_2_)">
				<circle fill="none" stroke="#868686" stroke-width="11.5522" stroke-miterlimit="10" cx="1356.7" cy="553" r="15.7"/>
				<circle fill="none" stroke="#868686" stroke-width="11.5522" stroke-miterlimit="10" cx="1544.2" cy="620.4" r="14.3"/>
				<circle fill="none" stroke="#868686" stroke-width="11.5522" stroke-miterlimit="10" cx="1372.2" cy="613.4" r="11.9"/>
				<circle fill="none" stroke="#868686" stroke-width="11.5522" stroke-miterlimit="10" cx="1352.4" cy="693.8" r="9.8"/>
				<circle fill="none" stroke="#868686" stroke-width="11.5522" stroke-miterlimit="10" cx="1459" cy="637.4" r="9.8"/>
				<path fill="none" stroke="#868686" stroke-width="11.5522" stroke-miterlimit="10" d="M1546.7,753.4c5.4,0,9.8,4.4,9.8,9.8
					c0,5.4-4.4,9.8-9.8,9.8c-5.4,0-9.8-4.4-9.8-9.8C1536.9,757.8,1541.3,753.4,1546.7,753.4z"/>
				<path stroke="#FFFFFF" stroke-width="3.8105" stroke-miterlimit="10" d="M1465.6,690.7"/>
				<g>
					<path fill="#868589" d="M1464.1,707.1c-2.8-0.2-6.5,0.1-11.4,0.1l-3.9,1.2c-9.4,0-19.2-3.4-19.2,7.8v127.7
						c0,11.3,6.4,30.2,17.7,30.2l5.7-2.8c4.6,0,8.3,6.4,11.1-3.5V707.1z"/>
					<path fill="#868589" d="M1376.3,731.8c-2.8-0.2-6.5,0.1-11.4,0.1l-3.9,1c-9.4,0-19.2-2.9-19.2,6.7v108.8
						c0,9.6,6.4,25.8,17.7,25.8l5.7-2.4c4.6,0,8.3,5.4,11.1-3V731.8z"/>
					<path fill="#868589" d="M1558.1,766.5c-2.8-0.2-6.5,0.1-11.4,0.1l-3.9,0.8c-9.4,0-19.2-2.2-19.2,5v82.2
						c0,7.2,6.4,19.5,17.7,19.5l5.7-1.8c4.6,0,8.3,4.1,11.1-2.3V766.5z"/>
				</g>
				<g id="Your_Icon_4_">
					<polygon fill="#868589" stroke="#868686" stroke-width="1.6147" stroke-miterlimit="10" points="1814.6,667.2 1908.2,667.2 
						1887.6,607.5 1835.2,607.5 					"/>
					<path fill="#868589" stroke="#868686" stroke-width="1.6147" stroke-miterlimit="10" d="M1889.7,551.9v-27.2h4.4
						c4.7,0,8.5-3.7,8.5-8.4c0-4.7-3.8-8.4-8.5-8.4h-65.4c-4.7,0-8.5,3.7-8.5,8.4c0,4.7,3.8,8.4,8.5,8.4h5.2v27.2L1792.1,672v0.4
						c0,4.5,2.9,8.1,6,10.5c3.1,2.5,7.6,3.5,11.7,3.5H1913c4.2,0,7.7-1,10.7-3.5c3.1-2.4,5-6,5-10.5V672L1889.7,551.9z
						 M1806.8,672.5l41-120.6v-27.2h27.9v27.2l40.7,120.6L1806.8,672.5z"/>
					<circle fill="none" stroke="#868686" stroke-width="11.5522" stroke-miterlimit="10" cx="1848.8" cy="415.6" r="8.7"/>
					<path fill="none" stroke="#868686" stroke-width="11.5522" stroke-miterlimit="10" d="M1844.1,495.5c11.4,0,20.6-9.2,20.6-20.6
						c0-11.4-9.2-20.6-20.6-20.6c-11.4,0-20.6,9.2-20.6,20.6C1823.5,486.2,1832.7,495.5,1844.1,495.5z"/>
					<circle fill="none" stroke="#868686" stroke-width="11.5522" stroke-miterlimit="10" cx="1887.4" cy="444.9" r="13.3"/>
				</g>
				<rect x="1649.6" y="474.8" fill="#868589" width="37.5" height="33.1"/>
				<rect x="1686.8" y="415.6" fill="#868589" width="54.9" height="137.4"/>
				<rect x="1671.6" y="415.6" fill="#868589" width="85.2" height="8.7"/>
				<rect x="1695.8" y="553" fill="#868589" width="34.7" height="133.4"/>
				<rect x="1730.5" y="624.3" fill="#868589" width="78.2" height="62.1"/>
				<rect x="1752.2" y="590.3" fill="#868589" width="38.1" height="34"/>
				<rect x="1740.9" y="590.3" fill="#868589" width="60.9" height="15.8"/>
				<g>
					<path fill="none" stroke="#868589" stroke-width="5.7761" stroke-miterlimit="10" d="M1764.3,522.5c6.6,0,11.9-5.3,11.9-11.9
						v-44.5c0-6.6-5.3-11.9-11.9-11.9h-6.2"/>
				</g>
				<rect x="1671.3" y="687.3" fill="#868589" width="386.8" height="191.8"/>
				<path fill="none" stroke="#868589" stroke-width="8.6642" stroke-miterlimit="10" d="M1384.2,854.1c0,11.3-9.1,20.4-20.4,20.4
					l0,0c-11.3,0-20.4-9.1-20.4-20.4V657.8l-7.1-4.1c0-6.2,16-4.5,27.2-4.5l0,0c11.3,0,25.9-1.7,25.9,4.7l-5.3,4.9V854.1z"/>
				<path fill="none" stroke="#868589" stroke-width="8.6642" stroke-miterlimit="10" d="M1471.9,854.1c0,11.3-9.1,20.4-20.4,20.4
					l0,0c-11.2,0-20.4-9.1-20.4-20.4V657.8l-7-4.1c0-6.2,16-4.5,27.2-4.5l0,0c11.3,0,25.9-1.7,25.9,4.7l-5.3,4.9V854.1z"/>
				<path fill="none" stroke="#868589" stroke-width="8.6642" stroke-miterlimit="10" d="M1565.9,854.1c0,11.3-9.1,20.4-20.4,20.4
					l0,0c-11.2,0-20.4-9.1-20.4-20.4V657.8l-7.1-4.1c0-6.2,16-4.5,27.2-4.5l0,0c11.3,0,25.9-1.7,25.9,4.7l-5.3,4.9V854.1z"/>
				
					<line fill="none" stroke="#868589" stroke-width="11.4645" stroke-miterlimit="10" x1="1247.9" y1="678.6" x2="1611.4" y2="678.6"/>
				<g>
					<path fill="none" stroke="#868589" stroke-width="11.5522" stroke-miterlimit="10" d="M1651.8,487c-20.7,0-37.5,16.8-37.5,37.5
						v245.3c0,20.7,16.8,37.5,37.5,37.5h19.5"/>
				</g>
				<rect x="1741.7" y="444.9" fill="#868589" width="24.9" height="24.1"/>
				<rect x="1741.7" y="507.9" fill="#868589" width="24.9" height="24.1"/>
			</g>
		</g>
		<g>
			<path fill="#FFFFFF" d="M1495.1,873.2c-4-22-10.3-43.9-19.2-65.3c-67-161.9-252.6-238.9-414.7-171.8c-0.4,0.1-0.7,0.3-1.1,0.5
				C957,679.7,888.5,770.9,870,873.2L1495.1,873.2z"/>
		</g>
	</g>
	<g>
		<defs>
			<rect id="SVGID_157_" x="0" y="0" width="1905" height="870.4"/>
		</defs>
		<clipPath id="SVGID_6_">
			<use xlink:href="#SVGID_157_"  overflow="visible"/>
		</clipPath>
	</g>
	<path fill="none" d="M1320.4,630.3"/>
	<path fill="#A6A6A6" d="M308.9,298.4"/>
</g>
<g id="_x31_F">
</g>
</svg>
