<?xml version="1.0" encoding="UTF-8"?>
<!DOCTYPE svg PUBLIC "-//W3C//DTD SVG 1.1//EN" "http://www.w3.org/Graphics/SVG/1.1/DTD/svg11.dtd">
<!-- Creator: CorelDRAW X7 -->
<svg xmlns="http://www.w3.org/2000/svg" xml:space="preserve" width="7.7015mm" height="7.6997mm" version="1.1" style="shape-rendering:geometricPrecision; text-rendering:geometricPrecision; image-rendering:optimizeQuality; fill-rule:evenodd; clip-rule:evenodd"
viewBox="0 0 33 33"
 xmlns:xlink="http://www.w3.org/1999/xlink">
 <defs>
  <style type="text/css">
   <![CDATA[
    .fil1 {fill:#FEFEFE}
    .fil0 {fill:#E7E7E4}
   ]]>
  </style>
 </defs>
 <g id="Capa_x0020_1">
  <metadata id="CorelCorpID_0Corel-Layer"/>
  <path class="fil0" d="M33 17c0,9 -7,16 -16,16 -10,0 -17,-7 -17,-16 0,-10 7,-17 17,-17 9,0 16,7 16,17z"/>
  <path class="fil1" d="M21 15c0,2 -2,3 -4,3 -2,0 -4,-1 -4,-3 0,-2 2,-4 4,-4 2,0 4,2 4,4z"/>
  <path class="fil1" d="M13 19c0,0 3,-1 3,3 0,4 0,7 0,7l3 0 0 -7c0,0 0,-1 0,-2 1,-1 3,-2 3,-2l0 -2 -3 -1 -4 2 -2 2z"/>
  <path class="fil1" d="M17 16c0,3 -2,4 -4,4 -2,0 -4,-1 -4,-4 0,-2 2,-4 4,-4 2,0 4,2 4,4z"/>
  <path class="fil1" d="M18 10c0,2 -2,4 -4,4 -2,0 -4,-2 -4,-4 0,-2 2,-4 4,-4 2,0 4,2 4,4z"/>
  <path class="fil1" d="M24 10c0,2 -2,4 -4,4 -2,0 -4,-2 -4,-4 0,-2 2,-4 4,-4 2,0 4,2 4,4z"/>
  <path class="fil1" d="M25 16c0,3 -2,4 -4,4 -2,0 -4,-1 -4,-4 0,-2 2,-4 4,-4 2,0 4,2 4,4z"/>
  <path class="fil1" d="M19 7c0,1 -1,2 -2,2 -1,0 -2,-1 -2,-2 0,-2 1,-3 2,-3 1,0 2,1 2,3z"/>
 </g>
</svg>
