<?xml version="1.0" encoding="utf-8"?>
<!-- Generator: Adobe Illustrator 18.0.0, SVG Export Plug-In . SVG Version: 6.00 Build 0)  -->
<!DOCTYPE svg PUBLIC "-//W3C//DTD SVG 1.1//EN" "http://www.w3.org/Graphics/SVG/1.1/DTD/svg11.dtd">
<svg version="1.1" xmlns="http://www.w3.org/2000/svg" xmlns:xlink="http://www.w3.org/1999/xlink" x="0px" y="0px"
	 viewBox="0 0 1095.1 645.1" enable-background="new 0 0 1095.1 645.1" xml:space="preserve">
<g id="Sin">
</g>
<g id="Layer_9">
	<g>
		<g>
			<g>
				<g>
					<g id="XMLID_37_">
						<g>
							<rect x="764" y="266.6" fill="#FFFFFF" width="39.1" height="20.7"/>
							<rect x="712.6" y="375.8" fill="#FFFFFF" width="39.1" height="20.7"/>
							<rect x="712.6" y="412.3" fill="#FFFFFF" width="39.1" height="20.7"/>
							<rect x="764" y="375.8" fill="#FFFFFF" width="39.1" height="20.7"/>
							<rect x="764" y="230.2" fill="#FFFFFF" width="39.1" height="20.7"/>
							<rect x="764" y="448.7" fill="#FFFFFF" width="39.1" height="20.7"/>
							<rect x="712.6" y="266.6" fill="#FFFFFF" width="39.1" height="20.7"/>
							<rect x="764" y="303" fill="#FFFFFF" width="39.1" height="20.7"/>
							<rect x="712.6" y="303" fill="#FFFFFF" width="39.1" height="20.7"/>
							<rect x="712.6" y="448.7" fill="#FFFFFF" width="39.1" height="20.7"/>
							<rect x="764" y="412.3" fill="#FFFFFF" width="39.1" height="20.7"/>
							<rect x="712.6" y="339.4" fill="#FFFFFF" width="39.1" height="20.7"/>
							<rect x="764" y="339.4" fill="#FFFFFF" width="39.1" height="20.7"/>
							<rect x="712.6" y="230.2" fill="#FFFFFF" width="39.1" height="20.7"/>
						</g>
						<g>
							
								<polyline fill="none" stroke="#51A332" stroke-width="3.8604" stroke-linecap="round" stroke-linejoin="round" stroke-miterlimit="10" points="
								719.7,215.2 699.2,215.2 699.2,502.3 816.5,502.3 816.5,215.2 796,215.2 							"/>
							
								<polyline fill="none" stroke="#51A332" stroke-width="3.8604" stroke-linecap="round" stroke-linejoin="round" stroke-miterlimit="10" points="
								730.8,176.5 719.7,176.5 719.7,215.2 796,215.2 796,176.5 784.9,176.5 							"/>
							
								<polygon fill="none" stroke="#51A332" stroke-width="3.8604" stroke-linecap="round" stroke-linejoin="round" stroke-miterlimit="10" points="
								784.9,176.5 757.9,83.3 730.8,176.5 							"/>
							
								<rect x="712.6" y="230.2" fill="none" stroke="#51A332" stroke-width="3.8604" stroke-linecap="round" stroke-linejoin="round" stroke-miterlimit="10" width="39.1" height="20.7"/>
							
								<rect x="764" y="230.2" fill="none" stroke="#51A332" stroke-width="3.8604" stroke-linecap="round" stroke-linejoin="round" stroke-miterlimit="10" width="39.1" height="20.7"/>
							
								<rect x="712.6" y="266.6" fill="none" stroke="#51A332" stroke-width="3.8604" stroke-linecap="round" stroke-linejoin="round" stroke-miterlimit="10" width="39.1" height="20.7"/>
							
								<rect x="764" y="266.6" fill="none" stroke="#51A332" stroke-width="3.8604" stroke-linecap="round" stroke-linejoin="round" stroke-miterlimit="10" width="39.1" height="20.7"/>
							
								<rect x="712.6" y="303" fill="none" stroke="#51A332" stroke-width="3.8604" stroke-linecap="round" stroke-linejoin="round" stroke-miterlimit="10" width="39.1" height="20.7"/>
							
								<rect x="764" y="303" fill="none" stroke="#51A332" stroke-width="3.8604" stroke-linecap="round" stroke-linejoin="round" stroke-miterlimit="10" width="39.1" height="20.7"/>
							
								<rect x="712.6" y="339.4" fill="none" stroke="#51A332" stroke-width="3.8604" stroke-linecap="round" stroke-linejoin="round" stroke-miterlimit="10" width="39.1" height="20.7"/>
							
								<rect x="764" y="339.4" fill="none" stroke="#51A332" stroke-width="3.8604" stroke-linecap="round" stroke-linejoin="round" stroke-miterlimit="10" width="39.1" height="20.7"/>
							
								<rect x="712.6" y="375.8" fill="none" stroke="#51A332" stroke-width="3.8604" stroke-linecap="round" stroke-linejoin="round" stroke-miterlimit="10" width="39.1" height="20.7"/>
							
								<rect x="764" y="375.8" fill="none" stroke="#51A332" stroke-width="3.8604" stroke-linecap="round" stroke-linejoin="round" stroke-miterlimit="10" width="39.1" height="20.7"/>
							
								<rect x="712.6" y="412.3" fill="none" stroke="#51A332" stroke-width="3.8604" stroke-linecap="round" stroke-linejoin="round" stroke-miterlimit="10" width="39.1" height="20.7"/>
							
								<rect x="764" y="412.3" fill="none" stroke="#51A332" stroke-width="3.8604" stroke-linecap="round" stroke-linejoin="round" stroke-miterlimit="10" width="39.1" height="20.7"/>
							
								<rect x="712.6" y="448.7" fill="none" stroke="#51A332" stroke-width="3.8604" stroke-linecap="round" stroke-linejoin="round" stroke-miterlimit="10" width="39.1" height="20.7"/>
							
								<rect x="764" y="448.7" fill="none" stroke="#51A332" stroke-width="3.8604" stroke-linecap="round" stroke-linejoin="round" stroke-miterlimit="10" width="39.1" height="20.7"/>
						</g>
					</g>
				</g>
			</g>
			<g>
				<g>
					<g id="XMLID_36_">
						<g>
							<rect x="393.4" y="252.7" fill="#F3F3F3" width="124.6" height="12.6"/>
							<polygon fill="#F3F3F3" points="528,263.5 528,275.6 513.8,275.6 397.6,275.6 383.4,275.6 383.4,263.5 393.4,263.5 
								518,263.5 							"/>
							<rect x="445.3" y="356.2" fill="#FFFFFF" width="20.8" height="20.9"/>
							<rect x="445.3" y="421.3" fill="#FFFFFF" width="20.8" height="20.9"/>
							<rect x="412.5" y="421.3" fill="#FFFFFF" width="20.8" height="20.9"/>
							<rect x="478" y="421.3" fill="#FFFFFF" width="20.9" height="20.9"/>
							<rect x="445.3" y="453.8" fill="#FFFFFF" width="20.8" height="20.8"/>
							<rect x="478" y="291.1" fill="#FFFFFF" width="20.9" height="20.9"/>
							<rect x="412.5" y="356.2" fill="#FFFFFF" width="20.8" height="20.9"/>
							<path fill="#F3F3F3" d="M513.8,277.4v226.7H397.6V277.4H513.8z M498.9,476.5v-20.8H478v20.8H498.9z M498.9,444v-20.9H478V444
								H498.9z M498.9,411.5v-20.8H478v20.8H498.9z M498.9,378.9v-20.9H478v20.9H498.9z M498.9,346.4v-20.8H478v20.8H498.9z
								 M498.9,313.9V293H478v20.9H498.9z M466.1,476.5v-20.8h-20.8v20.8H466.1z M466.1,444v-20.9h-20.8V444H466.1z M466.1,411.5
								v-20.8h-20.8v20.8H466.1z M466.1,378.9v-20.9h-20.8v20.9H466.1z M466.1,346.4v-20.8h-20.8v20.8H466.1z M466.1,313.9V293
								h-20.8v20.9H466.1z M433.3,476.5v-20.8h-20.8v20.8H433.3z M433.3,444v-20.9h-20.8V444H433.3z M433.3,411.5v-20.8h-20.8v20.8
								H433.3z M433.3,378.9v-20.9h-20.8v20.9H433.3z M433.3,346.4v-20.8h-20.8v20.8H433.3z M433.3,313.9V293h-20.8v20.9H433.3z"/>
							<rect x="445.3" y="291.1" fill="#FFFFFF" width="20.8" height="20.9"/>
							<rect x="412.5" y="388.8" fill="#FFFFFF" width="20.8" height="20.8"/>
							<rect x="478" y="453.8" fill="#FFFFFF" width="20.9" height="20.8"/>
							<rect x="412.5" y="453.8" fill="#FFFFFF" width="20.8" height="20.8"/>
							<rect x="445.3" y="323.7" fill="#FFFFFF" width="20.8" height="20.8"/>
							<rect x="478" y="323.7" fill="#FFFFFF" width="20.9" height="20.8"/>
							<rect x="445.3" y="388.8" fill="#FFFFFF" width="20.8" height="20.8"/>
							<rect x="478" y="388.8" fill="#FFFFFF" width="20.9" height="20.8"/>
							<rect x="478" y="356.2" fill="#FFFFFF" width="20.9" height="20.9"/>
							<rect x="412.5" y="323.7" fill="#FFFFFF" width="20.8" height="20.8"/>
							<rect x="412.5" y="291.1" fill="#FFFFFF" width="20.8" height="20.9"/>
						</g>
						<g>
							
								<polyline fill="none" stroke="#51A332" stroke-width="3.8604" stroke-linecap="round" stroke-linejoin="round" stroke-miterlimit="10" points="
								397.6,275.6 397.6,502.3 513.8,502.3 513.8,275.6 							"/>
							
								<polyline fill="none" stroke="#51A332" stroke-width="3.8604" stroke-linecap="round" stroke-linejoin="round" stroke-miterlimit="10" points="
								393.4,263.5 383.4,263.5 383.4,275.6 397.6,275.6 513.8,275.6 528,275.6 528,263.5 518,263.5 							"/>
							
								<rect x="393.4" y="250.8" fill="none" stroke="#51A332" stroke-width="3.8604" stroke-linecap="round" stroke-linejoin="round" stroke-miterlimit="10" width="124.6" height="12.6"/>
							
								<rect x="412.5" y="291.1" fill="#FFFFFF" stroke="#51A332" stroke-width="3.8604" stroke-linecap="round" stroke-linejoin="round" stroke-miterlimit="10" width="20.8" height="20.9"/>
							
								<rect x="445.3" y="291.1" fill="#FFFFFF" stroke="#51A332" stroke-width="3.8604" stroke-linecap="round" stroke-linejoin="round" stroke-miterlimit="10" width="20.8" height="20.9"/>
							
								<rect x="478" y="291.1" fill="#FFFFFF" stroke="#51A332" stroke-width="3.8604" stroke-linecap="round" stroke-linejoin="round" stroke-miterlimit="10" width="20.9" height="20.9"/>
							
								<rect x="412.5" y="323.7" fill="#FFFFFF" stroke="#51A332" stroke-width="3.8604" stroke-linecap="round" stroke-linejoin="round" stroke-miterlimit="10" width="20.8" height="20.8"/>
							
								<rect x="445.3" y="323.7" fill="#FFFFFF" stroke="#51A332" stroke-width="3.8604" stroke-linecap="round" stroke-linejoin="round" stroke-miterlimit="10" width="20.8" height="20.8"/>
							
								<rect x="478" y="323.7" fill="#FFFFFF" stroke="#51A332" stroke-width="3.8604" stroke-linecap="round" stroke-linejoin="round" stroke-miterlimit="10" width="20.9" height="20.8"/>
							
								<rect x="412.5" y="356.2" fill="#FFFFFF" stroke="#51A332" stroke-width="3.8604" stroke-linecap="round" stroke-linejoin="round" stroke-miterlimit="10" width="20.8" height="20.9"/>
							
								<rect x="445.3" y="356.2" fill="#FFFFFF" stroke="#51A332" stroke-width="3.8604" stroke-linecap="round" stroke-linejoin="round" stroke-miterlimit="10" width="20.8" height="20.9"/>
							
								<rect x="478" y="356.2" fill="#FFFFFF" stroke="#51A332" stroke-width="3.8604" stroke-linecap="round" stroke-linejoin="round" stroke-miterlimit="10" width="20.9" height="20.9"/>
							
								<rect x="412.5" y="388.8" fill="#FFFFFF" stroke="#51A332" stroke-width="3.8604" stroke-linecap="round" stroke-linejoin="round" stroke-miterlimit="10" width="20.8" height="20.8"/>
							
								<rect x="445.3" y="388.8" fill="#FFFFFF" stroke="#51A332" stroke-width="3.8604" stroke-linecap="round" stroke-linejoin="round" stroke-miterlimit="10" width="20.8" height="20.8"/>
							
								<rect x="478" y="388.8" fill="#FFFFFF" stroke="#51A332" stroke-width="3.8604" stroke-linecap="round" stroke-linejoin="round" stroke-miterlimit="10" width="20.9" height="20.8"/>
							
								<rect x="412.5" y="421.3" fill="#FFFFFF" stroke="#51A332" stroke-width="3.8604" stroke-linecap="round" stroke-linejoin="round" stroke-miterlimit="10" width="20.8" height="20.9"/>
							
								<rect x="445.3" y="421.3" fill="#FFFFFF" stroke="#51A332" stroke-width="3.8604" stroke-linecap="round" stroke-linejoin="round" stroke-miterlimit="10" width="20.8" height="20.9"/>
							
								<rect x="478" y="421.3" fill="#FFFFFF" stroke="#51A332" stroke-width="3.8604" stroke-linecap="round" stroke-linejoin="round" stroke-miterlimit="10" width="20.9" height="20.9"/>
							
								<rect x="412.5" y="453.8" fill="#FFFFFF" stroke="#51A332" stroke-width="3.8604" stroke-linecap="round" stroke-linejoin="round" stroke-miterlimit="10" width="20.8" height="20.8"/>
							
								<rect x="445.3" y="453.8" fill="#FFFFFF" stroke="#51A332" stroke-width="3.8604" stroke-linecap="round" stroke-linejoin="round" stroke-miterlimit="10" width="20.8" height="20.8"/>
							
								<rect x="478" y="453.8" fill="#FFFFFF" stroke="#51A332" stroke-width="3.8604" stroke-linecap="round" stroke-linejoin="round" stroke-miterlimit="10" width="20.9" height="20.8"/>
						</g>
					</g>
				</g>
			</g>
			<g>
				<g>
					<g id="XMLID_33_">
						<g>
							<rect x="864.2" y="420.6" fill="#FFFFFF" width="20.8" height="20.8"/>
							<rect x="864.2" y="388" fill="#FFFFFF" width="20.8" height="20.9"/>
							<rect x="831.4" y="388" fill="#FFFFFF" width="20.8" height="20.9"/>
							<rect x="864.2" y="355.5" fill="#FFFFFF" width="20.8" height="20.8"/>
							<rect x="831.4" y="453.1" fill="#FFFFFF" width="20.8" height="20.9"/>
							<rect x="897" y="388" fill="#FFFFFF" width="20.9" height="20.9"/>
							<rect x="897" y="453.1" fill="#FFFFFF" width="20.9" height="20.9"/>
							<rect x="897" y="355.5" fill="#FFFFFF" width="20.9" height="20.8"/>
							<rect x="897" y="420.6" fill="#FFFFFF" width="20.9" height="20.8"/>
							<rect x="864.2" y="453.1" fill="#FFFFFF" width="20.8" height="20.9"/>
							<rect x="831.4" y="420.6" fill="#FFFFFF" width="20.8" height="20.8"/>
							<rect x="831.4" y="355.5" fill="#FFFFFF" width="20.8" height="20.8"/>
						</g>
						<g>
							
								<rect x="816.5" y="339.9" fill="none" stroke="#51A332" stroke-width="3.8604" stroke-linecap="round" stroke-linejoin="round" stroke-miterlimit="10" width="116.2" height="162.4"/>
							
								<rect x="831.4" y="355.5" fill="none" stroke="#51A332" stroke-width="3.8604" stroke-linecap="round" stroke-linejoin="round" stroke-miterlimit="10" width="20.8" height="20.8"/>
							
								<rect x="864.2" y="355.5" fill="none" stroke="#51A332" stroke-width="3.8604" stroke-linecap="round" stroke-linejoin="round" stroke-miterlimit="10" width="20.8" height="20.8"/>
							
								<rect x="897" y="355.5" fill="none" stroke="#51A332" stroke-width="3.8604" stroke-linecap="round" stroke-linejoin="round" stroke-miterlimit="10" width="20.9" height="20.8"/>
							
								<rect x="831.4" y="388" fill="none" stroke="#51A332" stroke-width="3.8604" stroke-linecap="round" stroke-linejoin="round" stroke-miterlimit="10" width="20.8" height="20.9"/>
							
								<rect x="864.2" y="388" fill="none" stroke="#51A332" stroke-width="3.8604" stroke-linecap="round" stroke-linejoin="round" stroke-miterlimit="10" width="20.8" height="20.9"/>
							
								<rect x="897" y="388" fill="none" stroke="#51A332" stroke-width="3.8604" stroke-linecap="round" stroke-linejoin="round" stroke-miterlimit="10" width="20.9" height="20.9"/>
							
								<rect x="831.4" y="420.6" fill="none" stroke="#51A332" stroke-width="3.8604" stroke-linecap="round" stroke-linejoin="round" stroke-miterlimit="10" width="20.8" height="20.8"/>
							
								<rect x="864.2" y="420.6" fill="none" stroke="#51A332" stroke-width="3.8604" stroke-linecap="round" stroke-linejoin="round" stroke-miterlimit="10" width="20.8" height="20.8"/>
							
								<rect x="897" y="420.6" fill="none" stroke="#51A332" stroke-width="3.8604" stroke-linecap="round" stroke-linejoin="round" stroke-miterlimit="10" width="20.9" height="20.8"/>
							
								<rect x="831.4" y="453.1" fill="none" stroke="#51A332" stroke-width="3.8604" stroke-linecap="round" stroke-linejoin="round" stroke-miterlimit="10" width="20.8" height="20.9"/>
							
								<rect x="864.2" y="453.1" fill="none" stroke="#51A332" stroke-width="3.8604" stroke-linecap="round" stroke-linejoin="round" stroke-miterlimit="10" width="20.8" height="20.9"/>
							
								<rect x="897" y="453.1" fill="none" stroke="#51A332" stroke-width="3.8604" stroke-linecap="round" stroke-linejoin="round" stroke-miterlimit="10" width="20.9" height="20.9"/>
						</g>
					</g>
				</g>
			</g>
			<g>
				<g id="XMLID_32_">
					<g>
						<rect x="560.6" y="419" fill="#FFFFFF" width="96.7" height="10.9"/>
						<rect x="560.6" y="439.1" fill="#FFFFFF" width="96.7" height="10.9"/>
						<rect x="560.6" y="258.4" fill="#FFFFFF" width="96.7" height="10.9"/>
						<rect x="560.6" y="399" fill="#FFFFFF" width="96.7" height="10.9"/>
						<rect x="560.6" y="318.6" fill="#FFFFFF" width="96.7" height="10.9"/>
						<rect x="560.6" y="378.9" fill="#FFFFFF" width="96.7" height="10.9"/>
						<rect x="560.6" y="338.7" fill="#FFFFFF" width="96.7" height="10.9"/>
						<rect x="560.6" y="459.2" fill="#FFFFFF" width="96.7" height="10.9"/>
						<rect x="560.6" y="298.6" fill="#FFFFFF" width="96.7" height="10.9"/>
						<rect x="560.6" y="278.5" fill="#FFFFFF" width="96.7" height="10.9"/>
						<rect x="560.6" y="479.3" fill="#FFFFFF" width="96.7" height="10.9"/>
						<rect x="560.6" y="358.8" fill="#FFFFFF" width="96.7" height="10.9"/>
					</g>
					<g>
						
							<polygon fill="none" stroke="#51A332" stroke-width="3.8604" stroke-linecap="round" stroke-linejoin="round" stroke-miterlimit="10" points="
							549.4,238.4 669,149 669,149 669,502.3 549.4,502.3 						"/>
						
							<polygon fill="none" stroke="#51A332" stroke-width="3.8604" stroke-linecap="round" stroke-linejoin="round" stroke-miterlimit="10" points="
							549.4,238.4 538.1,246.9 528.7,234.4 670.6,128.3 680,140.8 669,149 						"/>
						
							<polygon fill="none" stroke="#51A332" stroke-width="3.8604" stroke-linecap="round" stroke-linejoin="round" stroke-miterlimit="10" points="
							560.6,246.9 657.3,246.9 657.3,172 						"/>
						
							<rect x="560.6" y="258.4" fill="none" stroke="#51A332" stroke-width="3.8604" stroke-linecap="round" stroke-linejoin="round" stroke-miterlimit="10" width="96.7" height="10.9"/>
						
							<rect x="560.6" y="278.5" fill="none" stroke="#51A332" stroke-width="3.8604" stroke-linecap="round" stroke-linejoin="round" stroke-miterlimit="10" width="96.7" height="10.9"/>
						
							<rect x="560.6" y="298.6" fill="none" stroke="#51A332" stroke-width="3.8604" stroke-linecap="round" stroke-linejoin="round" stroke-miterlimit="10" width="96.7" height="10.9"/>
						
							<rect x="560.6" y="318.6" fill="none" stroke="#51A332" stroke-width="3.8604" stroke-linecap="round" stroke-linejoin="round" stroke-miterlimit="10" width="96.7" height="10.9"/>
						
							<rect x="560.6" y="338.7" fill="none" stroke="#51A332" stroke-width="3.8604" stroke-linecap="round" stroke-linejoin="round" stroke-miterlimit="10" width="96.7" height="10.9"/>
						
							<rect x="560.6" y="358.8" fill="none" stroke="#51A332" stroke-width="3.8604" stroke-linecap="round" stroke-linejoin="round" stroke-miterlimit="10" width="96.7" height="10.9"/>
						
							<rect x="560.6" y="378.9" fill="none" stroke="#51A332" stroke-width="3.8604" stroke-linecap="round" stroke-linejoin="round" stroke-miterlimit="10" width="96.7" height="10.9"/>
						
							<rect x="560.6" y="399" fill="none" stroke="#51A332" stroke-width="3.8604" stroke-linecap="round" stroke-linejoin="round" stroke-miterlimit="10" width="96.7" height="10.9"/>
						
							<rect x="560.6" y="419" fill="none" stroke="#51A332" stroke-width="3.8604" stroke-linecap="round" stroke-linejoin="round" stroke-miterlimit="10" width="96.7" height="10.9"/>
						
							<rect x="560.6" y="439.1" fill="none" stroke="#51A332" stroke-width="3.8604" stroke-linecap="round" stroke-linejoin="round" stroke-miterlimit="10" width="96.7" height="10.9"/>
						
							<rect x="560.6" y="459.2" fill="none" stroke="#51A332" stroke-width="3.8604" stroke-linecap="round" stroke-linejoin="round" stroke-miterlimit="10" width="96.7" height="10.9"/>
						
							<rect x="560.6" y="479.3" fill="none" stroke="#51A332" stroke-width="3.8604" stroke-linecap="round" stroke-linejoin="round" stroke-miterlimit="10" width="96.7" height="10.9"/>
					</g>
				</g>
			</g>
			
				<line fill="none" stroke="#51A332" stroke-width="3.8604" stroke-linecap="round" stroke-linejoin="round" stroke-miterlimit="10" x1="70.4" y1="502.2" x2="1030.9" y2="502.2"/>
			<g>
				
					<path fill="none" stroke="#51A332" stroke-width="3.8604" stroke-linecap="round" stroke-linejoin="round" stroke-miterlimit="10" d="
					M222.5,83.5c2.9-4.3,7.9-7.2,13.5-7.2c5.6,0,10.5,2.8,13.5,7.1"/>
				
					<path fill="none" stroke="#51A332" stroke-width="3.8604" stroke-linecap="round" stroke-linejoin="round" stroke-miterlimit="10" d="
					M212.4,76.7c5.1-7.6,13.8-12.6,23.6-12.6c9.8,0,18.4,4.9,23.5,12.5"/>
				
					<path fill="none" stroke="#51A332" stroke-width="3.8604" stroke-linecap="round" stroke-linejoin="round" stroke-miterlimit="10" d="
					M202.8,70.2c7.2-10.7,19.4-17.7,33.2-17.7c13.8,0,25.9,6.9,33.1,17.5"/>
			</g>
			<g>
				
					<line fill="none" stroke="#51A332" stroke-width="3.8604" stroke-linecap="round" stroke-linejoin="round" stroke-miterlimit="10" x1="657.3" y1="74.6" x2="657.3" y2="92.1"/>
				
					<line fill="none" stroke="#51A332" stroke-width="3.8604" stroke-linecap="round" stroke-linejoin="round" stroke-miterlimit="10" x1="666" y1="83.3" x2="648.6" y2="83.3"/>
				
					<line fill="none" stroke="#51A332" stroke-width="3.8604" stroke-linecap="round" stroke-linejoin="round" stroke-miterlimit="10" x1="657.3" y1="74.6" x2="657.3" y2="92.1"/>
				
					<line fill="none" stroke="#51A332" stroke-width="3.8604" stroke-linecap="round" stroke-linejoin="round" stroke-miterlimit="10" x1="657.3" y1="74.6" x2="657.3" y2="92.1"/>
			</g>
			<path fill="none" stroke="#51A332" stroke-width="3.8604" stroke-miterlimit="10" d="M115.8,95.8c-12.4,0-23.5,5-31.6,13
				c-4-1.6-8.4-2.6-13-2.6c-18.8,0-34,15.1-34,33.7c0,4.9,4,8.9,9,8.9h105.3c4.9,0,9-4,9-8.9C160.3,115.6,140.4,95.8,115.8,95.8z"/>
			<path fill="none" stroke="#51A332" stroke-width="3.8604" stroke-miterlimit="10" d="M367.4,47.9c16.9,0,31.6,9.3,39.2,23.1
				c4-2.6,8.8-4.1,13.9-4.1c14.1,0,25.5,11.3,25.5,25.3c0,4.9-4,8.9-9,8.9H331.8c-4.9,0-9-4-9-8.9C322.8,67.6,342.8,47.9,367.4,47.9
				z"/>
			<path fill="none" stroke="#51A332" stroke-width="3.1893" stroke-miterlimit="10" d="M1039.3,107.6c-8.1-9.9-20.5-16.2-34.4-16.2
				c-13.9,0-26.3,6.3-34.4,16.2c-0.8-0.1-1.6-0.1-2.5-0.1c-15.5,0-28.1,12.5-28.1,27.8c0,4,3.3,7.3,7.4,7.3h110.8
				c4.1,0,7.4-3.3,7.4-7.3C1065.6,120.6,1054,108.5,1039.3,107.6z"/>
			
				<path fill="none" stroke="#51A332" stroke-width="3.8604" stroke-linecap="round" stroke-linejoin="round" stroke-miterlimit="10" d="
				M465.8,124c-3.5-2.9-8.1-4.7-13-4.7c-4.3,0-8.2,1.3-11.5,3.5c-7.3,5-9.8,14.6-6.7,22.9l18.1,47.9l18.2-48
				C473.9,138,472,129.1,465.8,124z M452.8,149.2c-4.8,0-8.7-3.9-8.7-8.7c0-4.8,3.9-8.7,8.7-8.7c4.8,0,8.7,3.9,8.7,8.7
				C461.5,145.4,457.6,149.2,452.8,149.2z"/>
			<g>
				<g id="XMLID_31_">
					<g>
						
							<path fill="none" stroke="#51A332" stroke-width="3.8604" stroke-linecap="round" stroke-linejoin="round" stroke-miterlimit="10" stroke-dasharray="10.2943" d="
							M631.6,75.2L631.6,75.2V41.7h-38.8c0,0,0,91.2,0,92.8"/>
						
							<path fill="none" stroke="#51A332" stroke-width="3.8604" stroke-linecap="round" stroke-linejoin="round" stroke-miterlimit="10" d="
							M617.2,101V89.6c0-8,6.5-14.5,14.5-14.5c4,0,7.6,1.6,10.2,4.2c2.6,2.6,4.2,6.2,4.2,10.2V101"/>
						
							<polyline fill="none" stroke="#51A332" stroke-width="3.8604" stroke-linecap="round" stroke-linejoin="round" stroke-miterlimit="10" points="
							611.6,101 617.2,101 623.8,101 639.4,101 646.1,101 651.6,101 						"/>
						
							<line fill="none" stroke="#51A332" stroke-width="3.8604" stroke-linecap="round" stroke-linejoin="round" stroke-miterlimit="10" x1="623.8" y1="101" x2="623.8" y2="113.6"/>
						
							<line fill="none" stroke="#51A332" stroke-width="3.8604" stroke-linecap="round" stroke-linejoin="round" stroke-miterlimit="10" x1="639.4" y1="101" x2="639.4" y2="113.6"/>
					</g>
				</g>
			</g>
			<g>
				<g id="XMLID_29_">
					<g>
						
							<path fill="none" stroke="#51A332" stroke-width="3.8604" stroke-linecap="round" stroke-linejoin="round" stroke-miterlimit="10" d="
							M875.7,549c0,6.4-5.1,11.5-11.5,11.5c-6.4,0-11.5-5.1-11.5-11.5c0-6.3,5.1-11.5,11.5-11.5C870.5,537.5,875.7,542.7,875.7,549z
							"/>
						
							<path fill="none" stroke="#51A332" stroke-width="3.8604" stroke-linecap="round" stroke-linejoin="round" stroke-miterlimit="10" d="
							M968.5,549h-7.8c0-8.5-6.9-15.4-15.4-15.4c-8.5,0-15.4,6.9-15.4,15.4h-50.3c0-8.5-6.9-15.4-15.4-15.4
							c-8.5,0-15.4,6.9-15.4,15.4h-6.7"/>
						
							<path fill="none" stroke="#51A332" stroke-width="3.8604" stroke-linecap="round" stroke-linejoin="round" stroke-miterlimit="10" d="
							M870.8,549c0,3.7-3,6.6-6.6,6.6c-3.7,0-6.6-3-6.6-6.6c0-3.6,3-6.6,6.6-6.6C867.8,542.4,870.8,545.4,870.8,549z"/>
						
							<path fill="none" stroke="#51A332" stroke-width="3.8604" stroke-linecap="round" stroke-linejoin="round" stroke-miterlimit="10" d="
							M956.8,549c0,6.4-5.1,11.5-11.5,11.5c-6.3,0-11.5-5.1-11.5-11.5c0-6.3,5.2-11.5,11.5-11.5C951.7,537.5,956.8,542.7,956.8,549z
							"/>
						
							<path fill="none" stroke="#51A332" stroke-width="3.8604" stroke-linecap="round" stroke-linejoin="round" stroke-miterlimit="10" d="
							M951.9,549c0,3.7-3,6.6-6.6,6.6c-3.6,0-6.6-3-6.6-6.6c0-3.6,3-6.6,6.6-6.6C949,542.4,951.9,545.4,951.9,549z"/>
						
							<path fill="#F3F3F3" stroke="#51A332" stroke-width="3.8604" stroke-linecap="round" stroke-linejoin="round" stroke-miterlimit="10" d="
							M853.5,517.6H880c2.3,0,4.1-1.9,4.1-4.1v-17.7c0-2.3-1.8-4.1-4.1-4.1h-11.9c-1.3,0-2.6,0.7-3.4,1.8l-13.6,19.5
							C849.7,514.9,851.1,517.6,853.5,517.6z"/>
						
							<path fill="#F3F3F3" stroke="#51A332" stroke-width="3.8604" stroke-linecap="round" stroke-linejoin="round" stroke-miterlimit="10" d="
							M888.7,495v19.2c0,1.9,1.5,3.4,3.4,3.4h22.7c2.5,0,4.2-2.7,3-5l-9.8-19.2c-0.6-1.1-1.8-1.9-3-1.9h-12.9
							C890.3,491.6,888.7,493.2,888.7,495z"/>
						
							<path fill="#F3F3F3" stroke="#51A332" stroke-width="3.8604" stroke-linecap="round" stroke-linejoin="round" stroke-miterlimit="10" d="
							M924.3,491.6H924h-6c-1.8,0-2.9,1.9-2.1,3.4l10.3,20.7c0.6,1.1,1.8,1.8,3,1.8h20.9"/>
						
							<path fill="none" stroke="#51A332" stroke-width="3.8604" stroke-linecap="round" stroke-linejoin="round" stroke-miterlimit="10" d="
							M898.3,527.3h-6.3c-1.3,0-2.4-1.1-2.4-2.4c0-1.3,1.1-2.4,2.4-2.4h6.3c1.3,0,2.4,1.1,2.4,2.4
							C900.7,526.2,899.6,527.3,898.3,527.3z"/>
						
							<path fill="none" stroke="#51A332" stroke-width="3.8604" stroke-linecap="round" stroke-linejoin="round" stroke-miterlimit="10" d="
							M842.1,549v0.6c0,1-0.8,1.8-1.8,1.8h-8.4c-1,0-1.7-0.8-1.7-1.8v-9.1c0-1,0.8-1.8,1.7-1.8h1.9h6.5c1,0,1.8,0.8,1.8,1.8V549z"/>
						
							<path fill="none" stroke="#51A332" stroke-width="3.8604" stroke-linecap="round" stroke-linejoin="round" stroke-miterlimit="10" d="
							M968.5,549v-8.5c0-1,0.8-1.8,1.8-1.8h6h2.5c1,0,1.8,0.8,1.8,1.8v9.1c0,1-0.8,1.8-1.8,1.8h-8.4c-1,0-1.8-0.8-1.8-1.8V549z"/>
						
							<polyline fill="none" stroke="#51A332" stroke-width="3.8604" stroke-linecap="round" stroke-linejoin="round" stroke-miterlimit="10" points="
							960.3,560.5 945.3,560.5 864.2,560.5 789.7,560.5 						"/>
						
							<path fill="none" stroke="#51A332" stroke-width="3.8604" stroke-linecap="round" stroke-linejoin="round" stroke-miterlimit="10" d="
							M833.8,538.8v-16.4c0-2.9,2.3-5.2,5.2-5.2c1.5,0,2.9-0.7,3.7-2l16.4-24.1c2.1-3,5.5-4.9,9.2-4.9h46c3.3,0,6.5,1.5,8.6,4.1
							l1.1,1.3l18.2,22.2c2,2.4,4.9,3.8,8,3.8h6.9c10.6,0,19.1,8.6,19.1,19.1v2"/>
					</g>
				</g>
			</g>
			<g>
				<g id="XMLID_28_">
					<g>
						
							<path fill="none" stroke="#51A332" stroke-width="3.8604" stroke-linecap="round" stroke-linejoin="round" stroke-miterlimit="10" d="
							M233.6,587.6c0,6.4-5.1,11.5-11.5,11.5c-6.4,0-11.5-5.1-11.5-11.5c0-6.3,5.1-11.5,11.5-11.5
							C228.4,576.1,233.6,581.3,233.6,587.6z"/>
						
							<path fill="none" stroke="#51A332" stroke-width="3.8604" stroke-linecap="round" stroke-linejoin="round" stroke-miterlimit="10" d="
							M326.4,587.6h-7.8c0-8.5-6.9-15.4-15.4-15.4c-8.5,0-15.4,6.9-15.4,15.4h-50.3c0-8.5-6.9-15.4-15.4-15.4s-15.4,6.9-15.4,15.4
							H200"/>
						
							<path fill="none" stroke="#51A332" stroke-width="3.8604" stroke-linecap="round" stroke-linejoin="round" stroke-miterlimit="10" d="
							M228.7,587.6c0,3.7-3,6.6-6.6,6.6c-3.7,0-6.6-3-6.6-6.6c0-3.6,3-6.6,6.6-6.6C225.7,581,228.7,584,228.7,587.6z"/>
						
							<path fill="none" stroke="#51A332" stroke-width="3.8604" stroke-linecap="round" stroke-linejoin="round" stroke-miterlimit="10" d="
							M314.7,587.6c0,6.4-5.1,11.5-11.5,11.5c-6.3,0-11.5-5.1-11.5-11.5c0-6.3,5.2-11.5,11.5-11.5
							C309.6,576.1,314.7,581.3,314.7,587.6z"/>
						
							<path fill="none" stroke="#51A332" stroke-width="3.8604" stroke-linecap="round" stroke-linejoin="round" stroke-miterlimit="10" d="
							M309.8,587.6c0,3.7-3,6.6-6.6,6.6c-3.6,0-6.6-3-6.6-6.6c0-3.6,3-6.6,6.6-6.6C306.9,581,309.8,584,309.8,587.6z"/>
						
							<path fill="#F3F3F3" stroke="#51A332" stroke-width="3.8604" stroke-linecap="round" stroke-linejoin="round" stroke-miterlimit="10" d="
							M211.4,556.2h26.4c2.3,0,4.1-1.9,4.1-4.1v-17.7c0-2.3-1.8-4.1-4.1-4.1H226c-1.3,0-2.6,0.7-3.4,1.8L209,551.5
							C207.6,553.5,209,556.2,211.4,556.2z"/>
						
							<path fill="#F3F3F3" stroke="#51A332" stroke-width="3.8604" stroke-linecap="round" stroke-linejoin="round" stroke-miterlimit="10" d="
							M246.6,533.6v19.2c0,1.9,1.5,3.4,3.4,3.4h22.7c2.5,0,4.2-2.7,3-5l-9.8-19.2c-0.6-1.1-1.8-1.9-3-1.9H250
							C248.2,530.2,246.6,531.8,246.6,533.6z"/>
						
							<path fill="#F3F3F3" stroke="#51A332" stroke-width="3.8604" stroke-linecap="round" stroke-linejoin="round" stroke-miterlimit="10" d="
							M282.2,530.2h-0.2h-6c-1.8,0-2.9,1.9-2.1,3.4l10.3,20.7c0.6,1.1,1.8,1.8,3,1.8h20.9"/>
						
							<path fill="none" stroke="#51A332" stroke-width="3.8604" stroke-linecap="round" stroke-linejoin="round" stroke-miterlimit="10" d="
							M256.2,565.9h-6.3c-1.3,0-2.4-1.1-2.4-2.4c0-1.3,1.1-2.4,2.4-2.4h6.3c1.3,0,2.4,1.1,2.4,2.4
							C258.6,564.8,257.5,565.9,256.2,565.9z"/>
						
							<path fill="none" stroke="#51A332" stroke-width="3.8604" stroke-linecap="round" stroke-linejoin="round" stroke-miterlimit="10" d="
							M200,587.6v0.6c0,1-0.8,1.8-1.8,1.8h-8.4c-1,0-1.7-0.8-1.7-1.8v-9.1c0-1,0.8-1.8,1.7-1.8h1.9h6.5c1,0,1.8,0.8,1.8,1.8V587.6z"
							/>
						
							<path fill="none" stroke="#51A332" stroke-width="3.8604" stroke-linecap="round" stroke-linejoin="round" stroke-miterlimit="10" d="
							M326.4,587.6v-8.5c0-1,0.8-1.8,1.8-1.8h6h2.5c1,0,1.8,0.8,1.8,1.8v9.1c0,1-0.8,1.8-1.8,1.8h-8.4c-1,0-1.8-0.8-1.8-1.8V587.6z"
							/>
						
							<polyline fill="none" stroke="#51A332" stroke-width="3.8604" stroke-linecap="round" stroke-linejoin="round" stroke-miterlimit="10" points="
							318.2,599.1 303.2,599.1 222.1,599.1 147.6,599.1 						"/>
						
							<path fill="none" stroke="#51A332" stroke-width="3.8604" stroke-linecap="round" stroke-linejoin="round" stroke-miterlimit="10" d="
							M191.7,577.4V561c0-2.9,2.3-5.2,5.2-5.2c1.5,0,2.9-0.7,3.7-2l16.4-24.1c2.1-3,5.5-4.9,9.2-4.9h46c3.3,0,6.5,1.5,8.6,4.1
							l1.1,1.3l18.2,22.2c2,2.4,4.9,3.8,8,3.8h6.9c10.6,0,19.1,8.6,19.1,19.1v2"/>
					</g>
				</g>
			</g>
			<g>
				<g>
					<g id="XMLID_27_">
						<g>
							
								<line fill="none" stroke="#51A332" stroke-width="3.8604" stroke-linecap="round" stroke-linejoin="round" stroke-miterlimit="10" x1="712.2" y1="588.6" x2="712.2" y2="468.7"/>
							
								<path fill="#F3F3F3" stroke="#51A332" stroke-width="3.8604" stroke-linecap="round" stroke-linejoin="round" stroke-miterlimit="10" d="
								M712.2,454.4c4,0,7.2,3.2,7.2,7.2c0,0,0,0.1,0,0.1c-0.1,3.9-3.3,7.1-7.2,7.1c-4,0-7.2-3.2-7.2-7.2
								C705,457.6,708.2,454.4,712.2,454.4z"/>
							
								<path fill="#F3F3F3" stroke="#51A332" stroke-width="3.8604" stroke-linecap="round" stroke-linejoin="round" stroke-miterlimit="10" d="
								M705,461.6l-68.4,10.1c-2.4,0.3-4.1,2.6-3.7,5l61.5-2.3c4.4-0.2,8.1-3.2,9.2-7.4L705,461.6z"/>
							
								<path fill="#F3F3F3" stroke="#51A332" stroke-width="3.8604" stroke-linecap="round" stroke-linejoin="round" stroke-miterlimit="10" d="
								M712.2,454.4v-69.1c0-2.4-2-4.4-4.4-4.4L701,442c-0.5,4.3,2,8.5,6,10.2L712.2,454.4z"/>
							
								<path fill="#F3F3F3" stroke="#51A332" stroke-width="3.8604" stroke-linecap="round" stroke-linejoin="round" stroke-miterlimit="10" d="
								M719.4,461.7l67.8,13.5c2.4,0.5,4.7-1.1,5.2-3.5l-58.7-18.6c-4.2-1.3-8.7,0.2-11.2,3.9L719.4,461.7z"/>
						</g>
					</g>
				</g>
				
					<line fill="none" stroke="#51A332" stroke-width="3.8604" stroke-linecap="round" stroke-linejoin="round" stroke-miterlimit="10" x1="734.6" y1="588.6" x2="654.3" y2="588.6"/>
			</g>
			<g>
				<g>
					<g id="XMLID_26_">
						<g>
							
								<line fill="none" stroke="#51A332" stroke-width="3.8604" stroke-linecap="round" stroke-linejoin="round" stroke-miterlimit="10" x1="465.7" y1="603.4" x2="465.7" y2="520.3"/>
							
								<path fill="none" stroke="#51A332" stroke-width="3.8604" stroke-linecap="round" stroke-linejoin="round" stroke-miterlimit="10" d="
								M465.7,506c4,0,7.2,3.2,7.2,7.2c0,0,0,0.1,0,0.1c-0.1,3.9-3.3,7.1-7.2,7.1c-4,0-7.2-3.2-7.2-7.2
								C458.5,509.2,461.7,506,465.7,506z"/>
							
								<path fill="none" stroke="#51A332" stroke-width="3.8604" stroke-linecap="round" stroke-linejoin="round" stroke-miterlimit="10" d="
								M458.5,513.2l-68.4,10.1c-2.4,0.3-4.1,2.6-3.7,5l61.5-2.3c4.4-0.2,8.1-3.2,9.2-7.4L458.5,513.2z"/>
							
								<path fill="#F3F3F3" stroke="#51A332" stroke-width="3.8604" stroke-linecap="round" stroke-linejoin="round" stroke-miterlimit="10" d="
								M465.7,506v-69.1c0-2.4-2-4.4-4.4-4.4l-6.7,61.2c-0.5,4.3,2,8.5,6,10.2L465.7,506z"/>
							
								<path fill="none" stroke="#51A332" stroke-width="3.8604" stroke-linecap="round" stroke-linejoin="round" stroke-miterlimit="10" d="
								M472.9,513.3l67.8,13.5c2.4,0.5,4.7-1.1,5.2-3.5l-58.7-18.6c-4.2-1.3-8.7,0.2-11.2,3.9L472.9,513.3z"/>
						</g>
					</g>
				</g>
			</g>
			
				<line fill="none" stroke="#51A332" stroke-width="3.8604" stroke-linecap="round" stroke-linejoin="round" stroke-miterlimit="10" stroke-dasharray="10.2943" x1="236" y1="98.3" x2="236" y2="152.2"/>
			
				<line fill="none" stroke="#51A332" stroke-width="3.8604" stroke-linecap="round" stroke-linejoin="round" stroke-miterlimit="10" stroke-dasharray="10.2943" x1="452.8" y1="193.6" x2="452.8" y2="230.2"/>
			
				<line fill="none" stroke="#51A332" stroke-width="3.8604" stroke-linecap="round" stroke-linejoin="round" stroke-miterlimit="10" stroke-dasharray="10.2943" x1="874.6" y1="170.6" x2="874.6" y2="323.7"/>
			<g>
				
					<rect x="174.8" y="209.5" fill="none" stroke="#51A332" stroke-width="3.8604" stroke-linecap="round" stroke-linejoin="round" stroke-miterlimit="10" width="133.4" height="292.8"/>
				
					<rect x="166.7" y="192.9" fill="none" stroke="#51A332" stroke-width="3.8604" stroke-linecap="round" stroke-linejoin="round" stroke-miterlimit="10" width="149.7" height="15.8"/>
				<g>
					
						<rect x="185.9" y="230.1" fill="#FFFFFF" stroke="#51A332" stroke-width="3.8604" stroke-linecap="round" stroke-linejoin="round" stroke-miterlimit="10" width="19.4" height="87"/>
					
						<rect x="216.5" y="230.1" fill="#FFFFFF" stroke="#51A332" stroke-width="3.8604" stroke-linecap="round" stroke-linejoin="round" stroke-miterlimit="10" width="19.4" height="87"/>
					
						<rect x="247" y="230.1" fill="#FFFFFF" stroke="#51A332" stroke-width="3.8604" stroke-linecap="round" stroke-linejoin="round" stroke-miterlimit="10" width="19.4" height="87"/>
					
						<rect x="277.6" y="230.1" fill="#FFFFFF" stroke="#51A332" stroke-width="3.8604" stroke-linecap="round" stroke-linejoin="round" stroke-miterlimit="10" width="19.4" height="87"/>
				</g>
				<g>
					
						<rect x="185.9" y="387.1" fill="#FFFFFF" stroke="#51A332" stroke-width="3.8604" stroke-linecap="round" stroke-linejoin="round" stroke-miterlimit="10" width="19.4" height="87"/>
					
						<rect x="216.5" y="387.1" fill="#FFFFFF" stroke="#51A332" stroke-width="3.8604" stroke-linecap="round" stroke-linejoin="round" stroke-miterlimit="10" width="19.4" height="87"/>
					
						<rect x="247" y="387.1" fill="#FFFFFF" stroke="#51A332" stroke-width="3.8604" stroke-linecap="round" stroke-linejoin="round" stroke-miterlimit="10" width="19.4" height="87"/>
					
						<rect x="277.6" y="387.1" fill="#FFFFFF" stroke="#51A332" stroke-width="3.8604" stroke-linecap="round" stroke-linejoin="round" stroke-miterlimit="10" width="19.4" height="87"/>
				</g>
				<g>
					
						<rect x="185.9" y="333.6" fill="#FFFFFF" stroke="#51A332" stroke-width="3.8604" stroke-linecap="round" stroke-linejoin="round" stroke-miterlimit="10" width="19.4" height="36"/>
					
						<rect x="216.5" y="333.6" fill="#FFFFFF" stroke="#51A332" stroke-width="3.8604" stroke-linecap="round" stroke-linejoin="round" stroke-miterlimit="10" width="19.4" height="36"/>
					
						<rect x="247" y="333.6" fill="#FFFFFF" stroke="#51A332" stroke-width="3.8604" stroke-linecap="round" stroke-linejoin="round" stroke-miterlimit="10" width="19.4" height="36"/>
					
						<rect x="277.6" y="333.6" fill="#FFFFFF" stroke="#51A332" stroke-width="3.8604" stroke-linecap="round" stroke-linejoin="round" stroke-miterlimit="10" width="19.4" height="36"/>
				</g>
				
					<rect x="178.6" y="170" fill="none" stroke="#51A332" stroke-width="3.8604" stroke-linecap="round" stroke-linejoin="round" stroke-miterlimit="10" width="125.8" height="22.4"/>
			</g>
			<g>
				<g id="XMLID_11_">
					<g>
						<path fill="#F3F3F3" d="M365.6,375.1c0,0,0,0.1,0,0.1c-0.1,3.9-3.3,7.1-7.2,7.1c-4,0-7.2-3.2-7.2-7.2c0-4,3.2-7.2,7.2-7.2
							C362.3,367.9,365.6,371.1,365.6,375.1z"/>
						<path fill="#F3F3F3" d="M379.9,366.7l58.7,18.6c-0.5,2.4-2.8,4-5.2,3.5l-67.8-13.5l3.2-4.6C371.2,367,375.7,365.4,379.9,366.7
							z"/>
						<path fill="#27AAE1" d="M351.2,375.1l-1.4,5.4c-1.1,4.2-4.9,7.2-9.2,7.4l-61.5,2.3c-0.4-2.4,1.3-4.7,3.7-5L351.2,375.1z"/>
						<path fill="#F3F3F3" d="M358.4,298.8v69.1l-5.2-2.2c-4-1.7-6.4-5.9-6-10.2l6.7-61.2C356.4,294.4,358.4,296.4,358.4,298.8z"/>
					</g>
					<g>
						
							<line fill="none" stroke="#51A332" stroke-width="3.8604" stroke-linecap="round" stroke-linejoin="round" stroke-miterlimit="10" x1="358.4" y1="502.2" x2="358.4" y2="382.3"/>
						
							<path fill="none" stroke="#51A332" stroke-width="3.8604" stroke-linecap="round" stroke-linejoin="round" stroke-miterlimit="10" d="
							M358.4,367.9c4,0,7.2,3.2,7.2,7.2c0,0,0,0.1,0,0.1c-0.1,3.9-3.3,7.1-7.2,7.1c-4,0-7.2-3.2-7.2-7.2
							C351.2,371.1,354.4,367.9,358.4,367.9z"/>
						
							<path fill="#F3F3F3" stroke="#51A332" stroke-width="3.8604" stroke-linecap="round" stroke-linejoin="round" stroke-miterlimit="10" d="
							M351.2,375.1l-68.4,10.1c-2.4,0.3-4.1,2.6-3.7,5l61.5-2.3c4.4-0.2,8.1-3.2,9.2-7.4L351.2,375.1z"/>
						
							<path fill="none" stroke="#51A332" stroke-width="3.8604" stroke-linecap="round" stroke-linejoin="round" stroke-miterlimit="10" d="
							M358.4,367.9v-69.1c0-2.4-2-4.4-4.4-4.4l-6.7,61.2c-0.5,4.3,2,8.5,6,10.2L358.4,367.9z"/>
						
							<path fill="none" stroke="#51A332" stroke-width="3.8604" stroke-linecap="round" stroke-linejoin="round" stroke-miterlimit="10" d="
							M365.6,375.2l67.8,13.5c2.4,0.5,4.7-1.1,5.2-3.5l-58.7-18.6c-4.2-1.3-8.7,0.2-11.2,3.9L365.6,375.2z"/>
					</g>
				</g>
			</g>
		</g>
		<g>
			<g>
				<path fill="#51A332" stroke="#51A332" stroke-miterlimit="10" d="M1005.9,502.5h-22.8c-0.8,0-1.4-0.6-1.4-1.4v-26.7h-0.3
					c-4,0-7.3-3.3-7.3-7.3v-17.7c0-4.1,3.3-7.3,7.3-7.3l26.1,0c4.1,0,7.3,3.3,7.3,7.3v17.7c0,4-3.3,7.3-7.3,7.3h-0.3v26.7
					C1007.2,501.9,1006.6,502.5,1005.9,502.5L1005.9,502.5z M984.5,499.8l20,0V473c0-0.8,0.6-1.4,1.4-1.4h1.7c2.5,0,4.6-2.1,4.6-4.6
					v-17.7c0-2.5-2.1-4.6-4.6-4.6l-26.1,0c-2.5,0-4.6,2.1-4.6,4.6v17.7c0,2.5,2.1,4.6,4.6,4.6h1.7c0.8,0,1.4,0.6,1.4,1.4V499.8z
					 M984.5,499.8"/>
				<path fill="#51A332" stroke="#51A332" stroke-miterlimit="10" d="M994.5,438.8c-7.5,0-13.6-6.1-13.6-13.6
					c0-7.5,6.1-13.6,13.6-13.6s13.6,6.1,13.6,13.6C1008.1,432.7,1002,438.8,994.5,438.8L994.5,438.8z M994.5,414.4
					c-6,0-10.8,4.9-10.8,10.8c0,6,4.9,10.8,10.8,10.8c6,0,10.8-4.9,10.8-10.8C1005.3,419.2,1000.4,414.4,994.5,414.4L994.5,414.4z
					 M994.5,414.4"/>
			</g>
		</g>
		<g>
			<g>
				<path fill="#51A332" stroke="#51A332" stroke-miterlimit="10" d="M592.9,601.4l-22.8,0c-0.8,0-1.4-0.6-1.4-1.4v-26.7h-0.3
					c-4,0-7.3-3.3-7.3-7.3v-17.7c0-4,3.3-7.3,7.3-7.3l26.1,0c4,0,7.3,3.3,7.3,7.3v17.7c0,4.1-3.3,7.3-7.3,7.3h-0.3V600
					C594.3,600.7,593.7,601.4,592.9,601.4L592.9,601.4z M571.6,598.6l20,0l0-26.7c0-0.8,0.6-1.4,1.4-1.4h1.7c2.5,0,4.6-2.1,4.6-4.6
					v-17.7c0-2.5-2.1-4.6-4.6-4.6l-26.1,0c-2.5,0-4.6,2.1-4.6,4.6v17.7c0,2.5,2.1,4.6,4.6,4.6h1.7c0.8,0,1.4,0.6,1.4,1.4V598.6z
					 M571.6,598.6"/>
				<path fill="#51A332" stroke="#51A332" stroke-miterlimit="10" d="M581.6,537.6c-7.5,0-13.6-6.1-13.6-13.6
					c0-7.5,6.1-13.6,13.6-13.6c7.5,0,13.6,6.1,13.6,13.6C595.2,531.5,589.1,537.6,581.6,537.6L581.6,537.6z M581.6,513.2
					c-6,0-10.8,4.9-10.8,10.8c0,6,4.9,10.8,10.8,10.8c6,0,10.8-4.9,10.8-10.8C592.4,518.1,587.5,513.2,581.6,513.2L581.6,513.2z
					 M581.6,513.2"/>
			</g>
		</g>
		<g>
			<g>
				<path fill="#51A332" stroke="#51A332" stroke-miterlimit="10" d="M634.1,601.4l-22.8,0c-0.8,0-1.4-0.6-1.4-1.4v-26.7h-0.3
					c-4,0-7.3-3.3-7.3-7.3v-17.7c0-4,3.3-7.3,7.3-7.3l26.1,0c4.1,0,7.3,3.3,7.3,7.3v17.7c0,4.1-3.3,7.3-7.3,7.3h-0.3V600
					C635.5,600.7,634.9,601.4,634.1,601.4L634.1,601.4z M612.8,598.6l20,0v-26.7c0-0.8,0.6-1.4,1.4-1.4h1.7c2.5,0,4.6-2.1,4.6-4.6
					v-17.7c0-2.5-2.1-4.6-4.6-4.6l-26.1,0c-2.5,0-4.6,2.1-4.6,4.6v17.7c0,2.5,2.1,4.6,4.6,4.6h1.7c0.8,0,1.4,0.6,1.4,1.4V598.6z
					 M612.8,598.6"/>
				<path fill="#51A332" stroke="#51A332" stroke-miterlimit="10" d="M622.8,537.6c-7.5,0-13.6-6.1-13.6-13.6
					c0-7.5,6.1-13.6,13.6-13.6s13.6,6.1,13.6,13.6C636.3,531.5,630.2,537.6,622.8,537.6L622.8,537.6z M622.8,513.2
					c-6,0-10.8,4.9-10.8,10.8c0,6,4.9,10.8,10.8,10.8c6,0,10.8-4.9,10.8-10.8C633.6,518.1,628.7,513.2,622.8,513.2L622.8,513.2z
					 M622.8,513.2"/>
			</g>
		</g>
		<g>
			<g>
				<path fill="#51A332" stroke="#51A332" stroke-miterlimit="10" d="M892.6,516.9v-0.4c0-1.2,1-2.2,2.2-2.2l12.5,0
					c1.2,0,2.2,1,2.2,2.2l0,1c0.4,0,0.9,0,1.3,0v-1c0-1.9-1.6-3.5-3.5-3.5l-12.5,0c-1.9,0-3.5,1.6-3.5,3.5v0.4
					C891.8,516.9,892.2,516.9,892.6,516.9z"/>
				<path fill="#51A332" stroke="#51A332" stroke-miterlimit="10" d="M901.1,511.5c-3.6,0-6.5-2.9-6.5-6.5c0-3.6,2.9-6.5,6.5-6.5
					c3.6,0,6.5,2.9,6.5,6.5C907.6,508.6,904.6,511.5,901.1,511.5L901.1,511.5z M901.1,499.9c-2.9,0-5.2,2.3-5.2,5.2
					c0,2.9,2.3,5.2,5.2,5.2c2.9,0,5.2-2.3,5.2-5.2C906.2,502.2,903.9,499.9,901.1,499.9L901.1,499.9z M901.1,499.9"/>
			</g>
		</g>
		<g>
			<g>
				<path fill="#51A332" stroke="#51A332" stroke-miterlimit="10" d="M252.3,554.7v-0.4c0-1.2,1-2.2,2.2-2.2l12.5,0
					c1.2,0,2.2,1,2.2,2.2l0,1c0.4,0,0.9,0,1.3,0v-1c0-1.9-1.6-3.5-3.5-3.5l-12.5,0c-1.9,0-3.5,1.6-3.5,3.5v0.4
					C251.4,554.7,251.8,554.7,252.3,554.7z"/>
				<path fill="#51A332" stroke="#51A332" stroke-miterlimit="10" d="M260.7,549.3c-3.6,0-6.5-2.9-6.5-6.5c0-3.6,2.9-6.5,6.5-6.5
					c3.6,0,6.5,2.9,6.5,6.5C267.2,546.4,264.3,549.3,260.7,549.3L260.7,549.3z M260.7,537.6c-2.9,0-5.2,2.3-5.2,5.2
					c0,2.9,2.3,5.2,5.2,5.2c2.9,0,5.2-2.3,5.2-5.2C265.9,539.9,263.5,537.6,260.7,537.6L260.7,537.6z M260.7,537.6"/>
			</g>
		</g>
		<g>
			<g>
				<path fill="#51A332" stroke="#51A332" stroke-miterlimit="10" d="M219.9,554.7v-0.4c0-1.2,1-2.2,2.2-2.2l12.5,0
					c1.2,0,2.2,1,2.2,2.2l0,1c0.4,0,0.9,0,1.3,0v-1c0-1.9-1.6-3.5-3.5-3.5l-12.5,0c-1.9,0-3.5,1.6-3.5,3.5v0.4
					C219,554.7,219.5,554.7,219.9,554.7z"/>
				<path fill="#51A332" stroke="#51A332" stroke-miterlimit="10" d="M228.4,549.3c-3.6,0-6.5-2.9-6.5-6.5c0-3.6,2.9-6.5,6.5-6.5
					c3.6,0,6.5,2.9,6.5,6.5C234.8,546.4,231.9,549.3,228.4,549.3L228.4,549.3z M228.4,537.6c-2.9,0-5.2,2.3-5.2,5.2
					c0,2.9,2.3,5.2,5.2,5.2c2.9,0,5.2-2.3,5.2-5.2C233.5,539.9,231.2,537.6,228.4,537.6L228.4,537.6z M228.4,537.6"/>
			</g>
		</g>
		<g>
			<path fill="#51A332" d="M895.3,73.6c1-2,1.1-4.3,0.3-6.4l-0.3-1c-0.7-2.1-2.3-3.8-4.3-4.7c-2-1-4.3-1.1-6.4-0.3l-8.9,3.2l-8.4-3
				c-2.2-0.8-4.6-0.7-6.8,0.3c-2.1,1-3.7,2.8-4.5,5c-0.3,1-0.5,2-0.5,3c0,1.3,0.3,2.7,0.9,3.8c-0.1,0.1-0.2,0.3-0.2,0.4
				c-1,2-1.1,4.3-0.3,6.4l0.3,1c0.7,1.9,2,3.5,3.8,4.5c-1.7,0.8-3,2.2-3.8,3.9c-1,2-1.1,4.3-0.3,6.4l0.3,1c0.7,1.8,1.9,3.3,3.5,4.3
				c-1.6,0.8-2.8,2.1-3.6,3.8c-1,2-1.1,4.3-0.3,6.4l0.3,1c0.7,2.1,2.3,3.8,4.3,4.7c0.2,0.1,0.3,0.1,0.5,0.2l0,5.4
				c-1.8,0.9-3,2.7-3,4.8l0,0.6c0,1.9,1,3.5,2.4,4.5c-0.6,0.9-0.9,1.9-0.9,3v0.6c0,1.8,0.9,3.5,2.3,4.4c-0.6,0.9-1,1.9-1,3.1v0.6
				c0,3,2.4,5.4,5.4,5.4h1.4c0.8,3.9,4.2,6.8,8.2,6.8c4.1,0,7.5-2.9,8.2-6.8l1.4,0c3,0,5.4-2.4,5.4-5.4l0-0.6c0-1.1-0.4-2.2-1-3.1
				c1.4-1,2.3-2.6,2.3-4.4v-0.6c0-1.1-0.3-2.2-0.9-3c1.4-1,2.4-2.6,2.4-4.5v-0.6c0-1.9-1-3.5-2.4-4.5l0-14.3c1.8-0.8,3.3-2.2,4.1-4
				c1-2,1.1-4.3,0.3-6.4l-0.3-1c-0.7-1.8-1.9-3.3-3.5-4.3c1.6-0.8,2.8-2.1,3.6-3.8c1-2,1.1-4.3,0.3-6.4l-0.3-1
				c-0.7-1.9-2-3.5-3.8-4.5C893.2,76.7,894.5,75.3,895.3,73.6z M859.1,67.9c0.5-1.4,1.5-2.5,2.9-3.2c1.3-0.6,2.9-0.7,4.3-0.2
				l4.7,1.7l-10,3.6c-0.7,0.3-1.4,0.6-2,1c-0.1-0.3-0.1-0.7-0.1-1.1C858.7,69.1,858.8,68.5,859.1,67.9z M890.3,128.2
				c0,1.2-1,2.1-2.1,2.1l-25,0c-1.2,0-2.1-1-2.1-2.1v-0.6c0-1.2,1-2.1,2.1-2.1l25,0c1.2,0,2.1,1,2.1,2.1V128.2z M888.9,136.2
				c0,1.2-1,2.1-2.1,2.1l-22,0c-1.2,0-2.1-1-2.1-2.1v-0.6c0-1.2,1-2.1,2.1-2.1l22,0c1.2,0,2.1,1,2.1,2.1V136.2z M883,122.2l0-10.5
				l4.9-1.8l0,12.2L883,122.2z M879.8,122.2l-7.4,0v-6.7l7.4-2.6L879.8,122.2z M869.1,122.2l-4.9,0V118c0.9,0,1.8-0.2,2.6-0.5
				l2.3-0.8L869.1,122.2L869.1,122.2z M875.7,153.2c-2.3,0-4.2-1.5-4.9-3.5l9.7,0C879.9,151.8,878,153.2,875.7,153.2z M887.5,144.3
				c0,1.2-1,2.1-2.1,2.1l-19.3,0c-1.2,0-2.1-1-2.1-2.1v-0.6c0-1.2,1-2.1,2.1-2.1l19.3,0c1.2,0,2.1,1,2.1,2.1V144.3z M892.6,99.5
				c0.5,1.3,0.4,2.6-0.2,3.9c-0.6,1.2-1.6,2.1-2.9,2.6l-23.8,8.5c-1.3,0.5-2.6,0.4-3.9-0.2c-1.2-0.6-2.1-1.6-2.6-2.9l-0.3-1
				c-0.5-1.3-0.4-2.6,0.2-3.9c0.6-1.2,1.6-2.1,2.9-2.6l23.8-8.5c0.6-0.2,1.1-0.3,1.7-0.3c0.7,0,1.5,0.2,2.2,0.5
				c1.2,0.6,2.1,1.6,2.6,2.9L892.6,99.5z M892.6,84.1c0.9,2.6-0.4,5.5-3.1,6.5L865.7,99c-1.3,0.5-2.6,0.4-3.9-0.2
				c-1.2-0.6-2.1-1.6-2.6-2.9l-0.3-1c-0.5-1.3-0.4-2.6,0.2-3.9c0.6-1.2,1.6-2.1,2.9-2.6l23.8-8.5c0.6-0.2,1.1-0.3,1.7-0.3
				c0.7,0,1.5,0.2,2.2,0.5c1.2,0.6,2.1,1.6,2.6,2.9L892.6,84.1z M889.5,74.8l-23.8,8.5c-1.3,0.5-2.6,0.4-3.9-0.2
				c-1.2-0.6-2.1-1.6-2.6-2.9l-0.3-1c-0.5-1.3-0.4-2.6,0.2-3.9c0.6-1.2,1.6-2.1,2.9-2.6l23.8-8.5c0.6-0.2,1.1-0.3,1.7-0.3
				c0.7,0,1.5,0.2,2.2,0.5c1.2,0.6,2.1,1.6,2.6,2.9l0.3,1C893.5,71,892.1,73.9,889.5,74.8z"/>
		</g>
		<g>
			<g>
				<path fill="#51A332" d="M100.1,502.5l-14.2,0c-1.3,0-2.3-1-2.3-2.3l0-70c-4.9,2.2-10.3,3.3-15.7,3.3
					c-21.2,0-38.5-17.3-38.5-38.5c0-11.4,5.1-22.3,13.8-29.6c-3.4-2.9-5.3-7.2-5.3-11.7c0-8.6,7-15.5,15.5-15.5
					c0.8,0,1.6,0.1,2.5,0.2c1-15.8,14.2-28.3,30.3-28.3c11.8,0,22.4,6.7,27.4,17.3c1.9-0.6,3.9-0.8,5.9-0.8c11.6,0,21,9.4,21,21
					c0,2.3-0.4,4.6-1.1,6.8c9.1,7.5,14.3,18.5,14.3,30.4c0,6.5-1.6,12.9-4.6,18.5c1.3,2.2,1.9,4.8,1.9,7.4c0,8.3-6.7,15-15,15
					c-3,0-5.9-0.9-8.3-2.5c-1.7,10.2-10.6,18-21.2,18c-1.4,0-2.8-0.1-4.1-0.4l0,59.5C102.4,501.5,101.4,502.5,100.1,502.5
					L100.1,502.5z M88.2,498l9.7,0l0-93.7c0-0.6,0.2-1.2,0.7-1.6l15.4-15.4l-2.3-2.3l-9.8,9.8c-0.6,0.6-1.6,0.8-2.5,0.5
					c-0.7-0.3-1.1-0.8-1.3-1.5c-0.1-0.2-0.1-0.5-0.1-0.7l0-38.3l-9.6,0l0,51c0,0.9-0.6,1.7-1.4,2.1c-0.8,0.4-1.8,0.2-2.5-0.5
					l-16.2-16.2l-2.4,2.4l21.8,21.8c0.3,0.3,0.5,0.7,0.6,1.1c0.1,0.2,0.1,0.4,0.1,0.7l0,9.5c0,0.1,0,0.3,0,0.4L88.2,498z
					 M102.4,436.1c1.3,0.3,2.7,0.5,4.1,0.5c9.2,0,16.8-7.5,17-16.6c0-1,0.6-1.8,1.6-2.1c0.4-0.1,0.8-0.3,1.2-0.4
					c0.8-0.3,1.8-0.1,2.4,0.5c2,2,4.6,3.1,7.4,3.1c5.8,0,10.5-4.7,10.5-10.5c0-2.2-0.7-4.2-1.9-6c-0.5-0.7-0.5-1.7-0.1-2.4
					c3.1-5.3,4.7-11.3,4.7-17.5c0-11-5.1-21.2-13.9-27.8c-0.8-0.6-1.1-1.8-0.7-2.7c0.9-2.1,1.4-4.3,1.4-6.6
					c0-9.1-7.4-16.4-16.5-16.4c-2.2,0-4.3,0.4-6.3,1.2c-0.6,0.2-1.2,0.2-1.8,0c-0.6-0.2-1-0.7-1.2-1.3c-3.9-10-13.3-16.4-24-16.4
					c-14.2,0-25.8,11.6-25.8,25.8c0,0.2,0,0.5,0,0.7l0,0.2c0,0.8-0.3,1.5-0.9,1.9c-0.6,0.4-1.4,0.5-2.1,0.3
					c-1.3-0.5-2.6-0.7-3.9-0.7c-6.1,0-11,4.9-11,11c0,4,2.2,7.7,5.7,9.7c0.7,0.4,1.1,1.1,1.2,1.9c0,0.8-0.3,1.5-1,2
					c-9,6.4-14.4,16.8-14.4,27.8c0,18.7,15.2,34,34,34c5.5,0,10.9-1.3,15.7-3.8l0-7.3l-22.7-22.7c-0.3-0.3-0.5-0.6-0.6-0.9
					c-0.1-0.2-0.1-0.5-0.1-0.8c0-0.6,0.2-1.2,0.7-1.6l5.6-5.6c0.9-0.9,2.3-0.9,3.2,0l14,14l0-47.8c0-1.3,1-2.3,2.3-2.3l14.2,0
					c1,0,1.9,0.7,2.2,1.7c0.1,0.2,0.1,0.5,0.1,0.7l0,35l7.5-7.5c0.8-0.8,2.4-0.8,3.2,0l5.6,5.6c0.3,0.3,0.5,0.6,0.6,0.9
					c0.3,0.8,0.1,1.7-0.5,2.4l-16.4,16.4L102.4,436.1z M102.4,436.1"/>
			</g>
		</g>
	</g>
</g>
<g id="B1" display="none">
</g>
</svg>
