<?xml version="1.0" encoding="utf-8"?>
<!-- Generator: Adobe Illustrator 18.0.0, SVG Export Plug-In . SVG Version: 6.00 Build 0)  -->
<!DOCTYPE svg PUBLIC "-//W3C//DTD SVG 1.1//EN" "http://www.w3.org/Graphics/SVG/1.1/DTD/svg11.dtd">
<svg version="1.1" xmlns="http://www.w3.org/2000/svg" xmlns:xlink="http://www.w3.org/1999/xlink" x="0px" y="0px"
	 viewBox="0 0 396 188.4" enable-background="new 0 0 396 188.4" xml:space="preserve">
<g id="Referentes" display="none">
</g>
<g id="Sustainability_Vision">
	<g>
		<path fill="#51A332" d="M78.8,37.1c-15.2,0-24.6,7.4-24.6,7.4L75,8.4c0.8-1.4,2.3-2.2,3.9-2.2c1.6,0,3.1,0.9,3.9,2.2l20.9,36.2
			C103.6,44.6,94,37.1,78.8,37.1"/>
		<path fill="#51A332" d="M34,142.5c-2.5-2.4-5.3-3.6-8.4-3.6c-6.2,0-11.9,4.5-11.9,13.4c0,7.3,5.3,12.7,12.5,12.7
			c3,0,5.9-1.6,8-3.7l3.7,4.6c-3.3,3.3-7.8,4.9-12.5,4.9c-11.1,0-18.4-8.8-18.4-18.7c0-10.3,8.1-18.9,18.5-18.9
			c5.5,0,10.1,2.3,12.7,4.5L34,142.5z"/>
		<path fill="#51A332" d="M76.9,159.1c-3.2,3.7-7.1,5.8-11.5,5.8c-7,0-12-4.5-12.9-10.7h30.8c0-12.7-7.7-21.2-18.9-21.2
			c-11.3,0-18.6,8.6-18.6,18.8c0,9.6,6.8,18.9,19.6,18.9c6.3,0,11.4-2.4,16.3-7.8L76.9,159.1z M52.4,149.2
			c0.6-4.9,4.3-10.3,11.9-10.3c6.4,0,11.3,4.4,11.9,10.3H52.4z"/>
		<path fill="#51A332" d="M94.2,185.1h6.2v-20.7h0.2c2.6,3.7,7.2,6.3,13.4,6.3c10,0,19-7.9,19-19.2c0-10.4-8.6-18.5-18.7-18.5
			c-5.3,0-10.7,2.2-13.7,6.5h-0.2v-5.7h-6.2V185.1z M126.4,151.6c0,8.3-6.4,13.3-13,13.3c-7.1,0-13-5.8-13-13
			c0-7.3,6-13.1,12.7-13.1C121.6,138.9,126.4,145.6,126.4,151.6"/>
		<path fill="#51A332" d="M147.3,117.9c2.7,0,4.8,2.2,4.8,4.8c0,2.7-2.2,4.8-4.8,4.8c-2.7,0-4.8-2.1-4.8-4.8
			C142.5,120,144.6,117.9,147.3,117.9"/>
		<rect x="144.3" y="133.9" fill="#51A332" width="6.2" height="36"/>
		<path fill="#51A332" d="M97.1,82c0,10.1-8.2,18.3-18.3,18.3c-10.1,0-18.3-8.2-18.3-18.3c0-10.1,8.2-18.3,18.3-18.3
			C88.9,63.8,97.1,71.9,97.1,82"/>
		<path fill="#51A332" d="M34,142.5c-2.5-2.4-5.3-3.6-8.4-3.6c-6.2,0-11.9,4.5-11.9,13.4c0,7.3,5.3,12.7,12.5,12.7
			c3,0,5.9-1.6,8-3.7l3.7,4.6c-3.3,3.3-7.8,4.9-12.5,4.9c-11.1,0-18.4-8.8-18.4-18.7c0-10.3,8.1-18.9,18.5-18.9
			c5.5,0,10.1,2.3,12.7,4.5L34,142.5z"/>
		<path fill="#51A332" d="M76.9,159.1c-3.2,3.7-7.1,5.8-11.5,5.8c-7,0-12-4.5-12.9-10.7h30.8c0-12.7-7.7-21.2-18.9-21.2
			c-11.3,0-18.6,8.6-18.6,18.8c0,9.6,6.8,18.9,19.6,18.9c6.3,0,11.4-2.4,16.3-7.8L76.9,159.1z M52.4,149.2
			c0.6-4.9,4.3-10.3,11.9-10.3c6.4,0,11.3,4.4,11.9,10.3H52.4z"/>
		<path fill="#51A332" d="M94.2,185.1h6.2v-20.7h0.2c2.6,3.7,7.2,6.3,13.4,6.3c10,0,19-7.9,19-19.2c0-10.4-8.6-18.5-18.7-18.5
			c-5.3,0-10.7,2.2-13.7,6.5h-0.2v-5.7h-6.2V185.1z M126.4,151.6c0,8.3-6.4,13.3-13,13.3c-7.1,0-13-5.8-13-13
			c0-7.3,6-13.1,12.7-13.1C121.6,138.9,126.4,145.6,126.4,151.6"/>
		<rect x="144.3" y="133.9" fill="#51A332" width="6.2" height="36"/>
		<path fill="#51A332" d="M39.9,104.5c7.1,12,18,17.5,18,17.5H17.2c-1.6,0-3.1-0.9-3.8-2.2c-0.8-1.4-0.8-3.1,0-4.4l20.7-35.9
			C34.1,79.4,32.8,92.5,39.9,104.5"/>
		<path fill="#51A332" d="M117.7,103.9c7.6-13.6,5.8-24.9,5.8-24.9l19.8,34.3c0,0-2.9,1-4.5,3.6c-1.7,2.6-1.6,5-1.6,5H99
			C99,121.9,110.1,117.5,117.7,103.9"/>
		<path fill="#51A332" d="M174.7,140.2c-0.6-0.6-1.3-0.9-2.1-0.9c-1.5,0-2.9,1.1-2.9,3.3c0,1.8,1.3,3.1,3.1,3.1c0.7,0,1.4-0.4,2-0.9
			l0.9,1.1c-0.8,0.8-1.9,1.2-3.1,1.2c-2.7,0-4.5-2.2-4.5-4.6c0-2.5,2-4.7,4.6-4.7c1.3,0,2.5,0.6,3.1,1.1L174.7,140.2z"/>
		<path fill="#51A332" d="M182.5,139.3c1.7,0,3.2,1.4,3.2,3.2c0,1.7-1.5,3.2-3.2,3.2c-1.7,0-3.2-1.5-3.2-3.2
			C179.3,140.7,180.8,139.3,182.5,139.3 M177.7,142.5c0,2.5,1.9,4.6,4.8,4.6c2.9,0,4.8-2.1,4.8-4.6c0-2.5-2-4.6-4.8-4.6
			C179.7,137.9,177.7,140,177.7,142.5"/>
		<path fill="#51A332" d="M195.8,141.8c0-1.3-0.5-2.5-2-2.5c-1.4,0-2.3,1-2.3,2.7v5h-1.5v-8.9h1.5v1h0c0.5-0.8,1.4-1.2,2.4-1.2
			c1.7,0,3.4,0.9,3.4,3.3v5.7h-1.5V141.8z"/>
		<path fill="#51A332" d="M200.7,136.7c0-1.9,1.3-2.7,3-2.8v1.5h-0.3c-0.8,0-1.2,0.6-1.2,1.4v1.2h1.4v1.3h-1.4v7.5h-1.5v-7.5h-1.3
			v-1.3h1.3V136.7z"/>
		<path fill="#51A332" d="M207,141.9c0.1-1.2,1-2.5,2.9-2.5c1.6,0,2.8,1.1,2.9,2.5H207z M213,144.3c-0.8,0.9-1.8,1.4-2.8,1.4
			c-1.7,0-2.9-1.1-3.2-2.6h7.6c0-3.1-1.9-5.2-4.6-5.2c-2.8,0-4.6,2.1-4.6,4.6c0,2.4,1.7,4.6,4.8,4.6c1.6,0,2.8-0.6,4-1.9L213,144.3z
			"/>
		<path fill="#51A332" d="M224.7,142.5c0,1.8-1.4,3.2-3.2,3.2c-1.6,0-3.2-1.2-3.2-3.3c0-1.5,1.2-3.1,3.3-3.1
			C223.2,139.3,224.7,140.7,224.7,142.5 M224.7,139.5L224.7,139.5c-0.8-1.1-2.1-1.6-3.4-1.6c-2.5,0-4.6,2-4.6,4.5
			c0,2.8,2.2,4.7,4.7,4.7c1.6,0,2.7-0.6,3.3-1.6h0v1.4h1.5V134h-1.5V139.5z"/>
		<path fill="#51A332" d="M230.4,141.9c0.1-1.2,1.1-2.5,2.9-2.5c1.6,0,2.8,1.1,2.9,2.5H230.4z M236.4,144.3
			c-0.8,0.9-1.8,1.4-2.8,1.4c-1.7,0-2.9-1.1-3.2-2.6h7.6c0-3.1-1.9-5.2-4.6-5.2c-2.8,0-4.6,2.1-4.6,4.6c0,2.4,1.7,4.6,4.8,4.6
			c1.5,0,2.8-0.6,4-1.9L236.4,144.3z"/>
		<path fill="#51A332" d="M240.5,138.1h1.5v1.3h0c0.8-1.4,1.5-1.5,2.8-1.5v1.6c-0.2-0.1-0.5-0.1-0.7-0.1c-1.3,0-2.1,0.9-2.1,2.5v5
			h-1.5V138.1z"/>
		<path fill="#51A332" d="M252.7,144c0,0.9-0.6,1.8-2.5,1.8c-1.9,0-2.5-0.9-2.5-1.8c0-0.9,0.6-1.8,2.5-1.8
			C252.1,142.3,252.7,143.2,252.7,144 M252.7,141.9c-0.8-0.7-1.8-1-2.7-1c-2.5,0-3.8,1.4-3.8,3c0,2,1.7,3.2,3.9,3.2
			c1.2,0,2-0.3,2.8-1.2v1h1.4v-6.1c0-2.1-2-3-4.1-3c-0.8,0-1.8,0.1-3.2,0.7l0.7,1.3c0.8-0.4,1.6-0.6,2.4-0.6c1.2,0,2.7,0.3,2.7,1.8
			V141.9z"/>
		<path fill="#51A332" d="M257.4,136h1.5v2.1h1.4v1.3h-1.4v5.4c0,0.5,0.2,0.7,0.7,0.7h0.7v1.4c-0.2,0-0.6,0-0.9,0
			c-1.6,0-2-0.5-2-1.9v-5.6h-1.2v-1.3h1.2V136z"/>
		<path fill="#51A332" d="M262.6,138.1h1.5v8.9h-1.5V138.1z M263.4,134.2c0.6,0,1.1,0.5,1.1,1.1s-0.5,1.1-1.1,1.1
			c-0.6,0-1.1-0.5-1.1-1.1S262.8,134.2,263.4,134.2"/>
		<path fill="#51A332" d="M271.8,139.3c1.7,0,3.2,1.4,3.2,3.2c0,1.7-1.5,3.2-3.2,3.2c-1.7,0-3.2-1.5-3.2-3.2
			C268.6,140.7,270.1,139.3,271.8,139.3 M267,142.5c0,2.5,1.9,4.6,4.8,4.6c2.9,0,4.8-2.1,4.8-4.6c0-2.5-2-4.6-4.8-4.6
			C269,137.9,267,140,267,142.5"/>
		<path fill="#51A332" d="M285.2,141.8c0-1.3-0.5-2.5-2.1-2.5c-1.4,0-2.3,1-2.3,2.7v5h-1.5v-8.9h1.5v1h0c0.5-0.8,1.5-1.2,2.4-1.2
			c1.7,0,3.4,0.9,3.4,3.3v5.7h-1.5V141.8z"/>
		<path fill="#51A332" d="M299.1,139.3c1.7,0,3.2,1.4,3.2,3.2c0,1.7-1.5,3.2-3.2,3.2c-1.7,0-3.2-1.5-3.2-3.2
			C296,140.7,297.4,139.3,299.1,139.3 M294.3,142.5c0,2.5,1.9,4.6,4.8,4.6c2.9,0,4.8-2.1,4.8-4.6c0-2.5-2-4.6-4.8-4.6
			C296.3,137.9,294.3,140,294.3,142.5"/>
		<path fill="#51A332" d="M307.1,136.7c0-1.9,1.3-2.7,3-2.8v1.5h-0.3c-0.8,0-1.2,0.6-1.2,1.4v1.2h1.4v1.3h-1.4v7.5h-1.5v-7.5h-1.3
			v-1.3h1.3V136.7z"/>
		<path fill="#51A332" d="M169.7,162.5c0.2-1.2,1.1-2.5,2.9-2.5c1.6,0,2.8,1.1,2.9,2.5H169.7z M175.7,165c-0.8,0.9-1.8,1.4-2.8,1.4
			c-1.7,0-2.9-1.1-3.2-2.6h7.6c0-3.1-1.9-5.2-4.6-5.2c-2.8,0-4.6,2.1-4.6,4.6c0,2.4,1.7,4.6,4.8,4.6c1.6,0,2.8-0.6,4-1.9L175.7,165z
			"/>
		<path fill="#51A332" d="M185.6,166.6L185.6,166.6c-0.5,0.8-1.5,1.2-2.5,1.2c-1.7,0-3.4-0.9-3.4-3.3v-5.7h1.5v5.2
			c0,1.3,0.5,2.5,2.1,2.5c1.4,0,2.3-1,2.3-2.7v-5h1.5v8.9h-1.5V166.6z"/>
		<path fill="#51A332" d="M190.1,158.8h1.5v1.3h0c0.8-1.4,1.5-1.5,2.8-1.5v1.6c-0.2-0.1-0.5-0.1-0.7-0.1c-1.3,0-2.1,0.9-2.1,2.5v5
			h-1.5V158.8z"/>
		<path fill="#51A332" d="M200.8,160c1.7,0,3.2,1.4,3.2,3.2c0,1.7-1.5,3.2-3.2,3.2c-1.7,0-3.2-1.5-3.2-3.2
			C197.6,161.4,199.1,160,200.8,160 M196,163.2c0,2.5,1.9,4.6,4.8,4.6c2.9,0,4.8-2.1,4.8-4.6c0-2.5-2-4.6-4.8-4.6
			C198,158.5,196,160.7,196,163.2"/>
		<path fill="#51A332" d="M216.3,163.1c0,2-1.6,3.3-3.2,3.3c-1.7,0-3.2-1.4-3.2-3.2c0-1.8,1.5-3.2,3.1-3.2
			C215.2,160,216.3,161.6,216.3,163.1 M208.4,171.4h1.5v-5.1h0c0.7,0.9,1.8,1.6,3.3,1.6c2.5,0,4.7-1.9,4.7-4.7
			c0-2.6-2.1-4.6-4.6-4.6c-1.3,0-2.6,0.5-3.4,1.6h0v-1.4h-1.5V171.4z"/>
		<path fill="#51A332" d="M221.7,162.5c0.1-1.2,1-2.5,2.9-2.5c1.6,0,2.8,1.1,2.9,2.5H221.7z M227.7,165c-0.8,0.9-1.8,1.4-2.8,1.4
			c-1.7,0-2.9-1.1-3.2-2.6h7.6c0-3.1-1.9-5.2-4.6-5.2c-2.8,0-4.6,2.1-4.6,4.6c0,2.4,1.7,4.6,4.8,4.6c1.6,0,2.8-0.6,4-1.9L227.7,165z
			"/>
		<path fill="#51A332" d="M237.7,164.7c0,0.9-0.6,1.8-2.5,1.8c-1.9,0-2.5-0.9-2.5-1.8c0-0.9,0.6-1.8,2.5-1.8
			C237.1,162.9,237.7,163.8,237.7,164.7 M237.7,162.6c-0.8-0.7-1.8-1-2.8-1c-2.5,0-3.8,1.4-3.8,3c0,2,1.7,3.2,3.9,3.2
			c1.2,0,2-0.3,2.8-1.1v0.9h1.4v-6.1c0-2.1-2-3-4.1-3c-0.8,0-1.9,0.1-3.2,0.7l0.7,1.3c0.8-0.4,1.6-0.6,2.4-0.6
			c1.2,0,2.7,0.3,2.7,1.8V162.6z"/>
		<path fill="#51A332" d="M247.9,162.5c0-1.3-0.5-2.5-2.1-2.5c-1.4,0-2.3,1-2.3,2.7v5H242v-8.9h1.5v1h0c0.5-0.8,1.5-1.2,2.4-1.2
			c1.7,0,3.4,0.9,3.4,3.3v5.7h-1.5V162.5z"/>
		<path fill="#51A332" d="M265.2,163.1c0,2-1.6,3.3-3.2,3.3c-1.7,0-3.2-1.4-3.2-3.2c0-1.8,1.5-3.2,3.1-3.2
			C264,160,265.2,161.6,265.2,163.1 M257.3,171.4h1.5v-5.1h0c0.7,0.9,1.8,1.6,3.3,1.6c2.5,0,4.7-1.9,4.7-4.7c0-2.6-2.1-4.6-4.6-4.6
			c-1.3,0-2.6,0.5-3.4,1.6h0v-1.4h-1.5V171.4z"/>
		<path fill="#51A332" d="M275.3,164.7c0,0.9-0.6,1.8-2.5,1.8c-1.9,0-2.5-0.9-2.5-1.8c0-0.9,0.6-1.8,2.5-1.8
			C274.7,162.9,275.3,163.8,275.3,164.7 M275.3,162.6c-0.8-0.7-1.8-1-2.7-1c-2.5,0-3.9,1.4-3.9,3c0,2,1.7,3.2,3.9,3.2
			c1.2,0,2-0.3,2.8-1.1v0.9h1.4v-6.1c0-2.1-2-3-4.1-3c-0.8,0-1.8,0.1-3.2,0.7l0.7,1.3c0.8-0.4,1.6-0.6,2.5-0.6
			c1.2,0,2.7,0.3,2.7,1.8V162.6z"/>
		<path fill="#51A332" d="M287.6,163.1c0,2-1.6,3.3-3.2,3.3c-1.8,0-3.2-1.4-3.2-3.2c0-1.8,1.5-3.2,3.1-3.2
			C286.4,160,287.6,161.6,287.6,163.1 M279.7,171.4h1.5v-5.1h0c0.7,0.9,1.8,1.6,3.3,1.6c2.5,0,4.7-1.9,4.7-4.7
			c0-2.6-2.1-4.6-4.6-4.6c-1.3,0-2.6,0.5-3.4,1.6h0v-1.4h-1.5V171.4z"/>
		<path fill="#51A332" d="M293,162.5c0.2-1.2,1-2.5,2.9-2.5c1.6,0,2.8,1.1,2.9,2.5H293z M299,165c-0.8,0.9-1.8,1.4-2.9,1.4
			c-1.7,0-2.9-1.1-3.2-2.6h7.6c0-3.1-1.9-5.2-4.6-5.2c-2.8,0-4.6,2.1-4.6,4.6c0,2.4,1.7,4.6,4.8,4.6c1.6,0,2.8-0.6,4-1.9L299,165z"
			/>
		<path fill="#51A332" d="M303.1,158.8h1.5v1.3h0c0.8-1.4,1.5-1.5,2.8-1.5v1.6c-0.2-0.1-0.5-0.1-0.7-0.1c-1.3,0-2.1,0.9-2.1,2.5v5
			h-1.5V158.8z"/>
		<path fill="#51A332" d="M314.5,158.8h1.5v8.9h-1.5V158.8z M315.3,154.9c0.6,0,1.1,0.5,1.1,1.1c0,0.6-0.5,1.1-1.1,1.1
			c-0.6,0-1.1-0.5-1.1-1.1C314.2,155.3,314.7,154.9,315.3,154.9"/>
		<path fill="#51A332" d="M324.9,162.5c0-1.3-0.5-2.5-2.1-2.5c-1.4,0-2.3,1-2.3,2.7v5H319v-8.9h1.5v1h0c0.5-0.8,1.5-1.2,2.4-1.2
			c1.7,0,3.4,0.9,3.4,3.3v5.7h-1.5V162.5z"/>
		<path fill="#51A332" d="M336.9,163.2c0,1.8-1.4,3.2-3.2,3.2c-1.6,0-3.2-1.3-3.2-3.3c0-1.5,1.2-3.1,3.3-3.1
			C335.5,160,336.9,161.4,336.9,163.2 M336.9,160.1L336.9,160.1c-0.8-1.1-2.1-1.6-3.4-1.6c-2.5,0-4.6,2-4.6,4.6
			c0,2.8,2.2,4.7,4.7,4.7c1.5,0,2.7-0.6,3.3-1.6h0v1.4h1.5v-12.9h-1.5V160.1z"/>
		<path fill="#51A332" d="M347.3,166.6L347.3,166.6c-0.5,0.8-1.5,1.2-2.5,1.2c-1.7,0-3.4-0.9-3.4-3.3v-5.7h1.5v5.2
			c0,1.3,0.5,2.5,2.1,2.5c1.4,0,2.3-1,2.3-2.7v-5h1.5v8.9h-1.5V166.6z"/>
		<path fill="#51A332" d="M352.6,165c0.1,1,0.9,1.4,1.8,1.4c1.4,0,1.8-0.7,1.8-1.3c0-0.6-0.4-0.9-1.6-1.2l-1.5-0.4
			c-1.3-0.4-1.8-1.2-1.8-2.3c0-1.5,1.1-2.7,3.2-2.7c2.3,0,3,1.4,3,2.8h-1.4c-0.1-1-0.6-1.5-1.6-1.5c-1,0-1.6,0.6-1.6,1.3
			c0,0.5,0.3,0.9,1,1.1l2.1,0.6c1.4,0.4,1.9,1.2,1.9,2.3c0,1.8-1.6,2.8-3.2,2.8c-2.1,0-3.3-1.1-3.3-2.8H352.6z"/>
		<path fill="#51A332" d="M360.5,156.6h1.5v2.1h1.4v1.3H362v5.4c0,0.5,0.1,0.6,0.7,0.6h0.7v1.4c-0.2,0-0.6,0-0.9,0
			c-1.6,0-2-0.5-2-1.9v-5.6h-1.2v-1.3h1.2V156.6z"/>
		<path fill="#51A332" d="M365.7,158.8h1.5v1.3h0c0.8-1.4,1.5-1.5,2.8-1.5v1.6c-0.2-0.1-0.5-0.1-0.7-0.1c-1.3,0-2.1,0.9-2.1,2.5v5
			h-1.5V158.8z"/>
		<path fill="#51A332" d="M372.2,158.8h1.5v8.9h-1.5V158.8z M373,154.9c0.6,0,1.1,0.5,1.1,1.1c0,0.6-0.5,1.1-1.1,1.1
			c-0.6,0-1.1-0.5-1.1-1.1C371.9,155.3,372.4,154.9,373,154.9"/>
		<path fill="#51A332" d="M378,162.5c0.2-1.2,1.1-2.5,2.9-2.5c1.6,0,2.8,1.1,2.9,2.5H378z M384,165c-0.8,0.9-1.7,1.4-2.8,1.4
			c-1.7,0-2.9-1.1-3.2-2.6h7.6c0-3.1-1.9-5.2-4.7-5.2c-2.8,0-4.6,2.1-4.6,4.6c0,2.4,1.7,4.6,4.8,4.6c1.5,0,2.8-0.6,4-1.9L384,165z"
			/>
		<path fill="#51A332" d="M388.9,165c0.1,1,0.9,1.4,1.8,1.4c1.4,0,1.8-0.7,1.8-1.3c0-0.6-0.4-0.9-1.6-1.2l-1.6-0.4
			c-1.3-0.4-1.8-1.2-1.8-2.3c0-1.5,1.1-2.7,3.2-2.7c2.3,0,3.1,1.4,3.1,2.8h-1.4c-0.1-1-0.6-1.5-1.7-1.5c-1,0-1.6,0.6-1.6,1.3
			c0,0.5,0.3,0.9,1,1.1l2.1,0.6c1.4,0.4,1.9,1.2,1.9,2.3c0,1.8-1.6,2.8-3.2,2.8c-2.1,0-3.3-1.1-3.3-2.8H388.9z"/>
		<path fill="#51A332" d="M174.7,140.2c-0.6-0.6-1.3-0.9-2.1-0.9c-1.5,0-2.9,1.1-2.9,3.3c0,1.8,1.3,3.1,3.1,3.1c0.7,0,1.4-0.4,2-0.9
			l0.9,1.1c-0.8,0.8-1.9,1.2-3.1,1.2c-2.7,0-4.5-2.2-4.5-4.6c0-2.5,2-4.7,4.6-4.7c1.3,0,2.5,0.6,3.1,1.1L174.7,140.2z"/>
		<path fill="#51A332" d="M182.5,139.3c1.7,0,3.2,1.4,3.2,3.2c0,1.7-1.5,3.2-3.2,3.2c-1.7,0-3.2-1.5-3.2-3.2
			C179.3,140.7,180.8,139.3,182.5,139.3 M177.7,142.5c0,2.5,1.9,4.6,4.8,4.6c2.9,0,4.8-2.1,4.8-4.6c0-2.5-2-4.6-4.8-4.6
			C179.7,137.9,177.7,140,177.7,142.5"/>
		<path fill="#51A332" d="M195.8,141.8c0-1.3-0.5-2.5-2-2.5c-1.4,0-2.3,1-2.3,2.7v5h-1.5v-8.9h1.5v1h0c0.5-0.8,1.4-1.2,2.4-1.2
			c1.7,0,3.4,0.9,3.4,3.3v5.7h-1.5V141.8z"/>
		<path fill="#51A332" d="M200.7,136.7c0-1.9,1.3-2.7,3-2.8v1.5h-0.3c-0.8,0-1.2,0.6-1.2,1.4v1.2h1.4v1.3h-1.4v7.5h-1.5v-7.5h-1.3
			v-1.3h1.3V136.7z"/>
		<path fill="#51A332" d="M207,141.9c0.1-1.2,1-2.5,2.9-2.5c1.6,0,2.8,1.1,2.9,2.5H207z M213,144.3c-0.8,0.9-1.8,1.4-2.8,1.4
			c-1.7,0-2.9-1.1-3.2-2.6h7.6c0-3.1-1.9-5.2-4.6-5.2c-2.8,0-4.6,2.1-4.6,4.6c0,2.4,1.7,4.6,4.8,4.6c1.6,0,2.8-0.6,4-1.9L213,144.3z
			"/>
		<path fill="#51A332" d="M224.7,142.5c0,1.8-1.4,3.2-3.2,3.2c-1.6,0-3.2-1.2-3.2-3.3c0-1.5,1.2-3.1,3.3-3.1
			C223.2,139.3,224.7,140.7,224.7,142.5 M224.7,139.5L224.7,139.5c-0.8-1.1-2.1-1.6-3.4-1.6c-2.5,0-4.6,2-4.6,4.5
			c0,2.8,2.2,4.7,4.7,4.7c1.6,0,2.7-0.6,3.3-1.6h0v1.4h1.5V134h-1.5V139.5z"/>
		<path fill="#51A332" d="M230.4,141.9c0.1-1.2,1.1-2.5,2.9-2.5c1.6,0,2.8,1.1,2.9,2.5H230.4z M236.4,144.3
			c-0.8,0.9-1.8,1.4-2.8,1.4c-1.7,0-2.9-1.1-3.2-2.6h7.6c0-3.1-1.9-5.2-4.6-5.2c-2.8,0-4.6,2.1-4.6,4.6c0,2.4,1.7,4.6,4.8,4.6
			c1.5,0,2.8-0.6,4-1.9L236.4,144.3z"/>
		<path fill="#51A332" d="M240.5,138.1h1.5v1.3h0c0.8-1.4,1.5-1.5,2.8-1.5v1.6c-0.2-0.1-0.5-0.1-0.7-0.1c-1.3,0-2.1,0.9-2.1,2.5v5
			h-1.5V138.1z"/>
		<path fill="#51A332" d="M252.7,144c0,0.9-0.6,1.8-2.5,1.8c-1.9,0-2.5-0.9-2.5-1.8c0-0.9,0.6-1.8,2.5-1.8
			C252.1,142.3,252.7,143.2,252.7,144 M252.7,141.9c-0.8-0.7-1.8-1-2.7-1c-2.5,0-3.8,1.4-3.8,3c0,2,1.7,3.2,3.9,3.2
			c1.2,0,2-0.3,2.8-1.2v1h1.4v-6.1c0-2.1-2-3-4.1-3c-0.8,0-1.8,0.1-3.2,0.7l0.7,1.3c0.8-0.4,1.6-0.6,2.4-0.6c1.2,0,2.7,0.3,2.7,1.8
			V141.9z"/>
		<path fill="#51A332" d="M257.4,136h1.5v2.1h1.4v1.3h-1.4v5.4c0,0.5,0.2,0.7,0.7,0.7h0.7v1.4c-0.2,0-0.6,0-0.9,0
			c-1.6,0-2-0.5-2-1.9v-5.6h-1.2v-1.3h1.2V136z"/>
		<path fill="#51A332" d="M262.6,138.1h1.5v8.9h-1.5V138.1z M263.4,134.2c0.6,0,1.1,0.5,1.1,1.1s-0.5,1.1-1.1,1.1
			c-0.6,0-1.1-0.5-1.1-1.1S262.8,134.2,263.4,134.2"/>
		<path fill="#51A332" d="M271.8,139.3c1.7,0,3.2,1.4,3.2,3.2c0,1.7-1.5,3.2-3.2,3.2c-1.7,0-3.2-1.5-3.2-3.2
			C268.6,140.7,270.1,139.3,271.8,139.3 M267,142.5c0,2.5,1.9,4.6,4.8,4.6c2.9,0,4.8-2.1,4.8-4.6c0-2.5-2-4.6-4.8-4.6
			C269,137.9,267,140,267,142.5"/>
		<path fill="#51A332" d="M285.2,141.8c0-1.3-0.5-2.5-2.1-2.5c-1.4,0-2.3,1-2.3,2.7v5h-1.5v-8.9h1.5v1h0c0.5-0.8,1.5-1.2,2.4-1.2
			c1.7,0,3.4,0.9,3.4,3.3v5.7h-1.5V141.8z"/>
		<path fill="#51A332" d="M299.1,139.3c1.7,0,3.2,1.4,3.2,3.2c0,1.7-1.5,3.2-3.2,3.2c-1.7,0-3.2-1.5-3.2-3.2
			C296,140.7,297.4,139.3,299.1,139.3 M294.3,142.5c0,2.5,1.9,4.6,4.8,4.6c2.9,0,4.8-2.1,4.8-4.6c0-2.5-2-4.6-4.8-4.6
			C296.3,137.9,294.3,140,294.3,142.5"/>
		<path fill="#51A332" d="M307.1,136.7c0-1.9,1.3-2.7,3-2.8v1.5h-0.3c-0.8,0-1.2,0.6-1.2,1.4v1.2h1.4v1.3h-1.4v7.5h-1.5v-7.5h-1.3
			v-1.3h1.3V136.7z"/>
		<path fill="#51A332" d="M169.7,162.5c0.2-1.2,1.1-2.5,2.9-2.5c1.6,0,2.8,1.1,2.9,2.5H169.7z M175.7,165c-0.8,0.9-1.8,1.4-2.8,1.4
			c-1.7,0-2.9-1.1-3.2-2.6h7.6c0-3.1-1.9-5.2-4.6-5.2c-2.8,0-4.6,2.1-4.6,4.6c0,2.4,1.7,4.6,4.8,4.6c1.6,0,2.8-0.6,4-1.9L175.7,165z
			"/>
		<path fill="#51A332" d="M185.6,166.6L185.6,166.6c-0.5,0.8-1.5,1.2-2.5,1.2c-1.7,0-3.4-0.9-3.4-3.3v-5.7h1.5v5.2
			c0,1.3,0.5,2.5,2.1,2.5c1.4,0,2.3-1,2.3-2.7v-5h1.5v8.9h-1.5V166.6z"/>
		<path fill="#51A332" d="M190.1,158.8h1.5v1.3h0c0.8-1.4,1.5-1.5,2.8-1.5v1.6c-0.2-0.1-0.5-0.1-0.7-0.1c-1.3,0-2.1,0.9-2.1,2.5v5
			h-1.5V158.8z"/>
		<path fill="#51A332" d="M200.8,160c1.7,0,3.2,1.4,3.2,3.2c0,1.7-1.5,3.2-3.2,3.2c-1.7,0-3.2-1.5-3.2-3.2
			C197.6,161.4,199.1,160,200.8,160 M196,163.2c0,2.5,1.9,4.6,4.8,4.6c2.9,0,4.8-2.1,4.8-4.6c0-2.5-2-4.6-4.8-4.6
			C198,158.5,196,160.7,196,163.2"/>
		<path fill="#51A332" d="M216.3,163.1c0,2-1.6,3.3-3.2,3.3c-1.7,0-3.2-1.4-3.2-3.2c0-1.8,1.5-3.2,3.1-3.2
			C215.2,160,216.3,161.6,216.3,163.1 M208.4,171.4h1.5v-5.1h0c0.7,0.9,1.8,1.6,3.3,1.6c2.5,0,4.7-1.9,4.7-4.7
			c0-2.6-2.1-4.6-4.6-4.6c-1.3,0-2.6,0.5-3.4,1.6h0v-1.4h-1.5V171.4z"/>
		<path fill="#51A332" d="M221.7,162.5c0.1-1.2,1-2.5,2.9-2.5c1.6,0,2.8,1.1,2.9,2.5H221.7z M227.7,165c-0.8,0.9-1.8,1.4-2.8,1.4
			c-1.7,0-2.9-1.1-3.2-2.6h7.6c0-3.1-1.9-5.2-4.6-5.2c-2.8,0-4.6,2.1-4.6,4.6c0,2.4,1.7,4.6,4.8,4.6c1.6,0,2.8-0.6,4-1.9L227.7,165z
			"/>
		<path fill="#51A332" d="M237.7,164.7c0,0.9-0.6,1.8-2.5,1.8c-1.9,0-2.5-0.9-2.5-1.8c0-0.9,0.6-1.8,2.5-1.8
			C237.1,162.9,237.7,163.8,237.7,164.7 M237.7,162.6c-0.8-0.7-1.8-1-2.8-1c-2.5,0-3.8,1.4-3.8,3c0,2,1.7,3.2,3.9,3.2
			c1.2,0,2-0.3,2.8-1.1v0.9h1.4v-6.1c0-2.1-2-3-4.1-3c-0.8,0-1.9,0.1-3.2,0.7l0.7,1.3c0.8-0.4,1.6-0.6,2.4-0.6
			c1.2,0,2.7,0.3,2.7,1.8V162.6z"/>
		<path fill="#51A332" d="M247.9,162.5c0-1.3-0.5-2.5-2.1-2.5c-1.4,0-2.3,1-2.3,2.7v5H242v-8.9h1.5v1h0c0.5-0.8,1.5-1.2,2.4-1.2
			c1.7,0,3.4,0.9,3.4,3.3v5.7h-1.5V162.5z"/>
		<path fill="#51A332" d="M265.2,163.1c0,2-1.6,3.3-3.2,3.3c-1.7,0-3.2-1.4-3.2-3.2c0-1.8,1.5-3.2,3.1-3.2
			C264,160,265.2,161.6,265.2,163.1 M257.3,171.4h1.5v-5.1h0c0.7,0.9,1.8,1.6,3.3,1.6c2.5,0,4.7-1.9,4.7-4.7c0-2.6-2.1-4.6-4.6-4.6
			c-1.3,0-2.6,0.5-3.4,1.6h0v-1.4h-1.5V171.4z"/>
		<path fill="#51A332" d="M275.3,164.7c0,0.9-0.6,1.8-2.5,1.8c-1.9,0-2.5-0.9-2.5-1.8c0-0.9,0.6-1.8,2.5-1.8
			C274.7,162.9,275.3,163.8,275.3,164.7 M275.3,162.6c-0.8-0.7-1.8-1-2.7-1c-2.5,0-3.9,1.4-3.9,3c0,2,1.7,3.2,3.9,3.2
			c1.2,0,2-0.3,2.8-1.1v0.9h1.4v-6.1c0-2.1-2-3-4.1-3c-0.8,0-1.8,0.1-3.2,0.7l0.7,1.3c0.8-0.4,1.6-0.6,2.5-0.6
			c1.2,0,2.7,0.3,2.7,1.8V162.6z"/>
		<path fill="#51A332" d="M287.6,163.1c0,2-1.6,3.3-3.2,3.3c-1.8,0-3.2-1.4-3.2-3.2c0-1.8,1.5-3.2,3.1-3.2
			C286.4,160,287.6,161.6,287.6,163.1 M279.7,171.4h1.5v-5.1h0c0.7,0.9,1.8,1.6,3.3,1.6c2.5,0,4.7-1.9,4.7-4.7
			c0-2.6-2.1-4.6-4.6-4.6c-1.3,0-2.6,0.5-3.4,1.6h0v-1.4h-1.5V171.4z"/>
		<path fill="#51A332" d="M293,162.5c0.2-1.2,1-2.5,2.9-2.5c1.6,0,2.8,1.1,2.9,2.5H293z M299,165c-0.8,0.9-1.8,1.4-2.9,1.4
			c-1.7,0-2.9-1.1-3.2-2.6h7.6c0-3.1-1.9-5.2-4.6-5.2c-2.8,0-4.6,2.1-4.6,4.6c0,2.4,1.7,4.6,4.8,4.6c1.6,0,2.8-0.6,4-1.9L299,165z"
			/>
		<path fill="#51A332" d="M303.1,158.8h1.5v1.3h0c0.8-1.4,1.5-1.5,2.8-1.5v1.6c-0.2-0.1-0.5-0.1-0.7-0.1c-1.3,0-2.1,0.9-2.1,2.5v5
			h-1.5V158.8z"/>
		<path fill="#51A332" d="M314.5,158.8h1.5v8.9h-1.5V158.8z M315.3,154.9c0.6,0,1.1,0.5,1.1,1.1c0,0.6-0.5,1.1-1.1,1.1
			c-0.6,0-1.1-0.5-1.1-1.1C314.2,155.3,314.7,154.9,315.3,154.9"/>
		<path fill="#51A332" d="M324.9,162.5c0-1.3-0.5-2.5-2.1-2.5c-1.4,0-2.3,1-2.3,2.7v5H319v-8.9h1.5v1h0c0.5-0.8,1.5-1.2,2.4-1.2
			c1.7,0,3.4,0.9,3.4,3.3v5.7h-1.5V162.5z"/>
		<path fill="#51A332" d="M336.9,163.2c0,1.8-1.4,3.2-3.2,3.2c-1.6,0-3.2-1.3-3.2-3.3c0-1.5,1.2-3.1,3.3-3.1
			C335.5,160,336.9,161.4,336.9,163.2 M336.9,160.1L336.9,160.1c-0.8-1.1-2.1-1.6-3.4-1.6c-2.5,0-4.6,2-4.6,4.6
			c0,2.8,2.2,4.7,4.7,4.7c1.5,0,2.7-0.6,3.3-1.6h0v1.4h1.5v-12.9h-1.5V160.1z"/>
		<path fill="#51A332" d="M347.3,166.6L347.3,166.6c-0.5,0.8-1.5,1.2-2.5,1.2c-1.7,0-3.4-0.9-3.4-3.3v-5.7h1.5v5.2
			c0,1.3,0.5,2.5,2.1,2.5c1.4,0,2.3-1,2.3-2.7v-5h1.5v8.9h-1.5V166.6z"/>
		<path fill="#51A332" d="M352.6,165c0.1,1,0.9,1.4,1.8,1.4c1.4,0,1.8-0.7,1.8-1.3c0-0.6-0.4-0.9-1.6-1.2l-1.5-0.4
			c-1.3-0.4-1.8-1.2-1.8-2.3c0-1.5,1.1-2.7,3.2-2.7c2.3,0,3,1.4,3,2.8h-1.4c-0.1-1-0.6-1.5-1.6-1.5c-1,0-1.6,0.6-1.6,1.3
			c0,0.5,0.3,0.9,1,1.1l2.1,0.6c1.4,0.4,1.9,1.2,1.9,2.3c0,1.8-1.6,2.8-3.2,2.8c-2.1,0-3.3-1.1-3.3-2.8H352.6z"/>
		<path fill="#51A332" d="M360.5,156.6h1.5v2.1h1.4v1.3H362v5.4c0,0.5,0.1,0.6,0.7,0.6h0.7v1.4c-0.2,0-0.6,0-0.9,0
			c-1.6,0-2-0.5-2-1.9v-5.6h-1.2v-1.3h1.2V156.6z"/>
		<path fill="#51A332" d="M365.7,158.8h1.5v1.3h0c0.8-1.4,1.5-1.5,2.8-1.5v1.6c-0.2-0.1-0.5-0.1-0.7-0.1c-1.3,0-2.1,0.9-2.1,2.5v5
			h-1.5V158.8z"/>
		<path fill="#51A332" d="M372.2,158.8h1.5v8.9h-1.5V158.8z M373,154.9c0.6,0,1.1,0.5,1.1,1.1c0,0.6-0.5,1.1-1.1,1.1
			c-0.6,0-1.1-0.5-1.1-1.1C371.9,155.3,372.4,154.9,373,154.9"/>
		<path fill="#51A332" d="M378,162.5c0.2-1.2,1.1-2.5,2.9-2.5c1.6,0,2.8,1.1,2.9,2.5H378z M384,165c-0.8,0.9-1.7,1.4-2.8,1.4
			c-1.7,0-2.9-1.1-3.2-2.6h7.6c0-3.1-1.9-5.2-4.7-5.2c-2.8,0-4.6,2.1-4.6,4.6c0,2.4,1.7,4.6,4.8,4.6c1.5,0,2.8-0.6,4-1.9L384,165z"
			/>
		<path fill="#51A332" d="M388.9,165c0.1,1,0.9,1.4,1.8,1.4c1.4,0,1.8-0.7,1.8-1.3c0-0.6-0.4-0.9-1.6-1.2l-1.6-0.4
			c-1.3-0.4-1.8-1.2-1.8-2.3c0-1.5,1.1-2.7,3.2-2.7c2.3,0,3.1,1.4,3.1,2.8h-1.4c-0.1-1-0.6-1.5-1.7-1.5c-1,0-1.6,0.6-1.6,1.3
			c0,0.5,0.3,0.9,1,1.1l2.1,0.6c1.4,0.4,1.9,1.2,1.9,2.3c0,1.8-1.6,2.8-3.2,2.8c-2.1,0-3.3-1.1-3.3-2.8H388.9z"/>
	</g>
</g>
</svg>
