<?xml version="1.0" encoding="utf-8"?>
<!-- Generator: Adobe Illustrator 18.0.0, SVG Export Plug-In . SVG Version: 6.00 Build 0)  -->
<!DOCTYPE svg PUBLIC "-//W3C//DTD SVG 1.1//EN" "http://www.w3.org/Graphics/SVG/1.1/DTD/svg11.dtd">
<svg version="1.1" xmlns="http://www.w3.org/2000/svg" xmlns:xlink="http://www.w3.org/1999/xlink" x="0px" y="0px"
	 viewBox="0 0 759.1 342" enable-background="new 0 0 759.1 342" xml:space="preserve">
<g id="Sin">
</g>
<g id="Layer_9">
	<g>
		<g>
			<g transform="translate(1 1)">
				<path fill="#51A332" d="M318.8,298.7l-139.6,0c-1.4,0-2.4-1-2.4-2.4l0-77c0-1,0.5-1.9,1.4-2.2l69.8-31.3c0.7-0.2,1.4-0.2,1.9,0
					l69.8,31.3c1,0.5,1.4,1.2,1.4,2.2l0,77C321.2,297.7,320.2,298.7,318.8,298.7z M181.6,293.8l134.8,0l0-73.2L249,190.6l-67.4,30.1
					L181.6,293.8z"/>
				<path fill="#51A332" d="M309.2,298.7l-120.3,0c-1.4,0-2.4-1-2.4-2.4l0-9.6c0-1.4,1-2.4,2.4-2.4l120.3,0c1.4,0,2.4,1,2.4,2.4
					l0,9.6C311.6,297.7,310.6,298.7,309.2,298.7z M191.2,293.8l115.5,0l0-4.8l-115.5,0V293.8z"/>
				<path fill="#51A332" d="M249,289c-1.4,0-2.4-1-2.4-2.4l0-64.5c0-1.4,1-2.4,2.4-2.4s2.4,1,2.4,2.4l0,64.5
					C251.4,287.8,250.4,289,249,289z"/>
				<path fill="#51A332" d="M249,248.1c-1.4,0-2.4-1-2.4-2.4c0-12,9.6-21.7,21.7-21.7c1.4,0,2.4,1,2.4,2.4
					C270.6,238.5,261,248.1,249,248.1z M265.6,229.1c-7.2,1.2-13,6.7-14,14C258.9,241.9,264.4,236.3,265.6,229.1z"/>
				<path fill="#51A332" d="M249,277c-1.4,0-2.4-1-2.4-2.4c0-12,9.6-21.7,21.7-21.7c1.4,0,2.4,1,2.4,2.4
					C270.6,267.4,261,277,249,277z M265.6,258c-7.2,1.2-13,6.7-14,14C258.9,270.7,264.4,265.2,265.6,258z"/>
				<path fill="#51A332" d="M249,262.6c-12,0-21.7-9.6-21.7-21.7c0-1.4,1-2.4,2.4-2.4c12,0,21.7,9.6,21.7,21.7
					C251.4,261.6,250.4,262.6,249,262.6z M232.4,243.5c1.2,7.2,6.7,13,14,14C245.1,250.3,239.6,244.7,232.4,243.5z"/>
				<path fill="#51A332" d="M205.7,289c-1.4,0-2.4-1-2.4-2.4l0-64.5c0-1.4,1-2.4,2.4-2.4c1.4,0,2.4,1,2.4,2.4l0,64.5
					C208.1,287.8,207.1,289,205.7,289z"/>
				<path fill="#51A332" d="M205.7,248.1c-1.4,0-2.4-1-2.4-2.4c0-12,9.6-21.7,21.7-21.7c1.4,0,2.4,1,2.4,2.4
					C227.3,238.5,217.7,248.1,205.7,248.1z M222.3,229.1c-7.2,1.2-13,6.7-14,14C215.5,241.9,221.1,236.3,222.3,229.1z"/>
				<path fill="#51A332" d="M205.7,277c-1.4,0-2.4-1-2.4-2.4c0-12,9.6-21.7,21.7-21.7c1.4,0,2.4,1,2.4,2.4
					C227.3,267.4,217.7,277,205.7,277z M222.3,258c-7.2,1.2-13,6.7-14,14C215.5,270.7,221.1,265.2,222.3,258z"/>
				<path fill="#51A332" d="M205.7,262.6c-12,0-21.7-9.6-21.7-21.7c0-1.4,1-2.4,2.4-2.4c12,0,21.7,9.6,21.7,21.7
					C208.1,261.6,207.1,262.6,205.7,262.6z M189.1,243.5c1.2,7.2,6.7,13,14,14C201.8,250.3,196.3,244.7,189.1,243.5z"/>
				<path fill="#51A332" d="M292.3,289c-1.4,0-2.4-1-2.4-2.4l0-64.5c0-1.4,1-2.4,2.4-2.4c1.4,0,2.4,1,2.4,2.4l0,64.5
					C294.7,287.8,293.8,289,292.3,289z"/>
				<path fill="#51A332" d="M292.3,248.1c-1.4,0-2.4-1-2.4-2.4c0-12,9.6-21.7,21.7-21.7c1.4,0,2.4,1,2.4,2.4
					C314,238.5,304.3,248.1,292.3,248.1z M308.9,229.1c-7.2,1.2-13,6.7-14,14C302.2,241.9,307.7,236.3,308.9,229.1z"/>
				<path fill="#51A332" d="M292.3,277c-1.4,0-2.4-1-2.4-2.4c0-12,9.6-21.7,21.7-21.7c1.4,0,2.4,1,2.4,2.4
					C314,267.4,304.3,277,292.3,277z M308.9,258c-7.2,1.2-13,6.7-14,14C302.2,270.7,307.7,265.2,308.9,258z"/>
				<path fill="#51A332" d="M292.3,262.6c-12,0-21.7-9.6-21.7-21.7c0-1.4,1-2.4,2.4-2.4c12,0,21.7,9.6,21.7,21.7
					C294.7,261.6,293.8,262.6,292.3,262.6z M275.7,243.5c1.2,7.2,6.7,13,14,14C288.5,250.3,282.9,244.7,275.7,243.5z"/>
			</g>
			<g transform="translate(1 1)">
				<path fill="#51A332" d="M458.9,298.7l-139.6,0c-1.4,0-2.4-1-2.4-2.4l0-77c0-1,0.5-1.9,1.4-2.2l69.8-31.3c0.7-0.2,1.4-0.2,1.9,0
					l69.8,31.3c1,0.5,1.4,1.2,1.4,2.2l0,77C461.3,297.7,460.4,298.7,458.9,298.7z M321.8,293.8l134.8,0l0-73.2l-67.4-30.1
					l-67.4,30.1L321.8,293.8z"/>
				<path fill="#51A332" d="M449.3,298.7l-120.3,0c-1.4,0-2.4-1-2.4-2.4l0-9.6c0-1.4,1-2.4,2.4-2.4l120.3,0c1.4,0,2.4,1,2.4,2.4v9.6
					C451.7,297.7,450.8,298.7,449.3,298.7z M331.4,293.8l115.5,0V289l-115.5,0V293.8z"/>
				<path fill="#51A332" d="M389.1,289c-1.4,0-2.4-1-2.4-2.4l0-64.5c0-1.4,1-2.4,2.4-2.4c1.4,0,2.4,1,2.4,2.4l0,64.5
					C391.5,287.8,390.6,289,389.1,289z"/>
				<path fill="#51A332" d="M389.1,248.1c-1.4,0-2.4-1-2.4-2.4c0-12,9.6-21.7,21.7-21.7c1.4,0,2.4,1,2.4,2.4
					C410.8,238.5,401.2,248.1,389.1,248.1z M405.7,229.1c-7.2,1.2-13,6.7-14,14C399,241.9,404.5,236.3,405.7,229.1z"/>
				<path fill="#51A332" d="M389.1,277c-1.4,0-2.4-1-2.4-2.4c0-12,9.6-21.7,21.7-21.7c1.4,0,2.4,1,2.4,2.4
					C410.8,267.4,401.2,277,389.1,277z M405.7,258c-7.2,1.2-13,6.7-14,14C399,270.7,404.5,265.2,405.7,258z"/>
				<path fill="#51A332" d="M389.1,262.6c-12,0-21.7-9.6-21.7-21.7c0-1.4,1-2.4,2.4-2.4c12,0,21.7,9.6,21.7,21.7
					C391.5,261.6,390.6,262.6,389.1,262.6z M372.5,243.5c1.2,7.2,6.7,13,14,14C385.3,250.3,379.8,244.7,372.5,243.5z"/>
				<path fill="#51A332" d="M345.8,289c-1.4,0-2.4-1-2.4-2.4l0-64.5c0-1.4,1-2.4,2.4-2.4c1.4,0,2.4,1,2.4,2.4l0,64.5
					C348.2,287.8,347.3,289,345.8,289z"/>
				<path fill="#51A332" d="M345.8,248.1c-1.4,0-2.4-1-2.4-2.4c0-12,9.6-21.7,21.7-21.7c1.4,0,2.4,1,2.4,2.4
					C367.5,238.5,357.9,248.1,345.8,248.1z M362.4,229.1c-7.2,1.2-13,6.7-14,14C355.7,241.9,361.2,236.3,362.4,229.1z"/>
				<path fill="#51A332" d="M345.8,277c-1.4,0-2.4-1-2.4-2.4c0-12,9.6-21.7,21.7-21.7c1.4,0,2.4,1,2.4,2.4
					C367.5,267.4,357.9,277,345.8,277z M362.4,258c-7.2,1.2-13,6.7-14,14C355.7,270.7,361.2,265.2,362.4,258z"/>
				<path fill="#51A332" d="M345.8,262.6c-12,0-21.7-9.6-21.7-21.7c0-1.4,1-2.4,2.4-2.4c12,0,21.7,9.6,21.7,21.7
					C348.2,261.6,347.3,262.6,345.8,262.6z M329.2,243.5c1.2,7.2,6.7,13,14,14C342,250.3,336.4,244.7,329.2,243.5z"/>
				<path fill="#51A332" d="M432.5,289c-1.4,0-2.4-1-2.4-2.4l0-64.5c0-1.4,1-2.4,2.4-2.4c1.4,0,2.4,1,2.4,2.4l0,64.5
					C434.9,287.8,433.9,289,432.5,289z"/>
				<path fill="#51A332" d="M432.5,248.1c-1.4,0-2.4-1-2.4-2.4c0-12,9.6-21.7,21.7-21.7c1.4,0,2.4,1,2.4,2.4
					C454.1,238.5,444.5,248.1,432.5,248.1z M449.1,229.1c-7.2,1.2-13,6.7-14,14C442.3,241.9,447.9,236.3,449.1,229.1z"/>
				<path fill="#51A332" d="M432.5,277c-1.4,0-2.4-1-2.4-2.4c0-12,9.6-21.7,21.7-21.7c1.4,0,2.4,1,2.4,2.4
					C454.1,267.4,444.5,277,432.5,277z M449.1,258c-7.2,1.2-13,6.7-14,14C442.3,270.7,447.9,265.2,449.1,258z"/>
				<path fill="#51A332" d="M432.5,262.6c-12,0-21.7-9.6-21.7-21.7c0-1.4,1-2.4,2.4-2.4c12,0,21.7,9.6,21.7,21.7
					C434.9,261.6,433.9,262.6,432.5,262.6z M415.9,243.5c1.2,7.2,6.7,13,14,14C428.6,250.3,423.1,244.7,415.9,243.5z"/>
			</g>
			<g transform="translate(1 1)">
				<path fill="#51A332" d="M597.7,298.7l-139.6,0c-1.4,0-2.4-1-2.4-2.4l0-77c0-1,0.5-1.9,1.4-2.2l69.8-31.3c0.7-0.2,1.4-0.2,1.9,0
					l69.8,31.3c1,0.5,1.4,1.2,1.4,2.2l0,77C600.1,297.7,599.2,298.7,597.7,298.7z M460.5,293.8l134.8,0l0-73.2l-67.4-30.1
					l-67.4,30.1L460.5,293.8z"/>
				<path fill="#51A332" d="M588.1,298.7l-120.3,0c-1.4,0-2.4-1-2.4-2.4l0-9.6c0-1.4,1-2.4,2.4-2.4l120.3,0c1.4,0,2.4,1,2.4,2.4
					l0,9.6C590.5,297.7,589.6,298.7,588.1,298.7z M470.2,293.8l115.5,0l0-4.8l-115.5,0V293.8z"/>
				<path fill="#51A332" d="M527.9,289c-1.4,0-2.4-1-2.4-2.4l0-64.5c0-1.4,1-2.4,2.4-2.4c1.4,0,2.4,1,2.4,2.4l0,64.5
					C530.3,287.8,529.4,289,527.9,289z"/>
				<path fill="#51A332" d="M527.9,248.1c-1.4,0-2.4-1-2.4-2.4c0-12,9.6-21.7,21.7-21.7c1.4,0,2.4,1,2.4,2.4
					C549.6,238.5,540,248.1,527.9,248.1z M544.5,229.1c-7.2,1.2-13,6.7-14,14C537.8,241.9,543.3,236.3,544.5,229.1z"/>
				<path fill="#51A332" d="M527.9,277c-1.4,0-2.4-1-2.4-2.4c0-12,9.6-21.7,21.7-21.7c1.4,0,2.4,1,2.4,2.4
					C549.6,267.4,540,277,527.9,277z M544.5,258c-7.2,1.2-13,6.7-14,14C537.8,270.7,543.3,265.2,544.5,258z"/>
				<path fill="#51A332" d="M527.9,262.6c-12,0-21.7-9.6-21.7-21.7c0-1.4,1-2.4,2.4-2.4c12,0,21.7,9.6,21.7,21.7
					C530.3,261.6,529.4,262.6,527.9,262.6z M511.3,243.5c1.2,7.2,6.7,13,14,14C524.1,250.3,518.6,244.7,511.3,243.5z"/>
				<path fill="#51A332" d="M484.6,289c-1.4,0-2.4-1-2.4-2.4l0-64.5c0-1.4,1-2.4,2.4-2.4c1.4,0,2.4,1,2.4,2.4l0,64.5
					C487,287.8,486.1,289,484.6,289z"/>
				<path fill="#51A332" d="M484.6,248.1c-1.4,0-2.4-1-2.4-2.4c0-12,9.6-21.7,21.7-21.7c1.4,0,2.4,1,2.4,2.4
					C506.3,238.5,496.6,248.1,484.6,248.1z M501.2,229.1c-7.2,1.2-13,6.7-14,14C494.5,241.9,500,236.3,501.2,229.1z"/>
				<path fill="#51A332" d="M484.6,277c-1.4,0-2.4-1-2.4-2.4c0-12,9.6-21.7,21.7-21.7c1.4,0,2.4,1,2.4,2.4
					C506.3,267.4,496.6,277,484.6,277z M501.2,258c-7.2,1.2-13,6.7-14,14C494.5,270.7,500,265.2,501.2,258z"/>
				<path fill="#51A332" d="M484.6,262.6c-12,0-21.7-9.6-21.7-21.7c0-1.4,1-2.4,2.4-2.4c12,0,21.7,9.6,21.7,21.7
					C487,261.6,486.1,262.6,484.6,262.6z M468,243.5c1.2,7.2,6.7,13,14,14C480.8,250.3,475.2,244.7,468,243.5z"/>
				<path fill="#51A332" d="M571.3,289c-1.4,0-2.4-1-2.4-2.4l0-64.5c0-1.4,1-2.4,2.4-2.4c1.4,0,2.4,1,2.4,2.4l0,64.5
					C573.7,287.8,572.7,289,571.3,289z"/>
				<path fill="#51A332" d="M571.3,248.1c-1.4,0-2.4-1-2.4-2.4c0-12,9.6-21.7,21.7-21.7c1.4,0,2.4,1,2.4,2.4
					C592.9,238.5,583.3,248.1,571.3,248.1z M587.9,229.1c-7.2,1.2-13,6.7-14,14C581.1,241.9,586.7,236.3,587.9,229.1z"/>
				<path fill="#51A332" d="M571.3,277c-1.4,0-2.4-1-2.4-2.4c0-12,9.6-21.7,21.7-21.7c1.4,0,2.4,1,2.4,2.4
					C592.9,267.4,583.3,277,571.3,277z M587.9,258c-7.2,1.2-13,6.7-14,14C581.1,270.7,586.7,265.2,587.9,258z"/>
				<path fill="#51A332" d="M571.3,262.6c-12,0-21.7-9.6-21.7-21.7c0-1.4,1-2.4,2.4-2.4c12,0,21.7,9.6,21.7,21.7
					C573.7,261.6,572.7,262.6,571.3,262.6z M554.7,243.5c1.2,7.2,6.7,13,14,14C567.4,250.3,561.9,244.7,554.7,243.5z"/>
			</g>
			<g transform="translate(1 1)">
				<path fill="#51A332" d="M737.9,298.7l-139.6,0c-1.4,0-2.4-1-2.4-2.4l0-77c0-1,0.5-1.9,1.4-2.2l69.8-31.3c0.7-0.2,1.4-0.2,1.9,0
					l69.8,31.3c1,0.5,1.4,1.2,1.4,2.2l0,77C740.3,297.7,739.3,298.7,737.9,298.7z M600.7,293.8l134.8,0l0-73.2l-67.4-30.1
					l-67.4,30.1L600.7,293.8z"/>
				<path fill="#51A332" d="M728.3,298.7l-120.3,0c-1.4,0-2.4-1-2.4-2.4l0-9.6c0-1.4,1-2.4,2.4-2.4l120.3,0c1.4,0,2.4,1,2.4,2.4v9.6
					C730.7,297.7,729.7,298.7,728.3,298.7z M610.3,293.8l115.5,0V289l-115.5,0V293.8z"/>
				<path fill="#51A332" d="M668.1,289c-1.4,0-2.4-1-2.4-2.4l0-64.5c0-1.4,1-2.4,2.4-2.4s2.4,1,2.4,2.4l0,64.5
					C670.5,287.8,669.5,289,668.1,289z"/>
				<path fill="#51A332" d="M668.1,248.1c-1.4,0-2.4-1-2.4-2.4c0-12,9.6-21.7,21.7-21.7c1.4,0,2.4,1,2.4,2.4
					C689.8,238.5,680.1,248.1,668.1,248.1z M684.7,229.1c-7.2,1.2-13,6.7-14,14C678,241.9,683.5,236.3,684.7,229.1z"/>
				<path fill="#51A332" d="M668.1,277c-1.4,0-2.4-1-2.4-2.4c0-12,9.6-21.7,21.7-21.7c1.4,0,2.4,1,2.4,2.4
					C689.8,267.4,680.1,277,668.1,277z M684.7,258c-7.2,1.2-13,6.7-14,14C678,270.7,683.5,265.2,684.7,258z"/>
				<path fill="#51A332" d="M668.1,262.6c-12,0-21.7-9.6-21.7-21.7c0-1.4,1-2.4,2.4-2.4c12,0,21.7,9.6,21.7,21.7
					C670.5,261.6,669.5,262.6,668.1,262.6z M651.5,243.5c1.2,7.2,6.7,13,14,14C664.2,250.3,658.7,244.7,651.5,243.5z"/>
				<path fill="#51A332" d="M624.8,289c-1.4,0-2.4-1-2.4-2.4l0-64.5c0-1.4,1-2.4,2.4-2.4c1.4,0,2.4,1,2.4,2.4l0,64.5
					C627.2,287.8,626.2,289,624.8,289z"/>
				<path fill="#51A332" d="M624.8,248.1c-1.4,0-2.4-1-2.4-2.4c0-12,9.6-21.7,21.7-21.7c1.4,0,2.4,1,2.4,2.4
					C646.4,238.5,636.8,248.1,624.8,248.1z M641.4,229.1c-7.2,1.2-13,6.7-14,14C634.6,241.9,640.2,236.3,641.4,229.1z"/>
				<path fill="#51A332" d="M624.8,277c-1.4,0-2.4-1-2.4-2.4c0-12,9.6-21.7,21.7-21.7c1.4,0,2.4,1,2.4,2.4
					C646.4,267.4,636.8,277,624.8,277z M641.4,258c-7.2,1.2-13,6.7-14,14C634.6,270.7,640.2,265.2,641.4,258z"/>
				<path fill="#51A332" d="M624.8,262.6c-12,0-21.7-9.6-21.7-21.7c0-1.4,1-2.4,2.4-2.4c12,0,21.7,9.6,21.7,21.7
					C627.2,261.6,626.2,262.6,624.8,262.6z M608.2,243.5c1.2,7.2,6.7,13,14,14C620.9,250.3,615.4,244.7,608.2,243.5z"/>
				<path fill="#51A332" d="M711.4,289c-1.4,0-2.4-1-2.4-2.4l0-64.5c0-1.4,1-2.4,2.4-2.4c1.4,0,2.4,1,2.4,2.4l0,64.5
					C713.8,287.8,712.9,289,711.4,289z"/>
				<path fill="#51A332" d="M711.4,248.1c-1.4,0-2.4-1-2.4-2.4c0-12,9.6-21.7,21.7-21.7c1.4,0,2.4,1,2.4,2.4
					C733.1,238.5,723.4,248.1,711.4,248.1z M728,229.1c-7.2,1.2-13,6.7-14,14C721.3,241.9,726.8,236.3,728,229.1z"/>
				<path fill="#51A332" d="M711.4,277c-1.4,0-2.4-1-2.4-2.4c0-12,9.6-21.7,21.7-21.7c1.4,0,2.4,1,2.4,2.4
					C733.1,267.4,723.4,277,711.4,277z M728,258c-7.2,1.2-13,6.7-14,14C721.3,270.7,726.8,265.2,728,258z"/>
				<path fill="#51A332" d="M711.4,262.6c-12,0-21.7-9.6-21.7-21.7c0-1.4,1-2.4,2.4-2.4c12,0,21.7,9.6,21.7,21.7
					C713.8,261.6,712.9,262.6,711.4,262.6z M694.8,243.5c1.2,7.2,6.7,13,14,14C707.6,250.3,702,244.7,694.8,243.5z"/>
			</g>
			<g>
				<path fill="#51A332" d="M50.1,53.8"/>
				<circle fill="none" stroke="#51A332" stroke-width="4.6718" stroke-miterlimit="10" cx="75.3" cy="71.4" r="31.7"/>
				<path fill="#51A332" d="M123.1,249.8c2,0,3.9-0.8,5.3-2.2l1.1-1.1c0,0,0.1,0,0.1,0l44.5-12.8c0.8-0.2,1.3-0.8,1.5-1.6
					c0.2-0.8,0-1.6-0.6-2.1l-7.4-7.4c-0.4-0.4-1-0.7-1.7-0.7l-12.3,0.4l0.6-0.6c1.4-1.4,2.2-3.3,2.2-5.3c0-2-0.8-3.9-2.2-5.3
					l-27.7-27.7c-1-1-2.2-1.7-3.5-2c1-2,1.6-4.2,1.6-6.6c0-3.8-1.5-7.3-4.1-9.9L85,129.7c0-0.1,0-0.3,0-0.4
					c-1.4-12.3-9.9-22.5-20.7-24.8l-3.9-0.8c-12.4-2.7-24.3,6.1-28.3,20.8c-4.4,16.1-14.2,65.6-14.3,66.1c-0.2,1.2,0.5,2.4,1.7,2.6
					l9,2v90.4c0,9.3,7.6,16.9,16.9,16.9c9.3,0,16.9-7.6,16.9-16.9v-83.1l8.8,1.9c0.2,0,0.3,0.1,0.5,0.1c0.4,0,0.9-0.1,1.3-0.4
					c0.5-0.3,0.8-0.9,0.9-1.5l6.3-37.8l11.8,11.8l-1.6,32.7l-0.3,0.3c-1.4,1.4-2.2,3.3-2.2,5.3c0,2,0.8,3.9,2.2,5.3l27.7,27.7
					C119.2,249,121.1,249.8,123.1,249.8L123.1,249.8z M165.2,226.3l4.1,4.1L136,240l13.1-13.1L165.2,226.3z M151.2,214.3
					c0.6,0.6,0.9,1.3,0.9,2.1c0,0.8-0.3,1.6-0.9,2.1l-18.3,18.3l-17.7-17.6l6.3-6.3c0.9-0.9,0.9-2.3,0-3.1c-0.9-0.9-2.3-0.9-3.1,0
					l-6.3,6.3l-4.2-4.2l10.8-10.8c0.9-0.9,0.9-2.3,0-3.1c-0.9-0.9-2.3-0.9-3.1,0l-10.8,10.8l-3.8-3.8l18.4-18.4
					c0.6-0.6,1.3-0.9,2.1-0.9c0.8,0,1.6,0.3,2.1,0.9L151.2,214.3z M120.3,175c0,2.6-1,5-2.8,6.8c-1.8,1.8-4.2,2.8-6.8,2.8h0
					c-2.6,0-5-1-6.8-2.8l-49.2-48.9c-1.8-1.8-2.8-4.2-2.8-6.8c0-2.6,1-5,2.8-6.8c1.8-1.8,4.2-2.8,6.8-2.8c2.6,0,5,1,6.8,2.8
					l49.2,48.9C119.3,170,120.3,172.4,120.3,175L120.3,175z M33,279.6H58c0,0,0,0,0,0v5.8c0,6.9-5.6,12.5-12.5,12.5
					c-6.9,0-12.5-5.6-12.5-12.5V279.6z M58,269.2v6c0,0,0,0,0,0H33l0-79.2l25,5.4v63.4 M72.6,183.2l-0.9,5.3 M71,192.9l-1.1,6.5
					l-47.3-10.3c1.9-9.7,9.9-49.5,13.8-63.6c3.5-12.6,13-19.8,23.1-17.6l3.9,0.8c7.1,1.5,13.2,7.6,15.9,15.2l-7.9-7.8
					c-2.7-2.6-6.2-4.1-9.9-4.1c-3.8,0-7.3,1.5-10,4.1c-2.6,2.7-4.1,6.2-4.1,10c0,3.8,1.5,7.3,4.1,9.9l24.8,24.7l-3,18.1 M96.3,180.6
					l4.4,4.4c2.6,2.6,6.1,4,9.8,4.1l-15.4,15.4L96.3,180.6z M92.4,214.7c0-0.8,0.3-1.6,0.9-2.1l4.4-4.4l32,31.9l-4.5,4.4
					c-0.6,0.6-1.3,0.9-2.1,0.9c-0.8,0-1.6-0.3-2.1-0.9l-27.7-27.7C92.7,216.3,92.4,215.5,92.4,214.7L92.4,214.7z M92.4,214.7"/>
				<path fill="#51A332" d="M44.1,129.8"/>
			</g>
		</g>
	</g>
</g>
<g id="B1" display="none">
</g>
</svg>
