<?xml version="1.0" encoding="UTF-8"?>
<!DOCTYPE svg PUBLIC "-//W3C//DTD SVG 1.1//EN" "http://www.w3.org/Graphics/SVG/1.1/DTD/svg11.dtd">
<!-- Creator: CorelDRAW X7 -->
<svg xmlns="http://www.w3.org/2000/svg" xml:space="preserve" width="7.7015mm" height="7.7013mm" version="1.1" style="shape-rendering:geometricPrecision; text-rendering:geometricPrecision; image-rendering:optimizeQuality; fill-rule:evenodd; clip-rule:evenodd"
viewBox="0 0 42 42"
 xmlns:xlink="http://www.w3.org/1999/xlink">
 <defs>
  <style type="text/css">
   <![CDATA[
    .fil1 {fill:#FEFEFE}
    .fil0 {fill:#E7E7E4}
   ]]>
  </style>
 </defs>
 <g id="Capa_x0020_1">
  <metadata id="CorelCorpID_0Corel-Layer"/>
  <path class="fil0" d="M42 21c0,12 -9,21 -21,21 -12,0 -21,-9 -21,-21 0,-12 9,-21 21,-21 12,0 21,9 21,21z"/>
  <path class="fil1" d="M30 14c-1,-1 -2,-2 -4,-3 0,0 0,0 0,0 -1,-1 -2,2 -1,3 0,0 0,0 0,0 1,0 2,1 3,2 3,4 3,10 -1,13 -2,2 -4,2 -6,2 -3,0 -6,-1 -7,-3 -2,-2 -3,-4 -3,-7 1,-2 2,-4 4,-6 0,0 0,0 0,0 1,1 2,2 2,2 1,0 5,-7 4,-8 -1,-1 -9,-1 -9,0 0,1 1,2 1,3 0,0 0,0 0,0 -6,5 -6,13 -2,18 2,3 6,5 10,5l0 0c3,0 5,-1 8,-3 5,-5 6,-12 1,-18z"/>
 </g>
</svg>
