<?xml version="1.0" encoding="UTF-8"?>
<!DOCTYPE svg PUBLIC "-//W3C//DTD SVG 1.1//EN" "http://www.w3.org/Graphics/SVG/1.1/DTD/svg11.dtd">
<!-- Creator: CorelDRAW X7 -->
<svg xmlns="http://www.w3.org/2000/svg" xml:space="preserve" width="13.6131mm" height="13.6113mm" version="1.1" style="shape-rendering:geometricPrecision; text-rendering:geometricPrecision; image-rendering:optimizeQuality; fill-rule:evenodd; clip-rule:evenodd"
viewBox="0 0 120 120"
 xmlns:xlink="http://www.w3.org/1999/xlink">
 <defs>
  <style type="text/css">
   <![CDATA[
    .fil1 {fill:#FEFEFE}
    .fil0 {fill:#E7E7E4}
   ]]>
  </style>
 </defs>
 <g id="Capa_x0020_1">
  <metadata id="CorelCorpID_0Corel-Layer"/>
  <path class="fil0" d="M120 60c0,33 -27,60 -60,60 -33,0 -60,-27 -60,-60 0,-33 27,-60 60,-60 33,0 60,27 60,60z"/>
  <path class="fil1" d="M90 73l-25 0c0,0 -1,1 -1,1 0,1 1,1 1,1l25 0c0,0 1,0 1,-1 0,0 -1,-1 -1,-1zm0 -5l-25 0c0,0 -1,1 -1,1 0,1 1,2 1,2l25 0c0,0 1,-1 1,-2 0,0 -1,-1 -1,-1zm0 -4l-25 0c0,0 -1,0 -1,1 0,0 1,1 1,1l25 0c0,0 1,-1 1,-1 0,-1 -1,-1 -1,-1zm0 -5l-25 0c0,0 -1,0 -1,1 0,1 1,1 1,1l25 0c0,0 1,0 1,-1 0,-1 -1,-1 -1,-1zm0 -5l-25 0c0,0 -1,1 -1,1 0,1 1,1 1,1l25 0c0,0 1,0 1,-1 0,0 -1,-1 -1,-1zm0 -5l-25 0c0,0 -1,1 -1,1 0,1 1,2 1,2l25 0c0,0 1,-1 1,-2 0,0 -1,-1 -1,-1zm0 -4l-25 0c0,0 -1,0 -1,1 0,0 1,1 1,1l25 0c0,0 1,-1 1,-1 0,-1 -1,-1 -1,-1zm0 -5l-25 0c0,0 -1,0 -1,1 0,1 1,1 1,1l25 0c0,0 1,0 1,-1 0,-1 -1,-1 -1,-1zm-39 33l-24 0c-1,0 -1,1 -1,1 0,1 0,1 1,1l24 0c1,0 2,0 2,-1 0,0 -1,-1 -2,-1zm0 -5l-24 0c-1,0 -1,1 -1,1 0,1 0,2 1,2l24 0c1,0 2,-1 2,-2 0,0 -1,-1 -2,-1zm0 -4l-24 0c-1,0 -1,0 -1,1 0,0 0,1 1,1l24 0c1,0 2,-1 2,-1 0,-1 -1,-1 -2,-1zm0 -5l-24 0c-1,0 -1,0 -1,1 0,1 0,1 1,1l24 0c1,0 2,0 2,-1 0,-1 -1,-1 -2,-1zm0 -5l-24 0c-1,0 -1,1 -1,1 0,1 0,1 1,1l24 0c1,0 2,0 2,-1 0,0 -1,-1 -2,-1zm0 -5l-24 0c-1,0 -1,1 -1,1 0,1 0,2 1,2l24 0c1,0 2,-1 2,-2 0,0 -1,-1 -2,-1zm0 -4l-24 0c-1,0 -1,0 -1,1 0,0 0,1 1,1l24 0c1,0 2,-1 2,-1 0,-1 -1,-1 -2,-1zm0 -5l-24 0c-1,0 -1,0 -1,1 0,1 0,1 1,1l24 0c1,0 2,0 2,-1 0,-1 -1,-1 -2,-1zm5 40l0 -45c-6,-7 -20,-2 -32,-2l0 51c13,-1 25,-8 32,-4zm38 4l0 -51c-12,0 -23,-7 -32,3l-1 0 0 44c8,-6 22,3 33,4l0 0zm-38 3l0 -1c-4,-5 -13,-2 -22,1l22 0zm30 0c-10,-3 -18,-8 -25,-1l0 0 0 1 25 0zm-62 -60l0 0c15,0 29,-4 35,5 9,-12 28,-2 41,-4l0 0 -1 63 -5 0 0 0 -70 0 0 0 -6 0 0 -1 0 1 0 -4 0 0 0 -3 1 -52 0 -5 0 0c1,0 3,0 5,0l0 0z"/>
 </g>
</svg>
