<?xml version="1.0" encoding="UTF-8"?>
<!DOCTYPE svg PUBLIC "-//W3C//DTD SVG 1.1//EN" "http://www.w3.org/Graphics/SVG/1.1/DTD/svg11.dtd">
<!-- Creator: CorelDRAW X7 -->
<svg xmlns="http://www.w3.org/2000/svg" xml:space="preserve" width="13.6131mm" height="13.6113mm" version="1.1" style="shape-rendering:geometricPrecision; text-rendering:geometricPrecision; image-rendering:optimizeQuality; fill-rule:evenodd; clip-rule:evenodd"
viewBox="0 0 116 116"
 xmlns:xlink="http://www.w3.org/1999/xlink">
 <defs>
  <style type="text/css">
   <![CDATA[
    .fil1 {fill:#FEFEFE}
    .fil0 {fill:#E7E7E4}
   ]]>
  </style>
 </defs>
 <g id="Capa_x0020_1">
  <metadata id="CorelCorpID_0Corel-Layer"/>
  <path class="fil0" d="M116 58c0,32 -26,58 -58,58 -32,0 -58,-26 -58,-58 0,-32 26,-58 58,-58 32,0 58,26 58,58z"/>
  <path class="fil1" d="M71 68l0 0c0,0 0,1 0,1l0 0c-4,3 -5,7 -6,12l-6 0 -6 0c-1,-5 -2,-9 -6,-12l0 0c0,0 0,-1 0,-1l0 0c-4,-3 -6,-8 -6,-13 0,-9 8,-17 18,-17 10,0 18,8 18,17 0,5 -2,10 -6,13zm-12 -35c-13,0 -23,10 -23,22 0,7 3,12 7,17l0 0 1 0c3,3 4,6 5,12l0 2 10 0 10 0 0 -2c1,-6 2,-9 5,-12l1 0 0 0c4,-5 7,-10 7,-17 0,-12 -11,-22 -23,-22z"/>
  <path class="fil1" d="M69 90c0,1 -1,2 -2,2l-16 0c-1,0 -2,-1 -2,-2l0 -1c0,-1 1,-2 2,-2l16 0c1,0 2,1 2,2l0 1z"/>
  <path class="fil1" d="M69 96c0,1 -1,2 -2,2l-16 0c-1,0 -2,-1 -2,-2l0 -1c0,-1 1,-2 2,-2l16 0c1,0 2,1 2,2l0 1z"/>
  <path class="fil1" d="M61 28c0,1 -1,2 -2,2l0 0c-1,0 -2,-1 -2,-2l0 -6c0,-1 1,-1 2,-1l0 0c1,0 2,0 2,1l0 6z"/>
  <path class="fil1" d="M32 50c1,0 2,1 2,2l0 0c0,1 -1,2 -2,2l-6 0c-1,0 -2,-1 -2,-2l0 0c0,-1 1,-2 2,-2l6 0z"/>
  <path class="fil1" d="M92 50c1,0 2,1 2,2l0 0c0,1 -1,2 -2,2l-5 0c-1,0 -2,-1 -2,-2l0 0c0,-1 1,-2 2,-2l5 0z"/>
  <path class="fil1" d="M42 32c1,1 0,2 0,3l0 0c-1,0 -2,0 -3,-1l-4 -4c0,-1 0,-2 1,-3l0 0c0,0 2,0 2,1l4 4z"/>
  <path class="fil1" d="M77 33c-1,0 -1,2 0,2l0 0c1,1 2,1 3,0l3 -4c1,-1 1,-2 0,-3l0 0c0,0 -2,0 -2,1l-4 4z"/>
 </g>
</svg>
