<?xml version="1.0" encoding="utf-8"?>
<!-- Generator: Adobe Illustrator 18.0.0, SVG Export Plug-In . SVG Version: 6.00 Build 0)  -->
<!DOCTYPE svg PUBLIC "-//W3C//DTD SVG 1.1//EN" "http://www.w3.org/Graphics/SVG/1.1/DTD/svg11.dtd" [
	<!ENTITY ns_flows "http://ns.adobe.com/Flows/1.0/">
	<!ENTITY ns_extend "http://ns.adobe.com/Extensibility/1.0/">
	<!ENTITY ns_ai "http://ns.adobe.com/AdobeIllustrator/10.0/">
	<!ENTITY ns_graphs "http://ns.adobe.com/Graphs/1.0/">
]>
<svg version="1.1" xmlns:x="&ns_extend;" xmlns:i="&ns_ai;" xmlns:graph="&ns_graphs;"
	 xmlns="http://www.w3.org/2000/svg" xmlns:xlink="http://www.w3.org/1999/xlink" xmlns:a="http://ns.adobe.com/AdobeSVGViewerExtensions/3.0/"
	 x="0px" y="0px" viewBox="0 0 300 300" enable-background="new 0 0 300 300" xml:space="preserve">
<g id="_x30_">
</g>
<g id="_x31_">
</g>
<g id="_x31_F">
</g>
<g id="_x32_">
</g>
<g id="_x32_F">
</g>
<g id="_x33_">
</g>
<g id="_x33_f">
</g>
<g id="_x34_">
</g>
<g id="_x34_F">
</g>
<g id="_x35_">
</g>
<g id="_x35_F">
</g>
<g id="_x36_">
	<g>
		<g>
			<path fill="#51A332" d="M233.3,66.7c-22.3-22.3-51.9-34.5-83.3-34.5c-18.7,0-36.5,4.2-53.1,12.6C84.4,51.1,73,59.7,63.5,70
				l2-12.2c0.3-2.1-1.1-4-3.1-4.4c-2.1-0.3-4,1.1-4.4,3.1L53.9,81c-0.2,1.2,0.2,2.5,1.1,3.3c0.7,0.7,1.7,1.1,2.7,1.1
				c0.2,0,0.4,0,0.6-0.1l24.4-4.1c2.1-0.3,3.5-2.3,3.1-4.4c-0.3-2.1-2.3-3.5-4.4-3.1L68.4,76c9.1-10,20-18.3,32-24.4
				c15.5-7.8,32.2-11.8,49.6-11.8c29.4,0,57.1,11.5,77.9,32.3c20.8,20.8,32.3,48.5,32.3,77.9c0,17.8-4.3,35.5-12.6,51.2
				c-1,1.9-0.3,4.2,1.6,5.2c0.6,0.3,1.2,0.4,1.8,0.4c1.4,0,2.7-0.7,3.4-2c8.8-16.8,13.4-35.7,13.4-54.7
				C267.9,118.5,255.6,88.9,233.3,66.7z"/>
		</g>
		<g>
			<path fill="#51A332" d="M241.7,214.6l-24.4,4.1c-2.1,0.3-3.5,2.3-3.1,4.4c0.3,2.1,2.3,3.5,4.4,3.1l13.1-2.2
				c-20.9,23.1-50.2,36.2-81.6,36.2c-29.4,0-57.1-11.5-77.9-32.3c-20.8-20.8-32.3-48.5-32.3-77.9c0-17.8,4.3-35.5,12.6-51.2
				c1-1.9,0.3-4.2-1.6-5.2c-1.9-1-4.2-0.3-5.2,1.6C36.8,112,32.1,131,32.1,150c0,31.5,12.3,61.1,34.5,83.3s51.9,34.5,83.3,34.5
				c33.2,0,64.2-13.7,86.5-37.8l-2,12.2c-0.3,2.1,1.1,4,3.1,4.4c0.2,0,0.4,0.1,0.6,0.1c1.8,0,3.4-1.3,3.8-3.2l4.1-24.4
				c0.2-1.2-0.2-2.5-1.1-3.3C244.1,214.8,242.9,214.4,241.7,214.6z"/>
		</g>
		<g>
			<path fill="#51A332" d="M177.6,82.7c-0.7-1-1.9-1.7-3.1-1.7h-40.7c-1.8,0-3.3,1.2-3.7,3l-15.7,70.8c-0.4,1.7,0,3.5,1.1,4.9
				c1.1,1.4,2.8,2.2,4.6,2.2h25.7l-7.6,65c-0.2,1.8,0.9,3.5,2.6,4.1c0.4,0.1,0.8,0.2,1.2,0.2c1.4,0,2.7-0.7,3.4-2l47.2-86.6
				c1-1.8,1-4-0.1-5.8s-2.9-2.9-5-2.9h-27.7L178,86.2C178.5,85,178.3,83.7,177.6,82.7z M150.5,136.4c-0.5,1.2-0.3,2.5,0.4,3.5
				c0.7,1,1.9,1.7,3.1,1.7h30.2L148,208.2l5.8-49.6c0.1-1.1-0.2-2.2-0.9-3c-0.7-0.8-1.8-1.3-2.9-1.3h-27.8l14.6-65.7h32.1
				L150.5,136.4z"/>
		</g>
	</g>
</g>
<g id="_x36_F">
</g>
</svg>
