<?xml version="1.0" encoding="utf-8"?>
<!-- Generator: Adobe Illustrator 18.0.0, SVG Export Plug-In . SVG Version: 6.00 Build 0)  -->
<!DOCTYPE svg PUBLIC "-//W3C//DTD SVG 1.1//EN" "http://www.w3.org/Graphics/SVG/1.1/DTD/svg11.dtd" [
	<!ENTITY ns_flows "http://ns.adobe.com/Flows/1.0/">
	<!ENTITY ns_extend "http://ns.adobe.com/Extensibility/1.0/">
	<!ENTITY ns_ai "http://ns.adobe.com/AdobeIllustrator/10.0/">
	<!ENTITY ns_graphs "http://ns.adobe.com/Graphs/1.0/">
]>
<svg version="1.1" xmlns:x="&ns_extend;" xmlns:i="&ns_ai;" xmlns:graph="&ns_graphs;"
	 xmlns="http://www.w3.org/2000/svg" xmlns:xlink="http://www.w3.org/1999/xlink" xmlns:a="http://ns.adobe.com/AdobeSVGViewerExtensions/3.0/"
	 x="0px" y="0px" viewBox="0 0 369.8 300" enable-background="new 0 0 369.8 300" xml:space="preserve">
<g id="_x30_">
</g>
<g id="_x31_">
</g>
<g id="_x31_F">
</g>
<g id="_x32_">
</g>
<g id="_x32_F">
</g>
<g id="_x33_">
</g>
<g id="_x33_f">
</g>
<g id="_x34_">
</g>
<g id="_x34_F">
</g>
<g id="_x35_">
</g>
<g id="_x35_F">
</g>
<g id="_x36_">
	<g>
		<g>
			<g>
				<path fill="#51A332" d="M52.7,24c-0.3-0.3-0.6-0.5-1-0.5c-0.4,0-0.8,0.2-1,0.5c-0.9,1.1-22.9,26.5-22.9,39.3
					c0,13.2,10.7,23.9,23.9,23.9c13.2,0,23.9-10.7,23.9-23.9C75.5,50.6,53.6,25.1,52.7,24z M51.7,84.6c-11.7,0-21.2-9.5-21.2-21.2
					C30.4,53,47.3,32.1,51.7,27c1.9,2.2,6,7.3,10.2,13.3c7.2,10.3,11,18.3,11,23.1C72.9,75.1,63.4,84.6,51.7,84.6z"/>
				<path fill="#51A332" d="M51.7,88.8c-14,0-25.4-11.4-25.4-25.4c0-13.1,20.9-37.6,23.2-40.3c0.5-0.6,1.3-1,2.1-1s1.6,0.4,2.1,1
					C56.2,25.8,77,50.3,77,63.4C77,77.4,65.7,88.8,51.7,88.8z M51.7,29.3c-9.7,11.9-19.7,26.6-19.7,34.1c0,10.9,8.8,19.7,19.7,19.7
					s19.7-8.8,19.7-19.7c0-4.4-3.8-12.4-10.8-22.3C57.2,36.2,53.7,31.8,51.7,29.3z"/>
			</g>
		</g>
		<g>
			<g>
				<path fill="#51A332" d="M52.7,212c-0.3-0.3-0.6-0.5-1-0.5c-0.4,0-0.8,0.2-1,0.5c-0.9,1.1-22.9,26.5-22.9,39.3
					c0,13.2,10.7,23.9,23.9,23.9c13.2,0,23.9-10.7,23.9-23.9C75.5,238.6,53.6,213.1,52.7,212z M51.7,272.6
					c-11.7,0-21.2-9.5-21.2-21.2c0-10.4,16.9-31.2,21.2-36.4c1.9,2.2,6,7.3,10.2,13.3c7.2,10.3,11,18.3,11,23.1
					C72.9,263.1,63.4,272.6,51.7,272.6z"/>
				<path fill="#51A332" d="M51.7,276.8c-14,0-25.4-11.4-25.4-25.4c0-13.1,20.9-37.6,23.2-40.3c0.5-0.6,1.3-1,2.1-1s1.6,0.4,2.1,1
					c2.4,2.7,23.2,27.2,23.2,40.3C77,265.4,65.7,276.8,51.7,276.8z M51.7,217.3c-9.7,11.9-19.7,26.6-19.7,34.1
					c0,10.9,8.8,19.7,19.7,19.7s19.7-8.8,19.7-19.7c0-4.4-3.8-12.4-10.8-22.3C57.2,224.2,53.7,219.8,51.7,217.3z"/>
			</g>
		</g>
		<g>
			<g>
				<path fill="#51A332" d="M265.9,79.2c-14.4,0-26.1,11.7-26.1,26.1s11.7,26.1,26.1,26.1c14.4,0,26.1-11.7,26.1-26.1
					S280.2,79.2,265.9,79.2z M265.9,123.9c-10.3,0-18.6-8.4-18.6-18.6c0-10.3,8.4-18.6,18.6-18.6c10.3,0,18.6,8.4,18.6,18.6
					C284.5,115.5,276.1,123.9,265.9,123.9z"/>
			</g>
			<g>
				<path fill="#51A332" d="M357.1,212.2l-7.2-14.4l3-1.5l-34.2-68.5l7.3-10.9l-8.4-25.1l-47.7-39.7L258,60.1L237.8,52l-3.3,7.3
					L199.9,42l-63.1-7.9l-10.3,25.8l63.8,8l33.2,16.6l-2.8,6.2l7.6,11.4l-7.4,22.2l17.1,29.9l6.6-1.4l26.6,53.1h50.3l0.8,1.7l0,0
					l7.1,14.1v14H217.4v-48.4c0-10.3-8.4-18.6-18.6-18.6H128v7.5h70.8c6.2,0,11.2,5,11.2,11.2v48.4c0,4.1,3.3,7.5,7.5,7.5h111.8
					c4.1,0,7.5-3.3,7.5-7.5v-14c0-1.2-0.3-2.3-0.8-3.3l-5.4-10.8l12.7-6.4l7.2,14.4c0.8,1.6,1.2,3.3,1.2,5v26.3
					c0,6.2-5,11.2-11.2,11.2H206.2c-6.2,0-11.2-5-11.2-11.2v-48.4c0-4.1-3.3-7.5-7.5-7.5H128v7.5h59.6v48.4
					c0,10.3,8.4,18.6,18.6,18.6h134.2c10.3,0,18.6-8.4,18.6-18.6v-26.3C359,217.7,358.3,214.8,357.1,212.2z M192.4,60.6l-55.5-6.9
					l4.6-11.5l56.1,7l33.9,16.9l-5.1,11.5L192.4,60.6z M228.9,123.5l7.5-22.5l-7.3-11l12.6-28.4l17.1,6.9l10.5-7l41.8,34.8l6.5,19.6
					l-7.6,11.5l32.8,65.7l-15.7,7.8L294,134.6l-52.3,11.2L228.9,123.5z M252,151.2l7.4-1.6l14,2.3c5.4,0.9,10.1,4.4,12.5,9.2
					c1.5,2.9,2,6.1,1.7,9.4l-2.8,27.9h-9.2L252,151.2z M292.3,198.4l2.7-27.2c0.5-4.6-0.4-9.3-2.5-13.4c-2.9-5.9-8.1-10.2-14.2-12.3
					l11.6-2.5l27.7,55.4H292.3z"/>
			</g>
			<g>
				<rect x="314.3" y="246.9" fill="#51A332" width="7.5" height="7.5"/>
			</g>
			<g>
				<rect x="299.4" y="246.9" fill="#51A332" width="7.5" height="7.5"/>
			</g>
			<g>
				<rect x="258.4" y="246.9" fill="#51A332" width="33.5" height="7.5"/>
			</g>
		</g>
		<g>
			<path fill="#51A332" d="M50.8,98.5C27.3,98.5,8.3,79.4,8.3,56s19.1-42.5,42.5-42.5S93.3,32.6,93.3,56S74.2,98.5,50.8,98.5z
				 M50.8,18.5c-20.7,0-37.5,16.8-37.5,37.5s16.8,37.5,37.5,37.5S88.3,76.7,88.3,56S71.4,18.5,50.8,18.5z"/>
		</g>
		<g>
			<path fill="#51A332" d="M50.8,192.5c-23.4,0-42.5-19.1-42.5-42.5s19.1-42.5,42.5-42.5s42.5,19.1,42.5,42.5S74.2,192.5,50.8,192.5
				z M50.8,112.5c-20.7,0-37.5,16.8-37.5,37.5s16.8,37.5,37.5,37.5s37.5-16.8,37.5-37.5S71.4,112.5,50.8,112.5z"/>
		</g>
		<g>
			<path fill="#51A332" d="M50.8,286.5c-23.4,0-42.5-19.1-42.5-42.5s19.1-42.5,42.5-42.5s42.5,19.1,42.5,42.5S74.2,286.5,50.8,286.5
				z M50.8,206.5c-20.7,0-37.5,16.8-37.5,37.5s16.8,37.5,37.5,37.5s37.5-16.8,37.5-37.5S71.4,206.5,50.8,206.5z"/>
		</g>
		<g>
			<path fill="#51A332" d="M64.2,119.9c-0.3-0.5-0.8-0.7-1.4-0.7H44.7c-0.8,0-1.5,0.6-1.7,1.3l-7,31.4c-0.2,0.8,0,1.6,0.5,2.2
				c0.5,0.6,1.2,1,2,1H50l-3.4,28.8c-0.1,0.8,0.4,1.6,1.2,1.8c0.2,0.1,0.3,0.1,0.5,0.1c0.6,0,1.2-0.3,1.5-0.9l20.9-38.4
				c0.4-0.8,0.4-1.8,0-2.6c-0.5-0.8-1.3-1.3-2.2-1.3H56.2l8.1-21.2C64.6,120.9,64.5,120.3,64.2,119.9z M52.2,143.7
				c-0.2,0.5-0.1,1.1,0.2,1.6c0.3,0.5,0.8,0.7,1.4,0.7h13.4L51,175.5l2.6-22c0.1-0.5-0.1-1-0.4-1.3c-0.3-0.4-0.8-0.6-1.3-0.6H39.6
				l6.5-29.1h14.2L52.2,143.7z"/>
		</g>
		<g>
			<g>
				<path fill="#51A332" d="M46.4,260.3h-4.2v-26.9h4.2v11.5h4.8v-11.5h4.3v26.9h-4.3v-11.5h-4.8V260.3z"/>
			</g>
			<g>
				<path fill="#51A332" d="M60.4,249.3c-0.9,0-1.4,0.5-1.4,1.7v1.8h-2.6v-1.7c0-2.8,1.4-4.3,4-4.3c2.7,0,4,1.6,4,4.3
					c0,2.3-0.8,4.1-3.3,6.8c-1.6,1.7-2,2.5-2,3.4c0,0.1,0,0.2,0,0.4h5.1v2.5h-7.8v-2.1c0-1.9,0.7-3.4,2.7-5.5
					c2.1-2.2,2.7-3.5,2.7-5.4C61.8,249.8,61.3,249.3,60.4,249.3z"/>
			</g>
		</g>
	</g>
</g>
<g id="_x36_F">
</g>
</svg>
