<?xml version="1.0" encoding="utf-8"?>
<!-- Generator: Adobe Illustrator 18.0.0, SVG Export Plug-In . SVG Version: 6.00 Build 0)  -->
<!DOCTYPE svg PUBLIC "-//W3C//DTD SVG 1.1//EN" "http://www.w3.org/Graphics/SVG/1.1/DTD/svg11.dtd" [
	<!ENTITY ns_flows "http://ns.adobe.com/Flows/1.0/">
	<!ENTITY ns_extend "http://ns.adobe.com/Extensibility/1.0/">
	<!ENTITY ns_ai "http://ns.adobe.com/AdobeIllustrator/10.0/">
	<!ENTITY ns_graphs "http://ns.adobe.com/Graphs/1.0/">
]>
<svg version="1.1" xmlns:x="&ns_extend;" xmlns:i="&ns_ai;" xmlns:graph="&ns_graphs;"
	 xmlns="http://www.w3.org/2000/svg" xmlns:xlink="http://www.w3.org/1999/xlink" xmlns:a="http://ns.adobe.com/AdobeSVGViewerExtensions/3.0/"
	 x="0px" y="0px" viewBox="0 0 560 520" enable-background="new 0 0 560 520" xml:space="preserve">
<g id="_x30_">
</g>
<g id="_x31_">
</g>
<g id="_x31_F">
</g>
<g id="_x32_">
</g>
<g id="_x32_F">
</g>
<g id="_x33_">
</g>
<g id="_x33_f">
</g>
<g id="_x34_">
	<g>
		<defs>
			<rect id="SVGID_39_" width="560" height="520"/>
		</defs>
		<clipPath id="SVGID_2_">
			<use xlink:href="#SVGID_39_"  overflow="visible"/>
		</clipPath>
		<g opacity="0.8" clip-path="url(#SVGID_2_)"  a:adobe-blending-mode="multiply">
			<g  a:adobe-blending-mode="normal">
				<path fill="#247311" d="M201.8,101.3c-16.5,10.7-21.3,32.8-10.7,49.3l6.1,9.5L12,383.4c-9.9-11.8-27.3-14.7-40.6-6.1
					c-14.4,9.3-18.7,28.7-9.3,43.1l43.5,67.5c9.3,14.4,28.7,18.6,43.1,9.3c13.3-8.6,17.8-25.6,11.1-39.5l19.2-5.3
					c-0.7,4.1-0.6,8.4,0.5,12.7c4.3,16.2,21,25.8,37.1,21.5l103.4-27.5c3.1-0.8,6-2.1,8.6-3.8c10.8-6.9,16.3-20.3,12.9-33.3
					c-1.3-4.8-3.7-8.9-6.9-12.4l104.9-28.7l6.1,9.5c10.7,16.5,32.8,21.3,49.3,10.6c16.5-10.6,21.3-32.8,10.6-49.3L251.1,112
					C240.5,95.4,218.3,90.7,201.8,101.3L201.8,101.3z M224.4,426.6c1.8,6.6-2.2,13.5-8.9,15.3l-103.4,27.5
					c-6.6,1.7-13.5-2.2-15.2-8.9c-1.8-6.6,2.2-13.5,8.9-15.2l103.4-27.5C215.8,416,222.6,420,224.4,426.6L224.4,426.6z M43.1,463.7
					c4,6.2,2.2,14.5-4,18.5c-6.2,4-14.5,2.2-18.5-4l-43.5-67.5c-4-6.2-2.2-14.5,4-18.5c6.2-4,14.5-2.2,18.5,4L43.1,463.7z
					 M50.2,441.8l-27.7-42.9l185-223l122.1,189.3L50.2,441.8z M390.8,361.4c5.3,8.3,2.9,19.3-5.3,24.6c-8.3,5.3-19.3,3-24.6-5.3
					L206.2,141c-5.3-8.3-2.9-19.3,5.4-24.6c8.2-5.3,19.3-3,24.6,5.3L390.8,361.4z M390.8,361.4"/>
				<path fill="#247311" d="M391,180.8l-7.5,4.8c-4.1,2.7-5.3,8.2-2.7,12.3c2.7,4.1,8.2,5.3,12.3,2.7l7.5-4.8
					c4.1-2.7,5.3-8.2,2.7-12.3C400.7,179.4,395.1,178.2,391,180.8L391,180.8z M391,180.8"/>
				<path fill="#247311" d="M363.2,220l7.5-4.8c4.1-2.7,5.3-8.2,2.7-12.3c-2.7-4.1-8.2-5.3-12.3-2.7l-7.5,4.8
					c-4.1,2.7-5.3,8.2-2.7,12.3C353.6,221.5,359.1,222.7,363.2,220L363.2,220z M363.2,220"/>
				<path fill="#247311" d="M421,161.5l-7.5,4.8c-4.1,2.7-5.3,8.2-2.6,12.3c2.7,4.1,8.2,5.4,12.3,2.7l7.5-4.8
					c4.1-2.7,5.3-8.2,2.7-12.3C430.6,160.1,425.1,158.8,421,161.5L421,161.5z M421,161.5"/>
				<path fill="#247311" d="M314.5,98c1.9-1.3,3.4-3.2,3.9-5.6l1.9-8.7c1-4.8-2-9.6-6.8-10.6c-4.8-1-9.6,2-10.6,6.8l-1.9,8.7
					c-1,4.8,2,9.5,6.8,10.6C310.2,99.7,312.6,99.2,314.5,98L314.5,98z M314.5,98"/>
				<path fill="#247311" d="M322.1,63.1c1.9-1.2,3.3-3.2,3.9-5.6l1.9-8.7c1-4.8-2-9.5-6.8-10.6c-4.8-1-9.5,2-10.6,6.8l-1.9,8.7
					c-1,4.8,2,9.5,6.8,10.6C317.7,64.8,320.1,64.4,322.1,63.1L322.1,63.1z M322.1,63.1"/>
				<path fill="#247311" d="M307,132.8c1.9-1.2,3.4-3.2,3.9-5.6l1.9-8.7c1-4.8-2-9.6-6.8-10.6c-4.8-1-9.6,2-10.6,6.8l-1.9,8.7
					c-1,4.8,2,9.6,6.8,10.6C302.7,134.6,305.1,134.1,307,132.8L307,132.8z M307,132.8"/>
				<path fill="#247311" d="M329.8,157.8l-5.6,7c-3.1,3.8-2.5,9.4,1.4,12.5c3.1,2.4,7.3,2.6,10.4,0.5c0.8-0.5,1.5-1.2,2.1-1.9l5.6-7
					c3.1-3.8,2.5-9.4-1.4-12.5C338.5,153.3,332.9,153.9,329.8,157.8L329.8,157.8z M329.8,157.8"/>
				<path fill="#247311" d="M358.3,150c0.8-0.5,1.5-1.2,2.1-1.9l5.6-7c3.1-3.8,2.5-9.4-1.4-12.5c-3.8-3.1-9.5-2.5-12.6,1.4l-5.6,7
					c-3.1,3.8-2.5,9.4,1.4,12.5C351,151.9,355.2,152,358.3,150L358.3,150z M358.3,150"/>
				<path fill="#247311" d="M370.2,121.6c3.1,2.5,7.3,2.5,10.4,0.5c0.8-0.5,1.5-1.2,2.1-1.9l5.6-7c3.1-3.8,2.5-9.4-1.4-12.5
					c-3.8-3.1-9.5-2.5-12.5,1.4l-5.6,6.9C365.7,112.9,366.4,118.5,370.2,121.6L370.2,121.6z M370.2,121.6"/>
				<path fill="#247311" d="M486.2,306c-4.8-1-9.5,2-10.6,6.8c-1,4.8,2,9.5,6.8,10.6l8.7,1.9c2.4,0.5,4.8,0,6.7-1.2
					c1.9-1.3,3.4-3.2,3.9-5.6c1-4.8-2-9.5-6.8-10.6L486.2,306z M486.2,306"/>
				<path fill="#247311" d="M451.3,298.5c-4.8-1-9.6,2-10.6,6.8c-1,4.8,2,9.6,6.8,10.6l8.7,1.9c2.4,0.5,4.8,0,6.7-1.2
					c1.9-1.2,3.4-3.2,3.9-5.6c1-4.8-2-9.6-6.8-10.6L451.3,298.5z M451.3,298.5"/>
				<path fill="#247311" d="M416.5,290.9c-4.8-1-9.6,2-10.6,6.8c-1,4.8,2,9.6,6.8,10.6l8.7,1.9c2.4,0.5,4.8,0,6.7-1.2
					c1.9-1.2,3.4-3.2,3.9-5.6c1-4.8-2-9.6-6.8-10.6L416.5,290.9z M416.5,290.9"/>
				<path fill="#247311" d="M422.4,254.5l8.7-2.2c0.9-0.2,1.8-0.6,2.6-1.1c3.1-2,4.8-5.9,3.8-9.7c-1.3-4.7-6.1-7.6-10.9-6.4
					l-8.6,2.2c-4.8,1.2-7.6,6.1-6.4,10.8C412.8,252.9,417.6,255.7,422.4,254.5L422.4,254.5z M422.4,254.5"/>
				<path fill="#247311" d="M392.1,243.9l-8.6,2.2c-4.8,1.2-7.6,6.1-6.4,10.9c1.2,4.8,6.1,7.6,10.8,6.4l8.6-2.2
					c1-0.3,1.9-0.6,2.6-1.1c3.1-2,4.8-5.9,3.8-9.7C401.7,245.6,396.8,242.7,392.1,243.9L392.1,243.9z M392.1,243.9"/>
				<path fill="#247311" d="M461.1,226.2l-8.6,2.2c-4.7,1.3-7.6,6.1-6.4,10.9c1.2,4.8,6.1,7.6,10.9,6.4l8.6-2.2
					c0.9-0.2,1.8-0.6,2.6-1.1c3.1-2,4.8-5.9,3.8-9.7C470.8,227.8,465.9,224.9,461.1,226.2L461.1,226.2z M461.1,226.2"/>
			</g>
		</g>
	</g>
</g>
<g id="_x34_F">
</g>
<g id="_x35_">
</g>
<g id="_x35_F">
</g>
<g id="_x36_">
</g>
<g id="_x36_F">
</g>
</svg>
