<?xml version="1.0" encoding="UTF-8"?>
<!DOCTYPE svg PUBLIC "-//W3C//DTD SVG 1.1//EN" "http://www.w3.org/Graphics/SVG/1.1/DTD/svg11.dtd">
<!-- Creator: CorelDRAW X7 -->
<svg xmlns="http://www.w3.org/2000/svg" xml:space="preserve" width="13.6131mm" height="13.6113mm" version="1.1" style="shape-rendering:geometricPrecision; text-rendering:geometricPrecision; image-rendering:optimizeQuality; fill-rule:evenodd; clip-rule:evenodd"
viewBox="0 0 121 121"
 xmlns:xlink="http://www.w3.org/1999/xlink">
 <defs>
  <style type="text/css">
   <![CDATA[
    .fil1 {fill:#FEFEFE}
    .fil0 {fill:#E7E7E4}
   ]]>
  </style>
 </defs>
 <g id="Capa_x0020_1">
  <metadata id="CorelCorpID_0Corel-Layer"/>
  <path class="fil0" d="M121 60c0,34 -27,61 -61,61 -33,0 -60,-27 -60,-61 0,-33 27,-60 60,-60 34,0 61,27 61,60z"/>
  <path class="fil1" d="M59 61l-31 0c-1,0 -1,0 -1,1 0,1 0,1 1,1l31 0c1,0 1,0 1,-1 0,-1 0,-1 -1,-1z"/>
  <path class="fil1" d="M59 67l-31 0c-1,0 -1,1 -1,1 0,1 0,1 1,1l31 0c1,0 1,0 1,-1 0,0 0,-1 -1,-1z"/>
  <path class="fil1" d="M59 73l-31 0c-1,0 -1,1 -1,1 0,1 0,2 1,2l31 0c1,0 1,-1 1,-2 0,0 0,-1 -1,-1z"/>
  <path class="fil1" d="M59 80l-31 0c-1,0 -1,0 -1,1 0,0 0,1 1,1l31 0c1,0 1,-1 1,-1 0,-1 0,-1 -1,-1z"/>
  <path class="fil1" d="M49 86l-21 0c-1,0 -1,0 -1,1 0,1 0,1 1,1l21 0c0,0 1,0 1,-1 0,-1 -1,-1 -1,-1z"/>
  <path class="fil1" d="M93 70c-1,1 -3,1 -4,0l-12 -12 4 -4 12 12c1,0 1,1 1,2 0,1 0,1 -1,2zm-27 26l-45 0 0 -56 26 0c0,1 0,2 0,3 0,2 0,4 1,5l-20 0c-1,0 -1,1 -1,1 0,1 0,2 1,2l21 0c0,1 1,2 2,4l-23 0c-1,0 -1,0 -1,1 0,0 0,1 1,1l25 0c4,3 8,4 12,4 1,0 1,0 1,0l0 35zm-1 -68c8,0 15,7 15,15 0,7 -7,14 -15,14 -7,0 -14,-7 -14,-14 0,-8 7,-15 14,-15zm31 35l-13 -13c1,-3 1,-5 1,-7 0,-11 -8,-19 -19,-19 -8,0 -16,6 -18,14l-27 0c-1,0 -1,0 -1,1l0 58c0,1 0,2 1,2l47 0c1,0 1,-1 1,-2l0 -36c2,0 3,-1 5,-1l13 13c1,1 3,2 5,2 2,0 4,-1 5,-2 1,-1 2,-3 2,-5 0,-2 -1,-4 -2,-5z"/>
  <path class="fil1" d="M65 33c6,0 10,4 10,10 0,0 0,1 1,1 0,0 1,-1 1,-1 0,-7 -5,-12 -12,-12 0,0 -1,1 -1,1 0,1 1,1 1,1z"/>
 </g>
</svg>
