<?xml version="1.0" encoding="UTF-8"?>
<!DOCTYPE svg PUBLIC "-//W3C//DTD SVG 1.1//EN" "http://www.w3.org/Graphics/SVG/1.1/DTD/svg11.dtd">
<!-- Creator: CorelDRAW X7 -->
<svg xmlns="http://www.w3.org/2000/svg" xml:space="preserve" width="13.6131mm" height="13.6112mm" version="1.1" style="shape-rendering:geometricPrecision; text-rendering:geometricPrecision; image-rendering:optimizeQuality; fill-rule:evenodd; clip-rule:evenodd"
viewBox="0 0 123 123"
 xmlns:xlink="http://www.w3.org/1999/xlink">
 <defs>
  <style type="text/css">
   <![CDATA[
    .fil0 {fill:#FEFEFE}
    .fil1 {fill:#E7E7E4}
   ]]>
  </style>
 </defs>
 <g id="Capa_x0020_1">
  <metadata id="CorelCorpID_0Corel-Layer"/>
  <path class="fil0" d="M62 20c2,-1 3,-4 3,-6 0,-3 -1,-5 -3,-7 5,2 9,5 11,7 -2,1 -6,4 -11,6l0 0zm-11 -13c-2,2 -3,4 -3,7 0,2 1,5 3,6 -5,-2 -9,-5 -11,-6 2,-2 6,-5 11,-7l0 0zm5 14c-3,0 -6,-4 -6,-7 0,-4 3,-7 6,-7 4,0 7,3 7,7 0,3 -3,7 -7,7l0 0zm18 -8c0,0 -8,-8 -18,-8 -9,0 -17,8 -17,8 -1,0 -1,1 0,1 0,1 8,9 17,9 10,0 18,-8 18,-9 1,0 1,-1 0,-1l0 0z"/>
  <path class="fil1" d="M123 62c0,34 -27,61 -61,61 -34,0 -62,-27 -62,-61 0,-34 28,-62 62,-62 34,0 61,28 61,62z"/>
  <path class="fil0" d="M72 61c0,7 -5,12 -11,12 -7,0 -12,-5 -12,-12 0,-6 5,-11 12,-11 6,0 11,5 11,11l0 0z"/>
  <path class="fil0" d="M75 78c5,-4 8,-10 8,-17 0,-6 -3,-12 -8,-16 13,4 23,13 27,16 -4,4 -14,13 -27,17l0 0zm-28 -33c-5,4 -8,10 -8,16 0,7 3,13 8,17 -13,-4 -24,-13 -27,-17 3,-3 14,-12 27,-16l0 0zm14 34c-10,0 -18,-8 -18,-18 0,-9 8,-17 18,-17 10,0 17,8 17,17 0,10 -7,18 -17,18l0 0zm46 -19c-1,-1 -21,-22 -46,-22 -25,0 -45,21 -46,22 -1,1 -1,2 0,3 1,1 21,21 46,21 25,0 45,-20 46,-21 0,-1 0,-2 0,-3l0 0z"/>
 </g>
</svg>
