<?xml version="1.0" encoding="UTF-8"?>
<!DOCTYPE svg PUBLIC "-//W3C//DTD SVG 1.1//EN" "http://www.w3.org/Graphics/SVG/1.1/DTD/svg11.dtd">
<!-- Creator: CorelDRAW X7 -->
<svg xmlns="http://www.w3.org/2000/svg" xml:space="preserve" width="13.6131mm" height="13.6113mm" version="1.1" style="shape-rendering:geometricPrecision; text-rendering:geometricPrecision; image-rendering:optimizeQuality; fill-rule:evenodd; clip-rule:evenodd"
viewBox="0 0 119 119"
 xmlns:xlink="http://www.w3.org/1999/xlink">
 <defs>
  <style type="text/css">
   <![CDATA[
    .fil1 {fill:#FEFEFE}
    .fil0 {fill:#E7E7E4}
   ]]>
  </style>
 </defs>
 <g id="Capa_x0020_1">
  <metadata id="CorelCorpID_0Corel-Layer"/>
  <path class="fil0" d="M119 59c0,33 -27,60 -60,60 -32,0 -59,-27 -59,-60 0,-32 27,-59 59,-59 33,0 60,27 60,59z"/>
  <path class="fil1" d="M57 78c-6,0 -11,-5 -11,-11 0,-6 5,-10 11,-10 6,0 11,5 11,10 0,6 -5,11 -11,11z"/>
  <path class="fil1" d="M42 44c4,-6 8,-13 12,-20 1,-2 4,-2 5,0 4,6 8,13 12,20 0,0 0,0 0,1 -5,-3 -9,-4 -14,-4 -5,0 -10,1 -15,3z"/>
  <path class="fil1" d="M30 66c0,11 5,19 14,25 -1,0 -2,0 -3,0 -7,0 -14,0 -20,0 -3,0 -5,-2 -3,-4 4,-7 8,-14 12,-21z"/>
  <path class="fil1" d="M84 66c3,7 7,13 11,19 0,1 0,1 -1,2 -1,0 -2,2 -2,3 -1,1 -1,1 -2,1 -7,0 -14,0 -21,0 5,-2 8,-6 11,-10 2,-5 4,-10 4,-15z"/>
  <path class="fil1" d="M98 95c-2,0 -3,-2 -3,-3 0,-2 1,-3 2,-3 2,0 3,1 3,3 0,1 -1,3 -2,3z"/>
 </g>
</svg>
