<?xml version="1.0" encoding="utf-8"?>
<!-- Generator: Adobe Illustrator 18.0.0, SVG Export Plug-In . SVG Version: 6.00 Build 0)  -->
<!DOCTYPE svg PUBLIC "-//W3C//DTD SVG 1.1//EN" "http://www.w3.org/Graphics/SVG/1.1/DTD/svg11.dtd">
<svg version="1.1" xmlns="http://www.w3.org/2000/svg" xmlns:xlink="http://www.w3.org/1999/xlink" x="0px" y="0px"
	 viewBox="0 0 80 80" enable-background="new 0 0 80 80" xml:space="preserve">
<g id="Referentes" display="none">
</g>
<g id="Sustainability_Vision">
	<g>
		<g>
			<circle fill-rule="evenodd" clip-rule="evenodd" fill="#DFE0DE" cx="40" cy="40" r="36.8"/>
		</g>
		<path id="XMLID_8_" fill-rule="evenodd" clip-rule="evenodd" fill="#FFFFFF" d="M24.2,35.1c1.4,0,2.6,0.6,3.5,1.4l14.5-9.3
			c-0.2-0.6-0.4-1.3-0.3-2.1c0.1-3.2,2.8-5.6,5.9-5.5c3.2,0.1,5.6,2.8,5.5,5.9c-0.1,3.2-2.8,5.6-5.9,5.5c-1.3,0-2.5-0.5-3.5-1.3
			L29.4,39c0.2,0.6,0.3,1.3,0.3,2c0,0.8-0.2,1.5-0.5,2.2l13.7,10.3c1-0.8,2.4-1.3,3.8-1.3c3.2,0.1,5.6,2.8,5.5,5.9
			c-0.1,3.2-2.8,5.6-5.9,5.5c-3.2-0.1-5.6-2.8-5.5-5.9c0-0.6,0.2-1.2,0.4-1.8L27.3,45.5c-1,0.7-2.2,1-3.5,1
			c-3.2-0.1-5.6-2.8-5.5-5.9C18.4,37.4,21,35,24.2,35.1z"/>
	</g>
</g>
</svg>
