<?xml version="1.0" encoding="utf-8"?>
<!-- Generator: Adobe Illustrator 18.0.0, SVG Export Plug-In . SVG Version: 6.00 Build 0)  -->
<!DOCTYPE svg PUBLIC "-//W3C//DTD SVG 1.1//EN" "http://www.w3.org/Graphics/SVG/1.1/DTD/svg11.dtd">
<svg version="1.1" xmlns="http://www.w3.org/2000/svg" xmlns:xlink="http://www.w3.org/1999/xlink" x="0px" y="0px"
	 viewBox="0 0 846.1 540.1" enable-background="new 0 0 846.1 540.1" xml:space="preserve">
<g id="Sin">
</g>
<g id="Layer_9">
	<g>
		<g>
			<g>
				<g>
					<g>
						<path fill="#51A332" stroke="#51A332" stroke-width="3.2148" stroke-miterlimit="10" d="M809.2,121.1c-2.5-2.2-5.7-3.3-9-3.3
							h-21.7V102c0-6.6-1.9-11.4-5.7-14.1c-6-4.4-14.3-1.9-14.7-1.8c-1,0.3-1.7,1.3-1.7,2.4V106c0,5.7-2.7,10.6-8.1,14.5
							c-4,2.9-8.1,4.2-8.6,4.3l-0.6,0.1c-0.9-1.5-2.5-2.5-4.4-2.5h-16.1c-2.8,0-5.1,2.3-5.1,5.1v47.2c0,2.8,2.3,5.1,5.1,5.1h16.1
							c1.6,0,3-0.7,3.9-1.8c2.6,2.8,6.2,4.5,10.2,4.5h43c9.5,0,15.6-5,16.6-13.7l5.6-34.5C814.8,129.4,812.9,124.3,809.2,121.1
							L809.2,121.1z M734.8,174.8c0,0.1-0.1,0.1-0.1,0.1h-16.1c-0.1,0-0.1-0.1-0.1-0.1v-47.2c0-0.1,0.1-0.1,0.1-0.1h16.1
							c0.1,0,0.1,0.1,0.1,0.1L734.8,174.8L734.8,174.8z M809,133.5l-5.5,34.6c0,0,0,0.1,0,0.1c-0.8,6.2-4.7,9.3-11.7,9.3h-43
							c-4.4,0-8.2-3.3-8.9-7.6c0-0.1-0.1-0.3-0.1-0.4v-39.6l1.1-0.2c0,0,0.1,0,0.1,0c0.2-0.1,5.1-1.4,10.1-5
							c6.8-4.8,10.3-11.2,10.3-18.6V90.4c2.2-0.4,5.8-0.5,8.5,1.4c2.4,1.8,3.7,5.2,3.7,10.1v18.2c0,1.4,1.1,2.5,2.5,2.5h24.2
							c2,0,4.1,0.8,5.7,2.2C808.4,126.9,809.6,130.3,809,133.5L809,133.5z M809,133.5"/>
					</g>
				</g>
			</g>
			<g>
				
					<path fill="none" stroke="#51A332" stroke-width="6.4862" stroke-linecap="round" stroke-linejoin="round" stroke-miterlimit="10" d="
					M678.7,326V202.5c4.5-5.6,7.1-12.7,7.1-20.5c0-18.2-14.8-33-33-33c-18.2,0-33,14.8-33,33c0,5.6,3.6,15.3,6.1,19.9v126
					C603,339,585,362.5,585,389.7c0,37.8,30.7,68.5,68.5,68.5c37.8,0,68.5-30.7,68.5-68.5C721.9,360.8,704,336,678.7,326z"/>
				
					<line fill="none" stroke="#51A332" stroke-width="6.4862" stroke-linecap="round" stroke-linejoin="round" stroke-miterlimit="10" x1="677" y1="223.5" x2="649.9" y2="223.5"/>
				
					<line fill="none" stroke="#51A332" stroke-width="6.4862" stroke-linecap="round" stroke-linejoin="round" stroke-miterlimit="10" x1="677" y1="266.8" x2="649.9" y2="266.8"/>
				
					<line fill="none" stroke="#51A332" stroke-width="6.4862" stroke-linecap="round" stroke-linejoin="round" stroke-miterlimit="10" x1="677" y1="310" x2="649.9" y2="310"/>
				
					<path fill="none" stroke="#51A332" stroke-width="6.4862" stroke-linecap="round" stroke-linejoin="round" stroke-miterlimit="10" d="
					M699.7,395.9c0,25.4-20.6,45.9-45.9,45.9c-25.4,0-45.9-20.6-45.9-45.9H699.7z"/>
			</g>
		</g>
		<g>
			<g>
				<path fill="#51A332" d="M250.3,122.2l-5.5-5.5c-0.7-0.7-1.9-0.7-2.6,0L229,129.9c-0.7,0.7-0.7,1.9,0,2.6l2,2l-3.4,3.4
					c-0.8,0.8-1.8,1.2-2.8,1.2h-6.6v-5.5l28.1-28.1c0.7-0.7,0.7-1.9,0-2.6l-5.5-5.5c-0.7-0.7-1.9-0.7-2.6,0l-26.7,26.7
					c-0.9-0.3-1.9-0.5-3-0.5c-1.7,0-3.2,0.4-4.6,1.2c-4.7-1.7-8.9-4.8-11.8-8.8c-3.2-4.4-5-9.6-5-15c0-1.9,0.2-3.8,0.6-5.6
					c0.8-0.3,1.6-0.8,2.3-1.3l9.6,9.6c0,0,0,0,0,0c0,0,0.1,0.1,0.1,0.1c0,0,0,0,0.1,0c0,0,0.1,0,0.1,0.1c0,0,0,0,0.1,0
					c0,0,0,0,0.1,0c0,0,0.1,0,0.1,0c0,0,0,0,0.1,0c0,0,0.1,0,0.1,0c0,0,0,0,0,0l8.3,2.7l3.8,3.8c0.7,0.7,1.7,1.1,2.6,1.1
					c1,0,1.9-0.4,2.7-1.1l5-5c1.5-1.5,1.5-3.8,0-5.3l-3.8-3.8l-2.6-8.4c0,0,0,0,0-0.1c0,0,0-0.1,0-0.1c0,0,0-0.1,0-0.1
					c0,0,0,0,0-0.1c0,0,0-0.1-0.1-0.1c0,0,0,0,0,0c0,0,0-0.1-0.1-0.1c0,0,0,0,0,0c0,0-0.1-0.1-0.1-0.1c0,0,0,0,0,0l0,0c0,0,0,0,0,0
					l-28.4-28.3c-1.1-1.1-2.5-1.7-4-1.7c-1.5,0-2.9,0.6-3.9,1.6l-7.5-7.5c0.8-2,0.4-4.4-1.2-6.1c-1.1-1.1-2.5-1.6-4-1.6
					s-2.9,0.6-4,1.6l-5.3,5.3c-1.1,1.1-1.6,2.5-1.6,4c0,1.5,0.6,2.9,1.6,4c1.1,1.1,2.5,1.6,4,1.6c0.7,0,1.4-0.1,2.1-0.4l7.5,7.5
					c-1,1.1-1.6,2.5-1.6,3.9c0,1.5,0.6,2.9,1.7,4l2.7,2.7c-1.3,1.9-2.1,4.2-2.1,6.7c0,2,0.5,3.9,1.4,5.5c-0.9,3.5-1.4,7.1-1.4,10.6
					c0,8.8,2.8,17.1,8,24.2c4.8,6.4,11.5,11.4,19.1,14l0,13.4h-4c-4.2,0-7.6,3.4-7.6,7.6l0,3.9c0,1,0.8,1.8,1.8,1.8h38.7
					c1,0,1.8-0.8,1.8-1.8l0-3.9c0-4.2-3.4-7.6-7.6-7.6h-4l0-9.9h6.6c2,0,3.9-0.8,5.4-2.2l3.4-3.4l0.9,0.9c0.4,0.4,0.8,0.5,1.3,0.5
					c0.5,0,0.9-0.2,1.3-0.5l13.2-13.2C251,124,251,122.9,250.3,122.2L250.3,122.2z M239.7,101.2l2.9,2.9l-25.1,25.1
					c-0.6-1.3-1.4-2.4-2.5-3.3L239.7,101.2z M183.6,92.6c-4.3,0-7.9-3.5-7.9-7.9c0-4.3,3.5-7.9,7.9-7.9c4.3,0,7.9,3.5,7.9,7.9
					C191.4,89.1,187.9,92.6,183.6,92.6L183.6,92.6z M214,92.1l1.6,4.9l-6.2,6.2l-4.9-1.6L214,92.1z M220.5,103
					C220.5,103.1,220.4,103.1,220.5,103l-5,5.1c0,0-0.1,0-0.2,0l-2.8-2.8l5.2-5.2L220.5,103C220.4,102.9,220.5,103,220.5,103
					L220.5,103z M174,64.9l-7.2-7.2l3.2-3.2l7.2,7.2L174,64.9z M160.4,56.2c-0.4-0.4-0.6-0.9-0.6-1.4c0-0.5,0.2-1,0.6-1.4l5.3-5.3
					c0.4-0.4,0.9-0.6,1.4-0.6c0.5,0,1,0.2,1.4,0.6c0.8,0.8,0.8,2,0,2.8l-5.3,5.3C162.4,56.9,161.2,56.9,160.4,56.2L160.4,56.2z
					 M173.4,71.4c0-0.5,0.2-1.1,0.6-1.5l8.2-8.2c0.4-0.4,0.9-0.6,1.5-0.6c0.5,0,1.1,0.2,1.5,0.6l27.1,27l-11.1,11.1l-8.3-8.3
					c1.4-1.9,2.2-4.3,2.2-6.8c0-6.3-5.2-11.5-11.5-11.5c-2.5,0-4.9,0.8-6.8,2.2l-2.7-2.7C173.7,72.4,173.4,71.9,173.4,71.4
					L173.4,71.4z M183,123c-4.8-6.4-7.3-14-7.3-22c0-2.4,0.2-4.8,0.7-7.2c2,1.6,4.4,2.5,7.1,2.5c0.2,0,0.3,0,0.5,0
					c-0.3,1.5-0.4,3.1-0.4,4.7c0,6.2,2,12.2,5.7,17.2c3.1,4.1,7.1,7.3,11.7,9.3c-1.2,1.6-1.9,3.6-1.9,5.7v2.2
					C192.8,132.8,187.1,128.5,183,123L183,123z M226.2,160.2v2.1h-35.1v-2.1c0-2.2,1.8-4,4-4h27.1
					C224.4,156.2,226.2,158,226.2,160.2L226.2,160.2z M202.8,152.6l0-14.5c0-0.1,0-0.2,0-0.4v-4.6c0-3.3,2.7-5.9,5.9-5.9
					c3.3,0,5.9,2.7,5.9,5.9l0,19.5H202.8z M235.8,134.1l-2.9-2.9l10.6-10.6l2.9,2.9L235.8,134.1z M235.8,134.1"/>
				<path fill="#51A332" d="M183.6,81c-2.1,0-3.7,1.7-3.7,3.7c0,2.1,1.7,3.7,3.7,3.7c2.1,0,3.7-1.7,3.7-3.7
					C187.3,82.7,185.6,81,183.6,81L183.6,81z M183.6,84.9c-0.1,0-0.1-0.1-0.1-0.1c0-0.1,0.1-0.1,0.1-0.1c0.1,0,0.1,0.1,0.1,0.1
					C183.7,84.9,183.6,84.9,183.6,84.9L183.6,84.9z M183.6,84.9"/>
				<path fill="#51A332" d="M208.7,131.3c-0.5,0-0.9,0.2-1.3,0.5c-0.3,0.3-0.5,0.8-0.5,1.3c0,0.5,0.2,0.9,0.5,1.3
					c0.3,0.3,0.8,0.5,1.3,0.5c0.5,0,0.9-0.2,1.3-0.5c0.3-0.3,0.5-0.8,0.5-1.3c0-0.5-0.2-0.9-0.5-1.3
					C209.7,131.5,209.2,131.3,208.7,131.3L208.7,131.3z M208.7,131.3"/>
			</g>
			<path fill="#51A332" d="M421.3,248.5"/>
			<path fill="#51A332" d="M445.2,174l0-43.4c0-1.5-1.2-2.8-2.8-2.8h-22.3c-1.5,0-2.8,1.2-2.8,2.8l0,43.4l-21.9,21.9
				c-5.4,5.4-5.4,14.3,0,19.7c2.6,2.6,6.1,4.1,9.8,4.1h52c7.7,0,13.9-6.2,13.9-13.9c0-3.7-1.5-7.3-4.1-9.9L445.2,174z M422.1,177.1
				c0.5-0.5,0.8-1.2,0.8-2l0-41.8h16.7l0,41.8c0,0.7,0.3,1.5,0.8,2l16.4,16.4c-0.8,0.6-1.5,1.3-2.1,2c-0.8,1.7-2.9,2.4-4.6,1.5
				c-0.7-0.3-1.2-0.9-1.5-1.5c-2.8-3.9-8.3-4.9-12.3-2c-0.8,0.6-1.5,1.2-2,2c-0.9,1.7-2.9,2.4-4.6,1.5c-0.6-0.3-1.2-0.8-1.5-1.5
				c-2.8-3.9-8.3-4.9-12.2-2.1c-0.8,0.6-1.5,1.3-2.1,2.1c-0.9,1.7-2.9,2.4-4.6,1.5c-0.6-0.3-1.2-0.8-1.5-1.5c-0.6-0.7-1.4-1.4-2.1-2
				L422.1,177.1z M465,209c-1.3,3.1-4.4,5.2-7.7,5.1h-52c-4.6,0-8.3-3.7-8.3-8.4c0-2.2,0.9-4.3,2.4-5.9l2.3-2.3
				c0.8,0.4,1.5,1,2.1,1.7c2.8,4,8.3,4.9,12.2,2.1c0.8-0.6,1.5-1.3,2.1-2.1c0.8-1.7,2.9-2.4,4.5-1.6c0.7,0.3,1.2,0.9,1.6,1.6
				c2.8,4,8.3,4.9,12.2,2.1c0.8-0.6,1.5-1.3,2.1-2.1c0.9-1.7,2.9-2.3,4.6-1.5c0.6,0.3,1.2,0.8,1.5,1.5c2.8,4,8.3,4.9,12.3,2.1
				c0.8-0.6,1.5-1.3,2.1-2.1c0.5-0.7,1.3-1.3,2.1-1.7l2.3,2.3C465.6,202.2,466.3,205.8,465,209L465,209z M465,209"/>
			<g>
				<path fill="#51A332" d="M79.2,298.1c0,1.8-1.2,3.3-2.8,3.3c-1.5,0-2.8-1.5-2.8-3.3s1.2-3.3,2.8-3.3
					C78,294.8,79.2,296.3,79.2,298.1L79.2,298.1z M79.2,298.1"/>
				<path fill="#51A332" d="M121,298.1c0-6.4-4.5-12-11.9-16.2c3-9.5,2.6-17.1-1.1-21.5c-3.7-4.4-11.1-4.9-20.1-0.4
					c-4,2.1-7.8,4.7-11.4,7.8c-3.6-3-7.4-5.6-11.4-7.8c-8.9-4.6-16.1-4.5-20.1,0.4c-4,4.8-4,12-1.1,21.5
					c-7.5,4.1-11.9,9.8-11.9,16.2c0,6.4,4.5,12,11.9,16.1c-2.8,9.2-2.8,17,1.1,21.5c2.3,2.5,5.3,3.8,8.4,3.7c4-0.2,8-1.3,11.6-3.3
					c4.1-2.1,7.9-4.7,11.6-7.8c3.6,3,7.4,5.6,11.4,7.7c3.6,2,7.6,3.2,11.6,3.3c3.1,0.2,6.1-1.2,8.4-3.7c3.8-4.5,4-12.3,1.1-21.5
					C116.5,310,121,304.5,121,298.1L121,298.1z M90.1,266.2c3-1.7,6.1-2.6,9.4-2.8c1.6-0.1,3.3,0.5,4.5,1.8c2,2.4,1.9,7.7,0,14.3
					c-6.3-2.4-12.9-3.9-19.5-4.4c-1.1-1.1-2.1-2.1-3.2-3.2C84.1,269.8,87,267.8,90.1,266.2L90.1,266.2z M86.3,310
					c-1.4,1.6-2.8,3.3-4.1,4.7c-1.8,0-3.7,0.2-5.6,0.2c-1.8,0-3.8,0-5.6-0.2c-1.4-1.5-2.8-3-4.1-4.7c-3.1-3.7-6-7.6-8.6-11.8
					c2.7-4.1,5.5-8.1,8.6-11.7c1.4-1.6,2.8-3.3,4.1-4.7c1.8,0,3.7-0.2,5.6-0.2c1.8,0,3.8,0,5.6,0.2c1.4,1.5,2.8,3,4.1,4.7
					c3.1,3.7,6,7.6,8.6,11.7C92.3,302.4,89.4,306.3,86.3,310L86.3,310z M98.3,303.9c1.2,2.2,2.3,4.5,3.4,6.8
					c-3.4,1.3-6.9,2.2-10.5,2.9c2.5-3.1,4.9-6.4,7.1-9.8V303.9z M61.8,313.3c-3.6-0.6-7.1-1.6-10.5-2.9c1-2.3,2.1-4.6,3.4-6.8
					C56.9,307,59.2,310.2,61.8,313.3L61.8,313.3z M54.6,292.3c-1.2-2.1-2.3-4.4-3.3-6.7c3.4-1.3,6.9-2.2,10.5-2.8
					C59.3,285.9,56.9,289.1,54.6,292.3L54.6,292.3z M91.2,282.7c3.5,0.6,7,1.6,10.5,2.8c-1,2.3-2.1,4.5-3.3,6.7
					C96,288.9,93.7,285.7,91.2,282.7L91.2,282.7z M48.9,265.2c1.3-1.3,2.9-1.9,4.5-1.8c3.3,0.2,6.5,1.1,9.4,2.8
					c3.1,1.6,6.1,3.6,8.9,5.8c-1.1,1-2.1,2.1-3.2,3.2c-6.6,0.5-13.2,2-19.5,4.4C47,272.8,46.9,267.6,48.9,265.2L48.9,265.2z
					 M37.5,298.1c0-3.3,3.1-7.1,8.6-10c1.5,3.5,3.2,6.8,5,10c-1.9,3.2-3.6,6.6-5.1,10.2C40.6,305.2,37.5,301.6,37.5,298.1
					L37.5,298.1z M62.8,330c-6.5,3.3-11.7,3.7-13.9,1.1c-2.2-2.7-2-7.7,0-14.4c6.3,2.4,12.9,3.9,19.5,4.4c1.1,1.1,2.1,2.1,3.2,3.2
					C68.8,326.4,65.9,328.3,62.8,330L62.8,330z M104,331c-2.2,2.7-7.4,2.3-13.9-1.1c-3.1-1.6-6.1-3.6-8.9-5.8c1.1-1,2.1-2.1,3.2-3.2
					c6.6-0.5,13.2-2,19.5-4.4C106,323.3,106.1,328.6,104,331L104,331z M106.8,308.2c-1.5-3.5-3.2-6.9-5.1-10.2c1.9-3.2,3.5-6.5,5-10
					c5.6,3,8.6,6.7,8.6,10C115.3,301.4,112.3,305.2,106.8,308.2L106.8,308.2z M106.8,308.2"/>
			</g>
			<g>
				<path fill="#51A332" d="M466.2,392.7h-52.9c-1.5,0-2.8,1.3-2.8,2.8c0,0.5,0.2,1.1,0.5,1.5l5.1,7.7l0,35.4
					c0,7.7,6.2,13.9,13.9,13.9h25.1c7.7,0,13.9-6.2,13.9-13.9l0-44.5C469,393.9,467.8,392.7,466.2,392.7L466.2,392.7z M463.4,440
					c0,4.6-3.7,8.4-8.4,8.4H430c-4.6,0-8.4-3.7-8.4-8.4l0-36.2c0-0.5-0.2-1.1-0.5-1.5l-2.8-4h45L463.4,440L463.4,440z M463.4,440"/>
				<rect x="427.2" y="403.8" fill="#51A332" width="11.1" height="5.6"/>
				<rect x="427.2" y="415" fill="#51A332" width="11.1" height="5.6"/>
				<rect x="427.2" y="426.1" fill="#51A332" width="11.1" height="5.6"/>
				<rect x="427.2" y="437.2" fill="#51A332" width="11.1" height="5.6"/>
			</g>
			<path fill="#51A332" d="M166,487.7c3.3,5.3,9.1,8.5,15.3,8.5h34.8l0-5.6h-2.8l0-25.1h2.8V460h-34.8c-6.2,0-12,3.2-15.3,8.5
				c-3.3-5.3-9.1-8.5-15.3-8.5h-34.8v5.6h2.8l0,25.1h-2.8v5.6h34.8C156.9,496.2,162.7,493,166,487.7L166,487.7z M191.1,490.6l0-25.1
				h5.6l0,25.1H191.1z M207.8,490.6h-5.6l0-25.1h5.6L207.8,490.6z M185.5,465.6l0,25.1h-4.2c-0.5,0-0.9-0.1-1.4-0.1l0-24.8
				c0.5-0.1,0.9-0.1,1.4-0.1H185.5z M174.4,467.7v20.8c-5.7-3.8-7.3-11.6-3.5-17.3C171.8,469.8,173,468.6,174.4,467.7L174.4,467.7z
				 M163.2,478.1c0,4.2-2.1,8.1-5.6,10.4l0-20.8C161.2,470,163.2,473.9,163.2,478.1L163.2,478.1z M152.1,465.7l0,24.8
				c-0.5,0.1-0.9,0.1-1.4,0.1h-4.2l0-25.1h4.2C151.2,465.6,151.7,465.6,152.1,465.7L152.1,465.7z M141,490.6h-5.6l0-25.1h5.6
				L141,490.6z M124.3,465.6h5.6l0,25.1h-5.6L124.3,465.6z M124.3,465.6"/>
			<g>
				
					<circle fill="none" stroke="#51A332" stroke-width="6" stroke-linecap="round" stroke-linejoin="round" stroke-miterlimit="10" cx="275.3" cy="312.5" r="137.2"/>
				
					<path fill="none" stroke="#51A332" stroke-width="6" stroke-linecap="round" stroke-linejoin="round" stroke-miterlimit="10" d="
					M244.9,178.8c0,0,5.3,5.3,3.3,12c-2,6.7-13.3,28.7-13.3,28.7s0.7,18,10,9.3c9.3-8.7,29.3-30.7,29.3-30.7l18-8l10-9.3"/>
				
					<path fill="none" stroke="#51A332" stroke-width="6" stroke-linecap="round" stroke-linejoin="round" stroke-miterlimit="10" d="
					M340.2,194.8l-9.3,38l-34.7,4.7l-26.7,20.7c0,0-17.3,2.7-18,8.7c-0.7,6,6.7,10.7,43.3,10c36.7-0.7,20.7,14,20.7,14l-21.3,14.7
					c0,0-28.7,2.7-39.3-3.3c-10.7-6-16-15.3-37.3,7.3c-21.3,22.7,7.3,54.7,7.3,54.7s32.7,2,34.7,10s5.3,36,10.7,42
					c5.3,6,18.7,10,18.7,10s16.7-8.7,20.7-18.7s2-35.3,2-35.3s18.7-21.3,17.3-24c-1.3-2.7-14.7-18.7-12.7-24.7s8-14.7,20-3.3
					c12,11.3,18.7,3.3,20.7,0.7c2-2.7,2-13.3-2-15.3s-3.3-12,6.7-14s12,5.3,16.7,5.3c4.7,0,10.7-2.7,11.3-8
					c0.7-5.3,14.3-10.1,16.7-10.7"/>
				
					<path fill="none" stroke="#51A332" stroke-width="6" stroke-linecap="round" stroke-linejoin="round" stroke-miterlimit="10" d="
					M194.2,202.8c0,0,7.3,16,0.7,29.3c-6.7,13.3-14,17.3-24,26c-10,8.7-4.7,8.7-13.3,20.7c-8.7,12-19.3,24-19.3,24"/>
				
					<path fill="none" stroke="#51A332" stroke-width="6" stroke-linecap="round" stroke-linejoin="round" stroke-miterlimit="10" d="
					M142.9,346.8c0,0,13.3-5.3,20.7,3.3c7.3,8.7,5.3,18,17.3,26s20,13.3,20.7,20.7c0.7,7.3-6.7,24.7-6.7,24.7"/>
			</g>
		</g>
		<g>
			<path fill="#51A332" d="M713.7,250.5c-2.7,0-4.4,1.5-4.4,5.3v5.8h-8v-5.2c0-8.6,4.3-13.5,12.6-13.5c8.3,0,12.6,4.9,12.6,13.5
				c0,7.1-2.6,12.9-10.5,21.3c-5,5.4-6.4,7.9-6.4,10.8c0,0.4,0,0.8,0.1,1.2h16v7.7h-24.4v-6.6c0-6,2.2-10.5,8.5-17.1
				c6.5-6.8,8.3-11.1,8.3-16.8C718,251.8,716.3,250.5,713.7,250.5z"/>
			<path fill="#51A332" d="M731.3,251.6c0-5.4,2.8-8.5,8.1-8.5c5.3,0,8.1,3.2,8.1,8.5v11.9c0,5.4-2.8,8.5-8.1,8.5
				c-5.3,0-8.1-3.2-8.1-8.5V251.6z M736.6,263.8c0,2.5,1,3.3,2.8,3.3c1.7,0,2.8-0.8,2.8-3.3v-12.5c0-2.5-1.1-3.3-2.8-3.3
				c-1.8,0-2.8,0.8-2.8,3.3V263.8z"/>
		</g>
		<g>
			<path fill="#51A332" d="M778.4,276.5v7.1c0,8.5-4.3,13.4-12.5,13.4s-12.5-4.9-12.5-13.4v-27.7c0-8.5,4.3-13.4,12.5-13.4
				s12.5,4.9,12.5,13.4v5.2h-7.9v-5.7c0-3.8-1.7-5.3-4.3-5.3c-2.7,0-4.3,1.4-4.3,5.3v28.8c0,3.8,1.7,5.2,4.3,5.2
				c2.7,0,4.3-1.4,4.3-5.2v-7.6H778.4z"/>
		</g>
	</g>
</g>
<g id="B1" display="none">
</g>
</svg>
