<?xml version="1.0" encoding="utf-8"?>
<!-- Generator: Adobe Illustrator 18.0.0, SVG Export Plug-In . SVG Version: 6.00 Build 0)  -->
<!DOCTYPE svg PUBLIC "-//W3C//DTD SVG 1.1//EN" "http://www.w3.org/Graphics/SVG/1.1/DTD/svg11.dtd" [
	<!ENTITY ns_flows "http://ns.adobe.com/Flows/1.0/">
	<!ENTITY ns_extend "http://ns.adobe.com/Extensibility/1.0/">
	<!ENTITY ns_ai "http://ns.adobe.com/AdobeIllustrator/10.0/">
	<!ENTITY ns_graphs "http://ns.adobe.com/Graphs/1.0/">
]>
<svg version="1.1" xmlns:x="&ns_extend;" xmlns:i="&ns_ai;" xmlns:graph="&ns_graphs;"
	 xmlns="http://www.w3.org/2000/svg" xmlns:xlink="http://www.w3.org/1999/xlink" xmlns:a="http://ns.adobe.com/AdobeSVGViewerExtensions/3.0/"
	 x="0px" y="0px" viewBox="0 0 542 450" enable-background="new 0 0 542 450" xml:space="preserve">
<g id="_x30_">
</g>
<g id="_x31_">
</g>
<g id="_x31_F">
</g>
<g id="_x32_">
</g>
<g id="_x32_F">
</g>
<g id="_x33_">
	<g>
		<g>
			<g>
				<g>
					<g>
						<g>
							<g>
								<path fill="#8CC640" d="M431,331.8c-52.8,0-95.7-42.9-95.7-95.7c0-4.3,3.5-7.8,7.8-7.8h175.9c4.3,0,7.8,3.5,7.8,7.8
									C526.7,288.9,483.7,331.8,431,331.8L431,331.8z M351.2,243.9"/>
							</g>
						</g>
						<g>
							<g>
								<path fill="#8CC640" d="M518.9,243.9c-2.8,0-5.5-1.5-6.9-4.2L431,84.4l-81.1,155.3c-2,3.8-6.7,5.2-10.5,3.3
									c-3.8-2-5.2-6.7-3.3-10.5l88-168.5c2.7-5.2,11.1-5.2,13.7,0l88,168.5c2,3.8,0.5,8.5-3.3,10.5
									C521.4,243.6,520.1,243.9,518.9,243.9L518.9,243.9z M518.9,243.9"/>
							</g>
						</g>
						<path fill="#FFFFFF" d="M340.7,236.9l90.4-174l92,174.6C523.1,237.5,341.4,236.2,340.7,236.9z"/>
					</g>
					<g>
						
							<line fill="none" stroke="#AEADB3" stroke-width="5.264" stroke-linecap="round" stroke-linejoin="round" stroke-miterlimit="10" x1="270.2" y1="18.8" x2="270.2" y2="430.7"/>
					</g>
					<g>
						
							<line fill="none" stroke="#AEADB3" stroke-width="5.264" stroke-linecap="round" stroke-linejoin="round" stroke-miterlimit="10" x1="53.2" y1="129.8" x2="492.7" y2="54.8"/>
					</g>
					<g>
						
							<line fill="none" stroke="#AEADB3" stroke-width="5.264" stroke-linecap="round" stroke-linejoin="round" stroke-miterlimit="10" x1="161.2" y1="431.2" x2="380.2" y2="431.2"/>
					</g>
					<g>
						<g>
							<path fill="#AEADB3" d="M271.5,146.5c-30.4,0-55.1-24.8-55.1-55.2c0-30.3,24.7-55.1,55.1-55.1c30.4,0,55.2,24.8,55.2,55.1
								C326.7,121.8,301.9,146.5,271.5,146.5L271.5,146.5z M271.5,51.7"/>
						</g>
					</g>
				</g>
			</g>
			<g>
				<path fill="#51A332" d="M111,383.8c-52.8,0-95.7-42.9-95.7-95.7c0-4.3,3.5-7.8,7.8-7.8h175.9c4.3,0,7.8,3.5,7.8,7.8
					C206.7,340.9,163.7,383.8,111,383.8L111,383.8z M31.2,295.9"/>
				<path fill="#51A332" d="M198.9,295.9c-2.8,0-5.5-1.5-6.9-4.2L111,136.4L29.9,291.7c-2,3.8-6.7,5.2-10.5,3.3
					c-3.8-2-5.2-6.7-3.3-10.5l88-168.5c2.7-5.2,11.1-5.2,13.7,0l88,168.5c2,3.8,0.5,8.5-3.3,10.5
					C201.4,295.6,200.1,295.9,198.9,295.9L198.9,295.9z M198.9,295.9"/>
				<path fill="#FFFFFF" d="M20.7,290.9l90.4-174l90,174.6C201,291.5,21.4,290.2,20.7,290.9z"/>
			</g>
		</g>
		<g>
			<g>
				<path fill="#FFFFFF" d="M110.3,298c-9.2,0-17.7,5-22.1,12.9c-0.9-0.2-1.8-0.3-2.8-0.3c-7.6,0-13.8,6.2-13.8,13.8
					c0,1,0.1,2,0.3,3c-5,3.5-8.1,9.4-8.1,15.6c0,10.4,8.3,19.7,18.2,20.2h49.5c11.4-0.8,20.4-10.6,20.4-22.3
					c0-10.2-7-19.2-16.5-21.7C133.4,307.1,122.9,298,110.3,298L110.3,298z M147.4,341.1c0,9.2-7.2,17.1-16.1,17.8H82.2
					c-7.5-0.4-13.9-7.6-13.9-15.7c0-5.2,2.8-10.1,7.3-12.7c0.9-0.5,1.4-1.7,1-2.7c-0.4-1-0.5-2.1-0.5-3.2c0-5.2,4.2-9.3,9.3-9.3
					c1.1,0,2.2,0.2,3.2,0.5c1.1,0.4,2.3-0.1,2.8-1.1c3.4-7.3,10.9-12,19-12c10.9,0,19.8,8.1,20.8,18.9c0.1,1,0.9,1.8,1.9,2
					C141.2,324.8,147.4,332.4,147.4,341.1L147.4,341.1z M147.4,341.1"/>
			</g>
			<g>
				<path fill="#FFFFFF" d="M95.8,339.3v4.1c0,5-2.5,7.8-7.3,7.8c-4.8,0-7.3-2.8-7.3-7.8v-16.2c0-5,2.5-7.8,7.3-7.8
					c4.8,0,7.3,2.8,7.3,7.8v3h-4.6v-3.3c0-2.2-1-3.1-2.5-3.1c-1.6,0-2.5,0.8-2.5,3.1v16.8c0,2.2,1,3,2.5,3c1.6,0,2.5-0.8,2.5-3v-4.5
					H95.8z"/>
				<path fill="#FFFFFF" d="M98.4,327.2c0-5,2.6-7.8,7.4-7.8c4.8,0,7.4,2.8,7.4,7.8v16.2c0,5-2.6,7.8-7.4,7.8
					c-4.8,0-7.4-2.8-7.4-7.8V327.2z M103.3,343.7c0,2.2,1,3.1,2.5,3.1c1.6,0,2.5-0.8,2.5-3.1v-16.8c0-2.2-1-3.1-2.5-3.1
					c-1.6,0-2.5,0.8-2.5,3.1V343.7z"/>
				<path fill="#FFFFFF" d="M123.6,323.9c-1.6,0-2.5,0.8-2.5,3.1v3.3h-4.6v-3c0-5,2.5-7.8,7.3-7.8c4.8,0,7.3,2.8,7.3,7.8
					c0,4.1-1.5,7.5-6.1,12.3c-2.9,3.1-3.7,4.6-3.7,6.2c0,0.2,0,0.4,0,0.7h9.3v4.5h-14.2v-3.8c0-3.5,1.2-6.1,4.9-9.9
					c3.7-4,4.8-6.4,4.8-9.7C126.1,324.6,125.1,323.9,123.6,323.9z"/>
			</g>
		</g>
		<g>
			<g>
				<path fill="#FFFFFF" d="M435.1,248c-9.2,0-17.7,5-22.1,12.9c-0.9-0.2-1.8-0.3-2.8-0.3c-7.6,0-13.8,6.2-13.8,13.8
					c0,1,0.1,2,0.3,3c-5,3.5-8.1,9.4-8.1,15.6c0,10.4,8.3,19.7,18.2,20.2h49.5c11.4-0.8,20.4-10.6,20.4-22.3
					c0-10.2-7-19.2-16.5-21.7C458.3,257.1,447.7,248,435.1,248L435.1,248z M472.2,291.1c0,9.2-7.2,17.1-16.1,17.8H407
					c-7.5-0.4-13.9-7.6-13.9-15.7c0-5.2,2.8-10.1,7.3-12.7c0.9-0.5,1.4-1.7,1-2.7c-0.4-1-0.5-2.1-0.5-3.2c0-5.2,4.2-9.3,9.3-9.3
					c1.1,0,2.2,0.2,3.2,0.5c1.1,0.4,2.3-0.1,2.8-1.1c3.4-7.3,10.9-12,19-12c10.9,0,19.8,8.1,20.8,18.9c0.1,1,0.9,1.8,1.9,2
					C466,274.8,472.2,282.4,472.2,291.1L472.2,291.1z M472.2,291.1"/>
			</g>
			<g>
				<path fill="#FFFFFF" d="M420.6,289.3v4.1c0,5-2.5,7.8-7.3,7.8c-4.8,0-7.3-2.8-7.3-7.8v-16.2c0-5,2.5-7.8,7.3-7.8
					c4.8,0,7.3,2.8,7.3,7.8v3H416v-3.3c0-2.2-1-3.1-2.5-3.1c-1.6,0-2.5,0.8-2.5,3.1v16.8c0,2.2,1,3,2.5,3c1.6,0,2.5-0.8,2.5-3v-4.5
					H420.6z"/>
				<path fill="#FFFFFF" d="M423.2,277.2c0-5,2.6-7.8,7.4-7.8c4.8,0,7.4,2.8,7.4,7.8v16.2c0,5-2.6,7.8-7.4,7.8
					c-4.8,0-7.4-2.8-7.4-7.8V277.2z M428.1,293.7c0,2.2,1,3.1,2.5,3.1s2.5-0.8,2.5-3.1v-16.8c0-2.2-1-3.1-2.5-3.1s-2.5,0.8-2.5,3.1
					V293.7z"/>
				<path fill="#FFFFFF" d="M448.4,273.8c-1.6,0-2.5,0.8-2.5,3.1v3.3h-4.6v-3c0-5,2.5-7.8,7.3-7.8c4.8,0,7.3,2.8,7.3,7.8
					c0,4.1-1.5,7.5-6.1,12.3c-2.9,3.1-3.7,4.6-3.7,6.2c0,0.2,0,0.4,0,0.7h9.3v4.5h-14.2v-3.8c0-3.5,1.2-6.1,4.9-9.9
					c3.7-4,4.8-6.4,4.8-9.7C450.9,274.6,450,273.8,448.4,273.8z"/>
			</g>
		</g>
		<path fill="#FFFFFF" stroke="#FFFFFF" stroke-width="6" stroke-miterlimit="10" d="M271.8,43.7c-26.4,0-47.8,21.5-47.8,47.9
			c0,26.4,21.4,47.8,47.8,47.8c26.4,0,47.9-21.4,47.9-47.8C319.7,65.2,298.1,43.7,271.8,43.7L271.8,43.7z"/>
	</g>
</g>
<g id="_x33_f">
</g>
</svg>
