<?xml version="1.0" encoding="utf-8"?>
<!-- Generator: Adobe Illustrator 18.0.0, SVG Export Plug-In . SVG Version: 6.00 Build 0)  -->
<!DOCTYPE svg PUBLIC "-//W3C//DTD SVG 1.1//EN" "http://www.w3.org/Graphics/SVG/1.1/DTD/svg11.dtd" [
	<!ENTITY ns_flows "http://ns.adobe.com/Flows/1.0/">
	<!ENTITY ns_extend "http://ns.adobe.com/Extensibility/1.0/">
	<!ENTITY ns_ai "http://ns.adobe.com/AdobeIllustrator/10.0/">
	<!ENTITY ns_graphs "http://ns.adobe.com/Graphs/1.0/">
]>
<svg version="1.1" xmlns:x="&ns_extend;" xmlns:i="&ns_ai;" xmlns:graph="&ns_graphs;"
	 xmlns="http://www.w3.org/2000/svg" xmlns:xlink="http://www.w3.org/1999/xlink" xmlns:a="http://ns.adobe.com/AdobeSVGViewerExtensions/3.0/"
	 x="0px" y="0px" viewBox="0 0 374.3 300" enable-background="new 0 0 374.3 300" xml:space="preserve">
<g id="_x30_">
</g>
<g id="_x31_">
</g>
<g id="_x31_F">
</g>
<g id="_x32_">
</g>
<g id="_x32_F">
</g>
<g id="_x33_">
</g>
<g id="_x33_f">
</g>
<g id="_x34_">
</g>
<g id="_x34_F">
</g>
<g id="_x35_">
</g>
<g id="_x35_F">
</g>
<g id="_x36_">
	<g>
		<g>
			<g>
				<path fill="#51A332" d="M74.6,263.1l-8.4-3.3c0.4-1.1,10.8-26.7,33.2-52.8c29.9-34.7,67-53,107.2-53c40.2,0,78,17.5,109.4,50.6
					c23.6,24.8,35.1,49.3,35.6,50.4l-8.2,3.8c-0.1-0.2-11.5-24.4-34.1-48.2c-30-31.6-64.6-47.6-102.7-47.6
					c-38.1,0-71.9,16.8-100.4,49.9C84.9,237.7,74.7,262.8,74.6,263.1z"/>
			</g>
			<g>
				<circle fill="#FFFFFF" cx="71.2" cy="271.5" r="15.5"/>
				<path fill="#51A332" d="M71.2,291.5c-11,0-20-9-20-20c0-11,9-20,20-20c11,0,20,9,20,20C91.2,282.5,82.3,291.5,71.2,291.5z
					 M71.2,260.5c-6.1,0-11,4.9-11,11c0,6.1,4.9,11,11,11s11-4.9,11-11C82.2,265.4,77.3,260.5,71.2,260.5z"/>
			</g>
			<g>
				<circle fill="#FFFFFF" cx="346.9" cy="271.5" r="15.5"/>
				<path fill="#51A332" d="M346.9,291.5c-11,0-20-9-20-20c0-11,9-20,20-20c11,0,20,9,20,20C366.8,282.5,357.9,291.5,346.9,291.5z
					 M346.9,260.5c-6.1,0-11,4.9-11,11c0,6.1,4.9,11,11,11s11-4.9,11-11C357.8,265.4,352.9,260.5,346.9,260.5z"/>
			</g>
		</g>
		<g>
			<g>
				<g>
					<path fill="#51A332" d="M159.4,37.7c2.3-4.8,2.5-10.2,0.8-15.1l-0.8-2.3c-1.8-5-5.4-9-10.2-11.2C144.4,6.7,139,6.5,134,8.2
						l-21.3,7.6L92.7,8.7c-5.3-1.9-11-1.6-16.1,0.8c-5.1,2.4-8.9,6.6-10.8,11.9c-0.8,2.3-1.2,4.7-1.2,7.1c0,3.2,0.7,6.3,2.1,9.2
						c-0.2,0.3-0.4,0.7-0.5,1c-2.3,4.8-2.5,10.2-0.8,15.1l0.8,2.3c1.6,4.6,4.8,8.3,9,10.6c-4,2-7.1,5.2-9.1,9.2
						c-2.3,4.8-2.5,10.2-0.8,15.1l0.8,2.3c1.6,4.4,4.5,7.9,8.4,10.3c-3.7,2-6.6,5.1-8.5,8.9c-2.3,4.8-2.5,10.2-0.8,15.1l0.8,2.3
						c1.8,5,5.4,9,10.2,11.2c0.4,0.2,0.7,0.3,1.1,0.5v12.7c-4.3,2.1-7.2,6.5-7.2,11.5v1.4c0,4.4,2.3,8.4,5.7,10.7
						c-1.4,2.1-2.2,4.5-2.2,7.2v1.4c0,4.4,2.2,8.2,5.5,10.5c-1.5,2.1-2.3,4.6-2.3,7.3v1.4c0,7.1,5.8,12.8,12.8,12.8h3.4
						c1.8,9.2,9.9,16.1,19.6,16.1c9.7,0,17.8-6.9,19.6-16.1h3.4c7.1,0,12.8-5.8,12.8-12.8v-1.4c0-2.7-0.9-5.3-2.3-7.3
						c3.3-2.3,5.5-6.2,5.5-10.5v-1.4c0-2.7-0.8-5.1-2.2-7.2c3.5-2.3,5.7-6.2,5.7-10.7v-1.4c0-4.4-2.3-8.4-5.7-10.7v-34.1
						c4.3-1.9,7.8-5.3,9.8-9.6c2.3-4.8,2.5-10.2,0.8-15.1l-0.8-2.3c-1.6-4.4-4.5-7.9-8.4-10.3c3.7-2,6.6-5.1,8.5-8.9
						c2.3-4.8,2.5-10.2,0.8-15.1l-0.8-2.3c-1.6-4.6-4.8-8.3-9-10.6C154.3,45,157.5,41.7,159.4,37.7z M73.1,24c1.2-3.3,3.6-6,6.8-7.5
						C83.1,15,86.7,14.8,90,16l11.2,4l-23.8,8.5c-1.7,0.6-3.3,1.5-4.8,2.5c-0.2-0.8-0.2-1.7-0.2-2.5C72.3,27,72.6,25.5,73.1,24z
						 M130.1,153.2v-24.9l11.7-4.2v29.1L130.1,153.2z M122.3,153.2h-17.6v-15.9l17.6-6.3V153.2z M96.9,153.2H85.2v-10
						c2.1,0,4.2-0.4,6.3-1.2l5.4-1.9L96.9,153.2L96.9,153.2z M152.8,99.1c1.1,3,0.9,6.3-0.5,9.2c-1.4,2.9-3.8,5.1-6.8,6.2
						l-56.6,20.2c-3,1.1-6.3,0.9-9.2-0.5c-2.9-1.4-5.1-3.8-6.2-6.8l-0.8-2.3c-1.1-3-0.9-6.3,0.5-9.2c1.4-2.9,3.8-5.1,6.8-6.2
						l56.6-20.2c1.3-0.5,2.7-0.7,4.1-0.7c1.8,0,3.5,0.4,5.1,1.2c2.9,1.4,5.1,3.8,6.2,6.8L152.8,99.1z M152.8,62.5
						c2.2,6.3-1,13.2-7.3,15.4L88.9,98.1c-3,1.1-6.3,0.9-9.2-0.5c-2.9-1.4-5.1-3.8-6.2-6.8l-0.8-2.3c-1.1-3-0.9-6.3,0.5-9.2
						c1.4-2.9,3.8-5.1,6.8-6.2l56.6-20.2c1.3-0.5,2.7-0.7,4.1-0.7c1.8,0,3.5,0.4,5.1,1.2c2.9,1.4,5.1,3.8,6.2,6.8L152.8,62.5z
						 M145.5,40.5L88.9,60.8c-3,1.1-6.3,0.9-9.2-0.5c-2.9-1.4-5.1-3.8-6.2-6.8l-0.8-2.3c-1.1-3-0.9-6.3,0.5-9.2
						c1.4-2.9,3.8-5.1,6.8-6.2l56.6-20.2c1.3-0.5,2.7-0.7,4.1-0.7c1.8,0,3.5,0.4,5.1,1.2c2.9,1.4,5.1,3.8,6.2,6.8l0.8,2.3
						C155.1,31.4,151.8,38.3,145.5,40.5z"/>
				</g>
				<g>
					<path fill="#51A332" d="M174.6,39.1c1,0,2-0.4,2.7-1.1l15.1-15.1c1.5-1.5,1.5-4,0-5.5c-1.5-1.5-4-1.5-5.5,0l-15.1,15.1
						c-1.5,1.5-1.5,4,0,5.5C172.7,38.7,173.7,39.1,174.6,39.1z"/>
				</g>
				<g>
					<path fill="#51A332" d="M48.1,100.4L33,115.5c-1.5,1.5-1.5,4,0,5.5c0.8,0.8,1.8,1.1,2.7,1.1c1,0,2-0.4,2.7-1.1l15.1-15.1
						c1.5-1.5,1.5-4,0-5.5C52.1,98.8,49.6,98.8,48.1,100.4z"/>
				</g>
				<g>
					<path fill="#51A332" d="M210.1,65.3h-21.4c-2.1,0-3.9,1.7-3.9,3.9c0,2.1,1.7,3.9,3.9,3.9l21.4,0c2.1,0,3.9-1.7,3.9-3.9
						S212.3,65.3,210.1,65.3z"/>
				</g>
				<g>
					<path fill="#51A332" d="M40.7,69.2c0-2.1-1.7-3.9-3.9-3.9l-21.4,0c-2.1,0-3.9,1.7-3.9,3.9c0,2.1,1.7,3.9,3.9,3.9h21.4
						C38.9,73,40.7,71.3,40.7,69.2z"/>
				</g>
				<g>
					<path fill="#51A332" d="M38.5,17.3c-1.5-1.5-4-1.5-5.5,0c-1.5,1.5-1.5,4,0,5.5L48.1,38c0.8,0.8,1.8,1.1,2.7,1.1s2-0.4,2.7-1.1
						c1.5-1.5,1.5-4,0-5.5L38.5,17.3z"/>
				</g>
				<g>
					<path fill="#51A332" d="M177.4,100.4c-1.5-1.5-4-1.5-5.5,0c-1.5,1.5-1.5,4,0,5.5L187,121c0.8,0.8,1.8,1.1,2.7,1.1
						c1,0,2-0.4,2.7-1.1c1.5-1.5,1.5-4,0-5.5L177.4,100.4z"/>
				</g>
			</g>
			<g>
				<path fill="#FFFFFF" d="M147.5,167.4c0,2.8-2.3,5.1-5.1,5.1l-59.4,0c-2.8,0-5.1-2.3-5.1-5.1v-1.4c0-2.8,2.3-5.1,5.1-5.1l59.4,0
					c2.8,0,5.1,2.3,5.1,5.1V167.4z"/>
			</g>
			<g>
				<path fill="#FFFFFF" d="M144,186.7c0,2.8-2.3,5.1-5.1,5.1l-52.4,0c-2.8,0-5.1-2.3-5.1-5.1v-1.4c0-2.8,2.3-5.1,5.1-5.1l52.4,0
					c2.8,0,5.1,2.3,5.1,5.1V186.7z"/>
			</g>
			<g>
				<path fill="#FFFFFF" d="M112.8,227.1c-5.4,0-10-3.5-11.6-8.3l23.2,0C122.7,223.6,118.1,227.1,112.8,227.1z"/>
			</g>
			<g>
				<path fill="#FFFFFF" d="M140.8,205.9c0,2.8-2.3,5.1-5.1,5.1h-46c-2.8,0-5.1-2.3-5.1-5.1v-1.4c0-2.8,2.3-5.1,5.1-5.1l46,0
					c2.8,0,5.1,2.3,5.1,5.1V205.9z"/>
			</g>
		</g>
		<g>
			<path fill="#FFFFFF" d="M273.3,129.8L206,246.7c0,0-9.3,18.6,15.5,30.2s34.1-17.8,34.1-17.8L273.3,129.8z"/>
			<path fill="#51A332" d="M232.5,284.1C232.5,284.1,232.5,284.1,232.5,284.1c-4.1,0-8.5-1.1-12.9-3.1c-9.6-4.5-15.8-10.6-18.5-18.1
				c-3.3-9.6,0.7-17.8,0.9-18.2l0.1-0.2l78.9-136.9l-21,152.5l-0.1,0.4C259.5,261.4,252.1,284.1,232.5,284.1z M209.9,248.8
				c-0.3,0.6-2.3,5.6-0.3,11.2c1.8,5.1,6.4,9.4,13.7,12.8c3.2,1.5,6.3,2.3,9.1,2.3c12.1,0,17.8-14.7,18.6-17.1l14.6-106L209.9,248.8
				z"/>
		</g>
	</g>
</g>
<g id="_x36_F">
</g>
</svg>
