<?xml version="1.0" encoding="utf-8"?>
<!-- Generator: Adobe Illustrator 18.0.0, SVG Export Plug-In . SVG Version: 6.00 Build 0)  -->
<!DOCTYPE svg PUBLIC "-//W3C//DTD SVG 1.1//EN" "http://www.w3.org/Graphics/SVG/1.1/DTD/svg11.dtd" [
	<!ENTITY ns_flows "http://ns.adobe.com/Flows/1.0/">
	<!ENTITY ns_extend "http://ns.adobe.com/Extensibility/1.0/">
	<!ENTITY ns_ai "http://ns.adobe.com/AdobeIllustrator/10.0/">
	<!ENTITY ns_graphs "http://ns.adobe.com/Graphs/1.0/">
]>
<svg version="1.1" xmlns:x="&ns_extend;" xmlns:i="&ns_ai;" xmlns:graph="&ns_graphs;"
	 xmlns="http://www.w3.org/2000/svg" xmlns:xlink="http://www.w3.org/1999/xlink" xmlns:a="http://ns.adobe.com/AdobeSVGViewerExtensions/3.0/"
	 x="0px" y="0px" viewBox="0 0 300 300" enable-background="new 0 0 300 300" xml:space="preserve">
<g id="_x30_">
</g>
<g id="_x31_">
</g>
<g id="_x31_F">
</g>
<g id="_x32_">
</g>
<g id="_x32_F">
</g>
<g id="_x33_">
</g>
<g id="_x33_f">
</g>
<g id="_x34_">
</g>
<g id="_x34_F">
</g>
<g id="_x35_">
</g>
<g id="_x35_F">
</g>
<g id="_x36_">
	<g>
		<g>
			<path fill="#51A332" d="M274.3,176.9h-23.1v-72.1c8.2-7.5,12.8-18,12.8-29.2c0-21.9-17.8-39.7-39.7-39.7
				c-12.3,0-23.9,5.7-31.4,15.4h-72.5V33.3H35.9v28.2h35.9v28.2H35.9V118h84.6V100H193c1.4,1.8,2.8,3.4,4.5,4.9v72H25.7v30.8h12.8
				v59h223.1v-59h12.8V176.9z M224.4,115.4c6.9,0,13.4-1.7,19.2-5v43.4h-38.5v-43.4C211,113.7,217.5,115.4,224.4,115.4z
				 M205.1,161.5h38.5v15.4h-38.5V161.5z M198.1,57.3c6-8.6,15.8-13.7,26.3-13.7c17.7,0,32,14.4,32,32c0,9.6-4.3,18.6-11.7,24.7
				c-5.8,4.8-12.8,7.3-20.4,7.3c-7.5,0-14.6-2.5-20.4-7.3l0,0c-2.2-1.8-4.2-3.9-5.8-6.3l0-0.1c-3.8-5.3-5.8-11.6-5.8-18.3
				C192.3,69,194.3,62.7,198.1,57.3z M188.3,92.3H141V59h47.2c-2.4,5.2-3.7,10.8-3.7,16.7C184.6,81.5,185.9,87.2,188.3,92.3z
				 M112.8,110.3H43.6V97.4h35.9V53.9H43.6V41h69.2V110.3z M120.5,59h12.8v33.3h-12.8V59z M215.4,259H84.6v-33.3h130.8V259z
				 M253.8,259h-30.8v-41H76.9v41H46.2v-51.3h207.7V259z M266.7,200H33.3v-15.4h233.3V200z"/>
		</g>
		<g>
			<rect x="92.3" y="68" fill="#51A332" width="7.7" height="30.8"/>
		</g>
		<g>
			<rect x="92.3" y="52.6" fill="#51A332" width="7.7" height="10.3"/>
		</g>
		<g>
			<path fill="#51A332" d="M224.4,61.5c7.8,0,14.1,6.3,14.1,14.1c0,7.8-6.3,14.1-14.1,14.1v7.7c12,0,21.8-9.8,21.8-21.8
				c0-12-9.8-21.8-21.8-21.8c-12,0-21.8,9.8-21.8,21.8h7.7C210.3,67.9,216.6,61.5,224.4,61.5z"/>
		</g>
		<g>
			<rect x="165.4" y="71.8" fill="#51A332" width="10.3" height="7.7"/>
		</g>
		<g>
			<rect x="150" y="71.8" fill="#51A332" width="10.3" height="7.7"/>
		</g>
		<g>
			<rect x="98.7" y="238.5" fill="#51A332" width="79.5" height="7.7"/>
		</g>
		<g>
			<rect x="188.5" y="238.5" fill="#51A332" width="12.8" height="7.7"/>
		</g>
	</g>
</g>
<g id="_x36_F">
</g>
</svg>
