<?xml version="1.0" encoding="utf-8"?>
<!-- Generator: Adobe Illustrator 18.0.0, SVG Export Plug-In . SVG Version: 6.00 Build 0)  -->
<!DOCTYPE svg PUBLIC "-//W3C//DTD SVG 1.1//EN" "http://www.w3.org/Graphics/SVG/1.1/DTD/svg11.dtd" [
	<!ENTITY ns_flows "http://ns.adobe.com/Flows/1.0/">
	<!ENTITY ns_extend "http://ns.adobe.com/Extensibility/1.0/">
	<!ENTITY ns_ai "http://ns.adobe.com/AdobeIllustrator/10.0/">
	<!ENTITY ns_graphs "http://ns.adobe.com/Graphs/1.0/">
]>
<svg version="1.1" xmlns:x="&ns_extend;" xmlns:i="&ns_ai;" xmlns:graph="&ns_graphs;"
	 xmlns="http://www.w3.org/2000/svg" xmlns:xlink="http://www.w3.org/1999/xlink" xmlns:a="http://ns.adobe.com/AdobeSVGViewerExtensions/3.0/"
	 x="0px" y="0px" viewBox="0 0 300 300" enable-background="new 0 0 300 300" xml:space="preserve">
<g id="_x30_">
</g>
<g id="_x31_">
</g>
<g id="_x31_F">
</g>
<g id="_x32_">
</g>
<g id="_x32_F">
</g>
<g id="_x33_">
</g>
<g id="_x33_f">
</g>
<g id="_x34_">
</g>
<g id="_x34_F">
</g>
<g id="_x35_">
</g>
<g id="_x35_F">
</g>
<g id="_x36_">
	<g>
		<g>
			<g>
				<path fill="#51A332" d="M154.4,13.5c-1.1-1.3-2.7-2-4.4-2c-1.7,0-3.3,0.7-4.4,2c-4.1,4.7-99.5,115.4-99.5,171.1
					c0,57.3,46.6,103.9,103.9,103.9c57.3,0,103.9-46.6,103.9-103.9C253.9,128.9,158.4,18.2,154.4,13.5z M150,277
					c-50.9,0-92.3-41.4-92.3-92.3c0-45,73.5-135.9,92.3-158.4c8.1,9.7,26.3,32,44.3,57.7c31.4,44.9,48,79.7,48,100.7
					C242.3,235.5,200.9,277,150,277z"/>
			</g>
		</g>
		<g>
			<g>
				<path fill="#51A332" d="M201.1,219.4c-2.2,0-4.2,0.7-5.9,1.8l-35.3-35.3c3-3.7,4.9-8.4,4.9-13.5c0-5.1-1.8-9.8-4.9-13.5
					l24.3-24.3c2.9,2.3,6.5,3.6,10.4,3.6c9.3,0,16.9-7.6,16.9-16.9s-7.6-16.9-16.9-16.9c-9.3,0-16.9,7.6-16.9,16.9
					c0,3.9,1.4,7.6,3.6,10.4l-24.3,24.3c-3.7-3-8.4-4.9-13.5-4.9c-5.1,0-9.8,1.8-13.5,4.9L114.1,140c1.1-1.7,1.8-3.7,1.8-5.9
					c0-5.8-4.7-10.5-10.5-10.5c-5.8,0-10.5,4.7-10.5,10.5c0,5.8,4.7,10.5,10.5,10.5c2.2,0,4.2-0.7,5.9-1.8l16.1,16.1
					c-3,3.7-4.9,8.4-4.9,13.5c0,2.5,0.4,4.8,1.2,7l-24.9,11.5c-2.3-3.4-6.1-5.6-10.5-5.6c-7,0-12.6,5.7-12.6,12.6
					c0,7,5.7,12.6,12.6,12.6c7,0,12.6-5.7,12.6-12.6c0-1.2-0.2-2.3-0.5-3.4l24.9-11.5c3.7,6.3,10.4,10.5,18.2,10.5l1.4,15.6
					c-4.4,1.3-7.6,5.3-7.6,10.1c0,5.8,4.7,10.5,10.5,10.5c5.8,0,10.5-4.7,10.5-10.5c0-5.4-4.2-9.9-9.5-10.5l-1.4-15.6
					c3.6-0.7,6.9-2.2,9.6-4.5l35.3,35.3c-1.1,1.7-1.8,3.7-1.8,5.9c0,5.8,4.7,10.5,10.5,10.5c5.8,0,10.5-4.7,10.5-10.5
					C211.6,224.1,206.9,219.4,201.1,219.4L201.1,219.4z M88.3,206.6c-4.8,0-8.6-3.9-8.6-8.6s3.9-8.6,8.6-8.6c3.4,0,6.4,2,7.8,4.9
					c0,0,0,0.1,0.1,0.1c0,0,0,0,0,0.1c0.5,1.1,0.8,2.3,0.8,3.6C97,202.7,93.1,206.6,88.3,206.6L88.3,206.6z M194.7,108.5
					c7.1,0,12.9,5.8,12.9,12.9c0,7.1-5.8,12.9-12.9,12.9c-7.1,0-12.9-5.8-12.9-12.9C181.8,114.3,187.6,108.5,194.7,108.5
					L194.7,108.5z M98.9,134.1c0-3.6,2.9-6.5,6.5-6.5c3.6,0,6.5,2.9,6.5,6.5c0,3.6-2.9,6.5-6.5,6.5
					C101.8,140.6,98.9,137.7,98.9,134.1L98.9,134.1z M126.5,172.4c0-9.5,7.7-17.1,17.1-17.1c9.5,0,17.2,7.7,17.2,17.1
					c0,9.5-7.7,17.2-17.2,17.2C134.2,189.6,126.5,181.9,126.5,172.4L126.5,172.4z M154.4,219.2c0,3.6-2.9,6.5-6.5,6.5
					c-3.6,0-6.5-2.9-6.5-6.5c0-3.6,2.9-6.5,6.5-6.5C151.5,212.7,154.4,215.6,154.4,219.2L154.4,219.2z M201.1,236.4
					c-3.6,0-6.5-2.9-6.5-6.5c0-3.6,2.9-6.5,6.5-6.5c3.6,0,6.5,2.9,6.5,6.5C207.6,233.4,204.7,236.4,201.1,236.4L201.1,236.4z
					 M201.1,236.4"/>
			</g>
			<g>
				<path fill="#51A332" d="M152.3,172.4c0,1.1,0.9,2,2,2c1.1,0,2-0.9,2-2c0-7-5.7-12.6-12.6-12.6c-1.1,0-2,0.9-2,2c0,1.1,0.9,2,2,2
					C148.4,163.8,152.3,167.7,152.3,172.4L152.3,172.4z M152.3,172.4"/>
			</g>
			<g>
				<path fill="#51A332" d="M194.7,117c2.4,0,4.4,2,4.4,4.4c0,1.1,0.9,2,2,2c1.1,0,2-0.9,2-2c0-4.6-3.8-8.4-8.4-8.4
					c-1.1,0-2,0.9-2,2C192.7,116.1,193.6,117,194.7,117L194.7,117z M194.7,117"/>
			</g>
			<g>
				<path fill="#51A332" d="M88.3,193.8c-1.1,0-2,0.9-2,2c0,1.1,0.9,2,2,2c0.1,0,0.1,0.1,0.1,0.1c0,1.1,0.9,2,2,2c1.1,0,2-0.9,2-2
					C92.5,195.7,90.6,193.8,88.3,193.8L88.3,193.8z M88.3,193.8"/>
			</g>
		</g>
	</g>
</g>
<g id="_x36_F">
</g>
</svg>
