<?xml version="1.0" encoding="utf-8"?>
<!-- Generator: Adobe Illustrator 18.0.0, SVG Export Plug-In . SVG Version: 6.00 Build 0)  -->
<!DOCTYPE svg PUBLIC "-//W3C//DTD SVG 1.1//EN" "http://www.w3.org/Graphics/SVG/1.1/DTD/svg11.dtd" [
	<!ENTITY ns_flows "http://ns.adobe.com/Flows/1.0/">
	<!ENTITY ns_extend "http://ns.adobe.com/Extensibility/1.0/">
	<!ENTITY ns_ai "http://ns.adobe.com/AdobeIllustrator/10.0/">
	<!ENTITY ns_graphs "http://ns.adobe.com/Graphs/1.0/">
]>
<svg version="1.1" xmlns:x="&ns_extend;" xmlns:i="&ns_ai;" xmlns:graph="&ns_graphs;"
	 xmlns="http://www.w3.org/2000/svg" xmlns:xlink="http://www.w3.org/1999/xlink" xmlns:a="http://ns.adobe.com/AdobeSVGViewerExtensions/3.0/"
	 x="0px" y="0px" viewBox="0 0 315.7 315.7" enable-background="new 0 0 315.7 315.7" xml:space="preserve">
<g id="_x30_">
</g>
<g id="_x31_">
</g>
<g id="_x31_F">
</g>
<g id="_x32_">
</g>
<g id="_x32_F">
</g>
<g id="_x33_">
</g>
<g id="_x33_f">
</g>
<g id="_x34_">
</g>
<g id="_x34_F">
</g>
<g id="_x35_">
</g>
<g id="_x35_F">
</g>
<g id="_x36_">
	<g>
		<g>
			<g>
				<g>
					<g>
						<path fill="#51A332" d="M189.2,153.6c-2.7,0-5.2,0.8-7.3,2.2l-43.8-43.8c3.8-4.5,6-10.4,6-16.7c0-6.3-2.3-12.2-6-16.7
							l30.2-30.2c3.6,2.8,8.1,4.5,13,4.5c11.6,0,21-9.4,21-21c0-11.6-9.4-21-21-21c-11.6,0-21,9.4-21,21c0,4.9,1.7,9.4,4.5,13
							l-30.2,30.2c-4.5-3.8-10.4-6-16.7-6c-6.3,0-12.2,2.3-16.7,6l-20-20c1.4-2.1,2.2-4.6,2.2-7.3c0-7.2-5.9-13-13-13
							c-7.2,0-13,5.9-13,13c0,7.2,5.9,13,13,13c2.7,0,5.2-0.8,7.3-2.2l20,20c-3.8,4.5-6,10.4-6,16.7c0,3.1,0.5,6,1.5,8.7l-30.9,14.3
							c-2.8-4.2-7.6-6.9-13-6.9c-8.6,0-15.7,7-15.7,15.7c0,8.6,7,15.7,15.7,15.7s15.7-7,15.7-15.7c0-1.5-0.2-2.9-0.6-4.2l30.9-14.3
							c4.5,7.8,13,13,22.6,13.1l1.8,19.3c-5.4,1.6-9.4,6.6-9.4,12.5c0,7.2,5.9,13,13,13c7.2,0,13-5.9,13-13c0-6.8-5.2-12.3-11.7-13
							l-1.8-19.3c4.5-0.8,8.5-2.8,11.9-5.6l43.8,43.8c-1.4,2.1-2.2,4.6-2.2,7.3c0,7.2,5.9,13,13,13c7.2,0,13-5.9,13-13
							C202.2,159.5,196.4,153.6,189.2,153.6L189.2,153.6z M49.2,137.8c-5.9,0-10.7-4.8-10.7-10.7c0-5.9,4.8-10.7,10.7-10.7
							c4.3,0,7.9,2.5,9.7,6.1c0,0.1,0,0.1,0.1,0.2c0,0,0,0.1,0,0.1c0.6,1.3,1,2.8,1,4.4C59.9,133,55.1,137.8,49.2,137.8L49.2,137.8z
							 M181.3,16c8.8,0,16,7.2,16,16c0,8.8-7.2,16-16,16c-8.8,0-16-7.2-16-16C165.2,23.1,172.4,16,181.3,16L181.3,16z M62.2,47.8
							c0-4.5,3.6-8.1,8.1-8.1c4.5,0,8.1,3.6,8.1,8.1c0,4.5-3.6,8.1-8.1,8.1C65.9,55.9,62.2,52.3,62.2,47.8L62.2,47.8z M96.6,95.4
							c0-11.7,9.6-21.3,21.3-21.3c11.7,0,21.3,9.6,21.3,21.3c0,11.7-9.6,21.3-21.3,21.3C106.1,116.7,96.6,107.1,96.6,95.4L96.6,95.4
							z M131.2,153.5c0,4.5-3.6,8.1-8.1,8.1c-4.5,0-8.1-3.6-8.1-8.1c0-4.5,3.6-8.1,8.1-8.1C127.6,145.4,131.2,149,131.2,153.5
							L131.2,153.5z M189.2,174.8c-4.5,0-8.1-3.6-8.1-8.1c0-4.5,3.6-8.1,8.1-8.1c4.5,0,8.1,3.6,8.1,8.1
							C197.3,171.1,193.6,174.8,189.2,174.8L189.2,174.8z M189.2,174.8"/>
					</g>
					<g>
						<path fill="#51A332" d="M128.6,95.4c0,1.4,1.1,2.5,2.5,2.5c1.4,0,2.5-1.1,2.5-2.5c0-8.6-7-15.7-15.7-15.7
							c-1.4,0-2.5,1.1-2.5,2.5c0,1.4,1.1,2.5,2.5,2.5C123.8,84.6,128.6,89.4,128.6,95.4L128.6,95.4z M128.6,95.4"/>
					</g>
					<g>
						<path fill="#51A332" d="M181.3,26.5c3,0,5.4,2.4,5.4,5.4c0,1.4,1.1,2.5,2.5,2.5c1.4,0,2.5-1.1,2.5-2.5
							c0-5.7-4.7-10.4-10.4-10.4c-1.4,0-2.5,1.1-2.5,2.5C178.8,25.4,179.9,26.5,181.3,26.5L181.3,26.5z M181.3,26.5"/>
					</g>
					<g>
						<path fill="#51A332" d="M49.2,121.9c-1.4,0-2.5,1.1-2.5,2.5c0,1.4,1.1,2.5,2.5,2.5c0.1,0,0.2,0.1,0.2,0.2
							c0,1.4,1.1,2.5,2.5,2.5c1.4,0,2.5-1.1,2.5-2.5C54.3,124.2,52,121.9,49.2,121.9L49.2,121.9z M49.2,121.9"/>
					</g>
				</g>
				<g>
					<g>
						<g>
							<path fill="#51A332" d="M228.8,111.6c0.9,4.6,2.9,8.7,5.7,12.2l3.6,3.6c4.7,3.9,10.6,6.2,17.2,6.2c6.5,0,12.5-2.3,17.2-6.2
								l3.6-3.6c3.9-4.7,6.2-10.6,6.2-17.2c0-6.5-2.3-12.5-6.2-17.2l-3.6-3.6c-4.7-3.9-10.6-6.2-17.2-6.2c-3.1,0-6.1,0.5-8.9,1.5
								l-4.6,2.1c-8,4.7-13.4,13.3-13.4,23.2 M255.3,84.8c12,0,21.8,9.8,21.8,21.8c0,12-9.8,21.9-21.8,21.9
								c-12,0-21.9-9.8-21.9-21.9C233.5,94.6,243.3,84.8,255.3,84.8L255.3,84.8z"/>
						</g>
						<g>
							<path fill="#51A332" d="M255.3,117.7c-1.4,0-2.5,1.1-2.5,2.5c0,1.4,1.1,2.5,2.5,2.5c8.9,0,16.1-7.2,16.1-16.1
								c0-1.4-1.1-2.5-2.5-2.5c-1.4,0-2.5,1.1-2.5,2.5C266.3,112.8,261.4,117.7,255.3,117.7L255.3,117.7z M255.3,117.7"/>
						</g>
					</g>
					<g>
						<g>
							<path fill="#51A332" d="M228.8,171.1c0.9,4.6,2.9,8.7,5.7,12.2l3.6,3.6c4.7,3.9,10.6,6.2,17.2,6.2c6.5,0,12.5-2.3,17.2-6.2
								l3.6-3.6c3.9-4.7,6.2-10.6,6.2-17.2c0-6.5-2.3-12.5-6.2-17.2l-3.6-3.6c-4.7-3.9-10.6-6.2-17.2-6.2c-3.1,0-6.1,0.5-8.9,1.5
								l-4.6,2.1c-8,4.7-13.4,13.3-13.4,23.2 M255.3,144.3c12,0,21.8,9.8,21.8,21.8c0,12-9.8,21.9-21.8,21.9
								c-12,0-21.9-9.8-21.9-21.9C233.5,154.1,243.3,144.3,255.3,144.3L255.3,144.3z"/>
						</g>
						<g>
							<path fill="#51A332" d="M255.3,177.1c-1.4,0-2.5,1.1-2.5,2.5c0,1.4,1.1,2.5,2.5,2.5c8.9,0,16.1-7.2,16.1-16.1
								c0-1.4-1.1-2.5-2.5-2.5c-1.4,0-2.5,1.1-2.5,2.5C266.3,172.2,261.4,177.1,255.3,177.1L255.3,177.1z M255.3,177.1"/>
						</g>
					</g>
					<g>
						<g>
							<path fill="#51A332" d="M228.8,230.1c0.9,4.6,2.9,8.7,5.7,12.2l3.6,3.6c4.7,3.9,10.6,6.2,17.2,6.2c6.5,0,12.5-2.3,17.2-6.2
								l3.6-3.6c3.9-4.7,6.2-10.6,6.2-17.2c0-6.5-2.3-12.5-6.2-17.2l-3.6-3.6c-4.7-3.9-10.6-6.2-17.2-6.2c-3.1,0-6.1,0.5-8.9,1.5
								l-4.6,2.1c-8,4.7-13.4,13.3-13.4,23.2 M255.3,203.3c12,0,21.8,9.8,21.8,21.8c0,12-9.8,21.9-21.8,21.9
								c-12,0-21.9-9.8-21.9-21.9C233.5,213.1,243.3,203.3,255.3,203.3L255.3,203.3z"/>
						</g>
						<g>
							<path fill="#51A332" d="M255.3,236.2c-1.4,0-2.5,1.1-2.5,2.5c0,1.4,1.1,2.5,2.5,2.5c8.9,0,16.1-7.2,16.1-16.1
								c0-1.4-1.1-2.5-2.5-2.5c-1.4,0-2.5,1.1-2.5,2.5C266.3,231.2,261.4,236.2,255.3,236.2L255.3,236.2z M255.3,236.2"/>
						</g>
					</g>
					<g>
						<rect x="253.9" y="130.3" fill="#51A332" width="4.5" height="10.4"/>
					</g>
					<g>
						<rect x="253.9" y="190.5" fill="#51A332" width="4.5" height="10.4"/>
					</g>
				</g>
				<g>
					<g>
						<g>
							<path fill="#51A332" d="M126.1,178.9c-17.6,0-33.9,9.6-42.5,24.7c-1.8-0.4-3.5-0.5-5.4-0.5c-14.6,0-26.6,11.9-26.6,26.6
								c0,2,0.2,3.9,0.6,5.8c-9.6,6.8-15.5,18-15.5,29.9c0,20,16,37.7,35,38.8h95c21.9-1.5,39.1-20.3,39.1-42.7
								c0-19.6-13.4-36.9-31.6-41.6C170.5,196.2,150.3,178.9,126.1,178.9L126.1,178.9z M197.3,261.4c0,17.6-13.8,32.9-30.9,34.1
								H72.2c-14.5-0.9-26.7-14.7-26.7-30.1c0-10,5.4-19.4,14-24.4c1.8-1.1,2.6-3.3,1.9-5.3c-0.7-1.9-1.1-4-1.1-6.1
								c0-9.9,8-17.9,17.9-17.9c2.1,0,4.2,0.4,6.1,1c2.1,0.8,4.4-0.2,5.4-2.2c6.6-14,20.9-23,36.3-23c20.8,0,38,15.6,40,36.2
								c0.2,2,1.7,3.5,3.6,3.9C185.4,230.3,197.3,244.8,197.3,261.4L197.3,261.4z M197.3,261.4"/>
						</g>
						<g>
							<path fill="#FFFFFF" d="M197.3,261.4c0,17.6-13.8,32.9-30.9,34.1H72.2c-14.5-0.9-26.7-14.7-26.7-30.1c0-10,5.4-19.4,14-24.4
								c1.8-1.1,2.6-3.3,1.9-5.3c-0.7-1.9-1.1-4-1.1-6.1c0-9.9,8-17.9,17.9-17.9c2.1,0,4.2,0.4,6.1,1c2.1,0.8,4.4-0.2,5.4-2.2
								c6.6-14,20.9-23,36.3-23c20.8,0,38,15.6,40,36.2c0.2,2,1.7,3.5,3.6,3.9C185.4,230.3,197.3,244.8,197.3,261.4L197.3,261.4z"/>
						</g>
					</g>
				</g>
			</g>
			<g>
				<g>
					<path fill="#51A332" d="M256.5,291.2c-0.8,0-1.3,0.4-1.3,1.5v1.7h-2.3v-1.5c0-2.5,1.2-3.9,3.7-3.9c2.4,0,3.7,1.4,3.7,3.9
						c0,2.1-0.8,3.7-3,6.2c-1.4,1.6-1.8,2.3-1.8,3.1c0,0.1,0,0.2,0,0.3h4.6v2.2h-7.1v-1.9c0-1.7,0.6-3.1,2.5-5
						c1.9-2,2.4-3.2,2.4-4.9C257.8,291.6,257.3,291.2,256.5,291.2z"/>
				</g>
				<g>
					<path fill="#51A332" d="M237.8,277.4L237.8,277.4l-0.1,23.8h-4.7v-32.9h6.5l5.2,19.7h0.1v-19.7h4.6v32.9h-5.3L237.8,277.4z"/>
				</g>
				<g>
					<path fill="#51A332" d="M264,276.2c0-5.3,2.8-8.3,7.8-8.3c5.1,0,7.8,3,7.8,8.3v17.1c0,5.3-2.8,8.3-7.8,8.3
						c-5.1,0-7.8-3-7.8-8.3V276.2z M269.2,293.6c0,2.3,1,3.2,2.7,3.2c1.6,0,2.7-0.9,2.7-3.2v-17.8c0-2.4-1-3.2-2.7-3.2
						c-1.6,0-2.7,0.9-2.7,3.2V293.6z"/>
				</g>
			</g>
			<g>
				<g>
					<path fill="#51A332" d="M182.2,119.1v4.4c0,5.3-2.6,8.3-7.7,8.3s-7.7-3-7.7-8.3v-17.1c0-5.3,2.6-8.3,7.7-8.3s7.7,3,7.7,8.3v3.2
						h-4.9V106c0-2.4-1-3.2-2.7-3.2s-2.7,0.9-2.7,3.2v17.8c0,2.3,1,3.2,2.7,3.2s2.7-0.8,2.7-3.2v-4.7H182.2z"/>
				</g>
				<g>
					<path fill="#51A332" d="M190.6,131.3h-5.2V98.4h5.2v14.1h5.9V98.4h5.3v32.9h-5.3v-14.1h-5.9V131.3z"/>
				</g>
				<g>
					<path fill="#51A332" d="M204.2,131.5l5.1-12.1h3.1v12.1h1.3v2.6h-1.3v3.2h-2.8v-3.2h-5.4V131.5z M209.6,131.5v-6.6h-0.1
						l-2.7,6.6H209.6z"/>
				</g>
			</g>
		</g>
		<g>
			<g>
				<path fill="#51A332" d="M117.6,250.8v4.4c0,5.3-2.6,8.3-7.7,8.3c-5.1,0-7.7-3-7.7-8.3v-17.1c0-5.3,2.6-8.3,7.7-8.3
					c5.1,0,7.7,3,7.7,8.3v3.2h-4.9v-3.5c0-2.4-1-3.2-2.7-3.2c-1.6,0-2.7,0.9-2.7,3.2v17.8c0,2.3,1,3.2,2.7,3.2
					c1.6,0,2.7-0.8,2.7-3.2v-4.7H117.6z"/>
			</g>
			<g>
				<path fill="#51A332" d="M120.3,238.1c0-5.3,2.8-8.3,7.8-8.3s7.8,3,7.8,8.3v17.1c0,5.3-2.8,8.3-7.8,8.3s-7.8-3-7.8-8.3V238.1z
					 M125.4,255.5c0,2.3,1,3.2,2.7,3.2s2.7-0.9,2.7-3.2v-17.8c0-2.4-1-3.2-2.7-3.2s-2.7,0.9-2.7,3.2V255.5z"/>
			</g>
			<g>
				<path fill="#51A332" d="M142.9,252.6c-0.8,0-1.3,0.4-1.3,1.5v1.7h-2.3v-1.5c0-2.5,1.2-3.9,3.7-3.9c2.4,0,3.7,1.4,3.7,3.9
					c0,2.1-0.8,3.7-3,6.2c-1.4,1.6-1.8,2.3-1.8,3.1c0,0.1,0,0.2,0,0.3h4.6v2.2h-7.1v-1.9c0-1.7,0.6-3.1,2.5-5c1.9-2,2.4-3.2,2.4-4.9
					C144.2,252.9,143.7,252.6,142.9,252.6z"/>
			</g>
		</g>
	</g>
</g>
<g id="_x36_F">
</g>
</svg>
