<?xml version="1.0" encoding="utf-8"?>
<!-- Generator: Adobe Illustrator 18.0.0, SVG Export Plug-In . SVG Version: 6.00 Build 0)  -->
<!DOCTYPE svg PUBLIC "-//W3C//DTD SVG 1.1//EN" "http://www.w3.org/Graphics/SVG/1.1/DTD/svg11.dtd" [
	<!ENTITY ns_flows "http://ns.adobe.com/Flows/1.0/">
	<!ENTITY ns_extend "http://ns.adobe.com/Extensibility/1.0/">
	<!ENTITY ns_ai "http://ns.adobe.com/AdobeIllustrator/10.0/">
	<!ENTITY ns_graphs "http://ns.adobe.com/Graphs/1.0/">
]>
<svg version="1.1" xmlns:x="&ns_extend;" xmlns:i="&ns_ai;" xmlns:graph="&ns_graphs;"
	 xmlns="http://www.w3.org/2000/svg" xmlns:xlink="http://www.w3.org/1999/xlink" xmlns:a="http://ns.adobe.com/AdobeSVGViewerExtensions/3.0/"
	 x="0px" y="0px" viewBox="0 0 750 528" enable-background="new 0 0 750 528" xml:space="preserve">
<g id="B1">
</g>
<g id="_x31_">
</g>
<g id="_x31_F">
</g>
<g id="_x32_">
</g>
<g id="_x32_F">
</g>
<g id="_x33_">
</g>
<g id="_x33_F">
</g>
<g id="_x34_">
</g>
<g id="_x34_F">
</g>
<g id="_x35_">
</g>
<g id="_x35_F">
</g>
<g id="_x36_">
	<g>
		
			<circle fill="none" stroke="#51A332" stroke-width="6.0512" stroke-linecap="round" stroke-linejoin="round" stroke-miterlimit="10" cx="574.6" cy="172" r="152.1"/>
		
			<circle fill="none" stroke="#26B6CC" stroke-width="5.2948" stroke-linecap="round" stroke-linejoin="round" stroke-miterlimit="10" cx="574.6" cy="416.3" r="88.5"/>
		<g>
			<path fill="#26B6CC" d="M596.7,398.9c-7.1-8.9-14.6-18.2-14.4-35.2c0-0.9-0.4-1.5-1.2-2c-0.8-0.3-1.6-0.3-2.3,0.1
				c-11.9,8.5-22.6,27.3-19.5,50.1c-4.2-2.4-6.7-6.5-9.5-10.7c-0.9-1.4-1.8-2.8-2.7-4.2c-0.4-0.5-1.1-1-1.9-0.9
				c-0.8,0-1.4,0.4-1.8,1c-5.7,8.9-11.5,19.6-11.5,31.2c0,22.9,16.1,39.4,38.3,39.4c22.5,0,39.4-17,39.4-39.4
				C609.7,415.1,603.1,406.9,596.7,398.9L596.7,398.9z M570.3,463.4c-19.7,0-34-14.8-34-35.1c0-9.3,4.3-18.3,9.1-26.1
				c0.2,0.4,0.5,0.8,0.8,1.2c3,4.6,5.9,9.2,11,12.2c1.4,0.9,3.2,0.9,4.6,0c1.4-0.9,2.2-2.5,2-4.3c-2.6-18.7,4.9-34.5,14.3-43.1
				c1.1,15.8,8.5,25.1,15.2,33.4c6.5,8,12,14.9,12,26.6C605.3,448.3,590.2,463.4,570.3,463.4L570.3,463.4z M570.3,463.4"/>
			<path fill="#26B6CC" d="M599.9,421.8c-1.2,0-2.2,1-2.2,2.2c0,7.2-1.9,13.8-5.7,19.6c-0.7,1-0.3,2.4,0.7,3.1
				c0.3,0.2,0.8,0.3,1.2,0.3c0.8,0,1.4-0.3,1.9-1c4.2-6.6,6.4-13.9,6.4-22C602.1,422.8,601.1,421.8,599.9,421.8L599.9,421.8z
				 M599.9,421.8"/>
			<path fill="#26B6CC" d="M590.9,448.6c-0.9-0.8-2.3-0.7-3.1,0.2c-0.5,0.7-1.3,1.3-2.1,2c-0.9,0.8-1,2.2-0.2,3.1
				c0.4,0.5,1.1,0.8,1.6,0.8c0.5,0,1-0.2,1.4-0.5c0.9-0.8,1.8-1.5,2.5-2.4C591.9,450.8,591.8,449.4,590.9,448.6L590.9,448.6z
				 M590.9,448.6"/>
		</g>
		<g>
			<g>
				<path fill="#51A332" d="M661.6,123c-9-11.2-18.5-23-18.2-44.5c0-1.1-0.6-1.9-1.5-2.5c-1-0.4-2.1-0.4-2.9,0.1
					c-15.1,10.8-28.6,34.6-24.7,63.4c-5.3-3.1-8.5-8.2-12.1-13.6c-1.1-1.8-2.2-3.6-3.5-5.3c-0.6-0.7-1.4-1.2-2.4-1.1
					c-1,0-1.8,0.6-2.2,1.2c-7.2,11.2-14.6,24.8-14.6,39.6c0,9.4,2.2,18,6,25.2c1-0.4,2.2-0.6,3.5-0.4c1.1,0.2,2.2,0.4,3.3,0.8
					c-4.6-7.1-7.2-15.8-7.2-25.6c0-11.8,5.4-23.2,11.5-33c0.3,0.6,0.7,1,1,1.5c3.7,5.8,7.5,11.7,13.9,15.4c1.8,1.1,4,1.1,5.8,0
					c1.8-1.1,2.8-3.2,2.5-5.4c-3.3-23.7,6.2-43.7,18.2-54.5c1.4,20,10.8,31.8,19.3,42.3c8.2,10.1,15.3,18.9,15.3,33.7
					c0,25.3-19.2,44.4-44.4,44.4c-2.2,0-4.4-0.2-6.4-0.5c0.1,1.9,0.2,3.8,0.4,5.7c2,0.2,4,0.3,6.1,0.3c28.5,0,50-21.5,50-50
					C678.1,143.5,669.8,133.1,661.6,123z"/>
				<path fill="#51A332" d="M628.2,204.7"/>
				<path fill="#51A332" d="M665.6,152c-1.5,0-2.8,1.2-2.8,2.8c0,9.2-2.4,17.5-7.2,24.8c-0.8,1.3-0.4,3.1,0.8,3.9
					c0.4,0.3,1,0.4,1.5,0.4c1,0,1.8-0.4,2.4-1.2c5.3-8.3,8.1-17.6,8.1-27.9C668.4,153.2,667.2,152,665.6,152L665.6,152z M665.6,152"
					/>
				<path fill="#51A332" d="M654.3,186c-1.1-1-2.9-0.8-3.9,0.3c-0.7,0.8-1.7,1.7-2.6,2.5c-1.1,1-1.3,2.8-0.3,3.9
					c0.6,0.7,1.4,1,2.1,1c0.7,0,1.2-0.3,1.8-0.7c1.1-1,2.2-1.9,3.2-3.1C655.5,188.8,655.4,187,654.3,186L654.3,186z M654.3,186"/>
			</g>
			<g>
				<g>
					<g>
						<g>
							<path fill="#51A332" d="M572.7,130.9c0-0.4-0.2-0.7-0.5-1l-11-12.8h-83.9l-11,12.8c-0.3,0.3-0.4,0.7-0.5,1
								c-0.1,0.3-0.2,0.6-0.2,1V151h5.4v73.3h51c-0.3-1.2-0.2-2.5,0.3-3.6h-47.7V151H564v28.6c1.2-0.3,2.5-0.2,3.6,0.6V151h5.4
								v-19.1C572.9,131.5,572.8,131.2,572.7,130.9z M479,120.6h80.6l7.7,8.9h-95.9L479,120.6z M569.4,147.4H469.3v-14.3h100.1
								V147.4z"/>
							<path fill="#51A332" d="M569.4,147.4"/>
						</g>
					</g>
				</g>
			</g>
		</g>
		<path fill="#26B6CC" d="M151.3,350.8h-0.2c-1.6-8.4-18.4-16.6-45.9-16.6c-27.4,0-44.3,8.2-45.9,16.6h-0.2c0,0.2,0.1,0.5,0.1,0.7
			c0,0.2-0.1,0.4-0.1,0.6v21.6l-7-7c0,0-0.1-0.1-0.2-0.1c0,0-0.1-0.1-0.1-0.2l0,0c-3.2-2.6-13.1-2.6-20,4.4
			c-6.8,6.8-10.3,19.6-7.6,23.3l0,0c0,0.1,0.1,0.1,0.2,0.2c0,0.1,0.1,0.1,0.1,0.1l34.7,34.7V471c0,10.2,17.6,16.6,46,16.6
			c28.4,0,46-6.4,46-16.6V352.1c0-0.2,0-0.4-0.1-0.6C151.2,351.3,151.3,351.1,151.3,350.8L151.3,350.8z M105.3,339.3
			c27.6,0,39.9,8.4,40.8,12.3c-1,6.5-13.8,13.3-40.8,13.3c-27,0-39.8-6.7-40.8-13.3C65.4,347.7,77.7,339.3,105.3,339.3L105.3,339.3z
			 M35.5,374.4c5.3-5.4,11.6-4.7,13-4.2c0.8,1,0.8,2.9,0,5.3c-1.1,3-3.4,6.5-6.4,9.5c-5.6,5.6-11.2,7.3-13.7,5.9
			C28.3,388.4,30.1,379.7,35.5,374.4L35.5,374.4z M133.4,479.6v-12.4c0-1.4-1.2-2.6-2.6-2.6c-1.4,0-2.6,1.1-2.6,2.6v12.8
			c0,0.3,0.1,0.5,0.2,0.7c-3,0.6-6.5,1-10.4,1.3v-22.5c0-1.4-1.1-2.6-2.6-2.6c-1.4,0-2.5,1.2-2.5,2.6v22.8c-1.6,0.1-3.3,0.1-5.1,0.2
			v-5.1c0-1.4-1.2-2.6-2.6-2.6c-1.4,0-2.6,1.1-2.6,2.6v5.1c-2.7-0.1-5.3-0.1-7.7-0.3v-17.6c0-1.4-1.2-2.6-2.6-2.6s-2.6,1.1-2.6,2.6
			v17.2c-5.1-0.5-9.3-1.3-12.8-2.2v-32.9c0-1.4-1.1-2.6-2.5-2.6c-1.4,0-2.6,1.2-2.6,2.6v31.2c-5.4-2.2-7.7-4.8-7.7-6.9v-42.9
			c0-0.7-0.3-1.3-0.7-1.8l-30.1-30.1c3.9-0.9,8.2-3.5,12.2-7.5c3.5-3.6,6.2-7.6,7.6-11.4c0.2-0.6,0.4-1.2,0.5-1.7l6.2,6.2
			c0.7,0.7,1.8,0.9,2.8,0.6c1-0.4,1.6-1.3,1.6-2.4v-19.2c2,1.7,4.6,3.1,7.7,4.4v20.3c0,1.4,1.1,2.6,2.6,2.6c1.4,0,2.5-1.2,2.5-2.6
			v-18.6c2.4,0.7,4.9,1.2,7.7,1.7v34.8c0,1.4,1.1,2.5,2.6,2.5c1.4,0,2.5-1.1,2.5-2.5v-34.1c4.7,0.5,9.8,0.8,15.3,0.8
			c0.9,0,1.7,0,2.6,0v7.7c0,1.4,1.1,2.5,2.6,2.5c1.4,0,2.6-1.1,2.6-2.5v-7.9c4.6-0.2,8.9-0.7,12.8-1.3v37.3c0,1.4,1.1,2.6,2.5,2.6
			c1.4,0,2.6-1.1,2.6-2.6v-38.3c0,0,0,0,0,0c1.8-0.4,3.5-0.9,5.1-1.4v19.4c0,1.4,1.1,2.6,2.6,2.6c1.4,0,2.5-1.2,2.5-2.6v-21.5
			c2-1,3.7-2,5.1-3.2V471C146.2,473.7,142.4,477.1,133.4,479.6L133.4,479.6z M133.4,479.6"/>
		<path fill="#51A332" d="M151.3,155.4h-0.2c-1.6-8.4-18.4-16.6-45.9-16.6c-27.4,0-44.3,8.2-45.9,16.6h-0.2c0,0.2,0.1,0.5,0.1,0.7
			c0,0.2-0.1,0.4-0.1,0.6v21.6l-7-7c0,0-0.1-0.1-0.2-0.1c0,0-0.1-0.1-0.1-0.2l0,0c-3.2-2.6-13.1-2.6-20,4.4
			c-6.8,6.8-10.3,19.6-7.6,23.3l0,0c0,0.1,0.1,0.1,0.2,0.2c0,0.1,0.1,0.1,0.1,0.1l34.7,34.7v41.9c0,10.2,17.6,16.6,46,16.6
			c28.4,0,46-6.4,46-16.6V156.7c0-0.2,0-0.4-0.1-0.6C151.2,155.9,151.3,155.7,151.3,155.4L151.3,155.4z M105.3,143.9
			c27.6,0,39.9,8.4,40.8,12.3c-1,6.5-13.8,13.3-40.8,13.3c-27,0-39.8-6.7-40.8-13.3C65.4,152.3,77.7,143.9,105.3,143.9L105.3,143.9z
			 M35.5,179c5.3-5.4,11.6-4.7,13-4.2c0.8,1,0.8,2.9,0,5.3c-1.1,3-3.4,6.5-6.4,9.5c-5.6,5.6-11.2,7.3-13.7,5.9
			C28.3,193,30.1,184.3,35.5,179L35.5,179z M133.4,284.2v-12.4c0-1.4-1.2-2.6-2.6-2.6c-1.4,0-2.6,1.1-2.6,2.6v12.8
			c0,0.3,0.1,0.5,0.2,0.7c-3,0.6-6.5,1-10.4,1.3v-22.5c0-1.4-1.1-2.6-2.6-2.6c-1.4,0-2.5,1.2-2.5,2.6v22.8c-1.6,0.1-3.3,0.1-5.1,0.2
			V282c0-1.4-1.2-2.6-2.6-2.6c-1.4,0-2.6,1.1-2.6,2.6v5.1c-2.7-0.1-5.3-0.1-7.7-0.3v-17.6c0-1.4-1.2-2.6-2.6-2.6s-2.6,1.1-2.6,2.6
			v17.2c-5.1-0.5-9.3-1.3-12.8-2.2v-32.9c0-1.4-1.1-2.6-2.5-2.6c-1.4,0-2.6,1.2-2.6,2.6v31.2c-5.4-2.2-7.7-4.8-7.7-6.9v-42.9
			c0-0.7-0.3-1.3-0.7-1.8l-30.1-30.1c3.9-0.9,8.2-3.5,12.2-7.5c3.5-3.6,6.2-7.6,7.6-11.4c0.2-0.6,0.4-1.2,0.5-1.7l6.2,6.2
			c0.7,0.7,1.8,0.9,2.8,0.6c1-0.4,1.6-1.3,1.6-2.4v-19.2c2,1.7,4.6,3.1,7.7,4.4V190c0,1.4,1.1,2.6,2.6,2.6c1.4,0,2.5-1.2,2.5-2.6
			v-18.6c2.4,0.7,4.9,1.2,7.7,1.7v34.8c0,1.4,1.1,2.5,2.6,2.5c1.4,0,2.5-1.1,2.5-2.5v-34.1c4.7,0.5,9.8,0.8,15.3,0.8
			c0.9,0,1.7,0,2.6,0v7.7c0,1.4,1.1,2.5,2.6,2.5c1.4,0,2.6-1.1,2.6-2.5v-7.9c4.6-0.2,8.9-0.7,12.8-1.3v37.3c0,1.4,1.1,2.6,2.5,2.6
			c1.4,0,2.6-1.1,2.6-2.6v-38.3c0,0,0,0,0,0c1.8-0.4,3.5-0.9,5.1-1.4V190c0,1.4,1.1,2.6,2.6,2.6c1.4,0,2.5-1.2,2.5-2.6v-21.5
			c2-1,3.7-2,5.1-3.2v110.3C146.2,278.3,142.4,281.8,133.4,284.2L133.4,284.2z M133.4,284.2"/>
		<g>
			<path fill="#51A332" d="M208.9,200l0,7h-29.4l0-7H208.9z M208.9,214.6v7h-29.4v-7H208.9z"/>
		</g>
		<g>
			<path fill="#26B6CC" d="M208.9,404.6l0,7h-29.4l0-7H208.9z M208.9,419.2v7h-29.4v-7H208.9z"/>
		</g>
		<circle fill="#51A332" cx="312" cy="207.3" r="91.2"/>
		<circle fill="#26B6CC" cx="312" cy="416.9" r="91.2"/>
		<g>
			<path fill="#FFFFFF" d="M379.8,185.9l-8.6,25.5l9.2,27h-8.7l-6.7-20.8h-0.1l-6.7,20.8h-7.7l9.2-27l-8.6-25.5h8.5l6.1,19.3h0.2
				l6.3-19.3H379.8z"/>
		</g>
		<g>
			<path fill="#FFFFFF" d="M336.9,393.9l-8.6,25.5l9.2,27h-8.7l-6.7-20.8h-0.1l-6.8,20.8h-7.7l9.2-27l-8.6-25.5h8.5l6.1,19.3h0.1
				l6.3-19.3H336.9z"/>
		</g>
		<g>
			<path fill="#51A332" d="M112.5,102.3h0.2l5.6-37.6h11.6v52.9H122v-38h-0.2l-5.6,38h-7.9l-6-37.4h-0.2v37.4h-7.3V64.8h11.6
				L112.5,102.3z"/>
			<path fill="#51A332" d="M141.5,71.8c0-2.7-0.9-3.4-2.4-3.4c-1.5,0-2.4,0.8-2.4,2.9v1.9h-4.4v-1.6c0-4.8,2.4-7.5,7-7.5
				c4.6,0,7,2.7,7,7.5v0.8c0,3.2-1,5.1-3.3,6.1v0.1c2.3,1,3.3,3.2,3.3,6.2v2.3c0,4.8-2.4,7.5-7,7.5c-4.6,0-7-2.7-7-7.5v-2.5h4.4v2.8
				c0,2.1,0.9,2.9,2.4,2.9c1.5,0,2.4-0.7,2.4-3.4v-2.3c0-2.8-0.9-3.8-3.1-3.8h-1.6v-4.3h1.8c1.7,0,2.8-0.8,2.8-3.1V71.8z"/>
		</g>
		<path fill="#51A332" d="M524.6,197.9l67.5,18c0.2,0,0.3,0.1,0.5,0.1c0.3,0,0.6-0.1,0.9-0.3l26.7-16.8c0.6-0.4,0.9-1,0.8-1.7
			c-0.1-0.7-0.6-1.2-1.3-1.4l-67.4-15.1c-0.4-0.1-0.8,0-1.2,0.2l-26.8,13.9c-0.6,0.3-1,1-0.9,1.7
			C523.4,197.2,523.9,197.7,524.6,197.9 M552,184.2l62.8,14.1l-22.6,14.2l-62.5-16.7L552,184.2z"/>
		<path fill="#51A332" d="M618.5,202.8l-26,16.4l-66.8-17.8c-0.9-0.2-1.8,0.3-2.1,1.2c-0.2,0.9,0.3,1.8,1.2,2.1l68.2,18.2l27.3-17.2
			c0.8-0.5,1-1.5,0.5-2.3C620.3,202.6,619.3,202.3,618.5,202.8"/>
		<path fill="#51A332" d="M618.7,209.6l-26,16.4l-66.8-17.8c-0.9-0.2-1.8,0.3-2.1,1.2c-0.2,0.9,0.3,1.8,1.2,2.1l68.2,18.2l27.3-17.1
			c0.8-0.5,1-1.5,0.5-2.3C620.5,209.3,619.5,209.1,618.7,209.6"/>
		<path fill="#51A332" d="M618.9,216.3l-26,16.4l-66.8-17.8c-0.9-0.2-1.8,0.3-2.1,1.2c-0.2,0.9,0.3,1.8,1.2,2.1l68.2,18.2l27.3-17.2
			c0.8-0.5,1-1.5,0.5-2.3C620.8,216,619.7,215.8,618.9,216.3"/>
		<path fill="#51A332" d="M619.1,223l-26,16.4l-66.8-17.8c-0.9-0.2-1.8,0.3-2.1,1.2c-0.2,0.9,0.3,1.8,1.2,2.1l68.2,18.2l27.3-17.2
			c0.8-0.5,1-1.5,0.5-2.3C621,222.8,619.9,222.5,619.1,223"/>
		<path fill="#51A332" d="M619.3,229.8l-26,16.4l-66.8-17.8c-0.9-0.2-1.8,0.3-2.1,1.2c-0.2,0.9,0.3,1.8,1.2,2.1l68.2,18.2l27.3-17.2
			c0.8-0.5,1-1.5,0.5-2.3C621.2,229.5,620.1,229.2,619.3,229.8"/>
		<path fill="#51A332" d="M619.5,236.5l-26,16.4L526.7,235c-0.9-0.2-1.8,0.3-2.1,1.2c-0.2,0.9,0.3,1.8,1.2,2.1l68.2,18.2l27.3-17.1
			c0.8-0.5,1-1.5,0.5-2.3C621.4,236.2,620.3,236,619.5,236.5"/>
		<path fill="#51A332" d="M619.7,243.2l-26,16.4l-66.8-17.8c-0.9-0.2-1.8,0.3-2.1,1.2c-0.2,0.9,0.3,1.8,1.2,2.1l68.2,18.2l27.3-17.1
			c0.8-0.5,1-1.5,0.5-2.3C621.6,243,620.5,242.7,619.7,243.2"/>
		<path fill="#51A332" d="M619.9,249.9l-26,16.4l-66.8-17.8c-0.9-0.2-1.8,0.3-2.1,1.2c-0.2,0.9,0.3,1.8,1.2,2.1l68.2,18.2l27.3-17.2
			c0.8-0.5,1-1.5,0.5-2.3C621.8,249.7,620.7,249.5,619.9,249.9"/>
		<path fill="#51A332" d="M620.1,256.7l-26,16.4l-66.8-17.8c-0.9-0.2-1.8,0.3-2.1,1.2c-0.2,0.9,0.3,1.8,1.2,2.1l68.2,18.2l27.3-17.1
			c0.8-0.5,1-1.5,0.5-2.3C622,256.4,620.9,256.2,620.1,256.7"/>
		<path fill="#51A332" d="M620.3,263.4l-26,16.4l-66.8-17.8c-0.9-0.2-1.8,0.3-2.1,1.2c-0.2,0.9,0.3,1.8,1.2,2.1l68.2,18.2l27.3-17.2
			c0.8-0.5,1-1.5,0.5-2.3C622.2,263.1,621.1,262.9,620.3,263.4"/>
	</g>
</g>
<g id="_x36_F">
</g>
</svg>
