<?xml version="1.0" encoding="utf-8"?>
<!-- Generator: Adobe Illustrator 18.0.0, SVG Export Plug-In . SVG Version: 6.00 Build 0)  -->
<!DOCTYPE svg PUBLIC "-//W3C//DTD SVG 1.1//EN" "http://www.w3.org/Graphics/SVG/1.1/DTD/svg11.dtd" [
	<!ENTITY ns_flows "http://ns.adobe.com/Flows/1.0/">
	<!ENTITY ns_extend "http://ns.adobe.com/Extensibility/1.0/">
	<!ENTITY ns_ai "http://ns.adobe.com/AdobeIllustrator/10.0/">
	<!ENTITY ns_graphs "http://ns.adobe.com/Graphs/1.0/">
]>
<svg version="1.1" xmlns:x="&ns_extend;" xmlns:i="&ns_ai;" xmlns:graph="&ns_graphs;"
	 xmlns="http://www.w3.org/2000/svg" xmlns:xlink="http://www.w3.org/1999/xlink" xmlns:a="http://ns.adobe.com/AdobeSVGViewerExtensions/3.0/"
	 x="0px" y="0px" viewBox="0 0 777.7 443.4" enable-background="new 0 0 777.7 443.4" xml:space="preserve">
<g id="Sin">
</g>
<g id="_x31_">
</g>
<g id="_x31__x5F_Font">
</g>
<g id="_x32_">
</g>
<g id="_x32__x5F_Font">
</g>
<g id="_x33_">
</g>
<g id="_x33__x5F_Font">
</g>
<g id="_x34_">
</g>
<g id="_x34__x5F_Font">
</g>
<g id="_x34_1">
</g>
<g id="_x34_1Font">
</g>
<g id="_x34_2">
</g>
<g id="_x34_2Font">
</g>
<g id="_x34_3">
</g>
<g id="_x34_3Font">
</g>
<g id="_x34_4">
</g>
<g id="_x34_4Font">
</g>
<g id="_x34_5">
	<g>
		<g>
			<g>
				<path fill="#51A332" d="M226.2,111.2h-11.5V96.8c0-11.8-9.6-21.4-21.4-21.4h-18.8c-11.8,0-21.4,9.6-21.4,21.4v14.4h-45.7v-10
					h26.7c4.9,0,8.9-4,8.9-8.9V35.7c0-4.9-4-8.9-8.9-8.9H51.5c-4.9,0-8.9,4-8.9,8.9v56.6c0,4.9,4,8.9,8.9,8.9h26.7v10H31.1
					c-1.9,0-3.5,1.6-3.5,3.5v97.5c0,1.9,1.6,3.5,3.5,3.5c1.9,0,3.5-1.6,3.5-3.5v-45.3h188.1v45.3c0,1.9,1.6,3.5,3.5,3.5
					c1.9,0,3.5-1.6,3.5-3.5v-97.5C229.6,112.7,228.1,111.2,226.2,111.2L226.2,111.2z M160,96.8c0-8,6.5-14.5,14.5-14.5h18.8
					c8,0,14.5,6.5,14.5,14.5v14.4H160V96.8z M51.5,94.2c-1.1,0-2-0.9-2-2V35.7c0-1.1,0.9-2,2-2h82.5c1.1,0,2,0.9,2,2v56.6
					c0,1.1-0.9,2-2,2H51.5z M85.2,101.2h15.2v10H85.2V101.2z M34.6,160v-41.8h188.1V160H34.6z M34.6,160"/>
				<path fill="#51A332" d="M161.8,48.8c0,12.1,9.9,22,22,22c12.1,0,22-9.9,22-22c0-12.1-9.9-22-22-22
					C171.6,26.8,161.8,36.6,161.8,48.8L161.8,48.8z M198.8,48.8c0,8.3-6.8,15.1-15.1,15.1c-8.3,0-15.1-6.8-15.1-15.1
					c0-8.3,6.8-15.1,15.1-15.1C192.1,33.7,198.8,40.5,198.8,48.8L198.8,48.8z M198.8,48.8"/>
			</g>
			<g>
				<path fill="#51A332" d="M421.7,111.2h-11.5V96.8c0-11.8-9.6-21.4-21.4-21.4H370c-11.8,0-21.4,9.6-21.4,21.4v14.4h-45.7v-10h26.7
					c4.9,0,8.9-4,8.9-8.9V35.7c0-4.9-4-8.9-8.9-8.9h-82.5c-4.9,0-8.9,4-8.9,8.9v56.6c0,4.9,4,8.9,8.9,8.9h26.7v10h-47.2
					c-1.9,0-3.5,1.6-3.5,3.5v97.5c0,1.9,1.6,3.5,3.5,3.5c1.9,0,3.5-1.6,3.5-3.5v-45.3h188.1v45.3c0,1.9,1.6,3.5,3.5,3.5
					c1.9,0,3.5-1.6,3.5-3.5v-97.5C425.2,112.7,423.7,111.2,421.7,111.2L421.7,111.2z M355.5,96.8c0-8,6.5-14.5,14.5-14.5h18.8
					c8,0,14.5,6.5,14.5,14.5v14.4h-47.7V96.8z M247.1,94.2c-1.1,0-2-0.9-2-2V35.7c0-1.1,0.9-2,2-2h82.5c1.1,0,2,0.9,2,2v56.6
					c0,1.1-0.9,2-2,2H247.1z M280.8,101.2H296v10h-15.2V101.2z M230.2,160v-41.8h188.1V160H230.2z M230.2,160"/>
				<path fill="#51A332" d="M357.3,48.8c0,12.1,9.9,22,22,22c12.1,0,22-9.9,22-22c0-12.1-9.9-22-22-22
					C367.2,26.8,357.3,36.6,357.3,48.8L357.3,48.8z M394.4,48.8c0,8.3-6.8,15.1-15.1,15.1c-8.3,0-15.1-6.8-15.1-15.1
					c0-8.3,6.8-15.1,15.1-15.1C387.6,33.7,394.4,40.5,394.4,48.8L394.4,48.8z M394.4,48.8"/>
			</g>
			<g>
				<path fill="#51A332" d="M617.3,111.2h-11.5V96.8c0-11.8-9.6-21.4-21.4-21.4h-18.8c-11.8,0-21.4,9.6-21.4,21.4v14.4h-45.7v-10
					h26.7c4.9,0,8.9-4,8.9-8.9V35.7c0-4.9-4-8.9-8.9-8.9h-82.5c-4.9,0-8.9,4-8.9,8.9v56.6c0,4.9,4,8.9,8.9,8.9h26.7v10h-47.2
					c-1.9,0-3.5,1.6-3.5,3.5v97.5c0,1.9,1.6,3.5,3.5,3.5c1.9,0,3.5-1.6,3.5-3.5v-45.3h188.1v45.3c0,1.9,1.6,3.5,3.5,3.5
					c1.9,0,3.5-1.6,3.5-3.5v-97.5C620.8,112.7,619.2,111.2,617.3,111.2L617.3,111.2z M551.1,96.8c0-8,6.5-14.5,14.5-14.5h18.8
					c8,0,14.5,6.5,14.5,14.5v14.4h-47.7V96.8z M442.7,94.2c-1.1,0-2-0.9-2-2V35.7c0-1.1,0.9-2,2-2h82.5c1.1,0,2,0.9,2,2v56.6
					c0,1.1-0.9,2-2,2H442.7z M476.4,101.2h15.2v10h-15.2V101.2z M425.8,160v-41.8h188.1V160H425.8z M425.8,160"/>
				<path fill="#51A332" d="M552.9,48.8c0,12.1,9.9,22,22,22c12.1,0,22-9.9,22-22c0-12.1-9.9-22-22-22
					C562.8,26.8,552.9,36.6,552.9,48.8L552.9,48.8z M590,48.8c0,8.3-6.8,15.1-15.1,15.1c-8.3,0-15.1-6.8-15.1-15.1
					c0-8.3,6.8-15.1,15.1-15.1C583.2,33.7,590,40.5,590,48.8L590,48.8z M590,48.8"/>
			</g>
		</g>
		<g>
			<g>
				<path fill="#51A332" d="M355.4,312.2h-11.5v-14.4c0-11.8-9.6-21.4-21.4-21.4h-18.8c-11.8,0-21.4,9.6-21.4,21.4v14.4h-45.7v-10
					h26.7c4.9,0,8.9-4,8.9-8.9v-56.6c0-4.9-4-8.9-8.9-8.9h-82.5c-4.9,0-8.9,4-8.9,8.9v56.6c0,4.9,4,8.9,8.9,8.9h26.7v10h-47.2
					c-1.9,0-3.5,1.6-3.5,3.5v97.5c0,1.9,1.6,3.5,3.5,3.5c1.9,0,3.5-1.6,3.5-3.5v-45.3h188.1v45.3c0,1.9,1.6,3.5,3.5,3.5
					c1.9,0,3.5-1.6,3.5-3.5v-97.5C358.8,313.7,357.3,312.2,355.4,312.2L355.4,312.2z M289.2,297.7c0-8,6.5-14.5,14.5-14.5h18.8
					c8,0,14.5,6.5,14.5,14.5v14.4h-47.7V297.7z M180.8,295.2c-1.1,0-2-0.9-2-2v-56.6c0-1.1,0.9-2,2-2h82.5c1.1,0,2,0.9,2,2v56.6
					c0,1.1-0.9,2-2,2H180.8z M214.4,302.2h15.2v10h-15.2V302.2z M163.8,360.9v-41.8h188.1v41.8H163.8z M163.8,360.9"/>
				<path fill="#51A332" d="M291,249.7c0,12.1,9.9,22,22,22c12.1,0,22-9.9,22-22c0-12.1-9.9-22-22-22
					C300.8,227.7,291,237.6,291,249.7L291,249.7z M328,249.7c0,8.3-6.8,15.1-15.1,15.1c-8.3,0-15.1-6.8-15.1-15.1
					c0-8.3,6.8-15.1,15.1-15.1C321.3,234.7,328,241.4,328,249.7L328,249.7z M328,249.7"/>
			</g>
			<g>
				<path fill="#51A332" d="M551,312.2h-11.5v-14.4c0-11.8-9.6-21.4-21.4-21.4h-18.8c-11.8,0-21.4,9.6-21.4,21.4v14.4h-45.7v-10
					h26.7c4.9,0,8.9-4,8.9-8.9v-56.6c0-4.9-4-8.9-8.9-8.9h-82.5c-4.9,0-8.9,4-8.9,8.9v56.6c0,4.9,4,8.9,8.9,8.9h26.7v10h-47.2
					c-1.9,0-3.5,1.6-3.5,3.5v97.5c0,1.9,1.6,3.5,3.5,3.5c1.9,0,3.5-1.6,3.5-3.5v-45.3h188.1v45.3c0,1.9,1.6,3.5,3.5,3.5
					c1.9,0,3.5-1.6,3.5-3.5v-97.5C554.4,313.7,552.9,312.2,551,312.2L551,312.2z M484.8,297.7c0-8,6.5-14.5,14.5-14.5H518
					c8,0,14.5,6.5,14.5,14.5v14.4h-47.7V297.7z M376.3,295.2c-1.1,0-2-0.9-2-2v-56.6c0-1.1,0.9-2,2-2h82.5c1.1,0,2,0.9,2,2v56.6
					c0,1.1-0.9,2-2,2H376.3z M410,302.2h15.2v10H410V302.2z M359.4,360.9v-41.8h188.1v41.8H359.4z M359.4,360.9"/>
				<path fill="#51A332" d="M486.6,249.7c0,12.1,9.9,22,22,22c12.1,0,22-9.9,22-22c0-12.1-9.9-22-22-22
					C496.4,227.7,486.6,237.6,486.6,249.7L486.6,249.7z M523.6,249.7c0,8.3-6.8,15.1-15.1,15.1c-8.3,0-15.1-6.8-15.1-15.1
					c0-8.3,6.8-15.1,15.1-15.1C516.8,234.7,523.6,241.4,523.6,249.7L523.6,249.7z M523.6,249.7"/>
			</g>
			<g>
				<path fill="#51A332" d="M746.5,312.2H735v-14.4c0-11.8-9.6-21.4-21.4-21.4h-18.8c-11.8,0-21.4,9.6-21.4,21.4v14.4h-45.7v-10
					h26.7c4.9,0,8.9-4,8.9-8.9v-56.6c0-4.9-4-8.9-8.9-8.9h-82.5c-4.9,0-8.9,4-8.9,8.9v56.6c0,4.9,4,8.9,8.9,8.9h26.7v10h-47.2
					c-1.9,0-3.5,1.6-3.5,3.5v97.5c0,1.9,1.6,3.5,3.5,3.5c1.9,0,3.5-1.6,3.5-3.5v-45.3h188.1v45.3c0,1.9,1.6,3.5,3.5,3.5
					c1.9,0,3.5-1.6,3.5-3.5v-97.5C750,313.7,748.5,312.2,746.5,312.2L746.5,312.2z M680.3,297.7c0-8,6.5-14.5,14.5-14.5h18.8
					c8,0,14.5,6.5,14.5,14.5v14.4h-47.7V297.7z M571.9,295.2c-1.1,0-2-0.9-2-2v-56.6c0-1.1,0.9-2,2-2h82.5c1.1,0,2,0.9,2,2v56.6
					c0,1.1-0.9,2-2,2H571.9z M605.6,302.2h15.2v10h-15.2V302.2z M555,360.9v-41.8h188.1v41.8H555z M555,360.9"/>
				<path fill="#51A332" d="M682.1,249.7c0,12.1,9.9,22,22,22c12.1,0,22-9.9,22-22c0-12.1-9.9-22-22-22
					C692,227.7,682.1,237.6,682.1,249.7L682.1,249.7z M719.2,249.7c0,8.3-6.8,15.1-15.1,15.1c-8.3,0-15.1-6.8-15.1-15.1
					c0-8.3,6.8-15.1,15.1-15.1C712.4,234.7,719.2,241.4,719.2,249.7L719.2,249.7z M719.2,249.7"/>
			</g>
		</g>
	</g>
</g>
<g id="_x34_5Font">
</g>
<g id="_x34_6">
</g>
<g id="_x34_6font">
</g>
<g id="_x34_7">
</g>
<g id="_x34_7_font">
</g>
</svg>
