<?xml version="1.0" encoding="UTF-8"?>
<!DOCTYPE svg PUBLIC "-//W3C//DTD SVG 1.1//EN" "http://www.w3.org/Graphics/SVG/1.1/DTD/svg11.dtd">
<!-- Creator: CorelDRAW X7 -->
<svg xmlns="http://www.w3.org/2000/svg" xml:space="preserve" width="56.6382mm" height="59.3931mm" version="1.1" style="shape-rendering:geometricPrecision; text-rendering:geometricPrecision; image-rendering:optimizeQuality; fill-rule:evenodd; clip-rule:evenodd"
viewBox="0 0 5840 6124"
 xmlns:xlink="http://www.w3.org/1999/xlink">
 <defs>
  <style type="text/css">
   <![CDATA[
    .str2 {stroke:#529E3C;stroke-width:61.1896}
    .str1 {stroke:#337CBB;stroke-width:10.0023}
    .str0 {stroke:#2F5AA5;stroke-width:12.24;stroke-linecap:round;stroke-linejoin:round}
    .fil2 {fill:none}
    .fil6 {fill:#FEFEFE}
    .fil0 {fill:#95C130}
    .fil4 {fill:#529E3C}
    .fil5 {fill:#337CBB}
    .fil3 {fill:#118E40}
    .fil1 {fill:#2F5AA5}
   ]]>
  </style>
 </defs>
 <g id="Capa_x0020_1">
  <metadata id="CorelCorpID_0Corel-Layer"/>
  <path class="fil0" d="M300 4236c45,74 141,99 216,55 36,-22 62,-57 72,-98l1 -2 0 -3c7,-29 21,-49 50,-70l12 -9 -36 -60 -36 -61 -14 7c-32,15 -56,18 -84,10l-4 -1 -1 0c-42,-11 -84,-5 -121,17 -74,44 -99,140 -55,215z"/>
  <path class="fil0" d="M605 3974c6,-4 15,-1 19,6l56 95c5,7 2,15 -4,19l-7 4c-6,4 -15,2 -19,-5l-56 -95c-4,-7 -2,-16 4,-20l7 -4z"/>
  <path class="fil0" d="M641 3953c6,-4 15,-2 19,5l57 95c4,7 2,16 -5,20l-7 4c-6,4 -15,1 -19,-6l-56 -95c-4,-7 -2,-15 4,-19l7 -4z"/>
  <path class="fil0" d="M264 4238c6,-4 15,-2 18,5 4,6 2,14 -4,18l-34 20c-6,4 -14,2 -18,-5l0 0c-4,-6 -2,-14 5,-18l33 -20z"/>
  <path class="fil0" d="M499 4338c-4,-7 -2,-15 5,-19l0 0c6,-3 14,-1 18,5l20 34c4,6 2,14 -5,18l0 0c-6,4 -14,2 -18,-5l-20 -33z"/>
  <path class="fil0" d="M284 3976c-4,-6 -1,-14 5,-18l0 0c6,-4 15,-2 18,5l20 33c4,7 2,15 -4,19l0 0c-7,3 -15,1 -19,-5l-20 -34z"/>
  <path class="fil0" d="M356 4340c2,-7 10,-11 17,-8l0 0c7,2 11,10 8,17l-12 36c-3,8 -10,11 -17,9l0 0c-7,-3 -11,-10 -9,-17l13 -37z"/>
  <path class="fil0" d="M237 4130c7,2 14,-3 16,-10l0 0c1,-8 -3,-15 -10,-16l-38 -8c-8,-2 -15,3 -16,10l0 0c-2,7 3,14 10,16l38 8z"/>
  <path class="fil0" d="M5047 1244c-54,55 -143,56 -198,2 -55,-55 -55,-143 -1,-198 54,-55 143,-56 197,-1 55,54 56,142 2,197z"/>
  <path class="fil0" d="M4722 1141c0,0 101,62 1,163 -99,101 -196,199 -196,199l72 71 196 -199c0,0 23,-25 71,-35 47,-11 99,19 99,19l52 -53 -33 -124 -158 -38 -104 -3z"/>
  <path class="fil0" d="M4888 1179c-56,57 -148,58 -206,1 -57,-56 -57,-148 -1,-205 56,-57 148,-58 205,-2 57,57 58,149 2,206z"/>
  <path class="fil0" d="M5084 1032c-57,57 -148,58 -206,1 -57,-56 -57,-148 -1,-205 56,-57 148,-58 205,-1 57,56 58,148 2,205z"/>
  <path class="fil0" d="M5258 1204c-56,57 -148,58 -205,2 -57,-57 -58,-149 -1,-206 56,-57 148,-58 205,-1 57,56 58,148 1,205z"/>
  <path class="fil0" d="M5097 1385c-56,57 -148,58 -205,2 -57,-57 -58,-149 -2,-206 56,-57 148,-58 206,-1 57,56 57,148 1,205z"/>
  <path class="fil0" d="M5212 991c-34,35 -89,35 -124,1 -34,-34 -34,-89 0,-123 33,-35 89,-35 123,-1 35,34 35,89 1,123z"/>
  <path class="fil1" d="M2448 774c-18,-2 -29,-21 -17,-32 19,-6 36,5 42,24 -7,6 -16,9 -25,8zm38 30c4,-11 5,-23 3,-34 11,-15 13,-34 5,-51 -10,-22 -35,-37 -59,-44 7,-13 10,-28 6,-42 -7,-24 -33,-42 -53,-54 -3,-1 -7,0 -8,3 0,0 -1,1 -1,1 -2,3 -4,5 -6,8 -8,-6 -16,-12 -24,-17 -2,-2 -18,-13 -19,-3 0,1 0,2 0,3 -1,2 0,5 2,6 9,7 17,13 25,19 2,1 4,3 7,5 -6,8 -12,16 -18,24 -2,2 -3,4 -5,6 -11,-8 -22,-16 -34,-24 -8,-5 -18,7 -10,12 9,5 17,11 25,17 2,1 6,4 10,6 -7,9 -14,17 -20,26 0,1 0,2 0,3 -1,2 -1,4 1,6 19,14 39,33 64,33 20,-1 38,-11 50,-26 0,0 1,0 1,-1 26,9 60,31 55,60 0,1 0,3 -1,4 -10,-16 -31,-31 -48,-24 -19,1 -29,25 -20,42 11,22 41,26 61,15 0,16 -8,32 -19,43 -4,4 -2,12 4,11 15,-2 22,-20 26,-33z"/>
  <path class="fil1" d="M5172 3377c19,2 33,16 32,36 -9,14 -30,7 -35,-10 -3,-9 -2,-19 3,-26zm-68 26c0,7 9,7 12,2 9,-13 23,-23 39,-27 -8,22 3,50 27,57 18,5 39,-9 36,-29 4,-17 -15,-35 -33,-41 1,-1 3,-2 4,-2 28,-11 55,18 70,42 -1,0 -1,0 -1,1 -12,15 -19,35 -15,54 4,24 27,41 45,56 2,2 4,1 5,0 1,0 3,0 3,-1 8,-8 15,-16 22,-24 3,3 6,6 8,8 8,7 15,14 21,21 7,7 17,-5 10,-12 -9,-10 -19,-19 -30,-29 2,-2 3,-4 5,-6 7,-7 14,-14 20,-22 2,2 4,4 6,6 8,7 16,13 23,20 2,2 5,2 8,2 0,-1 1,-1 2,-1 10,-3 -5,-17 -7,-19 -7,-6 -13,-13 -21,-20 2,-2 4,-4 6,-6 1,-1 1,-2 1,-3 3,-1 4,-5 1,-7 -16,-18 -38,-40 -63,-42 -14,-1 -29,5 -40,14 -11,-22 -31,-43 -55,-48 -17,-5 -37,1 -49,14 -11,1 -23,4 -33,10 -12,7 -27,17 -27,32l0 0z"/>
  <path class="fil1" d="M2171 5407c-23,-4 -42,-17 -54,-34 24,-17 51,-28 75,-47 3,-3 0,-7 -3,-7 -1,-2 -3,-4 -7,-5 -27,-4 -54,-4 -82,-3 0,-1 0,-2 0,-3 7,-45 49,-70 92,-68 3,0 5,-1 6,-3 43,11 74,38 70,87 -4,53 -42,92 -97,83zm-64 -49c-4,-10 -7,-20 -7,-31 21,-1 42,-1 64,1 -19,8 -40,18 -57,30zm-19 17c-2,2 -4,5 -6,8 0,0 -1,0 -1,0 -2,-2 -5,-4 -8,-6 0,-2 0,-4 -2,-6 -13,-15 -26,-30 -39,-45 17,3 34,2 51,1 1,15 4,29 11,42 -2,2 -4,4 -6,6zm-165 -66c0,0 0,0 0,0 20,-3 38,-12 53,-25 19,25 40,49 61,71 -36,-19 -77,-35 -114,-46zm10 -92c10,18 21,36 33,53 -11,9 -24,16 -39,20 5,-25 7,-49 6,-73zm-99 -11c7,-45 40,-80 84,-85 0,0 1,1 1,1 47,7 82,40 77,90 -2,17 -9,33 -20,46 -13,-17 -27,-34 -41,-51 -2,-2 -4,-1 -5,0 -2,0 -5,1 -5,3 -7,27 -11,54 -16,82 -45,0 -81,-40 -75,-86zm452 119c6,-59 -36,-99 -94,-101 0,0 0,0 -1,0 -51,-5 -100,32 -108,83 0,1 0,3 0,5 -17,0 -34,2 -51,2 1,-3 2,-7 3,-11 2,-4 4,-8 5,-12 2,1 4,1 6,2 9,3 14,-11 5,-14 -5,-2 -10,-2 -15,-4 -4,-1 -9,-3 -13,-5 -6,-2 -10,6 -5,9 3,2 7,4 10,6 -4,8 -6,19 -6,29 -11,-14 -23,-28 -34,-42 15,-17 24,-39 26,-63 2,-45 -29,-91 -74,-99 -1,-1 -2,-2 -3,-2 -56,-16 -105,37 -117,87 -14,57 27,113 86,115 -2,14 -5,28 -8,41 -4,-1 -7,-2 -11,-2 -7,-1 -8,9 -2,12 6,4 13,6 20,8 6,3 13,6 20,5 5,-2 9,-8 4,-12 -5,-5 -11,-6 -17,-7 3,-12 6,-24 9,-37 23,13 48,24 71,35 28,14 54,30 83,41 -11,18 -18,40 -25,59 -4,-2 -9,-5 -13,-7 -8,-5 -15,5 -8,11 7,6 14,11 21,17 7,6 12,12 20,13 6,2 9,-5 8,-10 -3,-6 -8,-11 -14,-14 10,-26 19,-59 39,-79 16,20 39,35 66,40 66,11 111,-36 117,-99z"/>
  <path class="fil2 str0" d="M2171 5407c-23,-4 -42,-17 -54,-34 24,-17 51,-28 75,-47 3,-3 0,-7 -3,-7 -1,-2 -3,-4 -7,-5 -27,-4 -54,-4 -82,-3 0,-1 0,-2 0,-3 7,-45 49,-70 92,-68 3,0 5,-1 6,-3 43,11 74,38 70,87 -4,53 -42,92 -97,83zm-64 -49c-4,-10 -7,-20 -7,-31 21,-1 42,-1 64,1 -19,8 -40,18 -57,30zm-19 17c-2,2 -4,5 -6,8 0,0 -1,0 -1,0 -2,-2 -5,-4 -8,-6 0,-2 0,-4 -2,-6 -13,-15 -26,-30 -39,-45 17,3 34,2 51,1 1,15 4,29 11,42 -2,2 -4,4 -6,6zm-165 -66c0,0 0,0 0,0 20,-3 38,-12 53,-25 19,25 40,49 61,71 -36,-19 -77,-35 -114,-46zm10 -92c10,18 21,36 33,53 -11,9 -24,16 -39,20 5,-25 7,-49 6,-73zm-99 -11c7,-45 40,-80 84,-85 0,0 1,1 1,1 47,7 82,40 77,90 -2,17 -9,33 -20,46 -13,-17 -27,-34 -41,-51 -2,-2 -4,-1 -5,0 -2,0 -5,1 -5,3 -7,27 -11,54 -16,82 -45,0 -81,-40 -75,-86zm452 119c6,-59 -36,-99 -94,-101 0,0 -1,0 -1,0 -51,-5 -100,32 -108,83 0,1 0,3 0,5 -17,0 -34,2 -51,2 1,-3 2,-7 3,-11 2,-4 4,-8 5,-12 2,1 4,1 6,2 9,3 14,-11 5,-14 -5,-2 -10,-2 -15,-4 -4,-1 -9,-3 -13,-5 -6,-2 -10,6 -5,9 3,2 7,4 10,6 -4,8 -6,19 -6,29 -11,-14 -23,-28 -34,-42 15,-17 24,-39 26,-63 2,-45 -29,-91 -74,-99 -1,-1 -2,-2 -3,-2 -56,-16 -105,37 -117,87 -14,57 27,113 86,115 -2,14 -5,28 -8,41 -4,-1 -7,-2 -11,-2 -7,-1 -8,9 -2,12 6,4 13,6 20,8 6,3 13,6 20,5 5,-2 9,-8 4,-12 -5,-5 -11,-6 -17,-7 3,-12 6,-24 9,-37 23,13 48,24 71,35 28,14 54,30 83,41 -11,18 -18,40 -25,59 -4,-2 -9,-5 -13,-7 -8,-5 -15,5 -8,11 7,6 14,11 21,17 7,6 12,12 20,13 6,2 9,-5 8,-10 -3,-6 -8,-11 -14,-14 10,-26 19,-59 39,-79 16,20 39,35 66,40 66,11 111,-36 117,-99z"/>
  <path class="fil3" d="M2524 5826c1,-4 2,-9 3,-13 6,-11 5,-25 -4,-36 -12,-16 -35,-22 -54,-15 -17,7 -30,25 -27,45 3,18 19,34 36,40 20,7 38,-2 46,-21z"/>
  <path class="fil3" d="M2462 5752c2,1 5,1 7,0 7,-2 13,-4 20,-4 2,0 3,-1 4,-2 2,0 3,-1 4,-3 14,-30 13,-69 18,-102 5,-40 11,-81 17,-121 10,-79 20,-158 27,-237 0,-3 -1,-5 -3,-6 -2,-7 -8,-13 -15,-17 -9,-8 -23,-11 -36,-5 -10,4 -18,12 -23,22 -2,6 -3,10 -3,15 -6,29 -3,61 -4,90 -2,41 -3,81 -5,122 -4,80 -11,159 -16,239 0,5 4,9 8,9z"/>
  <path class="fil3" d="M2420 5814c5,1 7,-4 6,-8 0,-1 1,-1 1,-2 5,-14 10,-27 15,-40 1,-4 -1,-8 -4,-10 -115,-65 -253,-137 -383,-68 -6,3 -6,13 1,15 119,43 239,91 364,113z"/>
  <path class="fil3" d="M2550 5822c12,-1 24,-3 35,-5 18,1 38,-3 57,-8 37,-6 73,-15 109,-34 54,-29 104,-75 111,-138 1,-6 -6,-9 -10,-7 -56,21 -111,44 -165,69 -48,22 -99,44 -143,75 -5,0 -9,4 -7,10 4,9 5,19 3,29 -1,6 5,10 10,9z"/>
  <path class="fil4" d="M1215 5231c44,-57 126,-67 182,-22 57,44 67,126 23,183 -45,56 -127,66 -183,22 -57,-44 -67,-126 -22,-183z"/>
  <path class="fil4" d="M1526 5292c0,0 -99,-47 -18,-151 82,-104 161,-205 161,-205l-74 -58 -161 205c0,0 -18,25 -62,40 -43,15 -94,-7 -94,-7l-42 54 43 112 151 18 96 -8z"/>
  <path class="fil4" d="M1369 5275c46,-59 131,-69 190,-23 59,46 70,131 23,190 -46,59 -131,69 -190,23 -59,-46 -69,-131 -23,-190z"/>
  <path class="fil4" d="M1203 5432c46,-59 131,-70 190,-23 59,46 69,131 23,190 -46,59 -131,69 -190,23 -59,-46 -69,-131 -23,-190z"/>
  <path class="fil4" d="M1023 5290c46,-58 131,-69 190,-23 59,47 69,132 23,191 -46,59 -131,69 -190,23 -59,-46 -70,-131 -23,-191z"/>
  <path class="fil4" d="M1153 5106c46,-59 131,-70 190,-23 59,46 70,131 24,190 -47,59 -132,69 -191,23 -59,-46 -69,-131 -23,-190z"/>
  <path class="fil4" d="M1088 5483c28,-36 79,-42 115,-14 35,28 41,79 14,115 -28,35 -79,41 -115,13 -36,-27 -42,-79 -14,-114z"/>
  <path class="fil5" d="M1041 4655l117 -85c4,-3 8,-3 11,0l7 7 -19 18c-2,0 -4,0 -6,2l-75 62c-3,3 -4,7 -1,10 1,2 3,2 4,3l-16 16 -22 -22c-3,-3 -3,-8 0,-11zm22 33l20 21 16 -15c-1,-1 -1,-1 -2,-2 -2,-2 -2,-7 1,-10l71 -66c3,-2 7,-2 9,0l18 -18 -20 -21 -19 18c2,1 3,1 4,3 3,3 2,7 -1,10l-75 62c-2,2 -4,2 -6,2l-16 16zm20 21l16 -15c2,1 6,1 8,-1l72 -66c3,-3 3,-7 1,-10 -1,-1 -1,-1 -2,-1l18 -18 22 21 -18 18c-1,0 -1,-1 -2,-1 -3,-3 -7,-3 -10,0l-67 71c-2,2 -3,6 -1,8l-16 16 -21 -22zm21 22l20 20 16 -16c0,-2 0,-5 2,-7l65 -72c3,-3 7,-4 10,-1 1,1 2,2 2,3l19 -18 -20 -21 -18 18c1,3 1,7 -1,9l-68 71c-2,3 -7,3 -10,0 0,-1 -1,-1 -1,-2l-16 16zm20 20l16 -16c1,1 2,2 2,3l0 0c3,3 8,3 11,0l65 -73c1,-2 2,-5 1,-7l19 -18 5 5c3,3 3,8 0,11l-89 113c-3,4 -9,3 -12,0l-18 -18z"/>
  <path class="fil5" d="M1007 4770l52 12c-2,11 4,21 15,24l4 1c10,2 21,-4 23,-15l52 12c6,2 11,-2 13,-7 1,-6 -3,-11 -8,-13l-147 -33c-5,-2 -11,2 -12,7 -1,6 2,11 8,12z"/>
  <path class="fil5" d="M792 4545c-4,8 -1,18 5,24 3,3 3,4 5,5l56 58c7,7 16,9 24,5l111 -54c10,-4 14,-15 10,-25 -4,-10 -15,-14 -25,-10l-27 12c0,0 -2,2 6,-7l117 -113c10,-10 11,-26 1,-37 -10,-10 -26,-10 -36,0l-77 74c0,0 0,1 -1,0l-7 -7c0,0 0,-1 0,-1l77 -74c10,-10 10,-26 0,-36 -10,-10 -26,-11 -36,-1l-117 114c-8,8 -6,5 -6,5l12 -26c4,-9 0,-21 -9,-25 -10,-5 -21,0 -26,9l-57 110z"/>
  <path class="fil5" d="M741 4608c21,-21 56,-21 77,1 21,22 21,56 -1,77 -21,21 -56,20 -77,-1 -21,-22 -21,-57 1,-77l0 0z"/>
  <path class="fil5" d="M4229 5261c-10,-21 -1,-45 20,-54 20,-10 44,-1 54,20 9,20 0,44 -20,54 -21,9 -45,0 -54,-20z"/>
  <path class="fil5" d="M4259 4996c0,0 66,173 4,196 -62,23 -120,-153 -120,-153l29 -13 -31 -78c0,0 -6,-21 7,-26 12,-6 20,11 32,41 13,30 24,50 24,50l55 -17z"/>
  <path class="fil5" d="M4256 5140c0,0 -49,-11 -69,-2 -19,9 -39,30 -46,38 -6,8 -6,42 28,10 34,-32 35,-24 35,-24 0,0 23,10 37,11 15,2 21,-2 25,-11 3,-9 -3,-20 -10,-22z"/>
  <path class="fil5" d="M3606 5549c-10,-20 -34,-29 -54,-20 -20,10 -29,34 -20,54 9,20 34,29 54,20 20,-10 29,-34 20,-54z"/>
  <path class="fil5" d="M3385 5401c0,0 88,162 146,129 58,-32 -38,-190 -38,-190l-30 14 -38 -75c0,0 -13,-17 -25,-11 -13,5 -5,22 10,51 15,29 23,50 23,50l-48 32z"/>
  <path class="fil5" d="M3496 5491c0,0 24,-44 43,-53 19,-9 49,-11 59,-10 10,0 36,22 -10,27 -47,5 -41,11 -41,11 0,0 -8,23 -16,36 -8,12 -16,14 -25,11 -9,-3 -13,-15 -10,-22z"/>
  <path class="fil2 str1" d="M4147 5185c0,0 -145,-112 -331,-26 -187,86 -212,282 -212,282"/>
  <path class="fil5" d="M3897 5434c-10,-21 -1,-46 20,-56 21,-10 46,0 56,21 10,21 0,46 -21,55 -21,10 -45,1 -55,-20z"/>
  <path class="fil5" d="M4030 5312c0,0 -34,-20 -52,-12 -17,8 -34,25 -34,25l-9 -135 -44 20c0,0 5,-11 0,-28 -6,-17 -38,-72 -48,-75 -10,-4 -29,3 -27,12 3,9 37,57 37,57 0,0 7,42 6,46 -1,4 -16,11 -16,11l-22 -47c0,0 -13,-6 -25,1 -12,7 -46,40 -46,40 0,0 -1,32 18,22 20,-11 34,-21 34,-21l10 20 -56 27 97 90c0,0 -17,2 -32,8 -15,6 -27,31 -30,46 -3,14 0,22 3,29 3,7 18,11 21,-3 3,-14 -3,-50 20,-52 24,-3 49,0 49,0l11 -4c0,0 0,-11 13,-17 13,-6 29,-3 29,-3l13 -6c0,0 4,-25 20,-32 16,-7 31,2 45,8 15,5 41,2 15,-27z"/>
  <path class="fil1" d="M5233 2189l75 -28 26 70 -49 98 -52 -140zm-155 169c-9,-24 3,-51 27,-60 23,-9 50,4 59,27 9,24 -3,51 -27,60 -24,9 -50,-3 -59,-27l0 0zm15 -463c-28,-74 -18,-146 22,-161 41,-15 96,32 123,106 28,73 18,145 -22,160 -40,16 -96,-32 -123,-105zm-154 96c-9,-24 3,-50 27,-59 24,-9 50,3 59,27 9,23 -3,50 -26,59 -24,9 -51,-3 -60,-27zm-66 -176c-9,-23 3,-50 27,-59 24,-9 50,3 59,27 9,24 -3,50 -27,59 -23,9 -50,-3 -59,-27zm518 429l-37 -97 41 -16 -19 -50 -225 85 -15 -37 276 -104 -146 -389 -155 -10 -11 -31 -243 12 40 105c0,0 -90,52 -63,124 28,72 122,44 122,44l6 9c0,0 -92,43 -63,118 28,75 123,36 123,36l79 212c0,0 -92,45 -64,117 27,73 125,44 125,44l13 35 129 -49 87 -158z"/>
  <path class="fil1" d="M5186 1808l-31 16 12 23 26 -14c2,-1 1,-2 1,-6 1,-5 1,-9 1,-13 1,-8 -3,-9 -9,-6z"/>
  <path class="fil1" d="M5109 1889l28 18 14 -21 -25 -16c-1,-1 -2,0 -6,2 -4,2 -8,4 -12,6 -7,3 -6,7 1,11l0 0z"/>
  <path class="fil1" d="M5144 1858c2,2 3,7 5,10 1,-2 11,-32 12,-34l-34 -11c1,3 5,9 5,11 0,1 -21,11 -23,12 -5,3 -5,8 -5,14 -1,6 -1,12 -1,18 1,-1 2,-1 4,-3l16 -7c4,-2 19,-10 21,-10z"/>
  <path class="fil1" d="M5151 1932l1 0c9,-11 1,-13 19,-2 2,2 9,7 13,7 3,1 5,0 7,-1 4,-2 17,-9 20,-10l-1 -1c-2,-1 -16,-10 -19,-12 -3,-2 -6,-4 -9,-6 -2,-1 -9,-6 -9,-7 1,-3 4,-7 6,-10l-35 7c1,4 7,34 7,35z"/>
  <path class="fil1" d="M5232 1858c0,0 0,0 0,0 0,0 0,0 0,0 0,-1 0,-1 0,-1 -1,0 -6,0 -8,0l-2 -1c-2,-1 0,-15 0,-17 0,-17 1,-14 -13,-23 -4,-3 -9,-5 -12,-7 1,4 -1,32 -1,40 0,1 0,2 0,3 0,0 0,1 -1,2 0,1 1,0 0,1 -2,1 -9,0 -12,-1 1,3 20,22 24,27 3,-2 23,-21 25,-23z"/>
  <path class="fil1" d="M5217 1915l2 -34 -25 -1 -2 29c0,2 2,2 5,5 4,2 7,4 11,7 6,4 9,1 9,-6z"/>
  <path class="fil4" d="M3260 5719c69,5 120,65 115,133 -5,69 -64,120 -133,115 -69,-5 -120,-65 -115,-133 5,-69 65,-120 133,-115z"/>
  <path class="fil4" d="M3017 5799c16,1 28,15 27,32 -1,16 -15,28 -32,27 -16,-1 -28,-15 -27,-32 1,-16 15,-28 32,-27z"/>
  <path class="fil4" d="M3060 5677c16,1 28,16 27,32 -1,16 -15,29 -31,27 -17,-1 -29,-15 -28,-31 1,-17 16,-29 32,-28z"/>
  <path class="fil4" d="M3150 5599c17,1 29,16 28,32 -1,16 -16,29 -32,27 -16,-1 -29,-15 -27,-31 1,-17 15,-29 31,-28z"/>
  <path class="fil4" d="M3278 5569c16,1 28,15 27,31 -1,17 -15,29 -32,28 -16,-2 -28,-16 -27,-32 1,-16 15,-29 32,-27z"/>
  <path class="fil4" d="M3037 5985c16,1 31,-11 32,-28 1,-16 -11,-30 -28,-31 -16,-2 -30,11 -31,27 -2,16 11,30 27,32z"/>
  <path class="fil4" d="M3115 6075c16,1 31,-11 32,-27 1,-16 -11,-31 -28,-32 -16,-1 -30,11 -31,27 -2,17 11,31 27,32z"/>
  <path class="fil4" d="M3236 6124c17,2 31,-11 32,-27 1,-16 -11,-31 -27,-32 -17,-1 -31,11 -32,28 -1,16 11,30 27,31z"/>
  <path class="fil4" d="M3498 5885c-17,-1 -29,-15 -28,-32 2,-16 16,-28 32,-27 16,1 29,16 27,32 -1,16 -15,28 -31,27z"/>
  <path class="fil4" d="M3454 6007c-16,-1 -28,-16 -27,-32 1,-16 16,-29 32,-27 16,1 28,15 27,31 -1,17 -15,29 -32,28z"/>
  <path class="fil4" d="M3364 6085c-16,-1 -29,-16 -27,-32 1,-16 15,-28 31,-27 17,1 29,15 28,31 -1,17 -16,29 -32,28z"/>
  <path class="fil4" d="M3477 5699c-16,-1 -30,11 -31,28 -2,16 11,30 27,32 16,1 31,-12 32,-28 1,-16 -11,-30 -28,-32z"/>
  <path class="fil4" d="M3399 5609c-16,-1 -30,11 -31,27 -2,17 11,31 27,32 16,1 31,-11 32,-27 1,-17 -11,-31 -28,-32z"/>
  <polygon class="fil0" points="378,1438 325,1541 586,1675 528,1516 "/>
  <path class="fil0" d="M488 2152l51 -100 40 21 -51 99 -40 -20zm69 36l52 -100 40 21 -52 99 -40 -20zm60 31l52 -100 39 21 -51 99 -40 -20zm-57 -207l51 -99 40 20 -51 100 -40 -21zm69 36l52 -99 40 20 -52 100 -40 -21zm60 31l52 -99 39 20 -51 100 -40 -21zm-52 -216l41 -80 40 21 -41 80 -40 -21zm70 36l41 -80 40 21 -42 80 -39 -21zm59 31l41 -80 40 21 -41 79 -40 -20zm-57 -206l46 -90 40 21 -46 89 -40 -20zm70 36l46 -90 40 21 -47 89 -39 -20zm59 31l47 -90 39 20 -46 90 -40 -20zm-429 396l317 163 75 -145 14 -28 60 -116 15 -29 60 -116 15 -29 74 -144 -502 -259 78 229 -155 -80 83 219 -155 -80 78 230 -155 -80 98 265z"/>
  <path class="fil4" d="M5559 3274c-56,0 -101,-47 -100,-103 1,-56 47,-101 103,-100 57,1 102,47 101,103 -1,56 -47,101 -104,100z"/>
  <path class="fil4" d="M5450 3052c0,0 18,84 -85,82 -103,-1 -204,-3 -204,-3l-1 73 204 3c0,0 24,0 54,20 29,20 40,62 40,62l54 1 48 -80 -59 -102 -51 -56z"/>
  <path class="fil4" d="M5514 3158c-59,-1 -105,-49 -105,-108 1,-58 49,-105 108,-104 58,1 105,49 104,107 -1,59 -49,106 -107,105z"/>
  <path class="fil4" d="M5690 3187c-59,-1 -105,-49 -105,-107 1,-59 49,-106 108,-105 58,1 105,49 104,108 -1,58 -49,105 -107,104l0 0z"/>
  <path class="fil4" d="M5687 3366c-58,-1 -105,-49 -104,-108 1,-58 49,-105 107,-104 59,1 105,49 104,107 -1,59 -49,105 -107,105z"/>
  <path class="fil4" d="M5510 3372c-58,-1 -105,-49 -104,-108 1,-58 49,-105 108,-104 58,1 105,49 104,107 -1,59 -49,106 -108,105z"/>
  <path class="fil4" d="M5776 3234c-36,0 -64,-29 -63,-65 0,-35 29,-63 65,-62 35,0 63,29 62,64 0,36 -29,64 -64,63z"/>
  <path class="fil4" d="M5594 3760c4,65 -45,120 -109,124 -65,4 -120,-45 -124,-110 -4,-64 45,-119 109,-123 65,-4 120,45 124,109zm-130 -208c-27,51 -56,61 -107,36 4,57 -15,79 -72,82 31,48 24,77 -23,111 51,27 61,55 36,106 57,-3 79,16 82,73 48,-31 77,-25 111,22 27,-51 55,-61 106,-36 -3,-56 16,-78 73,-82 -31,-47 -25,-76 22,-110 -50,-27 -60,-56 -36,-107 -56,4 -78,-15 -82,-72 -47,31 -76,24 -110,-23z"/>
  <path class="fil1" d="M250 2944c-7,-13 -67,-5 -83,-9 0,-26 1,-51 2,-77 38,1 106,3 144,4 42,-35 71,-48 102,-94 19,20 19,5 29,33 -89,80 -178,160 -259,249 80,93 168,178 248,270 -12,25 -8,19 -33,29 -79,-112 -161,-192 -244,-299 28,-38 64,-71 94,-106z"/>
  <polygon class="fil1" points="627,3272 632,3115 474,3110 477,2995 636,3000 641,2857 432,2850 218,3051 424,3266 "/>
  <path class="fil4" d="M27 3741c6,38 42,64 80,58l625 -100 -22 -138 -625 99c-38,6 -64,42 -58,81z"/>
  <path class="fil4" d="M1 3578c6,39 42,65 80,59l625 -100 -22 -139 -625 100c-38,6 -64,42 -58,80z"/>
  <path class="fil5" d="M335 2473c20,4 33,25 28,46 -5,20 -25,33 -46,28 -21,-5 -33,-26 -28,-46 4,-21 25,-33 46,-28zm251 -10l11 -9 -3 15c-3,-2 -6,-4 -8,-6l0 0zm31 11l13 -56 -20 -11 -39 34c-3,-8 -3,-16 -1,-25 3,-13 11,-23 21,-29 10,-6 23,-9 36,-6 12,3 22,11 29,22 6,10 8,22 5,35 -3,13 -11,23 -21,29 -7,4 -15,7 -23,7l0 0zm-57 57l-71 62 -2 -2 18 -51 8 10 47 -19zm-45 116l42 28 13 -20 -41 -28c1,-1 3,-2 5,-4 10,-6 23,-8 36,-5 12,3 23,11 29,21 6,10 8,23 5,35 -3,13 -10,23 -21,30 -10,6 -23,8 -35,5 -13,-3 -23,-11 -29,-21 -7,-10 -9,-23 -6,-36 0,-2 1,-4 2,-5l0 0zm-50 -65l-19 -12c0,0 -1,2 -4,6l2 -31 -19 -33 47 -10 14 17 -21 63zm121 -81l-27 -16 8 -6c6,5 13,10 21,14l-2 8zm-213 -26l15 46 33 27 3 52c-5,6 -9,12 -9,12l19 14c0,0 9,-11 17,-22l44 29c-3,4 -4,9 -5,14 -5,19 -1,38 8,53 10,16 25,28 44,32 19,5 38,1 54,-8 15,-10 27,-25 32,-44 4,-19 1,-38 -9,-54 -9,-15 -25,-27 -44,-32 -19,-4 -38,-1 -53,9 -5,3 -10,6 -14,10l-3 -2 97 -84 3 -3 1 -4 5 -22c15,1 29,-3 42,-10 15,-10 27,-25 32,-44 4,-19 1,-38 -9,-54 -9,-15 -25,-27 -44,-32 -19,-5 -38,-1 -53,9 -16,9 -28,24 -32,44 -4,16 -2,33 5,47l-17 14 -36 -16 6 -23 -20 -5 -1 7 -111 40z"/>
  <path class="fil3" d="M1995 379c0,4 1,9 2,13 -2,12 5,25 17,32 17,10 41,7 55,-6 14,-13 19,-35 9,-51 -10,-17 -30,-26 -48,-25 -21,1 -35,16 -35,37z"/>
  <path class="fil3" d="M2080 425c-3,-1 -5,0 -7,2 -5,5 -10,9 -16,11 -2,1 -3,2 -4,3 -1,1 -2,3 -2,4 -2,34 13,69 21,102 10,39 19,79 29,119 19,77 40,154 63,230 1,3 3,4 5,5 4,5 12,9 19,10 12,4 26,1 36,-9 8,-7 12,-18 13,-29 0,-6 -1,-11 -2,-15 -6,-29 -20,-58 -30,-85 -14,-38 -27,-77 -41,-116 -26,-75 -49,-151 -73,-227 -2,-5 -7,-7 -11,-5z"/>
  <path class="fil3" d="M2096 351c-5,1 -5,7 -3,10 0,1 0,2 0,3 0,14 1,28 2,42 0,4 3,7 6,8 131,18 286,33 381,-79 5,-5 1,-14 -6,-14 -126,5 -256,4 -380,30z"/>
  <path class="fil3" d="M1866 13c51,101 64,220 124,317 1,1 3,2 4,2 2,1 4,1 6,1 11,-3 32,-3 40,-14 8,-11 3,-38 3,-50 -2,-44 -8,-88 -23,-129 -23,-64 -74,-134 -148,-140 -7,-1 -9,8 -6,13z"/>
  <path class="fil3" d="M1972 392c-11,6 -21,12 -31,17 -17,6 -33,17 -49,29 -32,20 -63,42 -89,72 -39,47 -69,108 -52,170 1,6 9,6 12,3 44,-41 87,-83 128,-126 36,-38 75,-78 105,-122 4,-3 6,-8 2,-13 -7,-7 -11,-15 -13,-25 -1,-6 -9,-8 -13,-5z"/>
  <path class="fil5" d="M4309 1063c-58,-34 -78,-109 -45,-167 5,-9 16,-11 25,-6 8,4 11,15 6,24 -23,41 -9,94 32,118 8,5 11,16 6,24 -5,9 -16,12 -24,7zm233 -103l0 0 1 -294 -255 146 0 0c-22,14 -41,34 -55,58 -46,79 -19,181 60,227 79,46 181,19 227,-60 14,-25 21,-51 22,-77z"/>
  <path class="fil0" d="M4029 638c15,-2 29,-60 39,-74 23,10 47,19 70,29 -15,36 -40,98 -55,133 18,51 19,83 50,129 -24,10 -11,16 -40,15 -43,-112 -86,-223 -139,-331 -115,42 -226,93 -340,135 -19,-20 -15,-14 -15,-42 132,-32 236,-81 366,-119 25,39 43,84 64,125z"/>
  <polygon class="fil0" points="3589,872 3733,932 3795,787 3900,831 3839,977 3970,1032 4051,840 3941,570 3667,684 "/>
  <path class="fil4" d="M3279 107c-38,-6 -74,20 -80,58l-105 624 139 23 104 -624c6,-38 -19,-74 -58,-81z"/>
  <path class="fil4" d="M3441 134c-38,-6 -74,20 -80,58l-105 624 139 23 104 -624c6,-38 -19,-74 -58,-81z"/>
  <path class="fil5" d="M5511 2848c-28,3 -53,-18 -55,-46 -3,-28 18,-53 46,-56 28,-2 53,19 55,47 3,28 -18,53 -46,55l0 0z"/>
  <path class="fil5" d="M5333 2913l102 -52c5,-3 12,-6 11,-16l-6 -78c-1,-10 -8,-14 -15,-17l-109 -36c-9,-3 -19,1 -23,10 -3,9 1,20 11,23l7 3c0,0 2,1 0,1 -13,-2 -53,-5 -53,-5 -8,-1 -14,5 -14,13l2 20c0,1 -1,1 -1,1l-78 7c-13,1 -20,10 -19,20 1,10 9,17 22,16l79 -7c0,0 0,0 0,1 0,1 1,4 1,5 0,1 -1,1 -1,1l-79 7c-13,1 -19,10 -18,20 1,10 9,17 22,16l78 -7c0,0 1,0 1,2l2 21c1,8 8,13 16,11 0,0 41,-11 52,-13 3,-1 -8,5 -8,5 -8,5 -11,13 -6,22 5,8 16,11 24,6l0 0z"/>
  <path class="fil5" d="M5438 2682c8,-3 13,-12 12,-21 0,-5 0,-5 0,-8l-5 -79c0,-10 -6,-18 -15,-20l-119 -32c-10,-3 -21,2 -24,12 -3,10 3,21 13,24l28 8c0,0 3,1 -9,2l-163 9c-14,1 -25,13 -24,27 1,14 13,25 27,24l106 -6c0,0 1,0 1,1l1 9c0,1 -1,1 -1,1l-106 6c-14,1 -25,13 -25,27 1,14 13,25 28,24l162 -9c12,-1 9,1 9,1l-27 11c-9,4 -14,15 -9,25 4,9 15,14 25,10l115 -46z"/>
  <path class="fil5" d="M5518 2669c-30,1 -56,-22 -57,-52 -2,-30 21,-56 51,-58 30,-1 55,22 57,52 2,30 -21,56 -51,58l0 0z"/>
  <path class="fil5" d="M1144 1042c20,20 21,52 1,72 -20,20 -52,21 -72,1 -21,-20 -21,-52 -1,-72 19,-21 52,-21 72,-1l0 0z"/>
  <path class="fil5" d="M1309 1134l-106 -43c-6,-2 -13,-5 -20,2l-54 55c-7,8 -6,16 -4,23l44 106c3,9 14,14 23,11 9,-4 14,-14 11,-23l-3 -7c0,0 -1,-2 1,-1 7,11 30,43 30,43 5,7 14,8 19,2l14 -14c1,-1 2,0 2,0l56 55c9,9 20,8 27,1 7,-8 8,-18 -2,-27l-56 -56c0,0 -1,0 0,-1 1,0 3,-2 3,-3 1,-1 2,0 2,0l56 55c9,9 20,8 27,1 7,-7 8,-18 -2,-27l-56 -55c0,0 -1,-1 0,-2l15 -15c6,-6 5,-15 -2,-19 0,0 -34,-25 -44,-31 -3,-2 10,2 10,2 9,3 17,0 20,-9 4,-9 -1,-20 -11,-23l0 0z"/>
  <path class="fil5" d="M1066 1205c-8,-4 -18,-1 -25,5 -3,3 -3,4 -5,5l-57 56c-8,7 -10,15 -6,24l54 111c4,10 15,14 25,10 9,-4 14,-15 9,-25l-11 -27c0,0 -2,-2 7,6l113 118c9,10 26,10 36,1 10,-10 10,-26 0,-37l-73 -76c0,0 -1,-1 0,-2l6 -6c1,-1 2,0 2,0l74 76c9,11 26,11 36,1 10,-9 10,-26 0,-36l-113 -117c-8,-9 -5,-7 -5,-7l26 12c9,5 21,1 25,-8 5,-10 1,-21 -9,-26l-109 -58z"/>
  <path class="fil5" d="M1003 1154c21,21 20,56 -2,77 -21,21 -56,20 -77,-1 -20,-22 -20,-56 2,-77 22,-21 57,-21 77,1l0 0z"/>
  <path class="fil5" d="M933 1398c15,12 18,35 6,51 -12,16 -35,18 -51,6 -16,-12 -18,-35 -6,-51 12,-15 35,-18 51,-6l0 0z"/>
  <path class="fil5" d="M1056 1450l-78 -22c-4,-1 -9,-3 -14,3l-33 43c-5,6 -4,12 -1,16l39 71c3,6 10,9 16,6 7,-3 9,-11 6,-17l-2 -5c0,0 -1,-1 0,0 6,7 25,28 25,28 4,4 10,4 13,0l9 -11c1,-1 1,-1 1,-1l44 35c7,5 15,4 19,-2 4,-6 4,-13 -3,-19l-44 -34c0,0 -1,0 0,-1 0,0 1,-2 2,-3 0,0 1,0 1,0l44 35c7,5 14,4 19,-2 4,-5 4,-13 -4,-19l-43 -34c0,0 -1,0 0,-1l9 -12c4,-5 2,-11 -3,-13 0,0 -26,-15 -33,-19 -2,-1 6,1 6,1 7,2 13,-1 14,-8 2,-7 -2,-13 -9,-15l0 0z"/>
  <path class="fil5" d="M1387 1020c-5,-3 -12,-2 -17,2 -3,2 -3,2 -4,3l-45 35c-5,4 -7,10 -5,17l29 82c3,7 10,11 17,8 7,-2 11,-9 9,-16l-6 -20c0,0 -1,-2 4,5l71 90c6,8 18,9 25,3 8,-6 10,-17 3,-25l-46 -59c0,0 -1,-1 0,-1l5 -4c1,-1 1,0 1,0l47 59c6,8 17,9 25,3 8,-6 9,-18 3,-25l-71 -91c-5,-7 -3,-5 -3,-5l17 11c6,3 15,1 18,-5 4,-6 2,-15 -4,-18l-73 -49z"/>
  <path class="fil5" d="M1347 979c13,17 10,41 -7,54 -17,14 -41,11 -54,-6 -13,-16 -10,-41 7,-54 17,-13 41,-10 54,7l0 -1z"/>
  <polygon class="fil6" points="2974,1883 2974,1883 2974,1883 "/>
  <path class="fil4" d="M1637 687c28,49 12,111 -36,140 -49,28 -111,12 -140,-36 -28,-49 -12,-111 36,-140 49,-28 111,-12 140,36z"/>
  <path class="fil4" d="M1503 897c0,0 63,-59 115,30 53,88 104,175 104,175l63 -37 -104 -176c0,0 -13,-20 -11,-56 2,-36 32,-66 32,-66l-27 -47 -94 0 -56 104 -22 73z"/>
  <path class="fil4" d="M1561 787c30,51 13,115 -38,145 -50,30 -115,13 -145,-37 -29,-51 -12,-116 38,-145 50,-30 115,-13 145,37z"/>
  <path class="fil4" d="M1494 622c30,50 13,115 -37,145 -51,29 -116,13 -145,-38 -30,-50 -13,-115 37,-145 51,-29 115,-13 145,38z"/>
  <path class="fil4" d="M1648 531c30,50 13,115 -37,145 -51,30 -116,13 -145,-37 -30,-51 -13,-116 37,-145 51,-30 115,-13 145,37z"/>
  <path class="fil4" d="M1745 679c30,50 13,115 -37,145 -51,29 -115,12 -145,-38 -30,-50 -13,-115 37,-145 51,-30 116,-13 145,38z"/>
  <path class="fil4" d="M1490 524c18,30 8,69 -23,87 -30,18 -69,8 -87,-22 -18,-31 -8,-70 22,-88 31,-18 70,-8 88,23z"/>
  <polygon class="fil0" points="5335,4748 5395,4649 5143,4498 5190,4661 "/>
  <path class="fil0" d="M5271 4028l-58 97 -38 -24 57 -96 39 23zm-67 -40l-58 96 -39 -23 58 -96 39 23zm-58 -34l-58 96 -38 -23 57 -97 39 24zm44 209l-58 96 -38 -23 58 -96 38 23zm-67 -40l-58 96 -38 -23 57 -96 39 23zm-58 -35l-58 96 -38 -23 58 -96 38 23zm39 219l-46 77 -39 -23 46 -77 39 23zm-68 -40l-46 77 -38 -23 46 -77 38 23zm-57 -35l-46 77 -39 -23 46 -77 39 23zm44 210l-52 86 -38 -23 51 -86 39 23zm-67 -41l-52 87 -39 -23 52 -87 39 23zm-58 -34l-52 86 -38 -23 52 -86 38 23zm454 -368l-306 -184 -84 140 -16 27 -68 113 -16 27 -68 113 -16 27 -84 139 485 291 -63 -234 150 90 -69 -224 149 90 -63 -234 150 89 -81 -270z"/>
  <path class="fil0" d="M4373 4921c-30,-26 -32,-71 -6,-101 26,-29 72,-32 101,-6 30,27 32,72 6,101 -26,30 -72,33 -101,6z"/>
  <path class="fil0" d="M4300 4796c0,0 13,11 19,35 7,24 -7,51 -7,51l28 25 63 -19 15 -82 -1 -54c0,0 -29,53 -83,5l-34 39z"/>
  <path class="fil0" d="M4402 4838c-30,-27 -33,-74 -6,-105 28,-31 75,-33 105,-6 31,27 34,75 6,105 -27,31 -74,34 -105,6z"/>
  <path class="fil0" d="M4482 4935c-30,-28 -33,-75 -6,-105 28,-31 75,-34 105,-6 31,27 34,74 6,105 -27,30 -74,33 -105,6z"/>
  <path class="fil0" d="M4399 5028c-31,-27 -34,-74 -6,-105 27,-30 74,-33 105,-6 30,28 33,75 6,105 -28,31 -75,34 -105,6z"/>
  <path class="fil0" d="M4302 4950c-31,-27 -33,-74 -6,-105 27,-30 75,-33 105,-6 31,28 33,75 6,105 -27,31 -74,34 -105,6z"/>
  <path class="fil0" d="M4506 4999c-18,-16 -20,-44 -3,-63 16,-18 45,-20 63,-3 19,16 20,44 4,63 -17,18 -45,20 -64,3z"/>
  <path class="fil0" d="M2942 5435c-12,-37 9,-78 47,-90 37,-12 77,9 89,47 12,37 -8,78 -46,90 -38,12 -78,-9 -90,-47z"/>
  <path class="fil0" d="M2943 5290c0,0 6,16 -1,40 -7,24 -32,41 -32,41l11 36 64 15 55 -63 26 -46c0,0 -52,30 -74,-39l-49 16z"/>
  <path class="fil0" d="M3010 5379c-13,-40 9,-81 48,-94 39,-12 81,9 93,48 13,40 -9,81 -48,94 -39,12 -81,-9 -93,-48z"/>
  <path class="fil0" d="M3030 5502c-13,-39 9,-81 48,-93 39,-13 81,9 93,48 13,39 -9,81 -48,94 -39,12 -81,-9 -93,-49z"/>
  <path class="fil0" d="M2910 5541c-13,-40 9,-81 48,-94 39,-12 81,9 94,48 12,40 -10,81 -49,94 -39,12 -81,-9 -93,-48z"/>
  <path class="fil0" d="M2866 5424c-12,-39 9,-81 49,-93 39,-13 81,9 93,48 13,39 -9,81 -48,94 -39,12 -81,-9 -94,-49z"/>
  <path class="fil0" d="M3017 5570c-7,-23 6,-48 29,-56 24,-8 49,5 57,29 7,24 -6,49 -29,56 -24,8 -49,-5 -57,-29z"/>
  <path class="fil5" d="M2861 464c-3,-8 -11,-12 -19,-12 -4,0 -4,0 -7,0l-72 0c-10,0 -17,4 -20,12l-34 108c-4,9 1,19 10,22 9,3 19,-1 22,-10l9 -25c0,0 1,-3 1,8l0 149c0,13 11,23 24,23 13,0 23,-11 23,-24l0 -97c0,0 0,0 0,0l9 0c1,-1 1,0 1,0l0 97c0,13 11,24 24,24 13,0 23,-11 23,-24l-1 -148c0,-12 1,-8 1,-8l9 24c4,9 14,14 23,10 9,-3 13,-13 10,-22l-36 -107z"/>
  <path class="fil5" d="M2861 390c32,-12 48,-33 44,-36 -3,-3 -13,1 -28,6l-17 0c0,0 -1,0 -1,0 -35,10 -72,10 -106,0 -1,0 -2,0 -3,-1l-15 0c-16,-5 -26,-9 -28,-6 -4,3 10,22 39,35 4,23 19,41 38,49l0 20 -6 0 0 29 0 1 0 2c15,3 38,3 52,0l0 -2 0 -1 0 -28 -10 0 0 -20c20,-7 36,-25 41,-48z"/>
  <path class="fil5" d="M2755 351c33,10 68,10 102,0l-11 -39c-2,-6 -9,-10 -15,-8l-20 8c-4,1 -8,1 -12,0l-18 -7c-6,-3 -13,0 -15,7l-11 39z"/>
  <path class="fil5" d="M4642 4763l-96 -108c-3,-4 -3,-8 -1,-11l6 -8 21 18c0,2 0,4 2,5l69 69c3,3 7,3 10,0 1,-1 2,-2 2,-4l18 15 -20 23c-3,4 -8,5 -11,1zm31 -24l19 -22 -17 -14c0,0 -1,1 -1,1 -3,3 -7,3 -10,1l-73 -66c-2,-2 -3,-6 -1,-8l-20 -17 -19 22 21 18c0,-2 1,-4 2,-5 3,-3 7,-3 10,0l69 69c2,2 2,4 2,6l18 15zm19 -22l-17 -14c1,-3 1,-7 -2,-9l-72 -65c-3,-3 -7,-3 -10,0 0,1 -1,1 -1,2l-20 -17 20 -23 20 16c-1,1 -1,1 -2,2 -2,3 -2,7 1,10l77 60c3,2 6,2 9,0l16 14 -19 24zm19 -24l19 -21 -17 -15c-3,1 -5,1 -8,-1l-78 -58c-3,-2 -4,-7 -1,-10 0,-1 1,-2 3,-2l-20 -17 -19 22 20 16c2,-1 6,-1 8,1l77 60c3,2 4,7 1,10 0,0 -1,1 -1,1l16 14zm19 -21l-17 -15c1,0 2,-1 2,-2l0 0c3,-3 2,-8 -1,-10l-78 -58c-2,-2 -5,-2 -7,-1l-20 -17 4 -6c3,-3 8,-3 11,0l121 78c4,2 4,8 1,11l-16 20z"/>
  <path class="fil5" d="M4760 4787l7 -53c11,1 20,-6 22,-17l0 -4c2,-10 -5,-20 -16,-22l7 -53c1,-5 -3,-11 -8,-11 -6,-1 -11,3 -12,8l-20 149c-1,6 3,11 8,12 6,1 11,-3 12,-9z"/>
  <path class="fil2 str2" d="M2721 5276c3,0 6,1 9,1 1239,92 2317,-837 2410,-2075 92,-1239 -837,-2317 -2077,-2410 -2,0 -5,0 -8,0 -1236,-88 -2311,840 -2403,2076 -92,1235 834,2312 2069,2408z"/>
 </g>
</svg>
