<?xml version="1.0" encoding="utf-8"?>
<!-- Generator: Adobe Illustrator 18.0.0, SVG Export Plug-In . SVG Version: 6.00 Build 0)  -->
<!DOCTYPE svg PUBLIC "-//W3C//DTD SVG 1.1//EN" "http://www.w3.org/Graphics/SVG/1.1/DTD/svg11.dtd">
<svg version="1.1" xmlns="http://www.w3.org/2000/svg" xmlns:xlink="http://www.w3.org/1999/xlink" x="0px" y="0px"
	 viewBox="0 0 1000 448" enable-background="new 0 0 1000 448" xml:space="preserve">
<g id="Sin">
</g>
<g id="Layer_9">
	<g>
		<path fill="none" stroke="#000000" stroke-miterlimit="10" d="M530.9,141.6"/>
		<g>
			<path fill="none" stroke="#51A332" stroke-width="5" stroke-linecap="round" stroke-linejoin="round" stroke-miterlimit="10" d="
				M660.7,287.8c-154.8-40.5-131-155.5-131-155.5s272.9,183.4,433.8,98.2"/>
			<path fill="none" stroke="#51A332" stroke-width="5" stroke-linecap="round" stroke-linejoin="round" stroke-miterlimit="10" d="
				M943.1,58.6c0,0-302.5,120.7-409.3,73.7c0,0,201.7-33.3,181.5-84.3"/>
			<path fill="none" stroke="#51A332" stroke-width="5" stroke-linecap="round" stroke-linejoin="round" stroke-miterlimit="10" d="
				M260.8,47.5c0,0,141.3,97.3,273.1,84.8c0,0-302.4,114.1-401.1,69.6"/>
			<path fill="none" stroke="#51A332" stroke-width="5" stroke-linecap="round" stroke-linejoin="round" stroke-miterlimit="10" d="
				M273.1,321.7c0,0,233.4-43.3,256.7-187.1"/>
		</g>
		<g>
			
				<polyline fill-rule="evenodd" clip-rule="evenodd" fill="none" stroke="#51A332" stroke-width="5" stroke-linecap="round" stroke-linejoin="round" stroke-miterlimit="10" points="
				258.9,74 250.3,49.7 274.5,41.1 			"/>
		</g>
		<g>
			
				<polyline fill-rule="evenodd" clip-rule="evenodd" fill="none" stroke="#51A332" stroke-width="5" stroke-linecap="round" stroke-linejoin="round" stroke-miterlimit="10" points="
				128.6,221.8 120,197.5 144.3,188.9 			"/>
		</g>
		<g>
			
				<polyline fill-rule="evenodd" clip-rule="evenodd" fill="none" stroke="#51A332" stroke-width="5" stroke-linecap="round" stroke-linejoin="round" stroke-miterlimit="10" points="
				285.5,343.8 262,333.5 272.3,309.9 			"/>
		</g>
		<g>
			
				<polyline fill-rule="evenodd" clip-rule="evenodd" fill="none" stroke="#51A332" stroke-width="5" stroke-linecap="round" stroke-linejoin="round" stroke-miterlimit="10" points="
				658.1,274.4 670.4,297 647.8,309.3 			"/>
		</g>
		<g>
			
				<polyline fill-rule="evenodd" clip-rule="evenodd" fill="none" stroke="#51A332" stroke-width="5" stroke-linecap="round" stroke-linejoin="round" stroke-miterlimit="10" points="
				951.7,216.8 977,221.6 972.2,246.9 			"/>
		</g>
		<g>
			
				<polyline fill-rule="evenodd" clip-rule="evenodd" fill="none" stroke="#51A332" stroke-width="5" stroke-linecap="round" stroke-linejoin="round" stroke-miterlimit="10" points="
				929.2,45.8 954.5,50.6 949.7,75.9 			"/>
		</g>
		<g>
			
				<polyline fill-rule="evenodd" clip-rule="evenodd" fill="none" stroke="#7A9B45" stroke-width="5" stroke-linecap="round" stroke-linejoin="round" stroke-miterlimit="10" points="
				698,59.3 711.7,37.5 733.5,51.1 			"/>
		</g>
		<g>
			<g>
				<path fill="#51A332" d="M365.3,165.2c-0.9,0-1.6,0.7-1.6,1.6c0,4.4-3.6,8.1-8.1,8.1c-4.4,0-8.1-3.6-8.1-8.1
					c0-0.9-0.7-1.6-1.6-1.6s-1.6,0.7-1.6,1.6c0,4.4-3.6,8.1-8.1,8.1c-4.4,0-8.1-3.6-8.1-8.1c0-0.9-0.7-1.6-1.6-1.6
					c-0.9,0-1.6,0.7-1.6,1.6c0,4.4-3.6,8.1-8.1,8.1c-4.4,0-8.1-3.6-8.1-8.1c0-0.9-0.7-1.6-1.6-1.6c-0.9,0-1.6,0.7-1.6,1.6
					c0,4.4-3.6,8.1-8.1,8.1c-4.4,0-8.1-3.6-8.1-8.1c0-0.9-0.7-1.6-1.6-1.6c-0.9,0-1.6,0.7-1.6,1.6c0,6.2,5.1,11.3,11.3,11.3
					c4.1,0,7.7-2.2,9.7-5.5c2,3.3,5.6,5.5,9.7,5.5c4.1,0,7.7-2.2,9.7-5.5c2,3.3,5.6,5.5,9.7,5.5c4.1,0,7.7-2.2,9.7-5.5
					c2,3.3,5.6,5.5,9.7,5.5c6.2,0,11.3-5.1,11.3-11.3C366.9,165.9,366.2,165.2,365.3,165.2L365.3,165.2z M365.3,165.2"/>
				<path fill="#51A332" d="M288.6,162h76.2c0.6,0,1.2-0.3,1.4-0.9c3.6-7.1,5.6-15.1,5.6-23.3c0-0.9-0.7-1.6-1.6-1.6h-9.7v-8.1
					c0-0.9-0.7-1.6-1.6-1.6h-8.1v-8.1c0-0.9-0.7-1.6-1.6-1.6h-19.3c-0.9,0-1.6,0.7-1.6,1.6v8.1h-1.6c-0.9,0-1.6,0.7-1.6,1.6v8.1
					h-17.7v-19.3c0-0.9-0.7-1.6-1.6-1.6h-6.4V99.1H296v16.1h-6.4c-0.9,0-1.6,0.7-1.6,1.6v19.3h-4.8c-0.9,0-1.6,0.7-1.6,1.6
					c0,8.1,1.9,16.2,5.6,23.3C287.4,161.6,288,162,288.6,162L288.6,162z M357.3,129.7v6.4h-12.9v-6.4H357.3z M331.5,120.1h16.1v6.4
					h-16.1V120.1z M328.3,129.7h12.9v6.4h-12.9V129.7z M291.2,118.5h12.9v17.7h-12.9V118.5z M289.6,139.4h78.9
					c-0.2,6.8-1.9,13.4-4.8,19.3h-74.2c-2.9-6-4.5-12.6-4.8-19.3H289.6z M289.6,139.4"/>
				<rect x="294.4" y="121.7" fill="#51A332" width="6.4" height="3.2"/>
				<rect x="294.4" y="126.5" fill="#51A332" width="6.4" height="3.2"/>
			</g>
		</g>
		<g>
			<g>
				<path fill="#51A332" d="M29.5,307.3c-0.9,0-1.6,0.7-1.6,1.6c0,6.2,5.1,11.3,11.3,11.3c4.1,0,7.7-2.2,9.7-5.5
					c2,3.3,5.6,5.5,9.7,5.5c4.1,0,7.7-2.2,9.7-5.5c2,3.3,5.6,5.5,9.7,5.5c4.1,0,7.7-2.2,9.7-5.5c2,3.3,5.6,5.5,9.7,5.5
					c6.2,0,11.3-5.1,11.3-11.3c0-0.9-0.7-1.6-1.6-1.6c-0.9,0-1.6,0.7-1.6,1.6c0,4.4-3.6,8.1-8.1,8.1c-4.4,0-8.1-3.6-8.1-8.1
					c0-0.9-0.7-1.6-1.6-1.6c-0.9,0-1.6,0.7-1.6,1.6c0,4.4-3.6,8.1-8.1,8.1c-4.4,0-8.1-3.6-8.1-8.1c0-0.9-0.7-1.6-1.6-1.6
					c-0.9,0-1.6,0.7-1.6,1.6c0,4.4-3.6,8.1-8.1,8.1s-8.1-3.6-8.1-8.1c0-0.9-0.7-1.6-1.6-1.6c-0.9,0-1.6,0.7-1.6,1.6
					c0,4.4-3.6,8.1-8.1,8.1s-8.1-3.6-8.1-8.1C31.1,308,30.3,307.3,29.5,307.3L29.5,307.3z M29.5,307.3"/>
				<path fill="#51A332" d="M106.2,304.1c0.6,0,1.2-0.3,1.4-0.9c3.6-7.1,5.6-15.1,5.6-23.3c0-0.9-0.7-1.6-1.6-1.6h-4.8v-19.3
					c0-0.9-0.7-1.6-1.6-1.6h-6.4v-16.1h-3.2v16.1h-6.4c-0.9,0-1.6,0.7-1.6,1.6v19.3H69.7v-8.1c0-0.9-0.7-1.6-1.6-1.6h-1.6v-8.1
					c0-0.9-0.7-1.6-1.6-1.6H45.6c-0.9,0-1.6,0.7-1.6,1.6v8.1h-8.1c-0.9,0-1.6,0.7-1.6,1.6v8.1h-9.7c-0.9,0-1.6,0.7-1.6,1.6
					c0,8.1,1.9,16.2,5.6,23.3c0.3,0.5,0.8,0.9,1.4,0.9H106.2L106.2,304.1z M50.4,271.8v6.4H37.5v-6.4H50.4z M63.3,268.6H47.2v-6.4
					h16.1V268.6z M66.5,278.3H53.6v-6.4h12.9V278.3z M103.6,278.3H90.7v-17.7h12.9V278.3z M110,281.5c-0.2,6.8-1.9,13.4-4.8,19.3H31
					c-2.9-6-4.5-12.6-4.8-19.3h78.9H110z M105.2,281.5"/>
				<rect x="93.9" y="263.8" fill="#51A332" width="6.4" height="3.2"/>
				<rect x="93.9" y="268.6" fill="#51A332" width="6.4" height="3.2"/>
			</g>
		</g>
		<g>
			<g>
				<path fill="#51A332" d="M486.9,400c-0.7,0-1.3,0.6-1.3,1.3c0,3.6-2.9,6.6-6.6,6.6c-3.6,0-6.6-2.9-6.6-6.6c0-0.7-0.6-1.3-1.3-1.3
					c-0.7,0-1.3,0.6-1.3,1.3c0,3.6-2.9,6.6-6.6,6.6s-6.6-2.9-6.6-6.6c0-0.7-0.6-1.3-1.3-1.3c-0.7,0-1.3,0.6-1.3,1.3
					c0,3.6-2.9,6.6-6.6,6.6c-3.6,0-6.6-2.9-6.6-6.6c0-0.7-0.6-1.3-1.3-1.3c-0.7,0-1.3,0.6-1.3,1.3c0,3.6-2.9,6.6-6.6,6.6
					c-3.6,0-6.6-2.9-6.6-6.6c0-0.7-0.6-1.3-1.3-1.3c-0.7,0-1.3,0.6-1.3,1.3c0,5.1,4.1,9.2,9.2,9.2c3.3,0,6.3-1.8,7.9-4.5
					c1.6,2.7,4.5,4.5,7.9,4.5c3.3,0,6.3-1.8,7.9-4.5c1.6,2.7,4.5,4.5,7.9,4.5c3.4,0,6.3-1.8,7.9-4.5c1.6,2.7,4.5,4.5,7.9,4.5
					c5.1,0,9.2-4.1,9.2-9.2C488.2,400.6,487.6,400,486.9,400L486.9,400z M486.9,400"/>
				<path fill="#51A332" d="M424.3,397.4h62.2c0.5,0,0.9-0.3,1.2-0.7c3-5.8,4.5-12.4,4.5-19c0-0.7-0.6-1.3-1.3-1.3H483v-6.6
					c0-0.7-0.6-1.3-1.3-1.3h-6.6v-6.6c0-0.7-0.6-1.3-1.3-1.3H458c-0.7,0-1.3,0.6-1.3,1.3v6.6h-1.3c-0.7,0-1.3,0.6-1.3,1.3v6.6h-14.5
					v-15.8c0-0.7-0.6-1.3-1.3-1.3H433v-13.1h-2.6v13.1h-5.3c-0.7,0-1.3,0.6-1.3,1.3v15.8h-3.9c-0.7,0-1.3,0.6-1.3,1.3
					c0,6.6,1.6,13.2,4.5,19C423.3,397.1,423.8,397.4,424.3,397.4L424.3,397.4z M480.3,371.1v5.3h-10.5v-5.3H480.3z M459.3,363.2
					h13.1v5.3h-13.1V363.2z M456.7,371.1h10.5v5.3h-10.5V371.1z M426.4,361.9H437v14.5h-10.5V361.9z M425.1,379h64.4
					c-0.2,5.5-1.5,10.9-3.9,15.8h-60.6c-2.4-4.9-3.7-10.3-3.9-15.8H425.1z M425.1,379"/>
				<rect x="429.1" y="364.5" fill="#51A332" width="5.3" height="2.6"/>
				<rect x="429.1" y="368.5" fill="#51A332" width="5.3" height="2.6"/>
			</g>
		</g>
		<g>
			<g>
				<path fill="#51A332" d="M811.5,333.2c-0.7,0-1.3,0.6-1.3,1.3c0,5.1,4.1,9.2,9.2,9.2c3.4,0,6.3-1.8,7.9-4.5
					c1.6,2.7,4.5,4.5,7.9,4.5c3.3,0,6.3-1.8,7.9-4.5c1.6,2.7,4.5,4.5,7.9,4.5c3.4,0,6.3-1.8,7.9-4.5c1.6,2.7,4.5,4.5,7.9,4.5
					c5.1,0,9.2-4.1,9.2-9.2c0-0.7-0.6-1.3-1.3-1.3c-0.7,0-1.3,0.6-1.3,1.3c0,3.6-2.9,6.6-6.6,6.6s-6.6-2.9-6.6-6.6
					c0-0.7-0.6-1.3-1.3-1.3c-0.7,0-1.3,0.6-1.3,1.3c0,3.6-2.9,6.6-6.6,6.6c-3.6,0-6.6-2.9-6.6-6.6c0-0.7-0.6-1.3-1.3-1.3
					c-0.7,0-1.3,0.6-1.3,1.3c0,3.6-2.9,6.6-6.6,6.6s-6.6-2.9-6.6-6.6c0-0.7-0.6-1.3-1.3-1.3c-0.7,0-1.3,0.6-1.3,1.3
					c0,3.6-2.9,6.6-6.6,6.6s-6.6-2.9-6.6-6.6C812.8,333.8,812.2,333.2,811.5,333.2L811.5,333.2z M811.5,333.2"/>
				<path fill="#51A332" d="M874.2,330.6c0.5,0,0.9-0.3,1.2-0.7c3-5.8,4.5-12.4,4.5-19c0-0.7-0.6-1.3-1.3-1.3h-3.9v-15.8
					c0-0.7-0.6-1.3-1.3-1.3H868v-13.1h-2.6v13.1h-5.3c-0.7,0-1.3,0.6-1.3,1.3v15.8h-14.5v-6.6c0-0.7-0.6-1.3-1.3-1.3h-1.3v-6.6
					c0-0.7-0.6-1.3-1.3-1.3h-15.8c-0.7,0-1.3,0.6-1.3,1.3v6.6h-6.6c-0.7,0-1.3,0.6-1.3,1.3v6.6h-7.9c-0.7,0-1.3,0.6-1.3,1.3
					c0,6.6,1.6,13.2,4.5,19c0.2,0.4,0.7,0.7,1.2,0.7H874.2L874.2,330.6z M828.6,304.3v5.3h-10.5v-5.3H828.6z M839.1,301.6H826v-5.3
					h13.1V301.6z M841.7,309.5h-10.5v-5.3h10.5V309.5z M872,309.5h-10.5v-14.5H872V309.5z M877.2,312.1c-0.2,5.5-1.5,10.9-3.9,15.8
					h-60.6c-2.4-4.9-3.7-10.3-3.9-15.8h64.4H877.2z M873.3,312.1"/>
				<rect x="864.1" y="297.7" fill="#51A332" width="5.3" height="2.6"/>
				<rect x="864.1" y="301.6" fill="#51A332" width="5.3" height="2.6"/>
			</g>
		</g>
		<g>
			<g>
				<g>
					<path fill="#51A332" d="M497.2,92.5c-0.9,0.1-1.6,0.8-1.5,1.6c0.1,0.8,0.9,1.4,1.8,1.3c0.9-0.1,1.6-0.8,1.5-1.6
						C499,93,498.1,92.4,497.2,92.5L497.2,92.5z M497.5,94.3c-0.3,0-0.5-0.2-0.5-0.4c0-0.2,0.2-0.4,0.4-0.4c0.3,0,0.5,0.2,0.5,0.4
						C497.9,94.1,497.7,94.3,497.5,94.3L497.5,94.3z M497.5,94.3"/>
					<path fill="#51A332" d="M473.9,101.5c0,0.2,0,0.3,0.1,0.4c-0.1,1.3,0.4,2.8,1.7,4.4c0.1,0.1,0.2,0.2,0.4,0.2l16.5,1.8l0,0
						c0.5,0.1,1.1,0.1,1.6,0.1c2.3-0.2,4.1-1.5,4.9-3.3c1.1,1.9,3.4,3.1,5.9,3c1.1-0.1,2.1-0.4,2.9-1c0,0,0,0,0.1,0
						c0.3-0.2,0.6-0.4,0.8-0.6c0,0,0,0,0,0c0,0,0,0,0,0c1.1-1,1.7-2.5,1.5-4c-0.3-2.9-3.2-5.1-6.5-4.8c-2.3,0.2-4.1,1.5-4.9,3.3
						c-0.4-0.7-0.9-1.2-1.5-1.7c0.2,0,0.4,0,0.6,0c3.2-0.2,5.6-2.8,5.3-5.7c-0.3-2.9-3.2-5-6.4-4.8l0,0L482,88.4c-0.1,0-0.2,0-0.3,0
						c-0.2,0.1-4,1.6-4.8,4.6c-0.2,0.6-0.2,1.3-0.1,1.9c0,0.1,0,0.1,0,0.2c0.2,0.8,0.6,1.7,1.2,2.5c0,0,0,0,0,0
						c-0.1,0-3.1,1-3.9,3.4c0,0,0,0,0,0C474,101.3,473.9,101.4,473.9,101.5L473.9,101.5z M475.3,103.2c-0.1-0.3-0.1-0.6-0.1-0.9
						c3.2,0.6,6.7,1.1,7.5,0.5c0.4-0.2,2.9,0,5.1,0.4c0,0.1,0,0.2,0,0.4c0,0.4,0.1,0.7,0.2,1c-0.3,0-0.7,0.1-1.1,0.1
						c-1.4,0.1-4.2,0.4-4.7,0.4c-0.7-0.3-3.9-1.2-6.5-1.9C475.6,103.2,475.4,103.2,475.3,103.2L475.3,103.2z M491,103.4
						c0-0.3,0-0.6,0.1-0.9l0.9,0.6c0,0.1,0,0.2,0,0.3c0.1,0.8,0.9,1.4,1.8,1.3c0.9-0.1,1.6-0.8,1.5-1.6c-0.1-0.8-0.9-1.4-1.8-1.3
						c-0.2,0-0.3,0-0.5,0.1l-0.6-0.8c0.3-0.1,0.6-0.2,0.9-0.2c1.5-0.1,2.8,0.9,2.9,2.2c0.1,1.3-0.9,2.4-2.4,2.6
						C492.5,105.7,491.2,104.7,491,103.4L491,103.4z M493.8,103.6c0.2-0.2,0.2-0.4,0.1-0.7l-0.1-0.1c0.2,0,0.3,0.2,0.3,0.4
						C494.2,103.4,494,103.5,493.8,103.6L493.8,103.6z M490,100.5c0.1-0.1,0.2-0.3,0.4-0.4l0.5,0.7c-0.1,0-0.1,0.1-0.1,0.1
						L490,100.5z M478.8,92c0.3-0.4,0.6-0.7,0.9-1l4.1,0.7l3.7,0.5c0,0,0.1,0,0.1,0l4.2-0.3c-0.1,0.3-0.2,0.7-0.3,1
						c-2.1-0.4-5.1-0.8-5.9-0.2C485.2,93,481.8,92.5,478.8,92L478.8,92z M478.1,93.4c0-0.2,0.1-0.3,0.2-0.4c3.3,0.6,7.4,1.2,8.2,0.6
						c0.4-0.2,2.9,0,5.1,0.4c0,0.1,0,0.2,0,0.4c0,0.4,0.1,0.7,0.2,1c-0.3,0-0.7,0.1-1.1,0.1c-1.4,0.1-4.2,0.4-4.7,0.4
						c-0.3-0.1-1.7-0.4-8-1.3C477.9,94.1,478,93.8,478.1,93.4L478.1,93.4z M492.2,96.4c0.4,0.6,0.8,1.1,1.4,1.5l-14.5-0.7
						c-0.4-0.5-0.7-1.1-0.9-1.6c3.3,0.5,6.7,1,7.2,1.2c0.2,0.1,0.5,0.2,1.7,0.1c0.8-0.1,1.9-0.2,3.6-0.3
						C491.4,96.5,491.9,96.4,492.2,96.4L492.2,96.4z M480.1,101l3.8,0.5c0,0,0.1,0,0.1,0l4.2-0.3c-0.1,0.3-0.2,0.7-0.3,1
						c-2.1-0.4-5.1-0.8-5.9-0.2c-0.5,0.2-3.7-0.2-6.6-0.7c0.2-0.4,0.4-0.7,0.6-1L480.1,101z M488.5,105.7c0.3,0.5,0.7,0.9,1.1,1.3
						l-7.1-0.8c0.2,0,0.5,0,0.9,0c0.8-0.1,1.9-0.2,3.7-0.4C487.7,105.7,488.2,105.7,488.5,105.7L488.5,105.7z M477.1,99.4
						c0.6-0.4,1.1-0.6,1.3-0.7l11.7,0.2c-0.5,0.3-0.9,0.7-1.3,1.2l-4.9,0.3l-3.7-0.5L477.1,99.4L477.1,99.4z M480.9,90.1
						c0.6-0.3,1-0.6,1.2-0.7l11.7,0.2c-0.5,0.3-0.9,0.7-1.3,1.2l-4.9,0.3l-3.7-0.5L480.9,90.1L480.9,90.1z M502.1,93.6
						c0.3,2.3-1.6,4.4-4.2,4.5c-2.6,0.2-4.9-1.6-5.2-3.9c-0.3-2.3,1.6-4.4,4.2-4.5C499.5,89.5,501.9,91.3,502.1,93.6L502.1,93.6z
						 M504.5,102.5c0.1,0,0.1,0,0.2,0.1L504.5,102.5z M505.8,105c-0.3,0.2-0.7,0.3-1.1,0.3c-1.5,0.1-2.8-0.9-2.9-2.2
						c-0.1-1.3,0.9-2.4,2.4-2.6c1.5-0.1,2.8,0.9,2.9,2.2c0,0.2,0,0.5-0.1,0.7l-1-0.4c0-0.1,0-0.2,0-0.3c-0.1-0.8-0.9-1.4-1.8-1.3
						c-0.9,0.1-1.6,0.8-1.5,1.6c0.1,0.8,0.9,1.4,1.8,1.3c0.1,0,0.2,0,0.3,0L505.8,105z M504.9,107.1c-2.6,0.2-4.9-1.6-5.2-3.9
						c-0.3-2.3,1.6-4.4,4.2-4.5c2.6-0.2,4.9,1.6,5.2,3.9c0.1,1-0.2,2-0.8,2.7l-0.4-0.4l-0.1-0.3c0.3-0.6,0.5-1.2,0.4-2
						c-0.2-1.9-2.1-3.3-4.2-3.1c-2.1,0.1-3.6,1.8-3.4,3.7c0.2,1.9,2.1,3.3,4.2,3.1c0.7,0,1.3-0.3,1.8-0.6l0.3,0.8
						C506.4,106.8,505.7,107.1,504.9,107.1L504.9,107.1z M498.4,102.9c0.3,2.3-1.6,4.4-4.2,4.5c-2.6,0.2-4.9-1.6-5.2-3.9
						c-0.1-0.8,0.1-1.5,0.4-2.1l0.8,0.5c-0.2,0.5-0.3,1-0.3,1.6c0.2,1.9,2.1,3.3,4.2,3.1c2.1-0.1,3.6-1.8,3.4-3.7
						c-0.2-1.9-2.1-3.3-4.2-3.1c-0.5,0-1,0.2-1.5,0.4l-0.5-0.7c0.6-0.3,1.2-0.5,1.9-0.5C495.8,98.8,498.1,100.5,498.4,102.9
						L498.4,102.9z M476.6,105.5c-0.3-0.4-0.6-0.8-0.8-1.2c2.4,0.6,5.6,1.5,5.9,1.7c0,0,0.1,0,0.1,0L476.6,105.5L476.6,105.5z
						 M476.6,105.5"/>
					<path fill="#51A332" d="M497,90.5c-2.1,0.1-3.6,1.8-3.4,3.7c0.2,1.9,2.1,3.3,4.2,3.1c2.1-0.1,3.6-1.8,3.4-3.7
						C501,91.8,499.1,90.4,497,90.5L497,90.5z M497.7,96.3c-1.5,0.1-2.8-0.9-2.9-2.2c-0.1-1.3,0.9-2.4,2.4-2.6
						c1.5-0.1,2.8,0.9,2.9,2.2C500.2,95,499.1,96.2,497.7,96.3L497.7,96.3z M497.7,96.3"/>
				</g>
			</g>
			
				<polyline fill="none" stroke="#51A332" stroke-width="1.7843" stroke-linecap="round" stroke-linejoin="round" stroke-miterlimit="10" points="
				532.3,116.5 538.1,116.5 538.1,104.8 532.6,87.7 517.6,87.7 517.5,110.8 468.8,110.6 468.8,116.5 471.6,116.5 			"/>
			
				<line fill="none" stroke="#51A332" stroke-width="1.7843" stroke-linecap="round" stroke-linejoin="round" stroke-miterlimit="10" x1="496" y1="116.5" x2="521.9" y2="116.5"/>
			
				<line fill="none" stroke="#51A332" stroke-width="1.7843" stroke-linecap="round" stroke-linejoin="round" stroke-miterlimit="10" x1="482.3" y1="116.5" x2="485" y2="116.5"/>
			
				<path fill="none" stroke="#51A332" stroke-width="1.7843" stroke-linecap="round" stroke-linejoin="round" stroke-miterlimit="10" d="
				M482.8,118.7c0,3.2-2.6,5.8-5.8,5.8c-3.2,0-5.8-2.6-5.8-5.8c0-3.2,2.6-5.8,5.8-5.8c2.3,0,4.2,1.3,5.2,3.2
				C482.6,116.9,482.8,117.8,482.8,118.7z"/>
			
				<circle fill="none" stroke="#51A332" stroke-width="1.7843" stroke-linecap="round" stroke-linejoin="round" stroke-miterlimit="10" cx="490.6" cy="118.7" r="5.8"/>
			
				<circle fill="none" stroke="#51A332" stroke-width="1.7843" stroke-linecap="round" stroke-linejoin="round" stroke-miterlimit="10" cx="527.1" cy="118.7" r="5.8"/>
			
				<line fill="none" stroke="#51A332" stroke-width="1.7843" stroke-linecap="round" stroke-linejoin="round" stroke-miterlimit="10" x1="517.6" y1="110.4" x2="517.6" y2="116.5"/>
			
				<path fill="none" stroke="#51A332" stroke-width="1.7843" stroke-linecap="round" stroke-linejoin="round" stroke-miterlimit="10" d="
				M525.6,88c-0.1,0.5,0.1,14.6,0.1,14.6l12.3,2.9"/>
			
				<line fill="none" stroke="#51A332" stroke-width="1.7843" stroke-linecap="round" stroke-linejoin="round" stroke-miterlimit="10" x1="537.8" y1="109.5" x2="535.2" y2="109.5"/>
		</g>
		<g>
			<g>
				<g>
					<path fill="#51A332" d="M616.7,60.8c-0.8-0.1-1.4,0.5-1.5,1.3c-0.1,0.8,0.5,1.4,1.3,1.5c0.8,0.1,1.4-0.5,1.5-1.3
						C618.1,61.5,617.5,60.9,616.7,60.8L616.7,60.8z M616.6,62.6c-0.2,0-0.4-0.2-0.4-0.4c0-0.2,0.2-0.4,0.4-0.4
						c0.2,0,0.4,0.2,0.4,0.4C617,62.4,616.8,62.6,616.6,62.6L616.6,62.6z M616.6,62.6"/>
					<path fill="#51A332" d="M636.4,69.6c0-0.1-0.1-0.2-0.2-0.3c0,0,0,0,0,0c-0.7-2.3-3.2-3.2-3.3-3.3c0,0,0,0,0,0
						c0.5-0.8,0.9-1.6,1-2.4c0-0.1,0-0.1,0-0.2c0.1-0.6,0.1-1.2-0.1-1.8c-0.7-2.8-4-4.3-4.1-4.4c-0.1,0-0.1,0-0.2,0L617,57.2l0,0
						c-2.7-0.2-5.1,1.8-5.3,4.5c-0.2,2.7,1.8,5.2,4.5,5.4c0.2,0,0.3,0,0.5,0c-0.5,0.4-1,1-1.3,1.6c-0.7-1.7-2.2-3-4.2-3.1
						c-2.7-0.2-5.2,1.8-5.4,4.5c-0.1,1.4,0.4,2.8,1.3,3.8c0,0,0,0,0,0c0,0,0,0,0,0c0.2,0.2,0.4,0.4,0.7,0.6c0,0,0,0,0,0
						c0.7,0.5,1.5,0.9,2.5,0.9c2.1,0.2,4-1,4.9-2.7c0.7,1.7,2.2,3,4.2,3.1c0.5,0,0.9,0,1.4-0.1l0,0l13.9-1.6c0.1,0,0.3-0.1,0.3-0.2
						c1.1-1.5,1.5-2.8,1.4-4.1C636.4,69.8,636.5,69.7,636.4,69.6L636.4,69.6z M635.3,71.2c-0.1,0-0.2-0.1-0.3,0
						c-2.2,0.6-4.9,1.4-5.5,1.7c-0.5,0.1-2.8-0.3-4-0.4c-0.4,0-0.7-0.1-0.9-0.1c0.1-0.3,0.2-0.6,0.2-1c0-0.1,0-0.2,0-0.3
						c1.8-0.4,3.9-0.6,4.3-0.4c0.7,0.5,3.7,0.1,6.3-0.4C635.4,70.6,635.4,70.9,635.3,71.2L635.3,71.2z M622,71.1
						c-0.1,1.2-1.2,2.1-2.4,2c-1.2-0.1-2.1-1.2-2-2.4c0.1-1.2,1.2-2.1,2.4-2c0.3,0,0.6,0.1,0.8,0.2l-0.5,0.7c-0.1,0-0.2-0.1-0.4-0.1
						c-0.8-0.1-1.4,0.5-1.5,1.3c-0.1,0.8,0.5,1.4,1.3,1.5c0.8,0.1,1.4-0.5,1.5-1.3c0-0.1,0-0.2,0-0.3l0.8-0.5
						C622,70.6,622.1,70.8,622,71.1L622,71.1z M619.7,71.3c-0.2-0.1-0.3-0.2-0.3-0.4c0-0.2,0.1-0.3,0.3-0.3l-0.1,0.1
						C619.5,70.9,619.5,71.1,619.7,71.3L619.7,71.3z M622.3,68.9c0,0-0.1-0.1-0.1-0.1l0.4-0.6c0.1,0.1,0.2,0.2,0.3,0.4L622.3,68.9z
						 M632.3,60.5c-2.5,0.5-5.3,0.9-5.8,0.7c-0.7-0.6-3.2-0.2-5,0.1c-0.1-0.3-0.1-0.6-0.3-0.9l3.5,0.3c0,0,0.1,0,0.1,0l3.2-0.5
						l3.5-0.6C631.8,59.8,632,60.1,632.3,60.5L632.3,60.5z M632.9,61.8c0.1,0.4,0.1,0.7,0.1,1.1c-5.3,0.8-6.4,1.1-6.7,1.2
						c-0.4,0.1-2.8-0.2-4-0.4c-0.4,0-0.7-0.1-0.9-0.1c0.1-0.3,0.2-0.6,0.2-1c0-0.1,0-0.2,0-0.3c1.8-0.4,3.9-0.6,4.3-0.4
						c0.7,0.6,4.1,0,6.9-0.5C632.8,61.5,632.8,61.7,632.9,61.8L632.9,61.8z M621,64.5c0.3,0,0.7,0.1,1.2,0.1
						c1.4,0.2,2.4,0.3,3.1,0.4c1,0.1,1.3,0.1,1.5-0.1c0.4-0.1,3.3-0.6,6.1-1c-0.2,0.5-0.4,1-0.8,1.5L619.8,66
						C620.3,65.6,620.7,65.1,621,64.5L621,64.5z M634.7,68.4c0.2,0.3,0.4,0.6,0.5,1c-2.4,0.5-5.1,0.8-5.5,0.6
						c-0.7-0.6-3.2-0.2-5,0.1c-0.1-0.3-0.2-0.6-0.3-0.9l3.5,0.3c0,0,0.1,0,0.1,0l3.2-0.5L634.7,68.4z M624.2,73.3
						c0.3,0,0.7,0.1,1.2,0.1c1.5,0.2,2.4,0.3,3.1,0.4c0.3,0,0.5,0,0.7,0l-6,0.7C623.6,74.2,623.9,73.8,624.2,73.3L624.2,73.3z
						 M633.8,67.5l-2.7,0.5l-3.1,0.5l-4.1-0.4c-0.3-0.4-0.7-0.8-1.1-1.1l9.9-0.1C632.8,67,633.3,67.2,633.8,67.5L633.8,67.5z
						 M630.5,58.7l-2.6,0.5l-3.1,0.5l-4.1-0.4c-0.3-0.4-0.7-0.8-1.1-1.1l9.9-0.1C629.6,58.2,630,58.4,630.5,58.7L630.5,58.7z
						 M612.6,61.8c0.2-2.2,2.1-3.8,4.3-3.6c2.2,0.2,3.8,2.1,3.6,4.3c-0.2,2.2-2.1,3.8-4.3,3.6C614.1,65.9,612.4,64,612.6,61.8
						L612.6,61.8z M610.5,70.2c0,0,0.1,0,0.1-0.1L610.5,70.2z M610.4,71.9c0.1,0,0.1,0,0.2,0c0.8,0.1,1.4-0.5,1.5-1.3
						c0.1-0.8-0.5-1.4-1.3-1.5c-0.8-0.1-1.4,0.5-1.5,1.3c0,0.1,0,0.2,0,0.3l-0.8,0.3c0-0.2-0.1-0.4-0.1-0.7c0.1-1.2,1.2-2.1,2.4-2
						c1.2,0.1,2.1,1.2,2,2.4c-0.1,1.2-1.2,2.1-2.4,2c-0.3,0-0.6-0.1-0.9-0.3L610.4,71.9z M610.4,74.5c-0.6-0.1-1.2-0.3-1.7-0.6
						l0.2-0.7c0.4,0.3,1,0.5,1.5,0.6c1.8,0.2,3.3-1.2,3.5-2.9c0.2-1.8-1.2-3.4-2.9-3.5c-1.8-0.2-3.3,1.2-3.5,2.9
						c-0.1,0.7,0.1,1.3,0.4,1.8l-0.1,0.3l-0.4,0.4c-0.5-0.7-0.7-1.6-0.7-2.6c0.2-2.2,2.1-3.8,4.3-3.6c2.2,0.2,3.8,2.1,3.6,4.3
						C614.5,73.1,612.6,74.7,610.4,74.5L610.4,74.5z M615.9,70.6c0.2-2.2,2.1-3.8,4.3-3.6c0.6,0.1,1.1,0.2,1.6,0.5l-0.4,0.6
						c-0.4-0.2-0.8-0.3-1.3-0.4c-1.8-0.2-3.4,1.2-3.5,2.9c-0.2,1.8,1.2,3.3,2.9,3.5c1.8,0.2,3.3-1.2,3.5-2.9c0-0.5,0-1.1-0.2-1.5
						l0.6-0.4c0.3,0.6,0.4,1.3,0.3,2c-0.2,2.2-2.1,3.8-4.3,3.6C617.3,74.7,615.7,72.8,615.9,70.6L615.9,70.6z M634.3,73.3l-4.4,0.5
						c0,0,0.1,0,0.1,0c0.3-0.2,3-1,5-1.6C634.7,72.6,634.5,72.9,634.3,73.3L634.3,73.3z M634.3,73.3"/>
					<path fill="#51A332" d="M616.9,58.9c-1.8-0.2-3.3,1.2-3.5,2.9c-0.2,1.8,1.2,3.4,2.9,3.5c1.8,0.2,3.3-1.2,3.5-2.9
						C620,60.7,618.7,59.1,616.9,58.9L616.9,58.9z M616.4,64.4c-1.2-0.1-2.1-1.2-2-2.4c0.1-1.2,1.2-2.1,2.4-2c1.2,0.1,2.1,1.2,2,2.4
						C618.7,63.6,617.6,64.5,616.4,64.4L616.4,64.4z M616.4,64.4"/>
				</g>
				<g>
					<path fill="#51A332" d="M646.5,60.8c-0.8-0.1-1.4,0.5-1.5,1.3c-0.1,0.8,0.5,1.4,1.3,1.5c0.8,0.1,1.4-0.5,1.5-1.3
						C647.8,61.5,647.2,60.9,646.5,60.8L646.5,60.8z M646.3,62.6c-0.2,0-0.4-0.2-0.4-0.4c0-0.2,0.2-0.4,0.4-0.4
						c0.2,0,0.4,0.2,0.4,0.4C646.7,62.4,646.5,62.6,646.3,62.6L646.3,62.6z M646.3,62.6"/>
					<path fill="#51A332" d="M666.2,69.6c0-0.1-0.1-0.2-0.2-0.3c0,0,0,0,0,0c-0.7-2.3-3.2-3.2-3.3-3.3c0,0,0,0,0,0
						c0.5-0.8,0.9-1.6,1-2.4c0-0.1,0-0.1,0-0.2c0.1-0.6,0.1-1.2-0.1-1.8c-0.7-2.8-4-4.3-4.1-4.4c-0.1,0-0.1,0-0.2,0l-12.5,0.1l0,0
						c-2.7-0.2-5.1,1.8-5.3,4.5c-0.2,2.7,1.8,5.2,4.5,5.4c0.2,0,0.3,0,0.5,0c-0.5,0.4-1,1-1.3,1.6c-0.7-1.7-2.2-3-4.2-3.1
						c-2.7-0.2-5.2,1.8-5.4,4.5c-0.1,1.4,0.4,2.8,1.3,3.8c0,0,0,0,0,0c0,0,0,0,0,0c0.2,0.2,0.4,0.4,0.7,0.6c0,0,0,0,0,0
						c0.7,0.5,1.5,0.9,2.5,0.9c2.1,0.2,4-1,4.9-2.7c0.7,1.7,2.2,3,4.2,3.1c0.5,0,0.9,0,1.4-0.1l0,0l13.9-1.6c0.1,0,0.3-0.1,0.3-0.2
						c1.1-1.5,1.5-2.8,1.4-4.1C666.2,69.8,666.2,69.7,666.2,69.6L666.2,69.6z M665,71.2c-0.1,0-0.2-0.1-0.3,0
						c-2.2,0.6-4.9,1.4-5.5,1.7c-0.5,0.1-2.8-0.3-4-0.4c-0.4,0-0.7-0.1-0.9-0.1c0.1-0.3,0.2-0.6,0.2-1c0-0.1,0-0.2,0-0.3
						c1.8-0.4,3.9-0.6,4.3-0.4c0.7,0.5,3.7,0.1,6.3-0.4C665.1,70.6,665.1,70.9,665,71.2L665,71.2z M651.8,71.1
						c-0.1,1.2-1.2,2.1-2.4,2c-1.2-0.1-2.1-1.2-2-2.4c0.1-1.2,1.2-2.1,2.4-2c0.3,0,0.6,0.1,0.8,0.2l-0.5,0.7c-0.1,0-0.2-0.1-0.4-0.1
						c-0.8-0.1-1.4,0.5-1.5,1.3c-0.1,0.8,0.5,1.4,1.3,1.5c0.8,0.1,1.4-0.5,1.5-1.3c0-0.1,0-0.2,0-0.3l0.8-0.5
						C651.8,70.6,651.8,70.8,651.8,71.1L651.8,71.1z M649.4,71.3c-0.2-0.1-0.3-0.2-0.3-0.4c0-0.2,0.1-0.3,0.3-0.3l-0.1,0.1
						C649.2,70.9,649.3,71.1,649.4,71.3L649.4,71.3z M652,68.9c0,0-0.1-0.1-0.1-0.1l0.4-0.6c0.1,0.1,0.2,0.2,0.3,0.4L652,68.9z
						 M662,60.5c-2.5,0.5-5.3,0.9-5.8,0.7c-0.7-0.6-3.2-0.2-5,0.1c-0.1-0.3-0.1-0.6-0.3-0.9l3.5,0.3c0,0,0.1,0,0.1,0l3.2-0.5
						l3.5-0.6C661.5,59.8,661.8,60.1,662,60.5L662,60.5z M662.6,61.8c0.1,0.4,0.1,0.7,0.1,1.1c-5.3,0.8-6.4,1.1-6.7,1.2
						c-0.4,0.1-2.8-0.2-4-0.4c-0.4,0-0.7-0.1-0.9-0.1c0.1-0.3,0.2-0.6,0.2-1c0-0.1,0-0.2,0-0.3c1.8-0.4,3.9-0.6,4.3-0.4
						c0.7,0.6,4.1,0,6.9-0.5C662.5,61.5,662.6,61.7,662.6,61.8L662.6,61.8z M650.7,64.5c0.3,0,0.7,0.1,1.2,0.1
						c1.4,0.2,2.4,0.3,3.1,0.4c1,0.1,1.3,0.1,1.5-0.1c0.4-0.1,3.3-0.6,6.1-1c-0.2,0.5-0.4,1-0.8,1.5L649.5,66
						C650,65.6,650.4,65.1,650.7,64.5L650.7,64.5z M664.4,68.4c0.2,0.3,0.4,0.6,0.5,1c-2.4,0.5-5.1,0.8-5.5,0.6
						c-0.7-0.6-3.2-0.2-5,0.1c-0.1-0.3-0.2-0.6-0.3-0.9l3.5,0.3c0,0,0.1,0,0.1,0L661,69L664.4,68.4z M653.9,73.3
						c0.3,0,0.7,0.1,1.2,0.1c1.5,0.2,2.4,0.3,3.1,0.4c0.3,0,0.5,0,0.7,0l-6,0.7C653.3,74.2,653.7,73.8,653.9,73.3L653.9,73.3z
						 M663.5,67.5l-2.7,0.5l-3.1,0.5l-4.1-0.4c-0.3-0.4-0.7-0.8-1.1-1.1l9.9-0.1C662.6,67,663,67.2,663.5,67.5L663.5,67.5z
						 M660.2,58.7l-2.6,0.5l-3.1,0.5l-4.1-0.4c-0.3-0.4-0.7-0.8-1.1-1.1l9.9-0.1C659.3,58.2,659.7,58.4,660.2,58.7L660.2,58.7z
						 M642.4,61.8c0.2-2.2,2.1-3.8,4.3-3.6c2.2,0.2,3.8,2.1,3.6,4.3c-0.2,2.2-2.1,3.8-4.3,3.6C643.8,65.9,642.2,64,642.4,61.8
						L642.4,61.8z M640.3,70.2c0,0,0.1,0,0.1-0.1L640.3,70.2z M640.1,71.9c0.1,0,0.1,0,0.2,0c0.8,0.1,1.4-0.5,1.5-1.3
						c0.1-0.8-0.5-1.4-1.3-1.5c-0.8-0.1-1.4,0.5-1.5,1.3c0,0.1,0,0.2,0,0.3l-0.8,0.3c0-0.2-0.1-0.4-0.1-0.7c0.1-1.2,1.2-2.1,2.4-2
						c1.2,0.1,2.1,1.2,2,2.4c-0.1,1.2-1.2,2.1-2.4,2c-0.3,0-0.6-0.1-0.9-0.3L640.1,71.9z M640.1,74.5c-0.6-0.1-1.2-0.3-1.7-0.6
						l0.2-0.7c0.4,0.3,1,0.5,1.5,0.6c1.8,0.2,3.3-1.2,3.5-2.9s-1.2-3.4-2.9-3.5c-1.8-0.2-3.3,1.2-3.5,2.9c-0.1,0.7,0.1,1.3,0.4,1.8
						l-0.1,0.3l-0.4,0.4c-0.5-0.7-0.7-1.6-0.7-2.6c0.2-2.2,2.1-3.8,4.3-3.6c2.2,0.2,3.8,2.1,3.6,4.3
						C644.2,73.1,642.3,74.7,640.1,74.5L640.1,74.5z M645.6,70.6c0.2-2.2,2.1-3.8,4.3-3.6c0.6,0.1,1.1,0.2,1.6,0.5l-0.4,0.6
						c-0.4-0.2-0.8-0.3-1.3-0.4c-1.8-0.2-3.4,1.2-3.5,2.9c-0.2,1.8,1.2,3.3,2.9,3.5c1.8,0.2,3.3-1.2,3.5-2.9c0-0.5,0-1.1-0.2-1.5
						l0.6-0.4c0.3,0.6,0.4,1.3,0.3,2c-0.2,2.2-2.1,3.8-4.3,3.6C647,74.7,645.4,72.8,645.6,70.6L645.6,70.6z M664,73.3l-4.4,0.5
						c0,0,0.1,0,0.1,0c0.3-0.2,3-1,5-1.6C664.5,72.6,664.3,72.9,664,73.3L664,73.3z M664,73.3"/>
					<path fill="#51A332" d="M646.6,58.9c-1.8-0.2-3.3,1.2-3.5,2.9s1.2,3.4,2.9,3.5c1.8,0.2,3.3-1.2,3.5-2.9
						C649.7,60.7,648.4,59.1,646.6,58.9L646.6,58.9z M646.1,64.4c-1.2-0.1-2.1-1.2-2-2.4c0.1-1.2,1.2-2.1,2.4-2
						c1.2,0.1,2.1,1.2,2,2.4C648.5,63.6,647.4,64.5,646.1,64.4L646.1,64.4z M646.1,64.4"/>
				</g>
			</g>
			
				<polyline fill="none" stroke="#51A332" stroke-width="2.0482" stroke-linecap="round" stroke-linejoin="round" stroke-miterlimit="10" points="
				587.7,83.7 581,83.7 581,70.3 587.3,50.7 604.5,50.7 604.6,77.2 660.6,77 660.6,83.7 657.3,83.7 			"/>
			
				<line fill="none" stroke="#51A332" stroke-width="2.0482" stroke-linecap="round" stroke-linejoin="round" stroke-miterlimit="10" x1="629.4" y1="83.7" x2="599.6" y2="83.7"/>
			
				<line fill="none" stroke="#51A332" stroke-width="2.0482" stroke-linecap="round" stroke-linejoin="round" stroke-miterlimit="10" x1="645.1" y1="83.7" x2="641.9" y2="83.7"/>
			
				<path fill="none" stroke="#51A332" stroke-width="2.0482" stroke-linecap="round" stroke-linejoin="round" stroke-miterlimit="10" d="
				M644.5,86.3c0,3.7,3,6.6,6.6,6.6c3.7,0,6.6-3,6.6-6.6s-3-6.6-6.6-6.6c-2.6,0-4.9,1.5-5.9,3.7C644.8,84.3,644.5,85.3,644.5,86.3z"
				/>
			
				<circle fill="none" stroke="#51A332" stroke-width="2.0482" stroke-linecap="round" stroke-linejoin="round" stroke-miterlimit="10" cx="635.6" cy="86.3" r="6.6"/>
			
				<circle fill="none" stroke="#51A332" stroke-width="2.0482" stroke-linecap="round" stroke-linejoin="round" stroke-miterlimit="10" cx="593.6" cy="86.3" r="6.6"/>
			
				<line fill="none" stroke="#51A332" stroke-width="2.0482" stroke-linecap="round" stroke-linejoin="round" stroke-miterlimit="10" x1="604.5" y1="76.8" x2="604.5" y2="83.8"/>
			
				<path fill="none" stroke="#51A332" stroke-width="2.0482" stroke-linecap="round" stroke-linejoin="round" stroke-miterlimit="10" d="
				M595.4,51c0.1,0.5-0.1,16.8-0.1,16.8l-14.1,3.3"/>
			
				<line fill="none" stroke="#51A332" stroke-width="2.0482" stroke-linecap="round" stroke-linejoin="round" stroke-miterlimit="10" x1="581.3" y1="75.7" x2="584.3" y2="75.7"/>
		</g>
	</g>
</g>
<g id="B1" display="none">
</g>
</svg>
