<?xml version="1.0" encoding="utf-8"?>
<!-- Generator: Adobe Illustrator 18.0.0, SVG Export Plug-In . SVG Version: 6.00 Build 0)  -->
<!DOCTYPE svg PUBLIC "-//W3C//DTD SVG 1.1//EN" "http://www.w3.org/Graphics/SVG/1.1/DTD/svg11.dtd">
<svg version="1.1" id="Sustainability_Vision" xmlns="http://www.w3.org/2000/svg" xmlns:xlink="http://www.w3.org/1999/xlink"
	 x="0px" y="0px" viewBox="0 0 1008 568" enable-background="new 0 0 1008 568" xml:space="preserve">
<g>
	<g>
		<defs>
			<path id="SVGID_176_" d="M30,531.2c0,10.3,8.3,18.6,18.6,18.6h910.7c10.3,0,18.6-8.3,18.6-18.6V36.8c0-10.3-8.3-18.6-18.6-18.6
				H48.6C38.3,18.2,30,26.5,30,36.8V531.2z"/>
		</defs>
		<clipPath id="SVGID_2_">
			<use xlink:href="#SVGID_176_"  overflow="visible"/>
		</clipPath>
		<use xlink:href="#SVGID_176_"  overflow="visible" fill="none" stroke="#F4F4F4" stroke-width="3" stroke-miterlimit="10"/>
	</g>
	<g>
		<g>
			<g>
				
					<rect x="103.1" y="67.7" fill="none" stroke="#DDDCDA" stroke-width="2.8488" stroke-miterlimit="10" width="799.4" height="411.1"/>
				
					<line fill="none" stroke="#DDDCDA" stroke-width="2.8488" stroke-miterlimit="10" x1="103.1" y1="437.7" x2="902.5" y2="437.7"/>
				
					<line fill="none" stroke="#DDDCDA" stroke-width="2.8488" stroke-miterlimit="10" x1="103.1" y1="396.6" x2="902.5" y2="396.6"/>
				
					<line fill="none" stroke="#DDDCDA" stroke-width="2.8488" stroke-miterlimit="10" x1="103.1" y1="355.5" x2="902.5" y2="355.5"/>
				
					<line fill="none" stroke="#DDDCDA" stroke-width="2.8488" stroke-miterlimit="10" x1="103.1" y1="314.4" x2="902.5" y2="314.4"/>
				
					<line fill="none" stroke="#DDDCDA" stroke-width="2.8488" stroke-miterlimit="10" x1="103.1" y1="273.3" x2="902.5" y2="273.3"/>
				
					<line fill="none" stroke="#DDDCDA" stroke-width="2.8488" stroke-miterlimit="10" x1="103.1" y1="232.2" x2="902.5" y2="232.2"/>
				
					<line fill="none" stroke="#DDDCDA" stroke-width="2.8488" stroke-miterlimit="10" x1="103.1" y1="191.1" x2="902.5" y2="191.1"/>
				
					<line fill="none" stroke="#DDDCDA" stroke-width="2.8488" stroke-miterlimit="10" x1="103.1" y1="149.9" x2="902.5" y2="149.9"/>
				
					<line fill="none" stroke="#DDDCDA" stroke-width="2.8488" stroke-miterlimit="10" x1="103.1" y1="108.8" x2="902.5" y2="108.8"/>
				<line fill="none" stroke="#DDDCDA" stroke-width="2.8488" stroke-miterlimit="10" x1="769.2" y1="67.7" x2="769.2" y2="478.8"/>
				<line fill="none" stroke="#DDDCDA" stroke-width="2.8488" stroke-miterlimit="10" x1="636" y1="67.7" x2="636" y2="478.8"/>
				<line fill="none" stroke="#DDDCDA" stroke-width="2.8488" stroke-miterlimit="10" x1="502.8" y1="67.7" x2="502.8" y2="478.8"/>
				<line fill="none" stroke="#DDDCDA" stroke-width="2.8488" stroke-miterlimit="10" x1="369.5" y1="67.7" x2="369.5" y2="478.8"/>
				<line fill="none" stroke="#DDDCDA" stroke-width="2.8488" stroke-miterlimit="10" x1="236.3" y1="67.7" x2="236.3" y2="478.8"/>
			</g>
			<polyline fill="none" stroke="#8CC640" stroke-width="5.6977" stroke-miterlimit="10" points="103.1,441.6 213.6,365.4 
				292.4,417.9 365,228.2 512.9,387.4 537.7,289.2 773.7,318 902.5,165.5 			"/>
			<polyline fill="none" stroke="#51A332" stroke-width="5.6977" stroke-miterlimit="10" points="103.1,358.6 244.7,271.4 
				432.8,351.8 505.8,189.7 637.7,249.9 673.9,92.6 903,67.7 			"/>
			<circle fill="#DDDCDA" cx="103.1" cy="108.8" r="7.8"/>
			<circle fill="#DDDCDA" cx="103.1" cy="149.9" r="7.8"/>
			<circle fill="#DDDCDA" cx="103.1" cy="191.1" r="7.8"/>
			<circle fill="#DDDCDA" cx="103.1" cy="232.2" r="7.8"/>
			<circle fill="#DDDCDA" cx="103.1" cy="273.3" r="7.8"/>
			<circle fill="#DDDCDA" cx="103.1" cy="314.4" r="7.8"/>
			<circle fill="#DDDCDA" cx="103.1" cy="396.6" r="7.8"/>
			<circle fill="#DDDCDA" cx="103.1" cy="437.7" r="7.8"/>
			<circle fill="#DDDCDA" cx="103.1" cy="478.8" r="7.8"/>
			<polyline fill="none" stroke="#009347" stroke-width="5.6977" stroke-miterlimit="10" points="105.9,355.5 174.8,259.2 
				345.8,360.4 428.8,247.3 570.7,367.7 696.7,348 777.2,216.4 902.5,223.2 			"/>
			<circle fill="#DDDCDA" cx="105.9" cy="355.5" r="7.8"/>
			<g>
				<g>
					<path fill="#C4C4C4" d="M849.3,504.6v3.3h-3.8l-1.2,8h-3.3l1.2-8h-3.2l-1.2,8h-3.3l1.2-8h-3.8v-3.3h4.3l0.5-3.1h-3.7v-3.3h4.2
						l1.1-7.4h3.3l-1,7.4h3.2l1.1-7.4h3.3l-1.1,7.4h3.4v3.3h-3.8l-0.4,3.1H849.3z M843,501.4h-3.2l-0.5,3.1h3.2L843,501.4z"/>
				</g>
			</g>
			<g>
				<g>
					<path fill="#C4C4C4" d="M711.3,504.6v3.3h-3.8l-1.2,8h-3.3l1.2-8h-3.2l-1.2,8h-3.3l1.2-8h-3.8v-3.3h4.3l0.5-3.1h-3.7v-3.3h4.2
						l1.1-7.4h3.3l-1,7.4h3.2l1.1-7.4h3.3l-1.1,7.4h3.4v3.3h-3.8l-0.4,3.1H711.3z M705,501.4h-3.2l-0.5,3.1h3.2L705,501.4z"/>
				</g>
			</g>
			<g>
				<g>
					<path fill="#C4C4C4" d="M580.8,504.6v3.3h-3.8l-1.2,8h-3.3l1.2-8h-3.2l-1.2,8h-3.3l1.2-8h-3.8v-3.3h4.3l0.5-3.1h-3.7v-3.3h4.2
						l1.1-7.4h3.3l-1,7.4h3.2l1.1-7.4h3.3l-1.1,7.4h3.4v3.3h-3.8l-0.4,3.1H580.8z M574.6,501.4h-3.2l-0.5,3.1h3.2L574.6,501.4z"/>
				</g>
			</g>
			<g>
				<g>
					<path fill="#C4C4C4" d="M445.8,504.6v3.3H442l-1.2,8h-3.3l1.2-8h-3.2l-1.2,8h-3.3l1.2-8h-3.8v-3.3h4.3l0.5-3.1h-3.7v-3.3h4.2
						l1.1-7.4h3.3l-1,7.4h3.2l1.1-7.4h3.3l-1.1,7.4h3.4v3.3h-3.8l-0.4,3.1H445.8z M439.6,501.4h-3.2l-0.5,3.1h3.2L439.6,501.4z"/>
				</g>
			</g>
			<g>
				<g>
					<path fill="#C4C4C4" d="M309.3,504.6v3.3h-3.8l-1.2,8h-3.3l1.2-8h-3.2l-1.2,8h-3.3l1.2-8h-3.8v-3.3h4.3l0.5-3.1h-3.7v-3.3h4.2
						l1.1-7.4h3.3l-1,7.4h3.2l1.1-7.4h3.3l-1.1,7.4h3.4v3.3h-3.8l-0.4,3.1H309.3z M303.1,501.4h-3.2l-0.5,3.1h3.2L303.1,501.4z"/>
				</g>
			</g>
			<g>
				<g>
					<path fill="#C4C4C4" d="M174.3,504.6v3.3h-3.8l-1.2,8h-3.3l1.2-8h-3.2l-1.2,8h-3.3l1.2-8h-3.8v-3.3h4.3l0.5-3.1h-3.7v-3.3h4.2
						l1.1-7.4h3.3l-1,7.4h3.2l1.1-7.4h3.3l-1.1,7.4h3.4v3.3h-3.8l-0.4,3.1H174.3z M168.1,501.4h-3.2l-0.5,3.1h3.2L168.1,501.4z"/>
				</g>
			</g>
			<circle fill="#51A332" cx="244.7" cy="271.4" r="7.3"/>
			<circle fill="#009347" cx="173.7" cy="257.6" r="7.3"/>
			<circle fill="#009347" cx="428.8" cy="247.3" r="7.3"/>
			<circle fill="#009347" cx="344.7" cy="360.4" r="7.3"/>
			<circle fill="#009347" cx="570.7" cy="367.7" r="7.3"/>
			<circle fill="#009347" cx="696.7" cy="346.5" r="7.3"/>
			<circle fill="#009347" cx="777.2" cy="216.4" r="7.3"/>
			<circle fill="#009347" cx="902.5" cy="223.8" r="7.3"/>
			<circle fill="#8CC640" cx="213.5" cy="363.3" r="7.3"/>
			<circle fill="#8CC640" cx="364.6" cy="228.9" r="7.3"/>
			<circle fill="#8CC640" cx="537.1" cy="289.1" r="7.3"/>
			<circle fill="#8CC640" cx="774.1" cy="319" r="7.3"/>
			<circle fill="#8CC640" cx="903" cy="163.1" r="7.3"/>
			<circle fill="#51A332" cx="506.8" cy="191.1" r="7.3"/>
			<circle fill="#51A332" cx="673.9" cy="92.6" r="7.3"/>
			<circle fill="#51A332" cx="903" cy="67.7" r="7.3"/>
		</g>
	</g>
</g>
</svg>
