<?xml version="1.0" encoding="utf-8"?>
<!-- Generator: Adobe Illustrator 18.0.0, SVG Export Plug-In . SVG Version: 6.00 Build 0)  -->
<!DOCTYPE svg PUBLIC "-//W3C//DTD SVG 1.1//EN" "http://www.w3.org/Graphics/SVG/1.1/DTD/svg11.dtd" [
	<!ENTITY ns_flows "http://ns.adobe.com/Flows/1.0/">
	<!ENTITY ns_extend "http://ns.adobe.com/Extensibility/1.0/">
	<!ENTITY ns_ai "http://ns.adobe.com/AdobeIllustrator/10.0/">
	<!ENTITY ns_graphs "http://ns.adobe.com/Graphs/1.0/">
]>
<svg version="1.1" xmlns:x="&ns_extend;" xmlns:i="&ns_ai;" xmlns:graph="&ns_graphs;"
	 xmlns="http://www.w3.org/2000/svg" xmlns:xlink="http://www.w3.org/1999/xlink" xmlns:a="http://ns.adobe.com/AdobeSVGViewerExtensions/3.0/"
	 x="0px" y="0px" viewBox="0 0 120 123" enable-background="new 0 0 120 123" xml:space="preserve">
<g id="B1">
</g>
<g id="_x31_">
	<g opacity="8.000000e-02">
		<defs>
			<rect id="SVGID_143_" x="-330.3" y="-946.3" opacity="8.000000e-02" width="1920.2" height="868.1"/>
		</defs>
		<clipPath id="SVGID_2_">
			<use xlink:href="#SVGID_143_"  overflow="visible"/>
		</clipPath>
		<g clip-path="url(#SVGID_2_)">
			<defs>
				<rect id="SVGID_145_" x="-342" y="-1012.7" width="1921.7" height="1494.7"/>
			</defs>
			<clipPath id="SVGID_4_">
				<use xlink:href="#SVGID_145_"  overflow="visible"/>
			</clipPath>
			<rect x="-342" y="-1012.7" clip-path="url(#SVGID_4_)" fill="none" width="1921.7" height="1494.7"/>
			<g clip-path="url(#SVGID_4_)">
				<path id="mountains_3_" fill="none" stroke="#C5C5C5" stroke-width="5.2916" stroke-miterlimit="10" d="M-15-712.1l-123.7-154.1
					c-18-22.4-59.9-22.2-77.6,0.3l-107.2,136.4c-4.4,5.6-6.7,12-6.7,18.5v876c0,1.2,0.1,2.4,0.2,3.7v33.8h1896.9v-426.2h-1
					l-0.8-463.5c0-8-3.5-15.7-9.9-22l-249.5-244.9c-17.5-17.2-50.7-18-69.6-1.7L879.3-648.4c-18.4,15.9-50.5,15.6-68.4-0.6
					l-92.2-83.3c-19.1-17.3-53.8-16.3-71.3,2l-43.6,45.9"/>
				<g id="mountains_2_">
					<path fill="none" stroke="#C2C2C2" stroke-width="5.2916" stroke-miterlimit="10" d="M-328.9-697l-0.6,288.2h-0.8V71.7h1897.2
						V1.3v-410.1V-725c0-12.6-5.1-25-14.6-35.7l-55.2-62c-20.8-23.4-57-34.3-92.2-32.6"/>
					<path fill="none" stroke="#B4B4B4" stroke-width="5.2916" stroke-miterlimit="10" d="M-328.9-654.9l-0.6,277.8h-0.8V71.7
						h1897.2V5.1v-382.1v-304.3c0-11.9-5.1-23.6-14.6-33.8"/>
				</g>
				<g id="landscape_4_">
					<path fill="#DDDDDD" d="M1566.9,139.6l-2-518.2c0,0-353.2-7-575.7,70.5c-222.5,77.5-365.5,144.8-654,183.8
						c-288.5,39-340.8-16.7-665.5-16l0.7,168.3h-0.2v189.8h1896v-78.3L1566.9,139.6z"/>
				</g>
				<g>
					<defs>
						<rect id="SVGID_147_" x="-330.3" y="-1255.9" width="1897.2" height="1475.6"/>
					</defs>
					<clipPath id="SVGID_6_">
						<use xlink:href="#SVGID_147_"  overflow="visible"/>
					</clipPath>
				</g>
			</g>
		</g>
	</g>
	<g>
		<defs>
			<path id="SVGID_149_" d="M1577.2,204.5l-2-671c0,0-355.7-9.1-579.8,91.3c-224.1,100.4-368.1,187.6-658.7,238
				C46.1-86.7-6.6-158.8-333.7-157.9l0.7,218h-0.2v245.8h1909.7V204.5L1577.2,204.5z"/>
		</defs>
		<clipPath id="SVGID_8_">
			<use xlink:href="#SVGID_149_"  overflow="visible"/>
		</clipPath>
	</g>
	<g opacity="8.000000e-02">
		<defs>
			<rect id="SVGID_151_" x="-330.3" y="154.8" opacity="8.000000e-02" width="1920.2" height="868.1"/>
		</defs>
		<clipPath id="SVGID_10_">
			<use xlink:href="#SVGID_151_"  overflow="visible"/>
		</clipPath>
		<g clip-path="url(#SVGID_10_)">
			<defs>
				<rect id="SVGID_153_" x="-342" y="88.4" width="1921.7" height="1494.7"/>
			</defs>
			<clipPath id="SVGID_12_">
				<use xlink:href="#SVGID_153_"  overflow="visible"/>
			</clipPath>
			<rect x="-342" y="88.4" clip-path="url(#SVGID_12_)" fill="none" width="1921.7" height="1494.7"/>
			<g clip-path="url(#SVGID_12_)">
				<g>
					<defs>
						<rect id="SVGID_155_" x="-330.3" y="-154.8" width="1897.2" height="1475.6"/>
					</defs>
					<clipPath id="SVGID_14_">
						<use xlink:href="#SVGID_155_"  overflow="visible"/>
					</clipPath>
				</g>
			</g>
		</g>
	</g>
	<g>
		<defs>
			<path id="SVGID_157_" d="M1577.2,1305.6l-2-671c0,0-355.7-9.1-579.8,91.3c-224.1,100.4-368.1,187.6-658.7,238
				c-290.6,50.5-343.3-21.6-670.3-20.7l0.7,218h-0.2V1407h1909.7v-101.4L1577.2,1305.6z"/>
		</defs>
		<clipPath id="SVGID_16_">
			<use xlink:href="#SVGID_157_"  overflow="visible"/>
		</clipPath>
		<rect x="-333.7" y="-100.6" clip-path="url(#SVGID_16_)" fill="#51A332" width="1915.7" height="1122.6"/>
	</g>
	<g>
		<g>
			<path fill="#FFFFFF" d="M62.2,12.8c-1.6,0.9-2.6,2.6-2.6,4.6l0.7,65.3c0,1.9,1,3.6,2.7,4.5c0.8,0.4,1.6,0.6,2.5,0.6
				c0.9,0,1.8-0.3,2.6-0.8c0.1-0.1,0.2-0.1,0.3-0.2l22.1-20.7l17.4-0.2c0.4,0,0.8-0.2,1.2-0.5c0.3-0.3,0.5-0.7,0.5-1.2L109.2,33
				c0-0.9-0.8-1.6-1.7-1.6L90,31.5L67.5,12.9c-0.1-0.1-0.1-0.1-0.2-0.2C65.7,11.8,63.8,11.8,62.2,12.8L62.2,12.8z M91.2,41.4
				l-0.1-6.6l14.8-0.1l0.3,28l-14.8,0.1l-0.1-6.6 M88,56.2l0.1,7.5L66.2,84.2c-0.7,0.4-1.4,0.1-1.6,0c-0.6-0.3-1-1-1-1.7L63,17.3
				c0-0.7,0.3-1.3,0.9-1.7c0.3-0.1,0.9-0.4,1.7,0L87.8,34l0.1,7.5 M63.6,82.5"/>
			<path fill="#FFFFFF" d="M23.8,49.5c0.1,13.7,9,25.8,22,30.1c0.2,0.1,0.4,0.1,0.5,0.1c0.7,0,1.3-0.4,1.5-1.1
				c0.3-0.9-0.2-1.8-1-2.1c-11.7-3.9-19.6-14.7-19.8-27C26.9,37.1,34.7,26.1,46.3,22c0.9-0.3,1.3-1.2,1-2.1c-0.3-0.9-1.2-1.3-2.1-1
				C32.2,23.5,23.6,35.8,23.8,49.5L23.8,49.5z M23.8,49.5"/>
			<path fill="#FFFFFF" d="M35.8,10.7c-15.5,6.7-25.4,22-25.2,38.9c0.2,17.4,10.8,32.7,27.2,38.8c0.2,0.1,0.4,0.1,0.6,0.1
				c0.7,0,1.3-0.4,1.5-1.1c0.3-0.9-0.1-1.8-1-2.1c-15.1-5.7-24.9-19.7-25.1-35.8C13.8,34,22.9,20,37.1,13.7c0.8-0.4,1.2-1.3,0.9-2.2
				C37.6,10.7,36.7,10.4,35.8,10.7L35.8,10.7z M35.8,10.7"/>
			
				<rect x="10.7" y="10.4" transform="matrix(0.9999 -1.002457e-02 1.002457e-02 0.9999 -0.5017 0.604)" fill="none" width="98.7" height="79.9"/>
			<path fill="#FFFFFF" d="M38.6,49.3c0.1,9.8,6.8,18.5,16.3,21.2c0.2,0,0.3,0.1,0.5,0.1c0.7,0,1.4-0.5,1.6-1.2
				c0.2-0.9-0.3-1.8-1.1-2c-8.1-2.2-13.7-9.7-13.8-18c-0.1-8.4,5.5-15.9,13.5-18.3c0.9-0.3,1.4-1.2,1.1-2.1c-0.3-0.9-1.2-1.4-2-1.1
				C45,30.7,38.5,39.5,38.6,49.3L38.6,49.3z M38.6,49.3"/>
		</g>
		<g>
			<g>
				<path fill="#FFFFFF" d="M30,101.6l-1.1,0.8c-0.6-0.8-1.3-1.4-2.1-1.8c-0.8-0.4-1.7-0.6-2.7-0.6c-1.1,0-2.1,0.3-3,0.8
					c-0.9,0.5-1.6,1.2-2.2,2.1c-0.5,0.9-0.8,1.9-0.8,3c0,1.7,0.6,3.1,1.7,4.2c1.1,1.1,2.6,1.7,4.3,1.7c1.9,0,3.5-0.7,4.8-2.2
					l1.1,0.8c-0.7,0.9-1.5,1.5-2.5,2c-1,0.5-2.2,0.7-3.4,0.7c-2.4,0-4.3-0.8-5.6-2.4c-1.2-1.3-1.7-3-1.7-4.9c0-2,0.7-3.7,2.1-5
					c1.4-1.4,3.2-2,5.3-2c1.3,0,2.4,0.3,3.5,0.8C28.5,100,29.4,100.7,30,101.6z"/>
				<path fill="#FFFFFF" d="M32.4,98.8h1.3v14h-1.3V98.8z"/>
				<path fill="#FFFFFF" d="M36.8,98.5c0.3,0,0.5,0.1,0.8,0.3c0.2,0.2,0.3,0.5,0.3,0.8c0,0.3-0.1,0.5-0.3,0.8
					c-0.2,0.2-0.5,0.3-0.8,0.3c-0.3,0-0.5-0.1-0.7-0.3c-0.2-0.2-0.3-0.5-0.3-0.8c0-0.3,0.1-0.6,0.3-0.8
					C36.3,98.6,36.5,98.5,36.8,98.5z M36.2,102.7h1.3v10.1h-1.3V102.7z"/>
				<path fill="#FFFFFF" d="M50,104.8l-1,0.6c-0.9-1.2-2.1-1.8-3.6-1.8c-1.2,0-2.3,0.4-3.1,1.2c-0.8,0.8-1.2,1.8-1.2,2.9
					c0,0.7,0.2,1.4,0.6,2.1s0.9,1.2,1.5,1.5c0.7,0.4,1.4,0.5,2.2,0.5c1.5,0,2.7-0.6,3.6-1.8l1,0.7c-0.5,0.7-1.1,1.3-1.9,1.7
					c-0.8,0.4-1.7,0.6-2.8,0.6c-1.6,0-2.9-0.5-4-1.5c-1.1-1-1.6-2.2-1.6-3.7c0-1,0.2-1.9,0.7-2.7c0.5-0.8,1.2-1.5,2-2
					c0.9-0.5,1.8-0.7,2.9-0.7c0.7,0,1.3,0.1,1.9,0.3c0.6,0.2,1.1,0.5,1.6,0.8C49.3,103.8,49.7,104.3,50,104.8z"/>
				<path fill="#FFFFFF" d="M52.4,98.8h1.3v8l4.7-4.1h1.9l-5.5,4.8l5.9,5.3h-1.8l-5.1-4.5v4.5h-1.3V98.8z"/>
				<path fill="#FFFFFF" d="M67.3,98.8h1.3v5.7c0.5-0.7,1.1-1.2,1.7-1.6c0.6-0.3,1.3-0.5,2.1-0.5c0.8,0,1.4,0.2,2,0.6
					c0.6,0.4,1,0.9,1.3,1.5c0.3,0.6,0.4,1.7,0.4,3v5.2h-1.3v-4.8c0-1.2,0-1.9-0.1-2.3c-0.2-0.7-0.5-1.2-0.9-1.5
					c-0.4-0.3-1-0.5-1.7-0.5c-0.8,0-1.5,0.3-2.1,0.8c-0.6,0.5-1,1.2-1.2,1.9c-0.1,0.5-0.2,1.4-0.2,2.7v3.7h-1.3V98.8z"/>
				<path fill="#FFFFFF" d="M87.3,109.4l1.1,0.6c-0.4,0.7-0.8,1.3-1.2,1.7c-0.5,0.4-1,0.8-1.6,1c-0.6,0.2-1.3,0.3-2,0.3
					c-1.6,0-2.9-0.5-3.9-1.6c-0.9-1.1-1.4-2.3-1.4-3.7c0-1.3,0.4-2.4,1.2-3.4c1-1.3,2.3-1.9,4-1.9c1.7,0,3.1,0.7,4.1,2
					c0.7,0.9,1.1,2.1,1.1,3.5h-9.1c0,1.2,0.4,2.1,1.1,2.9c0.7,0.7,1.6,1.1,2.7,1.1c0.5,0,1-0.1,1.5-0.3c0.5-0.2,0.9-0.4,1.2-0.7
					C86.6,110.5,86.9,110.1,87.3,109.4z M87.3,106.7c-0.2-0.7-0.4-1.2-0.8-1.7c-0.3-0.4-0.8-0.7-1.3-1c-0.5-0.3-1.1-0.4-1.7-0.4
					c-1,0-1.8,0.3-2.6,1c-0.5,0.5-0.9,1.2-1.2,2.1H87.3z"/>
				<path fill="#FFFFFF" d="M90.7,102.7H92v1.5c0.4-0.6,0.8-1,1.3-1.3c0.4-0.3,0.9-0.4,1.4-0.4c0.4,0,0.7,0.1,1.2,0.3l-0.7,1.1
					c-0.3-0.1-0.5-0.2-0.7-0.2c-0.4,0-0.9,0.2-1.3,0.5c-0.4,0.4-0.7,0.9-0.9,1.7c-0.2,0.6-0.2,1.7-0.2,3.5v3.4h-1.3V102.7z"/>
				<path fill="#FFFFFF" d="M105.3,109.4l1.1,0.6c-0.4,0.7-0.8,1.3-1.2,1.7c-0.5,0.4-1,0.8-1.6,1c-0.6,0.2-1.3,0.3-2,0.3
					c-1.6,0-2.9-0.5-3.9-1.6c-0.9-1.1-1.4-2.3-1.4-3.7c0-1.3,0.4-2.4,1.2-3.4c1-1.3,2.3-1.9,4-1.9c1.7,0,3.1,0.7,4.1,2
					c0.7,0.9,1.1,2.1,1.1,3.5h-9.1c0,1.2,0.4,2.1,1.1,2.9c0.7,0.7,1.6,1.1,2.7,1.1c0.5,0,1-0.1,1.5-0.3c0.5-0.2,0.9-0.4,1.2-0.7
					C104.6,110.5,104.9,110.1,105.3,109.4z M105.3,106.7c-0.2-0.7-0.4-1.2-0.8-1.7c-0.3-0.4-0.8-0.7-1.3-1c-0.5-0.3-1.1-0.4-1.7-0.4
					c-1,0-1.8,0.3-2.6,1c-0.5,0.5-0.9,1.2-1.2,2.1H105.3z"/>
			</g>
		</g>
	</g>
</g>
<g id="_x31_F">
</g>
</svg>
