<?xml version="1.0" encoding="utf-8"?>
<!-- Generator: Adobe Illustrator 18.0.0, SVG Export Plug-In . SVG Version: 6.00 Build 0)  -->
<!DOCTYPE svg PUBLIC "-//W3C//DTD SVG 1.1//EN" "http://www.w3.org/Graphics/SVG/1.1/DTD/svg11.dtd" [
	<!ENTITY ns_flows "http://ns.adobe.com/Flows/1.0/">
	<!ENTITY ns_extend "http://ns.adobe.com/Extensibility/1.0/">
	<!ENTITY ns_ai "http://ns.adobe.com/AdobeIllustrator/10.0/">
	<!ENTITY ns_graphs "http://ns.adobe.com/Graphs/1.0/">
]>
<svg version="1.1" xmlns:x="&ns_extend;" xmlns:i="&ns_ai;" xmlns:graph="&ns_graphs;"
	 xmlns="http://www.w3.org/2000/svg" xmlns:xlink="http://www.w3.org/1999/xlink" xmlns:a="http://ns.adobe.com/AdobeSVGViewerExtensions/3.0/"
	 x="0px" y="0px" viewBox="0 0 1905 870.4" enable-background="new 0 0 1905 870.4" xml:space="preserve">
<g id="B1">
</g>
<g id="_x31_">
	<g opacity="8.000000e-02">
		<defs>
			<rect id="SVGID_143_" x="-1.5" y="-1096.6" opacity="8.000000e-02" width="1920.2" height="868.1"/>
		</defs>
		<clipPath id="SVGID_2_">
			<use xlink:href="#SVGID_143_"  overflow="visible"/>
		</clipPath>
		<g clip-path="url(#SVGID_2_)">
			<defs>
				<rect id="SVGID_145_" x="-13.2" y="-1163" width="1921.7" height="1494.7"/>
			</defs>
			<clipPath id="SVGID_4_">
				<use xlink:href="#SVGID_145_"  overflow="visible"/>
			</clipPath>
			<rect x="-13.2" y="-1163" clip-path="url(#SVGID_4_)" fill="none" width="1921.7" height="1494.7"/>
			<g clip-path="url(#SVGID_4_)">
				<path id="mountains_3_" fill="none" stroke="#C5C5C5" stroke-width="5.2916" stroke-miterlimit="10" d="M313.7-862.4L190-1016.5
					c-18-22.4-59.9-22.2-77.6,0.3L5.2-879.9c-4.4,5.6-6.7,12-6.7,18.5v876c0,1.2,0.1,2.4,0.2,3.7v33.8h1896.9v-426.2h-1l-0.8-463.5
					c0-8-3.5-15.7-9.9-22l-249.5-244.9c-17.5-17.2-50.7-18-69.6-1.7L1208-798.6c-18.4,15.9-50.5,15.6-68.4-0.6l-92.2-83.3
					c-19.1-17.3-53.8-16.3-71.3,2l-43.6,45.9"/>
				<g id="landscape_4_">
					<path fill="#DDDDDD" d="M1895.7-10.7l-2-518.2c0,0-353.2-7-575.7,70.5c-222.5,77.5-365.5,144.8-654,183.8
						c-288.5,39-340.8-16.7-665.5-16l0.7,168.3H-1V67.6h1896v-78.3L1895.7-10.7z"/>
				</g>
				<g>
					<defs>
						<rect id="SVGID_147_" x="-1.5" y="-1406.2" width="1897.2" height="1475.6"/>
					</defs>
					<clipPath id="SVGID_6_">
						<use xlink:href="#SVGID_147_"  overflow="visible"/>
					</clipPath>
				</g>
			</g>
		</g>
	</g>
	<g>
		<defs>
			<path id="SVGID_149_" d="M1906,54.2l-2-671c0,0-355.7-9.1-579.8,91.3C1100-425.1,956-337.9,665.4-287.4
				C374.8-237,322.1-309-4.9-308.2l0.7,218h-0.2v245.8h1909.7V54.2L1906,54.2z"/>
		</defs>
		<clipPath id="SVGID_8_">
			<use xlink:href="#SVGID_149_"  overflow="visible"/>
		</clipPath>
	</g>
	<g opacity="8.000000e-02">
		<defs>
			<rect id="SVGID_151_" x="-1.5" y="4.5" opacity="8.000000e-02" width="1920.2" height="868.1"/>
		</defs>
		<clipPath id="SVGID_10_">
			<use xlink:href="#SVGID_151_"  overflow="visible"/>
		</clipPath>
		<g clip-path="url(#SVGID_10_)">
			<defs>
				<rect id="SVGID_153_" x="-13.2" y="-61.9" width="1921.7" height="1494.7"/>
			</defs>
			<clipPath id="SVGID_12_">
				<use xlink:href="#SVGID_153_"  overflow="visible"/>
			</clipPath>
			<rect x="-13.2" y="-61.9" clip-path="url(#SVGID_12_)" fill="none" width="1921.7" height="1494.7"/>
			<g clip-path="url(#SVGID_12_)">
				<path id="mountains_5_" fill="none" stroke="#C5C5C5" stroke-width="5.2916" stroke-miterlimit="10" d="M313.7,238.7L190,84.6
					c-18-22.4-59.9-22.2-77.6,0.3L5.2,221.3c-4.4,5.6-6.7,12-6.7,18.5v876c0,1.2,0.1,2.4,0.2,3.7v33.8h1896.9V727h-1l-0.8-463.5
					c0-8-3.5-15.7-9.9-22L1634.5-3.3c-17.5-17.2-50.7-18-69.6-1.7L1208,302.5c-18.4,15.9-50.5,15.6-68.4-0.6l-92.2-83.3
					c-19.1-17.3-53.8-16.3-71.3,2l-43.6,45.9"/>
				<g id="mountains_4_">
					<path fill="none" stroke="#C2C2C2" stroke-width="5.2916" stroke-miterlimit="10" d="M-0.1,253.8L-0.7,542h-0.8v480.5h1897.2
						v-70.4V542V225.8c0-12.6-5.1-25-14.6-35.7l-55.2-62c-20.8-23.4-57-34.3-92.2-32.6"/>
					<path fill="none" stroke="#B4B4B4" stroke-width="5.2916" stroke-miterlimit="10" d="M607.4,237.7L438.7,89.6
						c-36.2-31.8-107.5-35.2-150.5-7.3l-64.2,41.6"/>
					<path fill="none" stroke="#B4B4B4" stroke-width="5.2916" stroke-miterlimit="10" d="M728.8,299.9c-19.7,0-39.4-3.7-56.2-11.1"
						/>
					<path fill="none" stroke="#B4B4B4" stroke-width="5.2916" stroke-miterlimit="10" d="M1006.7,341.4L962,289.8
						c-8.3-9.2-19.4-16.5-32.1-21.8c-39.1-16.3-93.4-13.5-127.6,10.8l0,0"/>
					<path fill="none" stroke="#B4B4B4" stroke-width="5.2916" stroke-miterlimit="10" d="M1420,413.7l-94.3,94.6
						c-40.4,40.5-152.2,23.7-189.6-18l-73-84"/>
					<path fill="none" stroke="#B4B4B4" stroke-width="5.2916" stroke-miterlimit="10" d="M1485.6,347.9"/>
					<path fill="none" stroke="#B4B4B4" stroke-width="5.2916" stroke-miterlimit="10" d="M1796.8,157.3
						c-44-19.4-107.8-13.3-139.6,18.5l-68.7,68.9"/>
					<path fill="none" stroke="#B4B4B4" stroke-width="5.2916" stroke-miterlimit="10" d="M-0.1,296l-0.6,277.8h-0.8v448.8h1897.2
						v-66.6V573.8V269.5c0-11.9-5.1-23.6-14.6-33.8"/>
				</g>
				<g id="landscape_8_">
					<g>
						<g>
							<path fill="#A6A6A6" d="M99.1,380.7"/>
							<path fill="#A6A6A6" d="M112.6,380.9"/>
							<path fill="#A6A6A6" d="M126,380.7"/>
							<path fill="#A6A6A6" d="M141.1,380.9"/>
							<path fill="#A6A6A6" d="M168.9,380.2"/>
							<path fill="#A6A6A6" d="M155.1,381.2"/>
							<line fill="#A6A6A6" x1="82.5" y1="381.2" x2="195.8" y2="381.2"/>
							<line fill="#A6A6A6" x1="73.4" y1="381.7" x2="56.9" y2="381.7"/>
							<line fill="#A6A6A6" x1="209.1" y1="381.2" x2="217.6" y2="381.2"/>
							<g>
								<g>
									<path fill="#A6A6A6" d="M184.2,306.9c0-7.5-4.2-14.5-11.7-19.2c0.6-1.4,0.9-2.8,0.9-4.3c0-7.3-7.7-13.3-17.1-13.3
										c-1.6,0-3.2,0.2-4.8,0.5c-4.1-6.7-12.6-10.9-22.3-10.9c-13.1,0-23.8,7.9-24.6,17.9c-0.7-0.1-1.3-0.1-2-0.1
										c-7,0-12.6,4.4-12.6,9.8c0,2.9,1.6,5.6,4.3,7.4c-7.1,4.6-11.3,11.5-11.3,18.7c0,13.4,14.1,24.4,31.3,24.4
										c4.4,0,8.8-0.7,12.8-2.1l0,44.3c0,0.8,0.8,1.4,1.8,1.4h11.5c1,0,1.8-0.6,1.8-1.4l0-37.7c1.1,0.2,2.2,0.3,3.3,0.3
										c8.6,0,15.9-5,17.3-11.4c2,1,4.3,1.6,6.8,1.6c6.7,0,12.2-4.3,12.2-9.5c0-1.6-0.5-3.2-1.6-4.7
										C182.9,315.1,184.2,311,184.2,306.9z M176.8,319.6c1,1.1,1.5,2.4,1.5,3.8c0,3.7-3.8,6.6-8.5,6.6c-2.3,0-4.4-0.7-6-1.9
										c-0.5-0.4-1.3-0.5-1.9-0.3c-0.3,0.1-0.6,0.2-1,0.3c-0.8,0.2-1.3,0.7-1.3,1.3c-0.1,5.8-6.3,10.5-13.8,10.5
										c-1.1,0-2.2-0.1-3.3-0.3l0-0.2c-1.2,0.1-2.5-0.2-3.7-0.2l0,39.5h-7.9l0-45c0-0.1,0-0.2,0-0.3l0-2.2c-1.2,0.6-2.4,1-3.7,1.5
										v-0.1c-3.9,1.6-8.3,2.4-12.8,2.4c-15.2,0-27.6-9.6-27.6-21.5c0-7,4.4-13.6,11.8-17.6c0.5-0.3,0.8-0.8,0.8-1.3
										c0-0.5-0.4-0.9-1-1.2c-2.9-1.2-4.7-3.6-4.7-6.1c0-3.8,4-7,9-7c1.1,0,2.1,0.2,3.2,0.5c0.6,0.2,1.2,0.1,1.7-0.2
										c0.5-0.3,0.8-0.7,0.8-1.2l0-0.1c0-0.1,0-0.3,0-0.4c0-9,9.4-16.3,21-16.3c8.7,0,16.4,4.1,19.6,10.4c0.2,0.4,0.5,0.6,1,0.8
										c0.5,0.1,1,0.2,1.4,0c1.6-0.5,3.3-0.8,5.1-0.8c7.4,0,13.4,4.7,13.4,10.4c0,1.4-0.4,2.8-1.1,4.2c-0.3,0.6-0.1,1.3,0.6,1.7
										c7.2,4.2,11.3,10.6,11.3,17.6c0,3.9-1.3,7.7-3.8,11.1C176.3,318.5,176.4,319.1,176.8,319.6z"/>
									<path fill="#A6A6A6" d="M142.4,339.5"/>
								</g>
							</g>
							<g>
								<g>
									<path fill="#A6A6A6" d="M247.4,307.9c0-7.5-4.2-14.5-11.7-19.2c0.6-1.4,0.9-2.8,0.9-4.3c0-7.3-7.7-13.3-17.1-13.3
										c-1.6,0-3.2,0.2-4.8,0.5c-3.2-5.2-9.2-9-16.2-10.4c-0.2,1-0.3,1.9-0.5,2.9c6.3,1.3,11.6,4.9,14,9.8c0.2,0.4,0.5,0.6,1,0.8
										c0.5,0.1,1,0.2,1.4,0c1.6-0.5,3.3-0.8,5.1-0.8c7.4,0,13.4,4.7,13.4,10.4c0,1.4-0.4,2.8-1.1,4.2c-0.3,0.6-0.1,1.3,0.6,1.7
										c7.2,4.2,11.3,10.6,11.3,17.6c0,3.9-1.3,7.7-3.8,11.1c-0.4,0.5-0.3,1.1,0.1,1.5c1,1.1,1.5,2.4,1.5,3.8
										c0,3.7-3.8,6.6-8.5,6.6c-2.3,0-4.4-0.7-6-1.9c-0.5-0.4-1.3-0.5-1.9-0.3c-0.3,0.1-0.6,0.2-1,0.3c-0.8,0.2-1.3,0.7-1.3,1.3
										c-0.1,5.8-6.3,10.5-13.8,10.5c-1.1,0-2.2-0.1-3.3-0.3l0-19.5l13.3-10.4c0.5-0.4,0.7-1,0.4-1.5c-0.1-0.2-0.2-0.4-0.5-0.6
										l-4.6-3.5c-0.7-0.5-1.9-0.5-2.6,0l-6.1,4.8l0-22.2c0-0.2,0-0.3-0.1-0.5c-0.2-0.6-0.9-1.1-1.8-1.1h-11.5
										c-1,0-1.8,0.6-1.8,1.4l0,30.2l-8.1-6.3c-0.1,1.1-0.5,2.2-1,3.3l9.7,7.5c0.5,0.4,1.3,0.5,2,0.3c0.7-0.2,1.1-0.7,1.1-1.3
										l0-32.3h7.8l0,24.2c0,0.2,0,0.3,0.1,0.4c0.1,0.4,0.5,0.8,1.1,1c0.7,0.2,1.5,0.1,2-0.3l8-6.2l1.9,1.5l-12.5,9.7
										c-0.3,0.3-0.5,0.6-0.5,1l0,59.3h-7.9l0-45c0-0.1,0-0.2,0-0.3l0-6c0-0.1,0-0.3-0.1-0.4c-0.1-0.3-0.2-0.5-0.5-0.7l-13-10.1
										c-0.1,1.2-0.3,2.4-0.6,3.6l10.5,8.2l0,4.6c-3.9,1.6-8.3,2.4-12.8,2.4c-6,0-11.6-1.5-16.1-4c-0.2,1-0.5,2-0.9,3
										c4.9,2.5,10.7,3.9,16.9,3.9c4.4,0,8.8-0.7,12.8-2.1l0,44.3c0,0.8,0.8,1.4,1.8,1.4h11.5c1,0,1.8-0.6,1.8-1.4l0-37.7
										c1.1,0.2,2.2,0.3,3.3,0.3c8.6,0,15.9-5,17.3-11.4c2,1,4.3,1.6,6.8,1.6c6.7,0,12.2-4.3,12.2-9.5c0-1.6-0.5-3.2-1.6-4.7
										C246.1,316.1,247.4,312,247.4,307.9z"/>
									<path fill="#A6A6A6" d="M171.5,280.1c0,0,0-0.1,0-0.1c0-3.8,1.6-7.2,4.4-10c-1-0.5-2.1-1-3.1-1.6c-2.1,2.2-3.7,4.8-4.5,7.6
										C170,277.1,171.1,278.5,171.5,280.1z"/>
									<path fill="#A6A6A6" d="M205.7,340.5"/>
								</g>
							</g>
							<g>
								<g>
									<path fill="#A6A6A6" d="M116.3,336.1c-0.1,0,0.6-0.9,0.5-0.8c-0.7,0.2-1.1,0.6-1.1,1.2c-0.1,5.1-5.5,9.2-12,9.2
										c-1,0-1.9-0.1-2.9-0.3l0-11.9c-1.2-0.4-2.3-0.9-3.2-1.6l0,47.5h-6.8l0-39.2c0-0.1,0-0.2,0-0.2l0-5.3c0-0.1,0-0.2-0.1-0.4
										c-0.1-0.2-0.2-0.4-0.4-0.6l-15.4-12l1.7-1.3l11.5,9c0.5,0.4,1.1,0.5,1.8,0.3c0.6-0.2,1-0.6,1-1.2l0.1-2.9
										c-2.4-0.7-3.9-4.2-4.6-6.5l1.3,6.3l-9.9-7.7c-0.6-0.5-1.6-0.5-2.3,0l-4,3.1c-0.3,0.2-0.5,0.6-0.5,0.9c0,0.1,0,0.3,0.1,0.4
										c0.1,0.2,0.2,0.4,0.4,0.5l16.1,12.5l0,4c-3.4,1.4-7.2,2.1-11.1,2.1c-13.3,0-24.1-8.4-24.1-18.7c0-6.1,3.8-11.8,10.2-15.3
										c0.5-0.2,0.7-0.7,0.7-1.1c0-0.4-0.3-0.8-0.8-1c-2.5-1.1-4.1-3.1-4.1-5.3c0-3.3,3.5-6.1,7.8-6.1c0.9,0,1.9,0.1,2.7,0.4
										c0.5,0.1,1.1,0.1,1.5-0.2c0.4-0.2,0.7-0.6,0.7-1.1l0-0.1c0-0.1,0-0.3,0-0.4c0-7.8,8.2-14.2,18.3-14.2c2.5,0,4.8,0.4,7,1.1
										c0.1,0,0.2-0.1,0.3-0.1c1.3-0.4,2.7-0.7,4-1c-3.3-1.6-7.2-2.5-11.3-2.5c-11.4,0-20.7,6.9-21.5,15.6
										c-0.6-0.1-1.2-0.1-1.7-0.1c-6.1,0-11,3.8-11,8.6c0,2.5,1.4,4.9,3.8,6.5c-6.2,4-9.8,10-9.8,16.3c0,11.7,12.2,21.2,27.3,21.2
										c3.8,0,7.6-0.6,11.1-1.8l0,38.6c0,0.7,0.7,1.2,1.6,1.2l10.1,0c0.9,0,1.6-0.6,1.6-1.2l0-32.8c1,0.1,1.9,0.2,2.9,0.2
										c7.5,0,13.8-4.3,15-10c0.1,0.1,0.4-1.1,0.5-1.1C118.8,335.9,117.3,336.9,116.3,336.1z"/>
									<path fill="#A6A6A6" d="M100.8,345.3"/>
								</g>
							</g>
						</g>
						<path fill="none" stroke="#A6A6A6" stroke-width="3.5277" stroke-miterlimit="10" d="M173.7,270c0,0,4.6-8.6,25.8-7.1"/>
					</g>
					<g>
						<g>
							<path fill="#A6A6A6" d="M395.1,332.2c14.8-0.3,29.8-0.3,45.2,0"/>
							<path fill="#A6A6A6" d="M355.2,332.2c1.3,0,2.5,0,3.8,0"/>
							<path fill="#A6A6A6" d="M331,332.2c1.9,0,3.9,0,5.8,0"/>
							<line fill="#A6A6A6" x1="317.9" y1="332.7" x2="301.3" y2="332.7"/>
							<line fill="#A6A6A6" x1="453.6" y1="332.2" x2="462.1" y2="332.2"/>
							<g>
								<g>
									<path fill="#A6A6A6" d="M327.6,264.5c0,13.1,13.3,23.8,30,24.3c0-0.1,0.1-0.1,0.1-0.2c0.6-1,2.5-2,4.1-1.9
										c0.3-0.3,0.6-0.6,0.9-0.9c-1.2,0.1-2.5,0.2-3.7,0.2c-15.2,0-27.6-9.6-27.6-21.5c0-7,4.4-13.6,11.8-17.6
										c0.5-0.3,0.8-0.8,0.8-1.3c0-0.5-0.4-0.9-1-1.2c-2.9-1.2-4.7-3.6-4.7-6.1c0-3.8,4-7,9-7c1.1,0,2.1,0.2,3.2,0.5
										c0.6,0.2,1.2,0.1,1.7-0.2c0.5-0.3,0.8-0.7,0.8-1.2l0-0.1c0-0.1,0-0.3,0-0.4c0-9,9.4-16.3,21-16.3c8.7,0,16.4,4.1,19.6,10.4
										c0.2,0.4,0.5,0.6,1,0.8c0.5,0.1,1,0.2,1.4,0c1.6-0.5,3.3-0.8,5.1-0.8c7.4,0,13.4,4.7,13.4,10.4c0,1.4-0.4,2.8-1.1,4.2
										c-0.3,0.6-0.1,1.3,0.6,1.7c7.2,4.2,11.3,10.6,11.3,17.6c0,3.9-1.3,7.7-3.8,11.1c-0.4,0.5-0.3,1.1,0.1,1.5
										c1,1.1,1.5,2.4,1.5,3.8c0,3.7-3.8,6.6-8.5,6.6c-2.3,0-4.4-0.7-6-1.9c-0.5-0.4-1.3-0.5-1.9-0.3c-0.3,0.1-0.6,0.2-1,0.3
										c-0.8,0.2-1.3,0.7-1.3,1.3c0,0.7-0.1,1.3-0.3,2c0.1,0,0.2,0,0.3,0c1.1-1.1,3-1.9,5.2-1.6c2.3,0.3,4.7,0.7,7,1.1
										c1.6-1.3,4.3-1.5,6.4-0.6c2.3-1.7,3.8-4.2,3.8-6.9c0-1.6-0.5-3.2-1.6-4.7c2.5-3.6,3.8-7.6,3.8-11.7
										c0-7.5-4.2-14.5-11.7-19.2c0.6-1.4,0.9-2.8,0.9-4.3c0-7.3-7.7-13.3-17.1-13.3c-1.6,0-3.2,0.2-4.8,0.5
										c-4.1-6.7-12.6-10.9-22.3-10.9c-13.1,0-23.8,7.9-24.6,17.9c-0.7-0.1-1.3-0.1-2-0.1c-7,0-12.6,4.4-12.6,9.8
										c0,2.9,1.6,5.6,4.3,7.4C331.7,250.5,327.6,257.3,327.6,264.5z"/>
									<path fill="#A6A6A6" d="M386,329.9c-1.5,0.5-3.3,0.6-4.8-0.2c-1,0.9-2.3,1.7-4,2c-1.3,0.3-2.6,0.1-3.7-0.3
										c-0.1,0.4-0.2,0.7-0.2,1.1c0,0,0.1,0,0.1,0H385c1,0,1.8-0.6,1.8-1.4v-1C386.6,330.1,386.3,330,386,329.9z"/>
								</g>
							</g>
							<g>
								<g>
									<path fill="#A6A6A6" d="M434.9,284.6c-0.7,0.3-1.5,0.6-2.3,0.8c2,0.7,4,1.5,6,2.3v-2c0-0.1,0-0.2,0-0.3v-6
										c0-0.1,0-0.3-0.1-0.4c-0.1-0.3-0.2-0.5-0.5-0.7l-13-10.1c-0.1,1.2-0.3,2.4-0.6,3.6l10.5,8.2L434.9,284.6z"/>
									<path fill="#A6A6A6" d="M491.9,258.9c0-7.5-4.2-14.5-11.7-19.2c0.6-1.4,0.9-2.8,0.9-4.3c0-7.3-7.7-13.3-17.1-13.3
										c-1.6,0-3.2,0.2-4.8,0.5c-3.2-5.2-9.2-9-16.2-10.4c-0.2,1-0.3,1.9-0.5,2.9c6.3,1.3,11.6,4.9,14,9.8c0.2,0.4,0.5,0.6,1,0.8
										c0.5,0.1,1,0.2,1.4,0c1.6-0.5,3.3-0.8,5.1-0.8c7.4,0,13.4,4.7,13.4,10.4c0,1.4-0.4,2.8-1.1,4.2c-0.3,0.6-0.1,1.3,0.6,1.7
										c7.2,4.2,11.3,10.6,11.3,17.6c0,3.9-1.3,7.7-3.8,11.1c-0.4,0.5-0.3,1.1,0.1,1.5c1,1.1,1.5,2.4,1.5,3.8
										c0,3.7-3.8,6.6-8.5,6.6c-2.3,0-4.4-0.7-6-1.9c-0.5-0.4-1.3-0.5-1.9-0.3c-0.3,0.1-0.6,0.2-1,0.3c-0.8,0.2-1.3,0.7-1.3,1.3
										c-0.1,5.8-6.3,10.5-13.8,10.5c-1.1,0-2.2-0.1-3.3-0.3V272l13.3-10.4c0.5-0.4,0.7-1,0.4-1.5c-0.1-0.2-0.2-0.4-0.5-0.6
										l-4.6-3.5c-0.7-0.5-1.9-0.5-2.6,0l-6.1,4.8l0-22.2c0-0.2,0-0.3-0.1-0.5c-0.2-0.6-0.9-1.1-1.8-1.1h-11.5
										c-1,0-1.8,0.6-1.8,1.4l0,30.2l-8.1-6.3c-0.1,1.1-0.5,2.2-1,3.3l9.7,7.5c0.5,0.4,1.3,0.5,2,0.3c0.7-0.2,1.1-0.7,1.1-1.3
										l0-32.3h7.8l0,24.2c0,0.2,0,0.3,0.1,0.4c0.1,0.4,0.5,0.8,1.1,1c0.7,0.2,1.5,0.1,2-0.3l8-6.2l1.9,1.5l-12.5,9.7
										c-0.3,0.3-0.5,0.6-0.5,1l0,20.8c0.5,1,0.5,2,0,3v4.1c1.3,0.9,2.5,1.8,3.7,2.9v-7.7c1.1,0.2,2.2,0.3,3.3,0.3
										c8.6,0,15.9-5,17.3-11.4c2,1,4.3,1.6,6.8,1.6c6.7,0,12.2-4.3,12.2-9.5c0-1.6-0.5-3.2-1.6-4.7
										C490.6,267.1,491.9,263,491.9,258.9z"/>
									<path fill="#A6A6A6" d="M446.4,323.1l0,7.6h-7.9v-2c-1.3,0.1-2.6-0.1-3.7-0.8v4.2c0,0.8,0.8,1.4,1.8,1.4h11.5
										c1,0,1.8-0.6,1.8-1.4v-7.3C448.9,324.2,447.7,323.7,446.4,323.1z"/>
									<path fill="#A6A6A6" d="M416,231.1c0,0,0-0.1,0-0.1c0-3.8,1.6-7.2,4.4-10c-1-0.5-2.1-1-3.1-1.6c-2.1,2.2-3.7,4.8-4.5,7.6
										C414.5,228.1,415.5,229.5,416,231.1z"/>
								</g>
							</g>
							<g>
								<g>
									<path fill="#A6A6A6" d="M342.1,330.4h-6.8v-1.8c-1.3-0.2-2.4-0.7-3.2-1.3v4.4c0,0.7,0.7,1.2,1.6,1.2h10.1
										c0.8,0,1.5-0.5,1.6-1.2C344.1,331.6,342.9,331.2,342.1,330.4z"/>
									<path fill="#A6A6A6" d="M342.1,282.9l0,24.9c0.2-0.4,0.4-0.7,0.6-1.1c-0.1-0.8,0.1-1.6,0.9-2.4c0.5-0.6,1.1-1.1,1.6-1.6
										l0-3.8c1,0.1,1.9,0.2,2.9,0.2c0.9,0,1.7-0.1,2.6-0.2c0.2-0.1,0.4-0.2,0.6-0.2c0.4-1.4,1.3-2.6,2.7-3.3
										c-1.7,0.8-3.7,1.2-5.9,1.2c-1,0-1.9-0.1-2.9-0.3l0-11.9C344.1,284,343,283.5,342.1,282.9z"/>
									<path fill="#A6A6A6" d="M332,293v15.1c0.9-0.5,1.8-1.2,2.9-1.4c0.1,0,0.2,0,0.3-0.1v-15.5c0-0.1,0-0.2,0-0.2v-5.3
										c0-0.1,0-0.2-0.1-0.4c-0.1-0.2-0.2-0.4-0.4-0.6l-15.4-12l1.7-1.3l11.5,9c0.5,0.4,1.1,0.5,1.8,0.3c0.6-0.2,1-0.6,1-1.2
										l0.1-2.9c-2.4-0.7-3.9-4.2-4.6-6.5l1.3,6.3l-9.9-7.7c-0.6-0.5-1.6-0.5-2.3,0l-4,3.1c-0.3,0.2-0.5,0.6-0.5,0.9
										c0,0.1,0,0.3,0.1,0.4c0.1,0.2,0.2,0.4,0.4,0.5l16.1,12.5l0,4c-3.4,1.4-7.2,2.1-11.1,2.1c-13.3,0-24.1-8.4-24.1-18.7
										c0-6.1,3.8-11.8,10.2-15.3c0.5-0.2,0.7-0.7,0.7-1.1c0-0.4-0.3-0.8-0.8-1c-2.5-1.1-4.1-3.1-4.1-5.3c0-3.3,3.5-6.1,7.8-6.1
										c0.9,0,1.9,0.1,2.7,0.4c0.5,0.1,1.1,0.1,1.5-0.2c0.4-0.2,0.7-0.6,0.7-1.1l0-0.1c0-0.1,0-0.3,0-0.4
										c0-7.8,8.2-14.2,18.3-14.2c2.5,0,4.8,0.4,7,1.1c0.1,0,0.2-0.1,0.3-0.1c1.3-0.4,2.7-0.7,4-1c-3.3-1.6-7.2-2.5-11.3-2.5
										c-11.4,0-20.7,6.9-21.5,15.6c-0.6-0.1-1.2-0.1-1.7-0.1c-6.1,0-11,3.8-11,8.6c0,2.5,1.4,4.9,3.8,6.5c-6.2,4-9.8,10-9.8,16.3
										c0,11.7,12.2,21.2,27.3,21.2C324.7,294.9,328.5,294.2,332,293z"/>
								</g>
							</g>
						</g>
						<path fill="none" stroke="#A6A6A6" stroke-width="3.5277" stroke-miterlimit="10" d="M418.1,221c0,0,4.6-8.6,25.8-7.1"/>
					</g>
					<g>
						<g>
							<path fill="#A6A6A6" d="M511.8,353.4c32.1,0.2,63.1,0.2,95,0"/>
							<line fill="#A6A6A6" x1="502.7" y1="353.9" x2="486.1" y2="353.9"/>
							<g>
								<g>
									<path fill="#A6A6A6" d="M568,348.5v2.5h-7.9v-10.1c-1.5-0.4-2.8-1.4-3.1-3c-0.2,0-0.4,0.1-0.6,0.1v14.4
										c0,0.8,0.8,1.4,1.8,1.4h11.5c1,0,1.8-0.6,1.8-1.4v-3.7C570.5,349,569.2,348.9,568,348.5z"/>
									<path fill="#A6A6A6" d="M546.8,307.2c-1,0.1-2.1,0.1-3.1,0.1c-15.2,0-27.6-9.6-27.6-21.5c0-7,4.4-13.6,11.8-17.6
										c0.5-0.3,0.8-0.8,0.8-1.3c0-0.5-0.4-0.9-1-1.2c-2.9-1.2-4.7-3.6-4.7-6.1c0-3.8,4-7,9-7c1.1,0,2.1,0.2,3.2,0.5
										c0.6,0.2,1.2,0.1,1.7-0.2c0.5-0.3,0.8-0.7,0.8-1.2l0-0.1c0-0.1,0-0.3,0-0.4c0-9,9.4-16.3,21-16.3c8.7,0,16.4,4.1,19.6,10.4
										c0.2,0.4,0.5,0.6,1,0.8c0.5,0.1,1,0.2,1.4,0c1.6-0.5,3.3-0.8,5.1-0.8c7.4,0,13.4,4.7,13.4,10.4c0,1.4-0.4,2.8-1.1,4.2
										c-0.3,0.6-0.1,1.3,0.6,1.7c7.2,4.2,11.3,10.6,11.3,17.6c0,3.6-1.2,7.2-3.4,10.4c0.2,0.1,0.4,0.1,0.5,0.2
										c0.7,0,1.4-0.1,2.1-0.1c0,0,0-0.1,0-0.1c0.3-1.3,1.4-2.1,2.7-2.5c1.1-2.5,1.7-5.2,1.7-7.9c0-7.5-4.2-14.5-11.7-19.2
										c0.6-1.4,0.9-2.8,0.9-4.3c0-7.3-7.7-13.3-17.1-13.3c-1.6,0-3.2,0.2-4.8,0.5c-4.1-6.7-12.6-10.9-22.3-10.9
										c-13.1,0-23.8,7.9-24.6,17.9c-0.7-0.1-1.3-0.1-2-0.1c-7,0-12.6,4.4-12.6,9.8c0,2.9,1.6,5.6,4.3,7.4
										c-7.1,4.6-11.3,11.5-11.3,18.7c0,13.3,13.8,24.2,30.9,24.4C544.5,309.2,545.7,308.2,546.8,307.2z"/>
								</g>
							</g>
							<g>
								<g>
									<path fill="#A6A6A6" d="M619.9,290.8c1.2,0.2,2.4,0.5,3.5,0.8l0-30.4h7.8l0,24.2c0,0.2,0,0.3,0.1,0.4
										c0.1,0.4,0.5,0.8,1.1,1c0.7,0.2,1.5,0.1,2-0.3l8-6.2l1.9,1.5l-12.5,9.7c-0.3,0.3-0.5,0.6-0.5,1v2c1.3,0.6,2.6,1.3,3.7,2.1
										v-3.4l13.3-10.4c0.5-0.4,0.7-1,0.4-1.5c-0.1-0.2-0.2-0.4-0.5-0.6l-4.6-3.5c-0.7-0.5-1.9-0.5-2.6,0L635,282l0-22.2
										c0-0.2,0-0.3-0.1-0.5c-0.2-0.6-0.9-1.1-1.8-1.1h-11.5c-1,0-1.8,0.6-1.8,1.4l0,30.2l-1-0.8
										C619.1,289.7,619.5,290.3,619.9,290.8z"/>
									<path fill="#A6A6A6" d="M676.7,280.2c0-7.5-4.2-14.5-11.7-19.2c0.6-1.4,0.9-2.8,0.9-4.3c0-7.3-7.7-13.3-17.1-13.3
										c-1.6,0-3.2,0.2-4.8,0.5c-3.2-5.2-9.2-9-16.2-10.4c-0.2,1-0.3,1.9-0.5,2.9c6.3,1.3,11.6,4.9,14,9.8c0.2,0.4,0.5,0.6,1,0.8
										c0.5,0.1,1,0.2,1.4,0c1.6-0.5,3.3-0.8,5.1-0.8c7.4,0,13.4,4.7,13.4,10.4c0,1.4-0.4,2.8-1.1,4.2c-0.3,0.6-0.1,1.3,0.6,1.7
										c7.2,4.2,11.3,10.6,11.3,17.6c0,3.9-1.3,7.7-3.8,11.1c-0.4,0.5-0.3,1.1,0.1,1.5c1,1.1,1.5,2.4,1.5,3.8
										c0,3.7-3.8,6.6-8.5,6.6c-2.3,0-4.4-0.7-6-1.9c-0.5-0.4-1.3-0.5-1.9-0.3c-0.1,0-0.1,0-0.2,0c1.5,1.4,2.6,2.9,3.7,4.4
										c1.4,0.4,2.9,0.7,4.5,0.7c6.7,0,12.2-4.3,12.2-9.5c0-1.6-0.5-3.2-1.6-4.7C675.4,288.3,676.7,284.3,676.7,280.2z"/>
									<path fill="#A6A6A6" d="M616.3,287.3l-4.7-3.6c-0.1,1.1-0.5,2.2-1,3.3l0.5,0.4C612.6,286.7,614.6,286.7,616.3,287.3z"/>
									<path fill="#A6A6A6" d="M600.8,252.3c0,0,0-0.1,0-0.1c0-3.8,1.6-7.2,4.4-10c-1-0.5-2.1-1-3.1-1.6c-2.1,2.2-3.7,4.8-4.5,7.6
										C599.3,249.4,600.3,250.7,600.8,252.3z"/>
								</g>
							</g>
							<g>
								<g>
									<path fill="#A6A6A6" d="M527.6,333.8c0.8-1.2,1.6-2.3,2.4-3.4v-10.4c1,0.1,1.9,0.2,2.9,0.2c0.2,0,0.4,0,0.6,0
										c-0.5-0.8-0.7-1.6-0.5-2.5c0,0,0,0-0.1,0c-1,0-1.9-0.1-2.9-0.3v-11.9c-1.2-0.4-2.3-0.9-3.2-1.6l0,47.5H520l0-39.2
										c0-0.1,0-0.2,0-0.2V307c0-0.1,0-0.2-0.1-0.4c-0.1-0.2-0.2-0.4-0.4-0.6l-15.4-12l1.7-1.3l11.5,9c0.5,0.4,1.1,0.5,1.8,0.3
										c0.6-0.2,1-0.6,1-1.2l0.1-2.9c-2.4-0.7-3.9-4.2-4.6-6.5l1.3,6.3l-9.9-7.7c-0.6-0.5-1.6-0.5-2.3,0l-4,3.1
										c-0.3,0.2-0.5,0.6-0.5,0.9c0,0.1,0,0.3,0.1,0.4c0.1,0.2,0.2,0.4,0.4,0.5l16.1,12.5v4c-3.4,1.4-7.2,2.1-11.1,2.1
										c-13.3,0-24.1-8.4-24.1-18.7c0-6.1,3.8-11.8,10.2-15.3c0.5-0.2,0.7-0.7,0.7-1.1c0-0.4-0.3-0.8-0.8-1
										c-2.5-1.1-4.1-3.1-4.1-5.3c0-3.3,3.5-6.1,7.8-6.1c0.9,0,1.9,0.1,2.7,0.4c0.5,0.1,1.1,0.1,1.5-0.2c0.4-0.2,0.7-0.6,0.7-1.1
										l0-0.1c0-0.1,0-0.3,0-0.4c0-7.8,8.2-14.2,18.3-14.2c2.5,0,4.8,0.4,7,1.1c0.1,0,0.2-0.1,0.3-0.1c1.3-0.4,2.7-0.7,4-1
										c-3.3-1.6-7.2-2.5-11.3-2.5c-11.4,0-20.7,6.9-21.5,15.6c-0.6-0.1-1.2-0.1-1.7-0.1c-6.1,0-11,3.8-11,8.6
										c0,2.5,1.4,4.9,3.8,6.5c-6.2,4-9.8,10-9.8,16.3c0,11.7,12.2,21.2,27.3,21.2c3.8,0,7.6-0.6,11.1-1.8l0,38.6
										c0,0.7,0.7,1.2,1.6,1.2l10.1,0c0.9,0,1.6-0.6,1.6-1.2v-13.6C527.7,338.4,526.1,336.2,527.6,333.8z"/>
								</g>
							</g>
						</g>
						<path fill="none" stroke="#A6A6A6" stroke-width="3.5277" stroke-miterlimit="10" d="M603,242.3c0,0,4.6-8.6,25.8-7.1"/>
					</g>
					<g>
						<g>
							<path fill="#A6A6A6" d="M738.5,386.4"/>
							<path fill="#A6A6A6" d="M751.3,389.8"/>
							<path fill="#A6A6A6" d="M764.2,392.8"/>
							<path fill="#A6A6A6" d="M778.4,396.5"/>
							<path fill="#A6A6A6" d="M805.2,402.4"/>
							<path fill="#A6A6A6" d="M791.7,400.1"/>
							<line fill="#A6A6A6" x1="722.5" y1="383" x2="830.5" y2="409.7"/>
							<line fill="#A6A6A6" x1="713.7" y1="381.3" x2="697.9" y2="377.4"/>
							<line fill="#A6A6A6" x1="843.2" y1="412.8" x2="851.3" y2="414.8"/>
							<g>
								<g>
									<path fill="#A6A6A6" d="M848.3,336.2c2.9-7.2,1.6-14.8-3.6-21.1c1.1-1.2,2-2.5,2.5-3.9c2.8-7-2.1-14.5-11.1-16.7
										c-1.6-0.4-3.2-0.6-4.8-0.6c-1.3-7.3-7.8-13.4-17-15.7c-12.5-3.1-25.8,2-30.5,11.3c-0.6-0.2-1.2-0.4-1.9-0.6
										c-6.6-1.6-13.8,1.2-15.9,6.4c-1.1,2.7-0.6,5.7,1.3,8.1c-8.6,2.7-15.2,8.3-18,15.2c-5.2,12.8,3.9,26.5,20.4,30.6
										c4.2,1,8.6,1.4,13,1l-17.2,42.2c-0.3,0.8,0.2,1.6,1.2,1.8l11,2.7c1,0.2,2-0.2,2.3-0.9l14.7-35.9c1,0.4,2,0.8,3.1,1
										c8.2,2,17.1-1,20.9-6.8c1.5,1.4,3.5,2.5,5.8,3.1c6.4,1.6,13.3-1.2,15.3-6.2c0.6-1.6,0.7-3.2,0.3-4.8
										C843.9,343.6,846.7,340.1,848.3,336.2z M836.3,346.4c0.5,1.3,0.5,2.7,0,4c-1.4,3.5-6.2,5.4-10.7,4.3c-2.2-0.5-4-1.7-5-3.3
										c-0.3-0.5-1-0.8-1.7-0.8c-0.3,0-0.7,0-1,0c-0.8,0-1.5,0.4-1.7,1c-2.4,5.5-10.1,8.5-17.3,6.8c-1.1-0.3-2.1-0.6-3-1.1
										l0.1-0.2c-1.2-0.2-2.3-0.7-3.5-1l-15.4,37.6l-7.5-1.9l17.5-42.9c0.1-0.1,0.1-0.2,0.1-0.3l0.9-2.1c-1.4,0.3-2.7,0.4-4.1,0.5
										l0-0.1c-4.4,0.6-8.9,0.4-13.1-0.7c-14.5-3.6-22.6-15.7-18-27c2.7-6.7,9.5-11.9,18-14c0.6-0.1,1.1-0.5,1.2-1
										c0.2-0.5,0-1-0.4-1.3c-2.3-1.8-3-4.5-2.1-6.9c1.5-3.7,6.5-5.7,11.3-4.5c1,0.3,2,0.6,2.8,1.2c0.5,0.3,1.1,0.4,1.7,0.2
										c0.6-0.1,1-0.5,1.2-1l0-0.1c0.1-0.1,0.1-0.3,0.2-0.4c3.5-8.6,15.3-13.4,26.4-10.6c8.3,2.1,14,7.7,14.6,14.5
										c0,0.4,0.3,0.7,0.6,1c0.4,0.2,0.9,0.4,1.4,0.3c1.8-0.1,3.5,0,5.2,0.5c7,1.7,10.9,7.6,8.7,13.1c-0.6,1.4-1.5,2.6-2.7,3.7
										c-0.6,0.5-0.6,1.2-0.1,1.8c5.2,5.7,6.6,12.8,3.9,19.4c-1.5,3.7-4.3,7-8,9.6C836.3,345.3,836.1,345.9,836.3,346.4z"/>
									<path fill="#A6A6A6" d="M795.8,357.4"/>
								</g>
							</g>
							<g>
								<g>
									<path fill="#A6A6A6" d="M908.2,352c2.9-7.2,1.6-14.8-3.6-21.1c1.1-1.2,2-2.5,2.5-3.9c2.8-7-2.1-14.5-11.1-16.7
										c-1.6-0.4-3.2-0.6-4.8-0.6c-1-5.8-5.2-10.7-11.4-13.7c-0.5,0.9-1.1,1.7-1.6,2.6c5.5,2.8,9.1,7.4,9.6,12.7
										c0,0.4,0.3,0.7,0.6,1c0.4,0.2,0.9,0.4,1.4,0.3c1.8-0.1,3.5,0,5.2,0.5c7,1.7,10.9,7.6,8.7,13.1c-0.6,1.4-1.5,2.6-2.7,3.7
										c-0.6,0.5-0.6,1.2-0.1,1.8c5.2,5.7,6.6,12.8,3.9,19.4c-1.5,3.7-4.3,7-8,9.6c-0.5,0.4-0.7,1-0.5,1.5c0.5,1.3,0.5,2.7,0,4
										c-1.4,3.5-6.2,5.4-10.7,4.3c-2.2-0.5-4-1.7-5-3.3c-0.3-0.5-1-0.8-1.7-0.8c-0.3,0-0.7,0-1,0c-0.8,0-1.5,0.4-1.7,1
										c-2.4,5.5-10.1,8.5-17.3,6.8c-1.1-0.3-2.1-0.6-3-1.1l7.6-18.6l16.7-6.7c0.7-0.3,1-0.8,1-1.3c0-0.2-0.1-0.5-0.2-0.7l-3-4.5
										c-0.4-0.7-1.6-1-2.5-0.6l-7.7,3.1l8.6-21.1c0.1-0.1,0.1-0.3,0.1-0.5c0-0.6-0.5-1.2-1.3-1.4l-11-2.7c-1-0.2-2,0.2-2.3,0.9
										L850,347.9l-5.3-7.9c-0.6,1-1.3,2-2.3,2.9l6.3,9.5c0.3,0.5,1.1,0.8,1.8,0.8c0.7-0.1,1.4-0.4,1.6-1l12.6-30.8l7.5,1.8
										l-9.4,23.1c-0.1,0.1-0.1,0.3-0.1,0.4c0,0.4,0.2,0.9,0.7,1.2c0.6,0.4,1.4,0.4,2,0.2l10.1-4l1.2,1.8l-15.7,6.3
										c-0.4,0.2-0.8,0.5-0.9,0.8l-23.1,56.5l-7.5-1.9l17.5-42.9c0.1-0.1,0.1-0.2,0.1-0.3l2.4-5.8c0.1-0.1,0.1-0.3,0.1-0.4
										c0-0.3,0-0.5-0.2-0.8l-8.5-12.7c-0.6,1.1-1.2,2.3-2,3.3l6.8,10.3l-1.8,4.4c-4.4,0.6-8.9,0.4-13.1-0.7
										c-5.7-1.4-10.4-4.1-13.8-7.6c-0.5,0.9-1.2,1.8-2,2.7c3.7,3.5,8.7,6.2,14.6,7.7c4.2,1,8.6,1.4,13,1l-17.2,42.2
										c-0.3,0.8,0.2,1.6,1.2,1.8l11,2.7c1,0.2,2-0.2,2.3-0.9l14.7-35.9c1,0.4,2,0.8,3.1,1c8.2,2,17.1-1,20.9-6.8
										c1.5,1.4,3.5,2.5,5.8,3.1c6.4,1.6,13.3-1.2,15.3-6.2c0.6-1.6,0.7-3.2,0.3-4.8C903.8,359.4,906.6,355.9,908.2,352z"/>
									<path fill="#A6A6A6" d="M846.7,307.5c0,0,0-0.1,0-0.1c1.5-3.6,4.4-6.5,8.1-8.5c-0.8-0.7-1.6-1.5-2.3-2.2
										c-2.9,1.6-5.4,3.7-7.2,6.2C846.4,304.4,846.9,305.9,846.7,307.5z"/>
									<path fill="#A6A6A6" d="M855.7,373.2"/>
								</g>
							</g>
							<g>
								<g>
									<path fill="#A6A6A6" d="M772.3,347.9c-0.1,0,0.9-0.7,0.8-0.7c-0.7,0-1.3,0.3-1.5,0.8c-2.1,4.8-8.8,7.4-15,5.9
										c-0.9-0.2-1.8-0.5-2.6-0.9l4.6-11.3c-1-0.7-1.8-1.4-2.5-2.2l-18.5,45.3l-6.5-1.6l15.2-37.3c0-0.1,0.1-0.1,0.1-0.2l2-5
										c0-0.1,0.1-0.2,0.1-0.4c0-0.2,0-0.5-0.2-0.7l-10-15.1l2.1-0.8l7.5,11.2c0.3,0.4,0.9,0.7,1.6,0.7c0.6,0,1.2-0.4,1.4-0.9
										l1.2-2.7c-2-1.2-2.1-4.9-1.8-7.3l-1.3,6.3l-6.4-9.7c-0.4-0.6-1.4-0.9-2.2-0.5l-5,2c-0.4,0.2-0.7,0.4-0.8,0.7
										c-0.1,0.1-0.1,0.3-0.1,0.4c0,0.2,0.1,0.4,0.2,0.6l10.5,15.7l-1.6,3.9c-3.8,0.5-7.7,0.3-11.4-0.6c-1.9-0.5-3.7-1.1-5.3-1.9
										c0.1,0.9-0.3,1.8-1,2.4c1.7,0.7,3.4,1.4,5.3,1.8c3.7,0.9,7.5,1.2,11.3,0.9l-15,36.8c-0.3,0.7,0.2,1.4,1,1.6l9.6,2.4
										c0.8,0.2,1.7-0.2,2-0.8l12.8-31.3c0.9,0.4,1.8,0.7,2.7,0.9c7.2,1.8,14.9-0.9,18.2-5.9c0.1,0.1,0.8-1,0.9-0.9
										C774.7,348.4,772.9,349,772.3,347.9z"/>
									<path fill="#A6A6A6" d="M770.1,284.2c-10.9-2.7-22.5,1.7-26.5,9.8c-0.5-0.2-1.1-0.4-1.6-0.5c-5.8-1.4-12,1.1-13.8,5.6
										c-1,2.4-0.5,5,1.1,7.1c-7.5,2.4-13.2,7.2-15.7,13.2c-0.3,0.7-0.6,1.5-0.7,2.3c0.6,0.3,1.2,0.7,1.6,1.3
										c0.4,0.6,0.8,1.2,1.2,1.7c0.1-1.5,0.5-3.1,1.1-4.6c2.4-5.8,8.2-10.4,15.7-12.2c0.5-0.1,0.9-0.5,1.1-0.9
										c0.1-0.4,0-0.9-0.4-1.2c-2-1.6-2.7-3.9-1.8-6c1.3-3.2,5.7-5,9.8-4c0.9,0.2,1.7,0.6,2.5,1c0.4,0.3,1,0.3,1.5,0.2
										c0.5-0.1,0.9-0.4,1-0.8l0-0.1c0-0.1,0.1-0.2,0.1-0.4c3.1-7.5,13.4-11.6,23-9.3c2.3,0.6,4.4,1.5,6.2,2.7c0.1,0,0.2,0,0.3,0
										c1.4-0.1,2.8,0,4.2,0C777.3,286.9,774,285.1,770.1,284.2z"/>
									<path fill="#A6A6A6" d="M753.9,353.1"/>
								</g>
							</g>
						</g>
						<path fill="none" stroke="#A6A6A6" stroke-width="3.5277" stroke-miterlimit="10" d="M852.6,298.5c0,0,7.7-7.1,27.3-0.7"/>
					</g>
					<g>
						<g>
							<path fill="#A6A6A6" d="M1010.4,439.7"/>
							<path fill="#A6A6A6" d="M1023.6,441.6"/>
							<path fill="#A6A6A6" d="M1036.9,443.1"/>
							<path fill="#A6A6A6" d="M1051.7,445.2"/>
							<path fill="#A6A6A6" d="M1079.4,448.1"/>
							<path fill="#A6A6A6" d="M1065.6,447.3"/>
							<line fill="#A6A6A6" x1="993.9" y1="438" x2="1105.7" y2="452.5"/>
							<line fill="#A6A6A6" x1="984.9" y1="437.4" x2="968.5" y2="435.2"/>
							<line fill="#A6A6A6" x1="1118.8" y1="454.2" x2="1127.2" y2="455.2"/>
							<g>
								<g>
									<path fill="#A6A6A6" d="M1109.8,377.8c1.6-7.4-1.1-14.8-7.4-20.5c0.9-1.3,1.5-2.7,1.8-4.1c1.5-7.2-4.8-14.1-14-15.3
										c-1.6-0.2-3.2-0.2-4.9-0.1c-2.6-7.1-10.2-12.4-19.7-13.6c-12.9-1.7-25.2,4.8-28.1,14.6c-0.6-0.2-1.3-0.3-1.9-0.4
										c-6.9-0.9-13.4,2.7-14.5,8.1c-0.6,2.8,0.4,5.7,2.7,7.9c-8,3.6-13.5,9.9-15.1,17c-2.8,13.3,8.7,25.8,25.8,28
										c4.3,0.6,8.8,0.4,13-0.5l-9.3,43.7c-0.2,0.8,0.5,1.5,1.5,1.6l11.4,1.5c1,0.1,2-0.4,2.1-1.2l7.9-37.2
										c1.1,0.3,2.1,0.5,3.3,0.7c8.5,1.1,16.7-2.9,19.4-9.1c1.7,1.3,3.9,2.1,6.3,2.4c6.6,0.9,13-2.6,14.1-7.8
										c0.3-1.6,0.1-3.3-0.6-4.8C1106.8,385.6,1109,381.8,1109.8,377.8z M1099.9,389.2c0.8,1.2,1,2.6,0.7,3.9
										c-0.8,3.6-5.2,6.1-9.8,5.5c-2.3-0.3-4.2-1.2-5.6-2.7c-0.4-0.5-1.1-0.7-1.8-0.6c-0.3,0-0.7,0.1-1,0.1
										c-0.8,0.1-1.4,0.6-1.5,1.2c-1.4,5.7-8.5,9.6-15.8,8.6c-1.1-0.1-2.2-0.4-3.2-0.7l0-0.2c-1.2-0.1-2.4-0.5-3.6-0.6l-8.3,39
										l-7.8-1l9.5-44.4c0-0.1,0.1-0.2,0.1-0.3l0.5-2.2c-1.3,0.4-2.6,0.7-4,1l0-0.1c-4.2,1.1-8.7,1.3-13.1,0.8
										c-15-1.9-25.2-13-22.7-24.7c1.5-6.9,7.2-12.8,15.3-15.9c0.6-0.2,1-0.6,1-1.1c0.1-0.5-0.2-1-0.7-1.3
										c-2.6-1.6-3.8-4.1-3.3-6.6c0.8-3.8,5.4-6.4,10.3-5.7c1.1,0.1,2.1,0.4,3,0.8c0.5,0.2,1.2,0.3,1.7,0c0.6-0.2,0.9-0.6,1-1.1
										l0-0.1c0-0.1,0-0.3,0.1-0.4c1.9-8.9,12.7-14.9,24.2-13.4c8.6,1.1,15.3,6.1,17.1,12.7c0.1,0.4,0.4,0.7,0.8,0.9
										c0.4,0.2,0.9,0.3,1.4,0.2c1.7-0.3,3.5-0.4,5.2-0.1c7.3,0.9,12.2,6.3,11,12c-0.3,1.4-1,2.8-2,4c-0.5,0.6-0.4,1.3,0.2,1.8
										c6.2,5.1,8.9,11.9,7.4,18.8c-0.8,3.8-2.9,7.4-6.1,10.4C1099.6,388.1,1099.6,388.7,1099.9,389.2z"/>
									<path fill="#A6A6A6" d="M1061.8,404.6"/>
								</g>
							</g>
							<g>
								<g>
									<path fill="#A6A6A6" d="M1172,386.8c1.6-7.4-1.1-14.8-7.4-20.5c0.9-1.3,1.5-2.7,1.8-4.1c1.5-7.2-4.8-14.1-14-15.3
										c-1.6-0.2-3.2-0.2-4.9-0.1c-2.1-5.6-7.1-10-13.8-12.3c-0.4,0.9-0.7,1.8-1.1,2.8c6,2.1,10.4,6.3,11.8,11.5
										c0.1,0.4,0.4,0.7,0.8,0.9c0.4,0.2,0.9,0.3,1.4,0.2c1.7-0.3,3.5-0.4,5.2-0.1c7.3,0.9,12.2,6.3,11,12c-0.3,1.4-1,2.8-2,4
										c-0.5,0.6-0.4,1.3,0.2,1.8c6.2,5.1,8.9,11.9,7.4,18.8c-0.8,3.8-2.9,7.4-6.1,10.4c-0.5,0.4-0.6,1-0.2,1.5
										c0.8,1.2,1,2.6,0.7,3.9c-0.8,3.6-5.2,6.1-9.8,5.5c-2.3-0.3-4.2-1.2-5.6-2.7c-0.4-0.5-1.1-0.7-1.8-0.6c-0.3,0-0.7,0.1-1,0.1
										c-0.8,0.1-1.4,0.6-1.5,1.2c-1.4,5.7-8.5,9.6-15.8,8.6c-1.1-0.1-2.2-0.4-3.2-0.7l4.1-19.2l15.3-8.5c0.6-0.3,0.9-0.9,0.7-1.4
										c0-0.2-0.1-0.4-0.3-0.6l-3.8-4.1c-0.6-0.6-1.8-0.8-2.6-0.3l-7.1,3.9l4.7-21.9c0-0.2,0-0.3,0-0.5c-0.1-0.6-0.7-1.2-1.5-1.3
										l-11.4-1.5c-1-0.1-2,0.4-2.1,1.2l-6.4,29.8l-6.6-7.2c-0.4,1.1-0.9,2.1-1.7,3.1l8,8.7c0.4,0.5,1.2,0.7,1.9,0.6
										c0.7-0.1,1.3-0.6,1.4-1.2l6.8-31.8l7.7,1l-5.1,23.9c0,0.2,0,0.3,0,0.5c0.1,0.4,0.4,0.8,0.9,1.1c0.6,0.3,1.4,0.3,2-0.1
										l9.2-5.1l1.6,1.7l-14.4,8c-0.4,0.2-0.7,0.6-0.7,0.9l-12.5,58.5l-7.8-1l9.5-44.4c0-0.1,0.1-0.2,0.1-0.3l1.3-6
										c0-0.1,0-0.3,0-0.4c0-0.3-0.1-0.5-0.3-0.7l-10.7-11.7c-0.3,1.2-0.8,2.4-1.4,3.5l8.6,9.4l-1,4.6c-4.2,1.1-8.7,1.3-13.1,0.8
										c-5.9-0.8-11.1-2.9-15-6c-0.4,1-0.9,1.9-1.5,2.9c4.3,3,9.7,5.2,15.9,6c4.3,0.6,8.8,0.4,13-0.5l-9.3,43.7
										c-0.2,0.8,0.5,1.5,1.5,1.6l11.4,1.5c1,0.1,2-0.4,2.1-1.2l7.9-37.2c1.1,0.3,2.1,0.5,3.3,0.7c8.5,1.1,16.7-2.9,19.4-9.1
										c1.7,1.3,3.9,2.1,6.3,2.4c6.6,0.9,13-2.6,14.1-7.8c0.3-1.6,0.1-3.3-0.6-4.8C1169,394.6,1171.2,390.8,1172,386.8z"/>
									<path fill="#A6A6A6" d="M1103,349.6c0,0,0-0.1,0-0.1c0.8-3.7,3.1-6.9,6.4-9.3c-0.9-0.6-1.8-1.3-2.7-1.9
										c-2.6,1.9-4.7,4.3-6,6.9C1102.1,346.5,1102.9,348,1103,349.6z"/>
									<path fill="#A6A6A6" d="M1124,413.6"/>
								</g>
							</g>
							<g>
								<g>
									<path fill="#A6A6A6" d="M1036.8,397.8c-0.1,0,0.8-0.8,0.7-0.8c-0.7,0.1-1.2,0.5-1.3,1c-1.2,5-7.4,8.4-13.8,7.5
										c-1-0.1-1.9-0.3-2.8-0.6l2.5-11.7c-1.1-0.5-2.1-1.2-2.9-2l-10,46.9l-6.8-0.9l8.2-38.6c0-0.1,0.1-0.2,0.1-0.2l1.1-5.2
										c0-0.1,0-0.2,0-0.4c0-0.2-0.1-0.4-0.3-0.6l-12.7-13.8l1.9-1.1l9.5,10.3c0.4,0.4,1,0.6,1.7,0.5c0.6-0.1,1.1-0.5,1.2-1
										l0.7-2.8c-2.2-1-3-4.6-3.2-7l-0.1,6.4l-8.1-8.9c-0.5-0.6-1.5-0.7-2.2-0.3l-4.6,2.5c-0.3,0.2-0.6,0.5-0.6,0.8
										c0,0.1,0,0.3,0,0.4c0,0.2,0.1,0.4,0.3,0.6l13.3,14.4l-0.9,4c-3.7,0.9-7.6,1.2-11.4,0.7c-13.1-1.7-22-11.4-19.8-21.5
										c1.3-6,6.3-11.2,13.3-13.8c0.5-0.2,0.8-0.6,0.9-1c0.1-0.4-0.2-0.8-0.6-1.1c-2.2-1.4-3.3-3.6-2.9-5.8c0.7-3.3,4.7-5.5,9-5
										c0.9,0.1,1.8,0.4,2.6,0.7c0.5,0.2,1,0.2,1.5,0c0.5-0.2,0.8-0.5,0.9-1l0-0.1c0-0.1,0-0.3,0.1-0.4c1.7-7.7,11.1-13,21-11.7
										c2.4,0.3,4.7,1,6.7,1.9c0.1,0,0.2,0,0.3-0.1c1.4-0.2,2.8-0.3,4.2-0.4c-2.9-2-6.6-3.4-10.6-3.9
										c-11.2-1.5-21.9,4.2-24.5,12.7c-0.6-0.1-1.1-0.3-1.7-0.3c-6-0.8-11.7,2.4-12.7,7.1c-0.5,2.5,0.4,5,2.4,6.9
										c-6.9,3.2-11.8,8.6-13.1,14.8c-2.5,11.5,7.6,22.5,22.4,24.4c3.8,0.5,7.7,0.3,11.4-0.4l-8.1,38.1c-0.1,0.7,0.4,1.3,1.3,1.4
										l9.9,1.3c0.9,0.1,1.7-0.3,1.8-1l6.9-32.4c0.9,0.3,1.9,0.5,2.8,0.6c7.4,1,14.6-2.5,16.9-7.9c0.1,0.1,0.6-1.1,0.7-1
										C1039.3,398,1037.6,398.8,1036.8,397.8z"/>
									<path fill="#A6A6A6" d="M1019.5,404.9"/>
								</g>
							</g>
						</g>
						<path fill="none" stroke="#A6A6A6" stroke-width="3.5277" stroke-miterlimit="10" d="M1107.2,340c0,0,6.3-7.9,26.9-3.7"/>
					</g>
					<g>
						<g>
							<path fill="#A6A6A6" d="M1307.9,438.9"/>
							<path fill="#A6A6A6" d="M1320.7,435.7"/>
							<path fill="#A6A6A6" d="M1333.3,432.1"/>
							<path fill="#A6A6A6" d="M1347.7,428.6"/>
							<path fill="#A6A6A6" d="M1373.8,420.9"/>
							<path fill="#A6A6A6" d="M1361.1,425.3"/>
							<line fill="#A6A6A6" x1="1292.4" y1="443.5" x2="1399.6" y2="415.1"/>
							<line fill="#A6A6A6" x1="1284" y1="446.2" x2="1268.3" y2="450.4"/>
							<line fill="#A6A6A6" x1="1412.2" y1="411.8" x2="1420.2" y2="409.7"/>
							<g>
								<g>
									<path fill="#A6A6A6" d="M1357.9,347.8c-3.1-7.1-10-12.6-19-15.3c0-1.5-0.3-2.9-0.9-4.3c-3-6.9-12.7-10.7-21.7-8.3
										c-1.6,0.4-3,1-4.3,1.7c-6.6-5.3-16.5-7.2-25.6-4.8c-12.4,3.3-19.2,13.5-15.9,23.2c-0.7,0.1-1.3,0.2-1.9,0.4
										c-6.6,1.7-10.1,7.3-7.9,12.5c1.2,2.7,3.8,4.9,7.2,5.9c-4.8,6.1-5.9,13.7-2.9,20.5c5.6,12.7,23.4,19.5,39.7,15.2
										c4.2-1.1,8-2.9,11.2-5.2l18.3,42c0.3,0.8,1.4,1.2,2.3,0.9l10.9-2.9c1-0.3,1.5-1.1,1.2-1.8l-15.6-35.7
										c1.1-0.1,2.2-0.3,3.3-0.6c8.2-2.2,13-8.7,11.6-15.1c2.3,0.5,4.7,0.4,7-0.2c6.4-1.7,9.8-7.1,7.6-12.1
										c-0.7-1.6-1.9-2.9-3.4-4C1360,355.8,1359.6,351.6,1357.9,347.8z M1356.1,361.6c1.4,0.8,2.5,1.9,3,3.2
										c1.5,3.5-0.9,7.2-5.3,8.4c-2.2,0.6-4.5,0.5-6.5-0.3c-0.6-0.2-1.4-0.2-2,0.2c-0.3,0.2-0.5,0.3-0.8,0.5
										c-0.6,0.4-0.9,1-0.7,1.6c2.3,5.5-1.6,11.6-8.7,13.4c-1.1,0.3-2.2,0.5-3.3,0.5l-0.1-0.2c-1.1,0.4-2.4,0.5-3.6,0.8l16.3,37.4
										l-7.4,2l-18.6-42.6c0-0.1,0-0.2-0.1-0.3l-0.9-2.1c-0.9,0.8-1.9,1.6-2.9,2.3l0-0.1c-3.1,2.5-6.9,4.4-11.1,5.5
										c-14.4,3.8-30.2-2.2-35.1-13.4c-2.9-6.6-1.5-13.9,3.8-19.6c0.4-0.4,0.5-0.9,0.2-1.4c-0.2-0.5-0.8-0.8-1.4-0.9
										c-3.2-0.4-5.9-2.2-6.9-4.6c-1.6-3.6,0.9-7.6,5.6-8.8c1-0.3,2.1-0.4,3.2-0.4c0.6,0,1.2-0.2,1.6-0.6c0.4-0.4,0.4-0.9,0.2-1.3
										l0-0.1c-0.1-0.1-0.1-0.3-0.2-0.4c-3.7-8.5,2.2-17.8,13.1-20.7c8.2-2.2,17.2-0.2,22.8,4.9c0.3,0.3,0.8,0.5,1.3,0.5
										c0.5,0,1-0.1,1.4-0.4c1.3-0.9,2.8-1.6,4.5-2c7-1.8,14.6,1.1,17,6.5c0.6,1.4,0.8,2.8,0.7,4.2c-0.1,0.7,0.4,1.3,1.3,1.5
										c8.5,2.2,15.1,7.2,18,13.9c1.6,3.7,1.9,7.6,1,11.4C1355.2,360.7,1355.5,361.2,1356.1,361.6z"/>
									<path fill="#A6A6A6" d="M1331.8,389"/>
								</g>
							</g>
							<g>
								<g>
									<path fill="#A6A6A6" d="M1418.2,332.8c-3.1-7.1-10-12.6-19-15.3c0-1.5-0.3-2.9-0.9-4.3c-3-6.9-12.7-10.7-21.7-8.3
										c-1.6,0.4-3,1-4.3,1.7c-5.2-4.2-12.4-6.2-19.7-5.7c0.2,0.9,0.5,1.9,0.7,2.8c6.5-0.3,13,1.7,17.4,5.8
										c0.3,0.3,0.8,0.5,1.3,0.5c0.5,0,1-0.1,1.4-0.4c1.3-0.9,2.8-1.6,4.5-2c7-1.8,14.6,1.1,17,6.5c0.6,1.4,0.8,2.8,0.7,4.2
										c-0.1,0.7,0.4,1.3,1.3,1.5c8.5,2.2,15.1,7.2,18,13.9c1.6,3.7,1.9,7.6,1,11.4c-0.1,0.5,0.1,1.1,0.7,1.4
										c1.4,0.8,2.5,1.9,3,3.2c1.5,3.5-0.9,7.2-5.3,8.4c-2.2,0.6-4.5,0.5-6.5-0.3c-0.6-0.2-1.4-0.2-2,0.2
										c-0.3,0.2-0.5,0.3-0.8,0.5c-0.6,0.4-0.9,1-0.7,1.6c2.3,5.5-1.6,11.6-8.7,13.4c-1.1,0.3-2.2,0.5-3.3,0.5l-8.1-18.5l8.3-13.2
										c0.3-0.5,0.2-1.1-0.2-1.5c-0.2-0.2-0.4-0.3-0.7-0.4l-5.8-2.2c-0.9-0.3-2,0-2.5,0.7l-3.8,6.1l-9.2-21
										c-0.1-0.1-0.2-0.3-0.3-0.4c-0.5-0.5-1.3-0.8-2.1-0.6l-10.9,2.9c-1,0.3-1.5,1.1-1.2,1.8l12.5,28.6l-10.2-3.9
										c0.3,1.1,0.5,2.2,0.4,3.4l12.3,4.7c0.7,0.3,1.5,0.2,2-0.2c0.6-0.4,0.8-1,0.5-1.5l-13.4-30.6l7.4-2l10,22.9
										c0.1,0.1,0.2,0.3,0.3,0.4c0.3,0.4,0.8,0.6,1.4,0.6c0.7,0,1.4-0.3,1.8-0.8l5-7.9l2.4,0.9l-7.8,12.4
										c-0.2,0.3-0.2,0.7-0.1,1.1l24.6,56.2l-7.4,2l-18.6-42.6c0-0.1,0-0.2-0.1-0.3l-2.5-5.7c-0.1-0.1-0.1-0.3-0.2-0.4
										c-0.2-0.2-0.4-0.4-0.7-0.5l-16.5-6.3c0.4,1.2,0.8,2.4,0.9,3.6l13.3,5.1l1.9,4.4c-3.1,2.5-6.9,4.4-11.1,5.5
										c-5.7,1.5-11.6,1.5-16.9,0.2c0.3,1,0.4,2,0.4,3.1c5.6,1.1,11.7,1,17.6-0.6c4.2-1.1,8-2.9,11.2-5.2l18.3,42
										c0.3,0.8,1.4,1.2,2.3,0.9l10.9-2.9c1-0.3,1.5-1.1,1.2-1.8l-15.6-35.7c1.1-0.1,2.2-0.3,3.3-0.6c8.2-2.2,13-8.7,11.6-15.1
										c2.3,0.5,4.7,0.4,7-0.2c6.4-1.7,9.8-7.1,7.6-12.1c-0.7-1.6-1.9-2.9-3.4-4C1420.3,340.9,1419.9,336.7,1418.2,332.8z"/>
									<path fill="#A6A6A6" d="M1334.8,325.5c0,0,0-0.1-0.1-0.1c-1.6-3.6-1.4-7.2,0-10.6c-1.2-0.2-2.4-0.5-3.6-0.7
										c-1.1,2.6-1.5,5.5-1.1,8.3C1332.1,323.1,1333.7,324.1,1334.8,325.5z"/>
									<path fill="#A6A6A6" d="M1392.1,374.1"/>
								</g>
							</g>
							<g>
								<g>
									<path fill="#A6A6A6" d="M1305.7,392.3c-0.1,0,0.2-1,0.1-0.9c-0.6,0.3-0.8,0.9-0.6,1.4c2,4.8-1.4,10.1-7.6,11.7
										c-0.9,0.2-1.9,0.4-2.8,0.5l-4.9-11.2c-1.3-0.1-2.6-0.3-3.7-0.7l19.7,45l-6.5,1.7l-16.2-37.1c0-0.1,0-0.2-0.1-0.2l-2.2-5
										c-0.1-0.1-0.1-0.2-0.2-0.3c-0.2-0.2-0.4-0.3-0.6-0.4l-19.6-7.5l1-1.7l14.6,5.6c0.6,0.2,1.3,0.2,1.8-0.2
										c0.5-0.3,0.7-0.9,0.5-1.3l-1.1-2.8c-2.6,0-5.4-3-7-5l3.8,5.6l-12.6-4.8c-0.8-0.3-1.8-0.1-2.1,0.6l-2.5,3.9
										c-0.2,0.3-0.2,0.6-0.1,1c0.1,0.1,0.2,0.3,0.3,0.4c0.1,0.2,0.3,0.3,0.6,0.4l20.4,7.8l1.7,3.8c-2.7,2.2-6,3.8-9.6,4.8
										c-12.6,3.3-26.3-1.9-30.5-11.7c-2.5-5.8-1.3-12.1,3.4-17.1c0.3-0.3,0.4-0.8,0.2-1.2c-0.2-0.4-0.7-0.7-1.2-0.8
										c-2.8-0.4-5.1-1.9-6-4c-1.4-3.2,0.8-6.6,4.9-7.7c0.9-0.2,1.8-0.3,2.8-0.3c0.5,0,1-0.2,1.4-0.5c0.3-0.3,0.4-0.8,0.2-1.2
										l0-0.1c-0.1-0.1-0.1-0.2-0.2-0.4c-3.2-7.4,1.9-15.5,11.4-18.1c2.3-0.6,4.7-0.9,7-0.7c0.1-0.1,0.1-0.1,0.2-0.2
										c1.1-0.7,2.3-1.3,3.4-1.9c-3.8-0.7-7.8-0.5-11.7,0.5c-10.8,2.9-16.8,11.7-13.8,20.2c-0.6,0.1-1.1,0.2-1.7,0.3
										c-5.8,1.5-8.8,6.4-6.9,10.9c1,2.4,3.3,4.2,6.3,5.2c-4.2,5.4-5.2,11.9-2.5,17.9c4.8,11.1,20.4,17,34.6,13.3
										c3.6-1,7-2.5,9.8-4.5l16,36.5c0.3,0.7,1.2,1,2,0.8l9.5-2.5c0.8-0.2,1.3-0.9,1-1.6l-13.6-31.1c1-0.1,1.9-0.3,2.9-0.5
										c7.1-1.9,11.3-7.6,10.1-13.2c0.2,0-0.1-1.2,0-1.1C1308,391.5,1307,392.9,1305.7,392.3z"/>
									<path fill="#A6A6A6" d="M1294.8,404.9"/>
								</g>
							</g>
						</g>
						<path fill="none" stroke="#A6A6A6" stroke-width="3.5277" stroke-miterlimit="10" d="M1332.6,315.4c0,0,0.8-9.3,21.4-13.2"/>
					</g>
					<g>
						<g>
							<path fill="#A6A6A6" d="M1528.3,377.8"/>
							<path fill="#A6A6A6" d="M1541.2,374.8"/>
							<path fill="#A6A6A6" d="M1553.9,371.3"/>
							<path fill="#A6A6A6" d="M1568.3,367.9"/>
							<path fill="#A6A6A6" d="M1594.5,360.5"/>
							<path fill="#A6A6A6" d="M1581.8,364.7"/>
							<line fill="#A6A6A6" x1="1512.7" y1="382.2" x2="1620.5" y2="354.9"/>
							<line fill="#A6A6A6" x1="1504.3" y1="384.9" x2="1488.5" y2="388.9"/>
							<line fill="#A6A6A6" x1="1633.1" y1="351.7" x2="1641.2" y2="349.7"/>
							<g>
								<g>
									<path fill="#A6A6A6" d="M1579.8,287.1c-3-7.2-9.8-12.7-18.7-15.5c0-1.5-0.3-2.9-0.8-4.3c-2.9-7-12.6-10.8-21.5-8.5
										c-1.6,0.4-3,1-4.4,1.7c-6.5-5.4-16.4-7.4-25.5-5c-12.4,3.1-19.5,13.3-16.3,23c-0.7,0.1-1.3,0.2-1.9,0.4
										c-6.6,1.7-10.3,7.2-8.1,12.4c1.1,2.7,3.8,4.9,7.1,6c-4.9,6.1-6.1,13.6-3.3,20.5c5.4,12.8,23.1,19.8,39.5,15.6
										c4.2-1.1,8-2.8,11.3-5.1l17.7,42.1c0.3,0.8,1.4,1.2,2.3,0.9l11-2.8c1-0.2,1.5-1.1,1.2-1.8l-15-35.8
										c1.1-0.1,2.2-0.3,3.3-0.6c8.2-2.1,13.1-8.6,11.9-15c2.3,0.5,4.7,0.5,7.1-0.1c6.4-1.6,9.9-7,7.8-12c-0.7-1.6-1.8-2.9-3.4-4
										C1581.8,295.2,1581.5,291,1579.8,287.1z M1577.8,300.9c1.4,0.8,2.4,1.9,3,3.2c1.5,3.5-1,7.2-5.5,8.4
										c-2.2,0.6-4.5,0.4-6.5-0.4c-0.6-0.3-1.4-0.2-2,0.1c-0.3,0.2-0.5,0.3-0.8,0.5c-0.6,0.4-0.9,1-0.7,1.6
										c2.2,5.6-1.8,11.5-8.9,13.3c-1.1,0.3-2.2,0.4-3.3,0.5l-0.1-0.2c-1.1,0.4-2.4,0.4-3.6,0.7l15.7,37.6l-7.5,1.9l-17.9-42.7
										c0-0.1,0-0.2-0.1-0.3l-0.9-2.1c-0.9,0.8-1.9,1.6-2.9,2.3l0-0.1c-3.1,2.5-6.9,4.3-11.2,5.4c-14.5,3.7-30.1-2.5-34.8-13.8
										c-2.8-6.6-1.2-13.9,4.2-19.6c0.4-0.4,0.5-0.9,0.2-1.4c-0.2-0.5-0.7-0.8-1.4-0.9c-3.2-0.5-5.8-2.3-6.9-4.7
										c-1.5-3.7,1-7.6,5.7-8.8c1-0.3,2.1-0.4,3.2-0.3c0.6,0,1.2-0.2,1.6-0.6c0.4-0.4,0.5-0.9,0.2-1.3l0-0.1
										c-0.1-0.1-0.1-0.3-0.2-0.4c-3.6-8.6,2.4-17.8,13.5-20.6c8.3-2.1,17.2-0.1,22.7,5.2c0.3,0.3,0.8,0.5,1.3,0.5
										c0.5,0,1-0.1,1.4-0.3c1.3-0.9,2.9-1.6,4.5-2c7-1.8,14.6,1.2,16.9,6.7c0.6,1.4,0.8,2.8,0.6,4.2c-0.1,0.7,0.4,1.3,1.2,1.5
										c8.5,2.3,15,7.4,17.7,14c1.5,3.7,1.8,7.7,0.8,11.4C1576.9,300,1577.2,300.6,1577.8,300.9z"/>
									<path fill="#A6A6A6" d="M1553.1,328.2"/>
								</g>
							</g>
							<g>
								<g>
									<path fill="#A6A6A6" d="M1640.3,272.8c-3-7.2-9.8-12.7-18.7-15.5c0-1.5-0.3-2.9-0.8-4.3c-2.9-7-12.6-10.8-21.5-8.5
										c-1.6,0.4-3,1-4.4,1.7c-5.1-4.2-12.3-6.3-19.6-5.9c0.2,0.9,0.4,1.9,0.6,2.8c6.5-0.3,12.9,1.9,17.3,6
										c0.3,0.3,0.8,0.5,1.3,0.5c0.5,0,1-0.1,1.4-0.3c1.3-0.9,2.9-1.6,4.5-2c7-1.8,14.6,1.2,16.9,6.7c0.6,1.4,0.8,2.8,0.6,4.2
										c-0.1,0.7,0.4,1.3,1.2,1.5c8.5,2.3,15,7.4,17.7,14c1.5,3.7,1.8,7.7,0.8,11.4c-0.1,0.5,0.1,1.1,0.7,1.4
										c1.4,0.8,2.4,1.9,3,3.2c1.5,3.5-1,7.2-5.5,8.4c-2.2,0.6-4.5,0.4-6.5-0.4c-0.6-0.3-1.4-0.2-2,0.1c-0.3,0.2-0.5,0.3-0.8,0.5
										c-0.6,0.4-0.9,1-0.7,1.6c2.2,5.6-1.8,11.5-8.9,13.3c-1.1,0.3-2.2,0.4-3.3,0.5l-7.8-18.5l8.5-13.1c0.3-0.5,0.2-1.1-0.2-1.5
										c-0.2-0.2-0.4-0.3-0.7-0.4l-5.8-2.3c-0.9-0.3-2,0-2.5,0.6l-3.9,6l-8.8-21.1c-0.1-0.1-0.2-0.3-0.3-0.4
										c-0.4-0.5-1.3-0.8-2.1-0.6l-11,2.8c-1,0.2-1.5,1.1-1.2,1.8l12,28.8l-10.2-4c0.3,1.1,0.4,2.2,0.3,3.4l12.2,4.8
										c0.7,0.3,1.5,0.2,2-0.2c0.6-0.4,0.8-1,0.6-1.5l-12.9-30.7l7.4-1.9l9.7,23c0.1,0.1,0.2,0.3,0.3,0.4c0.3,0.4,0.8,0.6,1.4,0.6
										c0.7,0,1.4-0.3,1.8-0.8l5.1-7.9l2.4,0.9l-8,12.3c-0.2,0.3-0.3,0.7-0.1,1.1l23.6,56.4l-7.5,1.9l-17.9-42.7
										c0-0.1,0-0.2-0.1-0.3l-2.4-5.7c-0.1-0.1-0.1-0.3-0.2-0.4c-0.2-0.2-0.4-0.4-0.7-0.5l-16.4-6.5c0.4,1.2,0.7,2.4,0.9,3.6
										l13.2,5.2l1.8,4.4c-3.1,2.5-6.9,4.3-11.2,5.4c-5.7,1.4-11.6,1.4-16.9,0c0.2,1,0.4,2,0.4,3.1c5.6,1.2,11.7,1.1,17.7-0.4
										c4.2-1.1,8-2.8,11.3-5.1l17.7,42.1c0.3,0.8,1.4,1.2,2.3,0.9l11-2.8c1-0.2,1.5-1.1,1.2-1.8l-15-35.8
										c1.1-0.1,2.2-0.3,3.3-0.6c8.2-2.1,13.1-8.6,11.9-15c2.3,0.5,4.7,0.5,7.1-0.1c6.4-1.6,9.9-7,7.8-12c-0.7-1.6-1.8-2.9-3.4-4
										C1642.3,280.9,1642,276.7,1640.3,272.8z"/>
									<path fill="#A6A6A6" d="M1557.1,264.6c0,0,0-0.1,0-0.1c-1.5-3.6-1.3-7.3,0.2-10.6c-1.2-0.2-2.4-0.5-3.6-0.7
										c-1.2,2.6-1.6,5.4-1.2,8.3C1554.4,262.2,1556,263.3,1557.1,264.6z"/>
									<path fill="#A6A6A6" d="M1613.6,313.9"/>
								</g>
							</g>
							<g>
								<g>
									<path fill="#A6A6A6" d="M1526.9,331.2c-0.1,0,0.2-1,0.2-0.9c-0.6,0.3-0.8,0.9-0.6,1.4c1.9,4.8-1.6,10.1-7.8,11.6
										c-0.9,0.2-1.9,0.4-2.9,0.4l-4.7-11.3c-1.3-0.1-2.5-0.3-3.7-0.7l18.9,45.2l-6.5,1.7l-15.6-37.2c0-0.1,0-0.2-0.1-0.2l-2.1-5
										c0-0.1-0.1-0.2-0.2-0.3c-0.2-0.2-0.4-0.4-0.6-0.5l-19.4-7.7l1.1-1.6l14.5,5.7c0.6,0.2,1.3,0.2,1.8-0.2
										c0.5-0.3,0.7-0.9,0.5-1.3l-1.1-2.8c-2.6-0.1-5.4-3-7-5.1l3.7,5.7l-12.5-4.9c-0.8-0.3-1.8-0.1-2.2,0.5l-2.5,3.9
										c-0.2,0.3-0.2,0.6-0.1,1c0.1,0.1,0.2,0.3,0.3,0.4c0.1,0.2,0.3,0.3,0.6,0.4l20.3,8l1.6,3.8c-2.7,2.1-6,3.8-9.7,4.7
										c-12.6,3.2-26.2-2.2-30.3-12c-2.4-5.8-1.1-12.1,3.6-17c0.3-0.3,0.4-0.8,0.2-1.2c-0.2-0.4-0.7-0.7-1.2-0.8
										c-2.8-0.4-5.1-2-6-4.1c-1.3-3.2,0.9-6.6,5-7.7c0.9-0.2,1.8-0.3,2.8-0.3c0.5,0,1-0.2,1.4-0.5c0.3-0.3,0.4-0.8,0.2-1.2l0-0.1
										c-0.1-0.1-0.1-0.2-0.2-0.4c-3.1-7.5,2.1-15.5,11.7-17.9c2.3-0.6,4.7-0.8,7-0.7c0.1-0.1,0.2-0.1,0.2-0.2
										c1.1-0.7,2.3-1.3,3.5-1.9c-3.8-0.7-7.8-0.6-11.7,0.4c-10.8,2.7-17,11.6-14.2,20c-0.6,0.1-1.1,0.2-1.7,0.3
										c-5.8,1.5-8.9,6.3-7.1,10.8c1,2.4,3.3,4.3,6.2,5.2c-4.3,5.3-5.4,11.9-2.8,17.9c4.7,11.1,20.1,17.2,34.4,13.6
										c3.6-0.9,7-2.4,9.8-4.4l15.4,36.7c0.3,0.7,1.2,1,2,0.8l9.6-2.4c0.8-0.2,1.3-0.9,1-1.6l-13.1-31.2c1-0.1,1.9-0.3,2.9-0.5
										c7.1-1.8,11.4-7.5,10.3-13.1c0.2,0-0.1-1.2,0-1.1C1529.2,330.4,1528.2,331.8,1526.9,331.2z"/>
									<path fill="#A6A6A6" d="M1515.8,343.7"/>
								</g>
							</g>
						</g>
						<path fill="none" stroke="#A6A6A6" stroke-width="3.5277" stroke-miterlimit="10" d="M1555.1,254.6c0,0,0.9-9.3,21.7-12.9"/>
					</g>
					<g>
						<g>
							<path fill="#A6A6A6" d="M1689.7,358.3"/>
							<path fill="#A6A6A6" d="M1703.1,358.6"/>
							<path fill="#A6A6A6" d="M1716.6,358.3"/>
							<path fill="#A6A6A6" d="M1731.6,358.6"/>
							<path fill="#A6A6A6" d="M1759.5,357.9"/>
							<path fill="#A6A6A6" d="M1745.7,358.8"/>
							<line fill="#A6A6A6" x1="1673.1" y1="358.8" x2="1786.4" y2="358.8"/>
							<line fill="#A6A6A6" x1="1664" y1="359.3" x2="1647.4" y2="359.3"/>
							<line fill="#A6A6A6" x1="1799.7" y1="358.8" x2="1808.1" y2="358.8"/>
							<g>
								<g>
									<path fill="#A6A6A6" d="M1774.7,284.6c0-7.5-4.2-14.5-11.7-19.2c0.6-1.4,0.9-2.8,0.9-4.3c0-7.3-7.7-13.3-17.1-13.3
										c-1.6,0-3.2,0.2-4.8,0.5c-4.1-6.7-12.6-10.9-22.3-10.9c-13.1,0-23.8,7.9-24.6,17.9c-0.7-0.1-1.3-0.1-2-0.1
										c-7,0-12.6,4.4-12.6,9.8c0,2.9,1.6,5.6,4.3,7.4c-7.1,4.6-11.3,11.5-11.3,18.7c0,13.4,14.1,24.4,31.3,24.4
										c4.4,0,8.8-0.7,12.8-2.1l0,44.3c0,0.8,0.8,1.4,1.8,1.4h11.5c1,0,1.8-0.6,1.8-1.4l0-37.7c1.1,0.2,2.2,0.3,3.3,0.3
										c8.6,0,15.9-5,17.3-11.4c2,1,4.3,1.6,6.8,1.6c6.7,0,12.2-4.3,12.2-9.5c0-1.6-0.5-3.2-1.6-4.7
										C1773.4,292.7,1774.7,288.7,1774.7,284.6z M1767.3,297.2c1,1.1,1.5,2.4,1.5,3.8c0,3.7-3.8,6.6-8.5,6.6
										c-2.3,0-4.4-0.7-6-1.9c-0.5-0.4-1.3-0.5-1.9-0.3c-0.3,0.1-0.6,0.2-1,0.3c-0.8,0.2-1.3,0.7-1.3,1.3
										c-0.1,5.8-6.3,10.5-13.8,10.5c-1.1,0-2.2-0.1-3.3-0.3l0-0.2c-1.2,0.1-2.5-0.2-3.7-0.2l0,39.5h-7.9l0-45c0-0.1,0-0.2,0-0.3
										v-2.2c-1.2,0.6-2.4,1-3.7,1.5v-0.1c-3.9,1.6-8.3,2.4-12.8,2.4c-15.2,0-27.6-9.6-27.6-21.5c0-7,4.4-13.6,11.8-17.6
										c0.5-0.3,0.8-0.8,0.8-1.3c0-0.5-0.4-0.9-1-1.2c-2.9-1.2-4.7-3.6-4.7-6.1c0-3.8,4-7,9-7c1.1,0,2.1,0.2,3.2,0.5
										c0.6,0.2,1.2,0.1,1.7-0.2c0.5-0.3,0.8-0.7,0.8-1.2l0-0.1c0-0.1,0-0.3,0-0.4c0-9,9.4-16.3,21-16.3c8.7,0,16.4,4.1,19.6,10.4
										c0.2,0.4,0.5,0.6,1,0.8c0.5,0.1,1,0.2,1.4,0c1.6-0.5,3.3-0.8,5.1-0.8c7.4,0,13.4,4.7,13.4,10.4c0,1.4-0.4,2.8-1.1,4.2
										c-0.3,0.6-0.1,1.3,0.6,1.7c7.2,4.2,11.3,10.6,11.3,17.6c0,3.9-1.3,7.7-3.8,11.1C1766.9,296.1,1766.9,296.8,1767.3,297.2z"
										/>
									<path fill="#A6A6A6" d="M1733,317.2"/>
								</g>
							</g>
							<g>
								<g>
									<path fill="#A6A6A6" d="M1838,285.6c0-7.5-4.2-14.5-11.7-19.2c0.6-1.4,0.9-2.8,0.9-4.3c0-7.3-7.7-13.3-17.1-13.3
										c-1.6,0-3.2,0.2-4.8,0.5c-3.2-5.2-9.2-9-16.2-10.4c-0.2,1-0.3,1.9-0.5,2.9c6.3,1.3,11.6,4.9,14,9.8c0.2,0.4,0.5,0.6,1,0.8
										c0.5,0.1,1,0.2,1.4,0c1.6-0.5,3.3-0.8,5.1-0.8c7.4,0,13.4,4.7,13.4,10.4c0,1.4-0.4,2.8-1.1,4.2c-0.3,0.6-0.1,1.3,0.6,1.7
										c7.2,4.2,11.3,10.6,11.3,17.6c0,3.9-1.3,7.7-3.8,11.1c-0.4,0.5-0.3,1.1,0.1,1.5c1,1.1,1.5,2.4,1.5,3.8
										c0,3.7-3.8,6.6-8.5,6.6c-2.3,0-4.4-0.7-6-1.9c-0.5-0.4-1.3-0.5-1.9-0.3c-0.3,0.1-0.6,0.2-1,0.3c-0.8,0.2-1.3,0.7-1.3,1.3
										c-0.1,5.8-6.3,10.5-13.8,10.5c-1.1,0-2.2-0.1-3.3-0.3l0-19.5l13.3-10.4c0.5-0.4,0.7-1,0.4-1.5c-0.1-0.2-0.2-0.4-0.5-0.6
										l-4.6-3.5c-0.7-0.5-1.9-0.5-2.6,0l-6.1,4.8l0-22.2c0-0.2,0-0.3-0.1-0.5c-0.2-0.6-0.9-1.1-1.8-1.1h-11.5
										c-1,0-1.8,0.6-1.8,1.4l0,30.2l-8.1-6.3c-0.1,1.1-0.5,2.2-1,3.3l9.7,7.5c0.5,0.4,1.3,0.5,2,0.3c0.7-0.2,1.1-0.7,1.1-1.3
										l0-32.3h7.8l0,24.2c0,0.2,0,0.3,0.1,0.4c0.1,0.4,0.5,0.8,1.1,1c0.7,0.2,1.5,0.1,2-0.3l8-6.2l1.9,1.5L1793,297
										c-0.3,0.3-0.5,0.6-0.5,1l0,59.3h-7.9l0-45c0-0.1,0-0.2,0-0.3l0-6c0-0.1,0-0.3-0.1-0.4c-0.1-0.3-0.2-0.5-0.5-0.7l-13-10.1
										c-0.1,1.2-0.3,2.4-0.6,3.6l10.5,8.2v4.6c-3.9,1.6-8.3,2.4-12.8,2.4c-6,0-11.6-1.5-16.1-4c-0.2,1-0.5,2-0.9,3
										c4.9,2.5,10.7,3.9,16.9,3.9c4.4,0,8.8-0.7,12.8-2.1l0,44.3c0,0.8,0.8,1.4,1.8,1.4h11.5c1,0,1.8-0.6,1.8-1.4l0-37.7
										c1.1,0.2,2.2,0.3,3.3,0.3c8.6,0,15.9-5,17.3-11.4c2,1,4.3,1.6,6.8,1.6c6.7,0,12.2-4.3,12.2-9.5c0-1.6-0.5-3.2-1.6-4.7
										C1836.7,293.7,1838,289.7,1838,285.6z"/>
									<path fill="#A6A6A6" d="M1762.1,257.7c0,0,0-0.1,0-0.1c0-3.8,1.6-7.2,4.4-10c-1-0.5-2.1-1-3.1-1.6
										c-2.1,2.2-3.7,4.8-4.5,7.6C1760.5,254.8,1761.6,256.1,1762.1,257.7z"/>
									<path fill="#A6A6A6" d="M1796.2,318.1"/>
								</g>
							</g>
							<g>
								<g>
									<path fill="#A6A6A6" d="M1706.9,313.7c-0.1,0,0.6-0.9,0.5-0.8c-0.7,0.2-1.1,0.6-1.1,1.2c-0.1,5.1-5.5,9.2-12,9.2
										c-1,0-1.9-0.1-2.9-0.3l0-11.9c-1.2-0.4-2.3-0.9-3.2-1.6l0,47.5h-6.8l0-39.2c0-0.1,0-0.2,0-0.2v-5.3c0-0.1,0-0.2-0.1-0.4
										c-0.1-0.2-0.2-0.4-0.4-0.6l-15.4-12l1.7-1.3l11.5,9c0.5,0.4,1.1,0.5,1.8,0.3c0.6-0.2,1-0.6,1-1.2l0.1-2.9
										c-2.4-0.7-3.9-4.2-4.6-6.5l1.3,6.3l-9.9-7.7c-0.6-0.5-1.6-0.5-2.3,0l-4,3.1c-0.3,0.2-0.5,0.6-0.5,0.9c0,0.1,0,0.3,0.1,0.4
										c0.1,0.2,0.2,0.4,0.4,0.5l16.1,12.5l0,4c-3.4,1.4-7.2,2.1-11.1,2.1c-13.3,0-24.1-8.4-24.1-18.7c0-6.1,3.8-11.8,10.2-15.3
										c0.5-0.2,0.7-0.7,0.7-1.1c0-0.4-0.3-0.8-0.8-1c-2.5-1.1-4.1-3.1-4.1-5.3c0-3.3,3.5-6.1,7.8-6.1c0.9,0,1.9,0.1,2.7,0.4
										c0.5,0.1,1.1,0.1,1.5-0.2c0.4-0.2,0.7-0.6,0.7-1.1l0-0.1c0-0.1,0-0.3,0-0.4c0-7.8,8.2-14.2,18.3-14.2c2.5,0,4.8,0.4,7,1.1
										c0.1,0,0.2-0.1,0.3-0.1c1.3-0.4,2.7-0.7,4-1c-3.3-1.6-7.2-2.5-11.3-2.5c-11.4,0-20.7,6.9-21.5,15.6
										c-0.6-0.1-1.2-0.1-1.7-0.1c-6.1,0-11,3.8-11,8.6c0,2.5,1.4,4.9,3.8,6.5c-6.2,4-9.8,10-9.8,16.3c0,11.7,12.2,21.2,27.3,21.2
										c3.8,0,7.6-0.6,11.1-1.8l0,38.6c0,0.7,0.7,1.2,1.6,1.2l10.1,0c0.9,0,1.6-0.6,1.6-1.2l0-32.8c1,0.1,1.9,0.2,2.9,0.2
										c7.5,0,13.8-4.3,15-10c0.1,0.1,0.4-1.1,0.5-1.1C1709.4,313.6,1707.9,314.6,1706.9,313.7z"/>
									<path fill="#A6A6A6" d="M1691.4,322.9"/>
								</g>
							</g>
						</g>
						<path fill="none" stroke="#A6A6A6" stroke-width="3.5277" stroke-miterlimit="10" d="M1764.2,247.7c0,0,4.6-8.6,25.8-7.1"/>
					</g>
					<path fill="#FFFFFF" d="M1681.9,338.1c-161.2,29.2-448.8,119-515.8,115.7c-158.6-7.8-327.1-63.4-510.4-100.4
						c0.2,0.2,0.3,0.4,0.5,0.6c3.4,4.3-5.3,8.2-8.6,3.9c-0.3-0.4-0.6-0.7-0.8-1c0,0,0,0.1,0,0.1c0,0.1,0,0.1-0.1,0.2
						c1.4,3,2.2,6.2,2.2,9.7c0.1,3.1-4.3,4.7-7.5,3.4c-2-0.8-3.8-1.7-5.6-2.6c-2,1.9-6.2,2.4-8.2-0.3c-3.8-5-7-10.3-8.9-15.8
						c-1.9,0.9-4.7,0.8-6.3-0.5c-2.7-2.2-4.7-4.5-6.2-7c-9.5-1.7-18.9-3.3-28.5-4.8c-0.3,0.8-0.6,1.6-0.9,2.3
						c-0.4,0.9-1.1,1.6-1.9,2.1c0,0.5,0.1,1,0.1,1.6c0.1,4.7-7.9,4.9-9.8,1c-0.8-1.7-1.6-3.4-2.2-5.1c-2.5,0.4-5.4-0.7-5.9-3.1
						c-2.5,0.4-5.3-0.5-5.9-2.8c-3.9-0.6-7.7-1.1-11.6-1.7c-1.2,1.4-2.2,2.9-3.2,4.4c-3,4.5-11.6,0.5-8.6-3.9
						c0.4-0.6,0.9-1.2,1.3-1.9c-21.9-2.9-44.1-5.4-66.4-7.3c-0.9,1.8-3.3,3.1-5.9,2.4c-3.4-0.9-6.4-2.2-9.3-3.6
						c-1.4-0.1-2.7-0.2-4.1-0.3l-0.2,0.1c0,0.5-0.1,1-0.1,1.6c-0.1,4.2-7.1,5.1-9.4,1.8c-1.4-0.7-2.5-1.9-2.6-3.3
						c0-0.3-0.1-0.6-0.1-1c-12.6-0.8-25.3-1.3-38.1-1.7c0.1,1.9,0.2,3.9,0.3,5.8c0,3.2-4,4.4-6.9,3.5c-1.5,0.5-3.3,0.6-4.8-0.2
						c-1,0.9-2.3,1.7-4,2c-1.3,0.3-2.6,0.1-3.7-0.3c-0.2,1.3-0.5,2.6-0.8,3.9c-1.1,4.4-9.8,3.3-9.8-1c0-4.7,0.1-9.4,0.7-14.1
						c-1.5,0-3.1,0-4.6,0c-2.7,0-5.4,0-8.1,0.1v7.7c0,4.5-8.2,5.2-9.8,1c-0.2-0.5-0.3-0.9-0.5-1.4c-1,0.5-2.1,0.8-3.4,1
						c-2.3,0.2-4.9-0.6-5.9-2.1c-0.3,0.2-0.6,0.4-0.9,0.6c-0.9,0.7-1.9,1.4-3,2c-4.9,3-11.9-1.9-7.1-5.5c0.7-0.5,1.4-1,2-1.4
						c-68.1,7.3-144.4,31.9-204.8,44.9C46.2,382.6-1.5,414.3-1.5,414.3v446.2H1906V338.1C1906,338.1,1755.1,324.9,1681.9,338.1z"/>
				</g>
				<g id="landscape_7_">
					<path fill="#DDDDDD" d="M1895.7,1090.4l-2-518.2c0,0-353.2-7-575.7,70.5c-222.5,77.5-365.5,144.8-654,183.8
						c-288.5,39-340.8-16.7-665.5-16l0.7,168.3H-1v189.8h1896v-78.3L1895.7,1090.4z"/>
				</g>
				<g>
					<defs>
						<rect id="SVGID_155_" x="-1.5" y="-305" width="1897.2" height="1475.6"/>
					</defs>
					<clipPath id="SVGID_14_">
						<use xlink:href="#SVGID_155_"  overflow="visible"/>
					</clipPath>
				</g>
			</g>
		</g>
	</g>
	<path fill="none" d="M1320.4,630.3"/>
	<path fill="#A6A6A6" d="M308.9,298.4"/>
	<g>
		<g>
			<path fill="none" stroke="#51A332" stroke-width="9" stroke-linecap="round" stroke-linejoin="round" stroke-miterlimit="10" d="
				M301.8,850.5"/>
			<path fill="none" stroke="#51A332" stroke-width="9" stroke-linecap="round" stroke-linejoin="round" stroke-miterlimit="10" d="
				M344.8,851.5"/>
			<path fill="none" stroke="#51A332" stroke-width="9" stroke-linecap="round" stroke-linejoin="round" stroke-miterlimit="10" d="
				M387.8,850.5"/>
			<path fill="none" stroke="#51A332" stroke-width="9" stroke-linecap="round" stroke-linejoin="round" stroke-miterlimit="10" d="
				M435.8,851.5"/>
			<path fill="none" stroke="#51A332" stroke-width="9" stroke-linecap="round" stroke-linejoin="round" stroke-miterlimit="10" d="
				M524.8,848.5"/>
			<path fill="none" stroke="#51A332" stroke-width="9" stroke-linecap="round" stroke-linejoin="round" stroke-miterlimit="10" d="
				M480.8,852.5"/>
			
				<line fill="none" stroke="#51A332" stroke-width="9" stroke-linecap="round" stroke-linejoin="round" stroke-miterlimit="10" x1="248.8" y1="852.5" x2="610.8" y2="852.5"/>
			
				<line fill="none" stroke="#51A332" stroke-width="9" stroke-linecap="round" stroke-linejoin="round" stroke-miterlimit="10" x1="219.8" y1="854.5" x2="166.8" y2="854.5"/>
			
				<line fill="none" stroke="#51A332" stroke-width="9" stroke-linecap="round" stroke-linejoin="round" stroke-miterlimit="10" x1="653.3" y1="852.5" x2="680.3" y2="852.5"/>
			<g>
				<g>
					<path fill="#51A332" d="M573.6,547.7c0-30.9-13.5-59.4-37.2-79c1.9-5.7,2.9-11.5,2.9-17.6c0-30.1-24.5-54.5-54.5-54.5
						c-5.2,0-10.4,0.7-15.4,2.2c-13-27.5-40.4-44.9-71.2-44.9c-41.7,0-76,32.6-78.7,73.7c-2.1-0.3-4.2-0.5-6.4-0.5
						c-22.3,0-40.4,18.1-40.4,40.4c0,11.8,5.2,22.9,13.9,30.5c-22.7,18.9-36,47.1-36,76.8c0,55.2,44.9,100.1,100,100.1
						c14.1,0,28-3,40.8-8.7l0,182c0,3.3,2.6,5.9,5.9,5.9h36.9c3.3,0,5.9-2.6,5.9-5.9l0-154.7c3.5,0.7,7.1,1,10.7,1
						c27.5,0,50.8-20.4,55.1-46.9c6.3,4.2,13.8,6.5,21.6,6.5c21.5,0,39-17.5,39-39c0-6.7-1.7-13.3-5-19.1
						C569.4,581.1,573.6,564.5,573.6,547.7z M549.9,599.4c3.2,4.6,4.9,10,4.9,15.6c0,15-12.2,27.3-27.3,27.3c-7.3,0-14.2-2.8-19.3-8
						c-1.6-1.6-4-2.2-6.2-1.4c-1,0.4-2,0.7-3.1,1c-2.4,0.8-4,3-4.1,5.5c-0.5,23.9-20.2,43.3-44.1,43.3c-3.6,0-7.1-0.4-10.6-1.3
						l0-0.7c-3.9,0.3-7.9-0.7-11.9-0.7l0,162.2h-25.1l0-184.7c0.1-0.4,0.1-0.7,0.1-1.1l0-9.2c-3.8,2.3-7.8,4.3-11.9,6.1V653
						c-12.5,6.6-26.6,10-40.8,10c-48.7,0-88.3-39.6-88.3-88.3c0-28.7,14-55.7,37.5-72.2c1.7-1.2,2.6-3.1,2.5-5.1
						c-0.1-2-1.3-3.9-3-4.8c-9.2-5-14.9-14.7-14.9-25.1c0-15.8,12.8-28.6,28.6-28.6c3.4,0,6.8,0.6,10.1,1.9c1.8,0.7,3.9,0.4,5.5-0.7
						c1.6-1.1,2.5-3,2.4-5l0-0.4c0-0.6,0-1.2,0-1.8c0-37,30.1-67.1,67.1-67.1c27.8,0,52.3,16.7,62.5,42.7c0.6,1.5,1.7,2.7,3.2,3.3
						c1.4,0.6,3.1,0.6,4.6,0c5.2-2.1,10.7-3.2,16.3-3.2c23.6,0,42.8,19.2,42.8,42.8c0,5.9-1.2,11.7-3.6,17.1
						c-1.1,2.5-0.3,5.4,1.8,7.1c22.9,17.3,36,43.7,36,72.3c0,16-4.2,31.7-12.2,45.4C548.4,595.1,548.5,597.6,549.9,599.4z"/>
					<path fill="#51A332" d="M440.2,681.4"/>
				</g>
			</g>
			<g>
				<g>
					<path fill="#51A332" d="M775.6,551.7c0-30.9-13.5-59.4-37.2-79c1.9-5.7,2.9-11.5,2.9-17.6c0-30.1-24.5-54.5-54.5-54.5
						c-5.2,0-10.4,0.7-15.4,2.2c-10.2-21.6-29.3-36.9-51.9-42.6c-0.6,3.9-1.1,7.8-1.7,11.7c20.2,5.4,36.9,20.1,44.9,40.4
						c0.6,1.5,1.7,2.7,3.2,3.3c1.4,0.6,3.1,0.6,4.6,0c5.2-2.1,10.7-3.2,16.3-3.2c23.6,0,42.8,19.2,42.8,42.8
						c0,5.9-1.2,11.7-3.6,17.1c-1.1,2.5-0.3,5.4,1.8,7.1c22.9,17.3,36,43.7,36,72.3c0,16-4.2,31.7-12.2,45.4c-1.2,2-1,4.5,0.3,6.3
						c3.2,4.6,4.9,10,4.9,15.6c0,15-12.2,27.3-27.3,27.3c-7.3,0-14.2-2.8-19.3-8c-1.6-1.6-4-2.2-6.2-1.4c-1,0.4-2,0.7-3.1,1
						c-2.4,0.8-4,3-4.1,5.5c-0.5,23.9-20.2,43.3-44.1,43.3c-3.6,0-7.1-0.4-10.6-1.3l0-80l42.6-42.6c1.7-1.7,2.1-4.1,1.3-6.2
						c-0.3-0.9-0.8-1.7-1.5-2.4l-14.6-14.6c-2.2-2.2-6.1-2.2-8.3,0l-19.6,19.6l0-91.1c0-0.6-0.1-1.3-0.3-1.9c-0.7-2.5-3-4.3-5.7-4.3
						h-36.9c-3.3,0-5.9,2.6-5.9,5.9l0,124.2l-25.8-25.8c-0.4,4.6-1.6,9.1-3.3,13.6l30.9,30.9c1.7,1.7,4.2,2.2,6.4,1.3
						c2.2-0.9,3.6-3.1,3.6-5.4l0-132.5h25l0,99.5c0,0.6,0.1,1.3,0.3,1.8c0.5,1.7,1.7,3.2,3.4,3.9c2.2,0.9,4.7,0.4,6.4-1.3l25.6-25.6
						l6,6l-40,40c-1.1,1.1-1.7,2.6-1.7,4.2l0,243.6h-25.1l0-184.7c0.1-0.4,0.1-0.7,0.1-1.1l0-24.8c0-0.6-0.1-1.2-0.3-1.7
						c-0.3-1-0.8-2-1.6-2.8l-41.6-41.6c-0.3,5-0.8,10-2,14.9l33.5,33.5l0,19.1c-12.5,6.6-26.6,10-40.8,10
						c-19.2,0-36.9-6.1-51.4-16.5c-0.5,4.1-1.5,8.2-2.7,12.4c15.6,10.1,34.2,15.9,54.1,15.9c14.1,0,28-3,40.8-8.7l0,182
						c0,3.3,2.6,5.9,5.9,5.9h36.9c3.3,0,5.9-2.6,5.9-5.9l0-154.7c3.5,0.7,7.1,1,10.7,1c27.5,0,50.8-20.4,55.1-46.9
						c6.3,4.2,13.8,6.5,21.6,6.5c21.5,0,39-17.5,39-39c0-6.7-1.7-13.3-5-19.1C771.4,585.1,775.6,568.5,775.6,551.7z"/>
					<path fill="#51A332" d="M533.1,437.2c0-0.2,0-0.3,0-0.5c0-15.4,5.2-29.7,14-41c-3.3-2.1-6.6-4.2-9.9-6.4
						c-6.9,9.1-11.8,19.7-14.2,31.2C528.1,425.1,531.6,430.8,533.1,437.2z"/>
					<path fill="#51A332" d="M642.2,685.4"/>
				</g>
			</g>
			<g>
				<g>
					<path fill="#51A332" d="M356.8,667.2c-0.2,0.1,1.9-3.5,1.7-3.4c-2.1,0.7-3.5,2.6-3.6,4.8c-0.4,20.8-17.6,37.7-38.4,37.7
						c-3.1,0-6.2-0.4-9.2-1.1l0-48.7c-3.8-1.6-7.4-3.7-10.3-6.4l0,195.2h-21.9l0-160.9c0.1-0.3,0.1-0.6,0.1-1l0-21.6
						c0-0.5-0.1-1-0.2-1.5c-0.2-0.9-0.7-1.7-1.4-2.4l-49.3-49.3l5.3-5.3l36.8,36.8c1.5,1.5,3.7,1.9,5.6,1.1c1.9-0.8,3.2-2.7,3.2-4.7
						l0.3-11.8c-7.7-2.7-12.5-17.2-14.7-26.7l4,25.9l-31.6-31.6c-2-2-5.2-2-7.2,0l-12.7,12.7c-1,1-1.5,2.3-1.5,3.6
						c0,0.6,0.1,1.2,0.3,1.8c0.2,0.8,0.7,1.5,1.3,2.1l51.5,51.5l0,16.6c-10.9,5.7-23.1,8.7-35.5,8.7c-42.4,0-76.9-34.5-76.9-76.9
						c0-25,12.2-48.5,32.7-62.9c1.4-1,2.3-2.7,2.2-4.5c-0.1-1.8-1.1-3.4-2.6-4.2c-8-4.4-13-12.8-13-21.9c0-13.7,11.2-24.9,24.9-24.9
						c3,0,5.9,0.5,8.8,1.6c1.6,0.6,3.4,0.4,4.8-0.6c1.4-1,2.2-2.6,2.1-4.3l0-0.4c0-0.5,0-1.1,0-1.6c0-32.2,26.2-58.4,58.4-58.4
						c7.8,0,15.4,1.5,22.3,4.4c0.3-0.2,0.6-0.3,0.9-0.4c4.2-1.6,8.6-2.8,12.9-4c-10.6-6.5-23-10.2-36.1-10.2
						c-36.4,0-66.2,28.4-68.6,64.2c-1.8-0.3-3.7-0.4-5.6-0.4c-19.4,0-35.2,15.8-35.2,35.2c0,10.3,4.5,19.9,12.1,26.5
						c-19.7,16.5-31.4,41-31.4,66.9c0,48.1,39.1,87.2,87.2,87.2c12.3,0,24.4-2.6,35.5-7.6l0,158.5c0,2.8,2.3,5.1,5.1,5.1l32.1,0
						c2.8,0,5.1-2.3,5.1-5.1l0-134.7c3.1,0.6,6.2,0.9,9.3,0.9c24,0,44.2-17.8,48-40.9c0.4,0.3,1.2-4.7,1.6-4.4
						C364.8,666.6,359.9,670.7,356.8,667.2z"/>
					<path fill="#51A332" d="M307.3,705.1"/>
				</g>
			</g>
		</g>
		<path fill="none" stroke="#51A332" stroke-width="12" stroke-miterlimit="10" d="M539.9,396c0,0,14.6-35.4,82.3-29.1"/>
	</g>
	<g>
		<defs>
			<path id="SVGID_157_" d="M1906,1155.4l-2-671c0,0-355.7-9.1-579.8,91.3C1100,676,956,763.2,665.4,813.7
				c-290.6,50.5-343.3-21.6-670.3-20.7l0.7,218h-0.2v245.8h1909.7v-101.4L1906,1155.4z"/>
		</defs>
		<clipPath id="SVGID_16_">
			<use xlink:href="#SVGID_157_"  overflow="visible"/>
		</clipPath>
		<rect x="-4.9" y="-250.8" clip-path="url(#SVGID_16_)" fill="#51A332" width="1915.7" height="1122.6"/>
	</g>
</g>
<g id="_x31_F">
</g>
</svg>
