<?xml version="1.0" encoding="utf-8"?>
<!-- Generator: Adobe Illustrator 18.0.0, SVG Export Plug-In . SVG Version: 6.00 Build 0)  -->
<!DOCTYPE svg PUBLIC "-//W3C//DTD SVG 1.1//EN" "http://www.w3.org/Graphics/SVG/1.1/DTD/svg11.dtd" [
	<!ENTITY ns_flows "http://ns.adobe.com/Flows/1.0/">
	<!ENTITY ns_extend "http://ns.adobe.com/Extensibility/1.0/">
	<!ENTITY ns_ai "http://ns.adobe.com/AdobeIllustrator/10.0/">
	<!ENTITY ns_graphs "http://ns.adobe.com/Graphs/1.0/">
]>
<svg version="1.1" xmlns:x="&ns_extend;" xmlns:i="&ns_ai;" xmlns:graph="&ns_graphs;"
	 xmlns="http://www.w3.org/2000/svg" xmlns:xlink="http://www.w3.org/1999/xlink" xmlns:a="http://ns.adobe.com/AdobeSVGViewerExtensions/3.0/"
	 x="0px" y="0px" viewBox="0 0 969.1 720.1" enable-background="new 0 0 969.1 720.1" xml:space="preserve">
<g id="B1">
</g>
<g id="_x31_">
</g>
<g id="_x31_F">
</g>
<g id="_x32_">
	<g>
		<g>
			<path fill="#51A332" d="M854.2,502.9l-79.2,0l0,146.6l114.9,0l0-111L854.2,502.9z M855.6,511.2l25.9,25.9h-25.9L855.6,511.2z
				 M779.9,644.6l0-136.8l70.9,0l0,34.2H885l0,102.6L779.9,644.6z M779.9,644.6"/>
			<path fill="#51A332" d="M799.4,544.5h22c1.4,0,2.4-1.1,2.4-2.4c0-1.4-1.1-2.4-2.4-2.4h-22c-1.3,0-2.4,1.1-2.4,2.4
				C797,543.4,798.1,544.5,799.4,544.5L799.4,544.5z M799.4,544.5"/>
			<path fill="#51A332" d="M799.4,564h12.2c1.3,0,2.4-1.1,2.4-2.4c0-1.3-1.1-2.4-2.4-2.4h-12.2c-1.3,0-2.4,1.1-2.4,2.4
				C797,562.9,798.1,564,799.4,564L799.4,564z M799.4,564"/>
			<path fill="#51A332" d="M836.1,564h17.1c1.3,0,2.4-1.1,2.4-2.4c0-1.3-1.1-2.4-2.4-2.4h-17.1c-1.3,0-2.4,1.1-2.4,2.4
				C833.6,562.9,834.7,564,836.1,564L836.1,564z M836.1,564"/>
			<path fill="#51A332" d="M822.1,559.8c-0.5,0.4-0.7,1.1-0.7,1.7c0,0.6,0.3,1.3,0.7,1.7c0.5,0.4,1.1,0.7,1.7,0.7
				c0.6,0,1.3-0.3,1.7-0.7c0.4-0.5,0.7-1.1,0.7-1.7c0-0.6-0.3-1.3-0.7-1.7C824.7,558.9,823,558.9,822.1,559.8L822.1,559.8z
				 M822.1,559.8"/>
			<path fill="#51A332" d="M865.4,564c0.6,0,1.3-0.3,1.7-0.7c0.4-0.5,0.7-1.1,0.7-1.7c0-0.6-0.3-1.3-0.7-1.7c-0.9-0.9-2.5-0.9-3.5,0
				c-0.4,0.5-0.7,1.1-0.7,1.7c0,0.6,0.3,1.3,0.7,1.7C864.1,563.7,864.8,564,865.4,564L865.4,564z M865.4,564"/>
			<path fill="#51A332" d="M828.8,578.7l-17.1,0c-1.3,0-2.4,1.1-2.4,2.4c0,1.3,1.1,2.4,2.4,2.4l17.1,0c1.3,0,2.4-1.1,2.4-2.4
				C831.2,579.8,830.1,578.7,828.8,578.7L828.8,578.7z M828.8,578.7"/>
			<path fill="#51A332" d="M799.4,583.5c0.6,0,1.3-0.3,1.7-0.7c0.5-0.5,0.7-1.1,0.7-1.7c0-0.6-0.3-1.3-0.7-1.7
				c-0.9-0.9-2.5-0.9-3.5,0c-0.5,0.5-0.7,1.1-0.7,1.7c0,0.6,0.3,1.3,0.7,1.7C798.2,583.3,798.8,583.5,799.4,583.5L799.4,583.5z
				 M799.4,583.5"/>
			<path fill="#51A332" d="M873.3,587.2c-0.6-0.2-0.8-0.6-0.9-0.9c-0.1-0.2-0.2-0.7,0-1.3c1.2-2.5,0.7-5.4-1.3-7.3
				c-2-1.9-4.8-2.4-7.3-1.3c-0.6,0.3-1,0.1-1.3,0c-0.2-0.1-0.7-0.3-0.9-0.9c-0.9-2.6-3.3-4.3-6.1-4.3c-2.8,0-5.1,1.7-6.1,4.3
				c-0.2,0.6-0.6,0.8-0.9,0.9c-0.2,0.1-0.7,0.2-1.3,0c-2.5-1.2-5.4-0.7-7.3,1.3c-2,2-2.4,4.8-1.3,7.3c0.3,0.6,0.1,1,0,1.3
				c-0.1,0.2-0.4,0.7-0.9,0.9c-2.6,0.9-4.3,3.3-4.3,6.1c0,2.8,1.7,5.1,4.3,6.1c0.6,0.2,0.8,0.6,0.9,0.9c0.1,0.2,0.2,0.7,0,1.3
				c-1.2,2.5-0.7,5.4,1.3,7.3c0.9,0.9,2.1,1.5,3.3,1.8l0,30.1l12.2-12.2l12.2,12.2l0-30.1c1.2-0.2,2.4-0.8,3.3-1.8
				c2-2,2.4-4.8,1.3-7.3c-0.3-0.5-0.1-1,0-1.3c0.1-0.2,0.3-0.7,0.9-0.9c2.6-0.9,4.3-3.3,4.3-6.1C877.6,590.6,876,588.2,873.3,587.2
				L873.3,587.2z M855.6,621.6l-7.3,7.3l0-19c0,0,0,0,0.1,0c0.1,0,0.2,0,0.3,0.1c0.1,0,0.3,0.1,0.5,0.3c0.2,0.1,0.3,0.3,0.4,0.6
				c0.9,2.6,3.3,4.3,6.1,4.3c2.8,0,5.2-1.7,6.1-4.3c0.1-0.3,0.3-0.5,0.4-0.6c0.2-0.1,0.3-0.2,0.5-0.3c0.1,0,0.2-0.1,0.3-0.1
				c0,0,0,0,0.1,0l0,19L855.6,621.6z M871.7,594.8c-1.7,0.6-3.1,1.9-3.8,3.6c-0.7,1.7-0.7,3.6,0.1,5.2c0.4,0.9-0.1,1.5-0.3,1.8
				c-0.2,0.2-0.7,0.5-1.4,0.4l-0.5-0.2c-0.2-0.1-0.5-0.2-0.7-0.2c-0.2,0-0.3-0.1-0.5-0.2c-0.2,0-0.5-0.1-0.7-0.1
				c-0.2,0-0.4-0.1-0.6-0.1c-0.2,0-0.5,0-0.7,0c-0.2,0-0.4,0-0.6,0.1c-0.4,0.1-0.9,0.2-1.3,0.4c-0.1,0-0.2,0.1-0.3,0.2
				c-0.3,0.1-0.6,0.3-0.9,0.5c-0.3,0.2-0.6,0.5-0.9,0.8c0,0-0.1,0-0.1,0.1c-0.6,0.7-1.1,1.4-1.4,2.3c-0.3,0.9-1.1,1-1.5,1
				c-0.3,0-1.1-0.1-1.5-1c-0.3-0.9-0.8-1.6-1.4-2.3c0,0,0,0-0.1-0.1c-0.3-0.3-0.6-0.6-0.9-0.8c-0.3-0.2-0.6-0.3-0.8-0.5
				c-0.1,0-0.2-0.1-0.3-0.2c0,0-0.1,0-0.2,0c-0.4-0.1-0.7-0.3-1.1-0.3c-0.3-0.1-0.6-0.1-0.9-0.1c-0.1,0-0.2,0-0.3,0c0,0,0,0,0,0
				c-0.9,0-1.8,0.2-2.6,0.5l-0.6,0.2c-0.7,0.2-1.2-0.2-1.4-0.4c-0.2-0.2-0.7-0.9-0.3-1.8c0.8-1.6,0.8-3.6,0.1-5.2
				c-0.7-1.7-2.1-3-3.8-3.6c-0.9-0.3-1-1.1-1-1.5c0-0.3,0.1-1.1,1-1.5c1.7-0.6,3.1-1.9,3.8-3.6c0.7-1.7,0.7-3.6-0.1-5.3
				c-0.4-0.9,0.1-1.5,0.3-1.8c0.2-0.2,0.9-0.7,1.8-0.3c1.6,0.8,3.6,0.8,5.2,0.1c1.7-0.7,3-2.1,3.6-3.8c0.3-0.9,1.1-1,1.5-1
				c0.3,0,1.1,0.1,1.5,1c0.6,1.7,1.9,3.1,3.6,3.8c1.7,0.7,3.6,0.7,5.3-0.1c0.9-0.4,1.5,0.1,1.8,0.3c0.2,0.2,0.7,0.9,0.3,1.8
				c-0.8,1.6-0.8,3.6-0.1,5.2c0.7,1.7,2.1,3,3.8,3.6c0.9,0.3,1,1.1,1,1.5C872.7,593.7,872.7,594.5,871.7,594.8L871.7,594.8z
				 M871.7,594.8"/>
		</g>
		<circle fill="#51A332" cx="77.2" cy="543.7" r="45.8"/>
		<path fill="#FFFFFF" d="M88,526.2c-10.7,5.6-14.4,16.3-15.7,27.4c-2-1.7-4.1-3.4-6.1-5.1c-4.8-4-11.8,2.9-6.9,7
			c4.6,3.8,9.2,7.7,13.8,11.5c3.2,2.7,8.3,1,8.4-3.5c0.4-10.7,0.9-23.3,11.5-28.9C98.6,531.7,93.6,523.2,88,526.2L88,526.2z
			 M88,526.2"/>
		<g>
			<g>
				<g>
					<g>
						<path fill="#51A332" d="M617.3,51.3c-0.8,0-1.4,0.6-1.4,1.4l0,77.8c0,0.8,0.6,1.4,1.4,1.4h55.6c0.8,0,1.4-0.6,1.4-1.4l0-77.8
							c0-0.8-0.6-1.4-1.4-1.4H617.3z M618.7,54.1l13.9,0v4.2c0,0.8,0.6,1.4,1.4,1.4h22.2c0.8,0,1.4-0.6,1.4-1.4l0-4.2h13.9l0,36.1
							h-14c-0.7-6.2-6-11.1-12.4-11.1c-6.4,0-11.7,4.9-12.4,11.1h-14L618.7,54.1z M635.3,54.1h19.5v2.8h-19.5L635.3,54.1z
							 M645.1,81.9c4.9,0,9,3.6,9.6,8.3h-19.3C636.1,85.5,640.1,81.9,645.1,81.9L645.1,81.9z M618.7,93h14c0.7,6.2,6,11.1,12.4,11.1
							c6.4,0,11.7-4.9,12.4-11.1h14l0,36.1l-13.9,0v-4.2c0-0.8-0.6-1.4-1.4-1.4h-22.2c-0.8,0-1.4,0.6-1.4,1.4l0,4.2h-13.9L618.7,93z
							 M635.4,93h19.3c-0.7,4.7-4.7,8.3-9.6,8.3S636.1,97.7,635.4,93L635.4,93z M635.3,126.3h19.5v2.8h-19.5V126.3z M635.3,126.3"/>
					</g>
					<g>
						<path fill="#51A332" d="M680.1,51.3c-0.8,0-1.4,0.6-1.4,1.4l0,77.8c0,0.8,0.6,1.4,1.4,1.4h55.6c0.8,0,1.4-0.6,1.4-1.4l0-77.8
							c0-0.8-0.6-1.4-1.4-1.4H680.1z M681.5,54.1h13.9l0,4.2c0,0.8,0.6,1.4,1.4,1.4l22.2,0c0.8,0,1.4-0.6,1.4-1.4v-4.2h13.9l0,36.1
							h-14c-0.7-6.2-6-11.1-12.4-11.1c-6.4,0-11.7,4.9-12.4,11.1h-14L681.5,54.1z M698.2,54.1h19.5l0,2.8h-19.5V54.1z M707.9,81.9
							c4.9,0,9,3.6,9.6,8.3l-19.3,0C698.9,85.5,703,81.9,707.9,81.9L707.9,81.9z M681.5,93h14c0.7,6.2,6,11.1,12.4,11.1
							c6.4,0,11.7-4.9,12.4-11.1h14l0,36.1h-13.9l0-4.2c0-0.8-0.6-1.4-1.4-1.4h-22.2c-0.8,0-1.4,0.6-1.4,1.4v4.2h-13.9L681.5,93z
							 M698.3,93h19.3c-0.7,4.7-4.7,8.3-9.6,8.3S698.9,97.7,698.3,93L698.3,93z M698.2,126.3h19.5v2.8h-19.5V126.3z M698.2,126.3"/>
					</g>
					<g>
						<path fill="#51A332" d="M742.9,51.3c-0.8,0-1.4,0.6-1.4,1.4l0,77.8c0,0.8,0.6,1.4,1.4,1.4h55.6c0.8,0,1.4-0.6,1.4-1.4l0-77.8
							c0-0.8-0.6-1.4-1.4-1.4H742.9z M744.3,54.1h13.9v4.2c0,0.8,0.6,1.4,1.4,1.4l22.2,0c0.8,0,1.4-0.6,1.4-1.4l0-4.2h13.9l0,36.1
							h-14c-0.7-6.2-6-11.1-12.4-11.1c-6.4,0-11.7,4.9-12.4,11.1h-14L744.3,54.1z M761,54.1h19.5v2.8H761L761,54.1z M770.7,81.9
							c4.9,0,9,3.6,9.6,8.3l-19.3,0C761.7,85.5,765.8,81.9,770.7,81.9L770.7,81.9z M744.3,93h14c0.7,6.2,6,11.1,12.4,11.1
							s11.7-4.9,12.4-11.1h14l0,36.1h-13.9v-4.2c0-0.8-0.6-1.4-1.4-1.4h-22.2c-0.8,0-1.4,0.6-1.4,1.4l0,4.2h-13.9L744.3,93z
							 M761.1,93h19.3c-0.7,4.7-4.7,8.3-9.6,8.3S761.7,97.7,761.1,93L761.1,93z M761,126.3h19.5v2.8l-19.5,0V126.3z M761,126.3"/>
					</g>
					<g>
						<path fill="#51A332" d="M805.7,51.3c-0.8,0-1.4,0.6-1.4,1.4l0,77.8c0,0.8,0.6,1.4,1.4,1.4h55.6c0.8,0,1.4-0.6,1.4-1.4l0-77.8
							c0-0.8-0.6-1.4-1.4-1.4H805.7z M807.1,54.1H821l0,4.2c0,0.8,0.6,1.4,1.4,1.4l22.2,0c0.8,0,1.4-0.6,1.4-1.4v-4.2h13.9l0,36.1
							h-14c-0.7-6.2-6-11.1-12.4-11.1s-11.7,4.9-12.4,11.1h-14L807.1,54.1z M823.8,54.1h19.5l0,2.8h-19.5V54.1z M833.5,81.9
							c4.9,0,9,3.6,9.6,8.3l-19.3,0C824.6,85.5,828.6,81.9,833.5,81.9L833.5,81.9z M807.1,93h14c0.7,6.2,6,11.1,12.4,11.1
							c6.4,0,11.7-4.9,12.4-11.1h14l0,36.1H846l0-4.2c0-0.8-0.6-1.4-1.4-1.4h-22.2c-0.8,0-1.4,0.6-1.4,1.4v4.2h-13.9L807.1,93z
							 M823.9,93h19.3c-0.7,4.7-4.7,8.3-9.6,8.3S824.6,97.7,823.9,93L823.9,93z M823.8,126.3h19.5v2.8l-19.5,0V126.3z M823.8,126.3"
							/>
					</g>
					<g>
						<path fill="#51A332" d="M617.3,134.2c-0.8,0-1.4,0.6-1.4,1.4l0,77.8c0,0.8,0.6,1.4,1.4,1.4l55.6,0c0.8,0,1.4-0.6,1.4-1.4
							l0-77.8c0-0.8-0.6-1.4-1.4-1.4H617.3z M618.7,136.9h13.9v4.2c0,0.8,0.6,1.4,1.4,1.4h22.2c0.8,0,1.4-0.6,1.4-1.4v-4.2h13.9
							l0,36.1h-14c-0.7-6.2-6-11.1-12.4-11.1s-11.7,4.9-12.4,11.1h-14L618.7,136.9z M635.3,136.9h19.5v2.8h-19.5V136.9z
							 M645.1,164.7c4.9,0,9,3.6,9.6,8.3h-19.3C636.1,168.3,640.1,164.7,645.1,164.7L645.1,164.7z M618.7,175.8h14
							c0.7,6.2,6,11.1,12.4,11.1c6.4,0,11.7-4.9,12.4-11.1h14l0,36.1h-13.9v-4.2c0-0.8-0.6-1.4-1.4-1.4h-22.2
							c-0.8,0-1.4,0.6-1.4,1.4v4.2h-13.9L618.7,175.8z M635.4,175.8l19.3,0c-0.7,4.7-4.7,8.3-9.6,8.3
							C640.1,184.2,636.1,180.6,635.4,175.8L635.4,175.8z M635.3,209.2l19.5,0v2.8h-19.5L635.3,209.2z M635.3,209.2"/>
					</g>
					<g>
						<path fill="#51A332" d="M680.1,134.2c-0.8,0-1.4,0.6-1.4,1.4l0,77.8c0,0.8,0.6,1.4,1.4,1.4l55.6,0c0.8,0,1.4-0.6,1.4-1.4
							l0-77.8c0-0.8-0.6-1.4-1.4-1.4H680.1z M681.5,136.9h13.9v4.2c0,0.8,0.6,1.4,1.4,1.4H719c0.8,0,1.4-0.6,1.4-1.4v-4.2h13.9
							l0,36.1h-14c-0.7-6.2-6-11.1-12.4-11.1s-11.7,4.9-12.4,11.1h-14L681.5,136.9z M698.2,136.9h19.5v2.8h-19.5V136.9z
							 M707.9,164.7c4.9,0,9,3.6,9.6,8.3h-19.3C698.9,168.3,703,164.7,707.9,164.7L707.9,164.7z M681.5,175.8h14
							c0.7,6.2,6,11.1,12.4,11.1c6.4,0,11.7-4.9,12.4-11.1h14l0,36.1h-13.9v-4.2c0-0.8-0.6-1.4-1.4-1.4h-22.2
							c-0.8,0-1.4,0.6-1.4,1.4l0,4.2h-13.9L681.5,175.8z M698.3,175.8l19.3,0c-0.7,4.7-4.7,8.3-9.6,8.3
							C703,184.2,698.9,180.6,698.3,175.8L698.3,175.8z M698.2,209.2h19.5l0,2.8h-19.5V209.2z M698.2,209.2"/>
					</g>
					<g>
						<path fill="#51A332" d="M742.9,134.2c-0.8,0-1.4,0.6-1.4,1.4l0,77.8c0,0.8,0.6,1.4,1.4,1.4l55.6,0c0.8,0,1.4-0.6,1.4-1.4
							l0-77.8c0-0.8-0.6-1.4-1.4-1.4H742.9z M744.3,136.9h13.9v4.2c0,0.8,0.6,1.4,1.4,1.4h22.2c0.8,0,1.4-0.6,1.4-1.4v-4.2l13.9,0
							l0,36.1h-14c-0.7-6.2-6-11.1-12.4-11.1s-11.7,4.9-12.4,11.1h-14L744.3,136.9z M761,136.9h19.5v2.8H761V136.9z M770.7,164.7
							c4.9,0,9,3.6,9.6,8.3h-19.3C761.7,168.3,765.8,164.7,770.7,164.7L770.7,164.7z M744.3,175.8h14c0.7,6.2,6,11.1,12.4,11.1
							c6.4,0,11.7-4.9,12.4-11.1h14l0,36.1h-13.9l0-4.2c0-0.8-0.6-1.4-1.4-1.4h-22.2c-0.8,0-1.4,0.6-1.4,1.4v4.2h-13.9L744.3,175.8z
							 M761.1,175.8l19.3,0c-0.7,4.7-4.7,8.3-9.6,8.3C765.8,184.2,761.7,180.6,761.1,175.8L761.1,175.8z M761,209.2h19.5v2.8H761
							L761,209.2z M761,209.2"/>
					</g>
					<g>
						<path fill="#51A332" d="M805.7,134.2c-0.8,0-1.4,0.6-1.4,1.4l0,77.8c0,0.8,0.6,1.4,1.4,1.4l55.6,0c0.8,0,1.4-0.6,1.4-1.4
							l0-77.8c0-0.8-0.6-1.4-1.4-1.4H805.7z M807.1,136.9H821v4.2c0,0.8,0.6,1.4,1.4,1.4h22.2c0.8,0,1.4-0.6,1.4-1.4v-4.2l13.9,0
							l0,36.1h-14c-0.7-6.2-6-11.1-12.4-11.1s-11.7,4.9-12.4,11.1h-14L807.1,136.9z M823.8,136.9h19.5v2.8h-19.5V136.9z
							 M833.5,164.7c4.9,0,9,3.6,9.6,8.3h-19.3C824.6,168.3,828.6,164.7,833.5,164.7L833.5,164.7z M807.1,175.8l14,0
							c0.7,6.2,6,11.1,12.4,11.1c6.4,0,11.7-4.9,12.4-11.1h14l0,36.1H846v-4.2c0-0.8-0.6-1.4-1.4-1.4h-22.2c-0.8,0-1.4,0.6-1.4,1.4
							l0,4.2h-13.9L807.1,175.8z M823.9,175.8h19.3c-0.7,4.7-4.7,8.3-9.6,8.3C828.6,184.2,824.6,180.6,823.9,175.8L823.9,175.8z
							 M823.8,209.2h19.5l0,2.8h-19.5V209.2z M823.8,209.2"/>
					</g>
					<g>
						<path fill="#51A332" d="M871,51.3c-0.8,0-1.4,0.6-1.4,1.4l0,77.8c0,0.8,0.6,1.4,1.4,1.4h55.6c0.8,0,1.4-0.6,1.4-1.4l0-77.8
							c0-0.8-0.6-1.4-1.4-1.4H871z M872.4,54.1h13.9v4.2c0,0.8,0.6,1.4,1.4,1.4l22.2,0c0.8,0,1.4-0.6,1.4-1.4v-4.2h13.9l0,36.1h-14
							c-0.7-6.2-6-11.1-12.4-11.1c-6.4,0-11.7,4.9-12.4,11.1h-14L872.4,54.1z M889.1,54.1h19.5v2.8h-19.5V54.1z M898.8,81.9
							c4.9,0,9,3.6,9.6,8.3l-19.3,0C889.8,85.5,893.9,81.9,898.8,81.9L898.8,81.9z M872.4,93h14c0.7,6.2,6,11.1,12.4,11.1
							c6.4,0,11.7-4.9,12.4-11.1h14l0,36.1h-13.9l0-4.2c0-0.8-0.6-1.4-1.4-1.4h-22.2c-0.8,0-1.4,0.6-1.4,1.4v4.2h-13.9L872.4,93z
							 M889.2,93h19.3c-0.7,4.7-4.7,8.3-9.6,8.3C893.9,101.3,889.8,97.7,889.2,93L889.2,93z M889.1,126.3h19.5v2.8l-19.5,0
							L889.1,126.3z M889.1,126.3"/>
					</g>
					<g>
						<path fill="#51A332" d="M871,134.2c-0.8,0-1.4,0.6-1.4,1.4l0,77.8c0,0.8,0.6,1.4,1.4,1.4l55.6,0c0.8,0,1.4-0.6,1.4-1.4l0-77.8
							c0-0.8-0.6-1.4-1.4-1.4H871z M872.4,136.9h13.9l0,4.2c0,0.8,0.6,1.4,1.4,1.4h22.2c0.8,0,1.4-0.6,1.4-1.4v-4.2h13.9l0,36.1h-14
							c-0.7-6.2-6-11.1-12.4-11.1c-6.4,0-11.7,4.9-12.4,11.1h-14L872.4,136.9z M889.1,136.9h19.5l0,2.8h-19.5V136.9z M898.8,164.7
							c4.9,0,9,3.6,9.6,8.3h-19.3C889.8,168.3,893.9,164.7,898.8,164.7L898.8,164.7z M872.4,175.8h14c0.7,6.2,6,11.1,12.4,11.1
							c6.4,0,11.7-4.9,12.4-11.1h14l0,36.1h-13.9l0-4.2c0-0.8-0.6-1.4-1.4-1.4h-22.2c-0.8,0-1.4,0.6-1.4,1.4v4.2h-13.9L872.4,175.8z
							 M889.2,175.8l19.3,0c-0.7,4.7-4.7,8.3-9.6,8.3C893.9,184.2,889.8,180.6,889.2,175.8L889.2,175.8z M889.1,209.2h19.5v2.8
							h-19.5V209.2z M889.1,209.2"/>
					</g>
				</g>
				<g>
					<g>
						<path fill="#51A332" d="M617.3,217.6c-0.8,0-1.4,0.6-1.4,1.4l0,77.8c0,0.8,0.6,1.4,1.4,1.4h55.6c0.8,0,1.4-0.6,1.4-1.4l0-77.8
							c0-0.8-0.6-1.4-1.4-1.4H617.3z M618.7,220.4h13.9l0,4.2c0,0.8,0.6,1.4,1.4,1.4l22.2,0c0.8,0,1.4-0.6,1.4-1.4v-4.2h13.9l0,36.1
							h-14c-0.7-6.2-6-11.1-12.4-11.1s-11.7,4.9-12.4,11.1h-14L618.7,220.4z M635.3,220.4h19.5l0,2.8h-19.5V220.4z M645.1,248.1
							c4.9,0,9,3.6,9.6,8.3l-19.3,0C636.1,251.8,640.1,248.1,645.1,248.1L645.1,248.1z M618.7,259.3h14c0.7,6.2,6,11.1,12.4,11.1
							c6.4,0,11.7-4.9,12.4-11.1h14l0,36.1h-13.9v-4.2c0-0.8-0.6-1.4-1.4-1.4h-22.2c-0.8,0-1.4,0.6-1.4,1.4v4.2h-13.9L618.7,259.3z
							 M635.4,259.3h19.3c-0.7,4.7-4.7,8.3-9.6,8.3C640.1,267.6,636.1,264,635.4,259.3L635.4,259.3z M635.3,292.6h19.5v2.8l-19.5,0
							V292.6z M635.3,292.6"/>
					</g>
					<g>
						<path fill="#51A332" d="M680.1,217.6c-0.8,0-1.4,0.6-1.4,1.4l0,77.8c0,0.8,0.6,1.4,1.4,1.4h55.6c0.8,0,1.4-0.6,1.4-1.4l0-77.8
							c0-0.8-0.6-1.4-1.4-1.4L680.1,217.6z M681.5,220.4h13.9v4.2c0,0.8,0.6,1.4,1.4,1.4l22.2,0c0.8,0,1.4-0.6,1.4-1.4l0-4.2h13.9
							l0,36.1h-14c-0.7-6.2-6-11.1-12.4-11.1c-6.4,0-11.7,4.9-12.4,11.1h-14L681.5,220.4z M698.2,220.4h19.5v2.8h-19.5L698.2,220.4z
							 M707.9,248.2c4.9,0,9,3.6,9.6,8.3h-19.3C698.9,251.8,703,248.2,707.9,248.2L707.9,248.2z M681.5,259.3h14
							c0.7,6.2,6,11.1,12.4,11.1c6.4,0,11.7-4.9,12.4-11.1h14l0,36.1h-13.9v-4.2c0-0.8-0.6-1.4-1.4-1.4h-22.2
							c-0.8,0-1.4,0.6-1.4,1.4v4.2h-13.9L681.5,259.3z M698.3,259.3h19.3c-0.7,4.7-4.7,8.3-9.6,8.3C703,267.6,698.9,264,698.3,259.3
							L698.3,259.3z M698.2,292.6h19.5v2.8l-19.5,0V292.6z M698.2,292.6"/>
					</g>
					<g>
						<path fill="#51A332" d="M742.9,217.6c-0.8,0-1.4,0.6-1.4,1.4l0,77.8c0,0.8,0.6,1.4,1.4,1.4h55.6c0.8,0,1.4-0.6,1.4-1.4l0-77.8
							c0-0.8-0.6-1.4-1.4-1.4L742.9,217.6z M744.3,220.4h13.9l0,4.2c0,0.8,0.6,1.4,1.4,1.4h22.2c0.8,0,1.4-0.6,1.4-1.4v-4.2h13.9
							l0,36.1h-14c-0.7-6.2-6-11.1-12.4-11.1s-11.7,4.9-12.4,11.1l-14,0L744.3,220.4z M761,220.4h19.5l0,2.8H761V220.4z
							 M770.7,248.2c4.9,0,9,3.6,9.6,8.3h-19.3C761.7,251.8,765.8,248.2,770.7,248.2L770.7,248.2z M744.3,259.3h14
							c0.7,6.2,6,11.1,12.4,11.1c6.4,0,11.7-4.9,12.4-11.1h14l0,36.1h-13.9v-4.2c0-0.8-0.6-1.4-1.4-1.4h-22.2
							c-0.8,0-1.4,0.6-1.4,1.4v4.2h-13.9L744.3,259.3z M761.1,259.3h19.3c-0.7,4.7-4.7,8.3-9.6,8.3
							C765.8,267.6,761.7,264,761.1,259.3L761.1,259.3z M761,292.6h19.5v2.8H761V292.6z M761,292.6"/>
					</g>
					<g>
						<path fill="#51A332" d="M805.7,217.6c-0.8,0-1.4,0.6-1.4,1.4l0,77.8c0,0.8,0.6,1.4,1.4,1.4h55.6c0.8,0,1.4-0.6,1.4-1.4l0-77.8
							c0-0.8-0.6-1.4-1.4-1.4L805.7,217.6z M807.1,220.4H821v4.2c0,0.8,0.6,1.4,1.4,1.4h22.2c0.8,0,1.4-0.6,1.4-1.4l0-4.2h13.9
							l0,36.1h-14c-0.7-6.2-6-11.1-12.4-11.1c-6.4,0-11.7,4.9-12.4,11.1l-14,0L807.1,220.4z M823.8,220.4h19.5v2.8h-19.5
							L823.8,220.4z M833.5,248.2c4.9,0,9,3.6,9.6,8.3h-19.3C824.6,251.8,828.6,248.2,833.5,248.2L833.5,248.2z M807.1,259.3h14
							c0.7,6.2,6,11.1,12.4,11.1c6.4,0,11.7-4.9,12.4-11.1h14l0,36.1H846v-4.2c0-0.8-0.6-1.4-1.4-1.4h-22.2c-0.8,0-1.4,0.6-1.4,1.4
							v4.2l-13.9,0L807.1,259.3z M823.9,259.3h19.3c-0.7,4.7-4.7,8.3-9.6,8.3S824.6,264,823.9,259.3L823.9,259.3z M823.8,292.6h19.5
							v2.8h-19.5V292.6z M823.8,292.6"/>
					</g>
					<g>
						<path fill="#51A332" d="M871,217.6c-0.8,0-1.4,0.6-1.4,1.4l0,77.8c0,0.8,0.6,1.4,1.4,1.4h55.6c0.8,0,1.4-0.6,1.4-1.4l0-77.8
							c0-0.8-0.6-1.4-1.4-1.4L871,217.6z M872.4,220.4h13.9v4.2c0,0.8,0.6,1.4,1.4,1.4h22.2c0.8,0,1.4-0.6,1.4-1.4l0-4.2h13.9
							l0,36.1h-14c-0.7-6.2-6-11.1-12.4-11.1s-11.7,4.9-12.4,11.1l-14,0L872.4,220.4z M889.1,220.4h19.5v2.8h-19.5L889.1,220.4z
							 M898.8,248.2c4.9,0,9,3.6,9.6,8.3h-19.3C889.8,251.8,893.9,248.2,898.8,248.2L898.8,248.2z M872.4,259.3h14
							c0.7,6.2,6,11.1,12.4,11.1s11.7-4.9,12.4-11.1h14l0,36.1h-13.9v-4.2c0-0.8-0.6-1.4-1.4-1.4h-22.2c-0.8,0-1.4,0.6-1.4,1.4
							l0,4.2h-13.9L872.4,259.3z M889.2,259.3h19.3c-0.7,4.7-4.7,8.3-9.6,8.3S889.8,264,889.2,259.3L889.2,259.3z M889.1,292.6h19.5
							v2.8l-19.5,0V292.6z M889.1,292.6"/>
					</g>
				</g>
				<g>
					<g>
						
							<path fill="none" stroke="#51A332" stroke-width="5.428" stroke-linecap="round" stroke-linejoin="round" stroke-miterlimit="10" d="
							M27.4,135.5c0,0,237,9,298.5-103.1"/>
						
							<polyline fill="none" stroke="#51A332" stroke-width="5.428" stroke-linecap="round" stroke-linejoin="round" stroke-miterlimit="10" points="
							286.6,50.5 328.2,28.8 340.9,68.6 						"/>
					</g>
					<g>
						<g>
							<path fill="#51A332" d="M246,235.8c0-14.7-6.4-28.2-17.7-37.5c0.9-2.7,1.4-5.5,1.4-8.3c0-14.3-11.6-25.9-25.9-25.9
								c-2.5,0-4.9,0.3-7.3,1c-6.2-13-19.2-21.3-33.8-21.3c-19.8,0-36.1,15.5-37.4,35c-1-0.2-2-0.2-3-0.2
								c-10.6,0-19.2,8.6-19.2,19.2c0,5.6,2.4,10.9,6.6,14.5c-10.8,9-17.1,22.3-17.1,36.5c0,26.2,21.3,47.5,47.5,47.5
								c6.7,0,13.3-1.4,19.3-4.1l0,86.4c0,1.5,1.2,2.8,2.8,2.8h17.5c1.5,0,2.8-1.2,2.8-2.8l0-73.4c1.7,0.3,3.4,0.5,5.1,0.5
								c13.1,0,24.1-9.7,26.2-22.3c3,2,6.5,3.1,10.2,3.1c10.2,0,18.5-8.3,18.5-18.5c0-3.2-0.8-6.3-2.4-9.1
								C244,251.6,246,243.8,246,235.8z M234.7,260.4c1.5,2.2,2.3,4.7,2.3,7.4c0,7.1-5.8,12.9-12.9,12.9c-3.5,0-6.7-1.3-9.2-3.8
								c-0.8-0.8-1.9-1-2.9-0.7c-0.5,0.2-1,0.3-1.5,0.5c-1.1,0.4-1.9,1.4-1.9,2.6c-0.2,11.3-9.6,20.5-20.9,20.5
								c-1.7,0-3.4-0.2-5-0.6l0-0.3c-1.9,0.1-3.8-0.3-5.6-0.3l0,77h-11.9l0-87.6c0-0.2,0-0.3,0-0.5l0-4.4c-1.8,1.1-3.7,2-5.6,2.9
								v-0.2c-5.9,3.1-12.6,4.7-19.3,4.7c-23.1,0-41.9-18.8-41.9-41.9c0-13.6,6.7-26.4,17.8-34.3c0.8-0.6,1.2-1.5,1.2-2.4
								c-0.1-1-0.6-1.8-1.4-2.3c-4.4-2.4-7.1-7-7.1-11.9c0-7.5,6.1-13.6,13.6-13.6c1.6,0,3.2,0.3,4.8,0.9c0.9,0.3,1.9,0.2,2.6-0.3
								c0.8-0.5,1.2-1.4,1.2-2.4l0-0.2c0-0.3,0-0.6,0-0.9c0-17.6,14.3-31.8,31.8-31.8c13.2,0,24.8,8,29.7,20.3
								c0.3,0.7,0.8,1.3,1.5,1.6c0.7,0.3,1.5,0.3,2.2,0c2.5-1,5.1-1.5,7.7-1.5c11.2,0,20.3,9.1,20.3,20.3c0,2.8-0.6,5.5-1.7,8.1
								c-0.5,1.2-0.2,2.6,0.9,3.3c10.9,8.2,17.1,20.7,17.1,34.3c0,7.6-2,15-5.8,21.6C234.1,258.3,234.1,259.5,234.7,260.4z"/>
							<path fill="#51A332" d="M182.7,299.3"/>
						</g>
					</g>
					<g>
						<g>
							<path fill="#51A332" d="M476,204.3c0.1-17.9-7.6-34.5-21.2-45.9c1.1-3.3,1.7-6.7,1.8-10.2c0.1-17.4-13.9-31.7-31.4-31.9
								c-3,0-6,0.4-8.9,1.2c-7.4-16-23.2-26.2-41.1-26.4c-24.2-0.2-44.2,18.6-46,42.4c-1.2-0.2-2.5-0.3-3.7-0.3
								c-12.9-0.1-23.5,10.3-23.6,23.2c-0.1,6.9,2.9,13.3,7.9,17.7c-13.2,10.9-21.1,27.1-21.2,44.4c-0.3,32,25.6,58.2,57.5,58.5
								c8.2,0.1,16.2-1.6,23.7-4.9L369,377.7c0,1.9,1.5,3.4,3.4,3.4l21.4,0.2c1.9,0,3.4-1.5,3.4-3.4l0.7-89.7c2,0.4,4.1,0.6,6.2,0.6
								c16,0.1,29.5-11.6,32.2-26.9c3.7,2.5,8,3.8,12.5,3.9c12.5,0.1,22.7-10,22.8-22.4c0-3.9-0.9-7.7-2.8-11.1
								C473.4,223.7,475.9,214.1,476,204.3z M462,234.2c1.8,2.7,2.8,5.8,2.8,9.1c-0.1,8.7-7.2,15.7-15.9,15.7
								c-4.2,0-8.2-1.7-11.2-4.7c-0.9-0.9-2.3-1.3-3.6-0.8c-0.6,0.2-1.2,0.4-1.8,0.6c-1.4,0.4-2.4,1.7-2.4,3.2
								c-0.4,13.8-11.9,25-25.8,24.9c-2.1,0-4.1-0.3-6.1-0.8l0-0.4c-2.3,0.2-4.6-0.4-6.9-0.4l-0.7,94l-14.6-0.1l0.8-107
								c0-0.2,0.1-0.4,0.1-0.6l0-5.3c-2.2,1.3-4.5,2.5-6.9,3.5l0-0.2c-7.3,3.7-15.4,5.7-23.7,5.6c-28.2-0.2-51-23.4-50.8-51.6
								c0.1-16.6,8.4-32.2,22.1-41.7c1-0.7,1.5-1.8,1.5-3c-0.1-1.2-0.7-2.2-1.7-2.8c-5.3-3-8.6-8.6-8.5-14.6
								c0.1-9.1,7.6-16.5,16.7-16.5c2,0,3.9,0.4,5.8,1.1c1.1,0.4,2.3,0.3,3.2-0.4c0.9-0.7,1.5-1.7,1.4-2.9l0-0.2c0-0.4,0-0.7,0-1.1
								c0.2-21.4,17.8-38.8,39.2-38.6c16.1,0.1,30.3,9.9,36,25c0.3,0.9,1,1.5,1.8,1.9c0.8,0.4,1.8,0.4,2.6,0c3-1.2,6.2-1.8,9.5-1.8
								c13.7,0.1,24.7,11.3,24.6,25c0,3.4-0.8,6.8-2.2,9.9c-0.6,1.4-0.2,3.1,1,4.1c13.2,10.1,20.7,25.5,20.6,42.1
								c-0.1,9.2-2.6,18.3-7.3,26.3C461.2,231.7,461.3,233.2,462,234.2z"/>
							<path fill="#51A332" d="M398.1,281.3"/>
						</g>
					</g>
					<g>
						<circle fill="#51A332" cx="275.2" cy="300.9" r="69.5"/>
						<g>
							<g>
								<path fill="#FFFFFF" d="M259.6,328.6l-1.3,2.4v8.2h-4.2v-26.6h4.2v11.5h0.1l5.4-11.5h4.2l-5.8,11.9l5.8,14.7h-4.3
									L259.6,328.6z"/>
								<path fill="#FFFFFF" d="M278.6,331.5L278.6,331.5l2.9-18.9h5.8v26.6h-4v-19.1h-0.1l-2.8,19.1h-4l-3-18.8h-0.1v18.8h-3.6
									v-26.6h5.8L278.6,331.5z"/>
							</g>
						</g>
						<g>
							<path fill="#FFFFFF" d="M294.3,314.6c-0.8,0-1.3,0.4-1.3,1.6v1.8h-2.4v-1.6c0-2.6,1.3-4.1,3.8-4.1c2.5,0,3.8,1.5,3.8,4.1
								c0,2.2-0.8,3.9-3.2,6.5c-1.5,1.6-1.9,2.4-1.9,3.3c0,0.1,0,0.2,0,0.4h4.9v2.3h-7.4v-2c0-1.8,0.7-3.2,2.6-5.2
								c2-2.1,2.5-3.4,2.5-5.1C295.7,315,295.2,314.6,294.3,314.6z"/>
						</g>
					</g>
				</g>
				<g>
					<path fill="#51A332" d="M567,238.3v8.7l-36.4,0l0-8.7L567,238.3z M567,256.4v8.7l-36.4,0v-8.7L567,256.4z"/>
				</g>
				<g>
					<g>
						<path fill="#51A332" d="M729.5,431v3.9c0,4.8-2.3,7.4-7,7.4h-2.2v11.3h-4.7l0-30h6.9C727.1,423.6,729.5,426.2,729.5,431z
							 M720.2,427.9V438h2.2c1.5,0,2.3-0.7,2.3-2.8v-4.5c0-2.1-0.8-2.8-2.3-2.8H720.2z"/>
						<path fill="#51A332" d="M736.3,436.2l6.5,0v4.3h-6.5l0,8.8h8.1v4.3h-12.8l0-30h12.8l0,4.3h-8.1L736.3,436.2z"/>
						<path fill="#51A332" d="M757.2,453.5c-0.3-0.8-0.4-1.2-0.4-3.7v-4.7c0-2.8-0.9-3.8-3.1-3.8h-1.6l0,12.2h-4.7l0-30h7.1
							c4.9,0,7,2.3,7,6.9v2.4c0,3.1-1,5.1-3.1,6v0.1c2.4,1,3.1,3.2,3.1,6.3v4.6c0,1.5,0,2.5,0.5,3.6H757.2z M752.1,427.9l0,9.2h1.8
							c1.8,0,2.8-0.8,2.8-3.2v-3c0-2.1-0.7-3.1-2.4-3.1H752.1z"/>
						<path fill="#51A332" d="M771.2,423.6h7.4c4.7,0,7,2.6,7,7.4l0,15.2c0,4.8-2.3,7.4-7,7.4h-7.4L771.2,423.6z M775.9,427.9
							l0,21.4h2.7c1.5,0,2.4-0.8,2.4-2.9l0-15.6c0-2.1-0.9-2.9-2.4-2.9H775.9z"/>
						<path fill="#51A332" d="M803.9,453.5h-4.8l-0.8-5.4h-5.8l-0.8,5.4h-4.3l4.8-30h6.9L803.9,453.5z M793.1,444h4.5l-2.2-15.2
							h-0.1L793.1,444z"/>
						<path fill="#51A332" d="M808.4,443.6l-5.9-20h4.9l3.6,13.7h0.1l3.6-13.7h4.5l-6,20l0,9.9l-4.7,0L808.4,443.6z"/>
					</g>
					<g>
						<path fill="#868589" d="M720.3,400.9h5.5l0,3.9h-5.5l0,11.2H716l0-27.1h11.3l0,3.9h-7L720.3,400.9z"/>
						<path fill="#868589" d="M729,395.4c0-4.3,2.3-6.8,6.5-6.8c4.2,0,6.5,2.5,6.5,6.8l0,14.1c0,4.3-2.3,6.8-6.5,6.8
							c-4.2,0-6.5-2.5-6.5-6.8L729,395.4z M733.3,409.8c0,1.9,0.9,2.7,2.2,2.7c1.4,0,2.2-0.7,2.2-2.7l0-14.6c0-1.9-0.9-2.7-2.2-2.7
							c-1.4,0-2.2,0.7-2.2,2.7L733.3,409.8z"/>
						<path fill="#868589" d="M744.3,395.4c0-4.3,2.3-6.8,6.5-6.8c4.2,0,6.5,2.5,6.5,6.8l0,14.1c0,4.3-2.3,6.8-6.5,6.8
							c-4.2,0-6.5-2.5-6.5-6.8L744.3,395.4z M748.6,409.8c0,1.9,0.9,2.7,2.2,2.7c1.4,0,2.2-0.7,2.2-2.7l0-14.6
							c0-1.9-0.9-2.7-2.2-2.7c-1.4,0-2.2,0.7-2.2,2.7L748.6,409.8z"/>
						<path fill="#868589" d="M758.8,388.9h13.2l0,3.9h-4.5l0,23.2l-4.3,0l0-23.2h-4.5L758.8,388.9z"/>
						<path fill="#868589" d="M786.5,395.1v1c0,2.8-0.9,4.5-2.7,5.4v0.1c2.3,0.9,3.2,2.9,3.2,5.8l0,2.2c0,4.2-2.2,6.4-6.5,6.4h-6.7
							l0-27.1l6.4,0C784.6,388.9,786.5,390.9,786.5,395.1z M778,392.8l0,7.2h1.7c1.6,0,2.6-0.7,2.6-2.9l0-1.5c0-1.9-0.7-2.8-2.2-2.8
							L778,392.8z M778,403.8l0,8.3h2.4c1.4,0,2.2-0.7,2.2-2.7l0-2.4c0-2.5-0.8-3.3-2.7-3.3H778z"/>
						<path fill="#868589" d="M803.3,416H799l-0.7-4.9H793l-0.7,4.9h-3.9l4.3-27.1h6.2L803.3,416z M793.5,407.4h4.1l-2-13.7h-0.1
							L793.5,407.4z"/>
						<path fill="#868589" d="M805.2,388.9h4.3l0,23.2l7,0l0,3.9l-11.3,0L805.2,388.9z"/>
						<path fill="#868589" d="M837,395.6l0,3.5c0,4.3-2.1,6.7-6.3,6.7l-2,0l0,10.2h-4.3l0-27.1l6.3,0
							C834.9,388.9,837,391.3,837,395.6z M828.6,392.8l0,9.2h2c1.4,0,2.1-0.6,2.1-2.6l0-4.1c0-1.9-0.7-2.6-2.1-2.6H828.6z"/>
						<path fill="#868589" d="M838.9,388.9h4.3l0,27.1h-4.3L838.9,388.9z"/>
						<path fill="#868589" d="M845.1,388.9l13.2,0l0,3.9h-4.5l0,23.2h-4.3l0-23.2h-4.5L845.1,388.9z"/>
						<path fill="#868589" d="M872.4,405.9l0,3.6c0,4.3-2.2,6.8-6.3,6.8c-4.2,0-6.3-2.5-6.3-6.8l0-14.1c0-4.3,2.2-6.8,6.3-6.8
							c4.2,0,6.3,2.5,6.3,6.8l0,2.6l-4,0l0-2.9c0-1.9-0.9-2.7-2.2-2.7c-1.4,0-2.2,0.7-2.2,2.7l0,14.6c0,1.9,0.9,2.6,2.2,2.6
							c1.4,0,2.2-0.7,2.2-2.6l0-3.9L872.4,405.9z"/>
						<path fill="#868589" d="M879.3,416H875l0-27.1h4.3l0,11.6h4.8l0-11.6h4.3l0,27.1h-4.3l0-11.6h-4.8L879.3,416z"/>
						<path fill="#868589" d="M895.8,400.3l5.8,0l0,3.9h-5.8l0,7.9h7.4l0,3.9h-11.6l0-27.1l11.6,0l0,3.9l-7.4,0L895.8,400.3z"/>
						<path fill="#868589" d="M911.5,388.6c4.1,0,6.3,2.5,6.3,6.8v0.9h-4l0-1.1c0-1.9-0.8-2.7-2.1-2.7s-2.1,0.7-2.1,2.7
							c0,2,0.9,3.4,3.6,5.9c3.6,3.1,4.7,5.4,4.7,8.5c0,4.3-2.2,6.8-6.3,6.8c-4.2,0-6.3-2.5-6.3-6.8l0-1.7h4v1.9
							c0,1.9,0.9,2.6,2.2,2.6s2.2-0.7,2.2-2.6c0-2-0.9-3.4-3.6-5.9c-3.6-3.1-4.7-5.4-4.7-8.5C905.2,391.1,907.4,388.6,911.5,388.6z"
							/>
						<g>
							<path fill="#868589" d="M626.3,408.8L626.3,408.8l3-19.5h6l0,27.5h-4.1l0-19.7h-0.1l-2.9,19.7l-4.1,0l-3.1-19.4h-0.1l0,19.4
								h-3.8l0-27.5h6L626.3,408.8z"/>
							<path fill="#868589" d="M638.4,389.3h4.3l0,27.5h-4.3L638.4,389.3z"/>
							<path fill="#868589" d="M645.9,389.3l4.3,0l0,23.5h7.1l0,3.9l-11.4,0L645.9,389.3z"/>
							<path fill="#868589" d="M659.2,389.3h4.3l0,23.5h7.1l0,3.9h-11.4L659.2,389.3z"/>
							<path fill="#868589" d="M672.5,389.3h4.3l0,27.5l-4.3,0L672.5,389.3z"/>
							<path fill="#868589" d="M679.6,395.9c0-4.4,2.3-6.9,6.6-6.9c4.2,0,6.6,2.5,6.6,6.9l0,14.3c0,4.4-2.3,6.9-6.6,6.9
								c-4.2,0-6.6-2.5-6.6-6.9L679.6,395.9z M683.9,410.5c0,2,0.9,2.7,2.2,2.7c1.4,0,2.2-0.7,2.2-2.7l0-14.8c0-2-0.9-2.7-2.2-2.7
								c-1.4,0-2.2,0.7-2.2,2.7L683.9,410.5z"/>
							<path fill="#868589" d="M699.4,396.9L699.4,396.9l-0.1,19.9l-3.9,0l0-27.5l5.4,0l4.4,16.4h0.1l0-16.4h3.8l0,27.5h-4.4
								L699.4,396.9z"/>
						</g>
					</g>
				</g>
			</g>
		</g>
		<polyline fill-rule="evenodd" clip-rule="evenodd" fill="#51A332" points="706.7,569.1 720.3,582.6 706.7,596.1 		"/>
		<g>
			<path fill="#51A332" d="M792.4,527.2v1.9c0,2.3-1.1,3.6-3.3,3.6s-3.3-1.3-3.3-3.6v-7.4c0-2.3,1.1-3.6,3.3-3.6s3.3,1.3,3.3,3.6
				v1.4h-2.1v-1.5c0-1-0.4-1.4-1.2-1.4c-0.7,0-1.2,0.4-1.2,1.4v7.7c0,1,0.4,1.4,1.2,1.4c0.7,0,1.2-0.4,1.2-1.4v-2H792.4z"/>
			<path fill="#51A332" d="M796,524.2h3.1v2H796v4.2h3.9v2h-6.1v-14.2h6.1v2H796V524.2z"/>
			<path fill="#51A332" d="M805.9,532.5c-0.1-0.4-0.2-0.6-0.2-1.7v-2.2c0-1.3-0.4-1.8-1.5-1.8h-0.8v5.8h-2.2v-14.2h3.4
				c2.3,0,3.3,1.1,3.3,3.3v1.1c0,1.5-0.5,2.4-1.5,2.9v0c1.1,0.5,1.5,1.5,1.5,3v2.2c0,0.7,0,1.2,0.2,1.7H805.9z M803.5,520.3v4.4h0.9
				c0.8,0,1.3-0.4,1.3-1.5v-1.4c0-1-0.3-1.5-1.1-1.5H803.5z"/>
			<path fill="#51A332" d="M808.8,518.2h6.9v2h-2.3v12.2h-2.2v-12.2h-2.3V518.2z"/>
			<path fill="#51A332" d="M816.6,518.2h2.2v14.2h-2.2V518.2z"/>
			<path fill="#51A332" d="M822.7,524.6h2.9v2h-2.9v5.9h-2.2v-14.2h5.9v2h-3.7V524.6z"/>
			<path fill="#51A332" d="M827.5,518.2h2.2v14.2h-2.2V518.2z"/>
			<path fill="#51A332" d="M833.6,524.2h3.1v2h-3.1v4.2h3.9v2h-6.1v-14.2h6.1v2h-3.9V524.2z"/>
			<path fill="#51A332" d="M838.8,518.2h3.5c2.2,0,3.3,1.2,3.3,3.5v7.2c0,2.3-1.1,3.5-3.3,3.5h-3.5V518.2z M841.1,520.3v10.2h1.3
				c0.7,0,1.1-0.4,1.1-1.4v-7.4c0-1-0.4-1.4-1.1-1.4H841.1z"/>
		</g>
		<g>
			<g transform="translate(1 1)">
				<path fill="#51A332" d="M297.6,575.7c-10.5,0-18.9-8.4-18.9-18.9c0-10.5,8.4-18.9,18.9-18.9c10.5,0,18.9,8.4,18.9,18.9
					C316.6,567.4,308.2,575.7,297.6,575.7z M297.6,543.3c-7.6,0-13.5,5.9-13.5,13.5c0,7.6,5.9,13.5,13.5,13.5s13.5-5.9,13.5-13.5
					C311.1,549.3,305.2,543.3,297.6,543.3z"/>
				<path fill="#51A332" d="M292.2,559.5c-1.6,0-2.7-1.1-2.7-2.7c0-4.6,3.5-8.1,8.1-8.1c1.6,0,2.7,1.1,2.7,2.7
					c0,1.6-1.1,2.7-2.7,2.7c-1.6,0-2.7,1.1-2.7,2.7C294.9,558.4,293.8,559.5,292.2,559.5z"/>
				<path fill="#51A332" d="M273.3,592c-1.6,0-2.7-1.1-2.7-2.7c0-4.6,3.5-8.1,8.1-8.1c1.6,0,2.7,1.1,2.7,2.7c0,1.6-1.1,2.7-2.7,2.7
					c-1.6,0-2.7,1.1-2.7,2.7C276,590.9,274.9,592,273.3,592z"/>
				<path fill="#51A332" d="M259.8,624.4c-1.6,0-2.7-1.1-2.7-2.7c0-4.6,3.5-8.1,8.1-8.1c1.6,0,2.7,1.1,2.7,2.7
					c0,1.6-1.1,2.7-2.7,2.7c-1.6,0-2.7,1.1-2.7,2.7C262.5,623.3,261.4,624.4,259.8,624.4z"/>
				<path fill="#51A332" d="M292.2,624.4c-1.6,0-2.7-1.1-2.7-2.7c0-4.6,3.5-8.1,8.1-8.1c1.6,0,2.7,1.1,2.7,2.7
					c0,1.6-1.1,2.7-2.7,2.7c-1.6,0-2.7,1.1-2.7,2.7C294.9,623.3,293.8,624.4,292.2,624.4z"/>
				<path fill="#51A332" d="M357.1,575.7h-59.5c-1.6,0-2.7-1.1-2.7-2.7c0-1.6,1.1-2.7,2.7-2.7c7.6,0,13.5-5.9,13.5-13.5
					c0-7.6-5.9-13.5-13.5-13.5c-1.6,0-2.7-1.1-2.7-2.7c0-1.6,1.1-2.7,2.7-2.7h59.5c10.5,0,18.9,8.4,18.9,18.9
					C376,567.4,367.6,575.7,357.1,575.7z M310.9,570.3h46.2c7.6,0,13.5-5.9,13.5-13.5c0-7.6-5.9-13.5-13.5-13.5h-46.2
					c3.5,3.5,5.7,8.1,5.7,13.5C316.6,562.2,314.4,566.8,310.9,570.3z"/>
				<path fill="#51A332" d="M311.1,608.2c-10.5,0-18.9-8.4-18.9-18.9c0-10.5,8.4-18.9,18.9-18.9c10.5,0,18.9,8.4,18.9,18.9
					C330.1,599.8,321.7,608.2,311.1,608.2z M311.1,575.7c-7.6,0-13.5,5.9-13.5,13.5c0,7.6,5.9,13.5,13.5,13.5
					c7.6,0,13.5-5.9,13.5-13.5C324.7,581.7,318.7,575.7,311.1,575.7z"/>
				<path fill="#51A332" d="M278.7,608.2c-10.5,0-18.9-8.4-18.9-18.9c0-10.5,8.4-18.9,18.9-18.9c10.5,0,18.9,8.4,18.9,18.9
					C297.6,599.8,289.2,608.2,278.7,608.2z M278.7,575.7c-7.6,0-13.5,5.9-13.5,13.5c0,7.6,5.9,13.5,13.5,13.5
					c7.6,0,13.5-5.9,13.5-13.5C292.2,581.7,286.3,575.7,278.7,575.7z"/>
				<path fill="#51A332" d="M370.6,608.2h-59.5c-1.6,0-2.7-1.1-2.7-2.7c0-1.6,1.1-2.7,2.7-2.7c7.6,0,13.5-5.9,13.5-13.5
					c0-7.6-5.9-13.5-13.5-13.5c-1.6,0-2.7-1.1-2.7-2.7c0-1.6,1.1-2.7,2.7-2.7h59.5c10.5,0,18.9,8.4,18.9,18.9
					C389.5,599.8,381.2,608.2,370.6,608.2z M324.4,602.8h46.2c7.6,0,13.5-5.9,13.5-13.5c0-7.6-5.9-13.5-13.5-13.5h-46.2
					c3.5,3.5,5.7,8.1,5.7,13.5C330.1,594.7,327.9,599.3,324.4,602.8z"/>
				<path fill="#51A332" d="M330.1,640.6c-10.5,0-18.9-8.4-18.9-18.9c0-10.5,8.4-18.9,18.9-18.9c10.5,0,18.9,8.4,18.9,18.9
					C349,632.2,340.6,640.6,330.1,640.6z M330.1,608.2c-7.6,0-13.5,5.9-13.5,13.5c0,7.6,5.9,13.5,13.5,13.5
					c7.6,0,13.5-5.9,13.5-13.5C343.6,614.1,337.6,608.2,330.1,608.2z"/>
				<path fill="#51A332" d="M297.6,640.6c-10.5,0-18.9-8.4-18.9-18.9c0-10.5,8.4-18.9,18.9-18.9c10.5,0,18.9,8.4,18.9,18.9
					C316.6,632.2,308.2,640.6,297.6,640.6z M297.6,608.2c-7.6,0-13.5,5.9-13.5,13.5c0,7.6,5.9,13.5,13.5,13.5s13.5-5.9,13.5-13.5
					C311.1,614.1,305.2,608.2,297.6,608.2z"/>
				<path fill="#51A332" d="M265.2,640.6c-10.5,0-18.9-8.4-18.9-18.9c0-10.5,8.4-18.9,18.9-18.9c10.5,0,18.9,8.4,18.9,18.9
					C284.1,632.2,275.7,640.6,265.2,640.6z M265.2,608.2c-7.6,0-13.5,5.9-13.5,13.5c0,7.6,5.9,13.5,13.5,13.5
					c7.6,0,13.5-5.9,13.5-13.5C278.7,614.1,272.8,608.2,265.2,608.2z"/>
				<path fill="#51A332" d="M389.5,640.6h-59.5c-1.6,0-2.7-1.1-2.7-2.7c0-1.6,1.1-2.7,2.7-2.7c7.6,0,13.5-5.9,13.5-13.5
					c0-7.6-5.9-13.5-13.5-13.5c-1.6,0-2.7-1.1-2.7-2.7c0-1.6,1.1-2.7,2.7-2.7h59.5c10.5,0,18.9,8.4,18.9,18.9
					C408.5,632.2,400.1,640.6,389.5,640.6z M343.3,635.2h46.2c7.6,0,13.5-5.9,13.5-13.5c0-7.6-5.9-13.5-13.5-13.5h-46.2
					c3.5,3.5,5.7,8.1,5.7,13.5S346.8,631.7,343.3,635.2z"/>
				<path fill="#51A332" d="M297.6,640.6h-32.4c-1.6,0-2.7-1.1-2.7-2.7c0-1.6,1.1-2.7,2.7-2.7c7.6,0,13.5-5.9,13.5-13.5
					c0-1.6,1.1-2.7,2.7-2.7c1.6,0,2.7,1.1,2.7,2.7c0,7.6,5.9,13.5,13.5,13.5c1.6,0,2.7,1.1,2.7,2.7
					C300.3,639.5,299.3,640.6,297.6,640.6z M278.4,635.2h5.9c-1.1-1.1-2.2-2.4-3-3.8C280.6,632.8,279.5,634.1,278.4,635.2z"/>
				<path fill="#51A332" d="M330.1,640.6h-32.4c-1.6,0-2.7-1.1-2.7-2.7c0-1.6,1.1-2.7,2.7-2.7c7.6,0,13.5-5.9,13.5-13.5
					c0-1.6,1.1-2.7,2.7-2.7s2.7,1.1,2.7,2.7c0,7.6,5.9,13.5,13.5,13.5c1.6,0,2.7,1.1,2.7,2.7C332.8,639.5,331.7,640.6,330.1,640.6z
					 M310.9,635.2h5.9c-1.1-1.1-2.2-2.4-3-3.8C313,632.8,312,634.1,310.9,635.2z"/>
				<path fill="#51A332" d="M330.1,554.1h-17c-1.6,0-2.7-1.1-2.7-2.7c0-1.6,1.1-2.7,2.7-2.7h17c1.6,0,2.7,1.1,2.7,2.7
					C332.8,553,331.7,554.1,330.1,554.1z"/>
				<path fill="#51A332" d="M324.7,564.9H313c-1.6,0-2.7-1.1-2.7-2.7c0-1.6,1.1-2.7,2.7-2.7h11.6c1.6,0,2.7,1.1,2.7,2.7
					C327.4,563.9,326.3,564.9,324.7,564.9z"/>
				<path fill="#51A332" d="M354.4,564.9h-16.2c-1.6,0-2.7-1.1-2.7-2.7c0-1.6,1.1-2.7,2.7-2.7h16.2c1.6,0,2.7,1.1,2.7,2.7
					C357.1,563.9,356,564.9,354.4,564.9z"/>
				<path fill="#51A332" d="M372.5,554.1h-18.1c-1.6,0-2.7-1.1-2.7-2.7c0-1.6,1.1-2.7,2.7-2.7h18.1c1.6,0,2.7,1.1,2.7,2.7
					C375.2,553,373.9,554.1,372.5,554.1z"/>
				<path fill="#51A332" d="M343.6,554.1h-2.7c-1.6,0-2.7-1.1-2.7-2.7c0-1.6,1.1-2.7,2.7-2.7h2.7c1.6,0,2.7,1.1,2.7,2.7
					C346.3,553,345.2,554.1,343.6,554.1z"/>
				<path fill="#51A332" d="M372.5,564.9h-7.3c-1.6,0-2.7-1.1-2.7-2.7c0-1.6,1.1-2.7,2.7-2.7h7.3c1.6,0,2.7,1.1,2.7,2.7
					C375.2,563.9,373.9,564.9,372.5,564.9z"/>
				<path fill="#51A332" d="M305.7,592c-1.6,0-2.7-1.1-2.7-2.7c0-4.6,3.5-8.1,8.1-8.1c1.6,0,2.7,1.1,2.7,2.7c0,1.6-1.1,2.7-2.7,2.7
					c-1.6,0-2.7,1.1-2.7,2.7C308.4,590.9,307.4,592,305.7,592z"/>
				<path fill="#51A332" d="M343.6,586.6h-17c-1.6,0-2.7-1.1-2.7-2.7c0-1.6,1.1-2.7,2.7-2.7h17c1.6,0,2.7,1.1,2.7,2.7
					C346.3,585.5,345.2,586.6,343.6,586.6z"/>
				<path fill="#51A332" d="M338.2,597.4h-11.6c-1.6,0-2.7-1.1-2.7-2.7c0-1.6,1.1-2.7,2.7-2.7h11.6c1.6,0,2.7,1.1,2.7,2.7
					C340.9,596.3,339.8,597.4,338.2,597.4z"/>
				<path fill="#51A332" d="M367.9,597.4h-16.2c-1.6,0-2.7-1.1-2.7-2.7c0-1.6,1.1-2.7,2.7-2.7h16.2c1.6,0,2.7,1.1,2.7,2.7
					C370.6,596.3,369.5,597.4,367.9,597.4z"/>
				<path fill="#51A332" d="M386,586.6h-18.1c-1.6,0-2.7-1.1-2.7-2.7c0-1.6,1.1-2.7,2.7-2.7H386c1.6,0,2.7,1.1,2.7,2.7
					C388.7,585.5,387.4,586.6,386,586.6z"/>
				<path fill="#51A332" d="M357.1,586.6h-2.7c-1.6,0-2.7-1.1-2.7-2.7c0-1.6,1.1-2.7,2.7-2.7h2.7c1.6,0,2.7,1.1,2.7,2.7
					C359.8,585.5,358.7,586.6,357.1,586.6z"/>
				<path fill="#51A332" d="M386,597.4h-7.3c-1.6,0-2.7-1.1-2.7-2.7c0-1.6,1.1-2.7,2.7-2.7h7.3c1.6,0,2.7,1.1,2.7,2.7
					C388.7,596.3,387.4,597.4,386,597.4z"/>
				<path fill="#51A332" d="M324.7,624.4c-1.6,0-2.7-1.1-2.7-2.7c0-4.6,3.5-8.1,8.1-8.1c1.6,0,2.7,1.1,2.7,2.7
					c0,1.6-1.1,2.7-2.7,2.7c-1.6,0-2.7,1.1-2.7,2.7C327.4,623.3,326.3,624.4,324.7,624.4z"/>
				<path fill="#51A332" d="M362.5,619h-17c-1.6,0-2.7-1.1-2.7-2.7c0-1.6,1.1-2.7,2.7-2.7h17c1.6,0,2.7,1.1,2.7,2.7
					C365.2,617.9,364.1,619,362.5,619z"/>
				<path fill="#51A332" d="M357.1,629.8h-11.6c-1.6,0-2.7-1.1-2.7-2.7c0-1.6,1.1-2.7,2.7-2.7h11.6c1.6,0,2.7,1.1,2.7,2.7
					C359.8,628.7,358.7,629.8,357.1,629.8z"/>
				<path fill="#51A332" d="M386.8,629.8h-16.2c-1.6,0-2.7-1.1-2.7-2.7c0-1.6,1.1-2.7,2.7-2.7h16.2c1.6,0,2.7,1.1,2.7,2.7
					C389.5,628.7,388.5,629.8,386.8,629.8z"/>
				<path fill="#51A332" d="M405,619h-18.1c-1.6,0-2.7-1.1-2.7-2.7c0-1.6,1.1-2.7,2.7-2.7H405c1.6,0,2.7,1.1,2.7,2.7
					C407.7,617.9,406.3,619,405,619z"/>
				<path fill="#51A332" d="M376,619h-2.7c-1.6,0-2.7-1.1-2.7-2.7c0-1.6,1.1-2.7,2.7-2.7h2.7c1.6,0,2.7,1.1,2.7,2.7
					C378.7,617.9,377.6,619,376,619z"/>
				<path fill="#51A332" d="M405,629.8h-7.3c-1.6,0-2.7-1.1-2.7-2.7c0-1.6,1.1-2.7,2.7-2.7h7.3c1.6,0,2.7,1.1,2.7,2.7
					C407.7,628.7,406.3,629.8,405,629.8z"/>
			</g>
			<path fill="#FFFFFF" d="M344.3,636.2h46.2c7.6,0,13.5-5.9,13.5-13.5c0-7.6-5.9-13.5-13.5-13.5h-46.2c3.5,3.5,5.7,8.1,5.7,13.5
				S347.8,632.7,344.3,636.2z"/>
		</g>
		<g>
			<g transform="translate(1 1)">
				<path fill="#51A332" d="M174.6,575.7c-10.5,0-18.9-8.4-18.9-18.9c0-10.5,8.4-18.9,18.9-18.9c10.5,0,18.9,8.4,18.9,18.9
					C193.6,567.4,185.2,575.7,174.6,575.7z M174.6,543.3c-7.6,0-13.5,5.9-13.5,13.5c0,7.6,5.9,13.5,13.5,13.5s13.5-5.9,13.5-13.5
					C188.1,549.3,182.2,543.3,174.6,543.3z"/>
				<path fill="#51A332" d="M169.2,559.5c-1.6,0-2.7-1.1-2.7-2.7c0-4.6,3.5-8.1,8.1-8.1c1.6,0,2.7,1.1,2.7,2.7
					c0,1.6-1.1,2.7-2.7,2.7c-1.6,0-2.7,1.1-2.7,2.7C171.9,558.4,170.8,559.5,169.2,559.5z"/>
				<path fill="#51A332" d="M150.3,592c-1.6,0-2.7-1.1-2.7-2.7c0-4.6,3.5-8.1,8.1-8.1c1.6,0,2.7,1.1,2.7,2.7c0,1.6-1.1,2.7-2.7,2.7
					c-1.6,0-2.7,1.1-2.7,2.7C153,590.9,151.9,592,150.3,592z"/>
				<path fill="#51A332" d="M136.8,624.4c-1.6,0-2.7-1.1-2.7-2.7c0-4.6,3.5-8.1,8.1-8.1c1.6,0,2.7,1.1,2.7,2.7
					c0,1.6-1.1,2.7-2.7,2.7c-1.6,0-2.7,1.1-2.7,2.7C139.5,623.3,138.4,624.4,136.8,624.4z"/>
				<path fill="#51A332" d="M169.2,624.4c-1.6,0-2.7-1.1-2.7-2.7c0-4.6,3.5-8.1,8.1-8.1c1.6,0,2.7,1.1,2.7,2.7
					c0,1.6-1.1,2.7-2.7,2.7c-1.6,0-2.7,1.1-2.7,2.7C171.9,623.3,170.8,624.4,169.2,624.4z"/>
				<path fill="#51A332" d="M234.1,575.7h-59.5c-1.6,0-2.7-1.1-2.7-2.7c0-1.6,1.1-2.7,2.7-2.7c7.6,0,13.5-5.9,13.5-13.5
					c0-7.6-5.9-13.5-13.5-13.5c-1.6,0-2.7-1.1-2.7-2.7c0-1.6,1.1-2.7,2.7-2.7h59.5c10.5,0,18.9,8.4,18.9,18.9
					C253,567.4,244.6,575.7,234.1,575.7z M187.9,570.3h46.2c7.6,0,13.5-5.9,13.5-13.5c0-7.6-5.9-13.5-13.5-13.5h-46.2
					c3.5,3.5,5.7,8.1,5.7,13.5C193.6,562.2,191.4,566.8,187.9,570.3z"/>
				<path fill="#51A332" d="M188.1,608.2c-10.5,0-18.9-8.4-18.9-18.9c0-10.5,8.4-18.9,18.9-18.9c10.5,0,18.9,8.4,18.9,18.9
					C207.1,599.8,198.7,608.2,188.1,608.2z M188.1,575.7c-7.6,0-13.5,5.9-13.5,13.5c0,7.6,5.9,13.5,13.5,13.5
					c7.6,0,13.5-5.9,13.5-13.5C201.7,581.7,195.7,575.7,188.1,575.7z"/>
				<path fill="#51A332" d="M155.7,608.2c-10.5,0-18.9-8.4-18.9-18.9c0-10.5,8.4-18.9,18.9-18.9c10.5,0,18.9,8.4,18.9,18.9
					C174.6,599.8,166.2,608.2,155.7,608.2z M155.7,575.7c-7.6,0-13.5,5.9-13.5,13.5c0,7.6,5.9,13.5,13.5,13.5
					c7.6,0,13.5-5.9,13.5-13.5C169.2,581.7,163.3,575.7,155.7,575.7z"/>
				<path fill="#51A332" d="M247.6,608.2h-59.5c-1.6,0-2.7-1.1-2.7-2.7c0-1.6,1.1-2.7,2.7-2.7c7.6,0,13.5-5.9,13.5-13.5
					c0-7.6-5.9-13.5-13.5-13.5c-1.6,0-2.7-1.1-2.7-2.7c0-1.6,1.1-2.7,2.7-2.7h59.5c10.5,0,18.9,8.4,18.9,18.9
					C266.5,599.8,258.2,608.2,247.6,608.2z M201.4,602.8h46.2c7.6,0,13.5-5.9,13.5-13.5c0-7.6-5.9-13.5-13.5-13.5h-46.2
					c3.5,3.5,5.7,8.1,5.7,13.5C207.1,594.7,204.9,599.3,201.4,602.8z"/>
				<path fill="#51A332" d="M207.1,640.6c-10.5,0-18.9-8.4-18.9-18.9c0-10.5,8.4-18.9,18.9-18.9c10.5,0,18.9,8.4,18.9,18.9
					C226,632.2,217.6,640.6,207.1,640.6z M207.1,608.2c-7.6,0-13.5,5.9-13.5,13.5c0,7.6,5.9,13.5,13.5,13.5
					c7.6,0,13.5-5.9,13.5-13.5C220.6,614.1,214.6,608.2,207.1,608.2z"/>
				<path fill="#51A332" d="M174.6,640.6c-10.5,0-18.9-8.4-18.9-18.9c0-10.5,8.4-18.9,18.9-18.9c10.5,0,18.9,8.4,18.9,18.9
					C193.6,632.2,185.2,640.6,174.6,640.6z M174.6,608.2c-7.6,0-13.5,5.9-13.5,13.5c0,7.6,5.9,13.5,13.5,13.5s13.5-5.9,13.5-13.5
					C188.1,614.1,182.2,608.2,174.6,608.2z"/>
				<path fill="#51A332" d="M142.2,640.6c-10.5,0-18.9-8.4-18.9-18.9c0-10.5,8.4-18.9,18.9-18.9c10.5,0,18.9,8.4,18.9,18.9
					C161.1,632.2,152.7,640.6,142.2,640.6z M142.2,608.2c-7.6,0-13.5,5.9-13.5,13.5c0,7.6,5.9,13.5,13.5,13.5
					c7.6,0,13.5-5.9,13.5-13.5C155.7,614.1,149.8,608.2,142.2,608.2z"/>
				<path fill="#51A332" d="M266.5,640.6h-59.5c-1.6,0-2.7-1.1-2.7-2.7c0-1.6,1.1-2.7,2.7-2.7c7.6,0,13.5-5.9,13.5-13.5
					c0-7.6-5.9-13.5-13.5-13.5c-1.6,0-2.7-1.1-2.7-2.7c0-1.6,1.1-2.7,2.7-2.7h59.5c10.5,0,18.9,8.4,18.9,18.9
					C285.5,632.2,277.1,640.6,266.5,640.6z M220.3,635.2h46.2c7.6,0,13.5-5.9,13.5-13.5c0-7.6-5.9-13.5-13.5-13.5h-46.2
					c3.5,3.5,5.7,8.1,5.7,13.5S223.8,631.7,220.3,635.2z"/>
				<path fill="#51A332" d="M174.6,640.6h-32.4c-1.6,0-2.7-1.1-2.7-2.7c0-1.6,1.1-2.7,2.7-2.7c7.6,0,13.5-5.9,13.5-13.5
					c0-1.6,1.1-2.7,2.7-2.7c1.6,0,2.7,1.1,2.7,2.7c0,7.6,5.9,13.5,13.5,13.5c1.6,0,2.7,1.1,2.7,2.7
					C177.3,639.5,176.3,640.6,174.6,640.6z M155.4,635.2h5.9c-1.1-1.1-2.2-2.4-3-3.8C157.6,632.8,156.5,634.1,155.4,635.2z"/>
				<path fill="#51A332" d="M207.1,640.6h-32.4c-1.6,0-2.7-1.1-2.7-2.7c0-1.6,1.1-2.7,2.7-2.7c7.6,0,13.5-5.9,13.5-13.5
					c0-1.6,1.1-2.7,2.7-2.7s2.7,1.1,2.7,2.7c0,7.6,5.9,13.5,13.5,13.5c1.6,0,2.7,1.1,2.7,2.7C209.8,639.5,208.7,640.6,207.1,640.6z
					 M187.9,635.2h5.9c-1.1-1.1-2.2-2.4-3-3.8C190,632.8,189,634.1,187.9,635.2z"/>
				<path fill="#51A332" d="M207.1,554.1h-17c-1.6,0-2.7-1.1-2.7-2.7c0-1.6,1.1-2.7,2.7-2.7h17c1.6,0,2.7,1.1,2.7,2.7
					C209.8,553,208.7,554.1,207.1,554.1z"/>
				<path fill="#51A332" d="M201.7,564.9H190c-1.6,0-2.7-1.1-2.7-2.7c0-1.6,1.1-2.7,2.7-2.7h11.6c1.6,0,2.7,1.1,2.7,2.7
					C204.4,563.9,203.3,564.9,201.7,564.9z"/>
				<path fill="#51A332" d="M231.4,564.9h-16.2c-1.6,0-2.7-1.1-2.7-2.7c0-1.6,1.1-2.7,2.7-2.7h16.2c1.6,0,2.7,1.1,2.7,2.7
					C234.1,563.9,233,564.9,231.4,564.9z"/>
				<path fill="#51A332" d="M249.5,554.1h-18.1c-1.6,0-2.7-1.1-2.7-2.7c0-1.6,1.1-2.7,2.7-2.7h18.1c1.6,0,2.7,1.1,2.7,2.7
					C252.2,553,250.9,554.1,249.5,554.1z"/>
				<path fill="#51A332" d="M220.6,554.1h-2.7c-1.6,0-2.7-1.1-2.7-2.7c0-1.6,1.1-2.7,2.7-2.7h2.7c1.6,0,2.7,1.1,2.7,2.7
					C223.3,553,222.2,554.1,220.6,554.1z"/>
				<path fill="#51A332" d="M249.5,564.9h-7.3c-1.6,0-2.7-1.1-2.7-2.7c0-1.6,1.1-2.7,2.7-2.7h7.3c1.6,0,2.7,1.1,2.7,2.7
					C252.2,563.9,250.9,564.9,249.5,564.9z"/>
				<path fill="#51A332" d="M182.7,592c-1.6,0-2.7-1.1-2.7-2.7c0-4.6,3.5-8.1,8.1-8.1c1.6,0,2.7,1.1,2.7,2.7c0,1.6-1.1,2.7-2.7,2.7
					c-1.6,0-2.7,1.1-2.7,2.7C185.4,590.9,184.4,592,182.7,592z"/>
				<path fill="#51A332" d="M220.6,586.6h-17c-1.6,0-2.7-1.1-2.7-2.7c0-1.6,1.1-2.7,2.7-2.7h17c1.6,0,2.7,1.1,2.7,2.7
					C223.3,585.5,222.2,586.6,220.6,586.6z"/>
				<path fill="#51A332" d="M215.2,597.4h-11.6c-1.6,0-2.7-1.1-2.7-2.7c0-1.6,1.1-2.7,2.7-2.7h11.6c1.6,0,2.7,1.1,2.7,2.7
					C217.9,596.3,216.8,597.4,215.2,597.4z"/>
				<path fill="#51A332" d="M244.9,597.4h-16.2c-1.6,0-2.7-1.1-2.7-2.7c0-1.6,1.1-2.7,2.7-2.7h16.2c1.6,0,2.7,1.1,2.7,2.7
					C247.6,596.3,246.5,597.4,244.9,597.4z"/>
				<path fill="#51A332" d="M263,586.6h-18.1c-1.6,0-2.7-1.1-2.7-2.7c0-1.6,1.1-2.7,2.7-2.7H263c1.6,0,2.7,1.1,2.7,2.7
					C265.7,585.5,264.4,586.6,263,586.6z"/>
				<path fill="#51A332" d="M234.1,586.6h-2.7c-1.6,0-2.7-1.1-2.7-2.7c0-1.6,1.1-2.7,2.7-2.7h2.7c1.6,0,2.7,1.1,2.7,2.7
					C236.8,585.5,235.7,586.6,234.1,586.6z"/>
				<path fill="#51A332" d="M263,597.4h-7.3c-1.6,0-2.7-1.1-2.7-2.7c0-1.6,1.1-2.7,2.7-2.7h7.3c1.6,0,2.7,1.1,2.7,2.7
					C265.7,596.3,264.4,597.4,263,597.4z"/>
				<path fill="#51A332" d="M201.7,624.4c-1.6,0-2.7-1.1-2.7-2.7c0-4.6,3.5-8.1,8.1-8.1c1.6,0,2.7,1.1,2.7,2.7
					c0,1.6-1.1,2.7-2.7,2.7c-1.6,0-2.7,1.1-2.7,2.7C204.4,623.3,203.3,624.4,201.7,624.4z"/>
				<path fill="#51A332" d="M239.5,619h-17c-1.6,0-2.7-1.1-2.7-2.7c0-1.6,1.1-2.7,2.7-2.7h17c1.6,0,2.7,1.1,2.7,2.7
					C242.2,617.9,241.1,619,239.5,619z"/>
				<path fill="#51A332" d="M234.1,629.8h-11.6c-1.6,0-2.7-1.1-2.7-2.7c0-1.6,1.1-2.7,2.7-2.7h11.6c1.6,0,2.7,1.1,2.7,2.7
					C236.8,628.7,235.7,629.8,234.1,629.8z"/>
				<path fill="#51A332" d="M263.8,629.8h-16.2c-1.6,0-2.7-1.1-2.7-2.7c0-1.6,1.1-2.7,2.7-2.7h16.2c1.6,0,2.7,1.1,2.7,2.7
					C266.5,628.7,265.5,629.8,263.8,629.8z"/>
				<path fill="#51A332" d="M282,619h-18.1c-1.6,0-2.7-1.1-2.7-2.7c0-1.6,1.1-2.7,2.7-2.7H282c1.6,0,2.7,1.1,2.7,2.7
					C284.7,617.9,283.3,619,282,619z"/>
				<path fill="#51A332" d="M253,619h-2.7c-1.6,0-2.7-1.1-2.7-2.7c0-1.6,1.1-2.7,2.7-2.7h2.7c1.6,0,2.7,1.1,2.7,2.7
					C255.7,617.9,254.6,619,253,619z"/>
				<path fill="#51A332" d="M282,629.8h-7.3c-1.6,0-2.7-1.1-2.7-2.7c0-1.6,1.1-2.7,2.7-2.7h7.3c1.6,0,2.7,1.1,2.7,2.7
					C284.7,628.7,283.3,629.8,282,629.8z"/>
			</g>
			<path fill="#FFFFFF" d="M221.3,636.2h46.2c7.6,0,13.5-5.9,13.5-13.5c0-7.6-5.9-13.5-13.5-13.5h-46.2c3.5,3.5,5.7,8.1,5.7,13.5
				S224.8,632.7,221.3,636.2z"/>
		</g>
		<g>
			<g transform="translate(1 1)">
				<path fill="#51A332" d="M547.6,575.7c-10.5,0-18.9-8.4-18.9-18.9c0-10.5,8.4-18.9,18.9-18.9c10.5,0,18.9,8.4,18.9,18.9
					C566.6,567.4,558.2,575.7,547.6,575.7z M547.6,543.3c-7.6,0-13.5,5.9-13.5,13.5c0,7.6,5.9,13.5,13.5,13.5
					c7.6,0,13.5-5.9,13.5-13.5C561.1,549.3,555.2,543.3,547.6,543.3z"/>
				<path fill="#51A332" d="M542.2,559.5c-1.6,0-2.7-1.1-2.7-2.7c0-4.6,3.5-8.1,8.1-8.1c1.6,0,2.7,1.1,2.7,2.7
					c0,1.6-1.1,2.7-2.7,2.7c-1.6,0-2.7,1.1-2.7,2.7C544.9,558.4,543.8,559.5,542.2,559.5z"/>
				<path fill="#51A332" d="M523.3,592c-1.6,0-2.7-1.1-2.7-2.7c0-4.6,3.5-8.1,8.1-8.1c1.6,0,2.7,1.1,2.7,2.7c0,1.6-1.1,2.7-2.7,2.7
					c-1.6,0-2.7,1.1-2.7,2.7C526,590.9,524.9,592,523.3,592z"/>
				<path fill="#51A332" d="M509.8,624.4c-1.6,0-2.7-1.1-2.7-2.7c0-4.6,3.5-8.1,8.1-8.1c1.6,0,2.7,1.1,2.7,2.7
					c0,1.6-1.1,2.7-2.7,2.7c-1.6,0-2.7,1.1-2.7,2.7C512.5,623.3,511.4,624.4,509.8,624.4z"/>
				<path fill="#51A332" d="M542.2,624.4c-1.6,0-2.7-1.1-2.7-2.7c0-4.6,3.5-8.1,8.1-8.1c1.6,0,2.7,1.1,2.7,2.7
					c0,1.6-1.1,2.7-2.7,2.7c-1.6,0-2.7,1.1-2.7,2.7C544.9,623.3,543.8,624.4,542.2,624.4z"/>
				<path fill="#51A332" d="M607.1,575.7h-59.5c-1.6,0-2.7-1.1-2.7-2.7c0-1.6,1.1-2.7,2.7-2.7c7.6,0,13.5-5.9,13.5-13.5
					c0-7.6-5.9-13.5-13.5-13.5c-1.6,0-2.7-1.1-2.7-2.7c0-1.6,1.1-2.7,2.7-2.7h59.5c10.5,0,18.9,8.4,18.9,18.9
					C626,567.4,617.6,575.7,607.1,575.7z M560.9,570.3h46.2c7.6,0,13.5-5.9,13.5-13.5c0-7.6-5.9-13.5-13.5-13.5h-46.2
					c3.5,3.5,5.7,8.1,5.7,13.5C566.6,562.2,564.4,566.8,560.9,570.3z"/>
				<path fill="#51A332" d="M561.1,608.2c-10.5,0-18.9-8.4-18.9-18.9c0-10.5,8.4-18.9,18.9-18.9c10.5,0,18.9,8.4,18.9,18.9
					C580.1,599.8,571.7,608.2,561.1,608.2z M561.1,575.7c-7.6,0-13.5,5.9-13.5,13.5c0,7.6,5.9,13.5,13.5,13.5
					c7.6,0,13.5-5.9,13.5-13.5C574.7,581.7,568.7,575.7,561.1,575.7z"/>
				<path fill="#51A332" d="M528.7,608.2c-10.5,0-18.9-8.4-18.9-18.9c0-10.5,8.4-18.9,18.9-18.9c10.5,0,18.9,8.4,18.9,18.9
					C547.6,599.8,539.2,608.2,528.7,608.2z M528.7,575.7c-7.6,0-13.5,5.9-13.5,13.5c0,7.6,5.9,13.5,13.5,13.5
					c7.6,0,13.5-5.9,13.5-13.5C542.2,581.7,536.3,575.7,528.7,575.7z"/>
				<path fill="#51A332" d="M620.6,608.2h-59.5c-1.6,0-2.7-1.1-2.7-2.7c0-1.6,1.1-2.7,2.7-2.7c7.6,0,13.5-5.9,13.5-13.5
					c0-7.6-5.9-13.5-13.5-13.5c-1.6,0-2.7-1.1-2.7-2.7c0-1.6,1.1-2.7,2.7-2.7h59.5c10.5,0,18.9,8.4,18.9,18.9
					C639.5,599.8,631.2,608.2,620.6,608.2z M574.4,602.8h46.2c7.6,0,13.5-5.9,13.5-13.5c0-7.6-5.9-13.5-13.5-13.5h-46.2
					c3.5,3.5,5.7,8.1,5.7,13.5C580.1,594.7,577.9,599.3,574.4,602.8z"/>
				<path fill="#51A332" d="M580.1,640.6c-10.5,0-18.9-8.4-18.9-18.9c0-10.5,8.4-18.9,18.9-18.9c10.5,0,18.9,8.4,18.9,18.9
					C599,632.2,590.6,640.6,580.1,640.6z M580.1,608.2c-7.6,0-13.5,5.9-13.5,13.5c0,7.6,5.9,13.5,13.5,13.5
					c7.6,0,13.5-5.9,13.5-13.5C593.6,614.1,587.6,608.2,580.1,608.2z"/>
				<path fill="#51A332" d="M547.6,640.6c-10.5,0-18.9-8.4-18.9-18.9c0-10.5,8.4-18.9,18.9-18.9c10.5,0,18.9,8.4,18.9,18.9
					C566.6,632.2,558.2,640.6,547.6,640.6z M547.6,608.2c-7.6,0-13.5,5.9-13.5,13.5c0,7.6,5.9,13.5,13.5,13.5
					c7.6,0,13.5-5.9,13.5-13.5C561.1,614.1,555.2,608.2,547.6,608.2z"/>
				<path fill="#51A332" d="M515.2,640.6c-10.5,0-18.9-8.4-18.9-18.9c0-10.5,8.4-18.9,18.9-18.9c10.5,0,18.9,8.4,18.9,18.9
					C534.1,632.2,525.7,640.6,515.2,640.6z M515.2,608.2c-7.6,0-13.5,5.9-13.5,13.5c0,7.6,5.9,13.5,13.5,13.5
					c7.6,0,13.5-5.9,13.5-13.5C528.7,614.1,522.8,608.2,515.2,608.2z"/>
				<path fill="#51A332" d="M639.5,640.6h-59.5c-1.6,0-2.7-1.1-2.7-2.7c0-1.6,1.1-2.7,2.7-2.7c7.6,0,13.5-5.9,13.5-13.5
					c0-7.6-5.9-13.5-13.5-13.5c-1.6,0-2.7-1.1-2.7-2.7c0-1.6,1.1-2.7,2.7-2.7h59.5c10.5,0,18.9,8.4,18.9,18.9
					C658.5,632.2,650.1,640.6,639.5,640.6z M593.3,635.2h46.2c7.6,0,13.5-5.9,13.5-13.5c0-7.6-5.9-13.5-13.5-13.5h-46.2
					c3.5,3.5,5.7,8.1,5.7,13.5S596.8,631.7,593.3,635.2z"/>
				<path fill="#51A332" d="M547.6,640.6h-32.4c-1.6,0-2.7-1.1-2.7-2.7c0-1.6,1.1-2.7,2.7-2.7c7.6,0,13.5-5.9,13.5-13.5
					c0-1.6,1.1-2.7,2.7-2.7c1.6,0,2.7,1.1,2.7,2.7c0,7.6,5.9,13.5,13.5,13.5c1.6,0,2.7,1.1,2.7,2.7
					C550.3,639.5,549.3,640.6,547.6,640.6z M528.4,635.2h5.9c-1.1-1.1-2.2-2.4-3-3.8C530.6,632.8,529.5,634.1,528.4,635.2z"/>
				<path fill="#51A332" d="M580.1,640.6h-32.4c-1.6,0-2.7-1.1-2.7-2.7c0-1.6,1.1-2.7,2.7-2.7c7.6,0,13.5-5.9,13.5-13.5
					c0-1.6,1.1-2.7,2.7-2.7c1.6,0,2.7,1.1,2.7,2.7c0,7.6,5.9,13.5,13.5,13.5c1.6,0,2.7,1.1,2.7,2.7
					C582.8,639.5,581.7,640.6,580.1,640.6z M560.9,635.2h5.9c-1.1-1.1-2.2-2.4-3-3.8C563,632.8,562,634.1,560.9,635.2z"/>
				<path fill="#51A332" d="M580.1,554.1h-17c-1.6,0-2.7-1.1-2.7-2.7c0-1.6,1.1-2.7,2.7-2.7h17c1.6,0,2.7,1.1,2.7,2.7
					C582.8,553,581.7,554.1,580.1,554.1z"/>
				<path fill="#51A332" d="M574.7,564.9H563c-1.6,0-2.7-1.1-2.7-2.7c0-1.6,1.1-2.7,2.7-2.7h11.6c1.6,0,2.7,1.1,2.7,2.7
					C577.4,563.9,576.3,564.9,574.7,564.9z"/>
				<path fill="#51A332" d="M604.4,564.9h-16.2c-1.6,0-2.7-1.1-2.7-2.7c0-1.6,1.1-2.7,2.7-2.7h16.2c1.6,0,2.7,1.1,2.7,2.7
					C607.1,563.9,606,564.9,604.4,564.9z"/>
				<path fill="#51A332" d="M622.5,554.1h-18.1c-1.6,0-2.7-1.1-2.7-2.7c0-1.6,1.1-2.7,2.7-2.7h18.1c1.6,0,2.7,1.1,2.7,2.7
					C625.2,553,623.9,554.1,622.5,554.1z"/>
				<path fill="#51A332" d="M593.6,554.1h-2.7c-1.6,0-2.7-1.1-2.7-2.7c0-1.6,1.1-2.7,2.7-2.7h2.7c1.6,0,2.7,1.1,2.7,2.7
					C596.3,553,595.2,554.1,593.6,554.1z"/>
				<path fill="#51A332" d="M622.5,564.9h-7.3c-1.6,0-2.7-1.1-2.7-2.7c0-1.6,1.1-2.7,2.7-2.7h7.3c1.6,0,2.7,1.1,2.7,2.7
					C625.2,563.9,623.9,564.9,622.5,564.9z"/>
				<path fill="#51A332" d="M555.7,592c-1.6,0-2.7-1.1-2.7-2.7c0-4.6,3.5-8.1,8.1-8.1c1.6,0,2.7,1.1,2.7,2.7c0,1.6-1.1,2.7-2.7,2.7
					c-1.6,0-2.7,1.1-2.7,2.7C558.4,590.9,557.4,592,555.7,592z"/>
				<path fill="#51A332" d="M593.6,586.6h-17c-1.6,0-2.7-1.1-2.7-2.7c0-1.6,1.1-2.7,2.7-2.7h17c1.6,0,2.7,1.1,2.7,2.7
					C596.3,585.5,595.2,586.6,593.6,586.6z"/>
				<path fill="#51A332" d="M588.2,597.4h-11.6c-1.6,0-2.7-1.1-2.7-2.7c0-1.6,1.1-2.7,2.7-2.7h11.6c1.6,0,2.7,1.1,2.7,2.7
					C590.9,596.3,589.8,597.4,588.2,597.4z"/>
				<path fill="#51A332" d="M617.9,597.4h-16.2c-1.6,0-2.7-1.1-2.7-2.7c0-1.6,1.1-2.7,2.7-2.7h16.2c1.6,0,2.7,1.1,2.7,2.7
					C620.6,596.3,619.5,597.4,617.9,597.4z"/>
				<path fill="#51A332" d="M636,586.6h-18.1c-1.6,0-2.7-1.1-2.7-2.7c0-1.6,1.1-2.7,2.7-2.7H636c1.6,0,2.7,1.1,2.7,2.7
					C638.7,585.5,637.4,586.6,636,586.6z"/>
				<path fill="#51A332" d="M607.1,586.6h-2.7c-1.6,0-2.7-1.1-2.7-2.7c0-1.6,1.1-2.7,2.7-2.7h2.7c1.6,0,2.7,1.1,2.7,2.7
					C609.8,585.5,608.7,586.6,607.1,586.6z"/>
				<path fill="#51A332" d="M636,597.4h-7.3c-1.6,0-2.7-1.1-2.7-2.7c0-1.6,1.1-2.7,2.7-2.7h7.3c1.6,0,2.7,1.1,2.7,2.7
					C638.7,596.3,637.4,597.4,636,597.4z"/>
				<path fill="#51A332" d="M574.7,624.4c-1.6,0-2.7-1.1-2.7-2.7c0-4.6,3.5-8.1,8.1-8.1c1.6,0,2.7,1.1,2.7,2.7
					c0,1.6-1.1,2.7-2.7,2.7c-1.6,0-2.7,1.1-2.7,2.7C577.4,623.3,576.3,624.4,574.7,624.4z"/>
				<path fill="#51A332" d="M612.5,619h-17c-1.6,0-2.7-1.1-2.7-2.7c0-1.6,1.1-2.7,2.7-2.7h17c1.6,0,2.7,1.1,2.7,2.7
					C615.2,617.9,614.1,619,612.5,619z"/>
				<path fill="#51A332" d="M607.1,629.8h-11.6c-1.6,0-2.7-1.1-2.7-2.7c0-1.6,1.1-2.7,2.7-2.7h11.6c1.6,0,2.7,1.1,2.7,2.7
					C609.8,628.7,608.7,629.8,607.1,629.8z"/>
				<path fill="#51A332" d="M636.8,629.8h-16.2c-1.6,0-2.7-1.1-2.7-2.7c0-1.6,1.1-2.7,2.7-2.7h16.2c1.6,0,2.7,1.1,2.7,2.7
					C639.5,628.7,638.5,629.8,636.8,629.8z"/>
				<path fill="#51A332" d="M655,619h-18.1c-1.6,0-2.7-1.1-2.7-2.7c0-1.6,1.1-2.7,2.7-2.7H655c1.6,0,2.7,1.1,2.7,2.7
					C657.7,617.9,656.3,619,655,619z"/>
				<path fill="#51A332" d="M626,619h-2.7c-1.6,0-2.7-1.1-2.7-2.7c0-1.6,1.1-2.7,2.7-2.7h2.7c1.6,0,2.7,1.1,2.7,2.7
					C628.7,617.9,627.6,619,626,619z"/>
				<path fill="#51A332" d="M655,629.8h-7.3c-1.6,0-2.7-1.1-2.7-2.7c0-1.6,1.1-2.7,2.7-2.7h7.3c1.6,0,2.7,1.1,2.7,2.7
					C657.7,628.7,656.3,629.8,655,629.8z"/>
			</g>
			<path fill="#FFFFFF" d="M594.3,636.2h46.2c7.6,0,13.5-5.9,13.5-13.5c0-7.6-5.9-13.5-13.5-13.5h-46.2c3.5,3.5,5.7,8.1,5.7,13.5
				S597.8,632.7,594.3,636.2z"/>
		</g>
		<g>
			<g transform="translate(1 1)">
				<path fill="#51A332" d="M424.6,575.7c-10.5,0-18.9-8.4-18.9-18.9c0-10.5,8.4-18.9,18.9-18.9c10.5,0,18.9,8.4,18.9,18.9
					C443.6,567.4,435.2,575.7,424.6,575.7z M424.6,543.3c-7.6,0-13.5,5.9-13.5,13.5c0,7.6,5.9,13.5,13.5,13.5s13.5-5.9,13.5-13.5
					C438.1,549.3,432.2,543.3,424.6,543.3z"/>
				<path fill="#51A332" d="M419.2,559.5c-1.6,0-2.7-1.1-2.7-2.7c0-4.6,3.5-8.1,8.1-8.1c1.6,0,2.7,1.1,2.7,2.7
					c0,1.6-1.1,2.7-2.7,2.7c-1.6,0-2.7,1.1-2.7,2.7C421.9,558.4,420.8,559.5,419.2,559.5z"/>
				<path fill="#51A332" d="M400.3,592c-1.6,0-2.7-1.1-2.7-2.7c0-4.6,3.5-8.1,8.1-8.1c1.6,0,2.7,1.1,2.7,2.7c0,1.6-1.1,2.7-2.7,2.7
					c-1.6,0-2.7,1.1-2.7,2.7C403,590.9,401.9,592,400.3,592z"/>
				<path fill="#51A332" d="M386.8,624.4c-1.6,0-2.7-1.1-2.7-2.7c0-4.6,3.5-8.1,8.1-8.1c1.6,0,2.7,1.1,2.7,2.7
					c0,1.6-1.1,2.7-2.7,2.7c-1.6,0-2.7,1.1-2.7,2.7C389.5,623.3,388.4,624.4,386.8,624.4z"/>
				<path fill="#51A332" d="M419.2,624.4c-1.6,0-2.7-1.1-2.7-2.7c0-4.6,3.5-8.1,8.1-8.1c1.6,0,2.7,1.1,2.7,2.7
					c0,1.6-1.1,2.7-2.7,2.7c-1.6,0-2.7,1.1-2.7,2.7C421.9,623.3,420.8,624.4,419.2,624.4z"/>
				<path fill="#51A332" d="M484.1,575.7h-59.5c-1.6,0-2.7-1.1-2.7-2.7c0-1.6,1.1-2.7,2.7-2.7c7.6,0,13.5-5.9,13.5-13.5
					c0-7.6-5.9-13.5-13.5-13.5c-1.6,0-2.7-1.1-2.7-2.7c0-1.6,1.1-2.7,2.7-2.7h59.5c10.5,0,18.9,8.4,18.9,18.9
					C503,567.4,494.6,575.7,484.1,575.7z M437.9,570.3h46.2c7.6,0,13.5-5.9,13.5-13.5c0-7.6-5.9-13.5-13.5-13.5h-46.2
					c3.5,3.5,5.7,8.1,5.7,13.5C443.6,562.2,441.4,566.8,437.9,570.3z"/>
				<path fill="#51A332" d="M438.1,608.2c-10.5,0-18.9-8.4-18.9-18.9c0-10.5,8.4-18.9,18.9-18.9c10.5,0,18.9,8.4,18.9,18.9
					C457.1,599.8,448.7,608.2,438.1,608.2z M438.1,575.7c-7.6,0-13.5,5.9-13.5,13.5c0,7.6,5.9,13.5,13.5,13.5
					c7.6,0,13.5-5.9,13.5-13.5C451.7,581.7,445.7,575.7,438.1,575.7z"/>
				<path fill="#51A332" d="M405.7,608.2c-10.5,0-18.9-8.4-18.9-18.9c0-10.5,8.4-18.9,18.9-18.9c10.5,0,18.9,8.4,18.9,18.9
					C424.6,599.8,416.2,608.2,405.7,608.2z M405.7,575.7c-7.6,0-13.5,5.9-13.5,13.5c0,7.6,5.9,13.5,13.5,13.5
					c7.6,0,13.5-5.9,13.5-13.5C419.2,581.7,413.3,575.7,405.7,575.7z"/>
				<path fill="#51A332" d="M497.6,608.2h-59.5c-1.6,0-2.7-1.1-2.7-2.7c0-1.6,1.1-2.7,2.7-2.7c7.6,0,13.5-5.9,13.5-13.5
					c0-7.6-5.9-13.5-13.5-13.5c-1.6,0-2.7-1.1-2.7-2.7c0-1.6,1.1-2.7,2.7-2.7h59.5c10.5,0,18.9,8.4,18.9,18.9
					C516.5,599.8,508.2,608.2,497.6,608.2z M451.4,602.8h46.2c7.6,0,13.5-5.9,13.5-13.5c0-7.6-5.9-13.5-13.5-13.5h-46.2
					c3.5,3.5,5.7,8.1,5.7,13.5C457.1,594.7,454.9,599.3,451.4,602.8z"/>
				<path fill="#51A332" d="M457.1,640.6c-10.5,0-18.9-8.4-18.9-18.9c0-10.5,8.4-18.9,18.9-18.9c10.5,0,18.9,8.4,18.9,18.9
					C476,632.2,467.6,640.6,457.1,640.6z M457.1,608.2c-7.6,0-13.5,5.9-13.5,13.5c0,7.6,5.9,13.5,13.5,13.5
					c7.6,0,13.5-5.9,13.5-13.5C470.6,614.1,464.6,608.2,457.1,608.2z"/>
				<path fill="#51A332" d="M424.6,640.6c-10.5,0-18.9-8.4-18.9-18.9c0-10.5,8.4-18.9,18.9-18.9c10.5,0,18.9,8.4,18.9,18.9
					C443.6,632.2,435.2,640.6,424.6,640.6z M424.6,608.2c-7.6,0-13.5,5.9-13.5,13.5c0,7.6,5.9,13.5,13.5,13.5s13.5-5.9,13.5-13.5
					C438.1,614.1,432.2,608.2,424.6,608.2z"/>
				<path fill="#51A332" d="M392.2,640.6c-10.5,0-18.9-8.4-18.9-18.9c0-10.5,8.4-18.9,18.9-18.9c10.5,0,18.9,8.4,18.9,18.9
					C411.1,632.2,402.7,640.6,392.2,640.6z M392.2,608.2c-7.6,0-13.5,5.9-13.5,13.5c0,7.6,5.9,13.5,13.5,13.5
					c7.6,0,13.5-5.9,13.5-13.5C405.7,614.1,399.8,608.2,392.2,608.2z"/>
				<path fill="#51A332" d="M516.5,640.6h-59.5c-1.6,0-2.7-1.1-2.7-2.7c0-1.6,1.1-2.7,2.7-2.7c7.6,0,13.5-5.9,13.5-13.5
					c0-7.6-5.9-13.5-13.5-13.5c-1.6,0-2.7-1.1-2.7-2.7c0-1.6,1.1-2.7,2.7-2.7h59.5c10.5,0,18.9,8.4,18.9,18.9
					C535.5,632.2,527.1,640.6,516.5,640.6z M470.3,635.2h46.2c7.6,0,13.5-5.9,13.5-13.5c0-7.6-5.9-13.5-13.5-13.5h-46.2
					c3.5,3.5,5.7,8.1,5.7,13.5S473.8,631.7,470.3,635.2z"/>
				<path fill="#51A332" d="M424.6,640.6h-32.4c-1.6,0-2.7-1.1-2.7-2.7c0-1.6,1.1-2.7,2.7-2.7c7.6,0,13.5-5.9,13.5-13.5
					c0-1.6,1.1-2.7,2.7-2.7c1.6,0,2.7,1.1,2.7,2.7c0,7.6,5.9,13.5,13.5,13.5c1.6,0,2.7,1.1,2.7,2.7
					C427.3,639.5,426.3,640.6,424.6,640.6z M405.4,635.2h5.9c-1.1-1.1-2.2-2.4-3-3.8C407.6,632.8,406.5,634.1,405.4,635.2z"/>
				<path fill="#51A332" d="M457.1,640.6h-32.4c-1.6,0-2.7-1.1-2.7-2.7c0-1.6,1.1-2.7,2.7-2.7c7.6,0,13.5-5.9,13.5-13.5
					c0-1.6,1.1-2.7,2.7-2.7s2.7,1.1,2.7,2.7c0,7.6,5.9,13.5,13.5,13.5c1.6,0,2.7,1.1,2.7,2.7C459.8,639.5,458.7,640.6,457.1,640.6z
					 M437.9,635.2h5.9c-1.1-1.1-2.2-2.4-3-3.8C440,632.8,439,634.1,437.9,635.2z"/>
				<path fill="#51A332" d="M457.1,554.1h-17c-1.6,0-2.7-1.1-2.7-2.7c0-1.6,1.1-2.7,2.7-2.7h17c1.6,0,2.7,1.1,2.7,2.7
					C459.8,553,458.7,554.1,457.1,554.1z"/>
				<path fill="#51A332" d="M451.7,564.9H440c-1.6,0-2.7-1.1-2.7-2.7c0-1.6,1.1-2.7,2.7-2.7h11.6c1.6,0,2.7,1.1,2.7,2.7
					C454.4,563.9,453.3,564.9,451.7,564.9z"/>
				<path fill="#51A332" d="M481.4,564.9h-16.2c-1.6,0-2.7-1.1-2.7-2.7c0-1.6,1.1-2.7,2.7-2.7h16.2c1.6,0,2.7,1.1,2.7,2.7
					C484.1,563.9,483,564.9,481.4,564.9z"/>
				<path fill="#51A332" d="M499.5,554.1h-18.1c-1.6,0-2.7-1.1-2.7-2.7c0-1.6,1.1-2.7,2.7-2.7h18.1c1.6,0,2.7,1.1,2.7,2.7
					C502.2,553,500.9,554.1,499.5,554.1z"/>
				<path fill="#51A332" d="M470.6,554.1h-2.7c-1.6,0-2.7-1.1-2.7-2.7c0-1.6,1.1-2.7,2.7-2.7h2.7c1.6,0,2.7,1.1,2.7,2.7
					C473.3,553,472.2,554.1,470.6,554.1z"/>
				<path fill="#51A332" d="M499.5,564.9h-7.3c-1.6,0-2.7-1.1-2.7-2.7c0-1.6,1.1-2.7,2.7-2.7h7.3c1.6,0,2.7,1.1,2.7,2.7
					C502.2,563.9,500.9,564.9,499.5,564.9z"/>
				<path fill="#51A332" d="M432.7,592c-1.6,0-2.7-1.1-2.7-2.7c0-4.6,3.5-8.1,8.1-8.1c1.6,0,2.7,1.1,2.7,2.7c0,1.6-1.1,2.7-2.7,2.7
					c-1.6,0-2.7,1.1-2.7,2.7C435.4,590.9,434.4,592,432.7,592z"/>
				<path fill="#51A332" d="M470.6,586.6h-17c-1.6,0-2.7-1.1-2.7-2.7c0-1.6,1.1-2.7,2.7-2.7h17c1.6,0,2.7,1.1,2.7,2.7
					C473.3,585.5,472.2,586.6,470.6,586.6z"/>
				<path fill="#51A332" d="M465.2,597.4h-11.6c-1.6,0-2.7-1.1-2.7-2.7c0-1.6,1.1-2.7,2.7-2.7h11.6c1.6,0,2.7,1.1,2.7,2.7
					C467.9,596.3,466.8,597.4,465.2,597.4z"/>
				<path fill="#51A332" d="M494.9,597.4h-16.2c-1.6,0-2.7-1.1-2.7-2.7c0-1.6,1.1-2.7,2.7-2.7h16.2c1.6,0,2.7,1.1,2.7,2.7
					C497.6,596.3,496.5,597.4,494.9,597.4z"/>
				<path fill="#51A332" d="M513,586.6h-18.1c-1.6,0-2.7-1.1-2.7-2.7c0-1.6,1.1-2.7,2.7-2.7H513c1.6,0,2.7,1.1,2.7,2.7
					C515.7,585.5,514.4,586.6,513,586.6z"/>
				<path fill="#51A332" d="M484.1,586.6h-2.7c-1.6,0-2.7-1.1-2.7-2.7c0-1.6,1.1-2.7,2.7-2.7h2.7c1.6,0,2.7,1.1,2.7,2.7
					C486.8,585.5,485.7,586.6,484.1,586.6z"/>
				<path fill="#51A332" d="M513,597.4h-7.3c-1.6,0-2.7-1.1-2.7-2.7c0-1.6,1.1-2.7,2.7-2.7h7.3c1.6,0,2.7,1.1,2.7,2.7
					C515.7,596.3,514.4,597.4,513,597.4z"/>
				<path fill="#51A332" d="M451.7,624.4c-1.6,0-2.7-1.1-2.7-2.7c0-4.6,3.5-8.1,8.1-8.1c1.6,0,2.7,1.1,2.7,2.7
					c0,1.6-1.1,2.7-2.7,2.7c-1.6,0-2.7,1.1-2.7,2.7C454.4,623.3,453.3,624.4,451.7,624.4z"/>
				<path fill="#51A332" d="M489.5,619h-17c-1.6,0-2.7-1.1-2.7-2.7c0-1.6,1.1-2.7,2.7-2.7h17c1.6,0,2.7,1.1,2.7,2.7
					C492.2,617.9,491.1,619,489.5,619z"/>
				<path fill="#51A332" d="M484.1,629.8h-11.6c-1.6,0-2.7-1.1-2.7-2.7c0-1.6,1.1-2.7,2.7-2.7h11.6c1.6,0,2.7,1.1,2.7,2.7
					C486.8,628.7,485.7,629.8,484.1,629.8z"/>
				<path fill="#51A332" d="M513.8,629.8h-16.2c-1.6,0-2.7-1.1-2.7-2.7c0-1.6,1.1-2.7,2.7-2.7h16.2c1.6,0,2.7,1.1,2.7,2.7
					C516.5,628.7,515.5,629.8,513.8,629.8z"/>
				<path fill="#51A332" d="M532,619h-18.1c-1.6,0-2.7-1.1-2.7-2.7c0-1.6,1.1-2.7,2.7-2.7H532c1.6,0,2.7,1.1,2.7,2.7
					C534.7,617.9,533.3,619,532,619z"/>
				<path fill="#51A332" d="M503,619h-2.7c-1.6,0-2.7-1.1-2.7-2.7c0-1.6,1.1-2.7,2.7-2.7h2.7c1.6,0,2.7,1.1,2.7,2.7
					C505.7,617.9,504.6,619,503,619z"/>
				<path fill="#51A332" d="M532,629.8h-7.3c-1.6,0-2.7-1.1-2.7-2.7c0-1.6,1.1-2.7,2.7-2.7h7.3c1.6,0,2.7,1.1,2.7,2.7
					C534.7,628.7,533.3,629.8,532,629.8z"/>
			</g>
			<path fill="#FFFFFF" d="M471.3,636.2h46.2c7.6,0,13.5-5.9,13.5-13.5c0-7.6-5.9-13.5-13.5-13.5h-46.2c3.5,3.5,5.7,8.1,5.7,13.5
				S474.8,632.7,471.3,636.2z"/>
		</g>
		<g>
			<path fill="#51A332" d="M364.5,620h-17c-1.6,0-2.7-1.1-2.7-2.7c0-1.6,1.1-2.7,2.7-2.7h17c1.6,0,2.7,1.1,2.7,2.7
				C367.2,618.9,366.1,620,364.5,620z"/>
			<path fill="#51A332" d="M359.1,630.8h-11.6c-1.6,0-2.7-1.1-2.7-2.7c0-1.6,1.1-2.7,2.7-2.7h11.6c1.6,0,2.7,1.1,2.7,2.7
				C361.8,629.7,360.7,630.8,359.1,630.8z"/>
			<path fill="#51A332" d="M493,621h-17c-1.6,0-2.7-1.1-2.7-2.7c0-1.6,1.1-2.7,2.7-2.7h17c1.6,0,2.7,1.1,2.7,2.7
				C495.7,619.9,494.6,621,493,621z"/>
			<path fill="#51A332" d="M487.6,631.8H476c-1.6,0-2.7-1.1-2.7-2.7c0-1.6,1.1-2.7,2.7-2.7h11.6c1.6,0,2.7,1.1,2.7,2.7
				C490.3,630.7,489.2,631.8,487.6,631.8z"/>
			<path fill="#51A332" d="M517.3,631.8h-16.2c-1.6,0-2.7-1.1-2.7-2.7c0-1.6,1.1-2.7,2.7-2.7h16.2c1.6,0,2.7,1.1,2.7,2.7
				C520,630.7,519,631.8,517.3,631.8z"/>
			<path fill="#51A332" d="M506.5,621h-2.7c-1.6,0-2.7-1.1-2.7-2.7c0-1.6,1.1-2.7,2.7-2.7h2.7c1.6,0,2.7,1.1,2.7,2.7
				C509.2,619.9,508.1,621,506.5,621z"/>
			<path fill="#51A332" d="M243,621h-17c-1.6,0-2.7-1.1-2.7-2.7c0-1.6,1.1-2.7,2.7-2.7h17c1.6,0,2.7,1.1,2.7,2.7
				C245.7,619.9,244.6,621,243,621z"/>
			<path fill="#51A332" d="M237.6,631.8H226c-1.6,0-2.7-1.1-2.7-2.7c0-1.6,1.1-2.7,2.7-2.7h11.6c1.6,0,2.7,1.1,2.7,2.7
				C240.3,630.7,239.2,631.8,237.6,631.8z"/>
			<path fill="#51A332" d="M267.3,631.8h-16.2c-1.6,0-2.7-1.1-2.7-2.7c0-1.6,1.1-2.7,2.7-2.7h16.2c1.6,0,2.7,1.1,2.7,2.7
				C270,630.7,269,631.8,267.3,631.8z"/>
			<path fill="#51A332" d="M256.5,621h-2.7c-1.6,0-2.7-1.1-2.7-2.7c0-1.6,1.1-2.7,2.7-2.7h2.7c1.6,0,2.7,1.1,2.7,2.7
				C259.2,619.9,258.1,621,256.5,621z"/>
		</g>
	</g>
</g>
<g id="_x32_F">
	<rect x="635.6" y="-123.4" fill="none" width="341" height="139.8"/>
	<text transform="matrix(1 0 0 1 635.5797 -102.0923)"><tspan x="0" y="0" fill="#444242" font-family="'MyriadPro-Regular'" font-size="30">Bebas Neue Regular 100 pt</tspan><tspan x="0" y="36" fill="#444242" font-family="'MyriadPro-Regular'" font-size="30">Color: 51a332</tspan></text>
</g>
</svg>
