<?xml version="1.0" encoding="utf-8"?>
<!-- Generator: Adobe Illustrator 18.0.0, SVG Export Plug-In . SVG Version: 6.00 Build 0)  -->
<!DOCTYPE svg PUBLIC "-//W3C//DTD SVG 1.1//EN" "http://www.w3.org/Graphics/SVG/1.1/DTD/svg11.dtd" [
	<!ENTITY ns_flows "http://ns.adobe.com/Flows/1.0/">
	<!ENTITY ns_extend "http://ns.adobe.com/Extensibility/1.0/">
	<!ENTITY ns_ai "http://ns.adobe.com/AdobeIllustrator/10.0/">
	<!ENTITY ns_graphs "http://ns.adobe.com/Graphs/1.0/">
]>
<svg version="1.1" xmlns:x="&ns_extend;" xmlns:i="&ns_ai;" xmlns:graph="&ns_graphs;"
	 xmlns="http://www.w3.org/2000/svg" xmlns:xlink="http://www.w3.org/1999/xlink" xmlns:a="http://ns.adobe.com/AdobeSVGViewerExtensions/3.0/"
	 x="0px" y="0px" viewBox="0 0 74 138" enable-background="new 0 0 74 138" xml:space="preserve">
<g id="B1">
</g>
<g id="_x31_">
</g>
<g id="_x31_F">
</g>
<g id="_x32_">
</g>
<g id="_x32_F">
</g>
<g id="_x33_">
	<g>
		<g>
			<g>
				<path fill="#DFE0DE" d="M19.9,64.2c2.4-0.1,4.3-0.5,5.8-1.4c1.9-1.1,3.4-2.7,4.4-4.7c1-2,1.6-4.8,1.8-8.5
					c0.1-1.8,0.1-6,0.2-12.5c0.1-6.5,0.5-11.1,1.3-13.9c0.8-2.8,2-5,3.7-6.7c1.7-1.7,3.8-2.9,6.3-3.6c1.5-0.4,4-0.7,7.4-0.7h3.3v9.3
					h-1.8c-4.1,0-6.8,0.8-8.1,2.3c-1.3,1.5-2,4.8-2,9.9c0,9.2-0.1,15-0.4,17.6c-0.5,4.8-1.7,8.6-3.5,11.1c-1.8,2.6-4.6,4.8-8.5,6.6
					c4.3,1.9,7.5,4.6,9.4,8.4c2,3.7,2.9,9.8,2.9,18.3c0,7.6,0.1,12,0.2,13.4c0.2,2.1,0.7,3.8,1.5,4.9c0.5,0.8,1.4,1.4,2.6,1.9
					c1.2,0.5,3.7,0.7,7.6,0.7v9.3h-3.3c-3.9,0-6.8-0.3-8.6-1c-2.6-1-4.7-2.6-6.3-4.8c-1.6-2.2-2.6-5.1-3.1-8.8
					c-0.4-2.6-0.6-7.4-0.6-14.5c0-7.2-0.4-12.2-1.2-14.7c-0.8-2.6-2.1-4.5-3.9-5.9c-1.9-1.4-4.2-2.1-7.1-2.2V64.2z"/>
			</g>
		</g>
	</g>
</g>
<g id="_x33_F">
</g>
</svg>
