<?xml version="1.0" encoding="utf-8"?>
<!-- Generator: Adobe Illustrator 18.0.0, SVG Export Plug-In . SVG Version: 6.00 Build 0)  -->
<!DOCTYPE svg PUBLIC "-//W3C//DTD SVG 1.1//EN" "http://www.w3.org/Graphics/SVG/1.1/DTD/svg11.dtd" [
	<!ENTITY ns_flows "http://ns.adobe.com/Flows/1.0/">
	<!ENTITY ns_extend "http://ns.adobe.com/Extensibility/1.0/">
	<!ENTITY ns_ai "http://ns.adobe.com/AdobeIllustrator/10.0/">
	<!ENTITY ns_graphs "http://ns.adobe.com/Graphs/1.0/">
]>
<svg version="1.1" xmlns:x="&ns_extend;" xmlns:i="&ns_ai;" xmlns:graph="&ns_graphs;"
	 xmlns="http://www.w3.org/2000/svg" xmlns:xlink="http://www.w3.org/1999/xlink" xmlns:a="http://ns.adobe.com/AdobeSVGViewerExtensions/3.0/"
	 x="0px" y="0px" viewBox="0 0 1568 840" enable-background="new 0 0 1568 840" xml:space="preserve">
<g id="_x30_">
</g>
<g id="_x31_">
</g>
<g id="_x31_1">
</g>
<g id="_x31_F">
</g>
<g id="_x32_">
</g>
<g id="_x32_F">
</g>
<g id="_x33_">
	<g>
		<g>
			<g>
				<g>
					<path fill="#868589" d="M674.2,404.3v7.4c0,9.1-4.4,14-13.3,14h-4.2V447h-8.9v-56.7h13.1C669.8,390.3,674.2,395.2,674.2,404.3z
						 M656.7,398.4v19.2h4.2c2.8,0,4.4-1.3,4.4-5.3v-8.5c0-4-1.5-5.3-4.4-5.3H656.7z"/>
				</g>
				<g>
					<path fill="#868589" d="M679.6,403.9c0-9.1,4.8-14.3,13.5-14.3s13.5,5.2,13.5,14.3v29.5c0,9.1-4.8,14.3-13.5,14.3
						s-13.5-5.2-13.5-14.3V403.9z M688.6,433.9c0,4,1.8,5.6,4.6,5.6s4.6-1.5,4.6-5.6v-30.6c0-4-1.8-5.6-4.6-5.6s-4.6,1.5-4.6,5.6
						V433.9z"/>
				</g>
				<g>
					<path fill="#868589" d="M711.9,390.3h27.5v8.1h-9.3V447h-8.9v-48.6h-9.3V390.3z"/>
				</g>
				<g>
					<path fill="#868589" d="M754.2,414.2h12.2v8.1h-12.2v16.6h15.4v8.1h-24.3v-56.7h24.3v8.1h-15.4V414.2z"/>
				</g>
				<g>
					<path fill="#868589" d="M785.3,405.9h-0.2V447h-8v-56.7h11.2l9,33.9h0.2v-33.9h7.9V447h-9.2L785.3,405.9z"/>
				</g>
				<g>
					<path fill="#868589" d="M811.2,390.3h27.5v8.1h-9.3V447h-8.9v-48.6h-9.3V390.3z"/>
				</g>
				<g>
					<path fill="#868589" d="M844.6,390.3h8.9V447h-8.9V390.3z"/>
				</g>
				<g>
					<path fill="#868589" d="M890.9,447h-9l-1.5-10.3h-10.9l-1.5,10.3h-8.2l9.1-56.7h13L890.9,447z M870.6,429h8.6l-4.2-28.7h-0.2
						L870.6,429z"/>
				</g>
				<g>
					<path fill="#868589" d="M897,390.3h8.9v48.6h14.7v8.1H897V390.3z"/>
				</g>
			</g>
			<g>
				<g>
					<path fill="#868589" d="M658.6,487.2v6.6h-6.6v-6.6H658.6z"/>
				</g>
				<g>
					<path fill="#868589" d="M670.2,487.2v6.6h-6.6v-6.6H670.2z"/>
				</g>
				<g>
					<path fill="#868589" d="M681.9,487.2v6.6h-6.6v-6.6H681.9z"/>
				</g>
				<g>
					<path fill="#868589" d="M709.2,493.9h-7l-1.2-8h-8.5l-1.2,8h-6.3l7-43.9h10.1L709.2,493.9z M693.5,480h6.6l-3.3-22.2h-0.1
						L693.5,480z"/>
				</g>
				<g>
					<path fill="#868589" d="M718.7,462.1h-0.1v31.8h-6.2V450h8.7l7,26.3h0.1V450h6.1v43.9h-7.1L718.7,462.1z"/>
				</g>
				<g>
					<path fill="#868589" d="M739.2,450h10.9c6.9,0,10.3,3.8,10.3,10.8V483c0,7-3.4,10.8-10.3,10.8h-10.9V450z M746.1,456.3v31.3
						h3.9c2.2,0,3.5-1.1,3.5-4.3v-22.8c0-3.1-1.3-4.3-3.5-4.3H746.1z"/>
				</g>
				<g>
					<path fill="#868589" d="M789,481.2h0.1l4.6-31.2h9.6v43.9h-6.5v-31.5h-0.1l-4.6,31.5h-6.5l-5-31h-0.1v31h-6V450h9.6L789,481.2z
						"/>
				</g>
				<g>
					<path fill="#868589" d="M807.8,460.5c0-7,3.7-11,10.5-11c6.8,0,10.5,4,10.5,11v22.8c0,7-3.7,11-10.5,11c-6.8,0-10.5-4-10.5-11
						V460.5z M814.7,483.8c0,3.1,1.4,4.3,3.6,4.3c2.2,0,3.6-1.2,3.6-4.3v-23.7c0-3.1-1.4-4.3-3.6-4.3c-2.2,0-3.6,1.2-3.6,4.3V483.8z
						"/>
				</g>
				<g>
					<path fill="#868589" d="M847.6,493.9c-0.4-1.1-0.6-1.8-0.6-5.4v-6.9c0-4.1-1.4-5.6-4.5-5.6h-2.4v17.9h-6.9V450h10.4
						c7.1,0,10.2,3.3,10.2,10.1v3.4c0,4.5-1.4,7.4-4.5,8.8v0.1c3.4,1.4,4.6,4.7,4.6,9.3v6.8c0,2.1,0.1,3.7,0.8,5.3H847.6z
						 M840.1,456.3v13.5h2.7c2.6,0,4.1-1.1,4.1-4.6v-4.3c0-3.1-1.1-4.5-3.5-4.5H840.1z"/>
				</g>
				<g>
					<path fill="#868589" d="M865.3,468.5h9.5v6.3h-9.5v12.9h11.9v6.3h-18.8V450h18.8v6.3h-11.9V468.5z"/>
				</g>
				<g>
					<path fill="#868589" d="M882.4,484.2l-0.9-15.9V450h6.9v18.3l-0.9,15.9H882.4z M888.3,487.2v6.6h-6.6v-6.6H888.3z"/>
				</g>
			</g>
			<g>
				<g>
					<path fill="#868589" d="M666.2,348.2v1.8c0,5.3-1.6,8.6-5.2,10.2v0.1c4.3,1.7,6,5.5,6,10.9v4.2c0,7.9-4.2,12.1-12.2,12.1h-12.7
						v-51.2h12.1C662.6,336.5,666.2,340.3,666.2,348.2z M650.2,343.8v13.5h3.1c3,0,4.8-1.3,4.8-5.4V349c0-3.7-1.2-5.3-4.1-5.3H650.2
						z M650.2,364.6v15.7h4.6c2.7,0,4.2-1.2,4.2-5v-4.5c0-4.8-1.5-6.2-5.2-6.2H650.2z"/>
				</g>
				<g>
					<path fill="#868589" d="M671.9,336.5h8v51.2h-8V336.5z"/>
				</g>
				<g>
					<path fill="#868589" d="M685.1,348.8c0-8.2,4.3-12.9,12.2-12.9s12.2,4.7,12.2,12.9v26.6c0,8.2-4.3,12.9-12.2,12.9
						s-12.2-4.7-12.2-12.9V348.8z M693.1,375.9c0,3.7,1.6,5,4.2,5s4.2-1.4,4.2-5v-27.6c0-3.7-1.6-5-4.2-5s-4.2,1.4-4.2,5V375.9z"/>
				</g>
				<g>
					<path fill="#868589" d="M722.8,358h11v7.3h-11v15h13.9v7.3h-21.9v-51.2h21.9v7.3h-13.9V358z"/>
				</g>
				<g>
					<path fill="#868589" d="M765,368.6v6.8c0,8.2-4.1,12.9-12,12.9c-7.9,0-12-4.7-12-12.9v-26.6c0-8.2,4.1-12.9,12-12.9
						c7.9,0,12,4.7,12,12.9v5h-7.6v-5.5c0-3.7-1.6-5-4.2-5c-2.6,0-4.2,1.4-4.2,5v27.6c0,3.7,1.6,5,4.2,5c2.6,0,4.2-1.3,4.2-5v-7.3
						H765z"/>
				</g>
				<g>
					<path fill="#868589" d="M769.2,348.8c0-8.2,4.3-12.9,12.2-12.9s12.2,4.7,12.2,12.9v26.6c0,8.2-4.3,12.9-12.2,12.9
						s-12.2-4.7-12.2-12.9V348.8z M777.2,375.9c0,3.7,1.6,5,4.2,5s4.2-1.4,4.2-5v-27.6c0-3.7-1.6-5-4.2-5s-4.2,1.4-4.2,5V375.9z"/>
				</g>
				<g>
					<path fill="#868589" d="M806.1,350.6H806v37.1h-7.2v-51.2h10.1l8.1,30.6h0.1v-30.6h7.2v51.2H816L806.1,350.6z"/>
				</g>
				<g>
					<path fill="#868589" d="M829.4,348.8c0-8.2,4.3-12.9,12.2-12.9s12.2,4.7,12.2,12.9v26.6c0,8.2-4.3,12.9-12.2,12.9
						s-12.2-4.7-12.2-12.9V348.8z M837.4,375.9c0,3.7,1.6,5,4.2,5s4.2-1.4,4.2-5v-27.6c0-3.7-1.6-5-4.2-5s-4.2,1.4-4.2,5V375.9z"/>
				</g>
				<g>
					<path fill="#868589" d="M876,372.8h0.1l5.4-36.3h11.2v51.2h-7.6v-36.7H885l-5.4,36.7H872l-5.9-36.2H866v36.2h-7v-51.2h11.2
						L876,372.8z"/>
				</g>
				<g>
					<path fill="#868589" d="M906.1,370.7l-10.2-34.2h8.4l6.1,23.3h0.1l6.1-23.3h7.7l-10.2,34.2v17h-8V370.7z"/>
				</g>
			</g>
		</g>
		<g>
			<g>
				<path fill="#51A332" d="M506.3,393.1l0,5.6c0,7.4-6,13.4-13.4,13.5l-17.3,0.1l-3.9-3.9c-18.7-18.6-49.2-18.5-67.8,0.2l-4.5,4.6
					c-0.4,0.4-0.6,1-0.6,1.5c0,0.6,0.2,1.1,0.6,1.5l4.6,4.5c18.7,18.6,49.2,18.5,67.8-0.2l3.9-3.9l17.3-0.1c9.8,0,17.8-8,17.7-17.8
					l0-5.6c0-1.2-1-2.2-2.2-2.2C507.3,390.9,506.3,391.9,506.3,393.1z M468.7,411.3l0.8,0.8l-26,0.1l-11-13.2
					C445.4,397.4,458.8,401.5,468.7,411.3z M427.6,399.9l10.2,12.3l-31.6,0.1l0.8-0.8C412.9,405.6,420.1,401.7,427.6,399.9z
					 M407.1,417.5l-0.8-0.8l19.7-0.1l-7.6,9C414.2,423.6,410.4,420.9,407.1,417.5z M422.5,427.4l9.2-10.8l19.3-0.1l-10.6,13.5
					C434.3,430.5,428.2,429.6,422.5,427.4z M446.6,429.3l10-12.7l13,0l-0.8,0.8C462.4,423.7,454.7,427.6,446.6,429.3z"/>
			</g>
		</g>
		<g>
			<g>
				<path fill="#51A332" d="M545.9,657.9l1.6,5.3c2.2,7.1-1.8,14.6-8.9,16.8l-16.5,5.1l-4.9-2.6c-23.4-12.4-52.4-3.5-64.8,19.9
					l-3,5.7c-0.3,0.5-0.3,1.1-0.2,1.7c0.2,0.6,0.6,1,1.1,1.3l5.7,3c23.4,12.4,52.4,3.5,64.8-19.9l2.6-4.9l16.5-5.1
					c9.4-2.9,14.7-12.8,11.8-22.2l-1.6-5.3c-0.4-1.2-1.6-1.8-2.7-1.4C546.2,655.5,545.6,656.7,545.9,657.9z M515.2,686.3l1,0.6
					l-24.8,7.6l-14.3-9.5C488.9,679.7,502.9,679.8,515.2,686.3z M472.6,687.3l13.4,8.8l-30.2,9.3l0.6-1
					C460.2,697,465.9,691.2,472.6,687.3z M458.1,710.1l-1-0.6l18.8-5.8l-4.7,10.8C466.7,713.8,462.3,712.4,458.1,710.1z
					 M475.7,715.1l5.6-13l18.5-5.7l-6.2,16C487.9,714.6,481.8,715.5,475.7,715.1z M499.3,709.9l5.8-15.1l12.4-3.8l-0.6,1
					C512.8,699.9,506.6,706,499.3,709.9z"/>
			</g>
		</g>
		<g>
			<g>
				<path fill="#51A332" d="M385.4,316.1c-0.3,1.1,0.3,2.3,1.5,2.6l5.2,1.5c9.2,2.6,18.8-2.7,21.5-11.9l4.7-16.2l4.7-2.6
					c22.6-12.5,30.8-41,18.3-63.6l-3-5.5c-0.3-0.5-0.7-0.9-1.3-1c-0.5-0.2-1.1-0.1-1.6,0.2l-5.5,3c-22.6,12.5-30.8,41-18.3,63.6
					l2.6,4.7l-4.7,16.2c-2,6.9-9.3,10.9-16.2,9l-5.2-1.5C386.9,314.3,385.8,314.9,385.4,316.1z M413.4,247l9.5,13.8l-7,24.4l-0.6-1
					C408.7,272.3,408.5,258.6,413.4,247z M431.9,226.4l1-0.6l-8.5,29.7l-8.8-12.9C419.3,236,424.8,230.3,431.9,226.4z M442.2,240.7
					l-10.4,4.8L437,227l0.6,1C439.8,232.1,441.3,236.4,442.2,240.7z M440.5,262.6l-15.5,6.3l5.2-18.1l12.6-5.7
					C443.2,251.1,442.4,257.1,440.5,262.6z M420.9,285.8l-1,0.6l3.5-12.2l14.6-5.9C434.3,275.4,428.5,281.6,420.9,285.8z"/>
			</g>
		</g>
		<g>
			<g>
				<path fill="#87868A" d="M81,281.5h7v44.8h-7V281.5z"/>
			</g>
			<g>
				<path fill="#87868A" d="M99.6,293.9h-0.1v32.5h-6.3v-44.8h8.8l7.1,26.8h0.1v-26.8h6.3v44.8h-7.2L99.6,293.9z"/>
			</g>
			<g>
				<path fill="#87868A" d="M118.5,281.5h21.8v6.4h-7.4v38.4h-7v-38.4h-7.4V281.5z"/>
			</g>
			<g>
				<path fill="#87868A" d="M150.4,300.4h9.7v6.4h-9.7V320h12.2v6.4h-19.2v-44.8h19.2v6.4h-12.2V300.4z"/>
			</g>
			<g>
				<path fill="#87868A" d="M166.9,281.5h7V320h11.6v6.4h-18.6V281.5z"/>
			</g>
			<g>
				<path fill="#87868A" d="M188.6,281.5h7V320h11.6v6.4h-18.6V281.5z"/>
			</g>
			<g>
				<path fill="#87868A" d="M210.3,281.5h7v44.8h-7V281.5z"/>
			</g>
			<g>
				<path fill="#87868A" d="M233,301.4h9.9v14.2c0,7.2-3.6,11.3-10.5,11.3c-6.9,0-10.5-4.1-10.5-11.3v-23.3
					c0-7.2,3.6-11.3,10.5-11.3c6.9,0,10.5,4.1,10.5,11.3v4.4h-6.7v-4.8c0-3.2-1.4-4.4-3.6-4.4c-2.2,0-3.6,1.2-3.6,4.4v24.2
					c0,3.2,1.4,4.4,3.6,4.4c2.2,0,3.6-1.2,3.6-4.4v-8.3H233V301.4z"/>
			</g>
			<g>
				<path fill="#87868A" d="M254.5,300.4h9.7v6.4h-9.7V320h12.2v6.4h-19.2v-44.8h19.2v6.4h-12.2V300.4z"/>
			</g>
			<g>
				<path fill="#87868A" d="M277.4,293.9h-0.1v32.5h-6.3v-44.8h8.8l7.1,26.8h0.1v-26.8h6.3v44.8H286L277.4,293.9z"/>
			</g>
			<g>
				<path fill="#87868A" d="M296.3,281.5H318v6.4h-7.4v38.4h-7v-38.4h-7.4V281.5z"/>
			</g>
			<g>
				<path fill="#87868A" d="M148.3,344.8v3.5c0,4.3-2.1,6.6-6.2,6.6h-2v10h-4.2v-26.6h6.2C146.2,338.2,148.3,340.6,148.3,344.8z
					 M140,342v9h2c1.3,0,2.1-0.6,2.1-2.5v-4c0-1.9-0.7-2.5-2.1-2.5H140z"/>
			</g>
			<g>
				<path fill="#87868A" d="M163.3,364.9H159l-0.7-4.8h-5.1l-0.7,4.8h-3.8l4.3-26.6h6.1L163.3,364.9z M153.7,356.4h4l-2-13.5h-0.1
					L153.7,356.4z"/>
			</g>
			<g>
				<path fill="#87868A" d="M177.3,354.9v3.5c0,4.3-2.1,6.7-6.2,6.7s-6.2-2.4-6.2-6.7v-13.8c0-4.3,2.1-6.7,6.2-6.7s6.2,2.4,6.2,6.7
					v2.6h-4v-2.9c0-1.9-0.8-2.6-2.2-2.6c-1.3,0-2.2,0.7-2.2,2.6v14.4c0,1.9,0.8,2.6,2.2,2.6c1.3,0,2.2-0.7,2.2-2.6v-3.8H177.3z"/>
			</g>
			<g>
				<path fill="#87868A" d="M185.3,354.3l-1.3,2.4v8.2h-4.2v-26.6h4.2v11.5h0.1l5.4-11.5h4.2l-5.8,11.9l5.8,14.8h-4.3L185.3,354.3z"
					/>
			</g>
			<g>
				<path fill="#87868A" d="M209.1,364.9h-4.2l-0.7-4.8H199l-0.7,4.8h-3.8l4.3-26.6h6.1L209.1,364.9z M199.6,356.4h4l-2-13.5h-0.1
					L199.6,356.4z"/>
			</g>
			<g>
				<path fill="#87868A" d="M217.3,350h5.9v8.4c0,4.3-2.1,6.7-6.2,6.7s-6.2-2.4-6.2-6.7v-13.8c0-4.3,2.1-6.7,6.2-6.7
					s6.2,2.4,6.2,6.7v2.6h-4v-2.9c0-1.9-0.8-2.6-2.2-2.6c-1.3,0-2.2,0.7-2.2,2.6v14.4c0,1.9,0.8,2.6,2.2,2.6c1.3,0,2.2-0.7,2.2-2.6
					v-4.9h-1.9V350z"/>
			</g>
			<g>
				<path fill="#87868A" d="M225.9,338.2h4.2v26.6h-4.2V338.2z"/>
			</g>
			<g>
				<path fill="#87868A" d="M236.9,345.6L236.9,345.6l-0.1,19.3h-3.8v-26.6h5.2l4.2,15.9h0.1v-15.9h3.7v26.6H242L236.9,345.6z"/>
			</g>
			<g>
				<path fill="#87868A" d="M255.6,350h5.9v8.4c0,4.3-2.1,6.7-6.2,6.7s-6.2-2.4-6.2-6.7v-13.8c0-4.3,2.1-6.7,6.2-6.7
					s6.2,2.4,6.2,6.7v2.6h-4v-2.9c0-1.9-0.8-2.6-2.2-2.6c-1.3,0-2.2,0.7-2.2,2.6v14.4c0,1.9,0.8,2.6,2.2,2.6c1.3,0,2.2-0.7,2.2-2.6
					v-4.9h-1.9V350z"/>
			</g>
		</g>
		<g>
			<g>
				<path fill="#87868A" d="M50.5,661.9h-0.1v32.5h-6.3v-44.8h8.8l7.1,26.8h0.1v-26.8h6.3v44.8h-7.2L50.5,661.9z"/>
			</g>
			<g>
				<path fill="#87868A" d="M94.3,694.4h-7.1l-1.2-8.1h-8.6l-1.2,8.1h-6.5l7.2-44.8h10.3L94.3,694.4z M78.2,680.1H85l-3.3-22.7h-0.1
					L78.2,680.1z"/>
			</g>
			<g>
				<path fill="#87868A" d="M103.9,661.9h-0.1v32.5h-6.3v-44.8h8.8l7.1,26.8h0.1v-26.8h6.3v44.8h-7.2L103.9,661.9z"/>
			</g>
			<g>
				<path fill="#87868A" d="M124.3,660.3c0-7.2,3.8-11.3,10.7-11.3c6.9,0,10.7,4.1,10.7,11.3v23.3c0,7.2-3.8,11.3-10.7,11.3
					c-6.9,0-10.7-4.1-10.7-11.3V660.3z M131.3,684.1c0,3.2,1.4,4.4,3.6,4.4c2.2,0,3.6-1.2,3.6-4.4v-24.2c0-3.2-1.4-4.4-3.6-4.4
					c-2.2,0-3.6,1.2-3.6,4.4V684.1z"/>
			</g>
			<g>
				<path fill="#87868A" d="M170.7,677.7v6c0,7.2-3.6,11.3-10.5,11.3c-6.9,0-10.5-4.1-10.5-11.3v-23.3c0-7.2,3.6-11.3,10.5-11.3
					c6.9,0,10.5,4.1,10.5,11.3v4.4H164v-4.8c0-3.2-1.4-4.4-3.6-4.4c-2.2,0-3.6,1.2-3.6,4.4v24.2c0,3.2,1.4,4.4,3.6,4.4
					c2.2,0,3.6-1.2,3.6-4.4v-6.4H170.7z"/>
			</g>
			<g>
				<path fill="#87868A" d="M182,668.4h9.7v6.4H182V688h12.2v6.4h-19.2v-44.8h19.2v6.4H182V668.4z"/>
			</g>
			<g>
				<path fill="#87868A" d="M198.5,649.5h7V688h11.6v6.4h-18.6V649.5z"/>
			</g>
			<g>
				<path fill="#87868A" d="M220.2,649.5h7V688h11.6v6.4h-18.6V649.5z"/>
			</g>
			<g>
				<path fill="#87868A" d="M248.6,649.5v34.6c0,3.2,1.4,4.4,3.6,4.4c2.2,0,3.6-1.2,3.6-4.4v-34.6h6.7v34.1
					c0,7.2-3.6,11.3-10.5,11.3c-6.9,0-10.5-4.1-10.5-11.3v-34.1H248.6z"/>
			</g>
			<g>
				<path fill="#87868A" d="M267.4,649.5h7V688H286v6.4h-18.6V649.5z"/>
			</g>
			<g>
				<path fill="#87868A" d="M288.5,660.3c0-7.2,3.8-11.3,10.7-11.3c6.9,0,10.7,4.1,10.7,11.3v23.3c0,7.2-3.8,11.3-10.7,11.3
					c-6.9,0-10.7-4.1-10.7-11.3V660.3z M295.6,684.1c0,3.2,1.4,4.4,3.6,4.4c2.2,0,3.6-1.2,3.6-4.4v-24.2c0-3.2-1.4-4.4-3.6-4.4
					c-2.2,0-3.6,1.2-3.6,4.4V684.1z"/>
			</g>
			<g>
				<path fill="#87868A" d="M323.9,649c6.9,0,10.4,4.1,10.4,11.3v1.4h-6.7v-1.9c0-3.2-1.3-4.4-3.5-4.4s-3.5,1.2-3.5,4.4
					c0,3.3,1.4,5.7,6,9.7c5.9,5.2,7.7,8.9,7.7,14c0,7.2-3.6,11.3-10.5,11.3c-6.9,0-10.5-4.1-10.5-11.3v-2.8h6.7v3.2
					c0,3.2,1.4,4.4,3.6,4.4s3.6-1.2,3.6-4.4c0-3.3-1.4-5.7-6-9.7c-5.9-5.2-7.7-8.9-7.7-14C313.5,653.1,317.1,649,323.9,649z"/>
			</g>
			<g>
				<path fill="#87868A" d="M345.4,668.4h9.7v6.4h-9.7V688h12.2v6.4h-19.2v-44.8h19.2v6.4h-12.2V668.4z"/>
			</g>
			<g>
				<path fill="#87868A" d="M25.1,718.1h5.4v3.8h-5.4v11h-4.2v-26.6H32v3.8h-6.9V718.1z"/>
			</g>
			<g>
				<path fill="#87868A" d="M34,706.2h4.2v22.8h6.9v3.8H34V706.2z"/>
			</g>
			<g>
				<path fill="#87868A" d="M51.1,717.5h5.7v3.8h-5.7v7.8h7.2v3.8H46.9v-26.6h11.4v3.8h-7.2V717.5z"/>
			</g>
			<g>
				<path fill="#87868A" d="M74.8,706.2l-4.4,12.9l4.7,13.7h-4.4l-3.4-10.5h-0.1l-3.4,10.5h-3.9l4.7-13.7l-4.4-12.9h4.3l3.1,9.8h0.1
					l3.2-9.8H74.8z"/>
			</g>
			<g>
				<path fill="#87868A" d="M77.2,706.2h4.2v26.6h-4.2V706.2z"/>
			</g>
			<g>
				<path fill="#87868A" d="M97,712.4v1c0,2.7-0.8,4.5-2.7,5.3v0.1c2.2,0.9,3.1,2.9,3.1,5.7v2.2c0,4.1-2.2,6.3-6.4,6.3h-6.6v-26.6
					h6.3C95.1,706.2,97,708.2,97,712.4z M88.7,710v7h1.6c1.6,0,2.5-0.7,2.5-2.8v-1.5c0-1.9-0.6-2.7-2.1-2.7H88.7z M88.7,720.9v8.2
					h2.4c1.4,0,2.2-0.6,2.2-2.6v-2.3c0-2.5-0.8-3.2-2.7-3.2H88.7z"/>
			</g>
			<g>
				<path fill="#87868A" d="M99.9,706.2h4.2v22.8h6.9v3.8H99.9V706.2z"/>
			</g>
			<g>
				<path fill="#87868A" d="M117,717.5h5.7v3.8H117v7.8h7.2v3.8h-11.4v-26.6h11.4v3.8H117V717.5z"/>
			</g>
			<g>
				<path fill="#87868A" d="M136.9,717.5h5.7v3.8h-5.7v7.8h7.2v3.8h-11.4v-26.6h11.4v3.8h-7.2V717.5z"/>
			</g>
			<g>
				<path fill="#87868A" d="M146.7,706.2h4.2v22.8h6.9v3.8h-11.1V706.2z"/>
			</g>
			<g>
				<path fill="#87868A" d="M163.8,717.5h5.7v3.8h-5.7v7.8h7.2v3.8h-11.4v-26.6H171v3.8h-7.2V717.5z"/>
			</g>
			<g>
				<path fill="#87868A" d="M185.7,722.9v3.5c0,4.3-2.1,6.7-6.2,6.7s-6.2-2.4-6.2-6.7v-13.8c0-4.3,2.1-6.7,6.2-6.7s6.2,2.4,6.2,6.7
					v2.6h-4v-2.9c0-1.9-0.8-2.6-2.2-2.6c-1.3,0-2.2,0.7-2.2,2.6v14.4c0,1.9,0.8,2.6,2.2,2.6c1.3,0,2.2-0.7,2.2-2.6v-3.8H185.7z"/>
			</g>
			<g>
				<path fill="#87868A" d="M187.1,706.2H200v3.8h-4.4v22.8h-4.2V710h-4.4V706.2z"/>
			</g>
			<g>
				<path fill="#87868A" d="M210.6,732.9c-0.2-0.7-0.4-1.1-0.4-3.3v-4.2c0-2.5-0.8-3.4-2.7-3.4H206v10.8h-4.2v-26.6h6.3
					c4.3,0,6.2,2,6.2,6.1v2.1c0,2.7-0.9,4.5-2.7,5.4v0.1c2.1,0.9,2.8,2.9,2.8,5.6v4.1c0,1.3,0,2.2,0.5,3.2H210.6z M206,710v8.2h1.6
					c1.6,0,2.5-0.7,2.5-2.8v-2.6c0-1.9-0.6-2.7-2.1-2.7H206z"/>
			</g>
			<g>
				<path fill="#87868A" d="M216.8,712.6c0-4.3,2.2-6.7,6.4-6.7c4.1,0,6.4,2.4,6.4,6.7v13.8c0,4.3-2.2,6.7-6.4,6.7
					c-4.1,0-6.4-2.4-6.4-6.7V712.6z M221,726.7c0,1.9,0.8,2.6,2.2,2.6c1.3,0,2.2-0.7,2.2-2.6v-14.4c0-1.9-0.8-2.6-2.2-2.6
					c-1.3,0-2.2,0.7-2.2,2.6V726.7z"/>
			</g>
			<g>
				<path fill="#87868A" d="M236,713.6L236,713.6l-0.1,19.3h-3.8v-26.6h5.2l4.2,15.9h0.1v-15.9h3.7v26.6h-4.3L236,713.6z"/>
			</g>
			<g>
				<path fill="#87868A" d="M248.4,706.2h4.2v26.6h-4.2V706.2z"/>
			</g>
			<g>
				<path fill="#87868A" d="M267.8,722.9v3.5c0,4.3-2.1,6.7-6.2,6.7s-6.2-2.4-6.2-6.7v-13.8c0-4.3,2.1-6.7,6.2-6.7s6.2,2.4,6.2,6.7
					v2.6h-4v-2.9c0-1.9-0.8-2.6-2.2-2.6c-1.3,0-2.2,0.7-2.2,2.6v14.4c0,1.9,0.8,2.6,2.2,2.6c1.3,0,2.2-0.7,2.2-2.6v-3.8H267.8z"/>
			</g>
			<g>
				<path fill="#87868A" d="M276.2,706.2h6.6c4.2,0,6.2,2.3,6.2,6.6v13.5c0,4.3-2.1,6.6-6.2,6.6h-6.6V706.2z M280.4,710v19h2.4
					c1.3,0,2.1-0.7,2.1-2.6v-13.8c0-1.9-0.8-2.6-2.1-2.6H280.4z"/>
			</g>
			<g>
				<path fill="#87868A" d="M291.8,706.2h4.2v26.6h-4.2V706.2z"/>
			</g>
			<g>
				<path fill="#87868A" d="M304.6,705.9c4.1,0,6.2,2.4,6.2,6.7v0.8h-4v-1.1c0-1.9-0.8-2.6-2.1-2.6s-2.1,0.7-2.1,2.6
					c0,1.9,0.8,3.4,3.6,5.8c3.5,3.1,4.6,5.3,4.6,8.3c0,4.3-2.1,6.7-6.2,6.7c-4.1,0-6.2-2.4-6.2-6.7v-1.6h4v1.9
					c0,1.9,0.8,2.6,2.2,2.6c1.3,0,2.2-0.7,2.2-2.6c0-1.9-0.8-3.4-3.6-5.8c-3.5-3.1-4.6-5.3-4.6-8.3
					C298.5,708.4,300.6,705.9,304.6,705.9z"/>
			</g>
			<g>
				<path fill="#87868A" d="M325.6,712.8v3.5c0,4.3-2.1,6.6-6.2,6.6h-2v10h-4.2v-26.6h6.2C323.6,706.2,325.6,708.6,325.6,712.8z
					 M317.4,710v9h2c1.3,0,2.1-0.6,2.1-2.5v-4c0-1.9-0.7-2.5-2.1-2.5H317.4z"/>
			</g>
			<g>
				<path fill="#87868A" d="M327.6,706.2h4.2v22.8h6.9v3.8h-11.1V706.2z"/>
			</g>
			<g>
				<path fill="#87868A" d="M354,732.9h-4.2l-0.7-4.8h-5.1l-0.7,4.8h-3.8l4.3-26.6h6.1L354,732.9z M344.5,724.4h4l-2-13.5h-0.1
					L344.5,724.4z"/>
			</g>
			<g>
				<path fill="#87868A" d="M358,724l-5.3-17.8h4.4l3.2,12.1h0.1l3.2-12.1h4l-5.3,17.8v8.8H358V724z"/>
			</g>
			<g>
				<path fill="#87868A" d="M374.5,705.9c4.1,0,6.2,2.4,6.2,6.7v0.8h-4v-1.1c0-1.9-0.8-2.6-2.1-2.6s-2.1,0.7-2.1,2.6
					c0,1.9,0.8,3.4,3.6,5.8c3.5,3.1,4.6,5.3,4.6,8.3c0,4.3-2.1,6.7-6.2,6.7c-4.1,0-6.2-2.4-6.2-6.7v-1.6h4v1.9
					c0,1.9,0.8,2.6,2.2,2.6c1.3,0,2.2-0.7,2.2-2.6c0-1.9-0.8-3.4-3.6-5.8c-3.5-3.1-4.6-5.3-4.6-8.3
					C368.3,708.4,370.4,705.9,374.5,705.9z"/>
			</g>
		</g>
		<g>
			<g>
				<path fill="#87868A" d="M1243.3,673.7v6c0,7.2-3.6,11.3-10.5,11.3c-6.9,0-10.5-4.1-10.5-11.3v-23.3c0-7.2,3.6-11.3,10.5-11.3
					c6.9,0,10.5,4.1,10.5,11.3v4.4h-6.7v-4.8c0-3.2-1.4-4.4-3.6-4.4c-2.2,0-3.6,1.2-3.6,4.4v24.2c0,3.2,1.4,4.4,3.6,4.4
					c2.2,0,3.6-1.2,3.6-4.4v-6.4H1243.3z"/>
			</g>
			<g>
				<path fill="#87868A" d="M1270.4,690.4h-7.1l-1.2-8.1h-8.6l-1.2,8.1h-6.5l7.2-44.8h10.3L1270.4,690.4z M1254.3,676.2h6.8
					l-3.3-22.7h-0.1L1254.3,676.2z"/>
			</g>
			<g>
				<path fill="#87868A" d="M1288.4,690.4c-0.4-1.2-0.6-1.9-0.6-5.5v-7c0-4.2-1.4-5.7-4.6-5.7h-2.4v18.2h-7v-44.8h10.6
					c7.3,0,10.4,3.4,10.4,10.3v3.5c0,4.6-1.5,7.6-4.6,9v0.1c3.5,1.5,4.7,4.8,4.7,9.5v6.9c0,2.2,0.1,3.8,0.8,5.4H1288.4z M1280.7,652
					v13.8h2.8c2.6,0,4.2-1.2,4.2-4.7v-4.4c0-3.2-1.1-4.6-3.6-4.6H1280.7z"/>
			</g>
			<g>
				<path fill="#87868A" d="M1330.2,656.6v5.8c0,7.2-3.5,11.1-10.5,11.1h-3.3v16.8h-7v-44.8h10.4
					C1326.7,645.5,1330.2,649.5,1330.2,656.6z M1316.4,652v15.2h3.3c2.2,0,3.5-1,3.5-4.2v-6.7c0-3.2-1.2-4.2-3.5-4.2H1316.4z"/>
			</g>
			<g>
				<path fill="#87868A" d="M1355.4,690.4h-7.1l-1.2-8.1h-8.6l-1.2,8.1h-6.5l7.2-44.8h10.3L1355.4,690.4z M1339.3,676.2h6.8
					l-3.3-22.7h-0.1L1339.3,676.2z"/>
			</g>
			<g>
				<path fill="#87868A" d="M1373.4,690.4c-0.4-1.2-0.6-1.9-0.6-5.5v-7c0-4.2-1.4-5.7-4.6-5.7h-2.4v18.2h-7v-44.8h10.6
					c7.3,0,10.4,3.4,10.4,10.3v3.5c0,4.6-1.5,7.6-4.6,9v0.1c3.5,1.5,4.7,4.8,4.7,9.5v6.9c0,2.2,0.1,3.8,0.8,5.4H1373.4z M1365.7,652
					v13.8h2.8c2.6,0,4.2-1.2,4.2-4.7v-4.4c0-3.2-1.1-4.6-3.6-4.6H1365.7z"/>
			</g>
			<g>
				<path fill="#87868A" d="M1382.4,645.5h21.8v6.4h-7.4v38.4h-7V652h-7.4V645.5z"/>
			</g>
			<g>
				<path fill="#87868A" d="M1416.7,645c6.9,0,10.4,4.1,10.4,11.3v1.4h-6.7v-1.9c0-3.2-1.3-4.4-3.5-4.4c-2.2,0-3.5,1.2-3.5,4.4
					c0,3.3,1.4,5.7,6,9.7c5.9,5.2,7.7,8.9,7.7,14c0,7.2-3.6,11.3-10.5,11.3c-6.9,0-10.5-4.1-10.5-11.3v-2.8h6.7v3.2
					c0,3.2,1.4,4.4,3.6,4.4s3.6-1.2,3.6-4.4c0-3.3-1.4-5.7-6-9.7c-5.9-5.2-7.7-8.9-7.7-14C1406.3,649.1,1409.8,645,1416.7,645z"/>
			</g>
			<g>
				<path fill="#87868A" d="M1455.9,677.4h0.1l4.7-31.8h9.8v44.8h-6.7v-32.1h-0.1l-4.7,32.1h-6.7l-5.1-31.7h-0.1v31.7h-6.1v-44.8
					h9.8L1455.9,677.4z"/>
			</g>
			<g>
				<path fill="#87868A" d="M1498.5,690.4h-7.1l-1.2-8.1h-8.6l-1.2,8.1h-6.5l7.2-44.8h10.3L1498.5,690.4z M1482.4,676.2h6.8
					l-3.3-22.7h-0.1L1482.4,676.2z"/>
			</g>
			<g>
				<path fill="#87868A" d="M1501.8,645.5h11.1c7,0,10.5,3.9,10.5,11.1v22.7c0,7.2-3.5,11.1-10.5,11.1h-11.1V645.5z M1508.8,652v32
					h4c2.2,0,3.6-1.2,3.6-4.4v-23.3c0-3.2-1.3-4.4-3.6-4.4H1508.8z"/>
			</g>
			<g>
				<path fill="#87868A" d="M1534.9,664.4h9.7v6.4h-9.7V684h12.2v6.4h-19.2v-44.8h19.2v6.4h-12.2V664.4z"/>
			</g>
			<g>
				<path fill="#87868A" d="M1236,708.6c0-4.3,2.2-6.7,6.4-6.7c4.1,0,6.4,2.4,6.4,6.7v13.8c0,4.3-2.2,6.7-6.4,6.7
					c-4.1,0-6.4-2.4-6.4-6.7V708.6z M1240.2,722.7c0,1.9,0.8,2.6,2.2,2.6c1.3,0,2.2-0.7,2.2-2.6v-14.4c0-1.9-0.8-2.6-2.2-2.6
					c-1.3,0-2.2,0.7-2.2,2.6V722.7z"/>
			</g>
			<g>
				<path fill="#87868A" d="M1255.4,702.2v20.5c0,1.9,0.8,2.6,2.2,2.6s2.2-0.7,2.2-2.6v-20.5h4v20.3c0,4.3-2.1,6.7-6.2,6.7
					s-6.2-2.4-6.2-6.7v-20.3H1255.4z"/>
			</g>
			<g>
				<path fill="#87868A" d="M1265.3,702.2h12.9v3.8h-4.4v22.8h-4.2V706h-4.4V702.2z"/>
			</g>
			<g>
				<path fill="#87868A" d="M1285.6,708.6c0-4.3,2.2-6.7,6.4-6.7c4.1,0,6.4,2.4,6.4,6.7v13.8c0,4.3-2.2,6.7-6.4,6.7
					c-4.1,0-6.4-2.4-6.4-6.7V708.6z M1289.8,722.7c0,1.9,0.8,2.6,2.2,2.6c1.3,0,2.2-0.7,2.2-2.6v-14.4c0-1.9-0.8-2.6-2.2-2.6
					c-1.3,0-2.2,0.7-2.2,2.6V722.7z"/>
			</g>
			<g>
				<path fill="#87868A" d="M1305.2,714.1h5.4v3.8h-5.4v11h-4.2v-26.6h11.1v3.8h-6.9V714.1z"/>
			</g>
			<g>
				<path fill="#87868A" d="M1329.3,714.7L1329.3,714.7l-1.6,14.2h-5.7l-3-26.6h4.1l2.2,21h0.1l2-21h4l2.1,21.2h0.1l2.1-21.2h3.7
					l-3,26.6h-5.6L1329.3,714.7z"/>
			</g>
			<g>
				<path fill="#87868A" d="M1341.1,708.6c0-4.3,2.2-6.7,6.4-6.7c4.1,0,6.4,2.4,6.4,6.7v13.8c0,4.3-2.2,6.7-6.4,6.7
					c-4.1,0-6.4-2.4-6.4-6.7V708.6z M1345.3,722.7c0,1.9,0.8,2.6,2.2,2.6c1.3,0,2.2-0.7,2.2-2.6v-14.4c0-1.9-0.8-2.6-2.2-2.6
					c-1.3,0-2.2,0.7-2.2,2.6V722.7z"/>
			</g>
			<g>
				<path fill="#87868A" d="M1356.1,708.6c0-4.3,2.2-6.7,6.4-6.7c4.1,0,6.4,2.4,6.4,6.7v13.8c0,4.3-2.2,6.7-6.4,6.7
					c-4.1,0-6.4-2.4-6.4-6.7V708.6z M1360.3,722.7c0,1.9,0.8,2.6,2.2,2.6c1.3,0,2.2-0.7,2.2-2.6v-14.4c0-1.9-0.8-2.6-2.2-2.6
					c-1.3,0-2.2,0.7-2.2,2.6V722.7z"/>
			</g>
			<g>
				<path fill="#87868A" d="M1371.6,702.2h6.6c4.2,0,6.2,2.3,6.2,6.6v13.5c0,4.3-2.1,6.6-6.2,6.6h-6.6V702.2z M1375.7,706v19h2.4
					c1.3,0,2.1-0.7,2.1-2.6v-13.8c0-1.9-0.8-2.6-2.1-2.6H1375.7z"/>
			</g>
			<g>
				<path fill="#87868A" d="M1405.1,718.9v3.5c0,4.3-2.1,6.7-6.2,6.7s-6.2-2.4-6.2-6.7v-13.8c0-4.3,2.1-6.7,6.2-6.7s6.2,2.4,6.2,6.7
					v2.6h-4v-2.9c0-1.9-0.8-2.6-2.2-2.6c-1.3,0-2.2,0.7-2.2,2.6v14.4c0,1.9,0.8,2.6,2.2,2.6c1.3,0,2.2-0.7,2.2-2.6v-3.8H1405.1z"/>
			</g>
			<g>
				<path fill="#87868A" d="M1407.3,708.6c0-4.3,2.2-6.7,6.4-6.7c4.1,0,6.4,2.4,6.4,6.7v13.8c0,4.3-2.2,6.7-6.4,6.7
					c-4.1,0-6.4-2.4-6.4-6.7V708.6z M1411.5,722.7c0,1.9,0.8,2.6,2.2,2.6c1.3,0,2.2-0.7,2.2-2.6v-14.4c0-1.9-0.8-2.6-2.2-2.6
					c-1.3,0-2.2,0.7-2.2,2.6V722.7z"/>
			</g>
			<g>
				<path fill="#87868A" d="M1431.5,721.1L1431.5,721.1l2.9-18.9h5.8v26.6h-4v-19.1h-0.1l-2.8,19.1h-4l-3-18.8h-0.1v18.8h-3.7v-26.6
					h5.8L1431.5,721.1z"/>
			</g>
			<g>
				<path fill="#87868A" d="M1455.7,708.8v3.5c0,4.3-2.1,6.6-6.2,6.6h-2v10h-4.2v-26.6h6.2C1453.6,702.2,1455.7,704.6,1455.7,708.8z
					 M1447.5,706v9h2c1.3,0,2.1-0.6,2.1-2.5v-4c0-1.9-0.7-2.5-2.1-2.5H1447.5z"/>
			</g>
			<g>
				<path fill="#87868A" d="M1457.3,708.6c0-4.3,2.2-6.7,6.4-6.7c4.1,0,6.4,2.4,6.4,6.7v13.8c0,4.3-2.2,6.7-6.4,6.7
					c-4.1,0-6.4-2.4-6.4-6.7V708.6z M1461.5,722.7c0,1.9,0.8,2.6,2.2,2.6c1.3,0,2.2-0.7,2.2-2.6v-14.4c0-1.9-0.8-2.6-2.2-2.6
					c-1.3,0-2.2,0.7-2.2,2.6V722.7z"/>
			</g>
			<g>
				<path fill="#87868A" d="M1478.3,701.9c4.1,0,6.2,2.4,6.2,6.7v0.8h-4v-1.1c0-1.9-0.8-2.6-2.1-2.6s-2.1,0.7-2.1,2.6
					c0,1.9,0.8,3.4,3.6,5.8c3.5,3.1,4.6,5.3,4.6,8.3c0,4.3-2.1,6.7-6.2,6.7c-4.1,0-6.2-2.4-6.2-6.7v-1.6h4v1.9
					c0,1.9,0.8,2.6,2.2,2.6c1.3,0,2.2-0.7,2.2-2.6c0-1.9-0.8-3.4-3.6-5.8c-3.5-3.1-4.6-5.3-4.6-8.3
					C1472.2,704.4,1474.3,701.9,1478.3,701.9z"/>
			</g>
			<g>
				<path fill="#87868A" d="M1486.9,702.2h4.2v26.6h-4.2V702.2z"/>
			</g>
			<g>
				<path fill="#87868A" d="M1492.9,702.2h12.9v3.8h-4.4v22.8h-4.2V706h-4.4V702.2z"/>
			</g>
			<g>
				<path fill="#87868A" d="M1511.9,713.5h5.7v3.8h-5.7v7.8h7.2v3.8h-11.4v-26.6h11.4v3.8h-7.2V713.5z"/>
			</g>
			<g>
				<path fill="#87868A" d="M1527.3,701.9c4.1,0,6.2,2.4,6.2,6.7v0.8h-4v-1.1c0-1.9-0.8-2.6-2.1-2.6s-2.1,0.7-2.1,2.6
					c0,1.9,0.8,3.4,3.6,5.8c3.5,3.1,4.6,5.3,4.6,8.3c0,4.3-2.1,6.7-6.2,6.7c-4.1,0-6.2-2.4-6.2-6.7v-1.6h4v1.9
					c0,1.9,0.8,2.6,2.2,2.6c1.3,0,2.2-0.7,2.2-2.6c0-1.9-0.8-3.4-3.6-5.8c-3.5-3.1-4.6-5.3-4.6-8.3
					C1521.2,704.4,1523.3,701.9,1527.3,701.9z"/>
			</g>
		</g>
		<g>
			<g>
				<path fill="#87868A" d="M1249.5,297.8v1.6c0,4.6-1.4,7.5-4.5,9v0.1c3.8,1.5,5.3,4.8,5.3,9.5v3.6c0,6.9-3.6,10.6-10.7,10.6h-11.1
					v-44.8h10.6C1246.3,287.5,1249.5,290.9,1249.5,297.8z M1235.4,293.9v11.8h2.8c2.6,0,4.2-1.2,4.2-4.7v-2.5c0-3.2-1.1-4.6-3.6-4.6
					H1235.4z M1235.4,312.2V326h4c2.4,0,3.6-1.1,3.6-4.4v-3.9c0-4.2-1.3-5.4-4.5-5.4H1235.4z"/>
			</g>
			<g>
				<path fill="#87868A" d="M1254.4,287.5h7v44.8h-7V287.5z"/>
			</g>
			<g>
				<path fill="#87868A" d="M1266,298.3c0-7.2,3.8-11.3,10.7-11.3c6.9,0,10.7,4.1,10.7,11.3v23.3c0,7.2-3.8,11.3-10.7,11.3
					c-6.9,0-10.7-4.1-10.7-11.3V298.3z M1273,322.1c0,3.2,1.4,4.4,3.6,4.4c2.2,0,3.6-1.2,3.6-4.4v-24.2c0-3.2-1.4-4.4-3.6-4.4
					c-2.2,0-3.6,1.2-3.6,4.4V322.1z"/>
			</g>
			<g>
				<path fill="#87868A" d="M1291.9,287.5h11.1c7,0,10.5,3.9,10.5,11.1v22.7c0,7.2-3.5,11.1-10.5,11.1h-11.1V287.5z M1298.9,293.9
					v32h4c2.2,0,3.6-1.2,3.6-4.4v-23.3c0-3.2-1.3-4.4-3.6-4.4H1298.9z"/>
			</g>
			<g>
				<path fill="#87868A" d="M1325.1,306.4h9.7v6.4h-9.7V326h12.2v6.4H1318v-44.8h19.2v6.4h-12.2V306.4z"/>
			</g>
			<g>
				<path fill="#87868A" d="M1352.1,307.4h9.9v14.2c0,7.2-3.6,11.3-10.5,11.3c-6.9,0-10.5-4.1-10.5-11.3v-23.3
					c0-7.2,3.6-11.3,10.5-11.3c6.9,0,10.5,4.1,10.5,11.3v4.4h-6.7v-4.8c0-3.2-1.4-4.4-3.6-4.4c-2.2,0-3.6,1.2-3.6,4.4v24.2
					c0,3.2,1.4,4.4,3.6,4.4c2.2,0,3.6-1.2,3.6-4.4v-8.3h-3.2V307.4z"/>
			</g>
			<g>
				<path fill="#87868A" d="M1381.3,332.4c-0.4-1.2-0.6-1.9-0.6-5.5v-7c0-4.2-1.4-5.7-4.6-5.7h-2.4v18.2h-7v-44.8h10.6
					c7.3,0,10.4,3.4,10.4,10.3v3.5c0,4.6-1.5,7.6-4.6,9v0.1c3.5,1.5,4.7,4.8,4.7,9.5v6.9c0,2.2,0.1,3.8,0.8,5.4H1381.3z
					 M1373.6,293.9v13.8h2.8c2.6,0,4.2-1.2,4.2-4.7v-4.4c0-3.2-1.1-4.6-3.6-4.6H1373.6z"/>
			</g>
			<g>
				<path fill="#87868A" d="M1415.1,332.4h-7.1l-1.2-8.1h-8.6l-1.2,8.1h-6.5l7.2-44.8h10.3L1415.1,332.4z M1399,318.1h6.8l-3.3-22.7
					h-0.1L1399,318.1z"/>
			</g>
			<g>
				<path fill="#87868A" d="M1418.3,287.5h11.1c7,0,10.5,3.9,10.5,11.1v22.7c0,7.2-3.5,11.1-10.5,11.1h-11.1V287.5z M1425.4,293.9
					v32h4c2.2,0,3.6-1.2,3.6-4.4v-23.3c0-3.2-1.3-4.4-3.6-4.4H1425.4z"/>
			</g>
			<g>
				<path fill="#87868A" d="M1467.2,332.4h-7.1l-1.2-8.1h-8.6l-1.2,8.1h-6.5l7.2-44.8h10.3L1467.2,332.4z M1451.1,318.1h6.8
					l-3.3-22.7h-0.1L1451.1,318.1z"/>
			</g>
			<g>
				<path fill="#87868A" d="M1491.5,297.8v1.6c0,4.6-1.4,7.5-4.5,9v0.1c3.8,1.5,5.3,4.8,5.3,9.5v3.6c0,6.9-3.6,10.6-10.7,10.6h-11.1
					v-44.8h10.6C1488.4,287.5,1491.5,290.9,1491.5,297.8z M1477.5,293.9v11.8h2.8c2.6,0,4.2-1.2,4.2-4.7v-2.5c0-3.2-1.1-4.6-3.6-4.6
					H1477.5z M1477.5,312.2V326h4c2.4,0,3.6-1.1,3.6-4.4v-3.9c0-4.2-1.3-5.4-4.5-5.4H1477.5z"/>
			</g>
			<g>
				<path fill="#87868A" d="M1496.5,287.5h7V326h11.6v6.4h-18.6V287.5z"/>
			</g>
			<g>
				<path fill="#87868A" d="M1525.2,306.4h9.7v6.4h-9.7V326h12.2v6.4h-19.2v-44.8h19.2v6.4h-12.2V306.4z"/>
			</g>
			<g>
				<path fill="#87868A" d="M1265.7,350.8v3.5c0,4.3-2.1,6.6-6.2,6.6h-2v10h-4.2v-26.6h6.2C1263.6,344.2,1265.7,346.6,1265.7,350.8z
					 M1257.4,348v9h2c1.3,0,2.1-0.6,2.1-2.5v-4c0-1.9-0.7-2.5-2.1-2.5H1257.4z"/>
			</g>
			<g>
				<path fill="#87868A" d="M1280.7,370.9h-4.2l-0.7-4.8h-5.1l-0.7,4.8h-3.8l4.3-26.6h6.1L1280.7,370.9z M1271.1,362.4h4l-2-13.5
					h-0.1L1271.1,362.4z"/>
			</g>
			<g>
				<path fill="#87868A" d="M1294.7,360.9v3.5c0,4.3-2.1,6.7-6.2,6.7s-6.2-2.4-6.2-6.7v-13.8c0-4.3,2.1-6.7,6.2-6.7s6.2,2.4,6.2,6.7
					v2.6h-4v-2.9c0-1.9-0.8-2.6-2.2-2.6c-1.3,0-2.2,0.7-2.2,2.6v14.4c0,1.9,0.8,2.6,2.2,2.6c1.3,0,2.2-0.7,2.2-2.6v-3.8H1294.7z"/>
			</g>
			<g>
				<path fill="#87868A" d="M1302.7,360.2l-1.3,2.4v8.2h-4.2v-26.6h4.2v11.5h0.1l5.4-11.5h4.2l-5.8,11.9l5.8,14.8h-4.3L1302.7,360.2
					z"/>
			</g>
			<g>
				<path fill="#87868A" d="M1326.5,370.9h-4.2l-0.7-4.8h-5.1l-0.7,4.8h-3.8l4.3-26.6h6.1L1326.5,370.9z M1317,362.4h4l-2-13.5h-0.1
					L1317,362.4z"/>
			</g>
			<g>
				<path fill="#87868A" d="M1334.7,356h5.9v8.4c0,4.3-2.1,6.7-6.2,6.7s-6.2-2.4-6.2-6.7v-13.8c0-4.3,2.1-6.7,6.2-6.7
					s6.2,2.4,6.2,6.7v2.6h-4v-2.9c0-1.9-0.8-2.6-2.2-2.6c-1.3,0-2.2,0.7-2.2,2.6v14.4c0,1.9,0.8,2.6,2.2,2.6c1.3,0,2.2-0.7,2.2-2.6
					v-4.9h-1.9V356z"/>
			</g>
			<g>
				<path fill="#87868A" d="M1343.3,344.2h4.2v26.6h-4.2V344.2z"/>
			</g>
			<g>
				<path fill="#87868A" d="M1354.3,351.6L1354.3,351.6l-0.1,19.3h-3.8v-26.6h5.2l4.2,15.9h0.1v-15.9h3.7v26.6h-4.3L1354.3,351.6z"
					/>
			</g>
			<g>
				<path fill="#87868A" d="M1373,356h5.9v8.4c0,4.3-2.1,6.7-6.2,6.7s-6.2-2.4-6.2-6.7v-13.8c0-4.3,2.1-6.7,6.2-6.7s6.2,2.4,6.2,6.7
					v2.6h-4v-2.9c0-1.9-0.8-2.6-2.2-2.6c-1.3,0-2.2,0.7-2.2,2.6v14.4c0,1.9,0.8,2.6,2.2,2.6c1.3,0,2.2-0.7,2.2-2.6v-4.9h-1.9V356z"
					/>
			</g>
			<g>
				<path fill="#87868A" d="M1396.3,363.1L1396.3,363.1l2.9-18.9h5.8v26.6h-4v-19.1h-0.1l-2.8,19.1h-4l-3-18.8h-0.1v18.8h-3.7v-26.6
					h5.8L1396.3,363.1z"/>
			</g>
			<g>
				<path fill="#87868A" d="M1421.6,370.9h-4.2l-0.7-4.8h-5.1l-0.7,4.8h-3.8l4.3-26.6h6.1L1421.6,370.9z M1412.1,362.4h4l-2-13.5
					h-0.1L1412.1,362.4z"/>
			</g>
			<g>
				<path fill="#87868A" d="M1420.9,344.2h12.9v3.8h-4.4v22.8h-4.2V348h-4.4V344.2z"/>
			</g>
			<g>
				<path fill="#87868A" d="M1439.8,355.5h5.7v3.8h-5.7v7.8h7.2v3.8h-11.4v-26.6h11.4v3.8h-7.2V355.5z"/>
			</g>
			<g>
				<path fill="#87868A" d="M1458.4,370.9c-0.2-0.7-0.4-1.1-0.4-3.3v-4.2c0-2.5-0.8-3.4-2.7-3.4h-1.4v10.8h-4.2v-26.6h6.3
					c4.3,0,6.2,2,6.2,6.1v2.1c0,2.7-0.9,4.5-2.7,5.4v0.1c2.1,0.9,2.8,2.9,2.8,5.6v4.1c0,1.3,0,2.2,0.5,3.2H1458.4z M1453.8,348v8.2
					h1.6c1.6,0,2.5-0.7,2.5-2.8v-2.6c0-1.9-0.6-2.7-2.1-2.7H1453.8z"/>
			</g>
			<g>
				<path fill="#87868A" d="M1464.9,344.2h4.2v26.6h-4.2V344.2z"/>
			</g>
			<g>
				<path fill="#87868A" d="M1485.7,370.9h-4.2l-0.7-4.8h-5.1l-0.7,4.8h-3.8l4.3-26.6h6.1L1485.7,370.9z M1476.2,362.4h4l-2-13.5
					h-0.1L1476.2,362.4z"/>
			</g>
			<g>
				<path fill="#87868A" d="M1487.6,344.2h4.2v22.8h6.9v3.8h-11.1V344.2z"/>
			</g>
			<g>
				<path fill="#87868A" d="M1506.2,343.9c4.1,0,6.2,2.4,6.2,6.7v0.8h-4v-1.1c0-1.9-0.8-2.6-2.1-2.6s-2.1,0.7-2.1,2.6
					c0,1.9,0.8,3.4,3.6,5.8c3.5,3.1,4.6,5.3,4.6,8.3c0,4.3-2.1,6.7-6.2,6.7c-4.1,0-6.2-2.4-6.2-6.7v-1.6h4v1.9
					c0,1.9,0.8,2.6,2.2,2.6c1.3,0,2.2-0.7,2.2-2.6c0-1.9-0.8-3.4-3.6-5.8c-3.5-3.1-4.6-5.3-4.6-8.3
					C1500,346.4,1502.1,343.9,1506.2,343.9z"/>
			</g>
		</g>
		<g>
			<g>
				<path fill="#51A332" d="M572.1,403.2c-0.2,0-0.5,0-0.7-0.1l-187-40c-1.5-0.3-2.7-1.7-2.7-3.3v-132c0-1.9,1.5-3.4,3.4-3.4
					s3.4,1.5,3.4,3.4v129.3l184.3,39.4c1.8,0.4,3,2.2,2.6,4C575.1,402.1,573.7,403.2,572.1,403.2z"/>
			</g>
			<g>
				<path fill="#51A332" d="M385.1,231.2H276c-1.9,0-3.4-1.5-3.4-3.4s1.5-3.4,3.4-3.4h109.1c1.9,0,3.4,1.5,3.4,3.4
					S387,231.2,385.1,231.2z"/>
			</g>
		</g>
		<g>
			<g>
				<g>
					<path fill="#51A332" d="M258.6,111.3c0.9,0.6,2.2,0.2,2.7-0.7l2-3.4c0.6-0.9,0.2-2.2-0.7-2.7c-0.9-0.6-2.2-0.2-2.7,0.7l-2,3.4
						C257.3,109.5,257.6,110.7,258.6,111.3L258.6,111.3z M258.6,111.3"/>
				</g>
				<g>
					<path fill="#51A332" d="M231.4,157.4c0.9,0.6,2.2,0.2,2.7-0.7l2-3.4c0.6-0.9,0.2-2.2-0.7-2.7c-0.9-0.6-2.2-0.3-2.7,0.7l-2,3.4
						C230.1,155.6,230.4,156.8,231.4,157.4L231.4,157.4z M231.4,157.4"/>
				</g>
				<g>
					<path fill="#51A332" d="M249.5,126.6c0.9,0.6,2.2,0.3,2.7-0.7l2-3.4c0.6-0.9,0.2-2.2-0.7-2.7c-0.9-0.6-2.2-0.2-2.7,0.7l-2,3.4
						C248.2,124.9,248.6,126.1,249.5,126.6L249.5,126.6z M249.5,126.6"/>
				</g>
				<g>
					<path fill="#51A332" d="M222.3,172.7c0.9,0.6,2.2,0.2,2.7-0.7l2-3.4c0.6-0.9,0.2-2.2-0.7-2.7c-0.9-0.6-2.2-0.2-2.7,0.7l-2,3.4
						C221,171,221.3,172.2,222.3,172.7L222.3,172.7z M222.3,172.7"/>
				</g>
				<g>
					<path fill="#51A332" d="M213.2,188.1c0.9,0.6,2.2,0.2,2.7-0.7l2-3.4c0.6-0.9,0.2-2.2-0.7-2.7c-0.9-0.6-2.2-0.2-2.7,0.7l-2,3.4
						C212,186.3,212.3,187.6,213.2,188.1L213.2,188.1z M213.2,188.1"/>
				</g>
				<g>
					<path fill="#51A332" d="M240.4,142c0.9,0.6,2.2,0.2,2.7-0.7l2-3.4c0.6-0.9,0.2-2.2-0.7-2.7c-0.9-0.6-2.2-0.2-2.7,0.7l-2,3.4
						C239.2,140.2,239.5,141.5,240.4,142L240.4,142z M240.4,142"/>
				</g>
				<g>
					<path fill="#51A332" d="M306.9,119.1l-78.6-46.4c-0.9-0.6-2.2-0.2-2.7,0.7l-58.5,99c-0.6,0.9-0.2,2.2,0.7,2.7l78.6,46.4
						c0.9,0.6,2.2,0.2,2.7-0.7l58.5-99C308.2,120.9,307.9,119.6,306.9,119.1L306.9,119.1z M246.8,217.1l-75.1-44.3l56.4-95.6
						l75.1,44.3L246.8,217.1z M246.8,217.1"/>
				</g>
				<g>
					<path fill="#51A332" d="M227.9,104.7l10.3,6.1c4.6,2.7,10.6,1.2,13.4-3.4c1.4-2.2,1.8-4.9,1.1-7.6c-0.7-2.6-2.2-4.8-4.5-6.2
						l-10.3-6.1c-4.6-2.7-10.6-1.2-13.4,3.4c-1.4,2.2-1.7,4.9-1.1,7.5C224.1,101.1,225.7,103.3,227.9,104.7L227.9,104.7z
						 M248.9,100.8c0.4,1.6,0.2,3.2-0.6,4.5c-1.7,2.8-5.2,3.7-8,2c0,0,0,0-0.1,0l-3.4-2l6-10.2l3.4,2
						C247.6,97.9,248.5,99.2,248.9,100.8L248.9,100.8z M235.9,91l3.5,2l-6,10.2l-3.4-2c-1.3-0.8-2.3-2.1-2.7-3.7
						c-0.4-1.6-0.2-3.2,0.6-4.5C229.6,90.3,233.2,89.4,235.9,91L235.9,91z M235.9,91"/>
				</g>
				<g>
					<path fill="#51A332" d="M213.8,128.6l10.3,6.1c4.6,2.7,10.6,1.2,13.4-3.4c1.4-2.2,1.7-4.9,1.1-7.6c-0.7-2.6-2.2-4.8-4.5-6.2
						l-10.2-6c-4.7-2.7-10.7-1.3-13.5,3.4c-1.4,2.2-1.7,4.9-1.1,7.5C209.9,125,211.5,127.2,213.8,128.6L213.8,128.6z M234.8,124.7
						c0.4,1.6,0.2,3.2-0.6,4.5c-1.7,2.8-5.2,3.7-8,2l-3.5-2.1l6-10.2l3.4,2C233.4,121.8,234.4,123.1,234.8,124.7L234.8,124.7z
						 M221.8,114.9l3.5,2l-6,10.2l-3.4-2c-1.3-0.8-2.3-2.1-2.7-3.7c-0.4-1.6-0.2-3.2,0.6-4.5C215.4,114.2,219,113.3,221.8,114.9
						L221.8,114.9z M221.8,114.9"/>
				</g>
				<g>
					<path fill="#51A332" d="M199.7,152.5l10.3,6.1c4.6,2.7,10.6,1.2,13.4-3.4c1.4-2.2,1.7-4.9,1.1-7.5c-0.6-2.6-2.2-4.8-4.5-6.2
						l-10.3-6.1c-4.6-2.7-10.6-1.2-13.4,3.4c-1.4,2.3-1.7,4.9-1.1,7.6C195.8,149,197.4,151.1,199.7,152.5L199.7,152.5z M220.7,148.6
						c0.4,1.6,0.2,3.2-0.6,4.5c-1.7,2.8-5.2,3.7-8,2c0,0,0,0-0.1,0l-3.4-2l6-10.2l3.4,2C219.3,145.7,220.3,147,220.7,148.6
						L220.7,148.6z M207.7,138.8l3.5,2l-6,10.2l-3.4-2c-1.3-0.8-2.3-2.1-2.7-3.7c-0.4-1.6-0.2-3.2,0.6-4.5
						C201.3,138.1,204.9,137.2,207.7,138.8L207.7,138.8z M207.7,138.8"/>
				</g>
				<g>
					<path fill="#51A332" d="M185.6,176.4l10.3,6.1c4.6,2.7,10.6,1.2,13.4-3.4c1.4-2.2,1.7-4.9,1.1-7.5c-0.6-2.6-2.2-4.8-4.5-6.2
						l-10.2-6c-4.7-2.7-10.7-1.3-13.5,3.3c-1.4,2.2-1.7,4.9-1.1,7.6C181.7,172.9,183.3,175.1,185.6,176.4L185.6,176.4z M206.6,172.5
						c0.4,1.6,0.2,3.2-0.6,4.5c-1.7,2.8-5.2,3.7-8,2l-3.5-2.1l6-10.2l3.4,2C205.2,169.6,206.2,170.9,206.6,172.5L206.6,172.5z
						 M193.6,162.7l3.5,2l-6,10.2l-3.4-2c-1.3-0.8-2.3-2.1-2.7-3.7c-0.4-1.6-0.2-3.2,0.6-4.5C187.2,162,190.8,161.1,193.6,162.7
						L193.6,162.7z M193.6,162.7"/>
				</g>
				<g>
					<path fill="#51A332" d="M268.9,128.9l10.3,6.1c4.6,2.7,10.6,1.2,13.4-3.4c1.4-2.2,1.8-4.9,1.1-7.6c-0.7-2.6-2.2-4.8-4.5-6.2
						l-10.3-6.1c-4.6-2.7-10.6-1.2-13.4,3.4c-1.3,2.2-1.7,4.9-1.1,7.5C265,125.3,266.6,127.5,268.9,128.9L268.9,128.9z M289.9,125
						c0.4,1.6,0.2,3.2-0.6,4.5c-1.7,2.8-5.3,3.7-8,2c0,0,0,0-0.1,0l-3.4-2l6-10.2l3.4,2C288.5,122.1,289.5,123.4,289.9,125
						L289.9,125z M276.9,115.2l3.5,2l-6,10.2l-3.4-2c-1.3-0.8-2.3-2.1-2.7-3.7c-0.4-1.6-0.2-3.2,0.6-4.5
						C270.5,114.5,274.1,113.5,276.9,115.2L276.9,115.2z M276.9,115.2"/>
				</g>
				<g>
					<path fill="#51A332" d="M254.8,152.8l10.3,6.1c4.6,2.7,10.6,1.2,13.4-3.4c1.4-2.2,1.7-4.9,1.1-7.6c-0.7-2.6-2.2-4.8-4.5-6.2
						l-10.2-6c-4.7-2.8-10.7-1.3-13.5,3.4c-1.3,2.3-1.7,4.9-1.1,7.5C250.9,149.2,252.5,151.4,254.8,152.8L254.8,152.8z M275.8,148.9
						c0.4,1.6,0.2,3.2-0.6,4.5c-1.7,2.8-5.3,3.7-8,2l-3.5-2.1l6-10.2l3.4,2C274.4,146,275.4,147.3,275.8,148.9L275.8,148.9z
						 M262.8,139.1l3.5,2l-6,10.2l-3.4-2c-1.3-0.8-2.3-2.1-2.7-3.7c-0.4-1.6-0.2-3.2,0.6-4.5C256.4,138.4,260,137.5,262.8,139.1
						L262.8,139.1z M262.8,139.1"/>
				</g>
				<g>
					<path fill="#51A332" d="M240.7,176.7l10.3,6.1c4.6,2.7,10.6,1.2,13.4-3.4c1.4-2.2,1.7-4.9,1.1-7.5c-0.6-2.6-2.2-4.8-4.5-6.2
						l-10.3-6.1c-4.6-2.7-10.6-1.2-13.4,3.4c-1.4,2.2-1.7,4.9-1.1,7.5C236.8,173.1,238.4,175.3,240.7,176.7L240.7,176.7z
						 M261.7,172.8c0.4,1.6,0.2,3.2-0.6,4.5c-1.7,2.8-5.3,3.7-8,2c0,0,0,0-0.1,0l-3.4-2l6-10.2l3.4,2
						C260.3,169.9,261.3,171.2,261.7,172.8L261.7,172.8z M248.7,163l3.5,2l-6,10.2l-3.4-2c-1.3-0.8-2.3-2.1-2.7-3.7
						c-0.4-1.6-0.2-3.2,0.6-4.5C242.3,162.3,245.9,161.4,248.7,163L248.7,163z M248.7,163"/>
				</g>
				<g>
					<path fill="#51A332" d="M226.6,200.6l10.3,6.1c4.6,2.7,10.6,1.2,13.4-3.4c1.4-2.2,1.7-4.9,1.1-7.5c-0.6-2.6-2.2-4.8-4.5-6.2
						l-10.2-6c-4.7-2.8-10.7-1.3-13.5,3.3c-1.3,2.3-1.7,4.9-1.1,7.6C222.7,197.1,224.3,199.2,226.6,200.6L226.6,200.6z M247.6,196.7
						c0.4,1.6,0.2,3.2-0.6,4.5c-1.7,2.8-5.3,3.7-8,2l-3.5-2.1l6-10.2l3.4,2C246.2,193.8,247.2,195.1,247.6,196.7L247.6,196.7z
						 M234.6,186.9l3.5,2l-6,10.2l-3.4-2c-1.3-0.8-2.3-2.1-2.7-3.7c-0.4-1.6-0.2-3.2,0.6-4.5C228.2,186.2,231.8,185.3,234.6,186.9
						L234.6,186.9z M234.6,186.9"/>
				</g>
			</g>
			<g>
				<g>
					<g>
						<path fill="#51A332" d="M225.3,114.2h-62.4c-6,0-10.9,4.9-10.9,10.9V252c0,6,4.9,10.9,10.9,10.9h62.4c6,0,10.9-4.9,10.9-10.9
							V125.1C236.2,119.1,231.3,114.2,225.3,114.2L225.3,114.2z M225.3,258h-62.4c-3.3,0-6-2.7-6-6v-18.8h74.4V252
							C231.3,255.3,228.6,258,225.3,258L225.3,258z M225.3,258"/>
					</g>
					<g>
						<path fill="#51A332" d="M194.1,235.7c-5.5,0-9.9,4.5-9.9,9.9c0,5.5,4.4,9.9,9.9,9.9c5.5,0,9.9-4.5,9.9-9.9
							C204,240.1,199.6,235.7,194.1,235.7L194.1,235.7z M194.1,250.6c-2.7,0-5-2.2-5-5c0-2.7,2.2-4.9,5-4.9c2.7,0,5,2.2,5,4.9
							C199.1,248.3,196.8,250.6,194.1,250.6L194.1,250.6z M194.1,250.6"/>
					</g>
				</g>
				<g>
					<path fill="#FFFFFF" d="M162.9,119.2h62.4c3.3,0,6,2.7,6,6v4h-74.4v-4C156.9,121.9,159.6,119.2,162.9,119.2L162.9,119.2z"/>
				</g>
				<g>
					<rect x="156.9" y="134.1" fill="#FFFFFF" width="74.4" height="94.2"/>
				</g>
			</g>
		</g>
		<g>
			<path fill="#51A332" d="M751.1,657.2h-328c-0.9,0-1.8-0.4-2.5-1.1l-60-64c-1.3-1.4-1.2-3.5,0.2-4.7c1.4-1.3,3.5-1.2,4.7,0.2
				l59,62.9h326.5c1.9,0,3.4,1.5,3.4,3.4S753,657.2,751.1,657.2z"/>
		</g>
		<g>
			<path fill="#51A332" d="M1137.2,720.2h-330c-1.9,0-3.4-1.5-3.4-3.4s1.5-3.4,3.4-3.4h328.5l59-62.9c1.3-1.4,3.4-1.4,4.7-0.2
				c1.4,1.3,1.4,3.4,0.2,4.7l-60,64C1139,719.8,1138.1,720.2,1137.2,720.2z"/>
		</g>
		<g>
			<g>
				<path fill="#51A332" d="M401.1,633c0.4,1.1,1.6,1.8,2.7,1.4l5.3-1.7c9.3-3,14.5-13.1,11.5-22.4l-5.3-16.4l2.5-4.9
					c12-23.5,2.7-52.5-20.8-64.5l-5.7-2.9c-0.5-0.3-1.1-0.3-1.7-0.1c-0.6,0.2-1,0.6-1.3,1.1l-2.9,5.7c-12,23.5-2.7,52.5,20.8,64.5
					l4.9,2.5l5.3,16.4c2.3,7-1.6,14.6-8.6,16.9l-5.3,1.7C401.3,630.6,400.7,631.9,401.1,633z M385.3,558.3l16,6.3l8,24.7l-1-0.5
					C395.8,582.5,387.7,571,385.3,558.3z M389.3,530.2l0.5-1l9.7,30.1l-14.9-5.9C384,545.6,385.5,537.6,389.3,530.2z M406.2,536.5
					l-6.2,10l-6-18.7l1,0.5C399.3,530.5,403,533.3,406.2,536.5z M417.3,556.1l-9.6,14.3l-5.9-18.4l7.4-12.1
					C413,544.7,415.8,550.2,417.3,556.1z M413.9,587l-0.5,1l-4-12.4l9-13.4C419.4,570.5,418,579,413.9,587z"/>
			</g>
		</g>
		<g>
			<path fill="#51A332" d="M280.4,616.2H107.1c-1.7,0-3-1.3-3-3v-114c0-1.7,1.3-3,3-3h144.8c1.8-8.1,7.6-20,19.8-20
				c13.8,0,18.5,14.3,19,21.8c0,0.1,0,0.1,0,0.2v91c0,20.4-7.8,26-8.7,26.5C281.6,616,281,616.2,280.4,616.2z M110.1,610.2h169.2
				c1.5-1.6,5.5-7.1,5.5-21v-90.9c-0.1-1.4-1.7-16.1-13-16.1c-11.8,0-14.3,17.2-14.4,17.4c-0.2,1.5-1.5,2.6-3,2.6H110.1V610.2z"/>
		</g>
		<g>
			<path fill="#51A332" d="M254.4,594c-0.2,0-0.3,0-0.5,0c-1.3-0.2-2.3-1.4-2.3-2.8v-93.3c0-1.5,1.3-2.8,2.8-2.8s2.8,1.3,2.8,2.8
				v83.1c3.2-3.8,7.8-7.2,14.1-7.2c5.7,0,10.7,2.6,14.5,7.4c2.8,3.5,3.9,7.1,4,7.2c0.5,1.5-0.3,3.1-1.8,3.5
				c-1.5,0.5-3.1-0.3-3.5-1.8c-0.1-0.4-3.6-10.7-13.1-10.7c-9.6,0-14.2,12.7-14.3,12.8C256.7,593.2,255.6,594,254.4,594z"/>
		</g>
		<g>
			<path fill="#51A332" d="M190,126.6h9.9c1.4,0,2.5-1.1,2.5-2.5c0-1.4-1.1-2.5-2.5-2.5H190c-1.4,0-2.5,1.1-2.5,2.5
				C187.5,125.5,188.6,126.6,190,126.6L190,126.6z M190,126.6"/>
		</g>
		<g>
			<path fill="#51A332" d="M128,559.3V545c0-2-1.6-3.6-3.6-3.6c-2,0-3.6,1.6-3.6,3.6v14.4c0,2,1.6,3.6,3.6,3.6
				C126.4,562.9,128,561.3,128,559.3L128,559.3z M128,559.3"/>
		</g>
		<g>
			<path fill="#51A332" d="M141.8,616.2c-1.7,0-3-1.3-3-3v-114c0-1.7,1.3-3,3-3s3,1.3,3,3v114C144.8,614.8,143.4,616.2,141.8,616.2z
				"/>
		</g>
		<g>
			<path fill="#51A332" d="M947.1,329.2c-1.3,0-2.5-0.7-3.1-2c-0.7-1.7,0-3.7,1.7-4.4l58.3-25.7c0.4-0.2,0.9-0.3,1.4-0.3h201
				c1.9,0,3.4,1.5,3.4,3.4s-1.5,3.4-3.4,3.4h-200.3l-57.6,25.4C948,329.1,947.6,329.2,947.1,329.2z"/>
		</g>
		<g>
			<path fill="#51A332" d="M208.5,105.2c-0.3,0-0.5,0-0.8-0.2l-25.5-10.5c-0.7-0.3-1.2-1-1.2-1.8v-21c0-1.1,0.9-2,2-2s2,0.9,2,2
				v19.7l24.3,10c1,0.4,1.5,1.6,1.1,2.6C210,104.7,209.3,105.2,208.5,105.2z"/>
		</g>
		<g>
			<path fill="#51A332" d="M183.8,73.7c-7.3,0-13.2-5.9-13.2-13.2c0-7.3,5.9-13.2,13.2-13.2S197,53.1,197,60.4
				C197,67.7,191.1,73.7,183.8,73.7z M183.8,51.2c-5.1,0-9.2,4.1-9.2,9.2s4.1,9.2,9.2,9.2s9.2-4.1,9.2-9.2S188.9,51.2,183.8,51.2z"
				/>
		</g>
		<g>
			<path fill="#51A332" d="M310.5,180.2H273c-1.1,0-2-0.9-2-2s0.9-2,2-2h36.7l15.9-15.9c0.8-0.8,2-0.8,2.8,0c0.8,0.8,0.8,2,0,2.8
				l-16.5,16.5C311.5,180,311,180.2,310.5,180.2z"/>
		</g>
		<g>
			<path fill="#51A332" d="M332.3,164.4c-7.3,0-13.2-5.9-13.2-13.2c0-7.3,5.9-13.2,13.2-13.2s13.2,5.9,13.2,13.2
				C345.5,158.5,339.6,164.4,332.3,164.4z M332.3,141.9c-5.1,0-9.2,4.1-9.2,9.2s4.1,9.2,9.2,9.2s9.2-4.1,9.2-9.2
				S337.4,141.9,332.3,141.9z"/>
		</g>
		<g>
			<g>
				<path fill="#51A332" d="M1470.5,468.9c-1.5-1.9-3.8-3-6.2-3h-79c-2.1,0-4.1,0.8-5.6,2.3l-63.2,63.2c-1.5,1.5-2.3,3.5-2.3,5.6v79
					c0,4.4,3.5,7.9,7.9,7.9h126.4c4.4,0,7.9-3.5,7.9-7.9v-78l15.6-62.3C1472.6,473.3,1472,470.8,1470.5,468.9z M1448.5,615.9h-126.4
					v-71.1h126.4V615.9z M1448.5,536.9h-126.4l63.2-63.2h79L1448.5,536.9z"/>
			</g>
			<g>
				<rect x="1416.9" y="552.7" fill="#51A332" width="23.7" height="7.9"/>
			</g>
		</g>
		<g>
			<g>
				<path fill="#51A332" d="M1087.9,721.9l1.6,5.3c2.2,7.1-1.8,14.6-8.9,16.8l-16.5,5.1l-4.9-2.6c-23.4-12.4-52.4-3.5-64.8,19.9
					l-3,5.7c-0.3,0.5-0.3,1.1-0.2,1.7s0.6,1,1.1,1.3l5.7,3c23.4,12.4,52.4,3.5,64.8-19.9l2.6-4.9l16.5-5.1
					c9.4-2.9,14.7-12.8,11.8-22.2l-1.6-5.3c-0.4-1.2-1.6-1.8-2.7-1.4C1088.2,719.5,1087.6,720.7,1087.9,721.9z M1057.2,750.3l1,0.6
					l-24.8,7.6l-14.3-9.5C1030.9,743.7,1044.9,743.8,1057.2,750.3z M1014.6,751.3l13.4,8.8l-30.2,9.3l0.6-1
					C1002.2,761,1007.9,755.2,1014.6,751.3z M1000.1,774.1l-1-0.6l18.8-5.8l-4.7,10.8C1008.7,777.8,1004.3,776.4,1000.1,774.1z
					 M1017.7,779.1l5.6-13l18.5-5.7l-6.2,16C1029.9,778.6,1023.8,779.5,1017.7,779.1z M1041.3,773.9l5.8-15.1l12.4-3.8l-0.6,1
					C1054.8,763.9,1048.6,770,1041.3,773.9z"/>
			</g>
		</g>
		<g>
			<g>
				<path fill="#51A332" d="M907.8,716.2c0.4,1.1,1.6,1.8,2.7,1.4l5.3-1.7c9.3-3,14.5-13.1,11.5-22.4l-5.3-16.4l2.5-4.9
					c12-23.5,2.7-52.5-20.8-64.5l-5.7-2.9c-0.5-0.3-1.1-0.3-1.7-0.1c-0.6,0.2-1,0.6-1.3,1.1l-2.9,5.7c-12,23.5-2.7,52.5,20.8,64.5
					l4.9,2.5l5.3,16.4c2.3,7-1.6,14.6-8.6,16.9l-5.3,1.7C908,713.8,907.4,715,907.8,716.2z M892,641.5l16,6.3l8,24.7l-1-0.5
					C902.5,665.7,894.5,654.2,892,641.5z M896,613.4l0.5-1l9.7,30.1l-14.9-5.9C890.7,628.8,892.2,620.8,896,613.4z M912.9,619.7
					l-6.2,10l-6-18.7l1,0.5C906,613.7,909.7,616.5,912.9,619.7z M924,639.3l-9.6,14.3l-5.9-18.4l7.4-12.1
					C919.7,627.9,922.5,633.4,924,639.3z M920.6,670.1l-0.5,1l-4-12.4l9-13.4C926.1,653.6,924.7,662.2,920.6,670.1z"/>
			</g>
		</g>
		<g>
			<g>
				<path fill="#51A332" d="M1170.2,298.6c0.6,1,2,1.3,3,0.7l4.7-3c8.3-5.2,10.8-16.3,5.5-24.5l-9.2-14.6l1.2-5.4
					c5.8-25.8-10.5-51.5-36.3-57.3l-6.3-1.4c-0.6-0.1-1.2,0-1.6,0.3c-0.5,0.3-0.8,0.8-1,1.4l-1.4,6.3c-5.8,25.8,10.5,51.5,36.3,57.3
					l5.4,1.2l9.2,14.6c4,6.2,2.1,14.5-4.2,18.5l-4.7,3C1169.8,296.3,1169.5,297.6,1170.2,298.6z M1136.2,230.2l17.1,2.2l13.9,22
					l-1.1-0.3C1152.4,251,1141.8,241.9,1136.2,230.2z M1133,202l0.3-1.1l16.9,26.7l-15.9-2C1131.8,218.2,1131.2,210.1,1133,202z
					 M1151,203.9l-3.5,11.2l-10.5-16.6l1.1,0.3C1142.8,199.8,1147.1,201.6,1151,203.9z M1166.7,220.1l-5.7,16.2l-10.3-16.3l4.2-13.5
					C1159.7,210.1,1163.7,214.8,1166.7,220.1z M1171.1,250.8l-0.3,1.1l-7-11l5.4-15.3C1172.3,233.5,1173.1,242.1,1171.1,250.8z"/>
			</g>
		</g>
		<g>
			<g>
				<path fill="#51A332" d="M1438.7,179.4l-23.6-41.3V97c0-8.3-6.7-15-15-15h-54c-8.3,0-15,6.7-15,15v41.2l-23.6,41.3
					c0,0.1-0.1,0.1-0.1,0.2c0,0.1-0.1,0.2-0.1,0.2c-0.1,0.3-0.2,0.7-0.2,1c0,0,0,0,0,0v77.9c0,8.3,6.7,15,15,15h101.9
					c8.3,0,15-6.7,15-15v-77.9C1439.1,180.4,1439,179.9,1438.7,179.4L1438.7,179.4z M1337.2,97c0-5,4-9,9-9h54c5,0,9,4,9,9V136
					h-71.9V97z M1336,142h71l-20.5,36h-71L1336,142z M1385.2,267.8h-62.9c-5,0-9-4-9-9v-74.9h71.9V267.8z M1433.1,258.8c0,5-4,9-9,9
					h-33v-86.1l21-36.7l21,36.7V258.8z M1433.1,258.8"/>
			</g>
			<g>
				<path fill="#51A332" d="M1388.2,100h-30c-6.6,0-12,5.4-12,12c0,6.6,5.4,12,12,12h30c6.6,0,12-5.4,12-12
					C1400.1,105.4,1394.8,100,1388.2,100L1388.2,100z M1388.2,118h-30c-3.3,0-6-2.7-6-6c0-3.3,2.7-6,6-6h30c3.3,0,6,2.7,6,6
					C1394.1,115.3,1391.5,118,1388.2,118L1388.2,118z M1388.2,118"/>
			</g>
			<g>
				<path fill="#51A332" d="M1349.2,234.9c9.9,0,18-8.1,18-18c0-9.9-8.1-18-18-18c-9.9,0-18,8.1-18,18
					C1331.2,226.8,1339.3,234.9,1349.2,234.9L1349.2,234.9z M1349.2,204.9c6.6,0,12,5.4,12,12c0,6.6-5.4,12-12,12
					c-6.6,0-12-5.4-12-12C1337.2,210.3,1342.6,204.9,1349.2,204.9L1349.2,204.9z M1349.2,204.9"/>
			</g>
			<g>
				<rect x="1331.2" y="240.8" fill="#51A332" width="36" height="6"/>
			</g>
		</g>
		<g>
			<path fill="#51A332" d="M803,794.3h-51c-0.9,0-1.8-0.4-2.5-1c-0.7-0.7-1-1.6-1-2.5c0.7-60.3,2.4-210.1,2.2-239.5
				c-9.1,4-29.8,11.7-55.6,11.7c-30.5,0-74.4-11.3-110-65.2c-20.7-31.4-27.3-61.4-19.4-89.2c10.7-38.1,45-60.6,58.5-68.1
				c-3.5-2.6-8.1-6.7-12.3-12.5c-7.2-9.9-14.3-26.6-7.1-50.2c6.9-22.9,22.7-27.7,34.7-27.7c9,0,17.4,2.6,23,4.8
				c-0.8-6.9-1-18.2,3.3-31.2c6.4-19,24.3-45.2,73.2-62.2c13.5-4.7,26.2-7.1,37.7-7.1c25.6,0,46.3,11.8,60,34.1
				c7.5,12.2,10.9,24.2,12.2,30.1c3.8-0.7,10.4-1.7,18.4-1.7c15.6,0,37.5,3.7,53.5,21.5c11.7,13,16.9,29.6,15,48
				c-1,9.3-3.5,16.8-5.1,20.8c3.9,2.2,11.2,6.9,18.8,14.8c10.2,10.5,23,29.1,26.2,57.4c5.4,47.7-8.9,77.1-12.7,83.8
				c2.4,7.6,11.3,40.5-3.1,58.8c-8.6,10.9-20.5,16.7-34.3,16.7c-9.8,0-20.2-3-30.4-8.6c-3.2,9.8-12.4,33.5-28.8,47.4
				c-8.8,7.4-21.9,11.2-39.2,11.2c-8.6,0-16.1-1-20.6-1.7v203.8C806.5,792.8,804.9,794.3,803,794.3z M755.5,787.3h44V582.8
				c0-1.1,0.5-2.1,1.3-2.7c0.8-0.7,1.9-0.9,2.9-0.7c0.1,0,10.7,2.3,23.3,2.3c10.7,0,25.4-1.7,34.6-9.5
				c18.9-16.1,27.8-47.9,27.9-48.3c0.3-1.1,1.1-1.9,2.1-2.3c1-0.4,2.2-0.3,3.1,0.3c10.3,6.4,20.8,9.8,30.5,9.8
				c11.6,0,21.6-4.8,28.9-14c13.7-17.3,1.6-53.3,1.4-53.7c-0.3-1-0.2-2.1,0.4-3c0.2-0.3,18.3-29.7,12.5-80.7
				c-5.7-50.3-43.6-68-44-68.2c-0.9-0.4-1.5-1.1-1.9-2s-0.3-1.9,0.2-2.7c0.7-1.5,17.6-36.3-7.5-64.1c-14.3-15.9-34.1-19.2-48.3-19.2
				c-11.6,0-20.2,2.2-20.2,2.3c-1,0.3-2,0.1-2.8-0.5c-0.8-0.5-1.4-1.4-1.5-2.4c0-0.2-2.6-15.9-12.1-31.3
				c-12.5-20.3-30.6-30.6-53.9-30.6c-10.7,0-22.6,2.2-35.4,6.7c-36.6,12.7-60.4,32.7-68.8,57.8c-6.3,18.7-2,33.7-2,33.9
				c0.4,1.4-0.1,2.8-1.2,3.7c-1.1,0.9-2.6,1-3.9,0.4c-0.1-0.1-12.7-6.8-25.9-6.8c-14,0-23.5,7.7-28,22.7c-5.1,16.7-3,31.5,6.1,44.1
				c6.8,9.4,15.1,13.8,15.2,13.8c1.2,0.6,1.9,1.9,1.9,3.2c0,1.3-0.8,2.5-2,3.1c-0.5,0.2-47.9,22.9-60.1,66.5
				c-7.2,25.7-1,53.8,18.6,83.4c27.2,41.2,62.2,62.1,104.2,62.1c32.5,0,57-13.1,57.3-13.2c1.3-0.7,3.1-0.5,4.2,0.6
				c1.2,1.2,1.2,1.2,1.2,13.3c0,6.4,0,15.8-0.1,27.9c-0.1,20.4-0.4,48.7-0.7,84.2C756.3,720.8,755.7,773.4,755.5,787.3z"/>
		</g>
	</g>
</g>
<g id="_x33_F">
</g>
</svg>
