<?xml version="1.0" encoding="utf-8"?>
<!-- Generator: Adobe Illustrator 18.0.0, SVG Export Plug-In . SVG Version: 6.00 Build 0)  -->
<!DOCTYPE svg PUBLIC "-//W3C//DTD SVG 1.1//EN" "http://www.w3.org/Graphics/SVG/1.1/DTD/svg11.dtd" [
	<!ENTITY ns_flows "http://ns.adobe.com/Flows/1.0/">
	<!ENTITY ns_extend "http://ns.adobe.com/Extensibility/1.0/">
	<!ENTITY ns_ai "http://ns.adobe.com/AdobeIllustrator/10.0/">
	<!ENTITY ns_graphs "http://ns.adobe.com/Graphs/1.0/">
]>
<svg version="1.1" xmlns:x="&ns_extend;" xmlns:i="&ns_ai;" xmlns:graph="&ns_graphs;"
	 xmlns="http://www.w3.org/2000/svg" xmlns:xlink="http://www.w3.org/1999/xlink" xmlns:a="http://ns.adobe.com/AdobeSVGViewerExtensions/3.0/"
	 x="0px" y="0px" viewBox="0 0 618.3 430.5" enable-background="new 0 0 618.3 430.5" xml:space="preserve">
<g id="Sin">
</g>
<g id="_x31_">
</g>
<g id="_x31__x5F_Font">
</g>
<g id="_x32_">
</g>
<g id="_x32__x5F_Font">
</g>
<g id="_x33_">
</g>
<g id="_x33__x5F_Font">
</g>
<g id="_x34_">
</g>
<g id="_x34__x5F_Font">
</g>
<g id="_x34_1">
</g>
<g id="_x34_1Font">
</g>
<g id="_x34_2">
	<g>
		
			<circle fill="none" stroke="#51A332" stroke-width="5.769" stroke-linecap="round" stroke-linejoin="round" stroke-miterlimit="10" cx="136.5" cy="298.3" r="121.9"/>
		<g>
			<path fill="#51A332" d="M76.1,309.7v2c0,5.6-1.7,9.1-5.6,10.9v0.2c4.6,1.8,6.4,5.9,6.4,11.6v4.5c0,8.4-4.5,13-13.1,13H50.4
				l0-54.7h13C72.3,297.1,76.1,301.2,76.1,309.7z M59,304.9v14.5h3.4c3.2,0,5.2-1.4,5.2-5.8v-3c0-3.9-1.3-5.6-4.4-5.6H59z M59,327.2
				V344h4.9c2.9,0,4.5-1.3,4.5-5.4v-4.8c0-5.1-1.6-6.6-5.6-6.6H59z"/>
			<path fill="#51A332" d="M82.1,297.1h8.6v54.7h-8.6L82.1,297.1z"/>
			<path fill="#51A332" d="M97,297.1h8.6V344h14.2v7.8H97L97,297.1z"/>
			<path fill="#51A332" d="M123.5,297.1h8.6V344h14.2v7.8h-22.8L123.5,297.1z"/>
			<path fill="#51A332" d="M150,297.1h8.6l0,54.7H150V297.1z"/>
			<path fill="#51A332" d="M164.2,310.2c0-8.8,4.6-13.8,13.1-13.8s13.1,5,13.1,13.8l0,28.5c0,8.8-4.6,13.8-13.1,13.8
				c-8.4,0-13.1-5-13.1-13.8V310.2z M172.8,339.2c0,3.9,1.7,5.4,4.5,5.4s4.5-1.5,4.5-5.4v-29.6c0-3.9-1.7-5.4-4.5-5.4
				c-2.7,0-4.5,1.5-4.5,5.4L172.8,339.2z"/>
			<path fill="#51A332" d="M203.6,312.2h-0.2v39.6h-7.7v-54.7h10.8l8.7,32.8h0.2v-32.8h7.7v54.7h-8.8L203.6,312.2z"/>
		</g>
		
			<circle fill="none" stroke="#51A332" stroke-width="5.769" stroke-linecap="round" stroke-linejoin="round" stroke-miterlimit="10" cx="457.7" cy="274.2" r="145.9"/>
		<g>
			<path fill="#51A332" d="M357.5,249.4v5.7c0,6.8-3.4,10.7-10,10.7s-10-3.9-10-10.7l0-22.2c0-6.8,3.4-10.7,10-10.7
				c6.6,0,10,3.9,10,10.7v4.1h-6.3v-4.6c0-3.1-1.3-4.2-3.5-4.2s-3.5,1.2-3.5,4.2l0,23.1c0,3,1.3,4.1,3.5,4.1c2.1,0,3.5-1.1,3.5-4.1
				v-6.1H357.5z"/>
			<path fill="#51A332" d="M361.6,222.6h6.7v36.6h11v6.1h-17.8V222.6z"/>
			<path fill="#51A332" d="M381.7,232.8c0-6.8,3.6-10.7,10.2-10.7c6.6,0,10.2,3.9,10.2,10.7l0,22.2c0,6.8-3.6,10.7-10.2,10.7
				s-10.2-3.9-10.2-10.7L381.7,232.8z M388.4,255.5c0,3,1.3,4.2,3.5,4.2c2.1,0,3.5-1.2,3.5-4.2v-23.1c0-3.1-1.3-4.2-3.5-4.2
				c-2.1,0-3.5,1.2-3.5,4.2V255.5z"/>
			<path fill="#51A332" d="M415.4,222.1c6.5,0,9.9,3.9,9.9,10.7v1.3H419v-1.8c0-3.1-1.2-4.2-3.4-4.2c-2.1,0-3.4,1.2-3.4,4.2
				c0,3.1,1.3,5.4,5.7,9.3c5.6,4.9,7.4,8.5,7.4,13.4c0,6.8-3.4,10.7-10,10.7s-10-3.9-10-10.7v-2.6h6.3v3c0,3,1.3,4.1,3.5,4.1
				s3.5-1.1,3.5-4.1c0-3.1-1.3-5.4-5.7-9.3c-5.6-4.9-7.4-8.5-7.4-13.4C405.6,226,408.9,222.1,415.4,222.1z"/>
			<path fill="#51A332" d="M435.9,240.6h9.2v6.1h-9.2v12.5h11.6v6.1h-18.3v-42.7h18.3v6.1h-11.6V240.6z"/>
			<path fill="#51A332" d="M459.2,222.6h20.7v6.1h-7l0,36.6h-6.7l0-36.6h-7V222.6z"/>
			<path fill="#51A332" d="M482.3,232.8c0-6.8,3.6-10.7,10.2-10.7c6.6,0,10.2,3.9,10.2,10.7l0,22.2c0,6.8-3.6,10.7-10.2,10.7
				s-10.2-3.9-10.2-10.7L482.3,232.8z M489,255.5c0,3,1.3,4.2,3.5,4.2c2.1,0,3.5-1.2,3.5-4.2v-23.1c0-3.1-1.3-4.2-3.5-4.2
				c-2.1,0-3.5,1.2-3.5,4.2V255.5z"/>
			<path fill="#51A332" d="M384.9,293v2.3c0,6.7-2,10.9-6.6,13v0.2c5.5,2.1,7.6,7,7.6,13.9v5.3c0,10-5.3,15.4-15.5,15.4h-16.1
				l0-65.1h15.4C380.3,278,384.9,282.9,384.9,293z M364.5,287.3l0,17.2h4c3.8,0,6.1-1.7,6.1-6.9V294c0-4.7-1.6-6.7-5.2-6.7H364.5z
				 M364.5,313.8v20h5.9c3.4,0,5.3-1.6,5.3-6.4v-5.7c0-6-2-7.9-6.6-7.9H364.5z"/>
			<path fill="#51A332" d="M392,278h10.2l0,65.1H392L392,278z"/>
			<path fill="#51A332" d="M409.7,278h10.2v55.8h16.8l0,9.3h-27.1V278z"/>
			<path fill="#51A332" d="M441.2,278h10.2l0,55.8h16.8v9.3h-27.1L441.2,278z"/>
			<path fill="#51A332" d="M472.8,278H483l0,65.1h-10.2V278z"/>
			<path fill="#51A332" d="M489.6,293.6c0-10.4,5.5-16.4,15.5-16.4c10,0,15.5,6,15.5,16.4v33.9c0,10.4-5.5,16.4-15.5,16.4
				c-10,0-15.5-6-15.5-16.4V293.6z M499.8,328.1c0,4.7,2,6.4,5.3,6.4c3.3,0,5.3-1.8,5.3-6.4l0-35.2c0-4.7-2-6.4-5.3-6.4
				c-3.3,0-5.3,1.8-5.3,6.4V328.1z"/>
			<path fill="#51A332" d="M536.6,295.9h-0.2v47.2h-9.2l0-65.1H540l10.3,39h0.2v-39h9.1l0,65.1h-10.5L536.6,295.9z"/>
		</g>
		<g>
			<g>
				<path fill="#51A332" d="M152.6,179h-29.7c-1,0-1.8-0.8-1.8-1.8v-35h-0.4c-5.3,0-9.6-4.3-9.6-9.6v-23.2c0-5.3,4.3-9.6,9.6-9.6
					h34.1c5.3,0,9.6,4.3,9.6,9.6v23.2c0,5.3-4.3,9.6-9.6,9.6h-0.4v35C154.4,178.2,153.6,179,152.6,179L152.6,179z M124.7,175.4h26.1
					v-35c0-1,0.8-1.8,1.8-1.8h2.2c3.3,0,6-2.7,6-6v-23.2c0-3.3-2.7-6-6-6h-34.1c-3.3,0-6,2.7-6,6v23.2c0,3.3,2.7,6,6,6h2.2
					c1,0,1.8,0.8,1.8,1.8V175.4z M124.7,175.4"/>
				<path fill="#51A332" d="M137.7,95.7c-9.8,0-17.8-8-17.8-17.8c0-9.8,8-17.8,17.8-17.8s17.8,8,17.8,17.8
					C155.5,87.7,147.5,95.7,137.7,95.7L137.7,95.7z M137.7,63.7c-7.8,0-14.2,6.3-14.2,14.2c0,7.8,6.4,14.2,14.2,14.2
					c7.8,0,14.2-6.3,14.2-14.2C151.9,70.1,145.5,63.7,137.7,63.7L137.7,63.7z M137.7,63.7"/>
			</g>
		</g>
		<g>
			<g>
				<path fill="#51A332" d="M114.1,179.1l-24.8,8c-0.8,0.3-1.7-0.2-2-1L77.9,157l-0.3,0.1c-4.4,1.4-9.2-1-10.6-5.4l-6.3-19.3
					c-1.4-4.4,1-9.2,5.4-10.6l28.4-9.2c4.4-1.4,9.2,1,10.6,5.4l6.3,19.3c1.4,4.4-1,9.2-5.4,10.6l-0.3,0.1l9.4,29.1
					C115.4,178,114.9,178.8,114.1,179.1L114.1,179.1z M89.9,183.6l21.8-7l-9.4-29.1c-0.3-0.8,0.2-1.7,1-2l1.8-0.6
					c2.8-0.9,4.3-3.9,3.4-6.6l-6.3-19.3c-0.9-2.8-3.9-4.3-6.6-3.4l-28.4,9.2c-2.8,0.9-4.3,3.9-3.4,6.6l6.3,19.3
					c0.9,2.8,3.9,4.3,6.6,3.4l1.8-0.6c0.8-0.3,1.7,0.2,2,1L89.9,183.6z M89.9,183.6"/>
				<path fill="#51A332" d="M79.2,113.7c-8.2,2.6-16.9-1.8-19.6-10c-2.6-8.2,1.8-16.9,10-19.6c8.2-2.6,16.9,1.8,19.6,10
					C91.9,102.3,87.4,111.1,79.2,113.7L79.2,113.7z M70.6,87.1c-6.5,2.1-10.1,9.1-8,15.6c2.1,6.5,9.1,10.1,15.6,8
					c6.5-2.1,10.1-9.1,8-15.6C84.1,88.6,77.1,85,70.6,87.1L70.6,87.1z M70.6,87.1"/>
			</g>
		</g>
		<g>
			<g>
				<path fill="#51A332" d="M164,179.1c-0.8-0.3-1.3-1.1-1-2l9.4-29.1l-0.3-0.1c-4.4-1.4-6.8-6.2-5.4-10.6l6.3-19.3
					c1.4-4.4,6.2-6.8,10.6-5.4l28.4,9.2c4.4,1.4,6.8,6.2,5.4,10.6l-6.3,19.3c-1.4,4.4-6.2,6.8-10.6,5.4l-0.3-0.1l-9.4,29.1
					c-0.3,0.8-1.2,1.3-2,1L164,179.1L164,179.1z M197.6,154.5c0.3-0.8,1.2-1.3,2-1l1.8,0.6c2.8,0.9,5.7-0.6,6.6-3.4l6.3-19.3
					c0.9-2.8-0.6-5.7-3.4-6.6l-28.4-9.2c-2.8-0.9-5.7,0.6-6.6,3.4l-6.3,19.3c-0.9,2.8,0.6,5.7,3.4,6.6l1.8,0.6c0.8,0.3,1.3,1.2,1,2
					l-9.4,29.1l21.8,7L197.6,154.5z M188.2,183.6"/>
				<path fill="#51A332" d="M198.8,113.7c-8.1-2.6-12.6-11.4-10-19.6c2.6-8.2,11.4-12.6,19.6-10c8.2,2.6,12.7,11.4,10,19.6
					C215.8,111.8,207,116.3,198.8,113.7L198.8,113.7z M207.4,87.1c-6.5-2.1-13.5,1.5-15.6,8c-2.1,6.5,1.5,13.5,8,15.6
					c6.5,2.1,13.5-1.5,15.6-8C217.5,96.2,214,89.2,207.4,87.1L207.4,87.1z M207.4,87.1"/>
			</g>
		</g>
		<g>
			<g>
				<path fill="#51A332" d="M472.8,129.2h-29.7c-1,0-1.8-0.8-1.8-1.8v-35h-0.4c-5.3,0-9.6-4.3-9.6-9.6V59.7c0-5.3,4.3-9.6,9.6-9.6
					H475c5.3,0,9.6,4.3,9.6,9.6v23.2c0,5.3-4.3,9.6-9.6,9.6h-0.4v35C474.6,128.4,473.8,129.2,472.8,129.2L472.8,129.2z M444.9,125.6
					H471v-35c0-1,0.8-1.8,1.8-1.8h2.2c3.3,0,6-2.7,6-6V59.7c0-3.3-2.7-6-6-6h-34.1c-3.3,0-6,2.7-6,6v23.2c0,3.3,2.7,6,6,6h2.2
					c1,0,1.8,0.8,1.8,1.8V125.6z M444.9,125.6"/>
				<path fill="#51A332" d="M458,45.9c-9.8,0-17.8-8-17.8-17.8c0-9.8,8-17.8,17.8-17.8s17.8,8,17.8,17.8
					C475.7,37.9,467.7,45.9,458,45.9L458,45.9z M458,13.9c-7.8,0-14.2,6.3-14.2,14.2c0,7.8,6.4,14.2,14.2,14.2
					c7.8,0,14.2-6.3,14.2-14.2C472.1,20.3,465.8,13.9,458,13.9L458,13.9z M458,13.9"/>
			</g>
		</g>
		<g>
			<g>
				<path fill="#51A332" d="M434.3,129.3l-24.8,8c-0.8,0.3-1.7-0.2-2-1l-9.4-29.1l-0.3,0.1c-4.4,1.4-9.2-1-10.6-5.4L381,82.6
					c-1.4-4.4,1-9.2,5.4-10.6l28.4-9.2c4.4-1.4,9.2,1,10.6,5.4l6.3,19.3c1.4,4.4-1,9.2-5.4,10.6l-0.3,0.1l9.4,29.1
					C435.6,128.2,435.2,129,434.3,129.3L434.3,129.3z M410.1,133.9l21.8-7l-9.4-29.1c-0.3-0.8,0.2-1.7,1-2l1.8-0.6
					c2.8-0.9,4.3-3.9,3.4-6.6l-6.3-19.3c-0.9-2.8-3.9-4.3-6.6-3.4L387.4,75c-2.8,0.9-4.3,3.9-3.4,6.6l6.3,19.3
					c0.9,2.8,3.9,4.3,6.6,3.4l1.8-0.6c0.8-0.3,1.7,0.2,2,1L410.1,133.9z M410.1,133.9"/>
				<path fill="#51A332" d="M399.5,63.9c-8.2,2.6-16.9-1.8-19.6-10c-2.6-8.2,1.8-16.9,10-19.6c8.2-2.6,16.9,1.8,19.6,10
					C412.1,52.5,407.6,61.3,399.5,63.9L399.5,63.9z M390.9,37.3c-6.5,2.1-10.1,9.1-8,15.6c2.1,6.5,9.1,10.1,15.6,8
					c6.5-2.1,10.1-9.1,8-15.6C404.4,38.8,397.4,35.2,390.9,37.3L390.9,37.3z M390.9,37.3"/>
			</g>
		</g>
		<g>
			<g>
				<path fill="#51A332" d="M484.2,129.3c-0.8-0.3-1.3-1.1-1-2l9.4-29.1l-0.3-0.1c-4.4-1.4-6.8-6.2-5.4-10.6l6.3-19.3
					c1.4-4.4,6.2-6.8,10.6-5.4l28.4,9.2c4.4,1.4,6.8,6.2,5.4,10.6l-6.3,19.3c-1.4,4.4-6.2,6.8-10.6,5.4l-0.3-0.1l-9.4,29.1
					c-0.3,0.8-1.2,1.3-2,1L484.2,129.3L484.2,129.3z M517.9,104.7c0.3-0.8,1.2-1.3,2-1l1.8,0.6c2.8,0.9,5.7-0.6,6.6-3.4l6.3-19.3
					c0.9-2.8-0.6-5.7-3.4-6.6l-28.4-9.2c-2.8-0.9-5.7,0.6-6.6,3.4l-6.3,19.3c-0.9,2.8,0.6,5.7,3.4,6.6l1.8,0.6c0.8,0.3,1.3,1.2,1,2
					l-9.4,29.1l21.8,7L517.9,104.7z M508.5,133.9"/>
				<path fill="#51A332" d="M519.1,63.9c-8.1-2.6-12.6-11.4-10-19.6c2.6-8.2,11.4-12.6,19.6-10c8.2,2.6,12.7,11.4,10,19.6
					C536,62.1,527.2,66.5,519.1,63.9L519.1,63.9z M527.7,37.3c-6.5-2.1-13.5,1.5-15.6,8c-2.1,6.5,1.5,13.5,8,15.6
					c6.5,2.1,13.5-1.5,15.6-8C537.8,46.4,534.2,39.4,527.7,37.3L527.7,37.3z M527.7,37.3"/>
			</g>
		</g>
		<g>
			<g>
				<path fill="#51A332" d="M521.8,143.5c-0.7-0.4-0.9-1.2-0.5-1.9l13.5-23.2l-0.3-0.2c-3.5-2-4.7-6.6-2.7-10.1l8.9-15.4
					c2-3.5,6.6-4.7,10.1-2.7l22.7,13.2c3.5,2,4.7,6.6,2.7,10.1l-8.9,15.4c-2,3.5-6.6,4.7-10.1,2.7l-0.3-0.2l-13.5,23.2
					c-0.4,0.7-1.2,0.9-1.9,0.5L521.8,143.5L521.8,143.5z M555.2,128.7c0.4-0.7,1.2-0.9,1.9-0.5l1.5,0.8c2.2,1.3,5,0.5,6.3-1.7
					l8.9-15.4c1.3-2.2,0.5-5-1.7-6.3l-22.7-13.2c-2.2-1.3-5-0.5-6.3,1.7l-8.9,15.4c-1.3,2.2-0.5,5,1.7,6.3l1.5,0.8
					c0.7,0.4,0.9,1.2,0.5,1.9l-13.5,23.2l17.3,10.1L555.2,128.7z M541.8,151.9"/>
				<path fill="#51A332" d="M563.8,93.9c-6.5-3.8-8.7-12.1-4.9-18.7c3.8-6.5,12.1-8.7,18.6-4.9c6.5,3.8,8.7,12.1,5,18.7
					C578.7,95.4,570.3,97.6,563.8,93.9L563.8,93.9z M576.1,72.7c-5.2-3-11.9-1.2-14.9,3.9c-3,5.2-1.2,11.9,3.9,14.9
					c5.2,3,11.9,1.3,14.9-3.9C583.1,82.3,581.3,75.7,576.1,72.7L576.1,72.7z M576.1,72.7"/>
			</g>
		</g>
		<g>
			<g>
				<path fill="#51A332" d="M397.1,141.5L377.4,153c-0.7,0.4-1.5,0.2-1.9-0.5L362,129.3l-0.3,0.2c-3.5,2-8,0.8-10.1-2.7l-8.9-15.4
					c-2-3.5-0.8-8,2.7-10.1l22.7-13.2c3.5-2,8-0.8,10.1,2.7l8.9,15.4c2,3.5,0.8,8-2.7,10.1l-0.3,0.2l13.5,23.2
					C398,140.3,397.8,141.2,397.1,141.5L397.1,141.5z M377.2,149.9l17.3-10.1l-13.5-23.2c-0.4-0.7-0.2-1.5,0.5-1.9l1.5-0.8
					c2.2-1.3,2.9-4.1,1.7-6.3l-8.9-15.4c-1.3-2.2-4.1-2.9-6.3-1.7l-22.7,13.2c-2.2,1.3-2.9,4.1-1.7,6.3l8.9,15.4
					c1.3,2.2,4.1,3,6.3,1.7l1.5-0.8c0.7-0.4,1.5-0.2,1.9,0.5L377.2,149.9z M377.2,149.9"/>
				<path fill="#51A332" d="M355.1,91.9c-6.5,3.8-14.9,1.6-18.7-5c-3.8-6.5-1.6-14.9,5-18.7c6.5-3.8,14.9-1.6,18.6,4.9
					C363.9,79.8,361.6,88.2,355.1,91.9L355.1,91.9z M342.8,70.7c-5.2,3-7,9.7-4,14.9c3,5.2,9.7,7,14.9,3.9c5.2-3,7-9.7,3.9-14.9
					C354.7,69.5,348,67.7,342.8,70.7L342.8,70.7z M342.8,70.7"/>
			</g>
		</g>
	</g>
</g>
<g id="_x34_2Font">
</g>
<g id="_x34_3">
</g>
<g id="_x34_3Font">
</g>
<g id="_x34_4">
</g>
<g id="_x34_4Font">
</g>
<g id="_x34_5">
</g>
<g id="_x34_5Font">
</g>
</svg>
